<svg xmlns="http://www.w3.org/2000/svg" width="930" height="458.87" viewBox="0 0 930 458.87">
  <g id="Grupo_18156" data-name="Grupo 18156" transform="translate(-235 -4056.13)">
    <path id="Trazado_17434" data-name="Trazado 17434" d="M1234.786,371.447c-34.936-29.8-77.052-209.518-221.332-115.916-74.543,48.36-200.238-41.517-304.276-10.473C613.631,273.567,604.42,367.5,613.665,398.105c18.674,61.826-39.44,71.027-93.35,97.591C435.751,537.364,497.935,683.8,577.824,684.5s563.87-1.394,563.87-1.394,116.055.294,164.317-63.76C1357.945,550.42,1325.023,448.42,1234.786,371.447Z" transform="translate(-205.292 3827.354)" fill="#ebf2f9"/>
    <g id="Grupo_18155" data-name="Grupo 18155" transform="translate(461.301 4047.974)">
      <ellipse id="Elipse_846" data-name="Elipse 846" cx="53.378" cy="41.145" rx="53.378" ry="41.145" transform="translate(53.435 53.876)" fill="#fff"/>
      <ellipse id="Elipse_847" data-name="Elipse 847" cx="56.51" cy="41.145" rx="56.51" ry="41.145" transform="translate(304.487 48.033)" fill="#fff"/>
      <path id="Trazado_17379" data-name="Trazado 17379" d="M203.328,150.944l-18-21.222-19.323,16.061-25.356-31.1-14.924,15.44,37.814,29.5,22.66-18.285Z" transform="translate(-5.453 -6.827)" fill="#fff"/>
      <path id="Trazado_17380" data-name="Trazado 17380" d="M297.066,154.366l16.026-16.716,17.378,16.716,24.561-32.421,20.061,11.789L333.908,169.4l-20.816-23.38Z" transform="translate(-17.227 -7.326)" fill="#fff"/>
      <g id="Grupo_18152" data-name="Grupo 18152" transform="translate(46.359 103.334)">
        <path id="Trazado_17381" data-name="Trazado 17381" d="M194.954,375.188l-8.242,116.236h60.23l4.414-40.148,3.591,40.148h54.572l-6.079-116.236Z" transform="translate(-56.003 -128.061)" fill="#29204f"/>
        <path id="Trazado_17382" data-name="Trazado 17382" d="M190.726,439.859s22.741-10.268,30.861-47.848" transform="translate(-56.279 -129.217)" fill="none" stroke="#0c0a0b" stroke-miterlimit="10" stroke-width="1"/>
        <path id="Trazado_17383" data-name="Trazado 17383" d="M287.571,395.571s6.557,43.012,26.121,44.532" transform="translate(-62.933 -129.461)" fill="none" stroke="#0c0a0b" stroke-miterlimit="10" stroke-width="1"/>
        <path id="Trazado_17384" data-name="Trazado 17384" d="M252.586,474.2s-7.751-10.807-11.483-19.158c0,0,10.28,1.413,13.991,1.719Z" transform="translate(-59.74 -133.548)" fill="#0c0a0b"/>
        <path id="Trazado_17385" data-name="Trazado 17385" d="M252.646,389.9s3.076,53.749,3.241,62.386" transform="translate(-60.534 -129.072)" fill="none" stroke="#0c0a0b" stroke-miterlimit="10" stroke-width="1"/>
        <path id="Trazado_17386" data-name="Trazado 17386" d="M255.082,436.473s4.467-2.216,6.432-4.181,0-40.281,0-40.281" transform="translate(-60.701 -129.217)" fill="none" stroke="#0c0a0b" stroke-miterlimit="10" stroke-width="1"/>
        <path id="Trazado_17387" data-name="Trazado 17387" d="M301.684,305.7c-.2,27.6,1.774,51.836.921,53.068a19.356,19.356,0,0,1-5.668,4.926l-96.1.364c-3.639,0-7.277-1.777-8.089-4.94-.349-1.358,2.674-24.327,3.009-51.391.462-36.118-.411-81.618-.172-83.227.405-2.826,42.8-10.987,44.993-11.324,0,0,9.757,11.55,24.53,0,0,0,36.261,10.691,38.052,11.46C304.088,225.04,301.95,268.4,301.684,305.7Z" transform="translate(-56.416 -116.928)" fill="#fff"/>
        <path id="Trazado_17388" data-name="Trazado 17388" d="M255.516,218.645l-6.217,6.794,2.931,2.808-5.49,93,7.942,13.688,10.594-12.82-7.432-93.051,3.7-3.984Z" transform="translate(-60.128 -117.304)" fill="#db4987"/>
        <path id="Trazado_17389" data-name="Trazado 17389" d="M301.025,221.716c-1.326-.977-36.175-8.542-36.175-8.542l-14.141,113.5-10.388-113.5s-44.065,7.041-44.354,8.542c-.989,5.123-7.033,175.691-7.033,175.691,35.393,15.719,61.775-17.684,61.775-17.684s21.86,36.842,58.359,19.041C309.068,398.764,305.2,224.79,301.025,221.716Z" transform="translate(-56.156 -116.928)" fill="#352967"/>
        <path id="Trazado_17390" data-name="Trazado 17390" d="M90.7,214.451s-21.614,4.359-23.088,20.938C67.615,235.389,87.633,236.251,90.7,214.451Z" transform="translate(-47.82 -117.016)" fill="#070019"/>
        <path id="Trazado_17391" data-name="Trazado 17391" d="M46.815,202.22c3.191,3.774,20.26,12.143,20.26,12.143l12.342-7.922s-2.345-5.646-3-6.665c-1.045-1.624-10.007-10.1-11.078-9.755-2.425.772,2.119,7.322,2.119,7.322a44.647,44.647,0,0,1-4.646-1c-1.2-.544-2.184-13.807-3.411-13.807s-1.351,12.342-1.351,12.342-1.351-15.658-2.825-15.658-.552,16.088-.552,16.088-1.888-15.138-3.5-15.228c-1.583-.088.3,17.963.184,16.579,0,0-1.6-7.859-3.192-7.736C45.824,189.1,46.221,201.517,46.815,202.22Z" transform="translate(-46.359 -114.595)" fill="#ff96aa"/>
        <path id="Trazado_17392" data-name="Trazado 17392" d="M51.132,198.675a34.763,34.763,0,0,1,9.088-2.64" transform="translate(-46.687 -115.751)" fill="none" stroke="#0d0000" stroke-miterlimit="10" stroke-width="1"/>
        <path id="Trazado_17393" data-name="Trazado 17393" d="M68.6,216.372,77.447,244s10.5,1.29,15.842-5.342L80.946,208.45Z" transform="translate(-47.888 -116.604)" fill="#ff96aa"/>
        <path id="Trazado_17394" data-name="Trazado 17394" d="M279.809,162.933s4.825-15.008,5.1-22.376-9.944-12.526-9.944-12.526,8.559-5.158,7.913-9.21-9.636-1.842-9.636-1.842,1.593-5.158-1.524-7-34.066,13.631-38.855,22.474.663,30.525.663,30.525c1.156,5.949,2.825,17.835,7.7,18.615s26.937,2.393,30,1.127S277.66,168.714,279.809,162.933Z" transform="translate(-59.039 -109.827)" fill="#070019"/>
        <path id="Trazado_17395" data-name="Trazado 17395" d="M244.113,190.2V211.6s10.139,11.631,24.53,0V191.19Z" transform="translate(-59.947 -115.35)" fill="#ff96aa"/>
        <path id="Trazado_17396" data-name="Trazado 17396" d="M258.348,199.713l11.27,8.293,0-16.743H258.348Z" transform="translate(-60.925 -115.423)" fill="#070019"/>
        <path id="Trazado_17397" data-name="Trazado 17397" d="M275.054,148.753c-2.234-6.7-9.256-7.341-18.322-7.341s-16.088.639-18.322,7.341.831,26.971,2.107,32.077,9.2,15.458,16.407,15.458,15.131-10.35,16.407-15.458S277.288,155.456,275.054,148.753Z" transform="translate(-59.501 -111.997)" fill="#ff96aa"/>
        <path id="Trazado_17398" data-name="Trazado 17398" d="M273.681,177.9c.087-2.565-6.9-3.02-6.973-.141S273.545,181.891,273.681,177.9Z" transform="translate(-61.5 -114.359)" fill="#ea7e8e"/>
        <path id="Trazado_17399" data-name="Trazado 17399" d="M241.632,178.079c-.057-2.568,6.934-2.742,6.973.141S241.72,182.072,241.632,178.079Z" transform="translate(-59.777 -114.381)" fill="#ea7e8e"/>
        <g id="Grupo_18146" data-name="Grupo 18146" transform="translate(189.478 51.766)">
          <g id="Grupo_18145" data-name="Grupo 18145">
            <g id="Grupo_18144" data-name="Grupo 18144">
              <g id="Grupo_18143" data-name="Grupo 18143">
                <path id="Trazado_17400" data-name="Trazado 17400" d="M252.452,167.824c0,1.335-.584,2.418-1.311,2.419s-1.32-1.078-1.323-2.412.583-2.418,1.31-2.419S252.448,166.49,252.452,167.824Z" transform="translate(-249.817 -165.412)" fill="#070019"/>
              </g>
            </g>
          </g>
        </g>
        <g id="Grupo_18150" data-name="Grupo 18150" transform="translate(202.513 51.766)">
          <g id="Grupo_18149" data-name="Grupo 18149" transform="translate(0)">
            <g id="Grupo_18148" data-name="Grupo 18148">
              <g id="Grupo_18147" data-name="Grupo 18147">
                <path id="Trazado_17401" data-name="Trazado 17401" d="M263.814,167.824c0,1.335.584,2.418,1.311,2.419s1.32-1.078,1.323-2.412-.584-2.418-1.311-2.419S263.818,166.49,263.814,167.824Z" transform="translate(-263.814 -165.412)" fill="#070019"/>
              </g>
            </g>
          </g>
        </g>
        <path id="Trazado_17402" data-name="Trazado 17402" d="M238.18,162.788s-8.488-3.536-9.018,3.89,3.89,10.432,10.608,7.78Z" transform="translate(-58.917 -113.408)" fill="#ff96aa"/>
        <path id="Trazado_17403" data-name="Trazado 17403" d="M276.657,162.949s8.487-3.537,9.018,3.889-3.89,10.432-10.609,7.78Z" transform="translate(-62.074 -113.419)" fill="#ff96aa"/>
        <path id="Trazado_17404" data-name="Trazado 17404" d="M234.988,214.218l-8.05,48.551,8.828,7.041-6.12,8.2s6.03,36.233,23.674,48.736" transform="translate(-58.767 -117)" fill="none" stroke="#0c0a0b" stroke-miterlimit="10" stroke-width="1"/>
        <path id="Trazado_17405" data-name="Trazado 17405" d="M275.649,214.218l7.191,44.178-9.223,7.076,5.658,8.236s-5.57,38.074-24.008,53.033" transform="translate(-60.714 -117)" fill="none" stroke="#0c0a0b" stroke-miterlimit="10" stroke-width="1"/>
        <path id="Trazado_17406" data-name="Trazado 17406" d="M252.646,351.071" transform="translate(-60.534 -126.404)" fill="none" stroke="#0d0000" stroke-miterlimit="10" stroke-width="0.75"/>
        <path id="Trazado_17407" data-name="Trazado 17407" d="M243.524,199.947s-3.106,1.126-4.764,1.834-2.541,10.587-3.181,11.457,6.557,9.461,10.4,13.725l8.708-9.6-11.167-5.1Z" transform="translate(-59.358 -116.019)" fill="#fff"/>
        <path id="Trazado_17408" data-name="Trazado 17408" d="M269.471,198.608s2.909,2.053,4.3,2.979c1.5,1,1.945,11.558,1.945,11.558.641.87-5.477,10.476-9.788,14.537l-9.759-10.415,13.307-5.1Z" transform="translate(-60.775 -115.927)" fill="#fff"/>
        <path id="Trazado_17409" data-name="Trazado 17409" d="M237.373,160.3a19.419,19.419,0,0,0,6.051-15.688s9.893,7.3,15.419,4.79,4.193-6.442,12.6-5.984c0,0-4.387-12.437-21.387-12.069S231.051,155.741,237.373,160.3Z" transform="translate(-59.257 -111.306)" fill="#070019"/>
        <path id="Trazado_17410" data-name="Trazado 17410" d="M259.457,167.995s-1.751,9.952-1.877,13.39h4.306" transform="translate(-60.873 -113.824)" fill="none" stroke="#0d0000" stroke-miterlimit="10" stroke-width="1"/>
        <path id="Trazado_17411" data-name="Trazado 17411" d="M238.123,172.409c-2.51,0-4.545-1.569-4.545-3.5a3.624,3.624,0,0,1,2.776-3.229" transform="translate(-59.223 -113.665)" fill="none" stroke="#0d0000" stroke-miterlimit="10" stroke-width="1"/>
        <path id="Trazado_17412" data-name="Trazado 17412" d="M278.344,172.409c2.51,0,4.545-1.569,4.545-3.5a3.625,3.625,0,0,0-2.775-3.229" transform="translate(-62.299 -113.665)" fill="none" stroke="#0d0000" stroke-miterlimit="10" stroke-width="1"/>
        <path id="Trazado_17413" data-name="Trazado 17413" d="M251.542,160.911a4.7,4.7,0,0,1-3.595,1.163c-1.2-.092-1.189,1.771,0,1.863a6.564,6.564,0,0,0,4.912-1.709C253.755,161.429,252.434,160.115,251.542,160.911Z" transform="translate(-60.149 -113.32)" fill="#070019"/>
        <path id="Trazado_17414" data-name="Trazado 17414" d="M264.982,160.911a4.7,4.7,0,0,0,3.595,1.163c1.195-.092,1.189,1.771,0,1.863a6.567,6.567,0,0,1-4.913-1.709C262.768,161.429,264.089,160.115,264.982,160.911Z" transform="translate(-61.27 -113.32)" fill="#070019"/>
        <g id="Grupo_18151" data-name="Grupo 18151" transform="translate(178.116 47.344)">
          <path id="Trazado_17415" data-name="Trazado 17415" d="M237.618,160.664h18.091s-.549,9.278-1,12.062c-.429,2.659-13.318,1.082-14.753,0C237.485,170.862,237.618,160.664,237.618,160.664Z" transform="translate(-237.617 -160.664)" fill="none" stroke="#0c0a0b" stroke-miterlimit="10" stroke-width="1"/>
          <path id="Trazado_17416" data-name="Trazado 17416" d="M278.449,160.664H260.357s.55,9.278,1,12.062c.429,2.659,13.318,1.082,14.753,0C278.581,170.862,278.449,160.664,278.449,160.664Z" transform="translate(-239.179 -160.664)" fill="none" stroke="#0c0a0b" stroke-miterlimit="10" stroke-width="1"/>
          <line id="Línea_189" data-name="Línea 189" x1="3.086" transform="translate(18.092 0)" fill="none" stroke="#0c0a0b" stroke-miterlimit="10" stroke-width="1"/>
        </g>
        <path id="Trazado_17417" data-name="Trazado 17417" d="M251.231,188.5s2.94-2.97,13.036,0" transform="translate(-60.436 -115.142)" fill="none" stroke="#0d0000" stroke-miterlimit="10" stroke-width="1"/>
        <path id="Trazado_17418" data-name="Trazado 17418" d="M187.631,221.8c-5.774,3.921-58.927,59.778-58.927,59.778l-38-67.131s-6.878,17.5-23.088,20.938c0,0,45.684,87.439,56,89.894,12.183,2.9,69.725-48.784,69.725-48.784S194.35,217.241,187.631,221.8Z" transform="translate(-47.82 -117.016)" fill="#352967"/>
        <path id="Trazado_17419" data-name="Trazado 17419" d="M193.414,288.556l8.539-7.478s-.838,14.153-9,20.784Z" transform="translate(-56.432 -121.594)" fill="#070019"/>
        <line id="Línea_190" data-name="Línea 190" x2="5.227" y2="10.299" transform="translate(80.884 164.566)" fill="none" stroke="#0c0a0b" stroke-miterlimit="10" stroke-width="1"/>
        <path id="Trazado_17420" data-name="Trazado 17420" d="M413.374,214.451s21.614,4.359,23.088,20.938C436.462,235.389,416.444,236.251,413.374,214.451Z" transform="translate(-71.578 -117.016)" fill="#070019"/>
        <path id="Trazado_17421" data-name="Trazado 17421" d="M456.526,202.22c-3.191,3.774-20.26,12.143-20.26,12.143l-12.342-7.922s2.345-5.646,3-6.665c1.045-1.624,10.007-10.1,11.078-9.755,2.425.772-2.119,7.322-2.119,7.322a44.647,44.647,0,0,0,4.646-1c1.2-.544,2.184-13.807,3.411-13.807s1.351,12.342,1.351,12.342,1.35-15.658,2.825-15.658.552,16.088.552,16.088,1.888-15.138,3.5-15.228c1.582-.088-.3,17.963-.184,16.579,0,0,1.6-7.859,3.192-7.736C457.517,189.1,457.121,201.517,456.526,202.22Z" transform="translate(-72.303 -114.595)" fill="#ff96aa"/>
        <path id="Trazado_17422" data-name="Trazado 17422" d="M453.978,198.675a34.762,34.762,0,0,0-9.087-2.64" transform="translate(-73.743 -115.751)" fill="none" stroke="#0d0000" stroke-miterlimit="10" stroke-width="1"/>
        <path id="Trazado_17423" data-name="Trazado 17423" d="M435.356,216.372,426.513,244s-10.5,1.29-15.842-5.342l12.342-30.211Z" transform="translate(-71.392 -116.604)" fill="#ff96aa"/>
        <path id="Trazado_17424" data-name="Trazado 17424" d="M308.87,221.8c5.774,3.921,58.927,59.778,58.927,59.778l38-67.131s6.878,17.5,23.088,20.938c0,0-45.684,87.439-56,89.894C360.7,328.184,303.16,276.5,303.16,276.5S302.15,217.241,308.87,221.8Z" transform="translate(-64.001 -117.016)" fill="#352967"/>
        <line id="Línea_191" data-name="Línea 191" x1="5.227" y2="10.299" transform="translate(298.569 164.566)" fill="none" stroke="#0c0a0b" stroke-miterlimit="10" stroke-width="1"/>
        <path id="Trazado_17425" data-name="Trazado 17425" d="M313.511,290.109l-10.347-9.031s.092,18.328,10.347,20.784Z" transform="translate(-64.005 -121.594)" fill="#070019"/>
        <line id="Línea_192" data-name="Línea 192" x1="3.501" y2="2.272" transform="translate(360.463 99.768)" fill="none" stroke="#0d0000" stroke-miterlimit="10" stroke-width="1"/>
        <line id="Línea_193" data-name="Línea 193" x2="4.974" y2="2.272" transform="translate(20.717 99.768)" fill="none" stroke="#0d0000" stroke-miterlimit="10" stroke-width="1"/>
        <path id="Trazado_17426" data-name="Trazado 17426" d="M197.784,221.732s4.776,2.061,5.328,6.728" transform="translate(-56.764 -117.516)" fill="none" stroke="#0c0a0b" stroke-miterlimit="10" stroke-width="1"/>
        <path id="Trazado_17427" data-name="Trazado 17427" d="M308.971,222.346s-3.1,1.12-4.389,6.156" transform="translate(-64.102 -117.559)" fill="none" stroke="#0c0a0b" stroke-miterlimit="10" stroke-width="1"/>
        <line id="Línea_194" data-name="Línea 194" y2="53.053" transform="translate(194.554 209.742)" fill="none" stroke="#0c0a0b" stroke-miterlimit="10" stroke-width="1"/>
        <line id="Línea_195" data-name="Línea 195" y1="10.316" x2="21.024" transform="translate(144.284 237.005)" fill="none" stroke="#0c0a0b" stroke-miterlimit="10" stroke-width="1"/>
        <line id="Línea_196" data-name="Línea 196" x1="21.024" y1="10.316" transform="translate(218.917 237.005)" fill="none" stroke="#0c0a0b" stroke-miterlimit="10" stroke-width="1"/>
        <path id="Trazado_17428" data-name="Trazado 17428" d="M269.113,449.242s-6.412,6.386-12.987,7.122a52.643,52.643,0,0,0,26.774-3.2" transform="translate(-60.773 -133.149)" fill="none" stroke="#0c0a0b" stroke-miterlimit="10" stroke-width="1"/>
        <path id="Trazado_17429" data-name="Trazado 17429" d="M114.993,319.092s18.426-6.353,27.678,7.025" transform="translate(-51.075 -124.103)" fill="none" stroke="#0c0a0b" stroke-miterlimit="10" stroke-width="1"/>
        <path id="Trazado_17430" data-name="Trazado 17430" d="M360.518,325.814s10.4-12.732,27.722-6.026" transform="translate(-67.946 -124.12)" fill="none" stroke="#0c0a0b" stroke-miterlimit="10" stroke-width="1"/>
        <path id="Trazado_17431" data-name="Trazado 17431" d="M405.935,227.593s11.737,16.147,25.175,17.827" transform="translate(-71.067 -117.919)" fill="none" stroke="#0c0a0b" stroke-miterlimit="10" stroke-width="1"/>
        <path id="Trazado_17432" data-name="Trazado 17432" d="M73.945,245.42s15.821-6.878,24.121-17.827" transform="translate(-48.255 -117.919)" fill="none" stroke="#0c0a0b" stroke-miterlimit="10" stroke-width="1"/>
      </g>
      <path id="Trazado_17433" data-name="Trazado 17433" d="M94.977,99.462l12.893,5.046,24.389-24.345L107.9,118.788Z" transform="translate(-3.341 -4.455)" fill="#13b19a"/>
      <g id="Grupo_18154" data-name="Grupo 18154" transform="translate(340.926 69.108)">
        <g id="Grupo_18153" data-name="Grupo 18153">
          <rect id="Rectángulo_3396" data-name="Rectángulo 3396" width="50.842" height="5.926" transform="translate(0 35.95) rotate(-44.999)" fill="#db4987"/>
          <rect id="Rectángulo_3397" data-name="Rectángulo 3397" width="5.926" height="50.842" transform="translate(0 4.19) rotate(-45.001)" fill="#db4987"/>
        </g>
      </g>
      <text id="_" data-name="?" transform="matrix(0.998, -0.062, 0.062, 0.998, 261.751, 95.334)" fill="#070019" font-size="48" font-family="Montserrat-Bold, Montserrat" font-weight="700"><tspan x="0" y="0">?</tspan></text>
      <text id="_2" data-name="?" transform="matrix(0.994, 0.112, -0.112, 0.994, 218.054, 89.855)" fill="#070019" font-size="77" font-family="Montserrat-Bold, Montserrat" font-weight="700"><tspan x="0" y="0">?</tspan></text>
      <text id="_3" data-name="?" transform="matrix(0.958, -0.286, 0.286, 0.958, 197.291, 98.981)" fill="#070019" font-size="41" font-family="Montserrat-Bold, Montserrat" font-weight="700"><tspan x="0" y="0">?</tspan></text>
    </g>
    <g id="Rectángulo_3398" data-name="Rectángulo 3398" transform="translate(235 4509)" fill="#20287a" stroke="rgba(112,112,112,0)" stroke-width="1">
      <rect width="930" height="6" stroke="none"/>
      <rect x="0.5" y="0.5" width="929" height="5" fill="none"/>
    </g>
  </g>
</svg>
