<svg xmlns="http://www.w3.org/2000/svg" width="121" height="121" viewBox="0 0 121 121">
  <g id="Grupo_24021" data-name="Grupo 24021" transform="translate(-282.5 -2687)">
    <circle id="Elipse_839" data-name="Elipse 839" cx="60.5" cy="60.5" r="60.5" transform="translate(282.5 2687)" fill="#fe7c5f"/>
    <path id="Trazado_17262" data-name="Trazado 17262" d="M53.993,0A53.993,53.993,0,1,1,0,53.993,53.993,53.993,0,0,1,53.993,0Z" transform="translate(289.5 2694)" fill="#fff"/>
    <path id="Trazado_48985" data-name="Trazado 48985" d="M14.185,54.61q-12.5,0-12.5-17.554,0-9.106,3.381-13.879t9.8-4.773q12.207,0,12.207,17.847,0,8.887-3.333,13.623A10.978,10.978,0,0,1,14.185,54.61Zm.342-30.322q-5,0-5,12.573,0,11.841,4.907,11.841,4.785,0,4.785-12.207T14.526,24.288ZM55.3,34.811a31.055,31.055,0,0,1-1.025,8.337,17.885,17.885,0,0,1-2.991,6.213,13.208,13.208,0,0,1-4.8,3.894,14.7,14.7,0,0,1-6.421,1.355,18.245,18.245,0,0,1-7.4-1.367V46.9A11.852,11.852,0,0,0,39.307,48.7a7.644,7.644,0,0,0,6.226-2.71q2.246-2.71,2.271-7.837l-.146-.049A7.927,7.927,0,0,1,40.6,41.549a9.685,9.685,0,0,1-3.967-.806,9.531,9.531,0,0,1-3.149-2.234A10.21,10.21,0,0,1,31.409,35.1a12.241,12.241,0,0,1-.745-4.346,13.493,13.493,0,0,1,.9-5.029,11.514,11.514,0,0,1,2.527-3.906A11.15,11.15,0,0,1,37.988,19.3a13.657,13.657,0,0,1,5.029-.891,11.514,11.514,0,0,1,5.127,1.111,10.773,10.773,0,0,1,3.87,3.21,14.988,14.988,0,0,1,2.441,5.151A26.1,26.1,0,0,1,55.3,34.811Zm-7.788-4.1a9.071,9.071,0,0,0-.342-2.527,6.649,6.649,0,0,0-.952-2.039,4.635,4.635,0,0,0-1.489-1.355,3.83,3.83,0,0,0-1.929-.5,3.924,3.924,0,0,0-1.843.439A4.494,4.494,0,0,0,39.5,25.936a5.724,5.724,0,0,0-.952,1.843,7.61,7.61,0,0,0-.342,2.319,7.924,7.924,0,0,0,.342,2.429,5.187,5.187,0,0,0,.964,1.794,4.045,4.045,0,0,0,1.5,1.111,4.889,4.889,0,0,0,1.953.378,4.194,4.194,0,0,0,1.855-.4,4.47,4.47,0,0,0,1.428-1.086,4.918,4.918,0,0,0,.928-1.611A5.938,5.938,0,0,0,47.51,30.709Z" transform="translate(314 2715)" fill="#20287a"/>
  </g>
</svg>
