<svg xmlns="http://www.w3.org/2000/svg" width="121" height="121" viewBox="0 0 121 121">
  <g id="Grupo_24023" data-name="Grupo 24023" transform="translate(-282.5 -2851)">
    <circle id="Elipse_839" data-name="Elipse 839" cx="60.5" cy="60.5" r="60.5" transform="translate(282.5 2851)" fill="#fe7c5f"/>
    <path id="Trazado_17262" data-name="Trazado 17262" d="M53.993,0A53.993,53.993,0,1,1,0,53.993,53.993,53.993,0,0,1,53.993,0Z" transform="translate(289.5 2858)" fill="#fff"/>
    <path id="Trazado_48987" data-name="Trazado 48987" d="M20.313,18.209V54h-7.69V26.9a9.21,9.21,0,0,1-1.5,1.062,15.5,15.5,0,0,1-1.843.9,16.459,16.459,0,0,1-2.026.684,14.8,14.8,0,0,1-2.075.4V23.458a32.08,32.08,0,0,0,5.664-2.246,32.233,32.233,0,0,0,4.81-3Zm28.76,0V54h-7.69V26.9a9.209,9.209,0,0,1-1.5,1.062,15.5,15.5,0,0,1-1.843.9,16.459,16.459,0,0,1-2.026.684,14.8,14.8,0,0,1-2.075.4V23.458A32.08,32.08,0,0,0,39.6,21.212a32.233,32.233,0,0,0,4.81-3Z" transform="translate(314 2880)" fill="#20287a"/>
  </g>
</svg>
