<svg xmlns="http://www.w3.org/2000/svg" width="121" height="121" viewBox="0 0 121 121">
  <g id="Grupo_24025" data-name="Grupo 24025" transform="translate(-492 -3015)">
    <circle id="Elipse_839" data-name="Elipse 839" cx="60.5" cy="60.5" r="60.5" transform="translate(492 3015)" fill="#fe7c5f"/>
    <path id="Trazado_17262" data-name="Trazado 17262" d="M53.993,0A53.993,53.993,0,1,1,0,53.993,53.993,53.993,0,0,1,53.993,0Z" transform="translate(499 3022)" fill="#fff"/>
    <path id="Trazado_48989" data-name="Trazado 48989" d="M20.313,18.209V54h-7.69V26.9a9.21,9.21,0,0,1-1.5,1.062,15.5,15.5,0,0,1-1.843.9,16.459,16.459,0,0,1-2.026.684,14.8,14.8,0,0,1-2.075.4V23.458a32.08,32.08,0,0,0,5.664-2.246,32.233,32.233,0,0,0,4.81-3Zm11.3,34.644V46.139a13.551,13.551,0,0,0,8.2,2.563,7.385,7.385,0,0,0,4.6-1.27,4.215,4.215,0,0,0,1.648-3.54,4.024,4.024,0,0,0-2.039-3.613,10.561,10.561,0,0,0-5.6-1.27H35.181V33.1h3q6.836,0,6.836-4.541,0-4.272-5.249-4.272a11.967,11.967,0,0,0-6.836,2.271v-6.3A18.88,18.88,0,0,1,41.528,18.4q5.371,0,8.362,2.417A7.692,7.692,0,0,1,52.881,27.1q0,6.86-6.958,8.594v.122a9.459,9.459,0,0,1,5.859,2.7,7.607,7.607,0,0,1,2.148,5.481,9.393,9.393,0,0,1-3.589,7.764Q46.753,54.61,40.43,54.61A19.157,19.157,0,0,1,31.616,52.853Z" transform="translate(521 3044)" fill="#20287a"/>
  </g>
</svg>
