<svg xmlns="http://www.w3.org/2000/svg" width="121" height="121" viewBox="0 0 121 121">
  <g id="Grupo_24022" data-name="Grupo 24022" transform="translate(-710 -2687)">
    <circle id="Elipse_839" data-name="Elipse 839" cx="60.5" cy="60.5" r="60.5" transform="translate(710 2687)" fill="#fe7c5f"/>
    <path id="Trazado_17262" data-name="Trazado 17262" d="M53.993,0A53.993,53.993,0,1,1,0,53.993,53.993,53.993,0,0,1,53.993,0Z" transform="translate(717 2694)" fill="#fff"/>
    <path id="Trazado_48986" data-name="Trazado 48986" d="M20.313,18.209V54h-7.69V26.9a9.21,9.21,0,0,1-1.5,1.062,15.5,15.5,0,0,1-1.843.9,16.459,16.459,0,0,1-2.026.684,14.8,14.8,0,0,1-2.075.4V23.458a32.08,32.08,0,0,0,5.664-2.246,32.233,32.233,0,0,0,4.81-3Zm22.632,36.4q-12.5,0-12.5-17.554,0-9.106,3.381-13.879t9.8-4.773q12.207,0,12.207,17.847,0,8.887-3.333,13.623A10.978,10.978,0,0,1,42.944,54.61Zm.342-30.322q-5,0-5,12.573,0,11.841,4.907,11.841,4.785,0,4.785-12.207T43.286,24.288Z" transform="translate(741 2715)" fill="#20287a"/>
  </g>
</svg>
