<svg xmlns="http://www.w3.org/2000/svg" width="931" height="1694" viewBox="0 0 931 1694">
  <g id="Grupo_24028" data-name="Grupo 24028" transform="translate(-234 -4687)">
    <rect id="Rectángulo_3039" data-name="Rectángulo 3039" width="931" height="1641" transform="translate(234 4740)" fill="#f1f4f8"/>
    <path id="Trazado_12350" data-name="Trazado 12350" d="M516.257,802.083H279.841V725H516.257l13.584,38.728Z" transform="translate(9.659 3984.458)" fill="#97181a"/>
    <text id="Conocer_el_entorno_en_la_toma_de_decisiones" data-name="Conocer el entorno en la toma de decisiones" transform="translate(286 4814)" font-size="20" font-family="SegoeUI-Bold, Segoe UI" font-weight="700"><tspan x="-115.273" y="22">Conocer el entorno en la </tspan><tspan x="-90.083" y="45">toma de decisiones</tspan></text>
    <circle id="Elipse_867" data-name="Elipse 867" cx="60.5" cy="60.5" r="60.5" transform="translate(254.5 4687)" fill="#fe7c5f"/>
    <path id="Trazado_17819" data-name="Trazado 17819" d="M53.993,0A53.993,53.993,0,1,1,0,53.993,53.993,53.993,0,0,1,53.993,0Z" transform="translate(261.5 4694)" fill="#fff"/>
    <text id="_1" data-name="1" transform="translate(289.5 4697)" fill="#97181a" font-size="80" font-family="SegoeUI-Bold, Segoe UI" font-weight="700"><tspan x="0" y="86">1</tspan></text>
    <path id="Trazado_17820" data-name="Trazado 17820" d="M516.258,802.083H279.841V725H516.258l13.584,38.728Z" transform="translate(312.659 3984.458)" fill="#b52426"/>
    <circle id="Elipse_868" data-name="Elipse 868" cx="60.5" cy="60.5" r="60.5" transform="translate(557.5 4687)" fill="#fe7c5f"/>
    <path id="Trazado_17821" data-name="Trazado 17821" d="M53.993,0A53.993,53.993,0,1,1,0,53.993,53.993,53.993,0,0,1,53.993,0Z" transform="translate(564.5 4694)" fill="#fff"/>
    <text id="_2" data-name="2" transform="translate(592.5 4697)" fill="#b52426" font-size="80" font-family="SegoeUI-Bold, Segoe UI" font-weight="700"><tspan x="0" y="86">2</tspan></text>
    <text id="Análisis_de_encuestas_de_experiencia" data-name="Análisis de encuestas de experiencia" transform="translate(583 4814)" font-size="20" font-family="SegoeUI-Bold, Segoe UI" font-weight="700"><tspan x="-113.057" y="22">Análisis de encuestas de </tspan><tspan x="-53.887" y="45">experiencia</tspan></text>
    <text id="Se_necesita_información_contextual_adicional_para_entender_plenamente_el_problema._Esto_podría_significar_hablar_simplemente_con_los_gerentes_de_marca_o_los_gerentes_de_nuevos_productos_leer_informes_de_la_compañía_visitar_centros_de_producción_y_tiendas" data-name="Se necesita información contextual adicional para entender plenamente el problema. Esto podría significar hablar simplemente con los gerentes de marca o los gerentes de nuevos productos, leer informes de la compañía, visitar centros de producción y tiendas" transform="translate(286 4878)" fill="#00223d" font-size="18" font-family="SegoeUI, Segoe UI"><tspan x="0" y="19">Se necesita información </tspan><tspan x="0" y="43">contextual adicional para </tspan><tspan x="0" y="67">entender plenamente el </tspan><tspan x="0" y="91">problema. Esto podría </tspan><tspan x="0" y="115">significar hablar simplemente </tspan><tspan x="0" y="139">con los gerentes de marca o </tspan><tspan x="0" y="163">los gerentes de nuevos </tspan><tspan x="0" y="187">productos, leer informes de la </tspan><tspan x="0" y="211">compañía, visitar centros de </tspan><tspan x="0" y="235">producción y tiendas </tspan><tspan x="0" y="259">minoristas y quizá hablar con </tspan><tspan x="0" y="283">proveedores. Cuanto mejor </tspan><tspan x="0" y="307">conozca el investigador de </tspan><tspan x="0" y="331">mercados el entorno de la </tspan><tspan x="0" y="355">toma de decisiones, lo que </tspan><tspan x="0" y="379">incluye la industria, la </tspan><tspan x="0" y="403">empresa, sus productos o </tspan><tspan x="0" y="427">servicios y el mercado </tspan><tspan x="0" y="451">objetivo, será más probable </tspan><tspan x="0" y="475">que el problema se defina </tspan><tspan x="0" y="499">correctamente. Este paso </tspan><tspan x="0" y="523">puede llamarse realizar un </tspan><tspan x="0" y="547">análisis de la situación. La </tspan><tspan x="0" y="571">investigación preliminar o </tspan><tspan x="0" y="595">exploratoria puede adoptar </tspan><tspan x="0" y="619">varias formas: estudios piloto, </tspan><tspan x="0" y="643">encuestas de experiencia, </tspan><tspan x="0" y="667">análisis de datos secundarios, </tspan><tspan x="0" y="691">análisis de casos de estudios </tspan><tspan x="0" y="715">piloto y grupos foco. </tspan></text>
    <path id="Trazado_17822" data-name="Trazado 17822" d="M516.258,802.083H279.841V725H516.258l13.584,38.728Z" transform="translate(615.659 3984.458)" fill="#d64626"/>
    <circle id="Elipse_869" data-name="Elipse 869" cx="60.5" cy="60.5" r="60.5" transform="translate(860.5 4687)" fill="#fe7c5f"/>
    <path id="Trazado_17823" data-name="Trazado 17823" d="M53.993,0A53.993,53.993,0,1,1,0,53.993,53.993,53.993,0,0,1,53.993,0Z" transform="translate(867.5 4694)" fill="#fff"/>
    <text id="_3" data-name="3" transform="translate(895.5 4697)" fill="#d64626" font-size="80" font-family="SegoeUI-Bold, Segoe UI" font-weight="700"><tspan x="0" y="86">3</tspan></text>
    <text id="Implican_hablar_con_individuos_conocedores_tanto_dentro_como_fuera_de_la_organización_que_pueden_ofrecer_discernimientos_sobre_el_problema._El_investigador_puede_tener_simplemente_una_lista_de_temas_por_abordar_como_una_conversación_informal." data-name="Implican hablar con individuos conocedores, tanto dentro como fuera de la organización, que pueden ofrecer discernimientos sobre el problema. El investigador puede tener simplemente una lista de temas por abordar como una conversación informal." transform="translate(583 4878)" fill="#00223d" font-size="18" font-family="SegoeUI, Segoe UI"><tspan x="0" y="19">Implican hablar con individuos </tspan><tspan x="0" y="43">conocedores, tanto dentro </tspan><tspan x="0" y="67">como fuera de la organización, </tspan><tspan x="0" y="91">que pueden ofrecer </tspan><tspan x="0" y="115">discernimientos sobre el </tspan><tspan x="0" y="139">problema. El investigador </tspan><tspan x="0" y="163">puede tener simplemente una </tspan><tspan x="0" y="187">lista de temas por abordar </tspan><tspan x="0" y="211">como una conversación </tspan><tspan x="0" y="235">informal.</tspan></text>
    <text id="Análisis_de_datos_secundarios" data-name="Análisis de datos secundarios" transform="translate(880 4814)" font-size="20" font-family="SegoeUI-Bold, Segoe UI" font-weight="700"><tspan x="-78.843" y="22">Análisis de datos </tspan><tspan x="-55.654" y="45">secundarios</tspan></text>
    <text id="El_análisis_de_datos_secundarios_es_otra_forma_de_investigación_exploratoria_los_datos_secundarios_se_han_recopilado_con_algún_propósito_distinto_al_inmediato._Se_puede_usar_internet_para_acceder_a_incontables_fuentes_de_datos_secundarios_de_manera_rápida" data-name="El análisis de datos secundarios es otra forma de investigación exploratoria, los datos secundarios se han recopilado con algún propósito distinto al inmediato. Se puede usar internet para acceder a incontables fuentes de datos secundarios de manera rápida" transform="translate(880 4878)" fill="#00223d" font-size="18" font-family="SegoeUI, Segoe UI"><tspan x="0" y="19">El análisis de datos </tspan><tspan x="0" y="43">secundarios es otra forma de </tspan><tspan x="0" y="67">investigación exploratoria, los </tspan><tspan x="0" y="91">datos secundarios se han </tspan><tspan x="0" y="115">recopilado con algún </tspan><tspan x="0" y="139">propósito distinto al </tspan><tspan x="0" y="163">inmediato. Se puede usar </tspan><tspan x="0" y="187">internet para acceder a </tspan><tspan x="0" y="211">incontables fuentes de datos </tspan><tspan x="0" y="235">secundarios de manera rápida </tspan><tspan x="0" y="259">y a un costo mínimo. </tspan></text>
    <path id="Trazado_17828" data-name="Trazado 17828" d="M516.258,802.083H279.841V725H516.258l13.584,38.728Z" transform="translate(615.659 4939.458)" fill="#d64626"/>
    <text id="Uso_de_intranets" data-name="Uso de intranets" transform="translate(880 5769)" font-size="20" font-family="SegoeUI-Bold, Segoe UI" font-weight="700"><tspan x="-76.758" y="22">Uso de intranets</tspan></text>
    <text id="El_computador_puede_ser_una_herramienta_muy_poderosa_en_organizaciones_muy_grandes_con_intranets_el_investigador_tiene_la_capacidad_de_determinar_si_información_necesaria_o_relevante." data-name="El computador puede ser una herramienta muy poderosa en organizaciones muy grandes con intranets, el investigador tiene la capacidad de determinar si información necesaria o relevante." transform="translate(880 5833)" fill="#00223d" font-size="18" font-family="SegoeUI, Segoe UI"><tspan x="0" y="19">El computador puede ser una </tspan><tspan x="0" y="43">herramienta muy poderosa en </tspan><tspan x="0" y="67">organizaciones muy grandes </tspan><tspan x="0" y="91">con intranets, el investigador </tspan><tspan x="0" y="115">tiene la capacidad de </tspan><tspan x="0" y="139">determinar si información </tspan><tspan x="0" y="163">necesaria o relevante.</tspan></text>
    <path id="Trazado_17824" data-name="Trazado 17824" d="M516.257,802.083H279.841V725H516.257l13.584,38.728Z" transform="translate(9.659 4939.458)" fill="#97181a"/>
    <text id="Análisis_de_casos" data-name="Análisis de casos" transform="translate(286 5769)" font-size="20" font-family="SegoeUI-Bold, Segoe UI" font-weight="700"><tspan x="-77.998" y="22">Análisis de casos</tspan></text>
    <circle id="Elipse_870" data-name="Elipse 870" cx="60.5" cy="60.5" r="60.5" transform="translate(254.5 5642)" fill="#fe7c5f"/>
    <path id="Trazado_17825" data-name="Trazado 17825" d="M53.993,0A53.993,53.993,0,1,1,0,53.993,53.993,53.993,0,0,1,53.993,0Z" transform="translate(261.5 5649)" fill="#fff"/>
    <text id="_4" data-name="4" transform="translate(289.5 5652)" fill="#97181a" font-size="80" font-family="SegoeUI-Bold, Segoe UI" font-weight="700"><tspan x="0" y="86">4</tspan></text>
    <path id="Trazado_17826" data-name="Trazado 17826" d="M516.258,802.083H279.841V725H516.258l13.584,38.728Z" transform="translate(312.659 4939.458)" fill="#b52426"/>
    <circle id="Elipse_871" data-name="Elipse 871" cx="60.5" cy="60.5" r="60.5" transform="translate(557.5 5642)" fill="#fe7c5f"/>
    <path id="Trazado_17827" data-name="Trazado 17827" d="M53.993,0A53.993,53.993,0,1,1,0,53.993,53.993,53.993,0,0,1,53.993,0Z" transform="translate(564.5 5649)" fill="#fff"/>
    <text id="_5" data-name="5" transform="translate(592.5 5652)" fill="#b52426" font-size="80" font-family="SegoeUI-Bold, Segoe UI" font-weight="700"><tspan x="0" y="86">5</tspan></text>
    <text id="Grupos_de_enfoque" data-name="Grupos de enfoque" transform="translate(583 5769)" font-size="20" font-family="SegoeUI-Bold, Segoe UI" font-weight="700"><tspan x="-90.059" y="22">Grupos de enfoque</tspan></text>
    <text id="El_propósito_es_revisar_información_de_situaciones_parecidas_al_problema_de_investigación_presente._Las_compañías_ya_han_realizado_segmentación_del_mercado_estudios_de_satisfacción_del_cliente_y_encuestas_de_lealtad_del_cliente_se_examinan_estos_estudios" data-name="El propósito es revisar información de situaciones parecidas al problema de investigación presente. Las compañías ya han realizado segmentación del mercado, estudios de satisfacción del cliente y encuestas de lealtad del cliente, se examinan estos estudios" transform="translate(286 5833)" fill="#00223d" font-size="18" font-family="SegoeUI, Segoe UI"><tspan x="0" y="19">El propósito es revisar </tspan><tspan x="0" y="43">información de situaciones </tspan><tspan x="0" y="67">parecidas al problema de </tspan><tspan x="0" y="91">investigación presente. Las </tspan><tspan x="0" y="115">compañías ya han realizado </tspan><tspan x="0" y="139">segmentación del mercado, </tspan><tspan x="0" y="163">estudios de satisfacción del </tspan><tspan x="0" y="187">cliente y encuestas de lealtad </tspan><tspan x="0" y="211">del cliente, se examinan estos </tspan><tspan x="0" y="235">estudios de caso.</tspan></text>
    <circle id="Elipse_872" data-name="Elipse 872" cx="60.5" cy="60.5" r="60.5" transform="translate(860.5 5642)" fill="#fe7c5f"/>
    <path id="Trazado_17829" data-name="Trazado 17829" d="M53.993,0A53.993,53.993,0,1,1,0,53.993,53.993,53.993,0,0,1,53.993,0Z" transform="translate(867.5 5649)" fill="#fff"/>
    <text id="_6" data-name="6" transform="translate(895.5 5652)" fill="#d64626" font-size="80" font-family="SegoeUI-Bold, Segoe UI" font-weight="700"><tspan x="0" y="86">6</tspan></text>
    <text id="Los_grupos_de_enfoque_son_conversaciones_en_profundidad_usualmente_compuestas_de_8_a_12_participantes_dirigidas_por_un_moderador_y_generalmente_limitadas_a_un_concepto_idea_o_tema_particular._La_idea_general_es_hacer_que_lo_que_una_persona_dice_genere_p" data-name="Los grupos de enfoque son conversaciones en profundidad, usualmente compuestas de 8 a 12 participantes, dirigidas por un moderador y generalmente limitadas a un concepto, idea o tema particular. La idea general es hacer que lo que una persona dice genere p" transform="translate(583 5833)" fill="#00223d" font-size="18" font-family="SegoeUI, Segoe UI"><tspan x="0" y="19">Los grupos de enfoque son </tspan><tspan x="0" y="43">conversaciones en </tspan><tspan x="0" y="67">profundidad, usualmente </tspan><tspan x="0" y="91">compuestas de 8 a 12 </tspan><tspan x="0" y="115">participantes, dirigidas por un </tspan><tspan x="0" y="139">moderador y generalmente </tspan><tspan x="0" y="163">limitadas a un concepto, idea </tspan><tspan x="0" y="187">o tema particular. La idea </tspan><tspan x="0" y="211">general es hacer que lo que </tspan><tspan x="0" y="235">una persona dice genere </tspan><tspan x="0" y="259">pensamientos y comentarios </tspan><tspan x="0" y="283">de otras, creando de este </tspan><tspan x="0" y="307">modo una dinámica de </tspan><tspan x="0" y="331">grupos. Es decir, la interacción </tspan><tspan x="0" y="355">de las respuestas rendirá más </tspan><tspan x="0" y="379">información que si el mismo </tspan><tspan x="0" y="403">número de personas hubiera </tspan><tspan x="0" y="427">contribuido en entrevistas </tspan><tspan x="0" y="451">individuales. </tspan></text>
    <g id="Grupo_24010" data-name="Grupo 24010" transform="translate(-1862.576 5217.021)">
      <path id="Trazado_48954" data-name="Trazado 48954" d="M2857.576,171.454A128.476,128.476,0,1,1,2729.1,42.978,128.477,128.477,0,0,1,2857.576,171.454Z" fill="#f77c5b"/>
      <g id="Grupo_22238" data-name="Grupo 22238" transform="translate(2602.872 65.399)">
        <g id="Grupo_22184" data-name="Grupo 22184" transform="translate(11.134 31.92)">
          <g id="Grupo_22177" data-name="Grupo 22177" transform="translate(0 153.887)">
            <g id="Grupo_22176" data-name="Grupo 22176">
              <path id="Trazado_48955" data-name="Trazado 48955" d="M2824.542,170.263H2631.3a24.038,24.038,0,0,1-24.038-24.038H2848.58A24.038,24.038,0,0,1,2824.542,170.263Z" transform="translate(-2607.259 -146.225)" fill="#7bd1df"/>
            </g>
          </g>
          <g id="Grupo_22179" data-name="Grupo 22179" transform="translate(10.011)">
            <g id="Grupo_22178" data-name="Grupo 22178">
              <path id="Trazado_48956" data-name="Trazado 48956" d="M2833.522,93.337v107.08a23.388,23.388,0,0,1-23.391,23.393H2635.638a23.409,23.409,0,0,1-23.415-23.393V93.337a23.428,23.428,0,0,1,23.415-23.415h174.493A23.407,23.407,0,0,1,2833.522,93.337Z" transform="translate(-2612.223 -69.922)" fill="#058789"/>
            </g>
          </g>
          <g id="Grupo_22181" data-name="Grupo 22181" transform="translate(20.662 12.803)">
            <g id="Grupo_22180" data-name="Grupo 22180">
              <path id="Trazado_48957" data-name="Trazado 48957" d="M2817.5,85.319v95a9.059,9.059,0,0,1-9.076,9.076h-181.85a9.058,9.058,0,0,1-9.074-9.076v-95a9.052,9.052,0,0,1,9.074-9.049h181.85A9.054,9.054,0,0,1,2817.5,85.319Z" transform="translate(-2617.504 -76.27)" fill="#edf3f3"/>
            </g>
          </g>
          <g id="Grupo_22183" data-name="Grupo 22183" transform="translate(115.504 134.155)">
            <g id="Grupo_22182" data-name="Grupo 22182">
              <path id="Trazado_48958" data-name="Trazado 48958" d="M2674.844,141.6a5.157,5.157,0,1,1-5.157-5.157A5.156,5.156,0,0,1,2674.844,141.6Z" transform="translate(-2664.53 -136.441)" fill="#f0ecc9"/>
            </g>
          </g>
        </g>
        <g id="Grupo_22197" data-name="Grupo 22197" transform="translate(0 46.019)">
          <g id="Grupo_22186" data-name="Grupo 22186" transform="translate(0 60.272)">
            <g id="Grupo_22185" data-name="Grupo 22185">
              <path id="Trazado_48959" data-name="Trazado 48959" d="M2604.246,141.332h0a8.562,8.562,0,0,1,0-12.109l22.425-22.425L2638.78,118.9l-22.427,22.427A8.56,8.56,0,0,1,2604.246,141.332Z" transform="translate(-2601.738 -106.798)" fill="#7bd1df"/>
            </g>
          </g>
          <g id="Grupo_22188" data-name="Grupo 22188" transform="translate(18.48)">
            <g id="Grupo_22187" data-name="Grupo 22187">
              <circle id="Elipse_1363" data-name="Elipse 1363" cx="39.416" cy="39.416" r="39.416" fill="#243239"/>
            </g>
          </g>
          <g id="Grupo_22190" data-name="Grupo 22190" transform="translate(28.501 10.021)">
            <g id="Grupo_22189" data-name="Grupo 22189">
              <circle id="Elipse_1364" data-name="Elipse 1364" cx="29.395" cy="29.395" r="29.395" fill="#fdda92"/>
            </g>
          </g>
          <g id="Grupo_22192" data-name="Grupo 22192" transform="translate(40.93 22.445)">
            <g id="Grupo_22191" data-name="Grupo 22191">
              <path id="Trazado_48960" data-name="Trazado 48960" d="M2655.961,121.985a23.993,23.993,0,0,1-33.929,0l33.943-33.943A24,24,0,0,1,2655.961,121.985Z" transform="translate(-2622.033 -88.042)" fill="#edf3f3"/>
            </g>
          </g>
          <g id="Grupo_22194" data-name="Grupo 22194" transform="translate(33.901 39.41)">
            <g id="Grupo_22193" data-name="Grupo 22193">
              <path id="Trazado_48961" data-name="Trazado 48961" d="M2642.54,96.468l-16.963,16.963a23.881,23.881,0,0,1-7.028-16.977Z" transform="translate(-2618.548 -96.454)" fill="#f77c5b"/>
            </g>
          </g>
          <g id="Grupo_22196" data-name="Grupo 22196" transform="translate(33.901 15.41)">
            <g id="Grupo_22195" data-name="Grupo 22195">
              <path id="Trazado_48962" data-name="Trazado 48962" d="M2659.519,91.589l-16.979,16.979-23.992-.014a23.993,23.993,0,0,1,40.971-16.965Z" transform="translate(-2618.548 -84.554)" fill="#7dd0de"/>
            </g>
          </g>
        </g>
        <g id="Grupo_22208" data-name="Grupo 22208" transform="translate(100.071 104.503)">
          <g id="Grupo_22199" data-name="Grupo 22199" transform="translate(0 20.914)">
            <g id="Grupo_22198" data-name="Grupo 22198">
              <rect id="Rectángulo_4950" data-name="Rectángulo 4950" width="15.563" height="25.467" fill="#f77c5b"/>
            </g>
          </g>
          <g id="Grupo_22201" data-name="Grupo 22201" transform="translate(24.436 12.475)">
            <g id="Grupo_22200" data-name="Grupo 22200">
              <rect id="Rectángulo_4951" data-name="Rectángulo 4951" width="15.563" height="33.906" fill="#f77c5b"/>
            </g>
          </g>
          <g id="Grupo_22203" data-name="Grupo 22203" transform="translate(48.871 33.006)">
            <g id="Grupo_22202" data-name="Grupo 22202">
              <rect id="Rectángulo_4952" data-name="Rectángulo 4952" width="15.563" height="13.375" fill="#f77c5b"/>
            </g>
          </g>
          <g id="Grupo_22205" data-name="Grupo 22205" transform="translate(73.307)">
            <g id="Grupo_22204" data-name="Grupo 22204">
              <rect id="Rectángulo_4953" data-name="Rectángulo 4953" width="15.563" height="46.381" fill="#f77c5b"/>
            </g>
          </g>
          <g id="Grupo_22207" data-name="Grupo 22207" transform="translate(97.743 6.429)">
            <g id="Grupo_22206" data-name="Grupo 22206">
              <rect id="Rectángulo_4954" data-name="Rectángulo 4954" width="15.563" height="39.952" fill="#f77c5b"/>
            </g>
          </g>
        </g>
        <g id="Grupo_22225" data-name="Grupo 22225" transform="translate(160.384)">
          <g id="Grupo_22210" data-name="Grupo 22210" transform="translate(0 33.737)">
            <g id="Grupo_22209" data-name="Grupo 22209">
              <path id="Trazado_48963" data-name="Trazado 48963" d="M2689.818,75.357h-6.288a2.267,2.267,0,1,1,0-4.534h6.288a2.267,2.267,0,1,1,0,4.534Z" transform="translate(-2681.263 -70.823)" fill="#414042"/>
            </g>
          </g>
          <g id="Grupo_22212" data-name="Grupo 22212" transform="translate(61.155 33.737)">
            <g id="Grupo_22211" data-name="Grupo 22211">
              <path id="Trazado_48964" data-name="Trazado 48964" d="M2720.141,75.357h-6.288a2.267,2.267,0,1,1,0-4.534h6.288a2.267,2.267,0,1,1,0,4.534Z" transform="translate(-2711.586 -70.823)" fill="#414042"/>
            </g>
          </g>
          <g id="Grupo_22214" data-name="Grupo 22214" transform="translate(53.114 53.114)">
            <g id="Grupo_22213" data-name="Grupo 22213">
              <path id="Trazado_48965" data-name="Trazado 48965" d="M2714.339,89.438a2.251,2.251,0,0,1-1.6-.664l-4.476-4.473a2.268,2.268,0,0,1,3.207-3.207l4.473,4.473a2.267,2.267,0,0,1-1.6,3.87Z" transform="translate(-2707.599 -80.431)" fill="#414042"/>
            </g>
          </g>
          <g id="Grupo_22216" data-name="Grupo 22216" transform="translate(9.886 9.886)">
            <g id="Grupo_22215" data-name="Grupo 22215">
              <path id="Trazado_48966" data-name="Trazado 48966" d="M2692.875,67.974a2.256,2.256,0,0,1-1.6-.664l-4.443-4.443a2.268,2.268,0,0,1,3.207-3.207l4.443,4.443a2.267,2.267,0,0,1-1.6,3.87Z" transform="translate(-2686.165 -58.997)" fill="#414042"/>
            </g>
          </g>
          <g id="Grupo_22218" data-name="Grupo 22218" transform="translate(33.737)">
            <g id="Grupo_22217" data-name="Grupo 22217">
              <path id="Trazado_48967" data-name="Trazado 48967" d="M2700.258,64.917a2.266,2.266,0,0,1-2.267-2.267V56.362a2.267,2.267,0,0,1,4.534,0V62.65A2.266,2.266,0,0,1,2700.258,64.917Z" transform="translate(-2697.99 -54.095)" fill="#414042"/>
            </g>
          </g>
          <g id="Grupo_22220" data-name="Grupo 22220" transform="translate(33.737 61.155)">
            <g id="Grupo_22219" data-name="Grupo 22219">
              <path id="Trazado_48968" data-name="Trazado 48968" d="M2700.258,95.27A2.266,2.266,0,0,1,2697.99,93V86.685a2.267,2.267,0,0,1,4.534,0V93A2.266,2.266,0,0,1,2700.258,95.27Z" transform="translate(-2697.99 -84.418)" fill="#414042"/>
            </g>
          </g>
          <g id="Grupo_22222" data-name="Grupo 22222" transform="translate(53.114 9.886)">
            <g id="Grupo_22221" data-name="Grupo 22221">
              <path id="Trazado_48969" data-name="Trazado 48969" d="M2709.866,68a2.267,2.267,0,0,1-1.6-3.87l4.476-4.473a2.267,2.267,0,0,1,3.2,3.207l-4.473,4.473A2.265,2.265,0,0,1,2709.866,68Z" transform="translate(-2707.599 -58.997)" fill="#414042"/>
            </g>
          </g>
          <g id="Grupo_22224" data-name="Grupo 22224" transform="translate(9.886 53.114)">
            <g id="Grupo_22223" data-name="Grupo 22223">
              <path id="Trazado_48970" data-name="Trazado 48970" d="M2688.432,89.438a2.267,2.267,0,0,1-1.6-3.87l4.473-4.473a2.268,2.268,0,1,1,3.207,3.207l-4.473,4.473A2.261,2.261,0,0,1,2688.432,89.438Z" transform="translate(-2686.165 -80.431)" fill="#414042"/>
            </g>
          </g>
        </g>
        <g id="Grupo_22227" data-name="Grupo 22227" transform="translate(67.154 123.212)">
          <g id="Grupo_22226" data-name="Grupo 22226">
            <path id="Trazado_48971" data-name="Trazado 48971" d="M2644.894,134.9a9.857,9.857,0,1,1,9.858-9.856A9.869,9.869,0,0,1,2644.894,134.9Zm0-16.691a6.835,6.835,0,1,0,6.835,6.835A6.842,6.842,0,0,0,2644.894,118.211Z" transform="translate(-2635.036 -115.188)" fill="#f77c5b"/>
          </g>
        </g>
        <g id="Grupo_22229" data-name="Grupo 22229" transform="translate(116.78 74.464)">
          <g id="Grupo_22228" data-name="Grupo 22228">
            <path id="Trazado_48972" data-name="Trazado 48972" d="M2669.5,110.733a9.858,9.858,0,1,1,9.858-9.858A9.87,9.87,0,0,1,2669.5,110.733Zm0-16.693a6.835,6.835,0,1,0,6.834,6.835A6.842,6.842,0,0,0,2669.5,94.04Z" transform="translate(-2659.642 -91.017)" fill="#f77c5b"/>
          </g>
        </g>
        <g id="Grupo_22231" data-name="Grupo 22231" transform="translate(137.266 93.755)">
          <g id="Grupo_22230" data-name="Grupo 22230">
            <path id="Trazado_48973" data-name="Trazado 48973" d="M2679.658,120.3a9.857,9.857,0,1,1,9.858-9.858A9.87,9.87,0,0,1,2679.658,120.3Zm0-16.693a6.835,6.835,0,1,0,6.835,6.835A6.843,6.843,0,0,0,2679.658,103.6Z" transform="translate(-2669.8 -100.582)" fill="#f77c5b"/>
          </g>
        </g>
        <g id="Grupo_22237" data-name="Grupo 22237" transform="translate(74.745 70.694)">
          <g id="Grupo_22233" data-name="Grupo 22233" transform="translate(0 1.208)">
            <g id="Grupo_22232" data-name="Grupo 22232">
              <path id="Trazado_48974" data-name="Trazado 48974" d="M2641.067,153.181a2.267,2.267,0,0,1-1.6-3.87L2690.176,98.6l20.884,20.884,29.074-29.072a2.267,2.267,0,1,1,3.207,3.2L2711.06,125.9l-20.884-20.884-47.505,47.506A2.269,2.269,0,0,1,2641.067,153.181Z" transform="translate(-2638.799 -89.747)" fill="#414042"/>
            </g>
          </g>
          <g id="Grupo_22236" data-name="Grupo 22236" transform="translate(79.203)">
            <g id="Grupo_22235" data-name="Grupo 22235">
              <g id="Grupo_22234" data-name="Grupo 22234">
                <path id="Trazado_48975" data-name="Trazado 48975" d="M2704.3,116.36l-4.536-.162.819-22.343-22.346.816-.161-4.536,27.215-.988Z" transform="translate(-2678.071 -89.148)" fill="#414042"/>
              </g>
            </g>
          </g>
        </g>
      </g>
    </g>
  </g>
</svg>
