<svg xmlns="http://www.w3.org/2000/svg" width="108.795" height="103.234" viewBox="0 0 108.795 103.234">
  <g id="Grupo_24032" data-name="Grupo 24032" transform="translate(-310 -2786.384)">
    <g id="Grupo_18070" data-name="Grupo 18070" transform="translate(-37.418 464)">
      <path id="Trazado_12403" data-name="Trazado 12403" d="M-1875.37,363.37h71.6l37.192,50.053-37.192,53.181h-71.6Z" transform="translate(2222.788 1959.013)" fill="#ee8d3f"/>
    </g>
    <path id="Trazado_49020" data-name="Trazado 49020" d="M15.483,71.933h-.137V76H4.546V24.184h10.8v22.08h.137a12.816,12.816,0,0,1,11.382-6.118q6.768,0,10.425,4.648t3.657,12.715q0,8.75-4.272,14.048a13.917,13.917,0,0,1-11.416,5.3Q18.8,76.854,15.483,71.933Zm-.308-14.766v3.589a8.192,8.192,0,0,0,1.948,5.605,6.338,6.338,0,0,0,4.99,2.222,6.622,6.622,0,0,0,5.725-2.854q2.034-2.854,2.034-8.083a10.963,10.963,0,0,0-1.863-6.785A6.286,6.286,0,0,0,22.7,48.417a6.866,6.866,0,0,0-5.383,2.427A9.218,9.218,0,0,0,15.176,57.167Z" transform="translate(333 2790)" fill="#fff"/>
  </g>
</svg>
