<svg xmlns="http://www.w3.org/2000/svg" width="930.5" height="491" viewBox="0 0 930.5 491">
  <g id="Grupo_20999" data-name="Grupo 20999" transform="translate(-262 -6251)">
    <g id="Grupo_12823" data-name="Grupo 12823" transform="translate(-35 -17)">
      <rect id="Rectángulo_3055" data-name="Rectángulo 3055" width="380" height="75" transform="translate(297 6410)" fill="#eef0f2"/>
    </g>
    <g id="Grupo_12822" data-name="Grupo 12822" transform="translate(41 14)">
      <rect id="Rectángulo_3043" data-name="Rectángulo 3043" width="305" height="92" transform="translate(533.5 6237)" fill="#20287a"/>
      <path id="Trazado_49024" data-name="Trazado 49024" d="M47.6,8.708H44V19H41.153V8.708H37.576V6.4H47.6Zm2.83-.132a1.622,1.622,0,0,1-1.151-.417,1.345,1.345,0,0,1-.448-1.024,1.3,1.3,0,0,1,.448-1.02,1.88,1.88,0,0,1,2.307,0,1.3,1.3,0,0,1,.444,1.02,1.34,1.34,0,0,1-.444,1.037A1.65,1.65,0,0,1,50.425,8.576ZM51.8,19H49.019V10H51.8Zm5.15-1.046h-.035V23.14H54.134V10h2.777v1.354h.035a3.534,3.534,0,0,1,5.594-.374,5.108,5.108,0,0,1,.954,3.265,5.537,5.537,0,0,1-1.112,3.612,3.625,3.625,0,0,1-2.958,1.362A2.8,2.8,0,0,1,56.947,17.954Zm-.079-3.691v.721A2.291,2.291,0,0,0,57.36,16.5a1.6,1.6,0,0,0,1.292.589,1.7,1.7,0,0,0,1.472-.734,3.543,3.543,0,0,0,.523-2.079q0-2.373-1.846-2.373a1.733,1.733,0,0,0-1.393.646A2.576,2.576,0,0,0,56.868,14.263ZM69.585,19.22a4.838,4.838,0,0,1-3.538-1.261,4.573,4.573,0,0,1-1.288-3.423A4.573,4.573,0,0,1,66.1,11.042,5.048,5.048,0,0,1,69.708,9.78a4.78,4.78,0,0,1,3.516,1.261A4.483,4.483,0,0,1,74.5,14.377a4.759,4.759,0,0,1-1.314,3.542A4.892,4.892,0,0,1,69.585,19.22Zm.07-7.312a1.852,1.852,0,0,0-1.529.677,2.984,2.984,0,0,0-.545,1.916q0,2.593,2.092,2.593,2,0,2-2.663Q71.668,11.907,69.656,11.907Zm6.056,6.855v-2.25a5.913,5.913,0,0,0,1.367.615,4.531,4.531,0,0,0,1.288.2,2.762,2.762,0,0,0,1.165-.2.653.653,0,0,0,.426-.615.569.569,0,0,0-.193-.439,1.8,1.8,0,0,0-.5-.308,5.635,5.635,0,0,0-.664-.237q-.36-.105-.694-.237a6.653,6.653,0,0,1-.945-.435,2.731,2.731,0,0,1-.686-.541,2.125,2.125,0,0,1-.422-.712,2.841,2.841,0,0,1-.145-.958,2.466,2.466,0,0,1,.33-1.3,2.692,2.692,0,0,1,.879-.892,4.016,4.016,0,0,1,1.257-.51,6.553,6.553,0,0,1,1.472-.163,8.168,8.168,0,0,1,1.213.092,9.053,9.053,0,0,1,1.213.268v2.145a4.383,4.383,0,0,0-1.129-.461,4.764,4.764,0,0,0-1.182-.154,2.619,2.619,0,0,0-.514.048,1.693,1.693,0,0,0-.426.141.783.783,0,0,0-.29.237.546.546,0,0,0-.105.33.609.609,0,0,0,.158.422,1.374,1.374,0,0,0,.413.3,4.078,4.078,0,0,0,.567.229q.312.1.62.207a8.056,8.056,0,0,1,1,.422,3.2,3.2,0,0,1,.769.536,2.105,2.105,0,0,1,.492.721,2.884,2.884,0,0,1-.176,2.351,2.78,2.78,0,0,1-.923.923,4.185,4.185,0,0,1-1.327.519,7.357,7.357,0,0,1-1.56.163A8.042,8.042,0,0,1,75.711,18.763ZM97.992,19H95.214V17.761h-.035a3.114,3.114,0,0,1-2.786,1.459,3.412,3.412,0,0,1-2.716-1.191A4.93,4.93,0,0,1,88.649,14.7a5.366,5.366,0,0,1,1.134-3.577A3.7,3.7,0,0,1,92.753,9.78a2.527,2.527,0,0,1,2.426,1.248h.035V5.676h2.777Zm-2.725-4.377v-.677a2.13,2.13,0,0,0-.51-1.459,1.8,1.8,0,0,0-2.769.145,3.367,3.367,0,0,0-.519,1.991,2.914,2.914,0,0,0,.5,1.828,1.779,1.779,0,0,0,2.764-.035A2.821,2.821,0,0,0,95.267,14.623Zm13.148.668h-5.871q.141,1.96,2.47,1.96a4.822,4.822,0,0,0,2.61-.7v2a6.858,6.858,0,0,1-3.243.668A4.565,4.565,0,0,1,101,18.011a4.566,4.566,0,0,1-1.2-3.371,4.816,4.816,0,0,1,1.3-3.551,4.334,4.334,0,0,1,3.2-1.31,3.933,3.933,0,0,1,3.045,1.169,4.5,4.5,0,0,1,1.077,3.173Zm-2.575-1.705q0-1.934-1.564-1.934a1.494,1.494,0,0,0-1.156.554,2.513,2.513,0,0,0-.593,1.38Zm10.6-5.01a1.622,1.622,0,0,1-1.151-.417,1.345,1.345,0,0,1-.448-1.024,1.3,1.3,0,0,1,.448-1.02,1.88,1.88,0,0,1,2.307,0,1.3,1.3,0,0,1,.444,1.02,1.34,1.34,0,0,1-.444,1.037A1.65,1.65,0,0,1,116.44,8.576ZM117.811,19h-2.777V10h2.777Zm11.03,0h-2.769V14q0-2.092-1.494-2.092a1.483,1.483,0,0,0-1.187.554,2.109,2.109,0,0,0-.466,1.406V19h-2.777V10h2.777v1.424h.035a3.183,3.183,0,0,1,2.892-1.644q2.988,0,2.988,3.709Zm10.767-9-3.349,9H133.1l-3.19-9h2.971l1.564,5.546a8.1,8.1,0,0,1,.308,1.6h.035a9.078,9.078,0,0,1,.325-1.547l1.6-5.6Zm9.1,5.291h-5.871q.141,1.96,2.47,1.96a4.822,4.822,0,0,0,2.61-.7v2a6.858,6.858,0,0,1-3.243.668,4.565,4.565,0,0,1-3.384-1.208,4.566,4.566,0,0,1-1.2-3.371,4.816,4.816,0,0,1,1.3-3.551,4.334,4.334,0,0,1,3.2-1.31,3.933,3.933,0,0,1,3.045,1.169,4.5,4.5,0,0,1,1.077,3.173Zm-2.575-1.705q0-1.934-1.564-1.934a1.494,1.494,0,0,0-1.156.554,2.513,2.513,0,0,0-.593,1.38Zm3.639,5.177v-2.25a5.913,5.913,0,0,0,1.367.615,4.531,4.531,0,0,0,1.288.2,2.762,2.762,0,0,0,1.165-.2.653.653,0,0,0,.426-.615.569.569,0,0,0-.193-.439,1.8,1.8,0,0,0-.5-.308,5.635,5.635,0,0,0-.664-.237q-.36-.105-.694-.237a6.653,6.653,0,0,1-.945-.435,2.731,2.731,0,0,1-.686-.541,2.125,2.125,0,0,1-.422-.712,2.841,2.841,0,0,1-.145-.958,2.466,2.466,0,0,1,.33-1.3,2.692,2.692,0,0,1,.879-.892,4.016,4.016,0,0,1,1.257-.51,6.553,6.553,0,0,1,1.472-.163,8.168,8.168,0,0,1,1.213.092,9.053,9.053,0,0,1,1.213.268v2.145A4.383,4.383,0,0,0,155,11.824a4.764,4.764,0,0,0-1.182-.154,2.619,2.619,0,0,0-.514.048,1.693,1.693,0,0,0-.426.141.783.783,0,0,0-.29.237.546.546,0,0,0-.105.33.609.609,0,0,0,.158.422,1.374,1.374,0,0,0,.413.3,4.078,4.078,0,0,0,.567.229q.312.1.62.207a8.056,8.056,0,0,1,1,.422,3.2,3.2,0,0,1,.769.536,2.105,2.105,0,0,1,.492.721,2.884,2.884,0,0,1-.176,2.351,2.78,2.78,0,0,1-.923.923,4.185,4.185,0,0,1-1.327.519,7.357,7.357,0,0,1-1.56.163A8.042,8.042,0,0,1,149.768,18.763Zm13.948.132a4.105,4.105,0,0,1-1.854.325q-2.936,0-2.936-3.05V12.048h-1.459V10h1.459V8.058l2.769-.791V10h2.021v2.048h-2.021v3.639q0,1.406,1.116,1.406a1.882,1.882,0,0,0,.905-.255Zm2.971-10.318a1.622,1.622,0,0,1-1.151-.417,1.345,1.345,0,0,1-.448-1.024,1.3,1.3,0,0,1,.448-1.02,1.88,1.88,0,0,1,2.307,0,1.3,1.3,0,0,1,.444,1.02,1.34,1.34,0,0,1-.444,1.037A1.65,1.65,0,0,1,166.687,8.576ZM168.058,19h-2.777V10h2.777Zm11.162-1.028a5.092,5.092,0,0,1-1.45,3.88,5.877,5.877,0,0,1-4.2,1.375,6.659,6.659,0,0,1-2.883-.519V20.371a5.521,5.521,0,0,0,2.8.809,3.02,3.02,0,0,0,2.18-.743,2.665,2.665,0,0,0,.773-2.017v-.712h-.035a3.1,3.1,0,0,1-2.8,1.512,3.372,3.372,0,0,1-2.733-1.213,4.919,4.919,0,0,1-1.011-3.252,5.478,5.478,0,0,1,1.125-3.63,3.673,3.673,0,0,1,2.962-1.345,2.733,2.733,0,0,1,2.461,1.266h.035V10h2.777Zm-2.742-3.3v-.712a2.188,2.188,0,0,0-.505-1.455,1.635,1.635,0,0,0-1.314-.6,1.7,1.7,0,0,0-1.45.721,3.389,3.389,0,0,0-.527,2.03,2.86,2.86,0,0,0,.5,1.78,1.633,1.633,0,0,0,1.371.655,1.7,1.7,0,0,0,1.393-.664A2.721,2.721,0,0,0,176.478,14.676ZM189.029,19H186.4V17.708h-.035a2.933,2.933,0,0,1-2.681,1.512,2.8,2.8,0,0,1-2.061-.743,2.661,2.661,0,0,1-.751-1.982q0-2.619,3.1-3.023l2.443-.325q0-1.477-1.6-1.477a5.46,5.46,0,0,0-3.059.958V10.536a6.881,6.881,0,0,1,1.586-.527,8.339,8.339,0,0,1,1.833-.229q3.85,0,3.85,3.841Zm-2.61-3.656v-.606l-1.635.211q-1.354.176-1.354,1.222a1.01,1.01,0,0,0,.33.778,1.266,1.266,0,0,0,.892.3,1.644,1.644,0,0,0,1.274-.541A1.952,1.952,0,0,0,186.418,15.344Zm11.628,3.331a5.492,5.492,0,0,1-2.716.545,4.593,4.593,0,0,1-3.357-1.257,4.341,4.341,0,0,1-1.283-3.243,4.782,4.782,0,0,1,1.375-3.617,5.083,5.083,0,0,1,3.678-1.323,4.72,4.72,0,0,1,2.3.422v2.355a3.166,3.166,0,0,0-1.942-.65,2.559,2.559,0,0,0-1.894.7,2.607,2.607,0,0,0-.7,1.929,2.565,2.565,0,0,0,.668,1.876,2.455,2.455,0,0,0,1.837.681,3.666,3.666,0,0,0,2.03-.65Zm3.226-10.1a1.622,1.622,0,0,1-1.151-.417,1.345,1.345,0,0,1-.448-1.024,1.3,1.3,0,0,1,.448-1.02,1.88,1.88,0,0,1,2.307,0,1.3,1.3,0,0,1,.444,1.02,1.34,1.34,0,0,1-.444,1.037A1.65,1.65,0,0,1,201.272,8.576ZM202.643,19h-2.777V10h2.777Zm6.627.22a4.838,4.838,0,0,1-3.538-1.261,4.573,4.573,0,0,1-1.288-3.423,4.573,4.573,0,0,1,1.336-3.494,5.048,5.048,0,0,1,3.612-1.261,4.78,4.78,0,0,1,3.516,1.261,4.483,4.483,0,0,1,1.274,3.335,4.759,4.759,0,0,1-1.314,3.542A4.892,4.892,0,0,1,209.27,19.22Zm.07-7.312a1.852,1.852,0,0,0-1.529.677,2.984,2.984,0,0,0-.545,1.916q0,2.593,2.092,2.593,2,0,2-2.663Q211.353,11.907,209.34,11.907Zm2.979-6.17-2.751,2.839h-2l2.285-2.839ZM224.668,19H221.9V14q0-2.092-1.494-2.092a1.483,1.483,0,0,0-1.187.554,2.109,2.109,0,0,0-.466,1.406V19h-2.777V10h2.777v1.424h.035A3.183,3.183,0,0,1,221.68,9.78q2.988,0,2.988,3.709Z" transform="translate(556.5 6272)" fill="#fff"/>
    </g>
    <line id="Línea_169" data-name="Línea 169" x2="25" transform="translate(724.5 6343) rotate(90)" fill="none" stroke="#ff8f00" stroke-width="3"/>
    <g id="Grupo_20989" data-name="Grupo 20989" transform="translate(515 -17)">
      <rect id="Rectángulo_3055-2" data-name="Rectángulo 3055" width="380" height="75" transform="translate(297 6410)" fill="#eef0f2"/>
    </g>
    <rect id="Rectángulo_3052" data-name="Rectángulo 3052" width="336" height="66" transform="translate(856.5 6510)" fill="#eef0f2"/>
    <rect id="Rectángulo_3051" data-name="Rectángulo 3051" width="336" height="66" transform="translate(856.5 6593)" fill="#eef0f2"/>
    <path id="Trazado_49026" data-name="Trazado 49026" d="M73.593,19H70.754V6.4h2.839Zm11.285,0H82.109V14q0-2.092-1.494-2.092a1.483,1.483,0,0,0-1.187.554,2.109,2.109,0,0,0-.466,1.406V19H76.186V10h2.777v1.424H79A3.183,3.183,0,0,1,81.89,9.78q2.988,0,2.988,3.709Zm10.767-9L92.3,19H89.132l-3.19-9h2.971l1.564,5.546a8.1,8.1,0,0,1,.308,1.6h.035a9.078,9.078,0,0,1,.325-1.547l1.6-5.6Zm9.1,5.291H98.87q.141,1.96,2.47,1.96a4.822,4.822,0,0,0,2.61-.7v2a6.858,6.858,0,0,1-3.243.668,4.565,4.565,0,0,1-3.384-1.208,4.566,4.566,0,0,1-1.2-3.371,4.816,4.816,0,0,1,1.3-3.551,4.334,4.334,0,0,1,3.2-1.31,3.933,3.933,0,0,1,3.045,1.169,4.5,4.5,0,0,1,1.077,3.173Zm-2.575-1.705q0-1.934-1.564-1.934a1.494,1.494,0,0,0-1.156.554,2.513,2.513,0,0,0-.593,1.38Zm3.639,5.177v-2.25a5.913,5.913,0,0,0,1.367.615,4.531,4.531,0,0,0,1.288.2,2.762,2.762,0,0,0,1.165-.2.653.653,0,0,0,.426-.615.569.569,0,0,0-.193-.439,1.8,1.8,0,0,0-.5-.308,5.635,5.635,0,0,0-.664-.237q-.36-.105-.694-.237a6.653,6.653,0,0,1-.945-.435,2.731,2.731,0,0,1-.686-.541,2.125,2.125,0,0,1-.422-.712,2.841,2.841,0,0,1-.145-.958,2.466,2.466,0,0,1,.33-1.3,2.692,2.692,0,0,1,.879-.892,4.016,4.016,0,0,1,1.257-.51,6.553,6.553,0,0,1,1.472-.163,8.168,8.168,0,0,1,1.213.092,9.053,9.053,0,0,1,1.213.268v2.145a4.383,4.383,0,0,0-1.129-.461,4.764,4.764,0,0,0-1.182-.154,2.619,2.619,0,0,0-.514.048,1.693,1.693,0,0,0-.426.141.783.783,0,0,0-.29.237.546.546,0,0,0-.105.33.609.609,0,0,0,.158.422,1.374,1.374,0,0,0,.413.3,4.078,4.078,0,0,0,.567.229q.312.1.62.207a8.056,8.056,0,0,1,1,.422,3.2,3.2,0,0,1,.769.536,2.105,2.105,0,0,1,.492.721,2.884,2.884,0,0,1-.176,2.351,2.78,2.78,0,0,1-.923.923,4.185,4.185,0,0,1-1.327.519,7.357,7.357,0,0,1-1.56.163A8.042,8.042,0,0,1,105.8,18.763Zm13.948.132a4.105,4.105,0,0,1-1.854.325q-2.936,0-2.936-3.05V12.048H113.5V10h1.459V8.058l2.769-.791V10h2.021v2.048h-2.021v3.639q0,1.406,1.116,1.406a1.882,1.882,0,0,0,.905-.255Zm2.971-10.318a1.622,1.622,0,0,1-1.151-.417,1.345,1.345,0,0,1-.448-1.024,1.3,1.3,0,0,1,.448-1.02,1.88,1.88,0,0,1,2.307,0,1.3,1.3,0,0,1,.444,1.02,1.34,1.34,0,0,1-.444,1.037A1.65,1.65,0,0,1,122.724,8.576ZM124.095,19h-2.777V10h2.777Zm11.162-1.028a5.092,5.092,0,0,1-1.45,3.88,5.877,5.877,0,0,1-4.2,1.375,6.659,6.659,0,0,1-2.883-.519V20.371a5.521,5.521,0,0,0,2.8.809,3.02,3.02,0,0,0,2.18-.743,2.665,2.665,0,0,0,.773-2.017v-.712h-.035a3.1,3.1,0,0,1-2.8,1.512,3.372,3.372,0,0,1-2.733-1.213,4.919,4.919,0,0,1-1.011-3.252,5.478,5.478,0,0,1,1.125-3.63,3.673,3.673,0,0,1,2.962-1.345,2.733,2.733,0,0,1,2.461,1.266h.035V10h2.777Zm-2.742-3.3v-.712a2.188,2.188,0,0,0-.505-1.455,1.635,1.635,0,0,0-1.314-.6,1.7,1.7,0,0,0-1.45.721,3.389,3.389,0,0,0-.527,2.03,2.86,2.86,0,0,0,.5,1.78,1.633,1.633,0,0,0,1.371.655,1.7,1.7,0,0,0,1.393-.664A2.721,2.721,0,0,0,132.515,14.676ZM145.065,19h-2.628V17.708H142.4a2.933,2.933,0,0,1-2.681,1.512,2.8,2.8,0,0,1-2.061-.743,2.661,2.661,0,0,1-.751-1.982q0-2.619,3.1-3.023l2.443-.325q0-1.477-1.6-1.477a5.46,5.46,0,0,0-3.059.958V10.536a6.881,6.881,0,0,1,1.586-.527,8.339,8.339,0,0,1,1.833-.229q3.85,0,3.85,3.841Zm-2.61-3.656v-.606l-1.635.211q-1.354.176-1.354,1.222a1.01,1.01,0,0,0,.33.778,1.266,1.266,0,0,0,.892.3,1.644,1.644,0,0,0,1.274-.541A1.952,1.952,0,0,0,142.455,15.344Zm11.628,3.331a5.492,5.492,0,0,1-2.716.545,4.593,4.593,0,0,1-3.357-1.257,4.341,4.341,0,0,1-1.283-3.243A4.782,4.782,0,0,1,148.1,11.1,5.083,5.083,0,0,1,151.78,9.78a4.72,4.72,0,0,1,2.3.422v2.355a3.166,3.166,0,0,0-1.942-.65,2.559,2.559,0,0,0-1.894.7,2.607,2.607,0,0,0-.7,1.929,2.565,2.565,0,0,0,.668,1.876,2.455,2.455,0,0,0,1.837.681,3.666,3.666,0,0,0,2.03-.65Zm3.226-10.1a1.622,1.622,0,0,1-1.151-.417,1.345,1.345,0,0,1-.448-1.024,1.3,1.3,0,0,1,.448-1.02,1.88,1.88,0,0,1,2.307,0,1.3,1.3,0,0,1,.444,1.02,1.34,1.34,0,0,1-.444,1.037A1.65,1.65,0,0,1,157.309,8.576ZM158.68,19H155.9V10h2.777Zm6.627.22a4.838,4.838,0,0,1-3.538-1.261,4.573,4.573,0,0,1-1.288-3.423,4.573,4.573,0,0,1,1.336-3.494A5.048,5.048,0,0,1,165.43,9.78a4.78,4.78,0,0,1,3.516,1.261,4.483,4.483,0,0,1,1.274,3.335,4.759,4.759,0,0,1-1.314,3.542A4.892,4.892,0,0,1,165.307,19.22Zm.07-7.312a1.852,1.852,0,0,0-1.529.677A2.984,2.984,0,0,0,163.3,14.5q0,2.593,2.092,2.593,2,0,2-2.663Q167.39,11.907,165.377,11.907Zm2.979-6.17-2.751,2.839h-2l2.285-2.839ZM180.705,19h-2.769V14q0-2.092-1.494-2.092a1.483,1.483,0,0,0-1.187.554,2.109,2.109,0,0,0-.466,1.406V19h-2.777V10h2.777v1.424h.035a3.183,3.183,0,0,1,2.892-1.644q2.988,0,2.988,3.709Zm13.983-.325a5.492,5.492,0,0,1-2.716.545,4.593,4.593,0,0,1-3.357-1.257,4.341,4.341,0,0,1-1.283-3.243,4.782,4.782,0,0,1,1.375-3.617,5.083,5.083,0,0,1,3.678-1.323,4.72,4.72,0,0,1,2.3.422v2.355a3.166,3.166,0,0,0-1.942-.65,2.559,2.559,0,0,0-1.894.7,2.607,2.607,0,0,0-.7,1.929,2.565,2.565,0,0,0,.668,1.876,2.455,2.455,0,0,0,1.837.681,3.666,3.666,0,0,0,2.03-.65Zm6.108.545a4.838,4.838,0,0,1-3.538-1.261,4.573,4.573,0,0,1-1.288-3.423,4.573,4.573,0,0,1,1.336-3.494A5.048,5.048,0,0,1,200.92,9.78a4.78,4.78,0,0,1,3.516,1.261,4.483,4.483,0,0,1,1.274,3.335,4.759,4.759,0,0,1-1.314,3.542A4.892,4.892,0,0,1,200.8,19.22Zm.07-7.312a1.852,1.852,0,0,0-1.529.677,2.984,2.984,0,0,0-.545,1.916q0,2.593,2.092,2.593,2,0,2-2.663Q202.88,11.907,200.867,11.907ZM216.2,19h-2.769V14q0-2.092-1.494-2.092a1.483,1.483,0,0,0-1.187.554,2.109,2.109,0,0,0-.466,1.406V19h-2.777V10h2.777v1.424h.035a3.183,3.183,0,0,1,2.892-1.644q2.988,0,2.988,3.709Zm9.018-.325a5.492,5.492,0,0,1-2.716.545,4.593,4.593,0,0,1-3.357-1.257,4.341,4.341,0,0,1-1.283-3.243,4.782,4.782,0,0,1,1.375-3.617,5.083,5.083,0,0,1,3.678-1.323,4.72,4.72,0,0,1,2.3.422v2.355a3.166,3.166,0,0,0-1.942-.65,2.559,2.559,0,0,0-1.894.7,2.607,2.607,0,0,0-.7,1.929,2.565,2.565,0,0,0,.668,1.876,2.455,2.455,0,0,0,1.837.681,3.666,3.666,0,0,0,2.03-.65Zm4.6.325h-2.777V5.676h2.777Zm10.89,0h-2.769V17.629H237.9a3.141,3.141,0,0,1-2.751,1.591q-3.129,0-3.129-3.788V10h2.769v5.186q0,1.907,1.512,1.907a1.5,1.5,0,0,0,1.2-.523,2.109,2.109,0,0,0,.448-1.419V10h2.769Zm10.907-9-3.656,9.721q-1.318,3.507-3.973,3.507A5.09,5.09,0,0,1,242.325,23V20.784a2.336,2.336,0,0,0,1.2.325,1.5,1.5,0,0,0,1.494-1.011l.475-1.116L241.842,10h3.076l1.679,5.476a7.115,7.115,0,0,1,.246,1.2h.035a8.4,8.4,0,0,1,.29-1.187l1.7-5.493Zm9.026,5.291h-5.871q.141,1.96,2.47,1.96a4.822,4.822,0,0,0,2.61-.7v2a6.858,6.858,0,0,1-3.243.668,4.565,4.565,0,0,1-3.384-1.208,4.566,4.566,0,0,1-1.2-3.371,4.816,4.816,0,0,1,1.3-3.551,4.334,4.334,0,0,1,3.2-1.31,3.933,3.933,0,0,1,3.045,1.169,4.5,4.5,0,0,1,1.077,3.173Zm-2.575-1.705q0-1.934-1.564-1.934a1.494,1.494,0,0,0-1.156.554,2.513,2.513,0,0,0-.593,1.38ZM270.986,19h-2.769V14q0-2.092-1.494-2.092a1.483,1.483,0,0,0-1.187.554,2.109,2.109,0,0,0-.466,1.406V19h-2.777V10h2.777v1.424h.035A3.183,3.183,0,0,1,268,9.78q2.988,0,2.988,3.709Zm7.638-.105a4.105,4.105,0,0,1-1.854.325q-2.936,0-2.936-3.05V12.048h-1.459V10h1.459V8.058l2.769-.791V10h2.021v2.048H276.6v3.639q0,1.406,1.116,1.406a1.882,1.882,0,0,0,.905-.255Zm9.58-3.6h-5.871q.141,1.96,2.47,1.96a4.822,4.822,0,0,0,2.61-.7v2a6.858,6.858,0,0,1-3.243.668,4.565,4.565,0,0,1-3.384-1.208,4.566,4.566,0,0,1-1.2-3.371,4.816,4.816,0,0,1,1.3-3.551,4.334,4.334,0,0,1,3.2-1.31,3.933,3.933,0,0,1,3.045,1.169,4.5,4.5,0,0,1,1.077,3.173Zm-2.575-1.705q0-1.934-1.564-1.934a1.494,1.494,0,0,0-1.156.554,2.513,2.513,0,0,0-.593,1.38Z" transform="translate(832 6418)" fill="#00223d"/>
    <path id="Trazado_49025" data-name="Trazado 49025" d="M72.7,19H69.857V6.4H72.7Zm11.285,0H81.213V14q0-2.092-1.494-2.092a1.483,1.483,0,0,0-1.187.554,2.109,2.109,0,0,0-.466,1.406V19H75.289V10h2.777v1.424H78.1A3.183,3.183,0,0,1,80.993,9.78q2.988,0,2.988,3.709Zm10.767-9L91.4,19H88.235l-3.19-9h2.971l1.564,5.546a8.1,8.1,0,0,1,.308,1.6h.035a9.078,9.078,0,0,1,.325-1.547l1.6-5.6Zm9.1,5.291H97.974q.141,1.96,2.47,1.96a4.822,4.822,0,0,0,2.61-.7v2a6.858,6.858,0,0,1-3.243.668,4.565,4.565,0,0,1-3.384-1.208,4.566,4.566,0,0,1-1.2-3.371,4.816,4.816,0,0,1,1.3-3.551,4.334,4.334,0,0,1,3.2-1.31,3.933,3.933,0,0,1,3.045,1.169,4.5,4.5,0,0,1,1.077,3.173Zm-2.575-1.705q0-1.934-1.564-1.934a1.494,1.494,0,0,0-1.156.554,2.513,2.513,0,0,0-.593,1.38Zm3.639,5.177v-2.25a5.913,5.913,0,0,0,1.367.615,4.531,4.531,0,0,0,1.288.2,2.762,2.762,0,0,0,1.165-.2.653.653,0,0,0,.426-.615.569.569,0,0,0-.193-.439,1.8,1.8,0,0,0-.5-.308,5.635,5.635,0,0,0-.664-.237q-.36-.105-.694-.237a6.653,6.653,0,0,1-.945-.435,2.731,2.731,0,0,1-.686-.541,2.125,2.125,0,0,1-.422-.712,2.841,2.841,0,0,1-.145-.958,2.466,2.466,0,0,1,.33-1.3,2.692,2.692,0,0,1,.879-.892,4.016,4.016,0,0,1,1.257-.51,6.553,6.553,0,0,1,1.472-.163,8.168,8.168,0,0,1,1.213.092,9.053,9.053,0,0,1,1.213.268v2.145a4.383,4.383,0,0,0-1.129-.461,4.764,4.764,0,0,0-1.182-.154,2.619,2.619,0,0,0-.514.048,1.693,1.693,0,0,0-.426.141.783.783,0,0,0-.29.237.546.546,0,0,0-.105.33.609.609,0,0,0,.158.422,1.374,1.374,0,0,0,.413.3,4.078,4.078,0,0,0,.567.229q.312.1.62.207a8.056,8.056,0,0,1,1,.422,3.2,3.2,0,0,1,.769.536,2.105,2.105,0,0,1,.492.721,2.884,2.884,0,0,1-.176,2.351,2.78,2.78,0,0,1-.923.923,4.185,4.185,0,0,1-1.327.519,7.357,7.357,0,0,1-1.56.163A8.042,8.042,0,0,1,104.908,18.763Zm13.948.132A4.105,4.105,0,0,1,117,19.22q-2.936,0-2.936-3.05V12.048h-1.459V10h1.459V8.058l2.769-.791V10h2.021v2.048h-2.021v3.639q0,1.406,1.116,1.406a1.882,1.882,0,0,0,.905-.255Zm2.971-10.318a1.622,1.622,0,0,1-1.151-.417,1.345,1.345,0,0,1-.448-1.024,1.3,1.3,0,0,1,.448-1.02,1.88,1.88,0,0,1,2.307,0,1.3,1.3,0,0,1,.444,1.02,1.34,1.34,0,0,1-.444,1.037A1.65,1.65,0,0,1,121.827,8.576ZM123.2,19h-2.777V10H123.2Zm11.162-1.028a5.092,5.092,0,0,1-1.45,3.88,5.877,5.877,0,0,1-4.2,1.375,6.659,6.659,0,0,1-2.883-.519V20.371a5.521,5.521,0,0,0,2.8.809,3.02,3.02,0,0,0,2.18-.743,2.665,2.665,0,0,0,.773-2.017v-.712h-.035a3.1,3.1,0,0,1-2.8,1.512,3.372,3.372,0,0,1-2.733-1.213A4.919,4.919,0,0,1,125,14.755a5.478,5.478,0,0,1,1.125-3.63,3.673,3.673,0,0,1,2.962-1.345,2.733,2.733,0,0,1,2.461,1.266h.035V10h2.777Zm-2.742-3.3v-.712a2.188,2.188,0,0,0-.505-1.455,1.635,1.635,0,0,0-1.314-.6,1.7,1.7,0,0,0-1.45.721,3.389,3.389,0,0,0-.527,2.03,2.86,2.86,0,0,0,.5,1.78,1.633,1.633,0,0,0,1.371.655,1.7,1.7,0,0,0,1.393-.664A2.721,2.721,0,0,0,131.618,14.676ZM144.169,19h-2.628V17.708h-.035a2.933,2.933,0,0,1-2.681,1.512,2.8,2.8,0,0,1-2.061-.743,2.661,2.661,0,0,1-.751-1.982q0-2.619,3.1-3.023l2.443-.325q0-1.477-1.6-1.477a5.46,5.46,0,0,0-3.059.958V10.536a6.881,6.881,0,0,1,1.586-.527,8.339,8.339,0,0,1,1.833-.229q3.85,0,3.85,3.841Zm-2.61-3.656v-.606l-1.635.211q-1.354.176-1.354,1.222a1.01,1.01,0,0,0,.33.778,1.266,1.266,0,0,0,.892.3,1.644,1.644,0,0,0,1.274-.541A1.952,1.952,0,0,0,141.559,15.344Zm11.628,3.331a5.492,5.492,0,0,1-2.716.545,4.593,4.593,0,0,1-3.357-1.257,4.341,4.341,0,0,1-1.283-3.243,4.782,4.782,0,0,1,1.375-3.617,5.083,5.083,0,0,1,3.678-1.323,4.72,4.72,0,0,1,2.3.422v2.355a3.166,3.166,0,0,0-1.942-.65,2.559,2.559,0,0,0-1.894.7,2.607,2.607,0,0,0-.7,1.929,2.565,2.565,0,0,0,.668,1.876,2.455,2.455,0,0,0,1.837.681,3.666,3.666,0,0,0,2.03-.65Zm3.226-10.1a1.622,1.622,0,0,1-1.151-.417,1.345,1.345,0,0,1-.448-1.024,1.3,1.3,0,0,1,.448-1.02,1.88,1.88,0,0,1,2.307,0,1.3,1.3,0,0,1,.444,1.02,1.34,1.34,0,0,1-.444,1.037A1.65,1.65,0,0,1,156.412,8.576ZM157.783,19h-2.777V10h2.777Zm6.627.22a4.838,4.838,0,0,1-3.538-1.261,4.573,4.573,0,0,1-1.288-3.423,4.573,4.573,0,0,1,1.336-3.494,5.048,5.048,0,0,1,3.612-1.261,4.78,4.78,0,0,1,3.516,1.261,4.483,4.483,0,0,1,1.274,3.335,4.759,4.759,0,0,1-1.314,3.542A4.892,4.892,0,0,1,164.41,19.22Zm.07-7.312a1.852,1.852,0,0,0-1.529.677,2.984,2.984,0,0,0-.545,1.916q0,2.593,2.092,2.593,2,0,2-2.663Q166.493,11.907,164.48,11.907Zm2.979-6.17-2.751,2.839h-2l2.285-2.839ZM179.809,19H177.04V14q0-2.092-1.494-2.092a1.483,1.483,0,0,0-1.187.554,2.109,2.109,0,0,0-.466,1.406V19h-2.777V10h2.777v1.424h.035A3.183,3.183,0,0,1,176.82,9.78q2.988,0,2.988,3.709Zm15.249-3.709h-5.871q.141,1.96,2.47,1.96a4.822,4.822,0,0,0,2.61-.7v2a6.858,6.858,0,0,1-3.243.668,4.565,4.565,0,0,1-3.384-1.208,4.566,4.566,0,0,1-1.2-3.371,4.816,4.816,0,0,1,1.3-3.551,4.334,4.334,0,0,1,3.2-1.31,3.933,3.933,0,0,1,3.045,1.169,4.5,4.5,0,0,1,1.077,3.173Zm-2.575-1.705q0-1.934-1.564-1.934a1.494,1.494,0,0,0-1.156.554,2.513,2.513,0,0,0-.593,1.38ZM205.4,10l-2.971,4.359L205.385,19h-3.2l-1.3-2.426q-.158-.29-.378-.817h-.035a5.707,5.707,0,0,1-.36.791L198.8,19h-3.19l3.041-4.482L195.8,10h3.217l1.283,2.522a5.532,5.532,0,0,1,.36.844h.035a5.946,5.946,0,0,1,.378-.861l1.31-2.5Zm4.061,7.954h-.035V23.14H206.65V10h2.777v1.354h.035a3.534,3.534,0,0,1,5.594-.374,5.108,5.108,0,0,1,.954,3.265,5.537,5.537,0,0,1-1.112,3.612,3.625,3.625,0,0,1-2.958,1.362A2.8,2.8,0,0,1,209.463,17.954Zm-.079-3.691v.721a2.291,2.291,0,0,0,.492,1.521,1.6,1.6,0,0,0,1.292.589,1.7,1.7,0,0,0,1.472-.734,3.543,3.543,0,0,0,.523-2.079q0-2.373-1.846-2.373a1.733,1.733,0,0,0-1.393.646A2.576,2.576,0,0,0,209.384,14.263ZM220.59,19h-2.777V5.676h2.777Zm6.627.22a4.838,4.838,0,0,1-3.538-1.261,4.573,4.573,0,0,1-1.288-3.423,4.573,4.573,0,0,1,1.336-3.494A5.048,5.048,0,0,1,227.34,9.78a4.78,4.78,0,0,1,3.516,1.261,4.483,4.483,0,0,1,1.274,3.335,4.759,4.759,0,0,1-1.314,3.542A4.892,4.892,0,0,1,227.217,19.22Zm.07-7.312a1.852,1.852,0,0,0-1.529.677,2.984,2.984,0,0,0-.545,1.916q0,2.593,2.092,2.593,2,0,2-2.663Q229.3,11.907,227.287,11.907Zm12.516.6a2.409,2.409,0,0,0-1.169-.272,1.684,1.684,0,0,0-1.415.664,2.9,2.9,0,0,0-.51,1.806V19h-2.777V10h2.777v1.67h.035a2.4,2.4,0,0,1,2.373-1.828,1.788,1.788,0,0,1,.686.105Zm8.78,6.5h-2.628V17.708h-.035a2.933,2.933,0,0,1-2.681,1.512,2.8,2.8,0,0,1-2.061-.743,2.661,2.661,0,0,1-.751-1.982q0-2.619,3.1-3.023l2.443-.325q0-1.477-1.6-1.477a5.46,5.46,0,0,0-3.059.958V10.536a6.881,6.881,0,0,1,1.586-.527,8.339,8.339,0,0,1,1.833-.229q3.85,0,3.85,3.841Zm-2.61-3.656v-.606l-1.635.211q-1.354.176-1.354,1.222a1.01,1.01,0,0,0,.33.778,1.266,1.266,0,0,0,.892.3,1.644,1.644,0,0,0,1.274-.541A1.952,1.952,0,0,0,245.973,15.344Zm10.248,3.551a4.105,4.105,0,0,1-1.854.325q-2.936,0-2.936-3.05V12.048h-1.459V10h1.459V8.058l2.769-.791V10h2.021v2.048H254.2v3.639q0,1.406,1.116,1.406a1.882,1.882,0,0,0,.905-.255ZM262,19.22a4.838,4.838,0,0,1-3.538-1.261,4.573,4.573,0,0,1-1.288-3.423,4.573,4.573,0,0,1,1.336-3.494,5.048,5.048,0,0,1,3.612-1.261,4.78,4.78,0,0,1,3.516,1.261,4.483,4.483,0,0,1,1.274,3.335,4.759,4.759,0,0,1-1.314,3.542A4.892,4.892,0,0,1,262,19.22Zm.07-7.312a1.852,1.852,0,0,0-1.529.677A2.984,2.984,0,0,0,260,14.5q0,2.593,2.092,2.593,2,0,2-2.663Q264.087,11.907,262.074,11.907Zm12.516.6a2.409,2.409,0,0,0-1.169-.272,1.684,1.684,0,0,0-1.415.664,2.9,2.9,0,0,0-.51,1.806V19h-2.777V10H271.5v1.67h.035A2.4,2.4,0,0,1,273.9,9.842a1.788,1.788,0,0,1,.686.105Zm2.769-3.929a1.622,1.622,0,0,1-1.151-.417,1.345,1.345,0,0,1-.448-1.024,1.3,1.3,0,0,1,.448-1.02,1.88,1.88,0,0,1,2.307,0,1.3,1.3,0,0,1,.444,1.02,1.34,1.34,0,0,1-.444,1.037A1.65,1.65,0,0,1,277.358,8.576ZM278.729,19h-2.777V10h2.777Zm9.826,0h-2.628V17.708h-.035a2.933,2.933,0,0,1-2.681,1.512,2.8,2.8,0,0,1-2.061-.743A2.661,2.661,0,0,1,280.4,16.5q0-2.619,3.1-3.023l2.443-.325q0-1.477-1.6-1.477a5.46,5.46,0,0,0-3.059.958V10.536a6.881,6.881,0,0,1,1.586-.527,8.339,8.339,0,0,1,1.833-.229q3.85,0,3.85,3.841Zm-2.61-3.656v-.606l-1.635.211q-1.354.176-1.354,1.222a1.01,1.01,0,0,0,.33.778,1.266,1.266,0,0,0,.892.3,1.644,1.644,0,0,0,1.274-.541A1.952,1.952,0,0,0,285.945,15.344Z" transform="translate(264 6418)" fill="#00223d"/>
    <g id="Grupo_12815" data-name="Grupo 12815" transform="translate(576.5 1013)">
      <line id="Línea_142" data-name="Línea 142" y2="242" transform="translate(255.5 5455.5)" fill="none" stroke="#ff8f00" stroke-width="3"/>
      <line id="Línea_143" data-name="Línea 143" x2="25" transform="translate(255.5 5530.5)" fill="none" stroke="#ff8f00" stroke-width="3"/>
      <line id="Línea_144" data-name="Línea 144" x2="25" transform="translate(255.5 5613.5)" fill="none" stroke="#ff8f00" stroke-width="3"/>
    </g>
    <g id="Grupo_12821" data-name="Grupo 12821" transform="translate(69 15)">
      <line id="Línea_142-2" data-name="Línea 142" x1="589.5" transform="translate(363.5 6353.5)" fill="none" stroke="#ff8f00" stroke-width="3"/>
      <line id="Línea_143-2" data-name="Línea 143" x2="25" transform="translate(952.5 6353) rotate(90)" fill="none" stroke="#ff8f00" stroke-width="3"/>
      <line id="Línea_151" data-name="Línea 151" x2="25" transform="translate(364 6353) rotate(90)" fill="none" stroke="#ff8f00" stroke-width="3"/>
    </g>
    <path id="Trazado_49027" data-name="Trazado 49027" d="M30.275,19H23.6V6.4h6.4V7.732H25.072v4.192h4.553v1.327H25.072v4.412h5.2Zm9.308-9L36,19H34.582l-3.41-9h1.582l2.285,6.539a5.869,5.869,0,0,1,.316,1.257h.035a5.943,5.943,0,0,1,.281-1.222L38.063,10Zm7.989,9H46.131V17.594H46.1a3.018,3.018,0,0,1-2.769,1.617,2.959,2.959,0,0,1-2.1-.712,2.466,2.466,0,0,1-.76-1.89q0-2.522,2.971-2.936l2.7-.378Q46.131,11,44.276,11a4.431,4.431,0,0,0-2.936,1.107V10.633A5.577,5.577,0,0,1,44.4,9.789q3.173,0,3.173,3.357Zm-1.441-4.553-2.171.3a3.525,3.525,0,0,0-1.512.5,1.432,1.432,0,0,0-.51,1.261,1.374,1.374,0,0,0,.47,1.077A1.817,1.817,0,0,0,43.661,18a2.314,2.314,0,0,0,1.771-.751,2.685,2.685,0,0,0,.7-1.9ZM51.729,19H50.288V5.676h1.441Zm10.2,0H60.483V17.576h-.035a2.96,2.96,0,0,1-2.777,1.635q-3.217,0-3.217-3.832V10h1.433v5.15q0,2.848,2.18,2.848A2.205,2.205,0,0,0,59.8,17.22a2.976,2.976,0,0,0,.681-2.035V10h1.441Zm9.352,0H69.835V17.594H69.8a3.018,3.018,0,0,1-2.769,1.617,2.959,2.959,0,0,1-2.1-.712,2.466,2.466,0,0,1-.76-1.89q0-2.522,2.971-2.936l2.7-.378Q69.835,11,67.98,11a4.431,4.431,0,0,0-2.936,1.107V10.633A5.577,5.577,0,0,1,68.1,9.789q3.173,0,3.173,3.357Zm-1.441-4.553-2.171.3a3.525,3.525,0,0,0-1.512.5,1.432,1.432,0,0,0-.51,1.261,1.374,1.374,0,0,0,.47,1.077A1.817,1.817,0,0,0,67.365,18a2.314,2.314,0,0,0,1.771-.751,2.685,2.685,0,0,0,.7-1.9Zm8.851-2.988a1.763,1.763,0,0,0-1.09-.29,1.839,1.839,0,0,0-1.542.87,4.023,4.023,0,0,0-.62,2.373V19H73.992V10h1.441v1.854h.035a3.143,3.143,0,0,1,.94-1.481,2.144,2.144,0,0,1,1.415-.532,2.353,2.353,0,0,1,.861.123Zm12.63,7.128a4.684,4.684,0,0,1-2.461.624,4.074,4.074,0,0,1-3.107-1.252,4.539,4.539,0,0,1-1.182-3.248,4.99,4.99,0,0,1,1.274-3.573,4.458,4.458,0,0,1,3.4-1.349,4.735,4.735,0,0,1,2.092.439v1.477a3.665,3.665,0,0,0-2.145-.7,2.9,2.9,0,0,0-2.263.989,3.752,3.752,0,0,0-.883,2.6,3.573,3.573,0,0,0,.831,2.5A2.863,2.863,0,0,0,89.1,18a3.613,3.613,0,0,0,2.215-.782Zm9.457.413H99.331V17.576H99.3a2.96,2.96,0,0,1-2.777,1.635q-3.217,0-3.217-3.832V10h1.433v5.15q0,2.848,2.18,2.848a2.205,2.205,0,0,0,1.736-.778,2.976,2.976,0,0,0,.681-2.035V10h1.441Zm7.6-7.541a1.763,1.763,0,0,0-1.09-.29,1.839,1.839,0,0,0-1.542.87,4.023,4.023,0,0,0-.62,2.373V19h-1.441V10h1.441v1.854h.035a3.143,3.143,0,0,1,.94-1.481,2.144,2.144,0,0,1,1.415-.532,2.353,2.353,0,0,1,.861.123Zm1.02,7.216V17.128a4.266,4.266,0,0,0,2.593.87q1.9,0,1.9-1.266a1.1,1.1,0,0,0-.163-.611,1.62,1.62,0,0,0-.439-.444,3.383,3.383,0,0,0-.65-.347q-.374-.154-.8-.321a10.357,10.357,0,0,1-1.05-.479,3.173,3.173,0,0,1-.756-.545,2.028,2.028,0,0,1-.457-.69,2.441,2.441,0,0,1-.154-.905,2.15,2.15,0,0,1,.29-1.121,2.572,2.572,0,0,1,.773-.817,3.607,3.607,0,0,1,1.1-.5,4.893,4.893,0,0,1,1.279-.167,5.164,5.164,0,0,1,2.092.4v1.459a4.077,4.077,0,0,0-2.285-.65,2.671,2.671,0,0,0-.729.092,1.786,1.786,0,0,0-.558.259,1.2,1.2,0,0,0-.36.4,1.053,1.053,0,0,0-.127.514,1.233,1.233,0,0,0,.127.589,1.3,1.3,0,0,0,.374.422,2.855,2.855,0,0,0,.6.334q.352.149.8.325a11.131,11.131,0,0,1,1.072.47,3.678,3.678,0,0,1,.809.545,2.129,2.129,0,0,1,.514.7,2.254,2.254,0,0,1,.18.94,2.217,2.217,0,0,1-.294,1.16,2.523,2.523,0,0,1-.787.817,3.6,3.6,0,0,1-1.134.483,5.6,5.6,0,0,1-1.345.158A5.106,5.106,0,0,1,109.395,18.675Zm11.944.536a4.175,4.175,0,0,1-3.186-1.261,4.672,4.672,0,0,1-1.191-3.344,4.867,4.867,0,0,1,1.239-3.542,4.455,4.455,0,0,1,3.349-1.274,4.037,4.037,0,0,1,3.142,1.239,4.914,4.914,0,0,1,1.129,3.437,4.835,4.835,0,0,1-1.217,3.45A4.265,4.265,0,0,1,121.339,19.211ZM121.444,11a2.742,2.742,0,0,0-2.2.945,3.88,3.88,0,0,0-.809,2.606,3.67,3.67,0,0,0,.817,2.522,2.778,2.778,0,0,0,2.188.923,2.635,2.635,0,0,0,2.149-.905,3.928,3.928,0,0,0,.751-2.575,4,4,0,0,0-.751-2.6A2.623,2.623,0,0,0,121.444,11Zm6.135,7.673V17.128a4.266,4.266,0,0,0,2.593.87q1.9,0,1.9-1.266a1.1,1.1,0,0,0-.163-.611,1.62,1.62,0,0,0-.439-.444,3.383,3.383,0,0,0-.65-.347q-.374-.154-.8-.321a10.357,10.357,0,0,1-1.05-.479,3.173,3.173,0,0,1-.756-.545,2.028,2.028,0,0,1-.457-.69,2.441,2.441,0,0,1-.154-.905,2.15,2.15,0,0,1,.29-1.121,2.572,2.572,0,0,1,.773-.817,3.607,3.607,0,0,1,1.1-.5,4.893,4.893,0,0,1,1.279-.167,5.164,5.164,0,0,1,2.092.4v1.459a4.077,4.077,0,0,0-2.285-.65,2.671,2.671,0,0,0-.729.092,1.786,1.786,0,0,0-.558.259,1.2,1.2,0,0,0-.36.4,1.053,1.053,0,0,0-.127.514,1.233,1.233,0,0,0,.127.589,1.3,1.3,0,0,0,.374.422,2.855,2.855,0,0,0,.6.334q.352.149.8.325a11.131,11.131,0,0,1,1.072.47,3.678,3.678,0,0,1,.809.545,2.129,2.129,0,0,1,.514.7,2.254,2.254,0,0,1,.18.94,2.217,2.217,0,0,1-.294,1.16,2.523,2.523,0,0,1-.787.817,3.6,3.6,0,0,1-1.134.483,5.6,5.6,0,0,1-1.345.158A5.106,5.106,0,0,1,127.579,18.675ZM148.374,19h-1.441V17.471H146.9a3.327,3.327,0,0,1-3.094,1.74A3.362,3.362,0,0,1,141.092,18a4.958,4.958,0,0,1-1.015-3.292,5.394,5.394,0,0,1,1.125-3.577,3.71,3.71,0,0,1,3-1.345,2.885,2.885,0,0,1,2.7,1.459h.035V5.676h1.441Zm-1.441-4.069V13.6a2.575,2.575,0,0,0-.721-1.846A2.417,2.417,0,0,0,144.384,11a2.489,2.489,0,0,0-2.074.967,4.237,4.237,0,0,0-.756,2.672,3.81,3.81,0,0,0,.725,2.457,2.37,2.37,0,0,0,1.947.9,2.462,2.462,0,0,0,1.956-.87A3.242,3.242,0,0,0,146.933,14.931Zm11.593-.07h-6.354a3.366,3.366,0,0,0,.809,2.32,2.788,2.788,0,0,0,2.127.817,4.422,4.422,0,0,0,2.795-1V18.35a5.224,5.224,0,0,1-3.138.861,3.8,3.8,0,0,1-3-1.226,5.018,5.018,0,0,1-1.09-3.45,4.921,4.921,0,0,1,1.191-3.423,3.819,3.819,0,0,1,2.958-1.323,3.384,3.384,0,0,1,2.733,1.143,4.764,4.764,0,0,1,.967,3.173Zm-1.477-1.222a2.933,2.933,0,0,0-.6-1.942A2.051,2.051,0,0,0,154.8,11a2.328,2.328,0,0,0-1.731.729,3.31,3.31,0,0,0-.879,1.907ZM172.078,19h-1.441V17.594H170.6a3.018,3.018,0,0,1-2.769,1.617,2.959,2.959,0,0,1-2.1-.712,2.466,2.466,0,0,1-.76-1.89q0-2.522,2.971-2.936l2.7-.378q0-2.294-1.854-2.294a4.431,4.431,0,0,0-2.936,1.107V10.633a5.577,5.577,0,0,1,3.059-.844q3.173,0,3.173,3.357Zm-1.441-4.553-2.171.3a3.525,3.525,0,0,0-1.512.5,1.432,1.432,0,0,0-.51,1.261,1.374,1.374,0,0,0,.47,1.077,1.817,1.817,0,0,0,1.252.417,2.314,2.314,0,0,0,1.771-.751,2.685,2.685,0,0,0,.7-1.9Zm10.292,4.14a4.684,4.684,0,0,1-2.461.624,4.074,4.074,0,0,1-3.107-1.252,4.539,4.539,0,0,1-1.182-3.248,4.99,4.99,0,0,1,1.274-3.573,4.458,4.458,0,0,1,3.4-1.349,4.735,4.735,0,0,1,2.092.439v1.477A3.665,3.665,0,0,0,178.8,11a2.9,2.9,0,0,0-2.263.989,3.752,3.752,0,0,0-.883,2.6,3.573,3.573,0,0,0,.831,2.5,2.863,2.863,0,0,0,2.228.914,3.613,3.613,0,0,0,2.215-.782Zm8.314,0a4.684,4.684,0,0,1-2.461.624,4.074,4.074,0,0,1-3.107-1.252,4.539,4.539,0,0,1-1.182-3.248,4.99,4.99,0,0,1,1.274-3.573,4.458,4.458,0,0,1,3.4-1.349,4.735,4.735,0,0,1,2.092.439v1.477a3.665,3.665,0,0,0-2.145-.7,2.9,2.9,0,0,0-2.263.989,3.752,3.752,0,0,0-.883,2.6,3.573,3.573,0,0,0,.831,2.5,2.863,2.863,0,0,0,2.228.914,3.613,3.613,0,0,0,2.215-.782Zm2.918-10.872a.913.913,0,0,1-.659-.264.89.89,0,0,1-.272-.668.923.923,0,0,1,.932-.94.931.931,0,0,1,.672.268.939.939,0,0,1,0,1.332A.923.923,0,0,1,192.161,7.715Zm.7,11.285h-1.441V10h1.441Zm6.68.211a4.175,4.175,0,0,1-3.186-1.261,4.672,4.672,0,0,1-1.191-3.344,4.867,4.867,0,0,1,1.239-3.542,4.455,4.455,0,0,1,3.349-1.274,4.037,4.037,0,0,1,3.142,1.239,4.914,4.914,0,0,1,1.129,3.437,4.835,4.835,0,0,1-1.217,3.45A4.265,4.265,0,0,1,199.544,19.211ZM199.649,11a2.742,2.742,0,0,0-2.2.945,3.88,3.88,0,0,0-.809,2.606,3.67,3.67,0,0,0,.817,2.522,2.778,2.778,0,0,0,2.188.923,2.635,2.635,0,0,0,2.149-.905,3.928,3.928,0,0,0,.751-2.575,4,4,0,0,0-.751-2.6A2.623,2.623,0,0,0,199.649,11Zm2.109-5.59-2.3,2.883H198.34l1.96-2.883ZM213.8,19h-1.441V13.867q0-2.865-2.092-2.865a2.269,2.269,0,0,0-1.789.813,3.013,3.013,0,0,0-.708,2.052V19h-1.441V10h1.441v1.494h.035a3.248,3.248,0,0,1,2.953-1.705,2.753,2.753,0,0,1,2.259.954A4.248,4.248,0,0,1,213.8,13.5Z" transform="translate(907 6532)" fill="#00223d"/>
    <path id="Trazado_49030" data-name="Trazado 49030" d="M25.56,18.49V16.75a3.38,3.38,0,0,0,.716.475,5.8,5.8,0,0,0,.879.356,7,7,0,0,0,.927.224,5.17,5.17,0,0,0,.861.079,3.374,3.374,0,0,0,2.035-.505,1.9,1.9,0,0,0,.448-2.342,2.525,2.525,0,0,0-.62-.69,6.148,6.148,0,0,0-.936-.6q-.541-.286-1.165-.6-.659-.334-1.23-.677a5.332,5.332,0,0,1-.993-.756,3.153,3.153,0,0,1-.664-.936,2.9,2.9,0,0,1-.242-1.226,2.883,2.883,0,0,1,.378-1.5A3.242,3.242,0,0,1,26.949,7a4.5,4.5,0,0,1,1.4-.615,6.419,6.419,0,0,1,1.6-.2,6.147,6.147,0,0,1,2.716.448V8.295a4.923,4.923,0,0,0-2.865-.773,4.712,4.712,0,0,0-.967.1,2.731,2.731,0,0,0-.861.33,1.908,1.908,0,0,0-.615.589,1.563,1.563,0,0,0-.237.879,1.809,1.809,0,0,0,.18.835,2.046,2.046,0,0,0,.532.642,5.3,5.3,0,0,0,.857.563q.505.272,1.165.6.677.334,1.283.7a5.865,5.865,0,0,1,1.063.817,3.632,3.632,0,0,1,.725.993,2.792,2.792,0,0,1,.268,1.248,3.165,3.165,0,0,1-.365,1.578,2.993,2.993,0,0,1-.984,1.05,4.3,4.3,0,0,1-1.428.584,7.822,7.822,0,0,1-1.705.18,6.948,6.948,0,0,1-.738-.048q-.439-.048-.9-.141a7.315,7.315,0,0,1-.866-.229A2.694,2.694,0,0,1,25.56,18.49Zm17.191-3.63H36.4a3.366,3.366,0,0,0,.809,2.32A2.788,2.788,0,0,0,39.333,18a4.422,4.422,0,0,0,2.795-1V18.35a5.224,5.224,0,0,1-3.138.861,3.8,3.8,0,0,1-3-1.226,5.018,5.018,0,0,1-1.09-3.45,4.921,4.921,0,0,1,1.191-3.423,3.819,3.819,0,0,1,2.958-1.323,3.384,3.384,0,0,1,2.733,1.143,4.764,4.764,0,0,1,.967,3.173Zm-1.477-1.222a2.933,2.933,0,0,0-.6-1.942A2.051,2.051,0,0,0,39.025,11a2.328,2.328,0,0,0-1.731.729,3.31,3.31,0,0,0-.879,1.907ZM46.373,19H44.931V5.676h1.441Zm10.151-4.14H50.169a3.366,3.366,0,0,0,.809,2.32A2.788,2.788,0,0,0,53.1,18,4.422,4.422,0,0,0,55.9,17V18.35a5.224,5.224,0,0,1-3.138.861,3.8,3.8,0,0,1-3-1.226,5.018,5.018,0,0,1-1.09-3.45,4.921,4.921,0,0,1,1.191-3.423,3.819,3.819,0,0,1,2.958-1.323,3.384,3.384,0,0,1,2.733,1.143,4.764,4.764,0,0,1,.967,3.173Zm-1.477-1.222a2.933,2.933,0,0,0-.6-1.942A2.051,2.051,0,0,0,52.8,11a2.328,2.328,0,0,0-1.731.729,3.31,3.31,0,0,0-.879,1.907Zm9.791,4.948a4.684,4.684,0,0,1-2.461.624,4.074,4.074,0,0,1-3.107-1.252,4.539,4.539,0,0,1-1.182-3.248,4.99,4.99,0,0,1,1.274-3.573,4.458,4.458,0,0,1,3.4-1.349,4.735,4.735,0,0,1,2.092.439v1.477a3.665,3.665,0,0,0-2.145-.7,2.9,2.9,0,0,0-2.263.989,3.752,3.752,0,0,0-.883,2.6,3.573,3.573,0,0,0,.831,2.5A2.863,2.863,0,0,0,62.624,18a3.613,3.613,0,0,0,2.215-.782Zm8.314,0a4.684,4.684,0,0,1-2.461.624,4.074,4.074,0,0,1-3.107-1.252A4.539,4.539,0,0,1,66.4,14.711a4.99,4.99,0,0,1,1.274-3.573,4.458,4.458,0,0,1,3.4-1.349,4.735,4.735,0,0,1,2.092.439v1.477a3.665,3.665,0,0,0-2.145-.7,2.9,2.9,0,0,0-2.263.989,3.752,3.752,0,0,0-.883,2.6,3.573,3.573,0,0,0,.831,2.5A2.863,2.863,0,0,0,70.938,18a3.613,3.613,0,0,0,2.215-.782ZM76.071,7.715a.913.913,0,0,1-.659-.264.89.89,0,0,1-.272-.668.923.923,0,0,1,.932-.94.931.931,0,0,1,.672.268.939.939,0,0,1,0,1.332A.923.923,0,0,1,76.071,7.715ZM76.774,19H75.333V10h1.441Zm6.68.211a4.175,4.175,0,0,1-3.186-1.261,4.672,4.672,0,0,1-1.191-3.344,4.867,4.867,0,0,1,1.239-3.542,4.455,4.455,0,0,1,3.349-1.274,4.037,4.037,0,0,1,3.142,1.239,4.914,4.914,0,0,1,1.129,3.437,4.835,4.835,0,0,1-1.217,3.45A4.265,4.265,0,0,1,83.454,19.211ZM83.559,11a2.742,2.742,0,0,0-2.2.945,3.88,3.88,0,0,0-.809,2.606,3.67,3.67,0,0,0,.817,2.522A2.778,2.778,0,0,0,83.559,18a2.635,2.635,0,0,0,2.149-.905,3.928,3.928,0,0,0,.751-2.575,4,4,0,0,0-.751-2.6A2.623,2.623,0,0,0,83.559,11Zm14.15,8H96.268V13.867Q96.268,11,94.176,11a2.269,2.269,0,0,0-1.789.813,3.013,3.013,0,0,0-.708,2.052V19H90.239V10H91.68v1.494h.035a3.248,3.248,0,0,1,2.953-1.705,2.753,2.753,0,0,1,2.259.954,4.248,4.248,0,0,1,.782,2.755Zm9.158,0h-1.441V17.594h-.035a3.018,3.018,0,0,1-2.769,1.617,2.959,2.959,0,0,1-2.1-.712,2.466,2.466,0,0,1-.76-1.89q0-2.522,2.971-2.936l2.7-.378q0-2.294-1.854-2.294a4.431,4.431,0,0,0-2.936,1.107V10.633a5.577,5.577,0,0,1,3.059-.844q3.173,0,3.173,3.357Zm-1.441-4.553-2.171.3a3.525,3.525,0,0,0-1.512.5,1.432,1.432,0,0,0-.51,1.261,1.374,1.374,0,0,0,.47,1.077,1.817,1.817,0,0,0,1.252.417,2.314,2.314,0,0,0,1.771-.751,2.685,2.685,0,0,0,.7-1.9Zm8.851-2.988a1.763,1.763,0,0,0-1.09-.29,1.839,1.839,0,0,0-1.542.87,4.023,4.023,0,0,0-.62,2.373V19h-1.441V10h1.441v1.854h.035a3.143,3.143,0,0,1,.94-1.481,2.144,2.144,0,0,1,1.415-.532,2.353,2.353,0,0,1,.861.123ZM128.049,19h-1.441V17.576h-.035a2.96,2.96,0,0,1-2.777,1.635q-3.217,0-3.217-3.832V10h1.433v5.15q0,2.848,2.18,2.848a2.205,2.205,0,0,0,1.736-.778,2.976,2.976,0,0,0,.681-2.035V10h1.441Zm10.38,0h-1.441V13.867Q136.988,11,134.9,11a2.269,2.269,0,0,0-1.789.813,3.013,3.013,0,0,0-.708,2.052V19h-1.441V10H132.4v1.494h.035a3.248,3.248,0,0,1,2.953-1.705,2.753,2.753,0,0,1,2.259.954,4.248,4.248,0,0,1,.782,2.755Zm13.781-.413a4.684,4.684,0,0,1-2.461.624,4.074,4.074,0,0,1-3.107-1.252,4.539,4.539,0,0,1-1.182-3.248,4.99,4.99,0,0,1,1.274-3.573,4.458,4.458,0,0,1,3.4-1.349,4.735,4.735,0,0,1,2.092.439v1.477a3.665,3.665,0,0,0-2.145-.7,2.9,2.9,0,0,0-2.263.989,3.752,3.752,0,0,0-.883,2.6,3.573,3.573,0,0,0,.831,2.5A2.863,2.863,0,0,0,150,18a3.613,3.613,0,0,0,2.215-.782Zm9.457.413h-1.441V17.576h-.035a2.96,2.96,0,0,1-2.777,1.635q-3.217,0-3.217-3.832V10h1.433v5.15q0,2.848,2.18,2.848a2.205,2.205,0,0,0,1.736-.778,2.976,2.976,0,0,0,.681-2.035V10h1.441Zm7.6-7.541a1.763,1.763,0,0,0-1.09-.29,1.839,1.839,0,0,0-1.542.87,4.023,4.023,0,0,0-.62,2.373V19h-1.441V10h1.441v1.854h.035a3.143,3.143,0,0,1,.94-1.481,2.144,2.144,0,0,1,1.415-.532,2.353,2.353,0,0,1,.861.123Zm1.02,7.216V17.128a4.266,4.266,0,0,0,2.593.87q1.9,0,1.9-1.266a1.1,1.1,0,0,0-.163-.611,1.62,1.62,0,0,0-.439-.444,3.383,3.383,0,0,0-.65-.347q-.374-.154-.8-.321a10.357,10.357,0,0,1-1.05-.479,3.173,3.173,0,0,1-.756-.545,2.028,2.028,0,0,1-.457-.69,2.441,2.441,0,0,1-.154-.905,2.15,2.15,0,0,1,.29-1.121,2.572,2.572,0,0,1,.773-.817,3.607,3.607,0,0,1,1.1-.5,4.893,4.893,0,0,1,1.279-.167,5.164,5.164,0,0,1,2.092.4v1.459a4.077,4.077,0,0,0-2.285-.65,2.671,2.671,0,0,0-.729.092,1.786,1.786,0,0,0-.558.259,1.2,1.2,0,0,0-.36.4,1.053,1.053,0,0,0-.127.514,1.233,1.233,0,0,0,.127.589,1.3,1.3,0,0,0,.374.422,2.855,2.855,0,0,0,.6.334q.352.149.8.325a11.131,11.131,0,0,1,1.072.47,3.678,3.678,0,0,1,.809.545,2.129,2.129,0,0,1,.514.7,2.254,2.254,0,0,1,.18.94,2.217,2.217,0,0,1-.294,1.16,2.523,2.523,0,0,1-.787.817,3.6,3.6,0,0,1-1.134.483,5.6,5.6,0,0,1-1.345.158A5.106,5.106,0,0,1,170.29,18.675Zm11.944.536a4.175,4.175,0,0,1-3.186-1.261,4.672,4.672,0,0,1-1.191-3.344,4.867,4.867,0,0,1,1.239-3.542,4.455,4.455,0,0,1,3.349-1.274,4.037,4.037,0,0,1,3.142,1.239,4.914,4.914,0,0,1,1.129,3.437,4.835,4.835,0,0,1-1.217,3.45A4.265,4.265,0,0,1,182.234,19.211ZM182.339,11a2.742,2.742,0,0,0-2.2.945,3.88,3.88,0,0,0-.809,2.606,3.67,3.67,0,0,0,.817,2.522,2.778,2.778,0,0,0,2.188.923,2.635,2.635,0,0,0,2.149-.905,3.928,3.928,0,0,0,.751-2.575,4,4,0,0,0-.751-2.6A2.623,2.623,0,0,0,182.339,11Zm19.292,8H200.19V17.471h-.035a3.327,3.327,0,0,1-3.094,1.74A3.362,3.362,0,0,1,194.35,18a4.958,4.958,0,0,1-1.015-3.292,5.394,5.394,0,0,1,1.125-3.577,3.71,3.71,0,0,1,3-1.345,2.885,2.885,0,0,1,2.7,1.459h.035V5.676h1.441Zm-1.441-4.069V13.6a2.575,2.575,0,0,0-.721-1.846A2.417,2.417,0,0,0,197.641,11a2.489,2.489,0,0,0-2.074.967,4.237,4.237,0,0,0-.756,2.672,3.81,3.81,0,0,0,.725,2.457,2.37,2.37,0,0,0,1.947.9,2.462,2.462,0,0,0,1.956-.87A3.242,3.242,0,0,0,200.19,14.931Zm11.593-.07h-6.354a3.366,3.366,0,0,0,.809,2.32,2.788,2.788,0,0,0,2.127.817,4.422,4.422,0,0,0,2.795-1V18.35a5.224,5.224,0,0,1-3.138.861,3.8,3.8,0,0,1-3-1.226,5.018,5.018,0,0,1-1.09-3.45,4.921,4.921,0,0,1,1.191-3.423,3.819,3.819,0,0,1,2.958-1.323,3.384,3.384,0,0,1,2.733,1.143,4.764,4.764,0,0,1,.967,3.173Zm-1.477-1.222a2.933,2.933,0,0,0-.6-1.942A2.051,2.051,0,0,0,208.056,11a2.328,2.328,0,0,0-1.731.729,3.31,3.31,0,0,0-.879,1.907ZM100.961,43H99.52V41.594h-.035a3.018,3.018,0,0,1-2.769,1.617,2.959,2.959,0,0,1-2.1-.712,2.466,2.466,0,0,1-.76-1.89q0-2.522,2.971-2.936l2.7-.378Q99.52,35,97.666,35a4.431,4.431,0,0,0-2.936,1.107V34.633a5.577,5.577,0,0,1,3.059-.844q3.173,0,3.173,3.357ZM99.52,38.447l-2.171.3a3.525,3.525,0,0,0-1.512.5,1.432,1.432,0,0,0-.51,1.261,1.374,1.374,0,0,0,.47,1.077A1.817,1.817,0,0,0,97.05,42a2.314,2.314,0,0,0,1.771-.751,2.685,2.685,0,0,0,.7-1.9Zm10.292,4.14a4.684,4.684,0,0,1-2.461.624,4.074,4.074,0,0,1-3.107-1.252,4.539,4.539,0,0,1-1.182-3.248,4.99,4.99,0,0,1,1.274-3.573,4.458,4.458,0,0,1,3.4-1.349,4.735,4.735,0,0,1,2.092.439v1.477a3.665,3.665,0,0,0-2.145-.7,2.9,2.9,0,0,0-2.263.989,3.752,3.752,0,0,0-.883,2.6,3.573,3.573,0,0,0,.831,2.5A2.863,2.863,0,0,0,107.6,42a3.613,3.613,0,0,0,2.215-.782Zm8.314,0a4.684,4.684,0,0,1-2.461.624,4.074,4.074,0,0,1-3.107-1.252,4.539,4.539,0,0,1-1.182-3.248,4.99,4.99,0,0,1,1.274-3.573,4.458,4.458,0,0,1,3.4-1.349,4.735,4.735,0,0,1,2.092.439v1.477A3.665,3.665,0,0,0,116,35a2.9,2.9,0,0,0-2.263.989,3.752,3.752,0,0,0-.883,2.6,3.573,3.573,0,0,0,.831,2.5,2.863,2.863,0,0,0,2.228.914,3.613,3.613,0,0,0,2.215-.782Zm2.918-10.872a.913.913,0,0,1-.659-.264.89.89,0,0,1-.272-.668.923.923,0,0,1,.932-.94.931.931,0,0,1,.672.268.939.939,0,0,1,0,1.332A.923.923,0,0,1,121.044,31.715Zm.7,11.285h-1.441V34h1.441Zm6.68.211a4.175,4.175,0,0,1-3.186-1.261,4.672,4.672,0,0,1-1.191-3.344,4.867,4.867,0,0,1,1.239-3.542,4.455,4.455,0,0,1,3.349-1.274,4.037,4.037,0,0,1,3.142,1.239,4.914,4.914,0,0,1,1.129,3.437,4.835,4.835,0,0,1-1.217,3.45A4.265,4.265,0,0,1,128.427,43.211ZM128.533,35a2.742,2.742,0,0,0-2.2.945,3.88,3.88,0,0,0-.809,2.606,3.67,3.67,0,0,0,.817,2.522,2.778,2.778,0,0,0,2.188.923,2.635,2.635,0,0,0,2.149-.905,3.928,3.928,0,0,0,.751-2.575,4,4,0,0,0-.751-2.6A2.623,2.623,0,0,0,128.533,35Zm2.109-5.59-2.3,2.883h-1.116l1.96-2.883ZM142.683,43h-1.441V37.867q0-2.865-2.092-2.865a2.269,2.269,0,0,0-1.789.813,3.013,3.013,0,0,0-.708,2.052V43h-1.441V34h1.441v1.494h.035a3.248,3.248,0,0,1,2.953-1.705,2.753,2.753,0,0,1,2.259.954,4.248,4.248,0,0,1,.782,2.755Z" transform="translate(907 6603)" fill="#00223d"/>
    <rect id="Rectángulo_3467" data-name="Rectángulo 3467" width="336" height="66" transform="translate(306.25 6510)" fill="#eef0f2"/>
    <rect id="Rectángulo_3468" data-name="Rectángulo 3468" width="336" height="66" transform="translate(306.25 6593)" fill="#eef0f2"/>
    <g id="Grupo_21000" data-name="Grupo 21000" transform="translate(26.25 1013)">
      <line id="Línea_142-3" data-name="Línea 142" y2="158" transform="translate(255.5 5455.5)" fill="none" stroke="#ff8f00" stroke-width="3"/>
      <line id="Línea_143-3" data-name="Línea 143" x2="25" transform="translate(255.5 5530.5)" fill="none" stroke="#ff8f00" stroke-width="3"/>
      <line id="Línea_144-2" data-name="Línea 144" x2="25" transform="translate(255.5 5613.5)" fill="none" stroke="#ff8f00" stroke-width="3"/>
    </g>
    <path id="Trazado_49028" data-name="Trazado 49028" d="M43.529,19H41.771l-2.109-3.533a7.7,7.7,0,0,0-.562-.839,3.207,3.207,0,0,0-.558-.567,1.933,1.933,0,0,0-.615-.321,2.53,2.53,0,0,0-.743-.1H35.971V19H34.494V6.4h3.762a5.361,5.361,0,0,1,1.525.207,3.412,3.412,0,0,1,1.213.628,2.92,2.92,0,0,1,.8,1.05,3.483,3.483,0,0,1,.29,1.472,3.545,3.545,0,0,1-.2,1.208,3.156,3.156,0,0,1-.562.98,3.41,3.41,0,0,1-.879.734,4.487,4.487,0,0,1-1.156.47v.035a2.658,2.658,0,0,1,.549.321,3.023,3.023,0,0,1,.444.426,5.646,5.646,0,0,1,.417.558q.207.312.461.725ZM35.971,7.732V12.3h2A3.039,3.039,0,0,0,39,12.136a2.37,2.37,0,0,0,.813-.479,2.172,2.172,0,0,0,.536-.765,2.56,2.56,0,0,0,.193-1.015A1.976,1.976,0,0,0,39.886,8.3a2.813,2.813,0,0,0-1.894-.567Zm15.8,7.128H45.419a3.366,3.366,0,0,0,.809,2.32A2.788,2.788,0,0,0,48.354,18a4.422,4.422,0,0,0,2.795-1V18.35a5.224,5.224,0,0,1-3.138.861,3.8,3.8,0,0,1-3-1.226,5.018,5.018,0,0,1-1.09-3.45,4.921,4.921,0,0,1,1.191-3.423,3.819,3.819,0,0,1,2.958-1.323,3.384,3.384,0,0,1,2.733,1.143,4.764,4.764,0,0,1,.967,3.173ZM50.3,13.639a2.933,2.933,0,0,0-.6-1.942A2.051,2.051,0,0,0,48.047,11a2.328,2.328,0,0,0-1.731.729,3.31,3.31,0,0,0-.879,1.907Zm9.791,4.948a4.684,4.684,0,0,1-2.461.624,4.074,4.074,0,0,1-3.107-1.252,4.539,4.539,0,0,1-1.182-3.248,4.99,4.99,0,0,1,1.274-3.573,4.458,4.458,0,0,1,3.4-1.349,4.735,4.735,0,0,1,2.092.439v1.477a3.665,3.665,0,0,0-2.145-.7,2.9,2.9,0,0,0-2.263.989,3.752,3.752,0,0,0-.883,2.6,3.573,3.573,0,0,0,.831,2.5A2.863,2.863,0,0,0,57.873,18a3.613,3.613,0,0,0,2.215-.782Zm5.941.624a4.175,4.175,0,0,1-3.186-1.261,4.672,4.672,0,0,1-1.191-3.344,4.867,4.867,0,0,1,1.239-3.542A4.455,4.455,0,0,1,66.24,9.789a4.037,4.037,0,0,1,3.142,1.239,4.914,4.914,0,0,1,1.129,3.437,4.835,4.835,0,0,1-1.217,3.45A4.265,4.265,0,0,1,66.029,19.211ZM66.135,11a2.742,2.742,0,0,0-2.2.945,3.88,3.88,0,0,0-.809,2.606,3.67,3.67,0,0,0,.817,2.522A2.778,2.778,0,0,0,66.135,18a2.635,2.635,0,0,0,2.149-.905,3.928,3.928,0,0,0,.751-2.575,4,4,0,0,0-.751-2.6A2.623,2.623,0,0,0,66.135,11Zm14.15,8H78.844V13.867Q78.844,11,76.752,11a2.269,2.269,0,0,0-1.789.813,3.013,3.013,0,0,0-.708,2.052V19H72.814V10h1.441v1.494h.035a3.248,3.248,0,0,1,2.953-1.705,2.753,2.753,0,0,1,2.259.954,4.248,4.248,0,0,1,.782,2.755Zm6.478.211a4.175,4.175,0,0,1-3.186-1.261,4.672,4.672,0,0,1-1.191-3.344,4.867,4.867,0,0,1,1.239-3.542,4.455,4.455,0,0,1,3.349-1.274,4.037,4.037,0,0,1,3.142,1.239,4.914,4.914,0,0,1,1.129,3.437,4.835,4.835,0,0,1-1.217,3.45A4.265,4.265,0,0,1,86.763,19.211ZM86.868,11a2.742,2.742,0,0,0-2.2.945,3.88,3.88,0,0,0-.809,2.606,3.67,3.67,0,0,0,.817,2.522A2.778,2.778,0,0,0,86.868,18a2.635,2.635,0,0,0,2.149-.905,3.928,3.928,0,0,0,.751-2.575,4,4,0,0,0-.751-2.6A2.623,2.623,0,0,0,86.868,11Zm12.814,7.585a4.684,4.684,0,0,1-2.461.624,4.074,4.074,0,0,1-3.107-1.252,4.539,4.539,0,0,1-1.182-3.248,4.99,4.99,0,0,1,1.274-3.573,4.458,4.458,0,0,1,3.4-1.349,4.735,4.735,0,0,1,2.092.439v1.477a3.665,3.665,0,0,0-2.145-.7,2.9,2.9,0,0,0-2.263.989,3.752,3.752,0,0,0-.883,2.6,3.573,3.573,0,0,0,.831,2.5A2.863,2.863,0,0,0,97.468,18a3.613,3.613,0,0,0,2.215-.782ZM109.1,14.86h-6.354a3.366,3.366,0,0,0,.809,2.32,2.788,2.788,0,0,0,2.127.817,4.422,4.422,0,0,0,2.795-1V18.35a5.224,5.224,0,0,1-3.138.861,3.8,3.8,0,0,1-3-1.226,5.018,5.018,0,0,1-1.09-3.45,4.921,4.921,0,0,1,1.191-3.423A3.819,3.819,0,0,1,105.4,9.789a3.384,3.384,0,0,1,2.733,1.143A4.764,4.764,0,0,1,109.1,14.1Zm-1.477-1.222a2.933,2.933,0,0,0-.6-1.942A2.051,2.051,0,0,0,105.369,11a2.328,2.328,0,0,0-1.731.729,3.31,3.31,0,0,0-.879,1.907Zm8.35-2.18a1.763,1.763,0,0,0-1.09-.29,1.839,1.839,0,0,0-1.542.87,4.023,4.023,0,0,0-.62,2.373V19h-1.441V10h1.441v1.854h.035a3.143,3.143,0,0,1,.94-1.481,2.144,2.144,0,0,1,1.415-.532,2.353,2.353,0,0,1,.861.123ZM129.627,10l-4.14,10.441q-1.107,2.795-3.111,2.795a3.3,3.3,0,0,1-.94-.114V21.83a2.672,2.672,0,0,0,.853.158,1.767,1.767,0,0,0,1.635-1.3l.721-1.705L121.128,10h1.6l2.435,6.926q.044.132.185.686h.053q.044-.211.176-.668L128.133,10Zm14.159,9h-1.441V17.471h-.035a3.327,3.327,0,0,1-3.094,1.74A3.362,3.362,0,0,1,136.5,18a4.958,4.958,0,0,1-1.015-3.292,5.394,5.394,0,0,1,1.125-3.577,3.71,3.71,0,0,1,3-1.345,2.885,2.885,0,0,1,2.7,1.459h.035V5.676h1.441Zm-1.441-4.069V13.6a2.575,2.575,0,0,0-.721-1.846A2.417,2.417,0,0,0,139.8,11a2.489,2.489,0,0,0-2.074.967,4.237,4.237,0,0,0-.756,2.672,3.81,3.81,0,0,0,.725,2.457,2.37,2.37,0,0,0,1.947.9,2.462,2.462,0,0,0,1.956-.87A3.242,3.242,0,0,0,142.345,14.931Zm11.593-.07h-6.354a3.366,3.366,0,0,0,.809,2.32,2.788,2.788,0,0,0,2.127.817,4.422,4.422,0,0,0,2.795-1V18.35a5.224,5.224,0,0,1-3.138.861,3.8,3.8,0,0,1-3-1.226,5.018,5.018,0,0,1-1.09-3.45,4.921,4.921,0,0,1,1.191-3.423,3.819,3.819,0,0,1,2.958-1.323,3.384,3.384,0,0,1,2.733,1.143,4.764,4.764,0,0,1,.967,3.173Zm-1.477-1.222a2.933,2.933,0,0,0-.6-1.942A2.051,2.051,0,0,0,150.211,11a2.328,2.328,0,0,0-1.731.729,3.31,3.31,0,0,0-.879,1.907Zm8.1-6.7a1.92,1.92,0,0,0-.958-.237q-1.512,0-1.512,1.907V10H160.2v1.23h-2.109V19h-1.433V11.23h-1.538V10h1.538V8.541a3.032,3.032,0,0,1,.817-2.237,2.759,2.759,0,0,1,2.039-.822,2.824,2.824,0,0,1,1.046.158Zm1.925.773a.913.913,0,0,1-.659-.264.89.89,0,0,1-.272-.668.923.923,0,0,1,.932-.94.931.931,0,0,1,.672.268.939.939,0,0,1,0,1.332A.923.923,0,0,1,162.489,7.715Zm.7,11.285h-1.441V10h1.441Zm10.389,0H172.14V13.867q0-2.865-2.092-2.865a2.269,2.269,0,0,0-1.789.813,3.013,3.013,0,0,0-.708,2.052V19H166.11V10h1.441v1.494h.035a3.248,3.248,0,0,1,2.953-1.705,2.753,2.753,0,0,1,2.259.954,4.248,4.248,0,0,1,.782,2.755Zm3.454-11.285a.913.913,0,0,1-.659-.264.89.89,0,0,1-.272-.668.923.923,0,0,1,.932-.94.931.931,0,0,1,.672.268.939.939,0,0,1,0,1.332A.923.923,0,0,1,177.035,7.715Zm.7,11.285H176.3V10h1.441Zm7.611-7.541a1.763,1.763,0,0,0-1.09-.29,1.839,1.839,0,0,0-1.542.87,4.023,4.023,0,0,0-.62,2.373V19h-1.441V10H182.1v1.854h.035a3.143,3.143,0,0,1,.94-1.481,2.144,2.144,0,0,1,1.415-.532,2.353,2.353,0,0,1,.861.123Zm13.729,3.4h-6.354a3.366,3.366,0,0,0,.809,2.32,2.788,2.788,0,0,0,2.127.817,4.422,4.422,0,0,0,2.795-1V18.35a5.224,5.224,0,0,1-3.138.861,3.8,3.8,0,0,1-3-1.226,5.018,5.018,0,0,1-1.09-3.45,4.921,4.921,0,0,1,1.191-3.423,3.819,3.819,0,0,1,2.958-1.323,3.384,3.384,0,0,1,2.733,1.143,4.764,4.764,0,0,1,.967,3.173ZM197.6,13.639A2.933,2.933,0,0,0,197,11.7,2.051,2.051,0,0,0,195.352,11a2.328,2.328,0,0,0-1.731.729,3.31,3.31,0,0,0-.879,1.907ZM202.7,19h-1.441V5.676H202.7ZM35.588,41.7h-.035v5.44H34.112V34h1.441v1.582h.035A3.408,3.408,0,0,1,38.7,33.789,3.3,3.3,0,0,1,41.416,35a5.005,5.005,0,0,1,.976,3.239,5.578,5.578,0,0,1-1.1,3.617,3.658,3.658,0,0,1-3.006,1.358A3.011,3.011,0,0,1,35.588,41.7Zm-.035-3.63v1.257a2.676,2.676,0,0,0,.725,1.894A2.587,2.587,0,0,0,40.172,41a4.6,4.6,0,0,0,.743-2.786,3.629,3.629,0,0,0-.694-2.355A2.3,2.3,0,0,0,38.339,35a2.554,2.554,0,0,0-2.021.875A3.211,3.211,0,0,0,35.553,38.069Zm13.834-2.61a1.763,1.763,0,0,0-1.09-.29,1.839,1.839,0,0,0-1.542.87,4.023,4.023,0,0,0-.62,2.373V43H44.694V34h1.441v1.854h.035a3.143,3.143,0,0,1,.94-1.481,2.144,2.144,0,0,1,1.415-.532,2.353,2.353,0,0,1,.861.123Zm5.326,7.752a4.175,4.175,0,0,1-3.186-1.261,4.672,4.672,0,0,1-1.191-3.344,4.867,4.867,0,0,1,1.239-3.542,4.455,4.455,0,0,1,3.349-1.274,4.037,4.037,0,0,1,3.142,1.239A4.914,4.914,0,0,1,59.2,38.465a4.835,4.835,0,0,1-1.217,3.45A4.265,4.265,0,0,1,54.713,43.211ZM54.819,35a2.742,2.742,0,0,0-2.2.945,3.88,3.88,0,0,0-.809,2.606,3.67,3.67,0,0,0,.817,2.522A2.778,2.778,0,0,0,54.819,42a2.635,2.635,0,0,0,2.149-.905,3.928,3.928,0,0,0,.751-2.575,4,4,0,0,0-.751-2.6A2.623,2.623,0,0,0,54.819,35Zm8.156,6.7H62.94V43H61.5V29.676H62.94v5.906h.035a3.408,3.408,0,0,1,3.111-1.793A3.3,3.3,0,0,1,68.8,35a4.99,4.99,0,0,1,.98,3.239,5.578,5.578,0,0,1-1.1,3.617,3.658,3.658,0,0,1-3.006,1.358A2.96,2.96,0,0,1,62.975,41.7Zm-.035-3.63v1.257a2.676,2.676,0,0,0,.725,1.894A2.587,2.587,0,0,0,67.559,41,4.6,4.6,0,0,0,68.3,38.21a3.629,3.629,0,0,0-.694-2.355A2.3,2.3,0,0,0,65.726,35a2.554,2.554,0,0,0-2.021.875A3.211,3.211,0,0,0,62.94,38.069ZM73.522,43H72.081V29.676h1.441Zm10.151-4.14H77.319a3.366,3.366,0,0,0,.809,2.32A2.788,2.788,0,0,0,80.254,42a4.422,4.422,0,0,0,2.795-1V42.35a5.224,5.224,0,0,1-3.138.861,3.8,3.8,0,0,1-3-1.226,5.018,5.018,0,0,1-1.09-3.45,4.921,4.921,0,0,1,1.191-3.423,3.819,3.819,0,0,1,2.958-1.323,3.384,3.384,0,0,1,2.733,1.143,4.764,4.764,0,0,1,.967,3.173ZM82.2,37.639a2.933,2.933,0,0,0-.6-1.942A2.051,2.051,0,0,0,79.947,35a2.328,2.328,0,0,0-1.731.729,3.31,3.31,0,0,0-.879,1.907ZM98.632,43H97.191V37.832a3.9,3.9,0,0,0-.461-2.162A1.75,1.75,0,0,0,95.178,35a1.921,1.921,0,0,0-1.569.844,3.228,3.228,0,0,0-.646,2.021V43H91.522V37.656Q91.522,35,89.474,35a1.9,1.9,0,0,0-1.564.8,3.288,3.288,0,0,0-.615,2.07V43H85.853V34h1.441v1.424h.035a3.058,3.058,0,0,1,2.795-1.635,2.6,2.6,0,0,1,2.549,1.863,3.212,3.212,0,0,1,2.988-1.863q2.971,0,2.971,3.665Zm9.167,0h-1.441V41.594h-.035a3.018,3.018,0,0,1-2.769,1.617,2.959,2.959,0,0,1-2.1-.712,2.466,2.466,0,0,1-.76-1.89q0-2.522,2.971-2.936l2.7-.378Q106.358,35,104.5,35a4.431,4.431,0,0,0-2.936,1.107V34.633a5.577,5.577,0,0,1,3.059-.844q3.173,0,3.173,3.357Zm-1.441-4.553-2.171.3a3.525,3.525,0,0,0-1.512.5,1.432,1.432,0,0,0-.51,1.261,1.374,1.374,0,0,0,.47,1.077,1.817,1.817,0,0,0,1.252.417,2.314,2.314,0,0,0,1.771-.751,2.685,2.685,0,0,0,.7-1.9ZM123.127,43h-1.441V41.471h-.035a3.327,3.327,0,0,1-3.094,1.74A3.362,3.362,0,0,1,115.846,42a4.958,4.958,0,0,1-1.015-3.292,5.394,5.394,0,0,1,1.125-3.577,3.71,3.71,0,0,1,3-1.345,2.885,2.885,0,0,1,2.7,1.459h.035V29.676h1.441Zm-1.441-4.069V37.6a2.575,2.575,0,0,0-.721-1.846A2.417,2.417,0,0,0,119.137,35a2.489,2.489,0,0,0-2.074.967,4.237,4.237,0,0,0-.756,2.672,3.81,3.81,0,0,0,.725,2.457,2.37,2.37,0,0,0,1.947.9,2.462,2.462,0,0,0,1.956-.87A3.242,3.242,0,0,0,121.686,38.931Zm11.593-.07h-6.354a3.366,3.366,0,0,0,.809,2.32A2.788,2.788,0,0,0,129.86,42a4.422,4.422,0,0,0,2.795-1V42.35a5.224,5.224,0,0,1-3.138.861,3.8,3.8,0,0,1-3-1.226,5.018,5.018,0,0,1-1.09-3.45,4.921,4.921,0,0,1,1.191-3.423,3.819,3.819,0,0,1,2.958-1.323,3.384,3.384,0,0,1,2.733,1.143,4.764,4.764,0,0,1,.967,3.173ZM131.8,37.639a2.933,2.933,0,0,0-.6-1.942A2.051,2.051,0,0,0,129.552,35a2.328,2.328,0,0,0-1.731.729,3.31,3.31,0,0,0-.879,1.907ZM148.071,43h-1.441V41.471h-.035a3.327,3.327,0,0,1-3.094,1.74A3.362,3.362,0,0,1,140.789,42a4.958,4.958,0,0,1-1.015-3.292,5.394,5.394,0,0,1,1.125-3.577,3.71,3.71,0,0,1,3-1.345,2.885,2.885,0,0,1,2.7,1.459h.035V29.676h1.441Zm-1.441-4.069V37.6a2.575,2.575,0,0,0-.721-1.846A2.417,2.417,0,0,0,144.081,35a2.489,2.489,0,0,0-2.074.967,4.237,4.237,0,0,0-.756,2.672,3.81,3.81,0,0,0,.725,2.457,2.37,2.37,0,0,0,1.947.9,2.462,2.462,0,0,0,1.956-.87A3.242,3.242,0,0,0,146.629,38.931Zm11.593-.07h-6.354a3.366,3.366,0,0,0,.809,2.32A2.788,2.788,0,0,0,154.8,42a4.422,4.422,0,0,0,2.795-1V42.35a5.224,5.224,0,0,1-3.138.861,3.8,3.8,0,0,1-3-1.226,5.018,5.018,0,0,1-1.09-3.45,4.921,4.921,0,0,1,1.191-3.423,3.819,3.819,0,0,1,2.958-1.323,3.384,3.384,0,0,1,2.733,1.143,4.764,4.764,0,0,1,.967,3.173Zm-1.477-1.222a2.933,2.933,0,0,0-.6-1.942A2.051,2.051,0,0,0,154.5,35a2.328,2.328,0,0,0-1.731.729,3.31,3.31,0,0,0-.879,1.907Zm9.791,4.948a4.684,4.684,0,0,1-2.461.624,4.074,4.074,0,0,1-3.107-1.252,4.539,4.539,0,0,1-1.182-3.248,4.99,4.99,0,0,1,1.274-3.573,4.458,4.458,0,0,1,3.4-1.349,4.735,4.735,0,0,1,2.092.439v1.477a3.665,3.665,0,0,0-2.145-.7,2.9,2.9,0,0,0-2.263.989,3.752,3.752,0,0,0-.883,2.6,3.573,3.573,0,0,0,.831,2.5,2.863,2.863,0,0,0,2.228.914,3.613,3.613,0,0,0,2.215-.782Zm2.918-10.872a.913.913,0,0,1-.659-.264.89.89,0,0,1-.272-.668.923.923,0,0,1,.932-.94.931.931,0,0,1,.672.268.939.939,0,0,1,0,1.332A.923.923,0,0,1,169.455,31.715Zm.7,11.285h-1.441V34h1.441Zm2.373-.325V41.128a4.266,4.266,0,0,0,2.593.87q1.9,0,1.9-1.266a1.1,1.1,0,0,0-.163-.611,1.62,1.62,0,0,0-.439-.444,3.383,3.383,0,0,0-.65-.347q-.374-.154-.8-.321a10.357,10.357,0,0,1-1.05-.479,3.173,3.173,0,0,1-.756-.545,2.028,2.028,0,0,1-.457-.69,2.441,2.441,0,0,1-.154-.905,2.15,2.15,0,0,1,.29-1.121,2.572,2.572,0,0,1,.773-.817,3.607,3.607,0,0,1,1.1-.5,4.893,4.893,0,0,1,1.279-.167,5.164,5.164,0,0,1,2.092.4v1.459A4.077,4.077,0,0,0,175.8,35a2.671,2.671,0,0,0-.729.092,1.786,1.786,0,0,0-.558.259,1.2,1.2,0,0,0-.36.4,1.053,1.053,0,0,0-.127.514,1.233,1.233,0,0,0,.127.589,1.3,1.3,0,0,0,.374.422,2.855,2.855,0,0,0,.6.334q.352.149.8.325a11.131,11.131,0,0,1,1.072.47,3.678,3.678,0,0,1,.809.545,2.129,2.129,0,0,1,.514.7,2.254,2.254,0,0,1,.18.94,2.217,2.217,0,0,1-.294,1.16,2.523,2.523,0,0,1-.787.817,3.6,3.6,0,0,1-1.134.483,5.6,5.6,0,0,1-1.345.158A5.106,5.106,0,0,1,172.531,42.675Zm8.921-10.96a.913.913,0,0,1-.659-.264.89.89,0,0,1-.272-.668.923.923,0,0,1,.932-.94.931.931,0,0,1,.672.268.939.939,0,0,1,0,1.332A.923.923,0,0,1,181.452,31.715Zm.7,11.285h-1.441V34h1.441Zm6.68.211a4.175,4.175,0,0,1-3.186-1.261,4.672,4.672,0,0,1-1.191-3.344,4.867,4.867,0,0,1,1.239-3.542,4.455,4.455,0,0,1,3.349-1.274,4.037,4.037,0,0,1,3.142,1.239,4.914,4.914,0,0,1,1.129,3.437,4.835,4.835,0,0,1-1.217,3.45A4.265,4.265,0,0,1,188.834,43.211ZM188.94,35a2.742,2.742,0,0,0-2.2.945,3.88,3.88,0,0,0-.809,2.606,3.67,3.67,0,0,0,.817,2.522A2.778,2.778,0,0,0,188.94,42a2.635,2.635,0,0,0,2.149-.905,3.928,3.928,0,0,0,.751-2.575,4,4,0,0,0-.751-2.6A2.623,2.623,0,0,0,188.94,35Zm2.109-5.59-2.3,2.883H187.63l1.96-2.883ZM203.09,43h-1.441V37.867q0-2.865-2.092-2.865a2.269,2.269,0,0,0-1.789.813,3.013,3.013,0,0,0-.708,2.052V43H195.62V34h1.441v1.494h.035a3.248,3.248,0,0,1,2.953-1.705,2.753,2.753,0,0,1,2.259.954,4.248,4.248,0,0,1,.782,2.755Z" transform="translate(356.75 6520)" fill="#00223d"/>
    <path id="Trazado_49029" data-name="Trazado 49029" d="M13.91,19H12.434V6.4H13.91Zm10.8,0H23.271V17.471h-.035a3.327,3.327,0,0,1-3.094,1.74A3.362,3.362,0,0,1,17.43,18a4.958,4.958,0,0,1-1.015-3.292,5.394,5.394,0,0,1,1.125-3.577,3.71,3.71,0,0,1,3-1.345,2.885,2.885,0,0,1,2.7,1.459h.035V5.676h1.441Zm-1.441-4.069V13.6a2.575,2.575,0,0,0-.721-1.846A2.417,2.417,0,0,0,20.722,11a2.489,2.489,0,0,0-2.074.967,4.237,4.237,0,0,0-.756,2.672,3.81,3.81,0,0,0,.725,2.457,2.37,2.37,0,0,0,1.947.9,2.462,2.462,0,0,0,1.956-.87A3.242,3.242,0,0,0,23.271,14.931Zm11.593-.07H28.509a3.366,3.366,0,0,0,.809,2.32A2.788,2.788,0,0,0,31.444,18a4.422,4.422,0,0,0,2.795-1V18.35a5.224,5.224,0,0,1-3.138.861,3.8,3.8,0,0,1-3-1.226,5.018,5.018,0,0,1-1.09-3.45,4.921,4.921,0,0,1,1.191-3.423,3.819,3.819,0,0,1,2.958-1.323A3.384,3.384,0,0,1,33.9,10.932a4.764,4.764,0,0,1,.967,3.173Zm-1.477-1.222a2.933,2.933,0,0,0-.6-1.942A2.051,2.051,0,0,0,31.137,11a2.328,2.328,0,0,0-1.731.729,3.31,3.31,0,0,0-.879,1.907ZM44.514,19H43.072V13.867Q43.072,11,40.98,11a2.269,2.269,0,0,0-1.789.813,3.013,3.013,0,0,0-.708,2.052V19H37.043V10h1.441v1.494h.035a3.248,3.248,0,0,1,2.953-1.705,2.753,2.753,0,0,1,2.259.954,4.248,4.248,0,0,1,.782,2.755Zm6.891-.088a2.779,2.779,0,0,1-1.345.281q-2.364,0-2.364-2.637V11.23H46.148V10H47.7V7.8l1.441-.466V10H51.4v1.23H49.137V16.3a2.1,2.1,0,0,0,.308,1.292,1.228,1.228,0,0,0,1.02.387,1.515,1.515,0,0,0,.94-.3Zm2.663-11.2a.913.913,0,0,1-.659-.264.89.89,0,0,1-.272-.668.923.923,0,0,1,.932-.94.931.931,0,0,1,.672.268.939.939,0,0,1,0,1.332A.923.923,0,0,1,54.067,7.715ZM54.771,19H53.329V10h1.441ZM62.136,6.941a1.92,1.92,0,0,0-.958-.237q-1.512,0-1.512,1.907V10h2.109v1.23H59.666V19H58.233V11.23H56.7V10h1.538V8.541A3.032,3.032,0,0,1,59.051,6.3a2.759,2.759,0,0,1,2.039-.822,2.824,2.824,0,0,1,1.046.158Zm1.925.773a.913.913,0,0,1-.659-.264.89.89,0,0,1-.272-.668.923.923,0,0,1,.932-.94.931.931,0,0,1,.672.268.939.939,0,0,1,0,1.332A.923.923,0,0,1,64.061,7.715ZM64.764,19H63.322V10h1.441Zm9.053-.413a4.684,4.684,0,0,1-2.461.624,4.074,4.074,0,0,1-3.107-1.252,4.539,4.539,0,0,1-1.182-3.248,4.99,4.99,0,0,1,1.274-3.573,4.458,4.458,0,0,1,3.4-1.349,4.735,4.735,0,0,1,2.092.439v1.477a3.665,3.665,0,0,0-2.145-.7,2.9,2.9,0,0,0-2.263.989,3.752,3.752,0,0,0-.883,2.6,3.573,3.573,0,0,0,.831,2.5A2.863,2.863,0,0,0,71.6,18a3.613,3.613,0,0,0,2.215-.782ZM82.438,19H81V17.594h-.035a3.018,3.018,0,0,1-2.769,1.617,2.959,2.959,0,0,1-2.1-.712,2.466,2.466,0,0,1-.76-1.89q0-2.522,2.971-2.936L81,13.3Q81,11,79.143,11a4.431,4.431,0,0,0-2.936,1.107V10.633a5.577,5.577,0,0,1,3.059-.844q3.173,0,3.173,3.357ZM81,14.447l-2.171.3a3.525,3.525,0,0,0-1.512.5A1.432,1.432,0,0,0,76.8,16.5a1.374,1.374,0,0,0,.47,1.077A1.817,1.817,0,0,0,78.527,18a2.314,2.314,0,0,0,1.771-.751,2.685,2.685,0,0,0,.7-1.9Zm8.851-2.988a1.763,1.763,0,0,0-1.09-.29,1.839,1.839,0,0,0-1.542.87,4.023,4.023,0,0,0-.62,2.373V19H85.154V10H86.6v1.854h.035a3.143,3.143,0,0,1,.94-1.481,2.144,2.144,0,0,1,1.415-.532,2.353,2.353,0,0,1,.861.123Zm12.63,7.128a4.684,4.684,0,0,1-2.461.624,4.074,4.074,0,0,1-3.107-1.252,4.539,4.539,0,0,1-1.182-3.248A4.99,4.99,0,0,1,97,11.138a4.458,4.458,0,0,1,3.4-1.349,4.735,4.735,0,0,1,2.092.439v1.477a3.665,3.665,0,0,0-2.145-.7,2.9,2.9,0,0,0-2.263.989,3.752,3.752,0,0,0-.883,2.6,3.573,3.573,0,0,0,.831,2.5,2.863,2.863,0,0,0,2.228.914,3.613,3.613,0,0,0,2.215-.782Zm9.457.413h-1.441V17.576h-.035a2.96,2.96,0,0,1-2.777,1.635q-3.217,0-3.217-3.832V10H105.9v5.15q0,2.848,2.18,2.848a2.205,2.205,0,0,0,1.736-.778,2.976,2.976,0,0,0,.681-2.035V10h1.441Zm7.6-7.541a1.763,1.763,0,0,0-1.09-.29,1.839,1.839,0,0,0-1.542.87,4.023,4.023,0,0,0-.62,2.373V19h-1.441V10h1.441v1.854h.035a3.143,3.143,0,0,1,.94-1.481,2.144,2.144,0,0,1,1.415-.532,2.353,2.353,0,0,1,.861.123Zm1.02,7.216V17.128a4.266,4.266,0,0,0,2.593.87q1.9,0,1.9-1.266a1.1,1.1,0,0,0-.163-.611,1.62,1.62,0,0,0-.439-.444,3.383,3.383,0,0,0-.65-.347q-.374-.154-.8-.321a10.357,10.357,0,0,1-1.05-.479,3.173,3.173,0,0,1-.756-.545,2.028,2.028,0,0,1-.457-.69,2.441,2.441,0,0,1-.154-.905,2.15,2.15,0,0,1,.29-1.121,2.572,2.572,0,0,1,.773-.817,3.607,3.607,0,0,1,1.1-.5,4.893,4.893,0,0,1,1.279-.167,5.164,5.164,0,0,1,2.092.4v1.459a4.077,4.077,0,0,0-2.285-.65,2.671,2.671,0,0,0-.729.092,1.786,1.786,0,0,0-.558.259,1.2,1.2,0,0,0-.36.4,1.053,1.053,0,0,0-.127.514,1.233,1.233,0,0,0,.127.589,1.3,1.3,0,0,0,.374.422,2.855,2.855,0,0,0,.6.334q.352.149.8.325a11.131,11.131,0,0,1,1.072.47,3.678,3.678,0,0,1,.809.545,2.129,2.129,0,0,1,.514.7,2.254,2.254,0,0,1,.18.94,2.217,2.217,0,0,1-.294,1.16,2.523,2.523,0,0,1-.787.817,3.6,3.6,0,0,1-1.134.483,5.6,5.6,0,0,1-1.345.158A5.106,5.106,0,0,1,120.557,18.675Zm11.944.536a4.175,4.175,0,0,1-3.186-1.261,4.672,4.672,0,0,1-1.191-3.344,4.867,4.867,0,0,1,1.239-3.542,4.455,4.455,0,0,1,3.349-1.274,4.037,4.037,0,0,1,3.142,1.239,4.914,4.914,0,0,1,1.129,3.437,4.835,4.835,0,0,1-1.217,3.45A4.265,4.265,0,0,1,132.5,19.211ZM132.606,11a2.742,2.742,0,0,0-2.2.945,3.88,3.88,0,0,0-.809,2.606,3.67,3.67,0,0,0,.817,2.522,2.778,2.778,0,0,0,2.188.923,2.635,2.635,0,0,0,2.149-.905,3.928,3.928,0,0,0,.751-2.575,4,4,0,0,0-.751-2.6A2.623,2.623,0,0,0,132.606,11Zm6.135,7.673V17.128a4.266,4.266,0,0,0,2.593.87q1.9,0,1.9-1.266a1.1,1.1,0,0,0-.163-.611,1.62,1.62,0,0,0-.439-.444,3.383,3.383,0,0,0-.65-.347q-.374-.154-.8-.321a10.357,10.357,0,0,1-1.05-.479,3.173,3.173,0,0,1-.756-.545,2.028,2.028,0,0,1-.457-.69,2.441,2.441,0,0,1-.154-.905,2.15,2.15,0,0,1,.29-1.121,2.572,2.572,0,0,1,.773-.817,3.607,3.607,0,0,1,1.1-.5,4.893,4.893,0,0,1,1.279-.167,5.164,5.164,0,0,1,2.092.4v1.459a4.077,4.077,0,0,0-2.285-.65,2.671,2.671,0,0,0-.729.092,1.786,1.786,0,0,0-.558.259,1.2,1.2,0,0,0-.36.4,1.053,1.053,0,0,0-.127.514,1.233,1.233,0,0,0,.127.589,1.3,1.3,0,0,0,.374.422,2.855,2.855,0,0,0,.6.334q.352.149.8.325a11.131,11.131,0,0,1,1.072.47,3.678,3.678,0,0,1,.809.545,2.129,2.129,0,0,1,.514.7,2.254,2.254,0,0,1,.18.94,2.217,2.217,0,0,1-.294,1.16,2.523,2.523,0,0,1-.787.817,3.6,3.6,0,0,1-1.134.483,5.6,5.6,0,0,1-1.345.158A5.106,5.106,0,0,1,138.741,18.675ZM159.536,19h-1.441V17.471h-.035a3.327,3.327,0,0,1-3.094,1.74A3.362,3.362,0,0,1,152.254,18a4.958,4.958,0,0,1-1.015-3.292,5.394,5.394,0,0,1,1.125-3.577,3.71,3.71,0,0,1,3-1.345,2.885,2.885,0,0,1,2.7,1.459h.035V5.676h1.441Zm-1.441-4.069V13.6a2.575,2.575,0,0,0-.721-1.846A2.417,2.417,0,0,0,155.546,11a2.489,2.489,0,0,0-2.074.967,4.237,4.237,0,0,0-.756,2.672,3.81,3.81,0,0,0,.725,2.457,2.37,2.37,0,0,0,1.947.9,2.462,2.462,0,0,0,1.956-.87A3.242,3.242,0,0,0,158.095,14.931Zm11.593-.07h-6.354a3.366,3.366,0,0,0,.809,2.32,2.788,2.788,0,0,0,2.127.817,4.422,4.422,0,0,0,2.795-1V18.35a5.224,5.224,0,0,1-3.138.861,3.8,3.8,0,0,1-3-1.226,5.018,5.018,0,0,1-1.09-3.45,4.921,4.921,0,0,1,1.191-3.423,3.819,3.819,0,0,1,2.958-1.323,3.384,3.384,0,0,1,2.733,1.143,4.764,4.764,0,0,1,.967,3.173Zm-1.477-1.222a2.933,2.933,0,0,0-.6-1.942A2.051,2.051,0,0,0,165.961,11a2.328,2.328,0,0,0-1.731.729,3.31,3.31,0,0,0-.879,1.907ZM183.24,19H181.8V17.594h-.035A3.018,3.018,0,0,1,179,19.211a2.959,2.959,0,0,1-2.1-.712,2.466,2.466,0,0,1-.76-1.89q0-2.522,2.971-2.936l2.7-.378Q181.8,11,179.944,11a4.431,4.431,0,0,0-2.936,1.107V10.633a5.577,5.577,0,0,1,3.059-.844q3.173,0,3.173,3.357ZM181.8,14.447l-2.171.3a3.525,3.525,0,0,0-1.512.5,1.432,1.432,0,0,0-.51,1.261,1.374,1.374,0,0,0,.47,1.077,1.817,1.817,0,0,0,1.252.417,2.314,2.314,0,0,0,1.771-.751,2.685,2.685,0,0,0,.7-1.9Zm10.292,4.14a4.684,4.684,0,0,1-2.461.624,4.074,4.074,0,0,1-3.107-1.252,4.539,4.539,0,0,1-1.182-3.248,4.99,4.99,0,0,1,1.274-3.573,4.458,4.458,0,0,1,3.4-1.349,4.735,4.735,0,0,1,2.092.439v1.477a3.665,3.665,0,0,0-2.145-.7,2.9,2.9,0,0,0-2.263.989,3.752,3.752,0,0,0-.883,2.6,3.573,3.573,0,0,0,.831,2.5,2.863,2.863,0,0,0,2.228.914,3.613,3.613,0,0,0,2.215-.782Zm8.314,0a4.684,4.684,0,0,1-2.461.624,4.074,4.074,0,0,1-3.107-1.252,4.539,4.539,0,0,1-1.182-3.248,4.99,4.99,0,0,1,1.274-3.573,4.458,4.458,0,0,1,3.4-1.349,4.735,4.735,0,0,1,2.092.439v1.477a3.665,3.665,0,0,0-2.145-.7,2.9,2.9,0,0,0-2.263.989,3.752,3.752,0,0,0-.883,2.6,3.573,3.573,0,0,0,.831,2.5A2.863,2.863,0,0,0,198.19,18a3.613,3.613,0,0,0,2.215-.782Zm2.918-10.872a.913.913,0,0,1-.659-.264.89.89,0,0,1-.272-.668.923.923,0,0,1,.932-.94.931.931,0,0,1,.672.268.939.939,0,0,1,0,1.332A.923.923,0,0,1,203.323,7.715Zm.7,11.285h-1.441V10h1.441Zm6.68.211a4.175,4.175,0,0,1-3.186-1.261,4.672,4.672,0,0,1-1.191-3.344,4.867,4.867,0,0,1,1.239-3.542,4.455,4.455,0,0,1,3.349-1.274,4.037,4.037,0,0,1,3.142,1.239,4.914,4.914,0,0,1,1.129,3.437,4.835,4.835,0,0,1-1.217,3.45A4.265,4.265,0,0,1,210.706,19.211ZM210.812,11a2.742,2.742,0,0,0-2.2.945,3.88,3.88,0,0,0-.809,2.606,3.67,3.67,0,0,0,.817,2.522,2.778,2.778,0,0,0,2.188.923,2.635,2.635,0,0,0,2.149-.905,3.928,3.928,0,0,0,.751-2.575,4,4,0,0,0-.751-2.6A2.623,2.623,0,0,0,210.812,11Zm2.109-5.59-2.3,2.883H209.5l1.96-2.883ZM224.962,19h-1.441V13.867q0-2.865-2.092-2.865a2.269,2.269,0,0,0-1.789.813,3.013,3.013,0,0,0-.708,2.052V19h-1.441V10h1.441v1.494h.035a3.248,3.248,0,0,1,2.953-1.705,2.753,2.753,0,0,1,2.259.954,4.248,4.248,0,0,1,.782,2.755Z" transform="translate(356.75 6615)" fill="#00223d"/>
    <rect id="Rectángulo_3469" data-name="Rectángulo 3469" width="336" height="66" transform="translate(856.5 6676)" fill="#eef0f2"/>
    <line id="Línea_203" data-name="Línea 203" x2="25" transform="translate(832 6709.5)" fill="none" stroke="#ff8f00" stroke-width="3"/>
    <path id="Trazado_49031" data-name="Trazado 49031" d="M51.141,19H49.673V10.545q0-1,.123-2.452h-.035a7.84,7.84,0,0,1-.378,1.222L45.076,19h-.721l-4.3-9.615a7.533,7.533,0,0,1-.378-1.292h-.035q.07.756.07,2.47V19H38.291V6.4h1.951l3.867,8.789a11.254,11.254,0,0,1,.58,1.512h.053q.378-1.037.606-1.547L49.295,6.4h1.846Zm10.354-4.14H55.14a3.366,3.366,0,0,0,.809,2.32A2.788,2.788,0,0,0,58.075,18a4.422,4.422,0,0,0,2.795-1V18.35a5.224,5.224,0,0,1-3.138.861,3.8,3.8,0,0,1-3-1.226,5.018,5.018,0,0,1-1.09-3.45,4.921,4.921,0,0,1,1.191-3.423,3.819,3.819,0,0,1,2.958-1.323,3.384,3.384,0,0,1,2.733,1.143,4.764,4.764,0,0,1,.967,3.173Zm-1.477-1.222a2.933,2.933,0,0,0-.6-1.942A2.051,2.051,0,0,0,57.768,11a2.328,2.328,0,0,0-1.731.729,3.31,3.31,0,0,0-.879,1.907ZM71.355,19H69.914V17.471h-.035a3.327,3.327,0,0,1-3.094,1.74A3.362,3.362,0,0,1,64.074,18a4.958,4.958,0,0,1-1.015-3.292,5.394,5.394,0,0,1,1.125-3.577,3.71,3.71,0,0,1,3-1.345,2.885,2.885,0,0,1,2.7,1.459h.035V5.676h1.441Zm-1.441-4.069V13.6a2.575,2.575,0,0,0-.721-1.846A2.417,2.417,0,0,0,67.365,11a2.489,2.489,0,0,0-2.074.967,4.237,4.237,0,0,0-.756,2.672A3.81,3.81,0,0,0,65.26,17.1a2.37,2.37,0,0,0,1.947.9,2.462,2.462,0,0,0,1.956-.87A3.242,3.242,0,0,0,69.914,14.931Zm5.1-7.216a.913.913,0,0,1-.659-.264.89.89,0,0,1-.272-.668.923.923,0,0,1,.932-.94.931.931,0,0,1,.672.268.939.939,0,0,1,0,1.332A.923.923,0,0,1,75.012,7.715ZM75.715,19H74.273V10h1.441Zm7.611-7.541a1.763,1.763,0,0,0-1.09-.29,1.839,1.839,0,0,0-1.542.87,4.023,4.023,0,0,0-.62,2.373V19H78.633V10h1.441v1.854h.035a3.143,3.143,0,0,1,.94-1.481,2.144,2.144,0,0,1,1.415-.532,2.353,2.353,0,0,1,.861.123Zm13.729,3.4H90.7a3.366,3.366,0,0,0,.809,2.32A2.788,2.788,0,0,0,93.636,18a4.422,4.422,0,0,0,2.795-1V18.35a5.224,5.224,0,0,1-3.138.861,3.8,3.8,0,0,1-3-1.226,5.018,5.018,0,0,1-1.09-3.45A4.921,4.921,0,0,1,90.4,11.112a3.819,3.819,0,0,1,2.958-1.323,3.384,3.384,0,0,1,2.733,1.143,4.764,4.764,0,0,1,.967,3.173Zm-1.477-1.222a2.933,2.933,0,0,0-.6-1.942A2.051,2.051,0,0,0,93.328,11a2.328,2.328,0,0,0-1.731.729,3.31,3.31,0,0,0-.879,1.907Zm5.1,5.361H99.234V5.676h1.441Zm15.53,0h-1.441V17.471h-.035a3.327,3.327,0,0,1-3.094,1.74A3.362,3.362,0,0,1,108.924,18a4.958,4.958,0,0,1-1.015-3.292,5.394,5.394,0,0,1,1.125-3.577,3.71,3.71,0,0,1,3-1.345,2.885,2.885,0,0,1,2.7,1.459h.035V5.676h1.441Zm-1.441-4.069V13.6a2.575,2.575,0,0,0-.721-1.846A2.417,2.417,0,0,0,112.216,11a2.489,2.489,0,0,0-2.074.967,4.237,4.237,0,0,0-.756,2.672,3.81,3.81,0,0,0,.725,2.457,2.37,2.37,0,0,0,1.947.9,2.462,2.462,0,0,0,1.956-.87A3.242,3.242,0,0,0,114.765,14.931Zm11.593-.07H120a3.366,3.366,0,0,0,.809,2.32,2.788,2.788,0,0,0,2.127.817,4.422,4.422,0,0,0,2.795-1V18.35a5.224,5.224,0,0,1-3.138.861,3.8,3.8,0,0,1-3-1.226,5.018,5.018,0,0,1-1.09-3.45,4.921,4.921,0,0,1,1.191-3.423,3.819,3.819,0,0,1,2.958-1.323,3.384,3.384,0,0,1,2.733,1.143,4.764,4.764,0,0,1,.967,3.173Zm-1.477-1.222a2.933,2.933,0,0,0-.6-1.942A2.051,2.051,0,0,0,122.631,11a2.328,2.328,0,0,0-1.731.729,3.31,3.31,0,0,0-.879,1.907Zm3.111,5.036V17.128a4.266,4.266,0,0,0,2.593.87q1.9,0,1.9-1.266a1.1,1.1,0,0,0-.163-.611,1.62,1.62,0,0,0-.439-.444,3.383,3.383,0,0,0-.65-.347q-.374-.154-.8-.321a10.357,10.357,0,0,1-1.05-.479,3.173,3.173,0,0,1-.756-.545,2.028,2.028,0,0,1-.457-.69,2.441,2.441,0,0,1-.154-.905,2.15,2.15,0,0,1,.29-1.121,2.572,2.572,0,0,1,.773-.817,3.607,3.607,0,0,1,1.1-.5,4.893,4.893,0,0,1,1.279-.167,5.164,5.164,0,0,1,2.092.4v1.459a4.077,4.077,0,0,0-2.285-.65,2.671,2.671,0,0,0-.729.092,1.786,1.786,0,0,0-.558.259,1.2,1.2,0,0,0-.36.4,1.053,1.053,0,0,0-.127.514,1.233,1.233,0,0,0,.127.589,1.3,1.3,0,0,0,.374.422,2.855,2.855,0,0,0,.6.334q.352.149.8.325a11.131,11.131,0,0,1,1.072.47,3.678,3.678,0,0,1,.809.545,2.129,2.129,0,0,1,.514.7,2.254,2.254,0,0,1,.18.94,2.217,2.217,0,0,1-.294,1.16,2.523,2.523,0,0,1-.787.817,3.6,3.6,0,0,1-1.134.483,5.6,5.6,0,0,1-1.345.158A5.106,5.106,0,0,1,127.992,18.675Zm15.416-3.814h-6.354a3.366,3.366,0,0,0,.809,2.32,2.788,2.788,0,0,0,2.127.817,4.422,4.422,0,0,0,2.795-1V18.35a5.224,5.224,0,0,1-3.138.861,3.8,3.8,0,0,1-3-1.226,5.018,5.018,0,0,1-1.09-3.45,4.921,4.921,0,0,1,1.191-3.423,3.819,3.819,0,0,1,2.958-1.323,3.384,3.384,0,0,1,2.733,1.143,4.764,4.764,0,0,1,.967,3.173Zm-1.477-1.222a2.933,2.933,0,0,0-.6-1.942A2.051,2.051,0,0,0,139.682,11a2.328,2.328,0,0,0-1.731.729,3.31,3.31,0,0,0-.879,1.907ZM158.367,19h-1.441V13.832a3.9,3.9,0,0,0-.461-2.162A1.75,1.75,0,0,0,154.913,11a1.921,1.921,0,0,0-1.569.844,3.228,3.228,0,0,0-.646,2.021V19h-1.441V13.656q0-2.654-2.048-2.654a1.9,1.9,0,0,0-1.564.8,3.288,3.288,0,0,0-.615,2.07V19h-1.441V10h1.441v1.424h.035a3.058,3.058,0,0,1,2.795-1.635,2.6,2.6,0,0,1,2.549,1.863A3.212,3.212,0,0,1,155.4,9.789q2.971,0,2.971,3.665Zm4.2-1.3h-.035v5.44h-1.441V10h1.441v1.582h.035a3.408,3.408,0,0,1,3.111-1.793A3.3,3.3,0,0,1,168.4,11a5.005,5.005,0,0,1,.976,3.239,5.578,5.578,0,0,1-1.1,3.617,3.658,3.658,0,0,1-3.006,1.358A3.011,3.011,0,0,1,162.568,17.7Zm-.035-3.63v1.257a2.676,2.676,0,0,0,.725,1.894A2.587,2.587,0,0,0,167.152,17a4.6,4.6,0,0,0,.743-2.786,3.629,3.629,0,0,0-.694-2.355A2.3,2.3,0,0,0,165.319,11a2.554,2.554,0,0,0-2.021.875A3.211,3.211,0,0,0,162.533,14.069Zm16.374.791h-6.354a3.366,3.366,0,0,0,.809,2.32,2.788,2.788,0,0,0,2.127.817,4.422,4.422,0,0,0,2.795-1V18.35a5.224,5.224,0,0,1-3.138.861,3.8,3.8,0,0,1-3-1.226,5.018,5.018,0,0,1-1.09-3.45,4.921,4.921,0,0,1,1.191-3.423,3.819,3.819,0,0,1,2.958-1.323,3.384,3.384,0,0,1,2.733,1.143,4.764,4.764,0,0,1,.967,3.173Zm-1.477-1.222a2.933,2.933,0,0,0-.6-1.942A2.051,2.051,0,0,0,175.181,11a2.328,2.328,0,0,0-1.731.729,3.31,3.31,0,0,0-.879,1.907ZM188.558,19h-1.441V13.867q0-2.865-2.092-2.865a2.269,2.269,0,0,0-1.789.813,3.013,3.013,0,0,0-.708,2.052V19h-1.441V10h1.441v1.494h.035a3.248,3.248,0,0,1,2.953-1.705,2.753,2.753,0,0,1,2.259.954,4.248,4.248,0,0,1,.782,2.755Zm-.949-12.814a2.514,2.514,0,0,1-.422,1.507,1.337,1.337,0,0,1-1.143.584,2.949,2.949,0,0,1-1.424-.457,2.411,2.411,0,0,0-1.046-.378q-.773,0-.773.993h-.826a2.466,2.466,0,0,1,.422-1.507,1.384,1.384,0,0,1,1.178-.567,2.572,2.572,0,0,1,1.31.457,2.3,2.3,0,0,0,1.125.387q.738,0,.738-1.02Zm7.427,13.025a4.175,4.175,0,0,1-3.186-1.261,4.672,4.672,0,0,1-1.191-3.344,4.867,4.867,0,0,1,1.239-3.542,4.455,4.455,0,0,1,3.349-1.274,4.037,4.037,0,0,1,3.142,1.239,4.914,4.914,0,0,1,1.129,3.437,4.835,4.835,0,0,1-1.217,3.45A4.265,4.265,0,0,1,195.035,19.211ZM195.141,11a2.742,2.742,0,0,0-2.2.945,3.88,3.88,0,0,0-.809,2.606,3.67,3.67,0,0,0,.817,2.522,2.778,2.778,0,0,0,2.188.923,2.635,2.635,0,0,0,2.149-.905,3.928,3.928,0,0,0,.751-2.575,4,4,0,0,0-.751-2.6A2.623,2.623,0,0,0,195.141,11Z" transform="translate(907 6698)" fill="#00223d"/>
  </g>
</svg>
