<svg xmlns="http://www.w3.org/2000/svg" width="108.795" height="103.234" viewBox="0 0 108.795 103.234">
  <g id="Grupo_24030" data-name="Grupo 24030" transform="translate(-310 -2587.384)">
    <g id="Grupo_18069" data-name="Grupo 18069" transform="translate(-37.418 265)">
      <path id="Trazado_12403" data-name="Trazado 12403" d="M-1875.37,363.37h71.6l37.192,50.053-37.192,53.181h-71.6Z" transform="translate(2222.788 1959.013)" fill="#f0c068"/>
    </g>
    <path id="Trazado_49018" data-name="Trazado 49018" d="M33.667,76H23.447V70.976h-.137a11.407,11.407,0,0,1-10.425,5.879,10.9,10.9,0,0,1-8.015-2.888,10.349,10.349,0,0,1-2.922-7.708q0-10.186,12.065-11.758l9.5-1.265q0-5.742-6.221-5.742A21.233,21.233,0,0,0,5.4,51.22V43.085a26.759,26.759,0,0,1,6.169-2.051,32.431,32.431,0,0,1,7.126-.889q14.971,0,14.971,14.937ZM23.516,61.781V59.423l-6.357.82q-5.264.684-5.264,4.751a3.926,3.926,0,0,0,1.282,3.025A4.925,4.925,0,0,0,16.646,69.2,6.394,6.394,0,0,0,21.6,67.1,7.592,7.592,0,0,0,23.516,61.781Z" transform="translate(336 2588)" fill="#fff"/>
  </g>
</svg>
