<svg xmlns="http://www.w3.org/2000/svg" width="930.5" height="408" viewBox="0 0 930.5 408">
  <g id="Grupo_20988" data-name="Grupo 20988" transform="translate(-262 -6251)">
    <g id="Grupo_12823" data-name="Grupo 12823" transform="translate(-35 -17)">
      <rect id="Rectángulo_3055" data-name="Rectángulo 3055" width="380" height="75" transform="translate(297 6410)" fill="#eef0f2"/>
    </g>
    <g id="Grupo_12822" data-name="Grupo 12822" transform="translate(41 14)">
      <rect id="Rectángulo_3043" data-name="Rectángulo 3043" width="305" height="92" transform="translate(533.5 6237)" fill="#20287a"/>
      <path id="Trazado_49017" data-name="Trazado 49017" d="M32.355,19V6.4H36.82q6.715,0,6.715,6.144a6.212,6.212,0,0,1-1.833,4.7A6.757,6.757,0,0,1,36.82,19ZM35.194,8.708V16.7H36.6a3.8,3.8,0,0,0,2.9-1.107,4.2,4.2,0,0,0,1.05-3.015A3.812,3.812,0,0,0,39.5,9.741a3.971,3.971,0,0,0-2.922-1.033ZM46.76,8.576a1.622,1.622,0,0,1-1.151-.417,1.345,1.345,0,0,1-.448-1.024,1.3,1.3,0,0,1,.448-1.02,1.88,1.88,0,0,1,2.307,0,1.3,1.3,0,0,1,.444,1.02,1.34,1.34,0,0,1-.444,1.037A1.65,1.65,0,0,1,46.76,8.576ZM48.131,19H45.354V10h2.777Zm1.749-.237v-2.25a5.913,5.913,0,0,0,1.367.615,4.531,4.531,0,0,0,1.288.2,2.762,2.762,0,0,0,1.165-.2.653.653,0,0,0,.426-.615.569.569,0,0,0-.193-.439,1.8,1.8,0,0,0-.5-.308,5.635,5.635,0,0,0-.664-.237q-.36-.105-.694-.237a6.653,6.653,0,0,1-.945-.435,2.731,2.731,0,0,1-.686-.541,2.125,2.125,0,0,1-.422-.712,2.841,2.841,0,0,1-.145-.958,2.466,2.466,0,0,1,.33-1.3,2.692,2.692,0,0,1,.879-.892,4.016,4.016,0,0,1,1.257-.51,6.553,6.553,0,0,1,1.472-.163,8.168,8.168,0,0,1,1.213.092,9.053,9.053,0,0,1,1.213.268v2.145a4.383,4.383,0,0,0-1.129-.461,4.764,4.764,0,0,0-1.182-.154,2.619,2.619,0,0,0-.514.048,1.693,1.693,0,0,0-.426.141.783.783,0,0,0-.29.237.546.546,0,0,0-.105.33.609.609,0,0,0,.158.422,1.374,1.374,0,0,0,.413.3,4.078,4.078,0,0,0,.567.229q.312.1.62.207a8.056,8.056,0,0,1,1,.422,3.2,3.2,0,0,1,.769.536,2.105,2.105,0,0,1,.492.721,2.884,2.884,0,0,1-.176,2.351,2.78,2.78,0,0,1-.923.923,4.185,4.185,0,0,1-1.327.519,7.357,7.357,0,0,1-1.56.163A8.042,8.042,0,0,1,49.88,18.763Zm16.594-3.472H60.6q.141,1.96,2.47,1.96a4.822,4.822,0,0,0,2.61-.7v2a6.858,6.858,0,0,1-3.243.668,4.565,4.565,0,0,1-3.384-1.208,4.566,4.566,0,0,1-1.2-3.371,4.816,4.816,0,0,1,1.3-3.551,4.334,4.334,0,0,1,3.2-1.31A3.933,3.933,0,0,1,65.4,10.949a4.5,4.5,0,0,1,1.077,3.173ZM63.9,13.586q0-1.934-1.564-1.934a1.494,1.494,0,0,0-1.156.554,2.513,2.513,0,0,0-.593,1.38ZM76.819,19H74.05V14q0-2.092-1.494-2.092a1.483,1.483,0,0,0-1.187.554,2.109,2.109,0,0,0-.466,1.406V19H68.126V10H70.9v1.424h.035A3.183,3.183,0,0,1,73.831,9.78q2.988,0,2.988,3.709ZM75.588,5.843a3.2,3.2,0,0,1-.488,1.9,1.558,1.558,0,0,1-1.332.672,3.144,3.144,0,0,1-1.477-.378,2.959,2.959,0,0,0-1.081-.413q-.7,0-.7.949H69.269a3.225,3.225,0,0,1,.483-1.9A1.568,1.568,0,0,1,71.106,6a3.008,3.008,0,0,1,1.477.431,2.476,2.476,0,0,0,1.055.387q.686,0,.686-.976ZM83.305,19.22a4.838,4.838,0,0,1-3.538-1.261,4.573,4.573,0,0,1-1.288-3.423,4.573,4.573,0,0,1,1.336-3.494A5.048,5.048,0,0,1,83.428,9.78a4.78,4.78,0,0,1,3.516,1.261,4.483,4.483,0,0,1,1.274,3.335A4.759,4.759,0,0,1,86.9,17.919,4.892,4.892,0,0,1,83.305,19.22Zm.07-7.312a1.852,1.852,0,0,0-1.529.677A2.984,2.984,0,0,0,81.3,14.5q0,2.593,2.092,2.593,2,0,2-2.663Q85.388,11.907,83.375,11.907ZM103.792,19h-2.777V17.761h-.035a3.114,3.114,0,0,1-2.786,1.459,3.412,3.412,0,0,1-2.716-1.191A4.93,4.93,0,0,1,94.45,14.7a5.366,5.366,0,0,1,1.134-3.577A3.7,3.7,0,0,1,98.554,9.78a2.527,2.527,0,0,1,2.426,1.248h.035V5.676h2.777Zm-2.725-4.377v-.677a2.13,2.13,0,0,0-.51-1.459,1.8,1.8,0,0,0-2.769.145,3.367,3.367,0,0,0-.519,1.991,2.914,2.914,0,0,0,.5,1.828,1.779,1.779,0,0,0,2.764-.035A2.821,2.821,0,0,0,101.068,14.623Zm13.148.668h-5.871q.141,1.96,2.47,1.96a4.822,4.822,0,0,0,2.61-.7v2a6.858,6.858,0,0,1-3.243.668,4.565,4.565,0,0,1-3.384-1.208,4.566,4.566,0,0,1-1.2-3.371,4.816,4.816,0,0,1,1.3-3.551,4.334,4.334,0,0,1,3.2-1.31,3.933,3.933,0,0,1,3.045,1.169,4.5,4.5,0,0,1,1.077,3.173Zm-2.575-1.705q0-1.934-1.564-1.934a1.494,1.494,0,0,0-1.156.554,2.513,2.513,0,0,0-.593,1.38ZM123.946,19h-2.839V6.4h2.839Zm11.285,0h-2.769V14q0-2.092-1.494-2.092a1.483,1.483,0,0,0-1.187.554,2.109,2.109,0,0,0-.466,1.406V19h-2.777V10h2.777v1.424h.035a3.183,3.183,0,0,1,2.892-1.644q2.988,0,2.988,3.709ZM146,10l-3.349,9h-3.164l-3.19-9h2.971l1.564,5.546a8.1,8.1,0,0,1,.308,1.6h.035A9.078,9.078,0,0,1,141.5,15.6l1.6-5.6Zm9.1,5.291h-5.871q.141,1.96,2.47,1.96a4.822,4.822,0,0,0,2.61-.7v2a6.858,6.858,0,0,1-3.243.668,4.565,4.565,0,0,1-3.384-1.208,4.566,4.566,0,0,1-1.2-3.371,4.816,4.816,0,0,1,1.3-3.551,4.334,4.334,0,0,1,3.2-1.31,3.933,3.933,0,0,1,3.045,1.169,4.5,4.5,0,0,1,1.077,3.173Zm-2.575-1.705q0-1.934-1.564-1.934a1.494,1.494,0,0,0-1.156.554,2.513,2.513,0,0,0-.593,1.38Zm3.639,5.177v-2.25a5.913,5.913,0,0,0,1.367.615,4.531,4.531,0,0,0,1.288.2,2.762,2.762,0,0,0,1.165-.2.653.653,0,0,0,.426-.615.569.569,0,0,0-.193-.439,1.8,1.8,0,0,0-.5-.308,5.635,5.635,0,0,0-.664-.237q-.36-.105-.694-.237a6.653,6.653,0,0,1-.945-.435,2.731,2.731,0,0,1-.686-.541,2.125,2.125,0,0,1-.422-.712,2.841,2.841,0,0,1-.145-.958,2.466,2.466,0,0,1,.33-1.3,2.692,2.692,0,0,1,.879-.892,4.016,4.016,0,0,1,1.257-.51A6.553,6.553,0,0,1,160.1,9.78a8.168,8.168,0,0,1,1.213.092,9.053,9.053,0,0,1,1.213.268v2.145a4.383,4.383,0,0,0-1.129-.461,4.764,4.764,0,0,0-1.182-.154,2.619,2.619,0,0,0-.514.048,1.693,1.693,0,0,0-.426.141.783.783,0,0,0-.29.237.546.546,0,0,0-.105.33.609.609,0,0,0,.158.422,1.374,1.374,0,0,0,.413.3,4.078,4.078,0,0,0,.567.229q.312.1.62.207a8.056,8.056,0,0,1,1,.422,3.2,3.2,0,0,1,.769.536,2.105,2.105,0,0,1,.492.721,2.884,2.884,0,0,1-.176,2.351,2.78,2.78,0,0,1-.923.923,4.185,4.185,0,0,1-1.327.519,7.357,7.357,0,0,1-1.56.163A8.042,8.042,0,0,1,156.158,18.763Zm13.948.132a4.105,4.105,0,0,1-1.854.325q-2.936,0-2.936-3.05V12.048h-1.459V10h1.459V8.058l2.769-.791V10h2.021v2.048h-2.021v3.639q0,1.406,1.116,1.406a1.882,1.882,0,0,0,.905-.255Zm2.971-10.318a1.622,1.622,0,0,1-1.151-.417,1.345,1.345,0,0,1-.448-1.024,1.3,1.3,0,0,1,.448-1.02,1.88,1.88,0,0,1,2.307,0,1.3,1.3,0,0,1,.444,1.02,1.34,1.34,0,0,1-.444,1.037A1.65,1.65,0,0,1,173.077,8.576ZM174.448,19H171.67V10h2.777Zm11.162-1.028a5.092,5.092,0,0,1-1.45,3.88,5.877,5.877,0,0,1-4.2,1.375,6.659,6.659,0,0,1-2.883-.519V20.371a5.521,5.521,0,0,0,2.8.809,3.02,3.02,0,0,0,2.18-.743,2.665,2.665,0,0,0,.773-2.017v-.712H182.8a3.1,3.1,0,0,1-2.8,1.512,3.372,3.372,0,0,1-2.733-1.213,4.919,4.919,0,0,1-1.011-3.252,5.478,5.478,0,0,1,1.125-3.63,3.673,3.673,0,0,1,2.962-1.345,2.733,2.733,0,0,1,2.461,1.266h.035V10h2.777Zm-2.742-3.3v-.712a2.188,2.188,0,0,0-.505-1.455,1.635,1.635,0,0,0-1.314-.6,1.7,1.7,0,0,0-1.45.721,3.389,3.389,0,0,0-.527,2.03,2.86,2.86,0,0,0,.5,1.78,1.633,1.633,0,0,0,1.371.655,1.7,1.7,0,0,0,1.393-.664A2.721,2.721,0,0,0,182.868,14.676ZM195.418,19h-2.628V17.708h-.035a2.933,2.933,0,0,1-2.681,1.512,2.8,2.8,0,0,1-2.061-.743,2.661,2.661,0,0,1-.751-1.982q0-2.619,3.1-3.023l2.443-.325q0-1.477-1.6-1.477a5.46,5.46,0,0,0-3.059.958V10.536a6.881,6.881,0,0,1,1.586-.527,8.339,8.339,0,0,1,1.833-.229q3.85,0,3.85,3.841Zm-2.61-3.656v-.606l-1.635.211q-1.354.176-1.354,1.222a1.01,1.01,0,0,0,.33.778,1.266,1.266,0,0,0,.892.3,1.644,1.644,0,0,0,1.274-.541A1.952,1.952,0,0,0,192.808,15.344Zm11.628,3.331a5.492,5.492,0,0,1-2.716.545,4.593,4.593,0,0,1-3.357-1.257,4.341,4.341,0,0,1-1.283-3.243,4.782,4.782,0,0,1,1.375-3.617,5.083,5.083,0,0,1,3.678-1.323,4.72,4.72,0,0,1,2.3.422v2.355a3.166,3.166,0,0,0-1.942-.65,2.559,2.559,0,0,0-1.894.7,2.607,2.607,0,0,0-.7,1.929,2.565,2.565,0,0,0,.668,1.876,2.455,2.455,0,0,0,1.837.681,3.666,3.666,0,0,0,2.03-.65Zm3.226-10.1a1.622,1.622,0,0,1-1.151-.417,1.345,1.345,0,0,1-.448-1.024,1.3,1.3,0,0,1,.448-1.02,1.88,1.88,0,0,1,2.307,0,1.3,1.3,0,0,1,.444,1.02,1.34,1.34,0,0,1-.444,1.037A1.65,1.65,0,0,1,207.662,8.576ZM209.033,19h-2.777V10h2.777Zm6.627.22a4.838,4.838,0,0,1-3.538-1.261,4.573,4.573,0,0,1-1.288-3.423,4.573,4.573,0,0,1,1.336-3.494,5.048,5.048,0,0,1,3.612-1.261,4.78,4.78,0,0,1,3.516,1.261,4.483,4.483,0,0,1,1.274,3.335,4.759,4.759,0,0,1-1.314,3.542A4.892,4.892,0,0,1,215.66,19.22Zm.07-7.312a1.852,1.852,0,0,0-1.529.677,2.984,2.984,0,0,0-.545,1.916q0,2.593,2.092,2.593,2,0,2-2.663Q217.743,11.907,215.73,11.907Zm2.979-6.17-2.751,2.839h-2l2.285-2.839ZM231.058,19H228.29V14q0-2.092-1.494-2.092a1.483,1.483,0,0,0-1.187.554,2.109,2.109,0,0,0-.466,1.406V19h-2.777V10h2.777v1.424h.035A3.183,3.183,0,0,1,228.07,9.78q2.988,0,2.988,3.709Z" transform="translate(556.5 6272)" fill="#fff"/>
    </g>
    <line id="Línea_169" data-name="Línea 169" x2="25" transform="translate(724.5 6343) rotate(90)" fill="none" stroke="#ff8f00" stroke-width="3"/>
    <g id="Grupo_20989" data-name="Grupo 20989" transform="translate(515 -17)">
      <rect id="Rectángulo_3055-2" data-name="Rectángulo 3055" width="380" height="75" transform="translate(297 6410)" fill="#eef0f2"/>
    </g>
    <rect id="Rectángulo_3052" data-name="Rectángulo 3052" width="336" height="66" transform="translate(856.5 6510)" fill="#eef0f2"/>
    <rect id="Rectángulo_3051" data-name="Rectángulo 3051" width="336" height="66" transform="translate(856.5 6593)" fill="#eef0f2"/>
    <path id="Trazado_49014" data-name="Trazado 49014" d="M73.593,19H70.754V6.4h2.839Zm11.285,0H82.109V14q0-2.092-1.494-2.092a1.483,1.483,0,0,0-1.187.554,2.109,2.109,0,0,0-.466,1.406V19H76.186V10h2.777v1.424H79A3.183,3.183,0,0,1,81.89,9.78q2.988,0,2.988,3.709Zm10.767-9L92.3,19H89.132l-3.19-9h2.971l1.564,5.546a8.1,8.1,0,0,1,.308,1.6h.035a9.078,9.078,0,0,1,.325-1.547l1.6-5.6Zm9.1,5.291H98.87q.141,1.96,2.47,1.96a4.822,4.822,0,0,0,2.61-.7v2a6.858,6.858,0,0,1-3.243.668,4.565,4.565,0,0,1-3.384-1.208,4.566,4.566,0,0,1-1.2-3.371,4.816,4.816,0,0,1,1.3-3.551,4.334,4.334,0,0,1,3.2-1.31,3.933,3.933,0,0,1,3.045,1.169,4.5,4.5,0,0,1,1.077,3.173Zm-2.575-1.705q0-1.934-1.564-1.934a1.494,1.494,0,0,0-1.156.554,2.513,2.513,0,0,0-.593,1.38Zm3.639,5.177v-2.25a5.913,5.913,0,0,0,1.367.615,4.531,4.531,0,0,0,1.288.2,2.762,2.762,0,0,0,1.165-.2.653.653,0,0,0,.426-.615.569.569,0,0,0-.193-.439,1.8,1.8,0,0,0-.5-.308,5.635,5.635,0,0,0-.664-.237q-.36-.105-.694-.237a6.653,6.653,0,0,1-.945-.435,2.731,2.731,0,0,1-.686-.541,2.125,2.125,0,0,1-.422-.712,2.841,2.841,0,0,1-.145-.958,2.466,2.466,0,0,1,.33-1.3,2.692,2.692,0,0,1,.879-.892,4.016,4.016,0,0,1,1.257-.51,6.553,6.553,0,0,1,1.472-.163,8.168,8.168,0,0,1,1.213.092,9.053,9.053,0,0,1,1.213.268v2.145a4.383,4.383,0,0,0-1.129-.461,4.764,4.764,0,0,0-1.182-.154,2.619,2.619,0,0,0-.514.048,1.693,1.693,0,0,0-.426.141.783.783,0,0,0-.29.237.546.546,0,0,0-.105.33.609.609,0,0,0,.158.422,1.374,1.374,0,0,0,.413.3,4.078,4.078,0,0,0,.567.229q.312.1.62.207a8.056,8.056,0,0,1,1,.422,3.2,3.2,0,0,1,.769.536,2.105,2.105,0,0,1,.492.721,2.884,2.884,0,0,1-.176,2.351,2.78,2.78,0,0,1-.923.923,4.185,4.185,0,0,1-1.327.519,7.357,7.357,0,0,1-1.56.163A8.042,8.042,0,0,1,105.8,18.763Zm13.948.132a4.105,4.105,0,0,1-1.854.325q-2.936,0-2.936-3.05V12.048H113.5V10h1.459V8.058l2.769-.791V10h2.021v2.048h-2.021v3.639q0,1.406,1.116,1.406a1.882,1.882,0,0,0,.905-.255Zm2.971-10.318a1.622,1.622,0,0,1-1.151-.417,1.345,1.345,0,0,1-.448-1.024,1.3,1.3,0,0,1,.448-1.02,1.88,1.88,0,0,1,2.307,0,1.3,1.3,0,0,1,.444,1.02,1.34,1.34,0,0,1-.444,1.037A1.65,1.65,0,0,1,122.724,8.576ZM124.095,19h-2.777V10h2.777Zm11.162-1.028a5.092,5.092,0,0,1-1.45,3.88,5.877,5.877,0,0,1-4.2,1.375,6.659,6.659,0,0,1-2.883-.519V20.371a5.521,5.521,0,0,0,2.8.809,3.02,3.02,0,0,0,2.18-.743,2.665,2.665,0,0,0,.773-2.017v-.712h-.035a3.1,3.1,0,0,1-2.8,1.512,3.372,3.372,0,0,1-2.733-1.213,4.919,4.919,0,0,1-1.011-3.252,5.478,5.478,0,0,1,1.125-3.63,3.673,3.673,0,0,1,2.962-1.345,2.733,2.733,0,0,1,2.461,1.266h.035V10h2.777Zm-2.742-3.3v-.712a2.188,2.188,0,0,0-.505-1.455,1.635,1.635,0,0,0-1.314-.6,1.7,1.7,0,0,0-1.45.721,3.389,3.389,0,0,0-.527,2.03,2.86,2.86,0,0,0,.5,1.78,1.633,1.633,0,0,0,1.371.655,1.7,1.7,0,0,0,1.393-.664A2.721,2.721,0,0,0,132.515,14.676ZM145.065,19h-2.628V17.708H142.4a2.933,2.933,0,0,1-2.681,1.512,2.8,2.8,0,0,1-2.061-.743,2.661,2.661,0,0,1-.751-1.982q0-2.619,3.1-3.023l2.443-.325q0-1.477-1.6-1.477a5.46,5.46,0,0,0-3.059.958V10.536a6.881,6.881,0,0,1,1.586-.527,8.339,8.339,0,0,1,1.833-.229q3.85,0,3.85,3.841Zm-2.61-3.656v-.606l-1.635.211q-1.354.176-1.354,1.222a1.01,1.01,0,0,0,.33.778,1.266,1.266,0,0,0,.892.3,1.644,1.644,0,0,0,1.274-.541A1.952,1.952,0,0,0,142.455,15.344Zm11.628,3.331a5.492,5.492,0,0,1-2.716.545,4.593,4.593,0,0,1-3.357-1.257,4.341,4.341,0,0,1-1.283-3.243A4.782,4.782,0,0,1,148.1,11.1,5.083,5.083,0,0,1,151.78,9.78a4.72,4.72,0,0,1,2.3.422v2.355a3.166,3.166,0,0,0-1.942-.65,2.559,2.559,0,0,0-1.894.7,2.607,2.607,0,0,0-.7,1.929,2.565,2.565,0,0,0,.668,1.876,2.455,2.455,0,0,0,1.837.681,3.666,3.666,0,0,0,2.03-.65Zm3.226-10.1a1.622,1.622,0,0,1-1.151-.417,1.345,1.345,0,0,1-.448-1.024,1.3,1.3,0,0,1,.448-1.02,1.88,1.88,0,0,1,2.307,0,1.3,1.3,0,0,1,.444,1.02,1.34,1.34,0,0,1-.444,1.037A1.65,1.65,0,0,1,157.309,8.576ZM158.68,19H155.9V10h2.777Zm6.627.22a4.838,4.838,0,0,1-3.538-1.261,4.573,4.573,0,0,1-1.288-3.423,4.573,4.573,0,0,1,1.336-3.494A5.048,5.048,0,0,1,165.43,9.78a4.78,4.78,0,0,1,3.516,1.261,4.483,4.483,0,0,1,1.274,3.335,4.759,4.759,0,0,1-1.314,3.542A4.892,4.892,0,0,1,165.307,19.22Zm.07-7.312a1.852,1.852,0,0,0-1.529.677A2.984,2.984,0,0,0,163.3,14.5q0,2.593,2.092,2.593,2,0,2-2.663Q167.39,11.907,165.377,11.907Zm2.979-6.17-2.751,2.839h-2l2.285-2.839ZM180.705,19h-2.769V14q0-2.092-1.494-2.092a1.483,1.483,0,0,0-1.187.554,2.109,2.109,0,0,0-.466,1.406V19h-2.777V10h2.777v1.424h.035a3.183,3.183,0,0,1,2.892-1.644q2.988,0,2.988,3.709Zm13.983-.325a5.492,5.492,0,0,1-2.716.545,4.593,4.593,0,0,1-3.357-1.257,4.341,4.341,0,0,1-1.283-3.243,4.782,4.782,0,0,1,1.375-3.617,5.083,5.083,0,0,1,3.678-1.323,4.72,4.72,0,0,1,2.3.422v2.355a3.166,3.166,0,0,0-1.942-.65,2.559,2.559,0,0,0-1.894.7,2.607,2.607,0,0,0-.7,1.929,2.565,2.565,0,0,0,.668,1.876,2.455,2.455,0,0,0,1.837.681,3.666,3.666,0,0,0,2.03-.65Zm6.108.545a4.838,4.838,0,0,1-3.538-1.261,4.573,4.573,0,0,1-1.288-3.423,4.573,4.573,0,0,1,1.336-3.494A5.048,5.048,0,0,1,200.92,9.78a4.78,4.78,0,0,1,3.516,1.261,4.483,4.483,0,0,1,1.274,3.335,4.759,4.759,0,0,1-1.314,3.542A4.892,4.892,0,0,1,200.8,19.22Zm.07-7.312a1.852,1.852,0,0,0-1.529.677,2.984,2.984,0,0,0-.545,1.916q0,2.593,2.092,2.593,2,0,2-2.663Q202.88,11.907,200.867,11.907ZM216.2,19h-2.769V14q0-2.092-1.494-2.092a1.483,1.483,0,0,0-1.187.554,2.109,2.109,0,0,0-.466,1.406V19h-2.777V10h2.777v1.424h.035a3.183,3.183,0,0,1,2.892-1.644q2.988,0,2.988,3.709Zm9.018-.325a5.492,5.492,0,0,1-2.716.545,4.593,4.593,0,0,1-3.357-1.257,4.341,4.341,0,0,1-1.283-3.243,4.782,4.782,0,0,1,1.375-3.617,5.083,5.083,0,0,1,3.678-1.323,4.72,4.72,0,0,1,2.3.422v2.355a3.166,3.166,0,0,0-1.942-.65,2.559,2.559,0,0,0-1.894.7,2.607,2.607,0,0,0-.7,1.929,2.565,2.565,0,0,0,.668,1.876,2.455,2.455,0,0,0,1.837.681,3.666,3.666,0,0,0,2.03-.65Zm4.6.325h-2.777V5.676h2.777Zm10.89,0h-2.769V17.629H237.9a3.141,3.141,0,0,1-2.751,1.591q-3.129,0-3.129-3.788V10h2.769v5.186q0,1.907,1.512,1.907a1.5,1.5,0,0,0,1.2-.523,2.109,2.109,0,0,0,.448-1.419V10h2.769Zm10.907-9-3.656,9.721q-1.318,3.507-3.973,3.507A5.09,5.09,0,0,1,242.325,23V20.784a2.336,2.336,0,0,0,1.2.325,1.5,1.5,0,0,0,1.494-1.011l.475-1.116L241.842,10h3.076l1.679,5.476a7.115,7.115,0,0,1,.246,1.2h.035a8.4,8.4,0,0,1,.29-1.187l1.7-5.493Zm9.026,5.291h-5.871q.141,1.96,2.47,1.96a4.822,4.822,0,0,0,2.61-.7v2a6.858,6.858,0,0,1-3.243.668,4.565,4.565,0,0,1-3.384-1.208,4.566,4.566,0,0,1-1.2-3.371,4.816,4.816,0,0,1,1.3-3.551,4.334,4.334,0,0,1,3.2-1.31,3.933,3.933,0,0,1,3.045,1.169,4.5,4.5,0,0,1,1.077,3.173Zm-2.575-1.705q0-1.934-1.564-1.934a1.494,1.494,0,0,0-1.156.554,2.513,2.513,0,0,0-.593,1.38ZM270.986,19h-2.769V14q0-2.092-1.494-2.092a1.483,1.483,0,0,0-1.187.554,2.109,2.109,0,0,0-.466,1.406V19h-2.777V10h2.777v1.424h.035A3.183,3.183,0,0,1,268,9.78q2.988,0,2.988,3.709Zm7.638-.105a4.105,4.105,0,0,1-1.854.325q-2.936,0-2.936-3.05V12.048h-1.459V10h1.459V8.058l2.769-.791V10h2.021v2.048H276.6v3.639q0,1.406,1.116,1.406a1.882,1.882,0,0,0,.905-.255Zm9.58-3.6h-5.871q.141,1.96,2.47,1.96a4.822,4.822,0,0,0,2.61-.7v2a6.858,6.858,0,0,1-3.243.668,4.565,4.565,0,0,1-3.384-1.208,4.566,4.566,0,0,1-1.2-3.371,4.816,4.816,0,0,1,1.3-3.551,4.334,4.334,0,0,1,3.2-1.31,3.933,3.933,0,0,1,3.045,1.169,4.5,4.5,0,0,1,1.077,3.173Zm-2.575-1.705q0-1.934-1.564-1.934a1.494,1.494,0,0,0-1.156.554,2.513,2.513,0,0,0-.593,1.38Z" transform="translate(832 6418)" fill="#00223d"/>
    <path id="Trazado_49013" data-name="Trazado 49013" d="M72.7,19H69.857V6.4H72.7Zm11.285,0H81.213V14q0-2.092-1.494-2.092a1.483,1.483,0,0,0-1.187.554,2.109,2.109,0,0,0-.466,1.406V19H75.289V10h2.777v1.424H78.1A3.183,3.183,0,0,1,80.993,9.78q2.988,0,2.988,3.709Zm10.767-9L91.4,19H88.235l-3.19-9h2.971l1.564,5.546a8.1,8.1,0,0,1,.308,1.6h.035a9.078,9.078,0,0,1,.325-1.547l1.6-5.6Zm9.1,5.291H97.974q.141,1.96,2.47,1.96a4.822,4.822,0,0,0,2.61-.7v2a6.858,6.858,0,0,1-3.243.668,4.565,4.565,0,0,1-3.384-1.208,4.566,4.566,0,0,1-1.2-3.371,4.816,4.816,0,0,1,1.3-3.551,4.334,4.334,0,0,1,3.2-1.31,3.933,3.933,0,0,1,3.045,1.169,4.5,4.5,0,0,1,1.077,3.173Zm-2.575-1.705q0-1.934-1.564-1.934a1.494,1.494,0,0,0-1.156.554,2.513,2.513,0,0,0-.593,1.38Zm3.639,5.177v-2.25a5.913,5.913,0,0,0,1.367.615,4.531,4.531,0,0,0,1.288.2,2.762,2.762,0,0,0,1.165-.2.653.653,0,0,0,.426-.615.569.569,0,0,0-.193-.439,1.8,1.8,0,0,0-.5-.308,5.635,5.635,0,0,0-.664-.237q-.36-.105-.694-.237a6.653,6.653,0,0,1-.945-.435,2.731,2.731,0,0,1-.686-.541,2.125,2.125,0,0,1-.422-.712,2.841,2.841,0,0,1-.145-.958,2.466,2.466,0,0,1,.33-1.3,2.692,2.692,0,0,1,.879-.892,4.016,4.016,0,0,1,1.257-.51,6.553,6.553,0,0,1,1.472-.163,8.168,8.168,0,0,1,1.213.092,9.053,9.053,0,0,1,1.213.268v2.145a4.383,4.383,0,0,0-1.129-.461,4.764,4.764,0,0,0-1.182-.154,2.619,2.619,0,0,0-.514.048,1.693,1.693,0,0,0-.426.141.783.783,0,0,0-.29.237.546.546,0,0,0-.105.33.609.609,0,0,0,.158.422,1.374,1.374,0,0,0,.413.3,4.078,4.078,0,0,0,.567.229q.312.1.62.207a8.056,8.056,0,0,1,1,.422,3.2,3.2,0,0,1,.769.536,2.105,2.105,0,0,1,.492.721,2.884,2.884,0,0,1-.176,2.351,2.78,2.78,0,0,1-.923.923,4.185,4.185,0,0,1-1.327.519,7.357,7.357,0,0,1-1.56.163A8.042,8.042,0,0,1,104.908,18.763Zm13.948.132A4.105,4.105,0,0,1,117,19.22q-2.936,0-2.936-3.05V12.048h-1.459V10h1.459V8.058l2.769-.791V10h2.021v2.048h-2.021v3.639q0,1.406,1.116,1.406a1.882,1.882,0,0,0,.905-.255Zm2.971-10.318a1.622,1.622,0,0,1-1.151-.417,1.345,1.345,0,0,1-.448-1.024,1.3,1.3,0,0,1,.448-1.02,1.88,1.88,0,0,1,2.307,0,1.3,1.3,0,0,1,.444,1.02,1.34,1.34,0,0,1-.444,1.037A1.65,1.65,0,0,1,121.827,8.576ZM123.2,19h-2.777V10H123.2Zm11.162-1.028a5.092,5.092,0,0,1-1.45,3.88,5.877,5.877,0,0,1-4.2,1.375,6.659,6.659,0,0,1-2.883-.519V20.371a5.521,5.521,0,0,0,2.8.809,3.02,3.02,0,0,0,2.18-.743,2.665,2.665,0,0,0,.773-2.017v-.712h-.035a3.1,3.1,0,0,1-2.8,1.512,3.372,3.372,0,0,1-2.733-1.213A4.919,4.919,0,0,1,125,14.755a5.478,5.478,0,0,1,1.125-3.63,3.673,3.673,0,0,1,2.962-1.345,2.733,2.733,0,0,1,2.461,1.266h.035V10h2.777Zm-2.742-3.3v-.712a2.188,2.188,0,0,0-.505-1.455,1.635,1.635,0,0,0-1.314-.6,1.7,1.7,0,0,0-1.45.721,3.389,3.389,0,0,0-.527,2.03,2.86,2.86,0,0,0,.5,1.78,1.633,1.633,0,0,0,1.371.655,1.7,1.7,0,0,0,1.393-.664A2.721,2.721,0,0,0,131.618,14.676ZM144.169,19h-2.628V17.708h-.035a2.933,2.933,0,0,1-2.681,1.512,2.8,2.8,0,0,1-2.061-.743,2.661,2.661,0,0,1-.751-1.982q0-2.619,3.1-3.023l2.443-.325q0-1.477-1.6-1.477a5.46,5.46,0,0,0-3.059.958V10.536a6.881,6.881,0,0,1,1.586-.527,8.339,8.339,0,0,1,1.833-.229q3.85,0,3.85,3.841Zm-2.61-3.656v-.606l-1.635.211q-1.354.176-1.354,1.222a1.01,1.01,0,0,0,.33.778,1.266,1.266,0,0,0,.892.3,1.644,1.644,0,0,0,1.274-.541A1.952,1.952,0,0,0,141.559,15.344Zm11.628,3.331a5.492,5.492,0,0,1-2.716.545,4.593,4.593,0,0,1-3.357-1.257,4.341,4.341,0,0,1-1.283-3.243,4.782,4.782,0,0,1,1.375-3.617,5.083,5.083,0,0,1,3.678-1.323,4.72,4.72,0,0,1,2.3.422v2.355a3.166,3.166,0,0,0-1.942-.65,2.559,2.559,0,0,0-1.894.7,2.607,2.607,0,0,0-.7,1.929,2.565,2.565,0,0,0,.668,1.876,2.455,2.455,0,0,0,1.837.681,3.666,3.666,0,0,0,2.03-.65Zm3.226-10.1a1.622,1.622,0,0,1-1.151-.417,1.345,1.345,0,0,1-.448-1.024,1.3,1.3,0,0,1,.448-1.02,1.88,1.88,0,0,1,2.307,0,1.3,1.3,0,0,1,.444,1.02,1.34,1.34,0,0,1-.444,1.037A1.65,1.65,0,0,1,156.412,8.576ZM157.783,19h-2.777V10h2.777Zm6.627.22a4.838,4.838,0,0,1-3.538-1.261,4.573,4.573,0,0,1-1.288-3.423,4.573,4.573,0,0,1,1.336-3.494,5.048,5.048,0,0,1,3.612-1.261,4.78,4.78,0,0,1,3.516,1.261,4.483,4.483,0,0,1,1.274,3.335,4.759,4.759,0,0,1-1.314,3.542A4.892,4.892,0,0,1,164.41,19.22Zm.07-7.312a1.852,1.852,0,0,0-1.529.677,2.984,2.984,0,0,0-.545,1.916q0,2.593,2.092,2.593,2,0,2-2.663Q166.493,11.907,164.48,11.907Zm2.979-6.17-2.751,2.839h-2l2.285-2.839ZM179.809,19H177.04V14q0-2.092-1.494-2.092a1.483,1.483,0,0,0-1.187.554,2.109,2.109,0,0,0-.466,1.406V19h-2.777V10h2.777v1.424h.035A3.183,3.183,0,0,1,176.82,9.78q2.988,0,2.988,3.709Zm15.249-3.709h-5.871q.141,1.96,2.47,1.96a4.822,4.822,0,0,0,2.61-.7v2a6.858,6.858,0,0,1-3.243.668,4.565,4.565,0,0,1-3.384-1.208,4.566,4.566,0,0,1-1.2-3.371,4.816,4.816,0,0,1,1.3-3.551,4.334,4.334,0,0,1,3.2-1.31,3.933,3.933,0,0,1,3.045,1.169,4.5,4.5,0,0,1,1.077,3.173Zm-2.575-1.705q0-1.934-1.564-1.934a1.494,1.494,0,0,0-1.156.554,2.513,2.513,0,0,0-.593,1.38ZM205.4,10l-2.971,4.359L205.385,19h-3.2l-1.3-2.426q-.158-.29-.378-.817h-.035a5.707,5.707,0,0,1-.36.791L198.8,19h-3.19l3.041-4.482L195.8,10h3.217l1.283,2.522a5.532,5.532,0,0,1,.36.844h.035a5.946,5.946,0,0,1,.378-.861l1.31-2.5Zm4.061,7.954h-.035V23.14H206.65V10h2.777v1.354h.035a3.534,3.534,0,0,1,5.594-.374,5.108,5.108,0,0,1,.954,3.265,5.537,5.537,0,0,1-1.112,3.612,3.625,3.625,0,0,1-2.958,1.362A2.8,2.8,0,0,1,209.463,17.954Zm-.079-3.691v.721a2.291,2.291,0,0,0,.492,1.521,1.6,1.6,0,0,0,1.292.589,1.7,1.7,0,0,0,1.472-.734,3.543,3.543,0,0,0,.523-2.079q0-2.373-1.846-2.373a1.733,1.733,0,0,0-1.393.646A2.576,2.576,0,0,0,209.384,14.263ZM220.59,19h-2.777V5.676h2.777Zm6.627.22a4.838,4.838,0,0,1-3.538-1.261,4.573,4.573,0,0,1-1.288-3.423,4.573,4.573,0,0,1,1.336-3.494A5.048,5.048,0,0,1,227.34,9.78a4.78,4.78,0,0,1,3.516,1.261,4.483,4.483,0,0,1,1.274,3.335,4.759,4.759,0,0,1-1.314,3.542A4.892,4.892,0,0,1,227.217,19.22Zm.07-7.312a1.852,1.852,0,0,0-1.529.677,2.984,2.984,0,0,0-.545,1.916q0,2.593,2.092,2.593,2,0,2-2.663Q229.3,11.907,227.287,11.907Zm12.516.6a2.409,2.409,0,0,0-1.169-.272,1.684,1.684,0,0,0-1.415.664,2.9,2.9,0,0,0-.51,1.806V19h-2.777V10h2.777v1.67h.035a2.4,2.4,0,0,1,2.373-1.828,1.788,1.788,0,0,1,.686.105Zm8.78,6.5h-2.628V17.708h-.035a2.933,2.933,0,0,1-2.681,1.512,2.8,2.8,0,0,1-2.061-.743,2.661,2.661,0,0,1-.751-1.982q0-2.619,3.1-3.023l2.443-.325q0-1.477-1.6-1.477a5.46,5.46,0,0,0-3.059.958V10.536a6.881,6.881,0,0,1,1.586-.527,8.339,8.339,0,0,1,1.833-.229q3.85,0,3.85,3.841Zm-2.61-3.656v-.606l-1.635.211q-1.354.176-1.354,1.222a1.01,1.01,0,0,0,.33.778,1.266,1.266,0,0,0,.892.3,1.644,1.644,0,0,0,1.274-.541A1.952,1.952,0,0,0,245.973,15.344Zm10.248,3.551a4.105,4.105,0,0,1-1.854.325q-2.936,0-2.936-3.05V12.048h-1.459V10h1.459V8.058l2.769-.791V10h2.021v2.048H254.2v3.639q0,1.406,1.116,1.406a1.882,1.882,0,0,0,.905-.255ZM262,19.22a4.838,4.838,0,0,1-3.538-1.261,4.573,4.573,0,0,1-1.288-3.423,4.573,4.573,0,0,1,1.336-3.494,5.048,5.048,0,0,1,3.612-1.261,4.78,4.78,0,0,1,3.516,1.261,4.483,4.483,0,0,1,1.274,3.335,4.759,4.759,0,0,1-1.314,3.542A4.892,4.892,0,0,1,262,19.22Zm.07-7.312a1.852,1.852,0,0,0-1.529.677A2.984,2.984,0,0,0,260,14.5q0,2.593,2.092,2.593,2,0,2-2.663Q264.087,11.907,262.074,11.907Zm12.516.6a2.409,2.409,0,0,0-1.169-.272,1.684,1.684,0,0,0-1.415.664,2.9,2.9,0,0,0-.51,1.806V19h-2.777V10H271.5v1.67h.035A2.4,2.4,0,0,1,273.9,9.842a1.788,1.788,0,0,1,.686.105Zm2.769-3.929a1.622,1.622,0,0,1-1.151-.417,1.345,1.345,0,0,1-.448-1.024,1.3,1.3,0,0,1,.448-1.02,1.88,1.88,0,0,1,2.307,0,1.3,1.3,0,0,1,.444,1.02,1.34,1.34,0,0,1-.444,1.037A1.65,1.65,0,0,1,277.358,8.576ZM278.729,19h-2.777V10h2.777Zm9.826,0h-2.628V17.708h-.035a2.933,2.933,0,0,1-2.681,1.512,2.8,2.8,0,0,1-2.061-.743A2.661,2.661,0,0,1,280.4,16.5q0-2.619,3.1-3.023l2.443-.325q0-1.477-1.6-1.477a5.46,5.46,0,0,0-3.059.958V10.536a6.881,6.881,0,0,1,1.586-.527,8.339,8.339,0,0,1,1.833-.229q3.85,0,3.85,3.841Zm-2.61-3.656v-.606l-1.635.211q-1.354.176-1.354,1.222a1.01,1.01,0,0,0,.33.778,1.266,1.266,0,0,0,.892.3,1.644,1.644,0,0,0,1.274-.541A1.952,1.952,0,0,0,285.945,15.344Z" transform="translate(264 6418)" fill="#00223d"/>
    <g id="Grupo_12815" data-name="Grupo 12815" transform="translate(576.5 1013)">
      <line id="Línea_142" data-name="Línea 142" y2="158" transform="translate(255.5 5455.5)" fill="none" stroke="#ff8f00" stroke-width="3"/>
      <line id="Línea_143" data-name="Línea 143" x2="25" transform="translate(255.5 5530.5)" fill="none" stroke="#ff8f00" stroke-width="3"/>
      <line id="Línea_144" data-name="Línea 144" x2="25" transform="translate(255.5 5613.5)" fill="none" stroke="#ff8f00" stroke-width="3"/>
    </g>
    <g id="Grupo_12821" data-name="Grupo 12821" transform="translate(69 15)">
      <line id="Línea_142-2" data-name="Línea 142" x1="589.5" transform="translate(363.5 6353.5)" fill="none" stroke="#ff8f00" stroke-width="3"/>
      <line id="Línea_143-2" data-name="Línea 143" x2="25" transform="translate(952.5 6353) rotate(90)" fill="none" stroke="#ff8f00" stroke-width="3"/>
      <line id="Línea_151" data-name="Línea 151" x2="25" transform="translate(364 6353) rotate(90)" fill="none" stroke="#ff8f00" stroke-width="3"/>
    </g>
    <path id="Trazado_49015" data-name="Trazado 49015" d="M24.325,19H22.849V6.4h1.477Zm10.591,0H33.475V13.867Q33.475,11,31.383,11a2.269,2.269,0,0,0-1.789.813,3.013,3.013,0,0,0-.708,2.052V19H27.445V10h1.441v1.494h.035a3.248,3.248,0,0,1,2.953-1.705,2.753,2.753,0,0,1,2.259.954,4.248,4.248,0,0,1,.782,2.755Zm9.791-9-3.586,9H39.706L36.3,10h1.582l2.285,6.539a5.869,5.869,0,0,1,.316,1.257h.035a5.943,5.943,0,0,1,.281-1.222L43.187,10Zm8.78,4.86H47.133a3.366,3.366,0,0,0,.809,2.32A2.788,2.788,0,0,0,50.068,18a4.422,4.422,0,0,0,2.795-1V18.35a5.224,5.224,0,0,1-3.138.861,3.8,3.8,0,0,1-3-1.226,5.018,5.018,0,0,1-1.09-3.45,4.921,4.921,0,0,1,1.191-3.423,3.819,3.819,0,0,1,2.958-1.323,3.384,3.384,0,0,1,2.733,1.143,4.764,4.764,0,0,1,.967,3.173Zm-1.477-1.222a2.933,2.933,0,0,0-.6-1.942A2.051,2.051,0,0,0,49.761,11a2.328,2.328,0,0,0-1.731.729,3.31,3.31,0,0,0-.879,1.907Zm3.111,5.036V17.128a4.266,4.266,0,0,0,2.593.87q1.9,0,1.9-1.266a1.1,1.1,0,0,0-.163-.611,1.62,1.62,0,0,0-.439-.444,3.383,3.383,0,0,0-.65-.347q-.374-.154-.8-.321a10.357,10.357,0,0,1-1.05-.479,3.173,3.173,0,0,1-.756-.545,2.028,2.028,0,0,1-.457-.69,2.441,2.441,0,0,1-.154-.905,2.15,2.15,0,0,1,.29-1.121,2.572,2.572,0,0,1,.773-.817,3.607,3.607,0,0,1,1.1-.5,4.893,4.893,0,0,1,1.279-.167,5.164,5.164,0,0,1,2.092.4v1.459A4.077,4.077,0,0,0,58.392,11a2.671,2.671,0,0,0-.729.092,1.786,1.786,0,0,0-.558.259,1.2,1.2,0,0,0-.36.4,1.053,1.053,0,0,0-.127.514,1.233,1.233,0,0,0,.127.589,1.3,1.3,0,0,0,.374.422,2.855,2.855,0,0,0,.6.334q.352.149.8.325a11.131,11.131,0,0,1,1.072.47,3.678,3.678,0,0,1,.809.545,2.129,2.129,0,0,1,.514.7,2.254,2.254,0,0,1,.18.94,2.217,2.217,0,0,1-.294,1.16,2.523,2.523,0,0,1-.787.817,3.6,3.6,0,0,1-1.134.483,5.6,5.6,0,0,1-1.345.158A5.106,5.106,0,0,1,55.122,18.675Zm12.357.237a2.779,2.779,0,0,1-1.345.281q-2.364,0-2.364-2.637V11.23H62.224V10h1.547V7.8l1.441-.466V10h2.268v1.23H65.212V16.3a2.1,2.1,0,0,0,.308,1.292,1.228,1.228,0,0,0,1.02.387,1.515,1.515,0,0,0,.94-.3Zm2.663-11.2a.913.913,0,0,1-.659-.264.89.89,0,0,1-.272-.668.923.923,0,0,1,.932-.94.931.931,0,0,1,.672.268.939.939,0,0,1,0,1.332A.923.923,0,0,1,70.143,7.715ZM70.846,19H69.4V10h1.441Zm10.6-.721q0,4.957-4.746,4.957a6.372,6.372,0,0,1-2.918-.633V21.162a5.993,5.993,0,0,0,2.9.844Q80,22.006,80,18.473v-.984h-.035a3.641,3.641,0,0,1-5.8.523,4.8,4.8,0,0,1-1.024-3.221,5.6,5.6,0,0,1,1.1-3.647,3.685,3.685,0,0,1,3.019-1.354,2.934,2.934,0,0,1,2.7,1.459H80V10h1.441ZM80,14.931V13.6a2.575,2.575,0,0,0-.725-1.837A2.387,2.387,0,0,0,77.473,11a2.5,2.5,0,0,0-2.092.971,4.335,4.335,0,0,0-.756,2.72,3.721,3.721,0,0,0,.725,2.4,2.343,2.343,0,0,0,1.92.9,2.509,2.509,0,0,0,1.973-.861A3.21,3.21,0,0,0,80,14.931ZM90.806,19H89.364V17.594h-.035a3.018,3.018,0,0,1-2.769,1.617,2.959,2.959,0,0,1-2.1-.712,2.466,2.466,0,0,1-.76-1.89q0-2.522,2.971-2.936l2.7-.378Q89.364,11,87.51,11a4.431,4.431,0,0,0-2.936,1.107V10.633a5.577,5.577,0,0,1,3.059-.844q3.173,0,3.173,3.357Zm-1.441-4.553-2.171.3a3.525,3.525,0,0,0-1.512.5,1.432,1.432,0,0,0-.51,1.261,1.374,1.374,0,0,0,.47,1.077A1.817,1.817,0,0,0,86.895,18a2.314,2.314,0,0,0,1.771-.751,2.685,2.685,0,0,0,.7-1.9Zm10.292,4.14a4.684,4.684,0,0,1-2.461.624,4.074,4.074,0,0,1-3.107-1.252,4.539,4.539,0,0,1-1.182-3.248,4.99,4.99,0,0,1,1.274-3.573,4.458,4.458,0,0,1,3.4-1.349,4.735,4.735,0,0,1,2.092.439v1.477a3.665,3.665,0,0,0-2.145-.7,2.9,2.9,0,0,0-2.263.989,3.752,3.752,0,0,0-.883,2.6,3.573,3.573,0,0,0,.831,2.5A2.863,2.863,0,0,0,97.441,18a3.613,3.613,0,0,0,2.215-.782Zm2.918-10.872a.913.913,0,0,1-.659-.264.89.89,0,0,1-.272-.668.923.923,0,0,1,.932-.94.931.931,0,0,1,.672.268.939.939,0,0,1,0,1.332A.923.923,0,0,1,102.574,7.715Zm.7,11.285h-1.441V10h1.441Zm6.68.211a4.175,4.175,0,0,1-3.186-1.261,4.672,4.672,0,0,1-1.191-3.344,4.867,4.867,0,0,1,1.239-3.542,4.455,4.455,0,0,1,3.349-1.274,4.037,4.037,0,0,1,3.142,1.239,4.914,4.914,0,0,1,1.129,3.437,4.835,4.835,0,0,1-1.217,3.45A4.265,4.265,0,0,1,109.957,19.211ZM110.063,11a2.742,2.742,0,0,0-2.2.945,3.88,3.88,0,0,0-.809,2.606,3.67,3.67,0,0,0,.817,2.522,2.778,2.778,0,0,0,2.188.923,2.635,2.635,0,0,0,2.149-.905,3.928,3.928,0,0,0,.751-2.575,4,4,0,0,0-.751-2.6A2.623,2.623,0,0,0,110.063,11Zm2.109-5.59-2.3,2.883h-1.116l1.96-2.883ZM124.213,19h-1.441V13.867q0-2.865-2.092-2.865a2.269,2.269,0,0,0-1.789.813,3.013,3.013,0,0,0-.708,2.052V19h-1.441V10h1.441v1.494h.035a3.248,3.248,0,0,1,2.953-1.705,2.753,2.753,0,0,1,2.259.954,4.248,4.248,0,0,1,.782,2.755Zm15.328,0H138.1V17.471h-.035a3.327,3.327,0,0,1-3.094,1.74A3.362,3.362,0,0,1,132.259,18a4.958,4.958,0,0,1-1.015-3.292,5.394,5.394,0,0,1,1.125-3.577,3.71,3.71,0,0,1,3-1.345,2.885,2.885,0,0,1,2.7,1.459h.035V5.676h1.441ZM138.1,14.931V13.6a2.575,2.575,0,0,0-.721-1.846A2.417,2.417,0,0,0,135.551,11a2.489,2.489,0,0,0-2.074.967,4.237,4.237,0,0,0-.756,2.672,3.81,3.81,0,0,0,.725,2.457,2.37,2.37,0,0,0,1.947.9,2.462,2.462,0,0,0,1.956-.87A3.242,3.242,0,0,0,138.1,14.931Zm11.593-.07h-6.354a3.366,3.366,0,0,0,.809,2.32,2.788,2.788,0,0,0,2.127.817,4.422,4.422,0,0,0,2.795-1V18.35a5.224,5.224,0,0,1-3.138.861,3.8,3.8,0,0,1-3-1.226,5.018,5.018,0,0,1-1.09-3.45,4.921,4.921,0,0,1,1.191-3.423,3.819,3.819,0,0,1,2.958-1.323,3.384,3.384,0,0,1,2.733,1.143,4.764,4.764,0,0,1,.967,3.173Zm-1.477-1.222a2.933,2.933,0,0,0-.6-1.942A2.051,2.051,0,0,0,145.966,11a2.328,2.328,0,0,0-1.731.729,3.31,3.31,0,0,0-.879,1.907Zm3.111,5.036V17.128a4.266,4.266,0,0,0,2.593.87q1.9,0,1.9-1.266a1.1,1.1,0,0,0-.163-.611,1.62,1.62,0,0,0-.439-.444,3.383,3.383,0,0,0-.65-.347q-.374-.154-.8-.321a10.357,10.357,0,0,1-1.05-.479,3.173,3.173,0,0,1-.756-.545,2.028,2.028,0,0,1-.457-.69,2.441,2.441,0,0,1-.154-.905,2.15,2.15,0,0,1,.29-1.121,2.572,2.572,0,0,1,.773-.817,3.607,3.607,0,0,1,1.1-.5,4.893,4.893,0,0,1,1.279-.167,5.164,5.164,0,0,1,2.092.4v1.459A4.077,4.077,0,0,0,154.6,11a2.671,2.671,0,0,0-.729.092,1.786,1.786,0,0,0-.558.259,1.2,1.2,0,0,0-.36.4,1.053,1.053,0,0,0-.127.514,1.233,1.233,0,0,0,.127.589,1.3,1.3,0,0,0,.374.422,2.855,2.855,0,0,0,.6.334q.352.149.8.325a11.131,11.131,0,0,1,1.072.47,3.678,3.678,0,0,1,.809.545,2.129,2.129,0,0,1,.514.7,2.254,2.254,0,0,1,.18.94,2.217,2.217,0,0,1-.294,1.16,2.523,2.523,0,0,1-.787.817,3.6,3.6,0,0,1-1.134.483,5.6,5.6,0,0,1-1.345.158A5.106,5.106,0,0,1,151.327,18.675Zm14.317-.088a4.684,4.684,0,0,1-2.461.624,4.074,4.074,0,0,1-3.107-1.252,4.539,4.539,0,0,1-1.182-3.248,4.99,4.99,0,0,1,1.274-3.573,4.458,4.458,0,0,1,3.4-1.349,4.735,4.735,0,0,1,2.092.439v1.477a3.665,3.665,0,0,0-2.145-.7,2.9,2.9,0,0,0-2.263.989,3.752,3.752,0,0,0-.883,2.6,3.573,3.573,0,0,0,.831,2.5A2.863,2.863,0,0,0,163.43,18a3.613,3.613,0,0,0,2.215-.782Zm6.873-7.128a1.763,1.763,0,0,0-1.09-.29,1.839,1.839,0,0,0-1.542.87,4.023,4.023,0,0,0-.62,2.373V19h-1.441V10h1.441v1.854h.035a3.143,3.143,0,0,1,.94-1.481,2.144,2.144,0,0,1,1.415-.532,2.353,2.353,0,0,1,.861.123Zm2.3-3.744a.913.913,0,0,1-.659-.264.89.89,0,0,1-.272-.668.923.923,0,0,1,.932-.94.931.931,0,0,1,.672.268.939.939,0,0,1,0,1.332A.923.923,0,0,1,174.82,7.715Zm.7,11.285h-1.441V10h1.441Zm4.395-1.3h-.035v5.44h-1.441V10h1.441v1.582h.035a3.408,3.408,0,0,1,3.111-1.793A3.3,3.3,0,0,1,185.745,11a5.005,5.005,0,0,1,.976,3.239,5.578,5.578,0,0,1-1.1,3.617,3.658,3.658,0,0,1-3.006,1.358A3.011,3.011,0,0,1,179.918,17.7Zm-.035-3.63v1.257a2.676,2.676,0,0,0,.725,1.894A2.587,2.587,0,0,0,184.5,17a4.6,4.6,0,0,0,.743-2.786,3.629,3.629,0,0,0-.694-2.355A2.3,2.3,0,0,0,182.669,11a2.554,2.554,0,0,0-2.021.875A3.211,3.211,0,0,0,179.883,14.069ZM193.2,18.912a2.779,2.779,0,0,1-1.345.281q-2.364,0-2.364-2.637V11.23h-1.547V10h1.547V7.8l1.441-.466V10H193.2v1.23h-2.268V16.3a2.1,2.1,0,0,0,.308,1.292,1.228,1.228,0,0,0,1.02.387,1.515,1.515,0,0,0,.94-.3Zm2.663-11.2a.913.913,0,0,1-.659-.264.89.89,0,0,1-.272-.668.923.923,0,0,1,.932-.94.931.931,0,0,1,.672.268.939.939,0,0,1,0,1.332A.923.923,0,0,1,195.861,7.715Zm.7,11.285h-1.441V10h1.441Zm9.993-9-3.586,9h-1.415l-3.41-9h1.582l2.285,6.539a5.869,5.869,0,0,1,.316,1.257h.035a5.943,5.943,0,0,1,.281-1.222L205.037,10Zm7.989,9h-1.441V17.594h-.035a3.018,3.018,0,0,1-2.769,1.617,2.959,2.959,0,0,1-2.1-.712,2.466,2.466,0,0,1-.76-1.89q0-2.522,2.971-2.936l2.7-.378q0-2.294-1.854-2.294a4.431,4.431,0,0,0-2.936,1.107V10.633a5.577,5.577,0,0,1,3.059-.844q3.173,0,3.173,3.357Zm-1.441-4.553-2.171.3a3.525,3.525,0,0,0-1.512.5,1.432,1.432,0,0,0-.51,1.261,1.374,1.374,0,0,0,.47,1.077,1.817,1.817,0,0,0,1.252.417,2.314,2.314,0,0,0,1.771-.751,2.685,2.685,0,0,0,.7-1.9Z" transform="translate(907 6537)" fill="#00223d"/>
    <path id="Trazado_49016" data-name="Trazado 49016" d="M42.62,19H41.143V6.4H42.62ZM53.21,19H51.769V13.867Q51.769,11,49.677,11a2.269,2.269,0,0,0-1.789.813,3.013,3.013,0,0,0-.708,2.052V19H45.74V10h1.441v1.494h.035a3.248,3.248,0,0,1,2.953-1.705,2.753,2.753,0,0,1,2.259.954A4.248,4.248,0,0,1,53.21,13.5ZM63,10l-3.586,9H58l-3.41-9h1.582l2.285,6.539a5.869,5.869,0,0,1,.316,1.257h.035a5.943,5.943,0,0,1,.281-1.222L61.481,10Zm8.78,4.86H65.427a3.366,3.366,0,0,0,.809,2.32A2.788,2.788,0,0,0,68.363,18a4.422,4.422,0,0,0,2.795-1V18.35a5.224,5.224,0,0,1-3.138.861,3.8,3.8,0,0,1-3-1.226,5.018,5.018,0,0,1-1.09-3.45,4.921,4.921,0,0,1,1.191-3.423,3.819,3.819,0,0,1,2.958-1.323,3.384,3.384,0,0,1,2.733,1.143,4.764,4.764,0,0,1,.967,3.173Zm-1.477-1.222a2.933,2.933,0,0,0-.6-1.942A2.051,2.051,0,0,0,68.055,11a2.328,2.328,0,0,0-1.731.729,3.31,3.31,0,0,0-.879,1.907Zm3.111,5.036V17.128a4.266,4.266,0,0,0,2.593.87q1.9,0,1.9-1.266a1.1,1.1,0,0,0-.163-.611,1.62,1.62,0,0,0-.439-.444,3.383,3.383,0,0,0-.65-.347q-.374-.154-.8-.321a10.357,10.357,0,0,1-1.05-.479,3.173,3.173,0,0,1-.756-.545,2.028,2.028,0,0,1-.457-.69,2.441,2.441,0,0,1-.154-.905,2.15,2.15,0,0,1,.29-1.121,2.572,2.572,0,0,1,.773-.817,3.607,3.607,0,0,1,1.1-.5,4.893,4.893,0,0,1,1.279-.167,5.164,5.164,0,0,1,2.092.4v1.459A4.077,4.077,0,0,0,76.686,11a2.671,2.671,0,0,0-.729.092,1.786,1.786,0,0,0-.558.259,1.2,1.2,0,0,0-.36.4,1.053,1.053,0,0,0-.127.514,1.233,1.233,0,0,0,.127.589,1.3,1.3,0,0,0,.374.422,2.855,2.855,0,0,0,.6.334q.352.149.8.325a11.131,11.131,0,0,1,1.072.47,3.678,3.678,0,0,1,.809.545,2.129,2.129,0,0,1,.514.7,2.254,2.254,0,0,1,.18.94,2.217,2.217,0,0,1-.294,1.16,2.523,2.523,0,0,1-.787.817,3.6,3.6,0,0,1-1.134.483,5.6,5.6,0,0,1-1.345.158A5.106,5.106,0,0,1,73.417,18.675Zm12.357.237a2.779,2.779,0,0,1-1.345.281q-2.364,0-2.364-2.637V11.23H80.518V10h1.547V7.8l1.441-.466V10h2.268v1.23H83.506V16.3a2.1,2.1,0,0,0,.308,1.292,1.228,1.228,0,0,0,1.02.387,1.515,1.515,0,0,0,.94-.3Zm2.663-11.2a.913.913,0,0,1-.659-.264.89.89,0,0,1-.272-.668.923.923,0,0,1,.932-.94.931.931,0,0,1,.672.268.939.939,0,0,1,0,1.332A.923.923,0,0,1,88.437,7.715ZM89.14,19H87.7V10H89.14Zm10.6-.721q0,4.957-4.746,4.957a6.372,6.372,0,0,1-2.918-.633V21.162a5.993,5.993,0,0,0,2.9.844q3.322,0,3.322-3.533v-.984h-.035a3.641,3.641,0,0,1-5.8.523,4.8,4.8,0,0,1-1.024-3.221,5.6,5.6,0,0,1,1.1-3.647,3.685,3.685,0,0,1,3.019-1.354,2.934,2.934,0,0,1,2.7,1.459H98.3V10H99.74ZM98.3,14.931V13.6a2.575,2.575,0,0,0-.725-1.837A2.387,2.387,0,0,0,95.767,11a2.5,2.5,0,0,0-2.092.971,4.335,4.335,0,0,0-.756,2.72,3.721,3.721,0,0,0,.725,2.4,2.343,2.343,0,0,0,1.92.9,2.509,2.509,0,0,0,1.973-.861A3.21,3.21,0,0,0,98.3,14.931ZM109.1,19h-1.441V17.594h-.035a3.018,3.018,0,0,1-2.769,1.617,2.959,2.959,0,0,1-2.1-.712,2.466,2.466,0,0,1-.76-1.89q0-2.522,2.971-2.936l2.7-.378Q107.659,11,105.8,11a4.431,4.431,0,0,0-2.936,1.107V10.633a5.577,5.577,0,0,1,3.059-.844q3.173,0,3.173,3.357Zm-1.441-4.553-2.171.3a3.525,3.525,0,0,0-1.512.5,1.432,1.432,0,0,0-.51,1.261,1.374,1.374,0,0,0,.47,1.077,1.817,1.817,0,0,0,1.252.417,2.314,2.314,0,0,0,1.771-.751,2.685,2.685,0,0,0,.7-1.9Zm10.292,4.14a4.684,4.684,0,0,1-2.461.624,4.074,4.074,0,0,1-3.107-1.252,4.539,4.539,0,0,1-1.182-3.248,4.99,4.99,0,0,1,1.274-3.573,4.458,4.458,0,0,1,3.4-1.349,4.735,4.735,0,0,1,2.092.439v1.477a3.665,3.665,0,0,0-2.145-.7,2.9,2.9,0,0,0-2.263.989,3.752,3.752,0,0,0-.883,2.6,3.573,3.573,0,0,0,.831,2.5,2.863,2.863,0,0,0,2.228.914,3.613,3.613,0,0,0,2.215-.782Zm2.918-10.872a.913.913,0,0,1-.659-.264.89.89,0,0,1-.272-.668.923.923,0,0,1,.932-.94.931.931,0,0,1,.672.268.939.939,0,0,1,0,1.332A.923.923,0,0,1,120.869,7.715Zm.7,11.285H120.13V10h1.441Zm6.68.211a4.175,4.175,0,0,1-3.186-1.261,4.672,4.672,0,0,1-1.191-3.344,4.867,4.867,0,0,1,1.239-3.542,4.455,4.455,0,0,1,3.349-1.274,4.037,4.037,0,0,1,3.142,1.239,4.914,4.914,0,0,1,1.129,3.437,4.835,4.835,0,0,1-1.217,3.45A4.265,4.265,0,0,1,128.251,19.211ZM128.357,11a2.742,2.742,0,0,0-2.2.945,3.88,3.88,0,0,0-.809,2.606,3.67,3.67,0,0,0,.817,2.522,2.778,2.778,0,0,0,2.188.923,2.635,2.635,0,0,0,2.149-.905,3.928,3.928,0,0,0,.751-2.575,4,4,0,0,0-.751-2.6A2.623,2.623,0,0,0,128.357,11Zm2.109-5.59-2.3,2.883h-1.116l1.96-2.883ZM142.507,19h-1.441V13.867q0-2.865-2.092-2.865a2.269,2.269,0,0,0-1.789.813,3.013,3.013,0,0,0-.708,2.052V19h-1.441V10h1.441v1.494h.035a3.248,3.248,0,0,1,2.953-1.705,2.753,2.753,0,0,1,2.259.954,4.248,4.248,0,0,1,.782,2.755Zm13.781-.413a4.684,4.684,0,0,1-2.461.624,4.074,4.074,0,0,1-3.107-1.252,4.539,4.539,0,0,1-1.182-3.248,4.99,4.99,0,0,1,1.274-3.573,4.458,4.458,0,0,1,3.4-1.349,4.735,4.735,0,0,1,2.092.439v1.477a3.665,3.665,0,0,0-2.145-.7,2.9,2.9,0,0,0-2.263.989,3.752,3.752,0,0,0-.883,2.6,3.573,3.573,0,0,0,.831,2.5,2.863,2.863,0,0,0,2.228.914,3.613,3.613,0,0,0,2.215-.782Zm8.622.413h-1.441V17.594h-.035a3.018,3.018,0,0,1-2.769,1.617,2.959,2.959,0,0,1-2.1-.712,2.466,2.466,0,0,1-.76-1.89q0-2.522,2.971-2.936l2.7-.378q0-2.294-1.854-2.294a4.431,4.431,0,0,0-2.936,1.107V10.633a5.577,5.577,0,0,1,3.059-.844q3.173,0,3.173,3.357Zm-1.441-4.553-2.171.3a3.525,3.525,0,0,0-1.512.5,1.432,1.432,0,0,0-.51,1.261,1.374,1.374,0,0,0,.47,1.077A1.817,1.817,0,0,0,161,18a2.314,2.314,0,0,0,1.771-.751,2.685,2.685,0,0,0,.7-1.9ZM174.9,19h-1.441V17.576h-.035a2.96,2.96,0,0,1-2.777,1.635q-3.217,0-3.217-3.832V10h1.433v5.15q0,2.848,2.18,2.848a2.205,2.205,0,0,0,1.736-.778,2.976,2.976,0,0,0,.681-2.035V10H174.9Zm2.364-.325V17.128a4.266,4.266,0,0,0,2.593.87q1.9,0,1.9-1.266a1.1,1.1,0,0,0-.163-.611,1.62,1.62,0,0,0-.439-.444,3.383,3.383,0,0,0-.65-.347q-.374-.154-.8-.321a10.357,10.357,0,0,1-1.05-.479,3.173,3.173,0,0,1-.756-.545,2.028,2.028,0,0,1-.457-.69,2.441,2.441,0,0,1-.154-.905,2.15,2.15,0,0,1,.29-1.121,2.572,2.572,0,0,1,.773-.817,3.607,3.607,0,0,1,1.1-.5,4.893,4.893,0,0,1,1.279-.167,5.164,5.164,0,0,1,2.092.4v1.459a4.077,4.077,0,0,0-2.285-.65,2.671,2.671,0,0,0-.729.092,1.786,1.786,0,0,0-.558.259,1.2,1.2,0,0,0-.36.4,1.053,1.053,0,0,0-.127.514,1.233,1.233,0,0,0,.127.589,1.3,1.3,0,0,0,.374.422,2.855,2.855,0,0,0,.6.334q.352.149.8.325a11.131,11.131,0,0,1,1.072.47,3.678,3.678,0,0,1,.809.545,2.129,2.129,0,0,1,.514.7,2.254,2.254,0,0,1,.18.94,2.217,2.217,0,0,1-.294,1.16,2.523,2.523,0,0,1-.787.817,3.6,3.6,0,0,1-1.134.483,5.6,5.6,0,0,1-1.345.158A5.106,5.106,0,0,1,177.268,18.675ZM191.893,19h-1.441V17.594h-.035a3.018,3.018,0,0,1-2.769,1.617,2.959,2.959,0,0,1-2.1-.712,2.466,2.466,0,0,1-.76-1.89q0-2.522,2.971-2.936l2.7-.378Q190.452,11,188.6,11a4.431,4.431,0,0,0-2.936,1.107V10.633a5.577,5.577,0,0,1,3.059-.844q3.173,0,3.173,3.357Zm-1.441-4.553-2.171.3a3.525,3.525,0,0,0-1.512.5,1.432,1.432,0,0,0-.51,1.261,1.374,1.374,0,0,0,.47,1.077,1.817,1.817,0,0,0,1.252.417,2.314,2.314,0,0,0,1.771-.751,2.685,2.685,0,0,0,.7-1.9ZM196.05,19h-1.441V5.676h1.441Z" transform="translate(907 6615)" fill="#00223d"/>
  </g>
</svg>
