<svg xmlns="http://www.w3.org/2000/svg" width="121" height="121" viewBox="0 0 121 121">
  <g id="Grupo_24014" data-name="Grupo 24014" transform="translate(-710 -2031)">
    <circle id="Elipse_839" data-name="Elipse 839" cx="60.5" cy="60.5" r="60.5" transform="translate(710 2031)" fill="#fe7c5f"/>
    <path id="Trazado_17262" data-name="Trazado 17262" d="M53.993,0A53.993,53.993,0,1,1,0,53.993,53.993,53.993,0,0,1,53.993,0Z" transform="translate(717 2038)" fill="#fff"/>
    <path id="Trazado_48978" data-name="Trazado 48978" d="M14.185,54.61q-12.5,0-12.5-17.554,0-9.106,3.381-13.879t9.8-4.773q12.207,0,12.207,17.847,0,8.887-3.333,13.623A10.978,10.978,0,0,1,14.185,54.61Zm.342-30.322q-5,0-5,12.573,0,11.841,4.907,11.841,4.785,0,4.785-12.207T14.526,24.288ZM39.233,47.6H54.077V54H30.786V51.363a12.273,12.273,0,0,1,.9-4.822,16,16,0,0,1,2.271-3.833,19.7,19.7,0,0,1,2.991-3q1.624-1.306,3.088-2.356,1.538-1.1,2.7-2.1a15.373,15.373,0,0,0,1.953-1.99,7.565,7.565,0,0,0,1.184-2,5.954,5.954,0,0,0,.391-2.161A4.342,4.342,0,0,0,45,25.7a5.644,5.644,0,0,0-3.882-1.147,13.038,13.038,0,0,0-8.643,3.589V21.358a18.552,18.552,0,0,1,10.3-2.954,15.216,15.216,0,0,1,4.773.7,10.1,10.1,0,0,1,3.577,1.99,8.486,8.486,0,0,1,2.234,3.137,10.587,10.587,0,0,1,.769,4.114,11.6,11.6,0,0,1-.745,4.3A13.2,13.2,0,0,1,51.4,36.056a17.938,17.938,0,0,1-2.844,2.82q-1.611,1.282-3.345,2.478-1.172.83-2.258,1.648a21.409,21.409,0,0,0-1.917,1.611,8.747,8.747,0,0,0-1.318,1.55A2.676,2.676,0,0,0,39.233,47.6Z" transform="translate(740 2059)" fill="#20287a"/>
  </g>
</svg>
