<svg xmlns="http://www.w3.org/2000/svg" width="111.648" height="160.955" viewBox="0 0 111.648 160.955">
  <path id="Trazado_19377" data-name="Trazado 19377" d="M65.009,226.114c-21.079,0-37.644-5.713-46.121-11.069a2.687,2.687,0,0,1-1.155-2.991l7.17-26.381a2.7,2.7,0,0,1,3.844-1.7c2.883,1.5,18.066,8.963,33.714,8.963,15.323,0,24.848-6.684,24.848-17.44,0-13.9-14.881-18.833-27.623-18.833H45.333a2.694,2.694,0,0,1-2.7-2.7V128.742a2.7,2.7,0,0,1,2.7-2.7h13.66c2.419-.043,24.146-.875,24.146-14.665,0-8.164-7.3-13.034-19.524-13.034-12.267,0-25.053,5.659-30.107,8.65a2.742,2.742,0,0,1-2.376.184,2.714,2.714,0,0,1-1.6-1.782l-7.17-25.463a2.7,2.7,0,0,1,1.145-3c9.136-5.853,27.515-11.771,47.979-11.771,36.4,0,52.7,20.194,52.7,40.2,0,15.313-7.926,27.4-22.5,34.631,16.781,5.745,27.6,20.021,27.6,37.353a45.7,45.7,0,0,1-1.015,9.633,2.7,2.7,0,1,1-5.281-1.145,39.847,39.847,0,0,0,.9-8.488c0-19.654-15.28-31.2-30.42-33.908a2.707,2.707,0,0,1-2.225-2.656v-.464a2.686,2.686,0,0,1,1.814-2.548c16.835-5.9,25.733-17.105,25.733-32.407,0-20.82-19.006-34.8-47.3-34.8-18.023,0-34.588,4.957-43.368,9.9l5.7,20.226c6.8-3.445,18.347-7.743,29.794-7.743,18.379,0,24.923,9.524,24.923,18.433,0,14.384-15.885,19.794-29.491,20.064H48.033v19.827H59.685c16.436,0,33.023,7.494,33.023,24.232,0,13.876-11.868,22.839-30.247,22.839-13.758,0-27.072-5.281-33.206-8.11l-5.777,21.263c8.023,4.46,22.98,9.222,41.532,9.222a2.7,2.7,0,1,1,0,5.4Z" transform="translate(-17.635 -65.159)" fill="#97181a"/>
</svg>
