<svg xmlns="http://www.w3.org/2000/svg" width="123.451" height="155.858" viewBox="0 0 123.451 155.858">
  <path id="Trazado_19378" data-name="Trazado 19378" d="M153.656,175.915H120.32a2.7,2.7,0,0,1-2.7-2.7V140.042H53.66a2.7,2.7,0,0,1-2.7-2.7V114.427a2.728,2.728,0,0,1,.4-1.425l56.952-91.67a2.7,2.7,0,0,1,2.289-1.274h43.055a2.7,2.7,0,0,1,2.7,2.7V108.25h15.356a2.7,2.7,0,0,1,2.7,2.7v26.392a2.7,2.7,0,0,1-2.7,2.7H153.656a2.7,2.7,0,1,1,0-5.4h15.356V113.65H153.656a2.7,2.7,0,0,1-2.7-2.7V25.456H112.1L56.359,115.194v19.449H120.32a2.7,2.7,0,0,1,2.7,2.7v33.174h30.636a2.7,2.7,0,0,1,0,5.4ZM120.32,113.65H86.531a2.7,2.7,0,0,1-2.7-2.7v-.464a2.585,2.585,0,0,1,.4-1.4l20.1-32.807c3.175-5.918,5.853-11.49,8.7-17.4q2.43-5.07,5.108-10.475a2.69,2.69,0,0,1,2.419-1.49h.918a2.71,2.71,0,0,1,1.976.853,2.675,2.675,0,0,1,.724,2.03c-.788,11.015-1.156,19.859-1.156,27.818V110.95A2.7,2.7,0,0,1,120.32,113.65Zm-33.789-3.164h0Zm4.535-2.235h26.554V77.614c0-5.129.151-10.615.464-16.792l-.194.4c-2.883,5.983-5.6,11.63-8.844,17.678l-.076.13Z" transform="translate(-50.96 -20.057)" fill="#ee8d3f"/>
</svg>
