<svg xmlns="http://www.w3.org/2000/svg" width="74.379" height="155.858" viewBox="0 0 74.379 155.858">
  <path id="Trazado_19375" data-name="Trazado 19375" d="M89.293,175.915a2.7,2.7,0,0,1-2.7-2.7V25.456H60.719L23.41,42.81l4.6,20.96,25.636-12.2a2.659,2.659,0,0,1,1.155-.259h.464a2.7,2.7,0,0,1,2.7,2.7V173.215a2.7,2.7,0,0,1-5.4,0V58.058L27.265,70.1a2.7,2.7,0,0,1-3.8-1.857L17.676,41.849a2.708,2.708,0,0,1,1.5-3.024L58.992,20.316a2.6,2.6,0,0,1,1.134-.259H89.293a2.7,2.7,0,0,1,2.7,2.7V173.215A2.7,2.7,0,0,1,89.293,175.915Z" transform="translate(-17.613 -20.057)" fill="#ee8d3f"/>
</svg>
