<svg xmlns="http://www.w3.org/2000/svg" width="112.112" height="158.406" viewBox="0 0 112.112 158.406">
  <path id="Trazado_19376" data-name="Trazado 19376" d="M127.048,200.9H20.335a2.7,2.7,0,0,1-2.7-2.7V176.9a2.708,2.708,0,0,1,.885-2l19.449-17.591C71.1,127.67,85.948,111.7,86.38,95.35c0-12.365-7.84-19.211-22.062-19.211-9.9,0-20.172,4.017-30.539,11.943a2.719,2.719,0,0,1-2.365.454,2.68,2.68,0,0,1-1.782-1.609L19.676,61.69a2.7,2.7,0,0,1,.885-3.142C34.071,48.343,52.634,42.49,71.488,42.49c33.7,0,55.473,19.6,55.473,49.923,0,26.576-19.675,47.828-40.938,66.833l-8.79,7.322h49.815a2.7,2.7,0,1,1,0,5.4H70.333a2.7,2.7,0,0,1-2.7-2.7V168.8a2.694,2.694,0,0,1,.972-2.073l13.887-11.576c23.422-20.939,39.07-39.653,39.07-62.741,0-27.461-19.189-44.523-50.074-44.523-16.943,0-33.584,5-46.024,13.768l7.9,20.032c10.378-7.268,20.777-10.95,30.949-10.95,17.192,0,27.461,9.222,27.461,24.686-.486,18.412-15.874,35.2-50.2,65.894L23.034,178.1v17.4H127.048a2.7,2.7,0,1,1,0,5.4ZM70.333,168.8h0Z" transform="translate(-17.635 -42.49)" fill="#c74653"/>
</svg>
