<svg xmlns="http://www.w3.org/2000/svg" width="120.665" height="160.639" viewBox="0 0 120.665 160.639">
  <path id="Trazado_19380" data-name="Trazado 19380" d="M113.377,225.8c-37.914,0-62.417-26.857-62.417-68.432,0-27.558,10.01-52.655,27.483-68.885,15.464-14.038,35.582-21.749,59.8-22.937a104.087,104.087,0,0,1,14.427-.227,2.7,2.7,0,0,1,2.527,2.7V95.09a2.714,2.714,0,0,1-2.862,2.7,93.406,93.406,0,0,0-13.272.464c-26.943,2.192-38.951,14.2-44.145,26.176,7.43-4.978,16.641-7.494,27.483-7.494,28.984,0,49.221,21.284,49.221,51.769a58.787,58.787,0,0,1-2.678,17.677,2.7,2.7,0,1,1-5.151-1.62,53.333,53.333,0,0,0,2.43-16.058c0-27.31-18.012-46.37-43.821-46.37-12.689,0-22.785,3.769-30.01,11.209a2.679,2.679,0,0,1-1.933.821h-.691a2.678,2.678,0,0,1-2.635-3.283c2.894-12.937,13.423-35.117,51.488-38.217,4.33-.356,7.883-.562,11.177-.562V70.587c-3.153-.086-6.728.032-11.231.346-23,1.134-41.985,8.369-56.477,21.533-16.349,15.183-25.733,38.843-25.733,64.9,0,30.474,14.978,63.032,57.017,63.032a2.7,2.7,0,1,1,0,5.4Zm-.464-25.917c-15.529,0-26.133-12.915-27-32.915l-.011-.119c0-4.535.54-7.71,1.674-10a25.608,25.608,0,0,1,23.25-14.913c15.043,0,25.15,11.5,25.15,28.628C135.978,187.818,126.5,199.881,112.912,199.881ZM91.3,166.793c.6,13.39,6.587,27.688,21.608,27.688,10.572,0,17.667-9.622,17.667-23.919,0-10.723-5.173-23.228-19.751-23.228A20.209,20.209,0,0,0,92.46,159.169C91.671,160.746,91.315,163.208,91.3,166.793Z" transform="translate(-50.96 -65.159)" fill="#97181a"/>
</svg>
