<svg xmlns="http://www.w3.org/2000/svg" width="498.962" height="500.284" viewBox="0 0 498.962 500.284">
  <g id="Grupo_27389" data-name="Grupo 27389" transform="translate(-451 -4204.184)">
    <circle id="Elipse_909" data-name="Elipse 909" cx="77" cy="77" r="77" transform="translate(595 4218)" fill="#f0c068" opacity="0.3"/>
    <circle id="Elipse_910" data-name="Elipse 910" cx="77" cy="77" r="77" transform="translate(783 4346)" fill="#ee8d3f" opacity="0.3"/>
    <circle id="Elipse_911" data-name="Elipse 911" cx="77" cy="77" r="77" transform="translate(652 4537)" fill="#ee8d3f" opacity="0.3"/>
    <circle id="Elipse_912" data-name="Elipse 912" cx="77" cy="77" r="77" transform="translate(465 4409)" fill="#7d1538" opacity="0.3"/>
    <path id="Trazado_49741" data-name="Trazado 49741" d="M-43.33-6.787a8.583,8.583,0,0,1-.742,3.682A5.589,5.589,0,0,1-46.2-.664,5.875,5.875,0,0,1-49.365.2a5.915,5.915,0,0,1-3.154-.85,5.644,5.644,0,0,1-2.148-2.427,8.338,8.338,0,0,1-.771-3.628v-.7a8.538,8.538,0,0,1,.757-3.7,5.635,5.635,0,0,1,2.139-2.451,5.883,5.883,0,0,1,3.159-.854,5.883,5.883,0,0,1,3.159.854,5.635,5.635,0,0,1,2.139,2.451,8.514,8.514,0,0,1,.757,3.687ZM-46.3-7.432a5.984,5.984,0,0,0-.8-3.4,2.61,2.61,0,0,0-2.285-1.162,2.611,2.611,0,0,0-2.275,1.147,5.915,5.915,0,0,0-.811,3.364v.693a6.058,6.058,0,0,0,.8,3.379,2.6,2.6,0,0,0,2.3,1.2A2.579,2.579,0,0,0-47.1-3.364a6.023,6.023,0,0,0,.8-3.374Zm14.434,2.246a6.4,6.4,0,0,1-1.084,3.96A3.591,3.591,0,0,1-35.977.2a3.3,3.3,0,0,1-2.744-1.318L-38.848,0h-2.539V-15h2.822v5.381A3.214,3.214,0,0,1-36-10.762a3.62,3.62,0,0,1,3.032,1.421,6.408,6.408,0,0,1,1.1,4Zm-2.822-.205A4.2,4.2,0,0,0-35.2-7.729a1.717,1.717,0,0,0-1.514-.737,1.862,1.862,0,0,0-1.855,1.1v4.17A1.887,1.887,0,0,0-36.689-2.08a1.742,1.742,0,0,0,1.8-1.348A6.952,6.952,0,0,0-34.687-5.391ZM-24.4-2.92a.909.909,0,0,0-.513-.815,5.824,5.824,0,0,0-1.646-.532q-3.77-.791-3.77-3.2a2.9,2.9,0,0,1,1.167-2.349,4.708,4.708,0,0,1,3.052-.942,5.067,5.067,0,0,1,3.218.947,2.985,2.985,0,0,1,1.206,2.461h-2.822a1.366,1.366,0,0,0-.391-1,1.653,1.653,0,0,0-1.221-.4,1.689,1.689,0,0,0-1.1.322,1.017,1.017,0,0,0-.391.82.87.87,0,0,0,.444.757,4.571,4.571,0,0,0,1.5.5,12.244,12.244,0,0,1,1.777.474A2.92,2.92,0,0,1-21.66-3.037,2.756,2.756,0,0,1-22.9-.7,5.35,5.35,0,0,1-26.1.2a5.588,5.588,0,0,1-2.358-.474,3.957,3.957,0,0,1-1.616-1.3,3.018,3.018,0,0,1-.586-1.782h2.676a1.473,1.473,0,0,0,.557,1.152,2.208,2.208,0,0,0,1.387.4,2.044,2.044,0,0,0,1.226-.308A.957.957,0,0,0-24.4-2.92ZM-14.98.2A5.187,5.187,0,0,1-18.765-1.23a5.068,5.068,0,0,1-1.46-3.8V-5.3a6.383,6.383,0,0,1,.615-2.847,4.515,4.515,0,0,1,1.743-1.934,4.893,4.893,0,0,1,2.573-.679A4.385,4.385,0,0,1-11.88-9.395a5.555,5.555,0,0,1,1.245,3.877v1.152h-6.729a2.622,2.622,0,0,0,.825,1.66,2.5,2.5,0,0,0,1.743.625,3.046,3.046,0,0,0,2.549-1.182l1.387,1.553a4.237,4.237,0,0,1-1.719,1.4A5.639,5.639,0,0,1-14.98.2ZM-15.3-8.486a1.764,1.764,0,0,0-1.362.569,2.946,2.946,0,0,0-.669,1.628h3.926v-.226a2.1,2.1,0,0,0-.508-1.457A1.819,1.819,0,0,0-15.3-8.486ZM-3.1-7.92A7.667,7.667,0,0,0-4.111-8a2.067,2.067,0,0,0-2.1,1.084V0H-9.033V-10.566h2.666l.078,1.26a2.615,2.615,0,0,1,2.354-1.455,2.957,2.957,0,0,1,.879.127ZM2.393-3.447l1.963-7.119H7.3L3.74,0h-2.7L-2.52-10.566H.43ZM14.521,0a3.134,3.134,0,0,1-.283-.947A3.415,3.415,0,0,1,11.572.2,3.752,3.752,0,0,1,9-.7,2.89,2.89,0,0,1,7.979-2.969,2.986,2.986,0,0,1,9.224-5.547a6.144,6.144,0,0,1,3.6-.908h1.3v-.605a1.741,1.741,0,0,0-.376-1.172,1.479,1.479,0,0,0-1.187-.439,1.682,1.682,0,0,0-1.118.342,1.161,1.161,0,0,0-.405.938H8.213a2.835,2.835,0,0,1,.566-1.7,3.744,3.744,0,0,1,1.6-1.226,5.837,5.837,0,0,1,2.324-.444,4.611,4.611,0,0,1,3.1.981,3.433,3.433,0,0,1,1.147,2.759v4.58a5.052,5.052,0,0,0,.42,2.275V0ZM12.188-1.963a2.431,2.431,0,0,0,1.152-.278,1.828,1.828,0,0,0,.781-.747V-4.8H13.066q-2.119,0-2.256,1.465l-.01.166a1.13,1.13,0,0,0,.371.869A1.441,1.441,0,0,0,12.188-1.963ZM23.516-2.08a1.851,1.851,0,0,0,1.27-.43,1.506,1.506,0,0,0,.508-1.143h2.646a3.62,3.62,0,0,1-.586,1.968A3.866,3.866,0,0,1,25.776-.3,4.936,4.936,0,0,1,23.564.2a4.587,4.587,0,0,1-3.574-1.44,5.7,5.7,0,0,1-1.309-3.979V-5.41a5.635,5.635,0,0,1,1.3-3.9,4.534,4.534,0,0,1,3.564-1.455,4.444,4.444,0,0,1,3.179,1.128,3.994,3.994,0,0,1,1.216,3H25.293a1.939,1.939,0,0,0-.508-1.34A1.693,1.693,0,0,0,23.5-8.486a1.7,1.7,0,0,0-1.489.719,4.166,4.166,0,0,0-.5,2.333v.293A4.219,4.219,0,0,0,22-2.794,1.721,1.721,0,0,0,23.516-2.08ZM32.529,0H29.7V-10.566h2.832Zm-3-13.3a1.39,1.39,0,0,1,.425-1.045,1.6,1.6,0,0,1,1.157-.41,1.6,1.6,0,0,1,1.152.41A1.382,1.382,0,0,1,32.7-13.3a1.386,1.386,0,0,1-.435,1.055,1.6,1.6,0,0,1-1.147.41,1.6,1.6,0,0,1-1.147-.41A1.386,1.386,0,0,1,29.531-13.3Zm4.883,7.92a6.267,6.267,0,0,1,.605-2.8,4.432,4.432,0,0,1,1.743-1.9,5.086,5.086,0,0,1,2.642-.674A4.812,4.812,0,0,1,42.9-9.453,5.252,5.252,0,0,1,44.4-5.9l.02.723a5.523,5.523,0,0,1-1.357,3.9A4.718,4.718,0,0,1,39.424.2,4.742,4.742,0,0,1,35.776-1.27a5.62,5.62,0,0,1-1.362-3.984Zm2.822.2a3.95,3.95,0,0,0,.566,2.3,1.868,1.868,0,0,0,1.621.8,1.873,1.873,0,0,0,1.6-.787A4.322,4.322,0,0,0,41.6-5.386a3.91,3.91,0,0,0-.576-2.289A1.873,1.873,0,0,0,39.4-8.486a1.842,1.842,0,0,0-1.6.807A4.395,4.395,0,0,0,37.236-5.181ZM39.961-15h3.076l-2.705,3.027H38.037Zm8.8,4.434.088,1.221a3.689,3.689,0,0,1,3.037-1.416,3.066,3.066,0,0,1,2.5.986,4.6,4.6,0,0,1,.84,2.949V0H52.4V-6.758a1.831,1.831,0,0,0-.391-1.3,1.749,1.749,0,0,0-1.3-.405,1.942,1.942,0,0,0-1.787,1.016V0H46.1V-10.566Z" transform="translate(672 4302)" fill="#002b45"/>
    <path id="Trazado_49738" data-name="Trazado 49738" d="M-44.351-1.8a5.085,5.085,0,0,1-2.236,1.47A9.365,9.365,0,0,1-49.79.2,6.345,6.345,0,0,1-53.027-.61a5.374,5.374,0,0,1-2.148-2.339,8.232,8.232,0,0,1-.776-3.6V-7.52a8.742,8.742,0,0,1,.718-3.687,5.31,5.31,0,0,1,2.07-2.383A5.964,5.964,0,0,1-50-14.414a5.939,5.939,0,0,1,3.955,1.206A5.154,5.154,0,0,1-44.351-9.7H-47.2a2.835,2.835,0,0,0-.864-1.787,2.76,2.76,0,0,0-1.841-.566,2.6,2.6,0,0,0-2.275,1.123,5.905,5.905,0,0,0-.791,3.34v.908a5.622,5.622,0,0,0,.85,3.379,2.909,2.909,0,0,0,2.49,1.143,3.25,3.25,0,0,0,2.354-.7V-5.312h-2.666V-7.471h5.6Zm8.125-6.123A7.667,7.667,0,0,0-37.241-8a2.067,2.067,0,0,0-2.1,1.084V0h-2.822V-10.566H-39.5l.078,1.26a2.615,2.615,0,0,1,2.354-1.455,2.957,2.957,0,0,1,.879.127Zm7.686,6.846A3.539,3.539,0,0,1-31.431.2a3.338,3.338,0,0,1-2.593-.977,4.169,4.169,0,0,1-.913-2.861v-6.924h2.822v6.834q0,1.652,1.5,1.652a2.038,2.038,0,0,0,1.973-1v-7.489h2.832V0h-2.656Zm14.375-4.111a6.337,6.337,0,0,1-1.108,3.911A3.554,3.554,0,0,1-18.267.2,3.292,3.292,0,0,1-20.854-.918v4.98h-2.822V-10.566h2.617l.1,1.035a3.317,3.317,0,0,1,2.676-1.23,3.578,3.578,0,0,1,3.037,1.445,6.509,6.509,0,0,1,1.084,3.984Zm-2.822-.205a4.159,4.159,0,0,0-.522-2.275,1.7,1.7,0,0,0-1.519-.8,1.848,1.848,0,0,0-1.826,1.016v4.326A1.879,1.879,0,0,0-19.009-2.08Q-16.987-2.08-16.987-5.391Zm4.131.01a6.267,6.267,0,0,1,.605-2.8,4.432,4.432,0,0,1,1.743-1.9,5.086,5.086,0,0,1,2.642-.674A4.812,4.812,0,0,1-4.375-9.453,5.252,5.252,0,0,1-2.866-5.9l.02.723A5.523,5.523,0,0,1-4.2-1.274,4.718,4.718,0,0,1-7.847.2,4.742,4.742,0,0,1-11.494-1.27a5.62,5.62,0,0,1-1.362-3.984Zm2.822.2a3.95,3.95,0,0,0,.566,2.3,1.868,1.868,0,0,0,1.621.8,1.873,1.873,0,0,0,1.6-.787,4.322,4.322,0,0,0,.576-2.518,3.91,3.91,0,0,0-.576-2.289,1.873,1.873,0,0,0-1.621-.812,1.842,1.842,0,0,0-1.6.807A4.395,4.395,0,0,0-10.034-5.181ZM4.614-2.92A.909.909,0,0,0,4.1-3.735a5.824,5.824,0,0,0-1.646-.532q-3.77-.791-3.77-3.2A2.9,2.9,0,0,1-.146-9.819a4.708,4.708,0,0,1,3.052-.942,5.067,5.067,0,0,1,3.218.947A2.985,2.985,0,0,1,7.329-7.354H4.507a1.366,1.366,0,0,0-.391-1A1.653,1.653,0,0,0,2.9-8.75a1.689,1.689,0,0,0-1.1.322,1.017,1.017,0,0,0-.391.82.87.87,0,0,0,.444.757,4.571,4.571,0,0,0,1.5.5,12.244,12.244,0,0,1,1.777.474A2.92,2.92,0,0,1,7.358-3.037,2.756,2.756,0,0,1,6.118-.7,5.35,5.35,0,0,1,2.915.2,5.588,5.588,0,0,1,.557-.278a3.957,3.957,0,0,1-1.616-1.3,3.018,3.018,0,0,1-.586-1.782H1.03a1.473,1.473,0,0,0,.557,1.152,2.208,2.208,0,0,0,1.387.4A2.044,2.044,0,0,0,4.2-2.114.957.957,0,0,0,4.614-2.92ZM22.9-5.811H17.271V0h-2.93V-14.219H23.6v2.373H17.271v3.672H22.9Zm1.572.43a6.266,6.266,0,0,1,.605-2.8,4.432,4.432,0,0,1,1.743-1.9,5.086,5.086,0,0,1,2.642-.674,4.812,4.812,0,0,1,3.491,1.309A5.252,5.252,0,0,1,34.458-5.9l.02.723a5.523,5.523,0,0,1-1.357,3.9A4.718,4.718,0,0,1,29.478.2,4.742,4.742,0,0,1,25.83-1.27a5.62,5.62,0,0,1-1.362-3.984Zm2.822.2a3.95,3.95,0,0,0,.566,2.3,1.868,1.868,0,0,0,1.621.8,1.873,1.873,0,0,0,1.6-.787,4.322,4.322,0,0,0,.576-2.518,3.91,3.91,0,0,0-.576-2.289,1.873,1.873,0,0,0-1.621-.812,1.842,1.842,0,0,0-1.6.807A4.395,4.395,0,0,0,27.29-5.181Zm13.32,3.1a1.851,1.851,0,0,0,1.27-.43,1.506,1.506,0,0,0,.508-1.143h2.646a3.62,3.62,0,0,1-.586,1.968A3.866,3.866,0,0,1,42.871-.3,4.936,4.936,0,0,1,40.659.2a4.587,4.587,0,0,1-3.574-1.44,5.7,5.7,0,0,1-1.309-3.979V-5.41a5.635,5.635,0,0,1,1.3-3.9,4.534,4.534,0,0,1,3.564-1.455,4.444,4.444,0,0,1,3.179,1.128,3.994,3.994,0,0,1,1.216,3H42.388a1.939,1.939,0,0,0-.508-1.34,1.693,1.693,0,0,0-1.289-.515,1.7,1.7,0,0,0-1.489.719,4.166,4.166,0,0,0-.5,2.333v.293a4.219,4.219,0,0,0,.5,2.347A1.721,1.721,0,0,0,40.61-2.08Zm5.6-3.3a6.267,6.267,0,0,1,.605-2.8,4.432,4.432,0,0,1,1.743-1.9,5.086,5.086,0,0,1,2.642-.674,4.812,4.812,0,0,1,3.491,1.309A5.252,5.252,0,0,1,56.2-5.9l.02.723a5.523,5.523,0,0,1-1.357,3.9A4.718,4.718,0,0,1,51.216.2,4.742,4.742,0,0,1,47.568-1.27a5.62,5.62,0,0,1-1.362-3.984Zm2.822.2a3.95,3.95,0,0,0,.566,2.3,1.868,1.868,0,0,0,1.621.8,1.873,1.873,0,0,0,1.6-.787,4.322,4.322,0,0,0,.576-2.518,3.91,3.91,0,0,0-.576-2.289A1.873,1.873,0,0,0,51.2-8.486a1.842,1.842,0,0,0-1.6.807A4.395,4.395,0,0,0,49.028-5.181Z" transform="translate(860 4430)" fill="#002b45"/>
    <path id="Trazado_49739" data-name="Trazado 49739" d="M-36.689-6.162h-5.625v3.809h6.6V0h-9.531V-14.219h9.512v2.373h-6.582v3.389h5.625Zm5.889-7v2.6h1.807V-8.5H-30.8v5.273a1.259,1.259,0,0,0,.225.84,1.128,1.128,0,0,0,.859.254,4.5,4.5,0,0,0,.83-.068V-.059A5.81,5.81,0,0,1-30.6.2q-2.969,0-3.027-3V-8.5h-1.543v-2.07h1.543v-2.6Zm5.977,2.6.088,1.221A3.689,3.689,0,0,1-21.7-10.762a3.066,3.066,0,0,1,2.5.986,4.6,4.6,0,0,1,.84,2.949V0h-2.822V-6.758a1.831,1.831,0,0,0-.391-1.3,1.749,1.749,0,0,0-1.3-.405,1.942,1.942,0,0,0-1.787,1.016V0H-27.48V-10.566Zm8.164,5.186a6.266,6.266,0,0,1,.605-2.8,4.432,4.432,0,0,1,1.743-1.9,5.086,5.086,0,0,1,2.642-.674A4.812,4.812,0,0,1-8.179-9.453,5.252,5.252,0,0,1-6.67-5.9l.02.723a5.523,5.523,0,0,1-1.357,3.9A4.718,4.718,0,0,1-11.65.2,4.742,4.742,0,0,1-15.3-1.27,5.62,5.62,0,0,1-16.66-5.254Zm2.822.2a3.95,3.95,0,0,0,.566,2.3,1.868,1.868,0,0,0,1.621.8,1.873,1.873,0,0,0,1.6-.787,4.322,4.322,0,0,0,.576-2.518,3.91,3.91,0,0,0-.576-2.289,1.873,1.873,0,0,0-1.621-.812,1.842,1.842,0,0,0-1.6.807A4.395,4.395,0,0,0-13.838-5.181Zm8.516-.181A6.193,6.193,0,0,1-4.165-9.277a3.75,3.75,0,0,1,3.12-1.484A3.289,3.289,0,0,1,1.66-9.57l.117-1H4.336V-.352a4.516,4.516,0,0,1-.63,2.412A4.045,4.045,0,0,1,1.934,3.623,6.231,6.231,0,0,1-.742,4.16,5.794,5.794,0,0,1-3.008,3.7a4.021,4.021,0,0,1-1.67-1.2L-3.428.781A3.306,3.306,0,0,0-.869,1.963a2.42,2.42,0,0,0,1.748-.6A2.253,2.253,0,0,0,1.5-.342V-.908A3.264,3.264,0,0,1-1.064.2,3.74,3.74,0,0,1-4.146-1.294a6.191,6.191,0,0,1-1.177-3.95Zm2.822.21A3.856,3.856,0,0,0-1.924-2.9,1.833,1.833,0,0,0-.342-2.08,1.96,1.96,0,0,0,1.5-3.048V-7.5A1.955,1.955,0,0,0-.322-8.467a1.844,1.844,0,0,0-1.6.831A4.346,4.346,0,0,0-2.5-5.151ZM12.441-7.92A7.667,7.667,0,0,0,11.426-8a2.067,2.067,0,0,0-2.1,1.084V0H6.5V-10.566H9.17l.078,1.26A2.615,2.615,0,0,1,11.6-10.762a2.957,2.957,0,0,1,.879.127ZM19.629,0a3.134,3.134,0,0,1-.283-.947A3.415,3.415,0,0,1,16.68.2a3.752,3.752,0,0,1-2.573-.9,2.89,2.89,0,0,1-1.021-2.266,2.986,2.986,0,0,1,1.245-2.578,6.144,6.144,0,0,1,3.6-.908h1.3v-.605a1.741,1.741,0,0,0-.376-1.172,1.479,1.479,0,0,0-1.187-.439,1.682,1.682,0,0,0-1.118.342,1.161,1.161,0,0,0-.405.938H13.32a2.835,2.835,0,0,1,.566-1.7,3.744,3.744,0,0,1,1.6-1.226,5.837,5.837,0,0,1,2.324-.444,4.611,4.611,0,0,1,3.1.981,3.433,3.433,0,0,1,1.147,2.759v4.58a5.052,5.052,0,0,0,.42,2.275V0ZM17.295-1.963a2.431,2.431,0,0,0,1.152-.278,1.828,1.828,0,0,0,.781-.747V-4.8H18.174q-2.119,0-2.256,1.465l-.01.166a1.13,1.13,0,0,0,.371.869A1.441,1.441,0,0,0,17.295-1.963ZM25,0V-8.5H23.428v-2.07H25v-.9a3.648,3.648,0,0,1,1.021-2.759,3.952,3.952,0,0,1,2.856-.981,6.6,6.6,0,0,1,1.436.2l-.029,2.188a3.6,3.6,0,0,0-.859-.088q-1.592,0-1.592,1.494v.85h2.1V-8.5h-2.1V0Zm9.443,0H31.621V-10.566h2.822Zm-.83-14.854h3.076l-2.705,3.027H31.689ZM43,0a3.134,3.134,0,0,1-.283-.947A3.415,3.415,0,0,1,40.049.2a3.752,3.752,0,0,1-2.573-.9,2.89,2.89,0,0,1-1.021-2.266A2.986,2.986,0,0,1,37.7-5.547a6.144,6.144,0,0,1,3.6-.908h1.3v-.605a1.741,1.741,0,0,0-.376-1.172,1.479,1.479,0,0,0-1.187-.439,1.682,1.682,0,0,0-1.118.342,1.161,1.161,0,0,0-.405.938H36.689a2.835,2.835,0,0,1,.566-1.7,3.744,3.744,0,0,1,1.6-1.226,5.837,5.837,0,0,1,2.324-.444,4.611,4.611,0,0,1,3.1.981A3.433,3.433,0,0,1,45.43-7.021v4.58a5.052,5.052,0,0,0,.42,2.275V0ZM40.664-1.963a2.431,2.431,0,0,0,1.152-.278,1.828,1.828,0,0,0,.781-.747V-4.8H41.543q-2.119,0-2.256,1.465l-.01.166a1.13,1.13,0,0,0,.371.869A1.441,1.441,0,0,0,40.664-1.963Z" transform="translate(729 4621)" fill="#002b45"/>
    <path id="Trazado_49742" data-name="Trazado 49742" d="M-35.264-6.162h-5.625v3.809h6.6V0h-9.531V-14.219h9.512v2.373h-6.582v3.389h5.625Zm5.107-4.4.088,1.221a3.689,3.689,0,0,1,3.037-1.416,3.066,3.066,0,0,1,2.5.986,4.6,4.6,0,0,1,.84,2.949V0h-2.822V-6.758a1.831,1.831,0,0,0-.391-1.3,1.749,1.749,0,0,0-1.3-.405A1.942,1.942,0,0,0-29.99-7.451V0h-2.822V-10.566Zm11.982-2.6v2.6h1.807V-8.5h-1.807v5.273a1.259,1.259,0,0,0,.225.84,1.128,1.128,0,0,0,.859.254,4.5,4.5,0,0,0,.83-.068V-.059A5.81,5.81,0,0,1-17.969.2Q-20.937.2-21-2.8V-8.5h-1.543v-2.07H-21v-2.6ZM-8.857-7.92A7.667,7.667,0,0,0-9.873-8a2.067,2.067,0,0,0-2.1,1.084V0h-2.822V-10.566h2.666l.078,1.26A2.615,2.615,0,0,1-9.7-10.762a2.957,2.957,0,0,1,.879.127ZM-2.822.2A5.187,5.187,0,0,1-6.606-1.23a5.068,5.068,0,0,1-1.46-3.8V-5.3a6.383,6.383,0,0,1,.615-2.847,4.515,4.515,0,0,1,1.743-1.934,4.893,4.893,0,0,1,2.573-.679A4.385,4.385,0,0,1,.278-9.395,5.555,5.555,0,0,1,1.523-5.518v1.152H-5.205a2.622,2.622,0,0,0,.825,1.66,2.5,2.5,0,0,0,1.743.625A3.046,3.046,0,0,0-.088-3.262L1.3-1.709A4.237,4.237,0,0,1-.42-.308,5.639,5.639,0,0,1-2.822.2Zm-.322-8.682a1.764,1.764,0,0,0-1.362.569,2.946,2.946,0,0,0-.669,1.628H-1.25v-.226a2.1,2.1,0,0,0-.508-1.457A1.819,1.819,0,0,0-3.145-8.486Zm10.1,5.039,1.963-7.119h2.949L8.3,0h-2.7L2.041-10.566H4.99ZM16.084,0H13.252V-10.566h2.832Zm-3-13.3a1.39,1.39,0,0,1,.425-1.045,1.6,1.6,0,0,1,1.157-.41,1.6,1.6,0,0,1,1.152.41,1.382,1.382,0,0,1,.43,1.045,1.386,1.386,0,0,1-.435,1.055,1.6,1.6,0,0,1-1.147.41,1.6,1.6,0,0,1-1.147-.41A1.386,1.386,0,0,1,13.086-13.3ZM24.131-2.92a.909.909,0,0,0-.513-.815,5.824,5.824,0,0,0-1.646-.532q-3.77-.791-3.77-3.2A2.9,2.9,0,0,1,19.37-9.819a4.708,4.708,0,0,1,3.052-.942,5.067,5.067,0,0,1,3.218.947,2.985,2.985,0,0,1,1.206,2.461H24.023a1.366,1.366,0,0,0-.391-1,1.653,1.653,0,0,0-1.221-.4,1.689,1.689,0,0,0-1.1.322,1.017,1.017,0,0,0-.391.82.87.87,0,0,0,.444.757,4.571,4.571,0,0,0,1.5.5,12.244,12.244,0,0,1,1.777.474,2.92,2.92,0,0,1,2.236,2.842A2.756,2.756,0,0,1,25.635-.7a5.35,5.35,0,0,1-3.2.894,5.588,5.588,0,0,1-2.358-.474,3.957,3.957,0,0,1-1.616-1.3,3.018,3.018,0,0,1-.586-1.782h2.676A1.473,1.473,0,0,0,21.1-2.207a2.208,2.208,0,0,0,1.387.4,2.044,2.044,0,0,0,1.226-.308A.957.957,0,0,0,24.131-2.92ZM32.07-13.164v2.6h1.807V-8.5H32.07v5.273a1.259,1.259,0,0,0,.225.84,1.128,1.128,0,0,0,.859.254,4.5,4.5,0,0,0,.83-.068V-.059A5.81,5.81,0,0,1,32.275.2q-2.969,0-3.027-3V-8.5H27.705v-2.07h1.543v-2.6ZM41.572,0a3.134,3.134,0,0,1-.283-.947A3.415,3.415,0,0,1,38.623.2,3.752,3.752,0,0,1,36.05-.7a2.89,2.89,0,0,1-1.021-2.266,2.986,2.986,0,0,1,1.245-2.578,6.144,6.144,0,0,1,3.6-.908h1.3v-.605A1.741,1.741,0,0,0,40.8-8.232a1.479,1.479,0,0,0-1.187-.439,1.682,1.682,0,0,0-1.118.342,1.161,1.161,0,0,0-.405.938H35.264a2.835,2.835,0,0,1,.566-1.7,3.744,3.744,0,0,1,1.6-1.226,5.837,5.837,0,0,1,2.324-.444,4.611,4.611,0,0,1,3.1.981A3.433,3.433,0,0,1,44-7.021v4.58a5.052,5.052,0,0,0,.42,2.275V0ZM39.238-1.963a2.431,2.431,0,0,0,1.152-.278,1.828,1.828,0,0,0,.781-.747V-4.8H40.117Q38-4.8,37.861-3.34l-.01.166a1.13,1.13,0,0,0,.371.869A1.441,1.441,0,0,0,39.238-1.963Z" transform="translate(542 4493)" fill="#002b45"/>
    <g id="Grupo_27388" data-name="Grupo 27388" transform="translate(325.7 4191.719)">
      <g id="Grupo_21029" data-name="Grupo 21029" transform="translate(125.3 12.465)">
        <g id="Grupo_21028" data-name="Grupo 21028">
          <g id="Grupo_21018" data-name="Grupo 21018" transform="translate(130.422)">
            <g id="Grupo_21016" data-name="Grupo 21016">
              <path id="Trazado_19381" data-name="Trazado 19381" d="M403.214,223.821a1.7,1.7,0,0,1-1.2-.5L345.519,166.83a1.7,1.7,0,0,1,0-2.406,87.024,87.024,0,1,0-123.07,0,1.7,1.7,0,0,1-2.406,2.406,90.426,90.426,0,1,1,129.073-1.213l55.3,55.3a1.7,1.7,0,0,1-1.2,2.9Z" transform="translate(-193.559 -12.465)" fill="#f0c068"/>
            </g>
            <g id="Grupo_21017" data-name="Grupo 21017" transform="translate(191.845 191.847)">
              <path id="Trazado_19382" data-name="Trazado 19382" d="M293.965,132.548l.121-3.4,16.763.614-.612-16.766,3.4-.121.741,20.419Z" transform="translate(-293.965 -112.872)" fill="#f0c068"/>
            </g>
          </g>
          <g id="Grupo_21021" data-name="Grupo 21021" transform="translate(286.694 128.105)">
            <g id="Grupo_21019" data-name="Grupo 21019" transform="translate(0.91)">
              <path id="Trazado_19383" data-name="Trazado 19383" d="M277.524,290.867a1.7,1.7,0,0,1-1.2-2.9l56.492-56.492a1.75,1.75,0,0,1,2.406,0,87.024,87.024,0,1,0,0-123.07A1.7,1.7,0,0,1,332.813,106a90.426,90.426,0,1,1,1.213,129.073l-55.3,55.3A1.7,1.7,0,0,1,277.524,290.867Z" transform="translate(-275.823 -79.511)" fill="#ee8d3f"/>
            </g>
            <g id="Grupo_21020" data-name="Grupo 21020" transform="translate(0 191.844)">
              <path id="Trazado_19384" data-name="Trazado 19384" d="M276.091,179.916l3.4.121-.615,16.764,16.766-.612.121,3.4-20.419.741Z" transform="translate(-275.347 -179.916)" fill="#ee8d3f"/>
            </g>
          </g>
          <g id="Grupo_21024" data-name="Grupo 21024" transform="translate(156.277 288.018)">
            <g id="Grupo_21022" data-name="Grupo 21022" transform="translate(0.906 0.91)">
              <path id="Trazado_19385" data-name="Trazado 19385" d="M328.495,375.037a90.425,90.425,0,0,1-65.132-153.152l-55.3-55.3a1.7,1.7,0,0,1,2.4-2.406l56.492,56.492a1.7,1.7,0,0,1,0,2.406,87.023,87.023,0,1,0,123.072,0,1.7,1.7,0,1,1,2.4-2.406,90.425,90.425,0,0,1-63.94,154.365Z" transform="translate(-207.565 -163.681)" fill="#c74653"/>
            </g>
            <g id="Grupo_21023" data-name="Grupo 21023">
              <path id="Trazado_19386" data-name="Trazado 19386" d="M227.507,163.948l-.121,3.4-16.764-.614.612,16.766-3.4.121-.741-20.419Z" transform="translate(-207.091 -163.204)" fill="#c74653"/>
            </g>
          </g>
          <g id="Grupo_21027" data-name="Grupo 21027" transform="translate(0 159.918)">
            <g id="Grupo_21025" data-name="Grupo 21025" transform="translate(0 0.906)">
              <path id="Trazado_19387" data-name="Trazado 19387" d="M215.726,307.993a90.427,90.427,0,1,1,62.726-155.56l55.3-55.3a1.7,1.7,0,0,1,2.406,2.406l-56.492,56.492a1.7,1.7,0,0,1-2.406,0,87.024,87.024,0,1,0,0,123.07,1.7,1.7,0,1,1,2.406,2.406A89.833,89.833,0,0,1,215.726,307.993Z" transform="translate(-125.3 -96.635)" fill="#7d1538"/>
            </g>
            <g id="Grupo_21026" data-name="Grupo 21026" transform="translate(191.848)">
              <path id="Trazado_19388" data-name="Trazado 19388" d="M245.383,116.578l-3.4-.121.614-16.764-16.766.612-.121-3.4,20.419-.741Z" transform="translate(-225.707 -96.161)" fill="#7d1538"/>
            </g>
          </g>
        </g>
      </g>
    </g>
    <rect id="Rectángulo_5068" data-name="Rectángulo 5068" width="118" height="118" transform="translate(617 4454.438) rotate(-45)" fill="#002b45" opacity="0.1"/>
    <path id="Trazado_49740" data-name="Trazado 49740" d="M7.111,19H4.182V4.781h2.93ZM12.238,8.434l.088,1.221a3.689,3.689,0,0,1,3.037-1.416,3.066,3.066,0,0,1,2.5.986,4.6,4.6,0,0,1,.84,2.949V19H15.881V12.242a1.831,1.831,0,0,0-.391-1.3,1.749,1.749,0,0,0-1.3-.405A1.942,1.942,0,0,0,12.4,11.549V19H9.582V8.434ZM24.8,15.553,26.76,8.434h2.949L26.145,19h-2.7L19.885,8.434h2.949ZM35.686,19.2A5.187,5.187,0,0,1,31.9,17.77a5.068,5.068,0,0,1-1.46-3.8V13.7a6.383,6.383,0,0,1,.615-2.847A4.515,4.515,0,0,1,32.8,8.917a4.893,4.893,0,0,1,2.573-.679,4.385,4.385,0,0,1,3.413,1.367,5.555,5.555,0,0,1,1.245,3.877v1.152H33.3a2.622,2.622,0,0,0,.825,1.66,2.5,2.5,0,0,0,1.743.625,3.046,3.046,0,0,0,2.549-1.182l1.387,1.553a4.237,4.237,0,0,1-1.719,1.4A5.639,5.639,0,0,1,35.686,19.2Zm-.322-8.682A1.764,1.764,0,0,0,34,11.083a2.946,2.946,0,0,0-.669,1.628h3.926v-.226a2.1,2.1,0,0,0-.508-1.457A1.819,1.819,0,0,0,35.363,10.514ZM47.355,16.08a.909.909,0,0,0-.513-.815,5.824,5.824,0,0,0-1.646-.532q-3.77-.791-3.77-3.2a2.9,2.9,0,0,1,1.167-2.349,4.708,4.708,0,0,1,3.052-.942,5.067,5.067,0,0,1,3.218.947,2.985,2.985,0,0,1,1.206,2.461H47.248a1.366,1.366,0,0,0-.391-1,1.653,1.653,0,0,0-1.221-.4,1.689,1.689,0,0,0-1.1.322,1.017,1.017,0,0,0-.391.82.87.87,0,0,0,.444.757,4.571,4.571,0,0,0,1.5.5,12.244,12.244,0,0,1,1.777.474A2.92,2.92,0,0,1,50.1,15.963a2.756,2.756,0,0,1-1.24,2.339,5.35,5.35,0,0,1-3.2.894,5.588,5.588,0,0,1-2.358-.474,3.957,3.957,0,0,1-1.616-1.3,3.018,3.018,0,0,1-.586-1.782h2.676a1.473,1.473,0,0,0,.557,1.152,2.208,2.208,0,0,0,1.387.4,2.044,2.044,0,0,0,1.226-.308A.957.957,0,0,0,47.355,16.08ZM55.295,5.836v2.6H57.1V10.5H55.295v5.273a1.259,1.259,0,0,0,.225.84,1.128,1.128,0,0,0,.859.254,4.5,4.5,0,0,0,.83-.068v2.139A5.81,5.81,0,0,1,55.5,19.2q-2.969,0-3.027-3V10.5H50.93V8.434h1.543v-2.6ZM61.652,19H58.82V8.434h2.832Zm-3-13.3a1.39,1.39,0,0,1,.425-1.045,1.831,1.831,0,0,1,2.31,0,1.382,1.382,0,0,1,.43,1.045,1.386,1.386,0,0,1-.435,1.055,1.81,1.81,0,0,1-2.295,0A1.386,1.386,0,0,1,58.654,5.7Zm4.912,7.939a6.193,6.193,0,0,1,1.157-3.916,3.75,3.75,0,0,1,3.12-1.484A3.289,3.289,0,0,1,70.549,9.43l.117-1h2.559V18.648a4.516,4.516,0,0,1-.63,2.412,4.045,4.045,0,0,1-1.772,1.563,6.231,6.231,0,0,1-2.676.537,5.794,5.794,0,0,1-2.266-.464,4.021,4.021,0,0,1-1.67-1.2l1.25-1.719a3.306,3.306,0,0,0,2.559,1.182,2.42,2.42,0,0,0,1.748-.6,2.253,2.253,0,0,0,.625-1.7v-.566a3.264,3.264,0,0,1-2.568,1.1,3.74,3.74,0,0,1-3.081-1.489,6.191,6.191,0,0,1-1.177-3.95Zm2.822.21a3.856,3.856,0,0,0,.576,2.254,1.833,1.833,0,0,0,1.582.817,1.96,1.96,0,0,0,1.846-.968V11.5a1.955,1.955,0,0,0-1.826-.968,1.844,1.844,0,0,0-1.6.831A4.346,4.346,0,0,0,66.389,13.849ZM81.516,19a3.134,3.134,0,0,1-.283-.947A3.415,3.415,0,0,1,78.566,19.2a3.752,3.752,0,0,1-2.573-.9,2.89,2.89,0,0,1-1.021-2.266,2.986,2.986,0,0,1,1.245-2.578,6.144,6.144,0,0,1,3.6-.908h1.3v-.605a1.741,1.741,0,0,0-.376-1.172,1.479,1.479,0,0,0-1.187-.439,1.682,1.682,0,0,0-1.118.342,1.161,1.161,0,0,0-.405.938H75.207a2.835,2.835,0,0,1,.566-1.7,3.744,3.744,0,0,1,1.6-1.226A5.837,5.837,0,0,1,79.7,8.238a4.611,4.611,0,0,1,3.1.981,3.433,3.433,0,0,1,1.147,2.759v4.58a5.052,5.052,0,0,0,.42,2.275V19Zm-2.334-1.963a2.431,2.431,0,0,0,1.152-.278,1.828,1.828,0,0,0,.781-.747V14.2H80.061q-2.119,0-2.256,1.465l-.01.166a1.13,1.13,0,0,0,.371.869A1.441,1.441,0,0,0,79.182,17.037ZM90.51,16.92a1.851,1.851,0,0,0,1.27-.43,1.506,1.506,0,0,0,.508-1.143h2.646a3.62,3.62,0,0,1-.586,1.968A3.866,3.866,0,0,1,92.771,18.7a4.936,4.936,0,0,1-2.212.493,4.587,4.587,0,0,1-3.574-1.44,5.7,5.7,0,0,1-1.309-3.979V13.59a5.635,5.635,0,0,1,1.3-3.9,4.534,4.534,0,0,1,3.564-1.455,4.444,4.444,0,0,1,3.179,1.128,3.994,3.994,0,0,1,1.216,3H92.287a1.939,1.939,0,0,0-.508-1.34,1.887,1.887,0,0,0-2.778.2,4.166,4.166,0,0,0-.5,2.333v.293a4.219,4.219,0,0,0,.5,2.347A1.721,1.721,0,0,0,90.51,16.92ZM99.523,19H96.691V8.434h2.832Zm-3-13.3a1.39,1.39,0,0,1,.425-1.045,1.831,1.831,0,0,1,2.31,0,1.382,1.382,0,0,1,.43,1.045,1.386,1.386,0,0,1-.435,1.055,1.81,1.81,0,0,1-2.295,0A1.386,1.386,0,0,1,96.525,5.7Zm4.883,7.92a6.266,6.266,0,0,1,.605-2.8,4.432,4.432,0,0,1,1.743-1.9,5.086,5.086,0,0,1,2.642-.674,4.812,4.812,0,0,1,3.491,1.309A5.252,5.252,0,0,1,111.4,13.1l.02.723a5.523,5.523,0,0,1-1.357,3.9,5.261,5.261,0,0,1-7.29,0,5.62,5.62,0,0,1-1.362-3.984Zm2.822.2a3.95,3.95,0,0,0,.566,2.3,2.035,2.035,0,0,0,3.223.01,4.322,4.322,0,0,0,.576-2.518,3.91,3.91,0,0,0-.576-2.289,1.873,1.873,0,0,0-1.621-.812,1.842,1.842,0,0,0-1.6.807A4.395,4.395,0,0,0,104.23,13.819ZM106.955,4h3.076l-2.705,3.027h-2.295Zm8.8,4.434.088,1.221a3.689,3.689,0,0,1,3.037-1.416,3.066,3.066,0,0,1,2.5.986,4.6,4.6,0,0,1,.84,2.949V19H119.4V12.242a1.831,1.831,0,0,0-.391-1.3,1.749,1.749,0,0,0-1.3-.405,1.942,1.942,0,0,0-1.787,1.016V19H113.1V8.434ZM21.892,39.92a1.851,1.851,0,0,0,1.27-.43,1.506,1.506,0,0,0,.508-1.143h2.646a3.62,3.62,0,0,1-.586,1.968A3.866,3.866,0,0,1,24.152,41.7a4.936,4.936,0,0,1-2.212.493,4.587,4.587,0,0,1-3.574-1.44,5.7,5.7,0,0,1-1.309-3.979V36.59a5.635,5.635,0,0,1,1.3-3.9,4.534,4.534,0,0,1,3.564-1.455A4.444,4.444,0,0,1,25.1,32.366a3.994,3.994,0,0,1,1.216,3H23.669a1.939,1.939,0,0,0-.508-1.34,1.887,1.887,0,0,0-2.778.2,4.166,4.166,0,0,0-.5,2.333v.293a4.219,4.219,0,0,0,.5,2.347A1.721,1.721,0,0,0,21.892,39.92Zm12.363,1.006a3.539,3.539,0,0,1-2.891,1.27,3.338,3.338,0,0,1-2.593-.977,4.169,4.169,0,0,1-.913-2.861V31.434h2.822v6.834q0,1.652,1.5,1.652a2.038,2.038,0,0,0,1.973-1V31.434h2.832V42H34.333ZM45.241,42a3.134,3.134,0,0,1-.283-.947A3.415,3.415,0,0,1,42.292,42.2a3.752,3.752,0,0,1-2.573-.9A2.89,2.89,0,0,1,38.7,39.031a2.986,2.986,0,0,1,1.245-2.578,6.144,6.144,0,0,1,3.6-.908h1.3v-.605a1.741,1.741,0,0,0-.376-1.172,1.479,1.479,0,0,0-1.187-.439,1.682,1.682,0,0,0-1.118.342,1.161,1.161,0,0,0-.405.938H38.933a2.835,2.835,0,0,1,.566-1.7,3.744,3.744,0,0,1,1.6-1.226,5.837,5.837,0,0,1,2.324-.444,4.611,4.611,0,0,1,3.1.981,3.433,3.433,0,0,1,1.147,2.759v4.58a5.052,5.052,0,0,0,.42,2.275V42Zm-2.334-1.963a2.431,2.431,0,0,0,1.152-.278,1.828,1.828,0,0,0,.781-.747V37.2H43.786q-2.119,0-2.256,1.465l-.01.166a1.13,1.13,0,0,0,.371.869A1.441,1.441,0,0,0,42.907,40.037ZM52.819,42H49.987V27h2.832Zm5.3,0H55.29V31.434h2.832Zm-3-13.3a1.39,1.39,0,0,1,.425-1.045,1.831,1.831,0,0,1,2.31,0,1.491,1.491,0,0,1,0,2.1,1.81,1.81,0,0,1-2.295,0A1.386,1.386,0,0,1,55.124,28.7Zm8.7.137v2.6h1.807V33.5H63.825v5.273a1.259,1.259,0,0,0,.225.84,1.128,1.128,0,0,0,.859.254,4.5,4.5,0,0,0,.83-.068v2.139a5.81,5.81,0,0,1-1.709.254q-2.969,0-3.027-3V33.5H59.46v-2.07H61v-2.6ZM73.327,42a3.134,3.134,0,0,1-.283-.947A3.415,3.415,0,0,1,70.378,42.2a3.752,3.752,0,0,1-2.573-.9,2.89,2.89,0,0,1-1.021-2.266,2.986,2.986,0,0,1,1.245-2.578,6.144,6.144,0,0,1,3.6-.908h1.3v-.605a1.741,1.741,0,0,0-.376-1.172,1.479,1.479,0,0,0-1.187-.439,1.682,1.682,0,0,0-1.118.342,1.161,1.161,0,0,0-.405.938H67.019a2.835,2.835,0,0,1,.566-1.7,3.744,3.744,0,0,1,1.6-1.226,5.837,5.837,0,0,1,2.324-.444,4.611,4.611,0,0,1,3.1.981,3.433,3.433,0,0,1,1.147,2.759v4.58a5.052,5.052,0,0,0,.42,2.275V42Zm-2.334-1.963a2.431,2.431,0,0,0,1.152-.278,1.828,1.828,0,0,0,.781-.747V37.2H71.872q-2.119,0-2.256,1.465l-.01.166a1.13,1.13,0,0,0,.371.869A1.441,1.441,0,0,0,70.993,40.037Zm10.313-11.2v2.6h1.807V33.5H81.306v5.273a1.259,1.259,0,0,0,.225.84,1.128,1.128,0,0,0,.859.254,4.5,4.5,0,0,0,.83-.068v2.139a5.81,5.81,0,0,1-1.709.254q-2.969,0-3.027-3V33.5H76.94v-2.07h1.543v-2.6ZM87.663,42H84.831V31.434h2.832Zm-3-13.3a1.39,1.39,0,0,1,.425-1.045,1.831,1.831,0,0,1,2.31,0,1.491,1.491,0,0,1,0,2.1,1.81,1.81,0,0,1-2.295,0A1.386,1.386,0,0,1,84.665,28.7Zm9.277,9.854,1.963-7.119h2.949L95.29,42h-2.7L89.03,31.434h2.949ZM106.071,42a3.134,3.134,0,0,1-.283-.947,3.415,3.415,0,0,1-2.666,1.143,3.752,3.752,0,0,1-2.573-.9,2.89,2.89,0,0,1-1.021-2.266,2.986,2.986,0,0,1,1.245-2.578,6.144,6.144,0,0,1,3.6-.908h1.3v-.605a1.741,1.741,0,0,0-.376-1.172,1.479,1.479,0,0,0-1.187-.439,1.682,1.682,0,0,0-1.118.342,1.161,1.161,0,0,0-.405.938H99.763a2.835,2.835,0,0,1,.566-1.7,3.744,3.744,0,0,1,1.6-1.226,5.837,5.837,0,0,1,2.324-.444,4.611,4.611,0,0,1,3.1.981,3.433,3.433,0,0,1,1.147,2.759v4.58a5.052,5.052,0,0,0,.42,2.275V42Zm-2.334-1.963a2.431,2.431,0,0,0,1.152-.278,1.828,1.828,0,0,0,.781-.747V37.2h-1.055q-2.119,0-2.256,1.465l-.01.166a1.13,1.13,0,0,0,.371.869A1.441,1.441,0,0,0,103.737,40.037Z" transform="translate(637 4432)" fill="#002b45"/>
  </g>
</svg>
