<svg xmlns="http://www.w3.org/2000/svg" width="930" height="82" viewBox="0 0 930 82">
  <g id="Grupo_22207" data-name="Grupo 22207" transform="translate(-214 -20856)">
    <rect id="Rectángulo_3422" data-name="Rectángulo 3422" width="380" height="82" transform="translate(214 20856)" fill="#eef0f2"/>
    <path id="Trazado_49039" data-name="Trazado 49039" d="M114.932,22h-3.154V8h3.154Zm12.539,0h-3.076V16.443q0-2.324-1.66-2.324a1.647,1.647,0,0,0-1.318.615A2.344,2.344,0,0,0,120.9,16.3V22h-3.086V12H120.9v1.582h.039a3.536,3.536,0,0,1,3.213-1.826q3.32,0,3.32,4.121Zm11.963-10-3.721,10H132.2l-3.545-10h3.3l1.738,6.162a9,9,0,0,1,.342,1.777h.039a10.087,10.087,0,0,1,.361-1.719L136.211,12Zm10.107,5.879h-6.523q.156,2.178,2.744,2.178a5.357,5.357,0,0,0,2.9-.781V21.5a7.62,7.62,0,0,1-3.6.742A5.073,5.073,0,0,1,141.3,20.9a5.073,5.073,0,0,1-1.338-3.745,5.351,5.351,0,0,1,1.445-3.945,4.815,4.815,0,0,1,3.555-1.455,4.37,4.37,0,0,1,3.384,1.3,5,5,0,0,1,1.2,3.525Zm-2.861-1.895q0-2.148-1.738-2.148a1.66,1.66,0,0,0-1.284.615A2.792,2.792,0,0,0,143,15.984Zm4.043,5.752v-2.5a6.57,6.57,0,0,0,1.519.684,5.035,5.035,0,0,0,1.431.225,3.068,3.068,0,0,0,1.294-.225.726.726,0,0,0,.474-.684.632.632,0,0,0-.215-.488,2,2,0,0,0-.552-.342,6.262,6.262,0,0,0-.737-.264q-.4-.117-.771-.264a7.392,7.392,0,0,1-1.05-.483,3.034,3.034,0,0,1-.762-.6,2.361,2.361,0,0,1-.469-.791,3.157,3.157,0,0,1-.161-1.064,2.74,2.74,0,0,1,.366-1.445,2.991,2.991,0,0,1,.977-.991,4.462,4.462,0,0,1,1.4-.566,7.281,7.281,0,0,1,1.636-.181,9.076,9.076,0,0,1,1.348.1,10.058,10.058,0,0,1,1.348.3v2.383a4.87,4.87,0,0,0-1.255-.513,5.294,5.294,0,0,0-1.313-.171,2.91,2.91,0,0,0-.571.054,1.882,1.882,0,0,0-.474.156.87.87,0,0,0-.322.264.607.607,0,0,0-.117.366.677.677,0,0,0,.176.469,1.527,1.527,0,0,0,.459.337,4.531,4.531,0,0,0,.63.254q.347.112.688.229a8.951,8.951,0,0,1,1.113.469,3.559,3.559,0,0,1,.854.6,2.339,2.339,0,0,1,.547.8,3.2,3.2,0,0,1-.2,2.612,3.088,3.088,0,0,1-1.025,1.025,4.65,4.65,0,0,1-1.475.576,8.175,8.175,0,0,1-1.733.181A8.936,8.936,0,0,1,150.723,21.736Zm15.5.146a4.561,4.561,0,0,1-2.061.361q-3.262,0-3.262-3.389v-4.58h-1.621V12H160.9V9.842l3.076-.879V12h2.246v2.275h-2.246v4.043q0,1.562,1.24,1.563a2.091,2.091,0,0,0,1.006-.283Zm3.3-11.465a1.8,1.8,0,0,1-1.279-.464,1.5,1.5,0,0,1-.5-1.138,1.441,1.441,0,0,1,.5-1.133,2.089,2.089,0,0,1,2.563,0,1.448,1.448,0,0,1,.493,1.133,1.489,1.489,0,0,1-.493,1.152A1.833,1.833,0,0,1,169.521,10.418ZM171.045,22h-3.086V12h3.086Zm12.4-1.143a5.658,5.658,0,0,1-1.611,4.312,6.53,6.53,0,0,1-4.668,1.528,7.4,7.4,0,0,1-3.2-.576v-2.6a6.134,6.134,0,0,0,3.115.9A3.355,3.355,0,0,0,179.5,23.6a2.961,2.961,0,0,0,.859-2.241v-.791h-.039a3.446,3.446,0,0,1-3.115,1.68A3.747,3.747,0,0,1,174.17,20.9a5.465,5.465,0,0,1-1.123-3.613,6.087,6.087,0,0,1,1.25-4.033,4.081,4.081,0,0,1,3.291-1.494,3.037,3.037,0,0,1,2.734,1.406h.039V12h3.086ZM180.4,17.2V16.4a2.431,2.431,0,0,0-.562-1.616,1.816,1.816,0,0,0-1.46-.669,1.888,1.888,0,0,0-1.611.8,3.766,3.766,0,0,0-.586,2.256,3.178,3.178,0,0,0,.557,1.978,1.814,1.814,0,0,0,1.523.728,1.888,1.888,0,0,0,1.548-.737A3.023,3.023,0,0,0,180.4,17.2ZM194.346,22h-2.92V20.564h-.039a3.259,3.259,0,0,1-2.979,1.68,3.116,3.116,0,0,1-2.29-.825,2.957,2.957,0,0,1-.835-2.2q0-2.91,3.447-3.359l2.715-.361q0-1.641-1.777-1.641a6.067,6.067,0,0,0-3.4,1.064V12.6a7.646,7.646,0,0,1,1.763-.586,9.266,9.266,0,0,1,2.036-.254q4.277,0,4.277,4.268Zm-2.9-4.062v-.674l-1.816.234q-1.5.2-1.5,1.357a1.122,1.122,0,0,0,.366.864,1.407,1.407,0,0,0,.991.337,1.827,1.827,0,0,0,1.416-.6A2.169,2.169,0,0,0,191.445,17.938Zm12.92,3.7a6.1,6.1,0,0,1-3.018.605,5.1,5.1,0,0,1-3.73-1.4,4.823,4.823,0,0,1-1.426-3.6,5.313,5.313,0,0,1,1.528-4.019,5.648,5.648,0,0,1,4.087-1.47,5.244,5.244,0,0,1,2.559.469v2.617a3.518,3.518,0,0,0-2.158-.723,2.844,2.844,0,0,0-2.1.776,2.9,2.9,0,0,0-.776,2.144,2.85,2.85,0,0,0,.742,2.085,2.728,2.728,0,0,0,2.041.757,4.073,4.073,0,0,0,2.256-.723Zm3.584-11.221a1.8,1.8,0,0,1-1.279-.464,1.5,1.5,0,0,1-.5-1.138,1.441,1.441,0,0,1,.5-1.133,2.089,2.089,0,0,1,2.563,0,1.448,1.448,0,0,1,.493,1.133,1.489,1.489,0,0,1-.493,1.152A1.833,1.833,0,0,1,207.949,10.418ZM209.473,22h-3.086V12h3.086Zm7.363.244a5.376,5.376,0,0,1-3.931-1.4,5.081,5.081,0,0,1-1.431-3.8,5.081,5.081,0,0,1,1.484-3.882,5.609,5.609,0,0,1,4.014-1.4,5.311,5.311,0,0,1,3.906,1.4,4.981,4.981,0,0,1,1.416,3.706,5.288,5.288,0,0,1-1.46,3.936A5.435,5.435,0,0,1,216.836,22.244Zm.078-8.125a2.058,2.058,0,0,0-1.7.752A3.316,3.316,0,0,0,214.609,17q0,2.881,2.324,2.881,2.217,0,2.217-2.959Q219.15,14.119,216.914,14.119Zm3.311-6.855-3.057,3.154h-2.227l2.539-3.154ZM233.945,22h-3.076V16.443q0-2.324-1.66-2.324a1.647,1.647,0,0,0-1.318.615,2.344,2.344,0,0,0-.518,1.563V22h-3.086V12h3.086v1.582h.039a3.536,3.536,0,0,1,3.213-1.826q3.32,0,3.32,4.121Zm18.3-.5a9.235,9.235,0,0,1-4,.742,6.749,6.749,0,0,1-5.068-1.895,6.925,6.925,0,0,1-1.846-5.049A7.4,7.4,0,0,1,243.4,9.852a7.259,7.259,0,0,1,5.386-2.09,10.072,10.072,0,0,1,3.457.518v3.037a6.126,6.126,0,0,0-3.2-.84,4.249,4.249,0,0,0-3.184,1.24,4.6,4.6,0,0,0-1.211,3.359,4.514,4.514,0,0,0,1.143,3.237,4.036,4.036,0,0,0,3.076,1.206,6.561,6.561,0,0,0,3.379-.9Zm11.641.5h-3.076V20.477h-.049a3.49,3.49,0,0,1-3.057,1.768q-3.477,0-3.477-4.209V12H257.3v5.762q0,2.119,1.68,2.119a1.661,1.661,0,0,0,1.328-.581,2.343,2.343,0,0,0,.5-1.577V12h3.076ZM274.8,22h-2.92V20.564h-.039a3.259,3.259,0,0,1-2.979,1.68,3.116,3.116,0,0,1-2.29-.825,2.957,2.957,0,0,1-.835-2.2q0-2.91,3.447-3.359L271.9,15.5q0-1.641-1.777-1.641a6.067,6.067,0,0,0-3.4,1.064V12.6a7.645,7.645,0,0,1,1.763-.586,9.266,9.266,0,0,1,2.036-.254q4.277,0,4.277,4.268Zm-2.9-4.062v-.674l-1.816.234q-1.5.2-1.5,1.357a1.122,1.122,0,0,0,.366.864,1.407,1.407,0,0,0,.991.337,1.827,1.827,0,0,0,1.416-.6A2.169,2.169,0,0,0,271.9,17.938ZM286.9,22h-3.076V16.443q0-2.324-1.66-2.324a1.647,1.647,0,0,0-1.318.615,2.344,2.344,0,0,0-.518,1.563V22h-3.086V12h3.086v1.582h.039a3.536,3.536,0,0,1,3.213-1.826q3.32,0,3.32,4.121Zm8.486-.117a4.561,4.561,0,0,1-2.061.361q-3.262,0-3.262-3.389v-4.58h-1.621V12h1.621V9.842l3.076-.879V12h2.246v2.275h-2.246v4.043q0,1.562,1.24,1.563a2.091,2.091,0,0,0,1.006-.283Zm3.3-11.465a1.8,1.8,0,0,1-1.279-.464,1.5,1.5,0,0,1-.5-1.138,1.441,1.441,0,0,1,.5-1.133,2.089,2.089,0,0,1,2.563,0,1.448,1.448,0,0,1,.493,1.133,1.489,1.489,0,0,1-.493,1.152A1.833,1.833,0,0,1,298.691,10.418ZM300.215,22h-3.086V12h3.086Zm8.643-.117a4.561,4.561,0,0,1-2.061.361q-3.262,0-3.262-3.389v-4.58h-1.621V12h1.621V9.842l3.076-.879V12h2.246v2.275h-2.246v4.043q0,1.562,1.24,1.563a2.091,2.091,0,0,0,1.006-.283ZM318.916,22H316V20.564h-.039a3.259,3.259,0,0,1-2.979,1.68,3.116,3.116,0,0,1-2.29-.825,2.957,2.957,0,0,1-.835-2.2q0-2.91,3.447-3.359l2.715-.361q0-1.641-1.777-1.641a6.067,6.067,0,0,0-3.4,1.064V12.6a7.645,7.645,0,0,1,1.763-.586,9.266,9.266,0,0,1,2.036-.254q4.277,0,4.277,4.268Zm-2.9-4.062v-.674L314.2,17.5q-1.5.2-1.5,1.357a1.122,1.122,0,0,0,.366.864,1.407,1.407,0,0,0,.991.337,1.827,1.827,0,0,0,1.416-.6A2.169,2.169,0,0,0,316.016,17.938ZM327.4,21.883a4.561,4.561,0,0,1-2.061.361q-3.262,0-3.262-3.389v-4.58h-1.621V12h1.621V9.842l3.076-.879V12H327.4v2.275h-2.246v4.043q0,1.562,1.24,1.563A2.091,2.091,0,0,0,327.4,19.6Zm3.3-11.465a1.8,1.8,0,0,1-1.279-.464,1.5,1.5,0,0,1-.5-1.138,1.441,1.441,0,0,1,.5-1.133,2.089,2.089,0,0,1,2.563,0,1.448,1.448,0,0,1,.493,1.133,1.489,1.489,0,0,1-.493,1.152A1.833,1.833,0,0,1,330.7,10.418ZM332.227,22h-3.086V12h3.086Zm12.119-10-3.721,10h-3.516l-3.545-10h3.3l1.738,6.162a9,9,0,0,1,.342,1.777h.039a10.085,10.085,0,0,1,.361-1.719L341.123,12Zm9.336,10h-2.92V20.564h-.039a3.259,3.259,0,0,1-2.979,1.68,3.116,3.116,0,0,1-2.29-.825,2.957,2.957,0,0,1-.835-2.2q0-2.91,3.447-3.359l2.715-.361q0-1.641-1.777-1.641a6.067,6.067,0,0,0-3.4,1.064V12.6a7.645,7.645,0,0,1,1.763-.586,9.266,9.266,0,0,1,2.036-.254q4.277,0,4.277,4.268Zm-2.9-4.062v-.674l-1.816.234q-1.5.2-1.5,1.357a1.122,1.122,0,0,0,.366.864,1.407,1.407,0,0,0,.991.337,1.827,1.827,0,0,0,1.416-.6A2.169,2.169,0,0,0,350.781,17.938Z" transform="translate(172 20881)" fill="#002b45"/>
    <path id="Unión_1" data-name="Unión 1" d="M851.5,6774.459H820v-19.918h31.5V6742l22.5,22.5L851.5,6787Z" transform="translate(-168.001 14132.001)" fill="#ff8f00"/>
    <rect id="Rectángulo_3420" data-name="Rectángulo 3420" width="380" height="82" transform="translate(764 20856)" fill="#eef0f2"/>
    <path id="Trazado_49040" data-name="Trazado 49040" d="M165.2,22h-8.4V8h8.076v2.568h-4.922V13.68h4.58v2.559h-4.58v3.2H165.2Zm11.6,0h-3.076V16.443q0-2.324-1.66-2.324a1.647,1.647,0,0,0-1.318.615,2.344,2.344,0,0,0-.518,1.563V22H167.14V12h3.086v1.582h.039a3.536,3.536,0,0,1,3.213-1.826q3.32,0,3.32,4.121Zm10.02-.361a6.1,6.1,0,0,1-3.018.605,5.1,5.1,0,0,1-3.73-1.4,4.823,4.823,0,0,1-1.426-3.6,5.313,5.313,0,0,1,1.528-4.019,5.648,5.648,0,0,1,4.087-1.47,5.244,5.244,0,0,1,2.559.469v2.617a3.518,3.518,0,0,0-2.158-.723,2.844,2.844,0,0,0-2.1.776,2.9,2.9,0,0,0-.776,2.144,2.85,2.85,0,0,0,.742,2.085,2.728,2.728,0,0,0,2.041.757,4.073,4.073,0,0,0,2.256-.723ZM198.341,22h-3.076V20.477h-.049a3.49,3.49,0,0,1-3.057,1.768q-3.477,0-3.477-4.209V12h3.076v5.762q0,2.119,1.68,2.119a1.661,1.661,0,0,0,1.328-.581,2.343,2.343,0,0,0,.5-1.577V12h3.076Zm11.582-4.121H203.4q.156,2.178,2.744,2.178a5.357,5.357,0,0,0,2.9-.781V21.5a7.62,7.62,0,0,1-3.6.742,5.073,5.073,0,0,1-3.76-1.343,5.073,5.073,0,0,1-1.338-3.745,5.351,5.351,0,0,1,1.445-3.945,4.815,4.815,0,0,1,3.555-1.455,4.37,4.37,0,0,1,3.384,1.3,5,5,0,0,1,1.2,3.525Zm-2.861-1.895q0-2.148-1.738-2.148a1.66,1.66,0,0,0-1.284.615,2.792,2.792,0,0,0-.659,1.533Zm4.043,5.752v-2.5a6.57,6.57,0,0,0,1.519.684,5.035,5.035,0,0,0,1.431.225,3.068,3.068,0,0,0,1.294-.225.726.726,0,0,0,.474-.684.632.632,0,0,0-.215-.488,2,2,0,0,0-.552-.342,6.262,6.262,0,0,0-.737-.264q-.4-.117-.771-.264a7.392,7.392,0,0,1-1.05-.483,3.034,3.034,0,0,1-.762-.6,2.361,2.361,0,0,1-.469-.791,3.157,3.157,0,0,1-.161-1.064,2.74,2.74,0,0,1,.366-1.445,2.991,2.991,0,0,1,.977-.991,4.462,4.462,0,0,1,1.4-.566,7.281,7.281,0,0,1,1.636-.181,9.076,9.076,0,0,1,1.348.1,10.058,10.058,0,0,1,1.348.3v2.383a4.87,4.87,0,0,0-1.255-.513,5.294,5.294,0,0,0-1.313-.171,2.91,2.91,0,0,0-.571.054,1.882,1.882,0,0,0-.474.156.87.87,0,0,0-.322.264.607.607,0,0,0-.117.366.677.677,0,0,0,.176.469,1.527,1.527,0,0,0,.459.337,4.531,4.531,0,0,0,.63.254q.347.112.688.229a8.951,8.951,0,0,1,1.113.469,3.559,3.559,0,0,1,.854.6,2.339,2.339,0,0,1,.547.8,3.2,3.2,0,0,1-.2,2.612,3.088,3.088,0,0,1-1.025,1.025,4.65,4.65,0,0,1-1.475.576,8.175,8.175,0,0,1-1.733.181A8.936,8.936,0,0,1,211.1,21.736Zm15.5.146a4.561,4.561,0,0,1-2.061.361q-3.262,0-3.262-3.389v-4.58h-1.621V12h1.621V9.842l3.076-.879V12H226.6v2.275h-2.246v4.043q0,1.562,1.24,1.563A2.091,2.091,0,0,0,226.6,19.6ZM236.661,22h-2.92V20.564H233.7a3.259,3.259,0,0,1-2.979,1.68,3.116,3.116,0,0,1-2.29-.825,2.957,2.957,0,0,1-.835-2.2q0-2.91,3.447-3.359l2.715-.361q0-1.641-1.777-1.641a6.067,6.067,0,0,0-3.4,1.064V12.6a7.646,7.646,0,0,1,1.763-.586,9.266,9.266,0,0,1,2.036-.254q4.277,0,4.277,4.268Zm-2.9-4.062v-.674l-1.816.234q-1.5.2-1.5,1.357a1.122,1.122,0,0,0,.366.864,1.407,1.407,0,0,0,.991.337,1.827,1.827,0,0,0,1.416-.6A2.169,2.169,0,0,0,233.761,17.938Z" transform="translate(764 20879)" fill="#002b45"/>
  </g>
</svg>
