<svg xmlns="http://www.w3.org/2000/svg" width="623.363" height="625.014" viewBox="0 0 623.363 625.014">
  <g id="Grupo_24030" data-name="Grupo 24030" transform="translate(-405 -4141.818)">
    <g id="Grupo_21030" data-name="Grupo 21030" transform="translate(279.7 4129.354)">
      <g id="Grupo_21029" data-name="Grupo 21029" transform="translate(125.3 12.465)">
        <g id="Grupo_21028" data-name="Grupo 21028">
          <g id="Grupo_21018" data-name="Grupo 21018" transform="translate(162.939)">
            <g id="Grupo_21016" data-name="Grupo 21016">
              <path id="Trazado_19381" data-name="Trazado 19381" d="M455.486,276.516a2.12,2.12,0,0,1-1.5-.623l-70.576-70.576a2.129,2.129,0,0,1,0-3.005,108.72,108.72,0,1,0-153.754,0,2.125,2.125,0,0,1-3.005,3.005A112.971,112.971,0,1,1,387.9,203.8l69.087,69.089a2.125,2.125,0,0,1-1.5,3.626Z" transform="translate(-193.559 -12.465)" fill="#f0c068"/>
            </g>
            <g id="Grupo_21017" data-name="Grupo 21017" transform="translate(239.676 239.678)">
              <path id="Trazado_19382" data-name="Trazado 19382" d="M293.965,137.453l.151-4.252,20.943.767-.764-20.946,4.251-.151.926,25.51Z" transform="translate(-293.965 -112.872)" fill="#f0c068"/>
            </g>
          </g>
          <g id="Grupo_21021" data-name="Grupo 21021" transform="translate(358.173 160.044)">
            <g id="Grupo_21019" data-name="Grupo 21019" transform="translate(1.137)">
              <path id="Trazado_19383" data-name="Trazado 19383" d="M277.948,343.562a2.126,2.126,0,0,1-1.5-3.628l70.576-70.576a2.187,2.187,0,0,1,3.005,0,108.72,108.72,0,1,0,0-153.754,2.125,2.125,0,1,1-3.005-3.005,112.971,112.971,0,1,1,1.516,161.254l-69.087,69.087A2.12,2.12,0,0,1,277.948,343.562Z" transform="translate(-275.823 -79.511)" fill="#ee8d3f"/>
            </g>
            <g id="Grupo_21020" data-name="Grupo 21020" transform="translate(0 239.675)">
              <path id="Trazado_19384" data-name="Trazado 19384" d="M276.276,179.916l4.251.151-.768,20.943,20.946-.765.151,4.252-25.51.926Z" transform="translate(-275.347 -179.916)" fill="#ee8d3f"/>
            </g>
          </g>
          <g id="Grupo_21024" data-name="Grupo 21024" transform="translate(195.24 359.826)">
            <g id="Grupo_21022" data-name="Grupo 21022" transform="translate(1.132 1.137)">
              <path id="Trazado_19385" data-name="Trazado 19385" d="M358.645,427.732A112.97,112.97,0,0,1,277.275,236.4l-69.087-69.087a2.124,2.124,0,1,1,3-3.005l70.576,70.576a2.124,2.124,0,0,1,0,3.005,108.719,108.719,0,1,0,153.756,0,2.124,2.124,0,1,1,3-3.005,112.969,112.969,0,0,1-79.881,192.852Z" transform="translate(-207.565 -163.681)" fill="#c74653"/>
            </g>
            <g id="Grupo_21023" data-name="Grupo 21023">
              <path id="Trazado_19386" data-name="Trazado 19386" d="M232.6,164.134l-.151,4.251-20.943-.767.765,20.946-4.252.151-.926-25.51Z" transform="translate(-207.091 -163.204)" fill="#c74653"/>
            </g>
          </g>
          <g id="Grupo_21027" data-name="Grupo 21027" transform="translate(0 199.789)">
            <g id="Grupo_21025" data-name="Grupo 21025" transform="translate(0 1.131)">
              <path id="Trazado_19387" data-name="Trazado 19387" d="M238.271,360.688a112.972,112.972,0,1,1,78.365-194.344l69.089-69.087a2.125,2.125,0,1,1,3.005,3.005L318.154,170.84a2.128,2.128,0,0,1-3.005,0,108.72,108.72,0,1,0,0,153.754,2.125,2.125,0,1,1,3.005,3.005A112.23,112.23,0,0,1,238.271,360.688Z" transform="translate(-125.3 -96.635)" fill="#7d1538"/>
            </g>
            <g id="Grupo_21026" data-name="Grupo 21026" transform="translate(239.679)">
              <path id="Trazado_19388" data-name="Trazado 19388" d="M250.289,121.668l-4.252-.151.767-20.943-20.946.765-.151-4.251,25.51-.926Z" transform="translate(-225.707 -96.161)" fill="#7d1538"/>
            </g>
          </g>
        </g>
      </g>
    </g>
    <path id="Trazado_49028" data-name="Trazado 49028" d="M37.3,22H34.146V8H37.3Zm12.539,0H46.763V16.443q0-2.324-1.66-2.324a1.647,1.647,0,0,0-1.318.615,2.344,2.344,0,0,0-.518,1.563V22H40.181V12h3.086v1.582h.039a3.536,3.536,0,0,1,3.213-1.826q3.32,0,3.32,4.121ZM61.8,12,58.081,22H54.565L51.021,12h3.3l1.738,6.162a9,9,0,0,1,.342,1.777h.039a10.086,10.086,0,0,1,.361-1.719L58.579,12Zm10.107,5.879H65.386q.156,2.178,2.744,2.178a5.357,5.357,0,0,0,2.9-.781V21.5a7.619,7.619,0,0,1-3.6.742,5.073,5.073,0,0,1-3.76-1.343,5.073,5.073,0,0,1-1.338-3.745,5.352,5.352,0,0,1,1.445-3.945,4.815,4.815,0,0,1,3.555-1.455,4.37,4.37,0,0,1,3.384,1.3,5,5,0,0,1,1.2,3.525Zm-2.861-1.895q0-2.148-1.738-2.148a1.66,1.66,0,0,0-1.284.615,2.792,2.792,0,0,0-.659,1.533Zm4.043,5.752v-2.5a6.57,6.57,0,0,0,1.519.684,5.035,5.035,0,0,0,1.431.225,3.068,3.068,0,0,0,1.294-.225.726.726,0,0,0,.474-.684.632.632,0,0,0-.215-.488,2,2,0,0,0-.552-.342,6.261,6.261,0,0,0-.737-.264q-.4-.117-.771-.264a7.392,7.392,0,0,1-1.05-.483,3.034,3.034,0,0,1-.762-.6A2.361,2.361,0,0,1,73.252,16a3.157,3.157,0,0,1-.161-1.064,2.74,2.74,0,0,1,.366-1.445,2.991,2.991,0,0,1,.977-.991,4.462,4.462,0,0,1,1.4-.566,7.281,7.281,0,0,1,1.636-.181,9.076,9.076,0,0,1,1.348.1,10.059,10.059,0,0,1,1.348.3v2.383a4.87,4.87,0,0,0-1.255-.513,5.294,5.294,0,0,0-1.313-.171,2.91,2.91,0,0,0-.571.054,1.882,1.882,0,0,0-.474.156.87.87,0,0,0-.322.264.607.607,0,0,0-.117.366.677.677,0,0,0,.176.469,1.527,1.527,0,0,0,.459.337,4.531,4.531,0,0,0,.63.254q.347.112.688.229a8.951,8.951,0,0,1,1.113.469,3.56,3.56,0,0,1,.854.6,2.339,2.339,0,0,1,.547.8,3.2,3.2,0,0,1-.2,2.612,3.088,3.088,0,0,1-1.025,1.025,4.65,4.65,0,0,1-1.475.576,8.175,8.175,0,0,1-1.733.181A8.936,8.936,0,0,1,73.091,21.736Zm15.5.146a4.561,4.561,0,0,1-2.061.361q-3.262,0-3.262-3.389v-4.58H81.646V12h1.621V9.842l3.076-.879V12h2.246v2.275H86.343v4.043q0,1.562,1.24,1.563a2.091,2.091,0,0,0,1.006-.283Zm3.3-11.465a1.8,1.8,0,0,1-1.279-.464,1.5,1.5,0,0,1-.5-1.138,1.441,1.441,0,0,1,.5-1.133,2.089,2.089,0,0,1,2.563,0,1.448,1.448,0,0,1,.493,1.133,1.489,1.489,0,0,1-.493,1.152A1.833,1.833,0,0,1,91.89,10.418ZM93.413,22H90.327V12h3.086Zm12.4-1.143a5.658,5.658,0,0,1-1.611,4.312A6.53,6.53,0,0,1,99.536,26.7a7.4,7.4,0,0,1-3.2-.576v-2.6a6.134,6.134,0,0,0,3.115.9,3.355,3.355,0,0,0,2.422-.825,2.961,2.961,0,0,0,.859-2.241v-.791h-.039a3.446,3.446,0,0,1-3.115,1.68A3.747,3.747,0,0,1,96.538,20.9a5.465,5.465,0,0,1-1.123-3.613,6.087,6.087,0,0,1,1.25-4.033,4.081,4.081,0,0,1,3.291-1.494,3.037,3.037,0,0,1,2.734,1.406h.039V12h3.086ZM102.769,17.2V16.4a2.431,2.431,0,0,0-.562-1.616,1.816,1.816,0,0,0-1.46-.669,1.888,1.888,0,0,0-1.611.8,3.766,3.766,0,0,0-.586,2.256,3.178,3.178,0,0,0,.557,1.978,1.814,1.814,0,0,0,1.523.728,1.888,1.888,0,0,0,1.548-.737A3.023,3.023,0,0,0,102.769,17.2ZM116.714,22h-2.92V20.564h-.039a3.259,3.259,0,0,1-2.979,1.68,3.116,3.116,0,0,1-2.29-.825,2.957,2.957,0,0,1-.835-2.2q0-2.91,3.447-3.359l2.715-.361q0-1.641-1.777-1.641a6.067,6.067,0,0,0-3.4,1.064V12.6a7.646,7.646,0,0,1,1.763-.586,9.266,9.266,0,0,1,2.036-.254q4.277,0,4.277,4.268Zm-2.9-4.062v-.674L112,17.5q-1.5.2-1.5,1.357a1.122,1.122,0,0,0,.366.864,1.407,1.407,0,0,0,.991.337,1.827,1.827,0,0,0,1.416-.6A2.169,2.169,0,0,0,113.813,17.938Zm12.92,3.7a6.1,6.1,0,0,1-3.018.605,5.1,5.1,0,0,1-3.73-1.4,4.823,4.823,0,0,1-1.426-3.6,5.313,5.313,0,0,1,1.528-4.019,5.648,5.648,0,0,1,4.087-1.47,5.244,5.244,0,0,1,2.559.469v2.617a3.518,3.518,0,0,0-2.158-.723,2.844,2.844,0,0,0-2.1.776,2.9,2.9,0,0,0-.776,2.144,2.85,2.85,0,0,0,.742,2.085,2.728,2.728,0,0,0,2.041.757,4.073,4.073,0,0,0,2.256-.723Zm3.584-11.221a1.8,1.8,0,0,1-1.279-.464,1.5,1.5,0,0,1-.5-1.138,1.441,1.441,0,0,1,.5-1.133,2.089,2.089,0,0,1,2.563,0,1.448,1.448,0,0,1,.493,1.133,1.489,1.489,0,0,1-.493,1.152A1.833,1.833,0,0,1,130.317,10.418ZM131.841,22h-3.086V12h3.086Zm7.363.244a5.376,5.376,0,0,1-3.931-1.4,5.081,5.081,0,0,1-1.431-3.8,5.081,5.081,0,0,1,1.484-3.882,5.609,5.609,0,0,1,4.014-1.4,5.311,5.311,0,0,1,3.906,1.4,4.981,4.981,0,0,1,1.416,3.706A5.288,5.288,0,0,1,143.2,20.8,5.435,5.435,0,0,1,139.2,22.244Zm.078-8.125a2.058,2.058,0,0,0-1.7.752A3.316,3.316,0,0,0,136.978,17q0,2.881,2.324,2.881,2.217,0,2.217-2.959Q141.519,14.119,139.282,14.119Zm3.311-6.855-3.057,3.154H137.31l2.539-3.154ZM156.313,22h-3.076V16.443q0-2.324-1.66-2.324a1.647,1.647,0,0,0-1.318.615,2.344,2.344,0,0,0-.518,1.563V22h-3.086V12h3.086v1.582h.039a3.536,3.536,0,0,1,3.213-1.826q3.32,0,3.32,4.121ZM55.308,44.639a6.1,6.1,0,0,1-3.018.605,5.1,5.1,0,0,1-3.73-1.4,4.823,4.823,0,0,1-1.426-3.6,5.313,5.313,0,0,1,1.528-4.019,5.648,5.648,0,0,1,4.087-1.47,5.244,5.244,0,0,1,2.559.469v2.617a3.518,3.518,0,0,0-2.158-.723,2.844,2.844,0,0,0-2.1.776,2.9,2.9,0,0,0-.776,2.144,2.85,2.85,0,0,0,.742,2.085,2.728,2.728,0,0,0,2.041.757,4.073,4.073,0,0,0,2.256-.723ZM66.831,45H63.755V43.477h-.049a3.49,3.49,0,0,1-3.057,1.768q-3.477,0-3.477-4.209V35h3.076v5.762q0,2.119,1.68,2.119a1.661,1.661,0,0,0,1.328-.581,2.343,2.343,0,0,0,.5-1.577V35h3.076Zm10.918,0h-2.92V43.564H74.79a3.259,3.259,0,0,1-2.979,1.68,3.116,3.116,0,0,1-2.29-.825,2.957,2.957,0,0,1-.835-2.2q0-2.91,3.447-3.359l2.715-.361q0-1.641-1.777-1.641a6.067,6.067,0,0,0-3.4,1.064V35.6a7.645,7.645,0,0,1,1.763-.586,9.266,9.266,0,0,1,2.036-.254q4.277,0,4.277,4.268Zm-2.9-4.062v-.674l-1.816.234q-1.5.2-1.5,1.357a1.122,1.122,0,0,0,.366.864,1.407,1.407,0,0,0,.991.337,1.827,1.827,0,0,0,1.416-.6A2.169,2.169,0,0,0,74.849,40.938ZM83.276,45H80.19V30.2h3.086Zm4.16-11.582a1.8,1.8,0,0,1-1.279-.464,1.5,1.5,0,0,1-.5-1.138,1.441,1.441,0,0,1,.5-1.133,2.089,2.089,0,0,1,2.563,0,1.448,1.448,0,0,1,.493,1.133,1.489,1.489,0,0,1-.493,1.152A1.833,1.833,0,0,1,87.437,33.418ZM88.96,45H85.874V35H88.96Zm8.643-.117a4.561,4.561,0,0,1-2.061.361q-3.262,0-3.262-3.389v-4.58H90.659V35H92.28V32.842l3.076-.879V35H97.6v2.275H95.356v4.043q0,1.563,1.24,1.563A2.091,2.091,0,0,0,97.6,42.6ZM107.661,45h-2.92V43.564H104.7a3.259,3.259,0,0,1-2.979,1.68,3.116,3.116,0,0,1-2.29-.825,2.957,2.957,0,0,1-.835-2.2q0-2.91,3.447-3.359l2.715-.361q0-1.641-1.777-1.641a6.067,6.067,0,0,0-3.4,1.064V35.6a7.645,7.645,0,0,1,1.763-.586,9.266,9.266,0,0,1,2.036-.254q4.277,0,4.277,4.268Zm-2.9-4.062v-.674l-1.816.234q-1.5.2-1.5,1.357a1.122,1.122,0,0,0,.366.864,1.407,1.407,0,0,0,.991.337,1.827,1.827,0,0,0,1.416-.6A2.169,2.169,0,0,0,104.761,40.938Zm11.387,3.945a4.561,4.561,0,0,1-2.061.361q-3.262,0-3.262-3.389v-4.58H109.2V35h1.621V32.842l3.076-.879V35h2.246v2.275H113.9v4.043q0,1.563,1.24,1.563a2.091,2.091,0,0,0,1.006-.283Zm3.3-11.465a1.8,1.8,0,0,1-1.279-.464,1.5,1.5,0,0,1-.5-1.138,1.441,1.441,0,0,1,.5-1.133,2.089,2.089,0,0,1,2.563,0,1.448,1.448,0,0,1,.493,1.133,1.489,1.489,0,0,1-.493,1.152A1.833,1.833,0,0,1,119.448,33.418ZM120.972,45h-3.086V35h3.086Zm12.119-10L129.37,45h-3.516L122.31,35h3.3l1.738,6.162a9,9,0,0,1,.342,1.777h.039a10.086,10.086,0,0,1,.361-1.719L129.868,35Zm9.336,10h-2.92V43.564h-.039a3.259,3.259,0,0,1-2.979,1.68,3.116,3.116,0,0,1-2.29-.825,2.957,2.957,0,0,1-.835-2.2q0-2.91,3.447-3.359l2.715-.361q0-1.641-1.777-1.641a6.067,6.067,0,0,0-3.4,1.064V35.6a7.645,7.645,0,0,1,1.763-.586,9.266,9.266,0,0,1,2.036-.254q4.277,0,4.277,4.268Zm-2.9-4.062v-.674l-1.816.234q-1.5.2-1.5,1.357a1.122,1.122,0,0,0,.366.864,1.407,1.407,0,0,0,.991.337,1.827,1.827,0,0,0,1.416-.6A2.169,2.169,0,0,0,139.526,40.938Z" transform="translate(615 4430)" fill="#002b45"/>
    <path id="Trazado_49026" data-name="Trazado 49026" d="M44.1,22.244a6.519,6.519,0,0,1-4.9-1.958,7.029,7.029,0,0,1-1.895-5.1,7.533,7.533,0,0,1,1.924-5.371,6.661,6.661,0,0,1,5.1-2.051A6.356,6.356,0,0,1,49.17,9.725,7.237,7.237,0,0,1,51.021,14.9,7.412,7.412,0,0,1,49.1,20.223,6.586,6.586,0,0,1,44.1,22.244Zm.137-11.768A3.175,3.175,0,0,0,41.6,11.722a5.191,5.191,0,0,0-.977,3.3,5.1,5.1,0,0,0,.977,3.291,3.37,3.37,0,0,0,5.146.034,5.04,5.04,0,0,0,.957-3.267,5.462,5.462,0,0,0-.928-3.389A3.025,3.025,0,0,0,44.233,10.477ZM56.167,20.838h-.039V22H53.042V7.2h3.086V13.5h.039a3.662,3.662,0,0,1,3.252-1.748A3.568,3.568,0,0,1,62.4,13.084a5.727,5.727,0,0,1,1.045,3.633,6.2,6.2,0,0,1-1.221,4.014,3.976,3.976,0,0,1-3.262,1.514A3.151,3.151,0,0,1,56.167,20.838Zm-.088-4.219v1.025a2.341,2.341,0,0,0,.557,1.6,1.811,1.811,0,0,0,1.426.635,1.892,1.892,0,0,0,1.636-.815,3.937,3.937,0,0,0,.581-2.31,3.132,3.132,0,0,0-.532-1.938,1.8,1.8,0,0,0-1.519-.7,1.962,1.962,0,0,0-1.538.693A2.634,2.634,0,0,0,56.079,16.619Zm8.711,5.117v-2.5a6.57,6.57,0,0,0,1.519.684,5.035,5.035,0,0,0,1.431.225,3.068,3.068,0,0,0,1.294-.225.726.726,0,0,0,.474-.684.632.632,0,0,0-.215-.488,2,2,0,0,0-.552-.342A6.261,6.261,0,0,0,68,18.143q-.4-.117-.771-.264a7.392,7.392,0,0,1-1.05-.483,3.034,3.034,0,0,1-.762-.6A2.361,2.361,0,0,1,64.951,16a3.157,3.157,0,0,1-.161-1.064,2.74,2.74,0,0,1,.366-1.445,2.991,2.991,0,0,1,.977-.991,4.462,4.462,0,0,1,1.4-.566,7.281,7.281,0,0,1,1.636-.181,9.076,9.076,0,0,1,1.348.1,10.059,10.059,0,0,1,1.348.3v2.383a4.87,4.87,0,0,0-1.255-.513,5.294,5.294,0,0,0-1.313-.171,2.91,2.91,0,0,0-.571.054,1.882,1.882,0,0,0-.474.156.87.87,0,0,0-.322.264.607.607,0,0,0-.117.366.677.677,0,0,0,.176.469,1.527,1.527,0,0,0,.459.337,4.531,4.531,0,0,0,.63.254q.347.112.688.229a8.951,8.951,0,0,1,1.113.469,3.56,3.56,0,0,1,.854.6,2.339,2.339,0,0,1,.547.8,3.2,3.2,0,0,1-.2,2.612,3.088,3.088,0,0,1-1.025,1.025,4.65,4.65,0,0,1-1.475.576,8.175,8.175,0,0,1-1.733.181A8.936,8.936,0,0,1,64.79,21.736Zm18.438-3.857H76.7q.156,2.178,2.744,2.178a5.357,5.357,0,0,0,2.9-.781V21.5a7.619,7.619,0,0,1-3.6.742,5.073,5.073,0,0,1-3.76-1.343,5.073,5.073,0,0,1-1.338-3.745,5.352,5.352,0,0,1,1.445-3.945,4.815,4.815,0,0,1,3.555-1.455,4.37,4.37,0,0,1,3.384,1.3,5,5,0,0,1,1.2,3.525Zm-2.861-1.895q0-2.148-1.738-2.148a1.66,1.66,0,0,0-1.284.615,2.792,2.792,0,0,0-.659,1.533Zm11.221-1.2a2.677,2.677,0,0,0-1.3-.3,1.871,1.871,0,0,0-1.572.737,3.217,3.217,0,0,0-.566,2.007V22H85.063V12h3.086v1.855h.039a2.67,2.67,0,0,1,2.637-2.031,1.987,1.987,0,0,1,.762.117ZM103.345,12,99.624,22H96.108L92.563,12h3.3L97.6,18.162a9,9,0,0,1,.342,1.777h.039a10.086,10.086,0,0,1,.361-1.719L100.122,12Zm9.336,10h-2.92V20.564h-.039a3.259,3.259,0,0,1-2.979,1.68,3.116,3.116,0,0,1-2.29-.825,2.957,2.957,0,0,1-.835-2.2q0-2.91,3.447-3.359l2.715-.361q0-1.641-1.777-1.641a6.067,6.067,0,0,0-3.4,1.064V12.6a7.646,7.646,0,0,1,1.763-.586,9.266,9.266,0,0,1,2.036-.254q4.277,0,4.277,4.268Zm-2.9-4.062v-.674l-1.816.234q-1.5.2-1.5,1.357a1.122,1.122,0,0,0,.366.864,1.407,1.407,0,0,0,.991.337,1.827,1.827,0,0,0,1.416-.6A2.169,2.169,0,0,0,109.78,17.938Zm12.92,3.7a6.1,6.1,0,0,1-3.018.605,5.1,5.1,0,0,1-3.73-1.4,4.823,4.823,0,0,1-1.426-3.6,5.313,5.313,0,0,1,1.528-4.019,5.648,5.648,0,0,1,4.087-1.47,5.244,5.244,0,0,1,2.559.469v2.617a3.518,3.518,0,0,0-2.158-.723,2.844,2.844,0,0,0-2.1.776,2.9,2.9,0,0,0-.776,2.144,2.85,2.85,0,0,0,.742,2.085,2.728,2.728,0,0,0,2.041.757,4.073,4.073,0,0,0,2.256-.723Zm3.584-11.221A1.8,1.8,0,0,1,125,9.954a1.5,1.5,0,0,1-.5-1.138,1.441,1.441,0,0,1,.5-1.133,2.089,2.089,0,0,1,2.563,0,1.448,1.448,0,0,1,.493,1.133,1.489,1.489,0,0,1-.493,1.152A1.833,1.833,0,0,1,126.284,10.418ZM127.808,22h-3.086V12h3.086Zm7.363.244a5.376,5.376,0,0,1-3.931-1.4,5.081,5.081,0,0,1-1.431-3.8,5.081,5.081,0,0,1,1.484-3.882,5.609,5.609,0,0,1,4.014-1.4,5.311,5.311,0,0,1,3.906,1.4,4.981,4.981,0,0,1,1.416,3.706,5.288,5.288,0,0,1-1.46,3.936A5.435,5.435,0,0,1,135.171,22.244Zm.078-8.125a2.058,2.058,0,0,0-1.7.752A3.316,3.316,0,0,0,132.944,17q0,2.881,2.324,2.881,2.217,0,2.217-2.959Q137.485,14.119,135.249,14.119Zm3.311-6.855L135.5,10.418h-2.227l2.539-3.154ZM152.28,22H149.2V16.443q0-2.324-1.66-2.324a1.647,1.647,0,0,0-1.318.615,2.344,2.344,0,0,0-.518,1.563V22h-3.086V12h3.086v1.582h.039a3.536,3.536,0,0,1,3.213-1.826q3.32,0,3.32,4.121Z" transform="translate(588 4234)" fill="#002b45"/>
    <path id="Trazado_49027" data-name="Trazado 49027" d="M49.229,21.063a10.078,10.078,0,0,1-5.1,1.182,7.372,7.372,0,0,1-5.327-1.87,6.8,6.8,0,0,1-1.948-5.151,7.192,7.192,0,0,1,2.129-5.381,7.756,7.756,0,0,1,5.664-2.08,11.5,11.5,0,0,1,3.926.615v2.959a7.8,7.8,0,0,0-3.965-.937,4.257,4.257,0,0,0-3.2,1.274,4.682,4.682,0,0,0-1.235,3.4,4.7,4.7,0,0,0,1.108,3.34A3.907,3.907,0,0,0,44.277,19.6a4.166,4.166,0,0,0,1.8-.322V16.541h-2.8v-2.52h5.957Zm8.945-6.279a2.677,2.677,0,0,0-1.3-.3,1.871,1.871,0,0,0-1.572.737,3.217,3.217,0,0,0-.566,2.007V22H51.65V12h3.086v1.855h.039a2.67,2.67,0,0,1,2.637-2.031,1.987,1.987,0,0,1,.762.117ZM69.17,22H66.094V20.477h-.049a3.49,3.49,0,0,1-3.057,1.768q-3.477,0-3.477-4.209V12h3.076v5.762q0,2.119,1.68,2.119A1.661,1.661,0,0,0,65.6,19.3a2.343,2.343,0,0,0,.5-1.577V12H69.17Zm5.723-1.162h-.039V26.6H71.768V12h3.086v1.5h.039a3.927,3.927,0,0,1,6.216-.415,5.676,5.676,0,0,1,1.06,3.628,6.152,6.152,0,0,1-1.235,4.014,4.028,4.028,0,0,1-3.286,1.514A3.114,3.114,0,0,1,74.893,20.838Zm-.088-4.1v.8a2.546,2.546,0,0,0,.547,1.689,1.78,1.78,0,0,0,1.436.654,1.892,1.892,0,0,0,1.636-.815A3.937,3.937,0,0,0,79,16.756q0-2.637-2.051-2.637a1.926,1.926,0,0,0-1.548.718A2.863,2.863,0,0,0,74.8,16.736Zm14.131,5.508A5.376,5.376,0,0,1,85,20.843a5.081,5.081,0,0,1-1.431-3.8,5.081,5.081,0,0,1,1.484-3.882,5.609,5.609,0,0,1,4.014-1.4,5.311,5.311,0,0,1,3.906,1.4,4.981,4.981,0,0,1,1.416,3.706,5.288,5.288,0,0,1-1.46,3.936A5.435,5.435,0,0,1,88.936,22.244Zm.078-8.125a2.058,2.058,0,0,0-1.7.752A3.316,3.316,0,0,0,86.709,17q0,2.881,2.324,2.881,2.217,0,2.217-2.959Q91.25,14.119,89.014,14.119Zm6.729,7.617v-2.5a6.57,6.57,0,0,0,1.519.684,5.035,5.035,0,0,0,1.431.225,3.068,3.068,0,0,0,1.294-.225.726.726,0,0,0,.474-.684.632.632,0,0,0-.215-.488,2,2,0,0,0-.552-.342,6.261,6.261,0,0,0-.737-.264q-.4-.117-.771-.264a7.392,7.392,0,0,1-1.05-.483,3.034,3.034,0,0,1-.762-.6A2.361,2.361,0,0,1,95.9,16a3.157,3.157,0,0,1-.161-1.064,2.74,2.74,0,0,1,.366-1.445,2.991,2.991,0,0,1,.977-.991,4.462,4.462,0,0,1,1.4-.566,7.281,7.281,0,0,1,1.636-.181,9.076,9.076,0,0,1,1.348.1,10.059,10.059,0,0,1,1.348.3v2.383a4.87,4.87,0,0,0-1.255-.513,5.294,5.294,0,0,0-1.313-.171,2.91,2.91,0,0,0-.571.054,1.882,1.882,0,0,0-.474.156.87.87,0,0,0-.322.264.607.607,0,0,0-.117.366.677.677,0,0,0,.176.469,1.527,1.527,0,0,0,.459.337,4.531,4.531,0,0,0,.63.254q.347.112.688.229a8.951,8.951,0,0,1,1.113.469,3.56,3.56,0,0,1,.854.6,2.339,2.339,0,0,1,.547.8,3.2,3.2,0,0,1-.2,2.612,3.088,3.088,0,0,1-1.025,1.025,4.65,4.65,0,0,1-1.475.576,8.175,8.175,0,0,1-1.733.181A8.936,8.936,0,0,1,95.742,21.736Zm23.369-11.172H114.17V14h4.541v2.559H114.17V22h-3.154V8h8.1Zm6.768,11.68a5.376,5.376,0,0,1-3.931-1.4,5.081,5.081,0,0,1-1.431-3.8A5.081,5.081,0,0,1,122,13.157a5.609,5.609,0,0,1,4.014-1.4,5.311,5.311,0,0,1,3.906,1.4,4.981,4.981,0,0,1,1.416,3.706,5.288,5.288,0,0,1-1.46,3.936A5.435,5.435,0,0,1,125.879,22.244Zm.078-8.125a2.058,2.058,0,0,0-1.7.752A3.316,3.316,0,0,0,123.652,17q0,2.881,2.324,2.881,2.217,0,2.217-2.959Q128.193,14.119,125.957,14.119Zm14.961,7.52a6.1,6.1,0,0,1-3.018.605,5.1,5.1,0,0,1-3.73-1.4,4.823,4.823,0,0,1-1.426-3.6,5.313,5.313,0,0,1,1.528-4.019,5.648,5.648,0,0,1,4.087-1.47,5.244,5.244,0,0,1,2.559.469v2.617a3.518,3.518,0,0,0-2.158-.723,2.844,2.844,0,0,0-2.1.776,2.9,2.9,0,0,0-.776,2.144,2.85,2.85,0,0,0,.742,2.085,2.728,2.728,0,0,0,2.041.757,4.073,4.073,0,0,0,2.256-.723Zm6.787.605a5.376,5.376,0,0,1-3.931-1.4,5.081,5.081,0,0,1-1.431-3.8,5.081,5.081,0,0,1,1.484-3.882,5.609,5.609,0,0,1,4.014-1.4,5.311,5.311,0,0,1,3.906,1.4,4.981,4.981,0,0,1,1.416,3.706A5.288,5.288,0,0,1,151.7,20.8,5.435,5.435,0,0,1,147.705,22.244Zm.078-8.125a2.058,2.058,0,0,0-1.7.752A3.316,3.316,0,0,0,145.479,17q0,2.881,2.324,2.881,2.217,0,2.217-2.959Q150.02,14.119,147.783,14.119Z" transform="translate(827 4405)" fill="#002b45"/>
    <path id="Trazado_49029" data-name="Trazado 49029" d="M58.452,22h-8.4V8H58.13v2.568H53.208V13.68h4.58v2.559h-4.58v3.2h5.244Zm11.6,0H66.978V16.443q0-2.324-1.66-2.324A1.647,1.647,0,0,0,64,14.734a2.344,2.344,0,0,0-.518,1.563V22H60.4V12h3.086v1.582h.039a3.536,3.536,0,0,1,3.213-1.826q3.32,0,3.32,4.121Zm8.486-.117a4.561,4.561,0,0,1-2.061.361q-3.262,0-3.262-3.389v-4.58H71.6V12h1.621V9.842l3.076-.879V12H78.54v2.275H76.294v4.043q0,1.562,1.24,1.563A2.091,2.091,0,0,0,78.54,19.6Zm8.262-7.1a2.677,2.677,0,0,0-1.3-.3,1.871,1.871,0,0,0-1.572.737,3.217,3.217,0,0,0-.566,2.007V22H80.278V12h3.086v1.855H83.4a2.67,2.67,0,0,1,2.637-2.031,1.987,1.987,0,0,1,.762.117Zm10.342,3.1H90.62q.156,2.178,2.744,2.178a5.357,5.357,0,0,0,2.9-.781V21.5a7.619,7.619,0,0,1-3.6.742A5.073,5.073,0,0,1,88.9,20.9a5.073,5.073,0,0,1-1.338-3.745,5.352,5.352,0,0,1,1.445-3.945,4.815,4.815,0,0,1,3.555-1.455,4.37,4.37,0,0,1,3.384,1.3,5,5,0,0,1,1.2,3.525Zm-2.861-1.895q0-2.148-1.738-2.148a1.66,1.66,0,0,0-1.284.615,2.792,2.792,0,0,0-.659,1.533ZM108.5,12,104.78,22h-3.516L97.72,12h3.3l1.738,6.162a9,9,0,0,1,.342,1.777h.039a10.086,10.086,0,0,1,.361-1.719L105.278,12Zm2.881-1.582a1.8,1.8,0,0,1-1.279-.464,1.5,1.5,0,0,1-.5-1.138,1.441,1.441,0,0,1,.5-1.133,2.089,2.089,0,0,1,2.563,0,1.448,1.448,0,0,1,.493,1.133,1.489,1.489,0,0,1-.493,1.152A1.833,1.833,0,0,1,111.382,10.418ZM112.905,22h-3.086V12h3.086Zm1.943-.264v-2.5a6.57,6.57,0,0,0,1.519.684,5.035,5.035,0,0,0,1.431.225,3.068,3.068,0,0,0,1.294-.225.726.726,0,0,0,.474-.684.632.632,0,0,0-.215-.488,2,2,0,0,0-.552-.342,6.261,6.261,0,0,0-.737-.264q-.4-.117-.771-.264a7.392,7.392,0,0,1-1.05-.483,3.034,3.034,0,0,1-.762-.6A2.361,2.361,0,0,1,115.01,16a3.157,3.157,0,0,1-.161-1.064,2.74,2.74,0,0,1,.366-1.445,2.991,2.991,0,0,1,.977-.991,4.462,4.462,0,0,1,1.4-.566,7.281,7.281,0,0,1,1.636-.181,9.076,9.076,0,0,1,1.348.1,10.059,10.059,0,0,1,1.348.3v2.383a4.87,4.87,0,0,0-1.255-.513,5.294,5.294,0,0,0-1.313-.171,2.91,2.91,0,0,0-.571.054,1.882,1.882,0,0,0-.474.156.87.87,0,0,0-.322.264.607.607,0,0,0-.117.366.677.677,0,0,0,.176.469,1.527,1.527,0,0,0,.459.337,4.531,4.531,0,0,0,.63.254q.347.112.688.229a8.951,8.951,0,0,1,1.113.469,3.56,3.56,0,0,1,.854.6,2.339,2.339,0,0,1,.547.8,3.2,3.2,0,0,1-.2,2.612,3.088,3.088,0,0,1-1.025,1.025,4.65,4.65,0,0,1-1.475.576,8.175,8.175,0,0,1-1.733.181A8.936,8.936,0,0,1,114.849,21.736Zm15.5.146a4.561,4.561,0,0,1-2.061.361q-3.262,0-3.262-3.389v-4.58H123.4V12h1.621V9.842l3.076-.879V12h2.246v2.275H128.1v4.043q0,1.562,1.24,1.563a2.091,2.091,0,0,0,1.006-.283ZM140.405,22h-2.92V20.564h-.039a3.259,3.259,0,0,1-2.979,1.68,3.116,3.116,0,0,1-2.29-.825,2.957,2.957,0,0,1-.835-2.2q0-2.91,3.447-3.359L137.5,15.5q0-1.641-1.777-1.641a6.067,6.067,0,0,0-3.4,1.064V12.6a7.646,7.646,0,0,1,1.763-.586,9.266,9.266,0,0,1,2.036-.254q4.277,0,4.277,4.268Zm-2.9-4.062v-.674l-1.816.234q-1.5.2-1.5,1.357a1.122,1.122,0,0,0,.366.864,1.407,1.407,0,0,0,.991.337,1.827,1.827,0,0,0,1.416-.6A2.169,2.169,0,0,0,137.5,17.938Z" transform="translate(418 4478)" fill="#002b45"/>
    <path id="Trazado_49030" data-name="Trazado 49030" d="M56.016,22h-8.4V8h8.076v2.568H50.771V13.68h4.58v2.559h-4.58v3.2h5.244ZM64,21.883a4.561,4.561,0,0,1-2.061.361q-3.262,0-3.262-3.389v-4.58H57.061V12h1.621V9.842l3.076-.879V12H64v2.275H61.758v4.043q0,1.562,1.24,1.563A2.091,2.091,0,0,0,64,19.6ZM75.4,22H72.324V16.443q0-2.324-1.66-2.324a1.647,1.647,0,0,0-1.318.615,2.344,2.344,0,0,0-.518,1.563V22H65.742V12h3.086v1.582h.039a3.536,3.536,0,0,1,3.213-1.826q3.32,0,3.32,4.121Zm7.207.244a5.376,5.376,0,0,1-3.931-1.4,5.081,5.081,0,0,1-1.431-3.8,5.081,5.081,0,0,1,1.484-3.882,5.609,5.609,0,0,1,4.014-1.4,5.311,5.311,0,0,1,3.906,1.4,4.981,4.981,0,0,1,1.416,3.706,5.288,5.288,0,0,1-1.46,3.936A5.435,5.435,0,0,1,82.607,22.244Zm.078-8.125a2.058,2.058,0,0,0-1.7.752A3.316,3.316,0,0,0,80.381,17q0,2.881,2.324,2.881,2.217,0,2.217-2.959Q84.922,14.119,82.686,14.119Zm17.188,6.738a5.658,5.658,0,0,1-1.611,4.312A6.53,6.53,0,0,1,93.594,26.7a7.4,7.4,0,0,1-3.2-.576v-2.6a6.134,6.134,0,0,0,3.115.9,3.355,3.355,0,0,0,2.422-.825,2.961,2.961,0,0,0,.859-2.241v-.791h-.039a3.446,3.446,0,0,1-3.115,1.68A3.747,3.747,0,0,1,90.6,20.9a5.465,5.465,0,0,1-1.123-3.613,6.087,6.087,0,0,1,1.25-4.033,4.081,4.081,0,0,1,3.291-1.494,3.037,3.037,0,0,1,2.734,1.406h.039V12h3.086ZM96.826,17.2V16.4a2.431,2.431,0,0,0-.562-1.616,1.816,1.816,0,0,0-1.46-.669,1.888,1.888,0,0,0-1.611.8,3.766,3.766,0,0,0-.586,2.256,3.178,3.178,0,0,0,.557,1.978,1.814,1.814,0,0,0,1.523.728,1.888,1.888,0,0,0,1.548-.737A3.023,3.023,0,0,0,96.826,17.2Zm12.148-2.412a2.677,2.677,0,0,0-1.3-.3,1.871,1.871,0,0,0-1.572.737,3.217,3.217,0,0,0-.566,2.007V22h-3.086V12h3.086v1.855h.039a2.67,2.67,0,0,1,2.637-2.031,1.987,1.987,0,0,1,.762.117ZM118.73,22h-2.92V20.564h-.039a3.259,3.259,0,0,1-2.979,1.68,3.116,3.116,0,0,1-2.29-.825,2.957,2.957,0,0,1-.835-2.2q0-2.91,3.447-3.359l2.715-.361q0-1.641-1.777-1.641a6.067,6.067,0,0,0-3.4,1.064V12.6a7.646,7.646,0,0,1,1.763-.586,9.266,9.266,0,0,1,2.036-.254q4.277,0,4.277,4.268Zm-2.9-4.062v-.674l-1.816.234q-1.5.2-1.5,1.357a1.122,1.122,0,0,0,.366.864,1.407,1.407,0,0,0,.991.337,1.827,1.827,0,0,0,1.416-.6A2.169,2.169,0,0,0,115.83,17.938ZM127.7,9.559a3.117,3.117,0,0,0-1.143-.234q-1.484,0-1.484,1.611V12h2.285v2.275h-2.285V22h-3.076V14.275h-1.68V12h1.68V10.76a3.6,3.6,0,0,1,1.113-2.754,4.246,4.246,0,0,1,3.027-1.045,5.316,5.316,0,0,1,1.563.2ZM131.924,22h-3.086V12h3.086Zm1.592-14.736-3.057,3.154h-2.227l2.539-3.154ZM142.842,22h-2.92V20.564h-.039a3.259,3.259,0,0,1-2.979,1.68,3.116,3.116,0,0,1-2.29-.825,2.957,2.957,0,0,1-.835-2.2q0-2.91,3.447-3.359l2.715-.361q0-1.641-1.777-1.641a6.067,6.067,0,0,0-3.4,1.064V12.6a7.646,7.646,0,0,1,1.763-.586,9.266,9.266,0,0,1,2.036-.254q4.277,0,4.277,4.268Zm-2.9-4.062v-.674l-1.816.234q-1.5.2-1.5,1.357a1.122,1.122,0,0,0,.366.864,1.407,1.407,0,0,0,.991.337,1.827,1.827,0,0,0,1.416-.6A2.169,2.169,0,0,0,139.941,17.938Z" transform="translate(656 4646)" fill="#002b45"/>
  </g>
</svg>
