<svg xmlns="http://www.w3.org/2000/svg" width="810.371" height="482.244" viewBox="0 0 810.371 482.244">
  <g id="Grupo_24036" data-name="Grupo 24036" transform="translate(-292.681 -1798)">
    <g id="Grupo_23964" data-name="Grupo 23964" transform="translate(1166.24 2318.197) rotate(180)">
      <g id="Grupo_23963" data-name="Grupo 23963" transform="translate(89.288 59.954)">
        <g id="Grupo_23957" data-name="Grupo 23957" transform="translate(103.387 78.8)">
          <g id="Grupo_23954" data-name="Grupo 23954">
            <path id="Trazado_20591" data-name="Trazado 20591" d="M681.65,470.935a1.428,1.428,0,0,1-.464-.079,1.4,1.4,0,0,1-.854-1.78,279.6,279.6,0,0,0,15.8-92.912c0-154.556-125.741-280.3-280.3-280.3s-280.295,125.741-280.295,280.3a279.572,279.572,0,0,0,15.793,92.907,1.4,1.4,0,1,1-2.634.925,282.354,282.354,0,0,1-15.953-93.833c0-156.1,126.993-283.091,283.088-283.091S698.918,220.069,698.918,376.165A282.358,282.358,0,0,1,682.965,470,1.393,1.393,0,0,1,681.65,470.935Z" transform="translate(-132.742 -93.074)"/>
          </g>
          <g id="Grupo_23955" data-name="Grupo 23955" transform="translate(543.683 370.943)">
            <path id="Trazado_20592" data-name="Trazado 20592" d="M371.461,255.949a5.248,5.248,0,1,1-3.241-6.676A5.252,5.252,0,0,1,371.461,255.949Z" transform="translate(-361.252 -248.981)"/>
          </g>
          <g id="Grupo_23956" data-name="Grupo 23956" transform="translate(11.995 370.943)">
            <path id="Trazado_20593" data-name="Trazado 20593" d="M138.075,255.949a5.248,5.248,0,1,0,3.238-6.676A5.25,5.25,0,0,0,138.075,255.949Z" transform="translate(-137.784 -248.981)"/>
          </g>
        </g>
        <g id="Grupo_23958" data-name="Grupo 23958" transform="translate(306.278)">
          <circle id="Elipse_895" data-name="Elipse 895" cx="80.197" cy="80.197" r="80.197" fill="#fff"/>
          <circle id="Elipse_896" data-name="Elipse 896" cx="62.083" cy="62.083" r="62.083" transform="translate(18.114 18.114)" fill="#c74653"/>
        </g>
        <g id="Grupo_23959" data-name="Grupo 23959" transform="translate(0 229.038)">
          <circle id="Elipse_897" data-name="Elipse 897" cx="80.197" cy="80.197" r="80.197" transform="translate(0 61.38) rotate(-22.5)" fill="#fff"/>
          <circle id="Elipse_898" data-name="Elipse 898" cx="62.083" cy="62.083" r="62.083" transform="translate(42.699 42.7)" fill="#f0c068"/>
        </g>
        <g id="Grupo_23960" data-name="Grupo 23960" transform="translate(551.071 220.405)">
          <circle id="Elipse_899" data-name="Elipse 899" cx="80.197" cy="80.197" r="80.197" transform="translate(0 113.416) rotate(-45)" fill="#fff"/>
          <circle id="Elipse_900" data-name="Elipse 900" cx="62.083" cy="62.083" r="62.083" transform="translate(51.333 51.333)" fill="#f0c068"/>
        </g>
        <g id="Grupo_23961" data-name="Grupo 23961" transform="translate(99.281 56.017)">
          <circle id="Elipse_901" data-name="Elipse 901" cx="80.197" cy="80.197" r="80.197" transform="matrix(0.23, -0.973, 0.973, 0.23, 0, 156.104)" fill="#fff"/>
          <circle id="Elipse_902" data-name="Elipse 902" cx="62.083" cy="62.083" r="62.083" transform="translate(34.394 34.394)" fill="#ee8d3f"/>
        </g>
        <g id="Grupo_23962" data-name="Grupo 23962" transform="translate(470.744 48.046)">
          <circle id="Elipse_903" data-name="Elipse 903" cx="80.197" cy="80.197" r="80.197" transform="translate(0 61.38) rotate(-22.5)" fill="#fff"/>
          <circle id="Elipse_904" data-name="Elipse 904" cx="62.083" cy="62.083" r="62.083" transform="translate(42.699 42.7)" fill="#ee8d3f"/>
        </g>
      </g>
    </g>
    <path id="Trazado_49060" data-name="Trazado 49060" d="M22.7,86.977q-20,0-20-28.086,0-14.57,5.41-22.207t15.684-7.637q19.531,0,19.531,28.555,0,14.219-5.332,21.8T22.7,86.977Zm.547-48.516q-8.008,0-8.008,20.117,0,18.945,7.852,18.945,7.656,0,7.656-19.531T23.242,38.461Zm55.273-9.727V86h-12.3V42.641a14.736,14.736,0,0,1-2.4,1.7,24.8,24.8,0,0,1-2.949,1.445,26.334,26.334,0,0,1-3.242,1.094,23.681,23.681,0,0,1-3.32.645V37.133a51.328,51.328,0,0,0,9.063-3.594,51.574,51.574,0,0,0,7.7-4.8Z" transform="translate(364 1873)" fill="#fff"/>
    <path id="Trazado_49061" data-name="Trazado 49061" d="M22.7,86.977q-20,0-20-28.086,0-14.57,5.41-22.207t15.684-7.637q19.531,0,19.531,28.555,0,14.219-5.332,21.8T22.7,86.977Zm.547-48.516q-8.008,0-8.008,20.117,0,18.945,7.852,18.945,7.656,0,7.656-19.531T23.242,38.461Zm39.531,37.3h23.75V86H49.258V81.781A19.636,19.636,0,0,1,50.7,74.066a25.6,25.6,0,0,1,3.633-6.133,31.511,31.511,0,0,1,4.785-4.8q2.6-2.09,4.941-3.77Q66.523,57.6,68.379,56A24.6,24.6,0,0,0,71.5,52.816a12.1,12.1,0,0,0,1.895-3.2,9.526,9.526,0,0,0,.625-3.457,6.948,6.948,0,0,0-2.031-5.43q-2.031-1.836-6.211-1.836-7.227,0-13.828,5.742V33.773a29.684,29.684,0,0,1,16.484-4.727,24.345,24.345,0,0,1,7.637,1.113A16.157,16.157,0,0,1,81.8,33.344a13.578,13.578,0,0,1,3.574,5.02,16.94,16.94,0,0,1,1.23,6.582A18.559,18.559,0,0,1,85.41,51.82a21.126,21.126,0,0,1-3.164,5.469A28.7,28.7,0,0,1,77.7,61.8q-2.578,2.051-5.352,3.965Q70.469,67.094,68.73,68.4a34.255,34.255,0,0,0-3.066,2.578,14,14,0,0,0-2.109,2.48A4.282,4.282,0,0,0,62.773,75.766Z" transform="translate(453 2053)" fill="#fff"/>
    <path id="Trazado_49063" data-name="Trazado 49063" d="M22.7,86.977q-20,0-20-28.086,0-14.57,5.41-22.207t15.684-7.637q19.531,0,19.531,28.555,0,14.219-5.332,21.8T22.7,86.977Zm.547-48.516q-8.008,0-8.008,20.117,0,18.945,7.852,18.945,7.656,0,7.656-19.531T23.242,38.461Zm27.344,45.7V73.422a21.682,21.682,0,0,0,13.125,4.1q4.727,0,7.363-2.031a6.744,6.744,0,0,0,2.637-5.664,6.438,6.438,0,0,0-3.262-5.781q-3.262-2.031-8.965-2.031h-5.2V52.563h4.8q10.937,0,10.938-7.266,0-6.836-8.4-6.836A19.147,19.147,0,0,0,52.7,42.094V32.016a30.208,30.208,0,0,1,13.75-2.969q8.594,0,13.379,3.867a12.307,12.307,0,0,1,4.785,10.039q0,10.977-11.133,13.75v.2a15.135,15.135,0,0,1,9.375,4.316,12.17,12.17,0,0,1,3.438,8.77,15.029,15.029,0,0,1-5.742,12.422q-5.742,4.57-15.859,4.57Q56.016,86.977,50.586,84.164Z" transform="translate(640 2125)" fill="#fff"/>
    <path id="Trazado_49064" data-name="Trazado 49064" d="M22.7,86.977q-20,0-20-28.086,0-14.57,5.41-22.207t15.684-7.637q19.531,0,19.531,28.555,0,14.219-5.332,21.8T22.7,86.977Zm.547-48.516q-8.008,0-8.008,20.117,0,18.945,7.852,18.945,7.656,0,7.656-19.531T23.242,38.461ZM83.2,29.984V65.3h6.719v9.219H83.2V86H71.953V74.516H47.539V64.867q3.242-3.633,6.719-7.949t6.719-8.887q3.242-4.57,6.035-9.2a92.217,92.217,0,0,0,4.746-8.848ZM58.594,65.3H71.953V45.727q-1.367,2.539-2.969,5.137T65.625,55.98q-1.758,2.52-3.555,4.883T58.594,65.3Z" transform="translate(833 2053)" fill="#fff"/>
    <path id="Trazado_49059" data-name="Trazado 49059" d="M22.7,86.977q-20,0-20-28.086,0-14.57,5.41-22.207t15.684-7.637q19.531,0,19.531,28.555,0,14.219-5.332,21.8T22.7,86.977Zm.547-48.516q-8.008,0-8.008,20.117,0,18.945,7.852,18.945,7.656,0,7.656-19.531T23.242,38.461Zm28.32,46.094V74.008a23.026,23.026,0,0,0,12.227,3.516q4.883,0,7.637-2.324a7.823,7.823,0,0,0,2.754-6.309q0-8.32-11.758-8.32a87.066,87.066,0,0,0-10,.664l2.109-31.25H84.18V40.063H63.945l-.781,11.211q3.008-.234,5.2-.234,8.633,0,13.516,4.531t4.883,12.188a17.989,17.989,0,0,1-5.82,13.848q-5.82,5.371-15.781,5.371A33.769,33.769,0,0,1,51.563,84.555Z" transform="translate(922 1873)" fill="#fff"/>
    <path id="Trazado_49057" data-name="Trazado 49057" d="M14.766,8,9.941,22H6.367L1.6,8H5l2.92,9.746a6.98,6.98,0,0,1,.283,1.4h.059a7.893,7.893,0,0,1,.3-1.436L11.465,8Zm8.193,14h-2.92V20.564H20a3.259,3.259,0,0,1-2.979,1.68,3.116,3.116,0,0,1-2.29-.825,2.957,2.957,0,0,1-.835-2.2q0-2.91,3.447-3.359l2.715-.361q0-1.641-1.777-1.641a6.067,6.067,0,0,0-3.4,1.064V12.6a7.646,7.646,0,0,1,1.763-.586,9.266,9.266,0,0,1,2.036-.254q4.277,0,4.277,4.268Zm-2.9-4.062v-.674l-1.816.234q-1.5.2-1.5,1.357a1.122,1.122,0,0,0,.366.864,1.407,1.407,0,0,0,.991.337,1.827,1.827,0,0,0,1.416-.6A2.169,2.169,0,0,0,20.059,17.938ZM28.486,22H25.4V7.2h3.086Zm4.16-11.582a1.8,1.8,0,0,1-1.279-.464,1.5,1.5,0,0,1-.5-1.138,1.441,1.441,0,0,1,.5-1.133,2.089,2.089,0,0,1,2.563,0,1.448,1.448,0,0,1,.493,1.133,1.489,1.489,0,0,1-.493,1.152A1.833,1.833,0,0,1,32.646,10.418ZM34.17,22H31.084V12H34.17Zm12.383,0H43.467V20.623h-.039a3.46,3.46,0,0,1-3.1,1.621,3.791,3.791,0,0,1-3.018-1.323,5.478,5.478,0,0,1-1.143-3.7,5.962,5.962,0,0,1,1.26-3.975,4.109,4.109,0,0,1,3.3-1.494,2.808,2.808,0,0,1,2.7,1.387h.039V7.2h3.086Zm-3.027-4.863v-.752a2.366,2.366,0,0,0-.566-1.621,2,2,0,0,0-3.076.161,3.741,3.741,0,0,0-.576,2.212,3.237,3.237,0,0,0,.557,2.031,1.976,1.976,0,0,0,3.071-.039A3.134,3.134,0,0,0,43.525,17.137ZM57.471,22h-2.92V20.564h-.039a3.259,3.259,0,0,1-2.979,1.68,3.116,3.116,0,0,1-2.29-.825,2.957,2.957,0,0,1-.835-2.2q0-2.91,3.447-3.359L54.57,15.5q0-1.641-1.777-1.641a6.067,6.067,0,0,0-3.4,1.064V12.6a7.646,7.646,0,0,1,1.763-.586,9.266,9.266,0,0,1,2.036-.254q4.277,0,4.277,4.268Zm-2.9-4.062v-.674l-1.816.234q-1.5.2-1.5,1.357a1.122,1.122,0,0,0,.366.864,1.407,1.407,0,0,0,.991.337,1.827,1.827,0,0,0,1.416-.6A2.169,2.169,0,0,0,54.57,17.938Zm12.92,3.7a6.1,6.1,0,0,1-3.018.605,5.1,5.1,0,0,1-3.73-1.4,4.823,4.823,0,0,1-1.426-3.6,5.313,5.313,0,0,1,1.528-4.019,5.648,5.648,0,0,1,4.087-1.47,5.244,5.244,0,0,1,2.559.469v2.617a3.518,3.518,0,0,0-2.158-.723,2.844,2.844,0,0,0-2.1.776,2.9,2.9,0,0,0-.776,2.144,2.85,2.85,0,0,0,.742,2.085,2.728,2.728,0,0,0,2.041.757,4.073,4.073,0,0,0,2.256-.723Zm3.584-11.221a1.8,1.8,0,0,1-1.279-.464,1.5,1.5,0,0,1-.5-1.138,1.441,1.441,0,0,1,.5-1.133,2.089,2.089,0,0,1,2.563,0,1.448,1.448,0,0,1,.493,1.133,1.489,1.489,0,0,1-.493,1.152A1.833,1.833,0,0,1,71.074,10.418ZM72.6,22H69.512V12H72.6Zm7.363.244a5.376,5.376,0,0,1-3.931-1.4,5.081,5.081,0,0,1-1.431-3.8,5.081,5.081,0,0,1,1.484-3.882,5.609,5.609,0,0,1,4.014-1.4A5.311,5.311,0,0,1,84,13.157a4.981,4.981,0,0,1,1.416,3.706A5.288,5.288,0,0,1,83.96,20.8,5.435,5.435,0,0,1,79.961,22.244Zm.078-8.125a2.058,2.058,0,0,0-1.7.752A3.316,3.316,0,0,0,77.734,17q0,2.881,2.324,2.881,2.217,0,2.217-2.959Q82.275,14.119,80.039,14.119ZM83.35,7.264l-3.057,3.154H78.066l2.539-3.154ZM97.07,22H93.994V16.443q0-2.324-1.66-2.324a1.647,1.647,0,0,0-1.318.615A2.344,2.344,0,0,0,90.5,16.3V22H87.412V12H90.5v1.582h.039a3.536,3.536,0,0,1,3.213-1.826q3.32,0,3.32,4.121Zm17.48-10-4.062,10.8q-1.465,3.9-4.414,3.9a5.655,5.655,0,0,1-1.846-.254V23.982a2.6,2.6,0,0,0,1.338.361,1.671,1.671,0,0,0,1.66-1.123l.527-1.24L103.691,12h3.418l1.865,6.084a7.906,7.906,0,0,1,.273,1.338h.039a9.329,9.329,0,0,1,.322-1.318l1.885-6.1Zm15.742,5.879H123.77q.156,2.178,2.744,2.178a5.357,5.357,0,0,0,2.9-.781V21.5a7.619,7.619,0,0,1-3.6.742,5.073,5.073,0,0,1-3.76-1.343,5.073,5.073,0,0,1-1.338-3.745,5.352,5.352,0,0,1,1.445-3.945,4.815,4.815,0,0,1,3.555-1.455,4.37,4.37,0,0,1,3.384,1.3,5,5,0,0,1,1.2,3.525Zm-2.861-1.895q0-2.148-1.738-2.148a1.66,1.66,0,0,0-1.284.615,2.792,2.792,0,0,0-.659,1.533ZM141.914,22h-3.086V20.623h-.039a3.46,3.46,0,0,1-3.1,1.621,3.791,3.791,0,0,1-3.018-1.323,5.478,5.478,0,0,1-1.143-3.7,5.962,5.962,0,0,1,1.26-3.975,4.109,4.109,0,0,1,3.3-1.494,2.808,2.808,0,0,1,2.7,1.387h.039V7.2h3.086Zm-3.027-4.863v-.752a2.366,2.366,0,0,0-.566-1.621,2,2,0,0,0-3.076.161,3.741,3.741,0,0,0-.576,2.212,3.237,3.237,0,0,0,.557,2.031,1.976,1.976,0,0,0,3.071-.039A3.134,3.134,0,0,0,138.887,17.137Zm7.188-6.719a1.8,1.8,0,0,1-1.279-.464,1.5,1.5,0,0,1-.5-1.138,1.441,1.441,0,0,1,.5-1.133,2.089,2.089,0,0,1,2.563,0,1.448,1.448,0,0,1,.493,1.133,1.489,1.489,0,0,1-.493,1.152A1.833,1.833,0,0,1,146.074,10.418ZM147.6,22h-3.086V12H147.6Zm10.176-.361a6.1,6.1,0,0,1-3.018.605,5.1,5.1,0,0,1-3.73-1.4,4.823,4.823,0,0,1-1.426-3.6,5.313,5.313,0,0,1,1.528-4.019,5.648,5.648,0,0,1,4.087-1.47,5.244,5.244,0,0,1,2.559.469v2.617a3.518,3.518,0,0,0-2.158-.723,2.844,2.844,0,0,0-2.1.776,2.9,2.9,0,0,0-.776,2.144,2.85,2.85,0,0,0,.742,2.085,2.728,2.728,0,0,0,2.041.757,4.073,4.073,0,0,0,2.256-.723Zm3.584-11.221a1.8,1.8,0,0,1-1.279-.464,1.5,1.5,0,0,1-.5-1.138,1.441,1.441,0,0,1,.5-1.133,2.089,2.089,0,0,1,2.563,0,1.448,1.448,0,0,1,.493,1.133,1.489,1.489,0,0,1-.493,1.152A1.833,1.833,0,0,1,161.357,10.418ZM162.881,22h-3.086V12h3.086Zm7.363.244a5.376,5.376,0,0,1-3.931-1.4,5.081,5.081,0,0,1-1.431-3.8,5.081,5.081,0,0,1,1.484-3.882,5.609,5.609,0,0,1,4.014-1.4,5.311,5.311,0,0,1,3.906,1.4,4.981,4.981,0,0,1,1.416,3.706,5.288,5.288,0,0,1-1.46,3.936A5.435,5.435,0,0,1,170.244,22.244Zm.078-8.125a2.058,2.058,0,0,0-1.7.752A3.316,3.316,0,0,0,168.018,17q0,2.881,2.324,2.881,2.217,0,2.217-2.959Q172.559,14.119,170.322,14.119Zm3.311-6.855-3.057,3.154H168.35l2.539-3.154ZM187.354,22h-3.076V16.443q0-2.324-1.66-2.324a1.647,1.647,0,0,0-1.318.615,2.344,2.344,0,0,0-.518,1.563V22H177.7V12h3.086v1.582h.039a3.536,3.536,0,0,1,3.213-1.826q3.32,0,3.32,4.121Z" transform="translate(465 1900)" fill="#002b45"/>
    <path id="Trazado_49062" data-name="Trazado 49062" d="M48.6,21.5a9.235,9.235,0,0,1-4,.742,6.749,6.749,0,0,1-5.068-1.895A6.925,6.925,0,0,1,37.681,15.3a7.4,7.4,0,0,1,2.075-5.449,7.259,7.259,0,0,1,5.386-2.09,10.072,10.072,0,0,1,3.457.518v3.037a6.126,6.126,0,0,0-3.2-.84,4.249,4.249,0,0,0-3.184,1.24A4.6,4.6,0,0,0,41,15.076a4.514,4.514,0,0,0,1.143,3.237A4.036,4.036,0,0,0,45.22,19.52a6.561,6.561,0,0,0,3.379-.9Zm6.9.742a5.376,5.376,0,0,1-3.931-1.4,5.081,5.081,0,0,1-1.431-3.8,5.081,5.081,0,0,1,1.484-3.882,5.609,5.609,0,0,1,4.014-1.4,5.311,5.311,0,0,1,3.906,1.4,4.981,4.981,0,0,1,1.416,3.706A5.288,5.288,0,0,1,59.5,20.8,5.435,5.435,0,0,1,55.5,22.244Zm.078-8.125a2.058,2.058,0,0,0-1.7.752A3.316,3.316,0,0,0,53.276,17q0,2.881,2.324,2.881,2.217,0,2.217-2.959Q57.817,14.119,55.581,14.119ZM72.749,22H69.663V20.623h-.039a3.46,3.46,0,0,1-3.1,1.621,3.791,3.791,0,0,1-3.018-1.323,5.478,5.478,0,0,1-1.143-3.7,5.962,5.962,0,0,1,1.26-3.975,4.109,4.109,0,0,1,3.3-1.494,2.808,2.808,0,0,1,2.7,1.387h.039V7.2h3.086Zm-3.027-4.863v-.752a2.366,2.366,0,0,0-.566-1.621,2,2,0,0,0-3.076.161,3.741,3.741,0,0,0-.576,2.212,3.237,3.237,0,0,0,.557,2.031,1.976,1.976,0,0,0,3.071-.039A3.134,3.134,0,0,0,69.722,17.137Zm7.188-6.719a1.8,1.8,0,0,1-1.279-.464,1.5,1.5,0,0,1-.5-1.138,1.441,1.441,0,0,1,.5-1.133,2.089,2.089,0,0,1,2.563,0,1.448,1.448,0,0,1,.493,1.133,1.489,1.489,0,0,1-.493,1.152A1.833,1.833,0,0,1,76.909,10.418ZM78.433,22H75.347V12h3.086ZM87.554,9.559a3.117,3.117,0,0,0-1.143-.234q-1.484,0-1.484,1.611V12h2.285v2.275H84.927V22H81.851V14.275h-1.68V12h1.68V10.76a3.6,3.6,0,0,1,1.113-2.754,4.246,4.246,0,0,1,3.027-1.045,5.316,5.316,0,0,1,1.563.2Zm2.705.859a1.8,1.8,0,0,1-1.279-.464,1.5,1.5,0,0,1-.5-1.138,1.441,1.441,0,0,1,.5-1.133,2.089,2.089,0,0,1,2.563,0,1.448,1.448,0,0,1,.493,1.133,1.489,1.489,0,0,1-.493,1.152A1.833,1.833,0,0,1,90.259,10.418ZM91.782,22H88.7V12h3.086Zm10.176-.361a6.1,6.1,0,0,1-3.018.605,5.1,5.1,0,0,1-3.73-1.4,4.823,4.823,0,0,1-1.426-3.6,5.313,5.313,0,0,1,1.528-4.019,5.648,5.648,0,0,1,4.087-1.47,5.244,5.244,0,0,1,2.559.469v2.617a3.518,3.518,0,0,0-2.158-.723,2.844,2.844,0,0,0-2.1.776,2.9,2.9,0,0,0-.776,2.144,2.85,2.85,0,0,0,.742,2.085,2.728,2.728,0,0,0,2.041.757,4.073,4.073,0,0,0,2.256-.723ZM112.3,22h-2.92V20.564h-.039a3.259,3.259,0,0,1-2.979,1.68,3.116,3.116,0,0,1-2.29-.825,2.957,2.957,0,0,1-.835-2.2q0-2.91,3.447-3.359L109.4,15.5q0-1.641-1.777-1.641a6.067,6.067,0,0,0-3.4,1.064V12.6a7.646,7.646,0,0,1,1.763-.586,9.266,9.266,0,0,1,2.036-.254q4.277,0,4.277,4.268Zm-2.9-4.062v-.674l-1.816.234q-1.5.2-1.5,1.357a1.122,1.122,0,0,0,.366.864,1.407,1.407,0,0,0,.991.337,1.827,1.827,0,0,0,1.416-.6A2.169,2.169,0,0,0,109.4,17.938Zm12.92,3.7a6.1,6.1,0,0,1-3.018.605,5.1,5.1,0,0,1-3.73-1.4,4.823,4.823,0,0,1-1.426-3.6,5.313,5.313,0,0,1,1.528-4.019,5.648,5.648,0,0,1,4.087-1.47,5.244,5.244,0,0,1,2.559.469v2.617a3.518,3.518,0,0,0-2.158-.723,2.844,2.844,0,0,0-2.1.776,2.9,2.9,0,0,0-.776,2.144,2.85,2.85,0,0,0,.742,2.085,2.728,2.728,0,0,0,2.041.757,4.073,4.073,0,0,0,2.256-.723ZM125.9,10.418a1.8,1.8,0,0,1-1.279-.464,1.5,1.5,0,0,1-.5-1.138,1.441,1.441,0,0,1,.5-1.133,2.089,2.089,0,0,1,2.563,0,1.448,1.448,0,0,1,.493,1.133,1.489,1.489,0,0,1-.493,1.152A1.833,1.833,0,0,1,125.9,10.418ZM127.427,22h-3.086V12h3.086Zm7.363.244a5.376,5.376,0,0,1-3.931-1.4,5.081,5.081,0,0,1-1.431-3.8,5.081,5.081,0,0,1,1.484-3.882,5.609,5.609,0,0,1,4.014-1.4,5.311,5.311,0,0,1,3.906,1.4,4.981,4.981,0,0,1,1.416,3.706,5.288,5.288,0,0,1-1.46,3.936A5.435,5.435,0,0,1,134.79,22.244Zm.078-8.125a2.058,2.058,0,0,0-1.7.752A3.316,3.316,0,0,0,132.563,17q0,2.881,2.324,2.881,2.217,0,2.217-2.959Q137.1,14.119,134.868,14.119Zm3.311-6.855-3.057,3.154H132.9l2.539-3.154ZM151.9,22h-3.076V16.443q0-2.324-1.66-2.324a1.647,1.647,0,0,0-1.318.615,2.344,2.344,0,0,0-.518,1.563V22h-3.086V12h3.086v1.582h.039a3.536,3.536,0,0,1,3.213-1.826q3.32,0,3.32,4.121Z" transform="translate(255 2099)" fill="#002b45"/>
    <path id="Trazado_49066" data-name="Trazado 49066" d="M25.747,22h-8.4V8h8.076v2.568H20.5V13.68h4.58v2.559H20.5v3.2h5.244Zm11.6,0H34.272V16.443q0-2.324-1.66-2.324a1.647,1.647,0,0,0-1.318.615,2.344,2.344,0,0,0-.518,1.563V22H27.69V12h3.086v1.582h.039a3.536,3.536,0,0,1,3.213-1.826q3.32,0,3.32,4.121Zm8.486-.117a4.561,4.561,0,0,1-2.061.361q-3.262,0-3.262-3.389v-4.58H38.892V12h1.621V9.842l3.076-.879V12h2.246v2.275H43.589v4.043q0,1.562,1.24,1.563a2.091,2.091,0,0,0,1.006-.283Zm8.262-7.1a2.677,2.677,0,0,0-1.3-.3,1.871,1.871,0,0,0-1.572.737,3.217,3.217,0,0,0-.566,2.007V22H47.573V12h3.086v1.855H50.7a2.67,2.67,0,0,1,2.637-2.031,1.987,1.987,0,0,1,.762.117ZM63.853,22h-2.92V20.564h-.039a3.259,3.259,0,0,1-2.979,1.68,3.116,3.116,0,0,1-2.29-.825,2.957,2.957,0,0,1-.835-2.2q0-2.91,3.447-3.359l2.715-.361q0-1.641-1.777-1.641a6.067,6.067,0,0,0-3.4,1.064V12.6a7.646,7.646,0,0,1,1.763-.586,9.266,9.266,0,0,1,2.036-.254q4.277,0,4.277,4.268Zm-2.9-4.062v-.674l-1.816.234q-1.5.2-1.5,1.357A1.122,1.122,0,0,0,58,19.72a1.407,1.407,0,0,0,.991.337,1.827,1.827,0,0,0,1.416-.6A2.169,2.169,0,0,0,60.952,17.938ZM76.079,22H72.993V20.623h-.039a3.46,3.46,0,0,1-3.1,1.621,3.791,3.791,0,0,1-3.018-1.323,5.478,5.478,0,0,1-1.143-3.7,5.962,5.962,0,0,1,1.26-3.975,4.109,4.109,0,0,1,3.3-1.494,2.808,2.808,0,0,1,2.7,1.387h.039V7.2h3.086Zm-3.027-4.863v-.752a2.366,2.366,0,0,0-.566-1.621,2,2,0,0,0-3.076.161,3.741,3.741,0,0,0-.576,2.212,3.237,3.237,0,0,0,.557,2.031,1.976,1.976,0,0,0,3.071-.039A3.134,3.134,0,0,0,73.052,17.137ZM87,22h-2.92V20.564h-.039a3.259,3.259,0,0,1-2.979,1.68,3.116,3.116,0,0,1-2.29-.825,2.957,2.957,0,0,1-.835-2.2q0-2.91,3.447-3.359L84.1,15.5q0-1.641-1.777-1.641a6.067,6.067,0,0,0-3.4,1.064V12.6a7.646,7.646,0,0,1,1.763-.586,9.266,9.266,0,0,1,2.036-.254Q87,11.756,87,16.023Zm-2.9-4.062v-.674L82.28,17.5q-1.5.2-1.5,1.357a1.122,1.122,0,0,0,.366.864,1.407,1.407,0,0,0,.991.337,1.827,1.827,0,0,0,1.416-.6A2.169,2.169,0,0,0,84.1,17.938ZM104.741,22h-3.086V20.623h-.039a3.46,3.46,0,0,1-3.1,1.621A3.791,3.791,0,0,1,95.5,20.921a5.478,5.478,0,0,1-1.143-3.7,5.962,5.962,0,0,1,1.26-3.975,4.109,4.109,0,0,1,3.3-1.494,2.808,2.808,0,0,1,2.7,1.387h.039V7.2h3.086Zm-3.027-4.863v-.752a2.366,2.366,0,0,0-.566-1.621,2,2,0,0,0-3.076.161,3.741,3.741,0,0,0-.576,2.212,3.237,3.237,0,0,0,.557,2.031,1.976,1.976,0,0,0,3.071-.039A3.134,3.134,0,0,0,101.714,17.137Zm14.609.742H109.8q.156,2.178,2.744,2.178a5.357,5.357,0,0,0,2.9-.781V21.5a7.619,7.619,0,0,1-3.6.742,5.073,5.073,0,0,1-3.76-1.343,5.073,5.073,0,0,1-1.338-3.745,5.352,5.352,0,0,1,1.445-3.945,4.815,4.815,0,0,1,3.555-1.455,4.37,4.37,0,0,1,3.384,1.3,5,5,0,0,1,1.2,3.525Zm-2.861-1.895q0-2.148-1.738-2.148a1.66,1.66,0,0,0-1.284.615,2.792,2.792,0,0,0-.659,1.533Zm20,6.016h-3.086V20.623h-.039a3.46,3.46,0,0,1-3.1,1.621,3.791,3.791,0,0,1-3.018-1.323,5.478,5.478,0,0,1-1.143-3.7,5.962,5.962,0,0,1,1.26-3.975,4.109,4.109,0,0,1,3.3-1.494,2.808,2.808,0,0,1,2.7,1.387h.039V7.2h3.086Zm-3.027-4.863v-.752a2.366,2.366,0,0,0-.566-1.621,2,2,0,0,0-3.076.161,3.741,3.741,0,0,0-.576,2.212,3.237,3.237,0,0,0,.557,2.031,1.976,1.976,0,0,0,3.071-.039A3.134,3.134,0,0,0,130.435,17.137ZM144.38,22h-2.92V20.564h-.039a3.259,3.259,0,0,1-2.979,1.68,3.116,3.116,0,0,1-2.29-.825,2.957,2.957,0,0,1-.835-2.2q0-2.91,3.447-3.359l2.715-.361q0-1.641-1.777-1.641a6.067,6.067,0,0,0-3.4,1.064V12.6a7.646,7.646,0,0,1,1.763-.586,9.266,9.266,0,0,1,2.036-.254q4.277,0,4.277,4.268Zm-2.9-4.062v-.674l-1.816.234q-1.5.2-1.5,1.357a1.122,1.122,0,0,0,.366.864,1.407,1.407,0,0,0,.991.337,1.827,1.827,0,0,0,1.416-.6A2.169,2.169,0,0,0,141.479,17.938Zm11.387,3.945a4.561,4.561,0,0,1-2.061.361q-3.262,0-3.262-3.389v-4.58h-1.621V12h1.621V9.842l3.076-.879V12h2.246v2.275H150.62v4.043q0,1.562,1.24,1.563a2.091,2.091,0,0,0,1.006-.283Zm6.426.361a5.376,5.376,0,0,1-3.931-1.4,5.081,5.081,0,0,1-1.431-3.8,5.081,5.081,0,0,1,1.484-3.882,5.609,5.609,0,0,1,4.014-1.4,5.311,5.311,0,0,1,3.906,1.4,4.981,4.981,0,0,1,1.416,3.706,5.288,5.288,0,0,1-1.46,3.936A5.435,5.435,0,0,1,159.292,22.244Zm.078-8.125a2.058,2.058,0,0,0-1.7.752A3.316,3.316,0,0,0,157.065,17q0,2.881,2.324,2.881,2.217,0,2.217-2.959Q161.606,14.119,159.37,14.119Zm6.729,7.617v-2.5a6.57,6.57,0,0,0,1.519.684,5.035,5.035,0,0,0,1.431.225,3.068,3.068,0,0,0,1.294-.225.726.726,0,0,0,.474-.684.632.632,0,0,0-.215-.488,2,2,0,0,0-.552-.342,6.262,6.262,0,0,0-.737-.264q-.4-.117-.771-.264a7.392,7.392,0,0,1-1.05-.483,3.034,3.034,0,0,1-.762-.6A2.361,2.361,0,0,1,166.26,16a3.157,3.157,0,0,1-.161-1.064,2.74,2.74,0,0,1,.366-1.445,2.991,2.991,0,0,1,.977-.991,4.462,4.462,0,0,1,1.4-.566,7.281,7.281,0,0,1,1.636-.181,9.076,9.076,0,0,1,1.348.1,10.058,10.058,0,0,1,1.348.3v2.383a4.87,4.87,0,0,0-1.255-.513,5.294,5.294,0,0,0-1.313-.171,2.91,2.91,0,0,0-.571.054,1.882,1.882,0,0,0-.474.156.87.87,0,0,0-.322.264.607.607,0,0,0-.117.366.677.677,0,0,0,.176.469,1.527,1.527,0,0,0,.459.337,4.531,4.531,0,0,0,.63.254q.347.112.688.229a8.951,8.951,0,0,1,1.113.469,3.559,3.559,0,0,1,.854.6,2.339,2.339,0,0,1,.547.8,3.2,3.2,0,0,1-.2,2.612,3.088,3.088,0,0,1-1.025,1.025,4.65,4.65,0,0,1-1.475.576,8.175,8.175,0,0,1-1.733.181A8.936,8.936,0,0,1,166.1,21.736Z" transform="translate(603 2258)" fill="#002b45"/>
    <path id="Trazado_49065" data-name="Trazado 49065" d="M42.407,22V8h4.961q7.461,0,7.461,6.826a6.9,6.9,0,0,1-2.036,5.225A7.508,7.508,0,0,1,47.368,22Zm3.154-11.436v8.877h1.563a4.222,4.222,0,0,0,3.218-1.23,4.669,4.669,0,0,0,1.167-3.35,4.235,4.235,0,0,0-1.157-3.149A4.412,4.412,0,0,0,47.1,10.564Zm20.273,7.314H59.312q.156,2.178,2.744,2.178a5.357,5.357,0,0,0,2.9-.781V21.5a7.619,7.619,0,0,1-3.6.742,5.073,5.073,0,0,1-3.76-1.343,5.073,5.073,0,0,1-1.338-3.745A5.352,5.352,0,0,1,57.7,13.211a4.815,4.815,0,0,1,3.555-1.455,4.37,4.37,0,0,1,3.384,1.3,5,5,0,0,1,1.2,3.525Zm-2.861-1.895q0-2.148-1.738-2.148a1.66,1.66,0,0,0-1.284.615,2.792,2.792,0,0,0-.659,1.533ZM70.8,20.838h-.039V26.6H67.671V12h3.086v1.5H70.8a3.927,3.927,0,0,1,6.216-.415,5.676,5.676,0,0,1,1.06,3.628,6.152,6.152,0,0,1-1.235,4.014,4.028,4.028,0,0,1-3.286,1.514A3.114,3.114,0,0,1,70.8,20.838Zm-.088-4.1v.8a2.546,2.546,0,0,0,.547,1.689,1.78,1.78,0,0,0,1.436.654,1.892,1.892,0,0,0,1.636-.815,3.937,3.937,0,0,0,.581-2.31q0-2.637-2.051-2.637a1.926,1.926,0,0,0-1.548.718A2.863,2.863,0,0,0,70.708,16.736ZM89.575,22H86.5V20.477H86.45a3.49,3.49,0,0,1-3.057,1.768q-3.477,0-3.477-4.209V12h3.076v5.762q0,2.119,1.68,2.119A1.661,1.661,0,0,0,86,19.3a2.343,2.343,0,0,0,.5-1.577V12h3.076ZM98.7,14.783a2.677,2.677,0,0,0-1.3-.3,1.871,1.871,0,0,0-1.572.737,3.217,3.217,0,0,0-.566,2.007V22H92.173V12h3.086v1.855H95.3a2.67,2.67,0,0,1,2.637-2.031,1.987,1.987,0,0,1,.762.117ZM108.452,22h-2.92V20.564h-.039a3.259,3.259,0,0,1-2.979,1.68,3.116,3.116,0,0,1-2.29-.825,2.957,2.957,0,0,1-.835-2.2q0-2.91,3.447-3.359l2.715-.361q0-1.641-1.777-1.641a6.067,6.067,0,0,0-3.4,1.064V12.6a7.646,7.646,0,0,1,1.763-.586,9.266,9.266,0,0,1,2.036-.254q4.277,0,4.277,4.268Zm-2.9-4.062v-.674l-1.816.234q-1.5.2-1.5,1.357a1.122,1.122,0,0,0,.366.864,1.407,1.407,0,0,0,.991.337,1.827,1.827,0,0,0,1.416-.6A2.169,2.169,0,0,0,105.552,17.938Zm12.92,3.7a6.1,6.1,0,0,1-3.018.605,5.1,5.1,0,0,1-3.73-1.4,4.823,4.823,0,0,1-1.426-3.6,5.313,5.313,0,0,1,1.528-4.019,5.648,5.648,0,0,1,4.087-1.47,5.244,5.244,0,0,1,2.559.469v2.617a3.518,3.518,0,0,0-2.158-.723,2.844,2.844,0,0,0-2.1.776,2.9,2.9,0,0,0-.776,2.144,2.85,2.85,0,0,0,.742,2.085,2.728,2.728,0,0,0,2.041.757,4.073,4.073,0,0,0,2.256-.723Zm3.584-11.221a1.8,1.8,0,0,1-1.279-.464,1.5,1.5,0,0,1-.5-1.138,1.441,1.441,0,0,1,.5-1.133,2.089,2.089,0,0,1,2.563,0,1.448,1.448,0,0,1,.493,1.133,1.489,1.489,0,0,1-.493,1.152A1.833,1.833,0,0,1,122.056,10.418ZM123.579,22h-3.086V12h3.086Zm7.363.244a5.376,5.376,0,0,1-3.931-1.4,5.081,5.081,0,0,1-1.431-3.8,5.081,5.081,0,0,1,1.484-3.882,5.609,5.609,0,0,1,4.014-1.4,5.311,5.311,0,0,1,3.906,1.4,4.981,4.981,0,0,1,1.416,3.706,5.288,5.288,0,0,1-1.46,3.936A5.435,5.435,0,0,1,130.942,22.244Zm.078-8.125a2.058,2.058,0,0,0-1.7.752A3.316,3.316,0,0,0,128.716,17q0,2.881,2.324,2.881,2.217,0,2.217-2.959Q133.257,14.119,131.021,14.119Zm3.311-6.855-3.057,3.154h-2.227l2.539-3.154ZM148.052,22h-3.076V16.443q0-2.324-1.66-2.324a1.647,1.647,0,0,0-1.318.615,2.344,2.344,0,0,0-.518,1.563V22h-3.086V12h3.086v1.582h.039a3.536,3.536,0,0,1,3.213-1.826q3.32,0,3.32,4.121Z" transform="translate(955 2099)" fill="#002b45"/>
    <path id="Trazado_49058" data-name="Trazado 49058" d="M47.632,10.564H43.638V22H40.474V10.564H36.5V8H47.632ZM55.835,22h-2.92V20.564h-.039a3.259,3.259,0,0,1-2.979,1.68,3.116,3.116,0,0,1-2.29-.825,2.957,2.957,0,0,1-.835-2.2q0-2.91,3.447-3.359l2.715-.361q0-1.641-1.777-1.641a6.067,6.067,0,0,0-3.4,1.064V12.6a7.646,7.646,0,0,1,1.763-.586,9.266,9.266,0,0,1,2.036-.254q4.277,0,4.277,4.268Zm-2.9-4.062v-.674l-1.816.234q-1.5.2-1.5,1.357a1.122,1.122,0,0,0,.366.864,1.407,1.407,0,0,0,.991.337,1.827,1.827,0,0,0,1.416-.6A2.169,2.169,0,0,0,52.935,17.938Zm8.467,2.9h-.039V22H58.276V7.2h3.086V13.5H61.4a3.662,3.662,0,0,1,3.252-1.748,3.568,3.568,0,0,1,2.979,1.328,5.727,5.727,0,0,1,1.045,3.633,6.2,6.2,0,0,1-1.221,4.014,3.976,3.976,0,0,1-3.262,1.514A3.151,3.151,0,0,1,61.4,20.838Zm-.088-4.219v1.025a2.341,2.341,0,0,0,.557,1.6,1.811,1.811,0,0,0,1.426.635,1.892,1.892,0,0,0,1.636-.815,3.937,3.937,0,0,0,.581-2.31,3.132,3.132,0,0,0-.532-1.938,1.8,1.8,0,0,0-1.519-.7,1.962,1.962,0,0,0-1.538.693A2.634,2.634,0,0,0,61.313,16.619ZM80.181,22H77.1V20.477h-.049A3.49,3.49,0,0,1,74,22.244q-3.477,0-3.477-4.209V12H73.6v5.762q0,2.119,1.68,2.119a1.661,1.661,0,0,0,1.328-.581,2.343,2.343,0,0,0,.5-1.577V12h3.076Zm5.684,0H82.778V7.2h3.086Zm10.918,0h-2.92V20.564h-.039a3.259,3.259,0,0,1-2.979,1.68,3.116,3.116,0,0,1-2.29-.825,2.957,2.957,0,0,1-.835-2.2q0-2.91,3.447-3.359l2.715-.361q0-1.641-1.777-1.641a6.067,6.067,0,0,0-3.4,1.064V12.6a7.646,7.646,0,0,1,1.763-.586,9.266,9.266,0,0,1,2.036-.254q4.277,0,4.277,4.268Zm-2.9-4.062v-.674l-1.816.234q-1.5.2-1.5,1.357a1.122,1.122,0,0,0,.366.864,1.407,1.407,0,0,0,.991.337,1.827,1.827,0,0,0,1.416-.6A2.169,2.169,0,0,0,93.882,17.938Zm12.92,3.7a6.1,6.1,0,0,1-3.018.605,5.1,5.1,0,0,1-3.73-1.4,4.823,4.823,0,0,1-1.426-3.6,5.313,5.313,0,0,1,1.528-4.019,5.648,5.648,0,0,1,4.087-1.47,5.244,5.244,0,0,1,2.559.469v2.617a3.518,3.518,0,0,0-2.158-.723,2.844,2.844,0,0,0-2.1.776,2.9,2.9,0,0,0-.776,2.144,2.85,2.85,0,0,0,.742,2.085,2.728,2.728,0,0,0,2.041.757,4.073,4.073,0,0,0,2.256-.723Zm3.584-11.221a1.8,1.8,0,0,1-1.279-.464,1.5,1.5,0,0,1-.5-1.138,1.441,1.441,0,0,1,.5-1.133,2.089,2.089,0,0,1,2.563,0,1.448,1.448,0,0,1,.493,1.133,1.489,1.489,0,0,1-.493,1.152A1.833,1.833,0,0,1,110.386,10.418ZM111.909,22h-3.086V12h3.086Zm7.363.244a5.376,5.376,0,0,1-3.931-1.4,5.081,5.081,0,0,1-1.431-3.8,5.081,5.081,0,0,1,1.484-3.882,5.609,5.609,0,0,1,4.014-1.4,5.311,5.311,0,0,1,3.906,1.4,4.981,4.981,0,0,1,1.416,3.706,5.288,5.288,0,0,1-1.46,3.936A5.435,5.435,0,0,1,119.272,22.244Zm.078-8.125a2.058,2.058,0,0,0-1.7.752A3.316,3.316,0,0,0,117.046,17q0,2.881,2.324,2.881,2.217,0,2.217-2.959Q121.587,14.119,119.351,14.119Zm3.311-6.855L119.6,10.418h-2.227l2.539-3.154ZM136.382,22h-3.076V16.443q0-2.324-1.66-2.324a1.647,1.647,0,0,0-1.318.615,2.344,2.344,0,0,0-.518,1.563V22h-3.086V12h3.086v1.582h.039a3.536,3.536,0,0,1,3.213-1.826q3.32,0,3.32,4.121Zm17.48-10L149.8,22.8q-1.465,3.9-4.414,3.9a5.655,5.655,0,0,1-1.846-.254V23.982a2.6,2.6,0,0,0,1.338.361,1.671,1.671,0,0,0,1.66-1.123l.527-1.24L143,12h3.418l1.865,6.084a7.907,7.907,0,0,1,.273,1.338h.039a9.329,9.329,0,0,1,.322-1.318l1.885-6.1ZM17.563,45h-2.92V43.564H14.6a3.259,3.259,0,0,1-2.979,1.68,3.116,3.116,0,0,1-2.29-.825,2.957,2.957,0,0,1-.835-2.2q0-2.91,3.447-3.359l2.715-.361q0-1.641-1.777-1.641a6.067,6.067,0,0,0-3.4,1.064V35.6a7.645,7.645,0,0,1,1.763-.586,9.266,9.266,0,0,1,2.036-.254q4.277,0,4.277,4.268Zm-2.9-4.062v-.674l-1.816.234q-1.5.2-1.5,1.357a1.122,1.122,0,0,0,.366.864,1.407,1.407,0,0,0,.991.337,1.827,1.827,0,0,0,1.416-.6A2.169,2.169,0,0,0,14.663,40.938Zm15,4.063H26.587V39.443q0-2.324-1.66-2.324a1.647,1.647,0,0,0-1.318.615,2.344,2.344,0,0,0-.518,1.563V45H20V35h3.086v1.582h.039a3.536,3.536,0,0,1,3.213-1.826q3.32,0,3.32,4.121Zm10.762,0H37.5V43.564h-.039a3.259,3.259,0,0,1-2.979,1.68,3.116,3.116,0,0,1-2.29-.825,2.957,2.957,0,0,1-.835-2.2q0-2.91,3.447-3.359l2.715-.361q0-1.641-1.777-1.641a6.067,6.067,0,0,0-3.4,1.064V35.6a7.645,7.645,0,0,1,1.763-.586,9.266,9.266,0,0,1,2.036-.254q4.277,0,4.277,4.268Zm-2.9-4.062v-.674l-1.816.234q-1.5.2-1.5,1.357a1.122,1.122,0,0,0,.366.864,1.407,1.407,0,0,0,.991.337,1.827,1.827,0,0,0,1.416-.6A2.169,2.169,0,0,0,37.524,40.938Zm1.982-10.674L36.45,33.418H34.224l2.539-3.154ZM45.952,45H42.866V30.2h3.086Zm4.16-11.582a1.8,1.8,0,0,1-1.279-.464,1.5,1.5,0,0,1-.5-1.138,1.441,1.441,0,0,1,.5-1.133,2.089,2.089,0,0,1,2.563,0,1.448,1.448,0,0,1,.493,1.133,1.489,1.489,0,0,1-.493,1.152A1.833,1.833,0,0,1,50.112,33.418ZM51.636,45H48.55V35h3.086Zm1.943-.264v-2.5a6.57,6.57,0,0,0,1.519.684,5.035,5.035,0,0,0,1.431.225,3.068,3.068,0,0,0,1.294-.225.726.726,0,0,0,.474-.684.632.632,0,0,0-.215-.488,2,2,0,0,0-.552-.342,6.261,6.261,0,0,0-.737-.264q-.4-.117-.771-.264a7.391,7.391,0,0,1-1.05-.483,3.034,3.034,0,0,1-.762-.6A2.361,2.361,0,0,1,53.74,39a3.157,3.157,0,0,1-.161-1.064,2.74,2.74,0,0,1,.366-1.445,2.991,2.991,0,0,1,.977-.991,4.462,4.462,0,0,1,1.4-.566,7.281,7.281,0,0,1,1.636-.181,9.076,9.076,0,0,1,1.348.1,10.059,10.059,0,0,1,1.348.3v2.383a4.87,4.87,0,0,0-1.255-.513,5.293,5.293,0,0,0-1.313-.171,2.91,2.91,0,0,0-.571.054,1.882,1.882,0,0,0-.474.156.87.87,0,0,0-.322.264.607.607,0,0,0-.117.366.677.677,0,0,0,.176.469,1.527,1.527,0,0,0,.459.337,4.531,4.531,0,0,0,.63.254q.347.112.688.229a8.952,8.952,0,0,1,1.113.469,3.56,3.56,0,0,1,.854.6,2.339,2.339,0,0,1,.547.8,3.2,3.2,0,0,1-.2,2.612,3.088,3.088,0,0,1-1.025,1.025,4.65,4.65,0,0,1-1.475.576,8.175,8.175,0,0,1-1.733.181A8.936,8.936,0,0,1,53.579,44.736ZM64.595,33.418a1.8,1.8,0,0,1-1.279-.464,1.5,1.5,0,0,1-.5-1.138,1.441,1.441,0,0,1,.5-1.133,2.089,2.089,0,0,1,2.563,0,1.448,1.448,0,0,1,.493,1.133,1.489,1.489,0,0,1-.493,1.152A1.833,1.833,0,0,1,64.595,33.418ZM66.118,45H63.032V35h3.086Zm1.943-.264v-2.5a6.57,6.57,0,0,0,1.519.684,5.035,5.035,0,0,0,1.431.225A3.069,3.069,0,0,0,72.3,42.92a.726.726,0,0,0,.474-.684.632.632,0,0,0-.215-.488,2,2,0,0,0-.552-.342,6.261,6.261,0,0,0-.737-.264q-.4-.117-.771-.264a7.392,7.392,0,0,1-1.05-.483,3.034,3.034,0,0,1-.762-.6A2.361,2.361,0,0,1,68.223,39a3.157,3.157,0,0,1-.161-1.064,2.74,2.74,0,0,1,.366-1.445A2.991,2.991,0,0,1,69.4,35.5a4.462,4.462,0,0,1,1.4-.566,7.281,7.281,0,0,1,1.636-.181,9.076,9.076,0,0,1,1.348.1,10.059,10.059,0,0,1,1.348.3v2.383a4.87,4.87,0,0,0-1.255-.513,5.293,5.293,0,0,0-1.313-.171,2.91,2.91,0,0,0-.571.054,1.882,1.882,0,0,0-.474.156.87.87,0,0,0-.322.264.607.607,0,0,0-.117.366.677.677,0,0,0,.176.469,1.527,1.527,0,0,0,.459.337,4.531,4.531,0,0,0,.63.254q.347.112.688.229a8.952,8.952,0,0,1,1.113.469,3.56,3.56,0,0,1,.854.6,2.339,2.339,0,0,1,.547.8,3.2,3.2,0,0,1-.2,2.612,3.088,3.088,0,0,1-1.025,1.025,4.65,4.65,0,0,1-1.475.576,8.175,8.175,0,0,1-1.733.181A8.936,8.936,0,0,1,68.062,44.736Zm23.955-3.857H85.493q.156,2.178,2.744,2.178a5.358,5.358,0,0,0,2.9-.781V44.5a7.619,7.619,0,0,1-3.6.742,4.654,4.654,0,0,1-5.1-5.088,5.352,5.352,0,0,1,1.445-3.945,4.815,4.815,0,0,1,3.555-1.455,4.37,4.37,0,0,1,3.384,1.3,5,5,0,0,1,1.2,3.525Zm-2.861-1.895q0-2.148-1.738-2.148a1.66,1.66,0,0,0-1.284.615,2.792,2.792,0,0,0-.659,1.533ZM93.2,44.736v-2.5a6.57,6.57,0,0,0,1.519.684,5.035,5.035,0,0,0,1.431.225,3.069,3.069,0,0,0,1.294-.225.726.726,0,0,0,.474-.684.632.632,0,0,0-.215-.488,2,2,0,0,0-.552-.342,6.261,6.261,0,0,0-.737-.264q-.4-.117-.771-.264a7.392,7.392,0,0,1-1.05-.483,3.034,3.034,0,0,1-.762-.6A2.361,2.361,0,0,1,93.359,39a3.157,3.157,0,0,1-.161-1.064,2.74,2.74,0,0,1,.366-1.445,2.991,2.991,0,0,1,.977-.991,4.462,4.462,0,0,1,1.4-.566,7.281,7.281,0,0,1,1.636-.181,9.076,9.076,0,0,1,1.348.1,10.059,10.059,0,0,1,1.348.3v2.383a4.87,4.87,0,0,0-1.255-.513,5.293,5.293,0,0,0-1.313-.171,2.91,2.91,0,0,0-.571.054,1.882,1.882,0,0,0-.474.156.87.87,0,0,0-.322.264.607.607,0,0,0-.117.366.677.677,0,0,0,.176.469,1.527,1.527,0,0,0,.459.337,4.531,4.531,0,0,0,.63.254q.347.112.688.229a8.952,8.952,0,0,1,1.113.469,3.56,3.56,0,0,1,.854.6,2.339,2.339,0,0,1,.547.8,3.2,3.2,0,0,1-.2,2.612,3.088,3.088,0,0,1-1.025,1.025,4.65,4.65,0,0,1-1.475.576,8.175,8.175,0,0,1-1.733.181A8.936,8.936,0,0,1,93.2,44.736Zm15.5.146a4.561,4.561,0,0,1-2.061.361q-3.262,0-3.262-3.389v-4.58h-1.621V35h1.621V32.842l3.076-.879V35H108.7v2.275H106.45v4.043q0,1.563,1.24,1.563A2.091,2.091,0,0,0,108.7,42.6ZM118.755,45h-2.92V43.564H115.8a3.259,3.259,0,0,1-2.979,1.68,3.116,3.116,0,0,1-2.29-.825,2.957,2.957,0,0,1-.835-2.2q0-2.91,3.447-3.359l2.715-.361q0-1.641-1.777-1.641a6.067,6.067,0,0,0-3.4,1.064V35.6a7.645,7.645,0,0,1,1.763-.586,9.266,9.266,0,0,1,2.036-.254q4.277,0,4.277,4.268Zm-2.9-4.062v-.674l-1.816.234q-1.5.2-1.5,1.357a1.122,1.122,0,0,0,.366.864,1.407,1.407,0,0,0,.991.337,1.827,1.827,0,0,0,1.416-.6A2.169,2.169,0,0,0,115.854,40.938ZM130.981,45H127.9V43.623h-.039a3.46,3.46,0,0,1-3.1,1.621,3.791,3.791,0,0,1-3.018-1.323,5.478,5.478,0,0,1-1.143-3.7,5.962,5.962,0,0,1,1.26-3.975,4.109,4.109,0,0,1,3.3-1.494,2.808,2.808,0,0,1,2.7,1.387h.039V30.2h3.086Zm-3.027-4.863v-.752a2.366,2.366,0,0,0-.566-1.621,2,2,0,0,0-3.076.161,3.741,3.741,0,0,0-.576,2.212,3.237,3.237,0,0,0,.557,2.031,1.976,1.976,0,0,0,3.071-.039A3.134,3.134,0,0,0,127.954,40.137ZM136.665,45h-3.086V35h3.086Zm1.592-14.736L135.2,33.418h-2.227l2.539-3.154Zm.352,14.473v-2.5a6.57,6.57,0,0,0,1.519.684,5.035,5.035,0,0,0,1.431.225,3.068,3.068,0,0,0,1.294-.225.726.726,0,0,0,.474-.684.632.632,0,0,0-.215-.488,2,2,0,0,0-.552-.342,6.262,6.262,0,0,0-.737-.264q-.4-.117-.771-.264A7.391,7.391,0,0,1,140,40.4a3.034,3.034,0,0,1-.762-.6A2.361,2.361,0,0,1,138.77,39a3.157,3.157,0,0,1-.161-1.064,2.74,2.74,0,0,1,.366-1.445,2.991,2.991,0,0,1,.977-.991,4.462,4.462,0,0,1,1.4-.566,7.281,7.281,0,0,1,1.636-.181,9.076,9.076,0,0,1,1.348.1,10.058,10.058,0,0,1,1.348.3v2.383a4.87,4.87,0,0,0-1.255-.513,5.293,5.293,0,0,0-1.313-.171,2.91,2.91,0,0,0-.571.054,1.882,1.882,0,0,0-.474.156.87.87,0,0,0-.322.264.607.607,0,0,0-.117.366.677.677,0,0,0,.176.469,1.527,1.527,0,0,0,.459.337,4.531,4.531,0,0,0,.63.254q.347.112.688.229a8.952,8.952,0,0,1,1.113.469,3.559,3.559,0,0,1,.854.6,2.339,2.339,0,0,1,.547.8,3.2,3.2,0,0,1-.2,2.612,3.088,3.088,0,0,1-1.025,1.025,4.65,4.65,0,0,1-1.475.576,8.175,8.175,0,0,1-1.733.181A8.936,8.936,0,0,1,138.608,44.736Zm15.5.146a4.561,4.561,0,0,1-2.061.361q-3.262,0-3.262-3.389v-4.58h-1.621V35h1.621V32.842l3.076-.879V35h2.246v2.275H151.86v4.043q0,1.563,1.24,1.563a2.091,2.091,0,0,0,1.006-.283Zm3.3-11.465a1.8,1.8,0,0,1-1.279-.464,1.5,1.5,0,0,1-.5-1.138,1.441,1.441,0,0,1,.5-1.133,2.089,2.089,0,0,1,2.563,0,1.448,1.448,0,0,1,.493,1.133,1.489,1.489,0,0,1-.493,1.152A1.833,1.833,0,0,1,157.407,33.418ZM158.931,45h-3.086V35h3.086Zm10.176-.361a6.1,6.1,0,0,1-3.018.605,5.1,5.1,0,0,1-3.73-1.4,4.823,4.823,0,0,1-1.426-3.6,5.313,5.313,0,0,1,1.528-4.019,5.648,5.648,0,0,1,4.087-1.47,5.244,5.244,0,0,1,2.559.469v2.617a3.518,3.518,0,0,0-2.158-.723,2.844,2.844,0,0,0-2.1.776,2.9,2.9,0,0,0-.776,2.144,2.85,2.85,0,0,0,.742,2.085,2.728,2.728,0,0,0,2.041.757,4.073,4.073,0,0,0,2.256-.723Zm6.787.605a5.376,5.376,0,0,1-3.931-1.4,5.081,5.081,0,0,1-1.431-3.8,5.081,5.081,0,0,1,1.484-3.882,5.609,5.609,0,0,1,4.014-1.4,5.311,5.311,0,0,1,3.906,1.4,4.981,4.981,0,0,1,1.416,3.706,5.288,5.288,0,0,1-1.46,3.936A5.435,5.435,0,0,1,175.894,45.244Zm.078-8.125a2.058,2.058,0,0,0-1.7.752A3.316,3.316,0,0,0,173.667,40q0,2.881,2.324,2.881,2.217,0,2.217-2.959Q178.208,37.119,175.972,37.119Z" transform="translate(695 1901)" fill="#002b45"/>
  </g>
</svg>
