<svg xmlns="http://www.w3.org/2000/svg" width="108.795" height="103.232" viewBox="0 0 108.795 103.232">
  <g id="Grupo_24033" data-name="Grupo 24033" transform="translate(-710 -16647.385)">
    <g id="Grupo_23151" data-name="Grupo 23151" transform="translate(362.582 14325)">
      <path id="Trazado_12403" data-name="Trazado 12403" d="M-1875.37,363.37h71.6l37.192,50.053-37.192,53.181h-71.6Z" transform="translate(2222.788 1959.013)" fill="#97181a"/>
    </g>
    <path id="Trazado_49050" data-name="Trazado 49050" d="M27.378,32.455a10.911,10.911,0,0,0-4-.82q-5.2,0-5.2,5.64V41h8v7.964h-8V76H7.417V48.964H1.538V41H7.417V36.659a12.6,12.6,0,0,1,3.9-9.639q3.9-3.657,10.6-3.657a18.608,18.608,0,0,1,5.469.684Z" transform="translate(739 16653)" fill="#fff"/>
  </g>
</svg>
