<svg xmlns="http://www.w3.org/2000/svg" width="930" height="209.502" viewBox="0 0 930 209.502">
  <g id="Grupo_24037" data-name="Grupo 24037" transform="translate(-231 -2967.195)">
    <g id="Grupo_23993" data-name="Grupo 23993" transform="translate(222.381 2925.522)">
      <g id="Grupo_23971" data-name="Grupo 23971" transform="translate(8.619 59.108)">
        <g id="Grupo_23966" data-name="Grupo 23966" transform="translate(55.701 9.48)">
          <circle id="Elipse_905" data-name="Elipse 905" cx="74.407" cy="74.407" r="74.407" transform="translate(3.561 3.559)" fill="#f0c068"/>
          <g id="Grupo_23965" data-name="Grupo 23965">
            <path id="Trazado_20594" data-name="Trazado 20594" d="M115.473,219.957a77.967,77.967,0,1,1,77.967-77.969A78.058,78.058,0,0,1,115.473,219.957Zm0-148.814a70.846,70.846,0,1,0,70.845,70.845A70.927,70.927,0,0,0,115.473,71.144Z" transform="translate(-37.504 -64.024)" fill="#fff"/>
          </g>
        </g>
        <g id="Grupo_23970" data-name="Grupo 23970">
          <g id="Grupo_23967" data-name="Grupo 23967" transform="translate(4.239)">
            <path id="Trazado_20595" data-name="Trazado 20595" d="M271.45,147.147H226.507v-.594a86.26,86.26,0,0,0-172.519,0v.594H10.817v-1.186H52.8a87.446,87.446,0,0,1,174.887,0H271.45Z" transform="translate(-10.817 -59.108)"/>
          </g>
          <g id="Grupo_23968" data-name="Grupo 23968" transform="translate(0 82.984)">
            <path id="Trazado_20596" data-name="Trazado 20596" d="M13.081,111.064a4.461,4.461,0,1,1,4.46-4.46A4.462,4.462,0,0,1,13.081,111.064Z" transform="translate(-8.619 -102.141)"/>
          </g>
          <g id="Grupo_23969" data-name="Grupo 23969" transform="translate(260.186 82.984)">
            <path id="Trazado_20597" data-name="Trazado 20597" d="M148.005,111.064a4.461,4.461,0,1,0-4.462-4.46A4.462,4.462,0,0,0,148.005,111.064Z" transform="translate(-143.543 -102.141)"/>
          </g>
        </g>
      </g>
      <g id="Grupo_23978" data-name="Grupo 23978" transform="translate(228.168 83.483)">
        <g id="Grupo_23973" data-name="Grupo 23973" transform="translate(57.474)">
          <circle id="Elipse_906" data-name="Elipse 906" cx="74.407" cy="74.407" r="74.407" transform="translate(3.561 3.56)" fill="#ee8d3f"/>
          <g id="Grupo_23972" data-name="Grupo 23972">
            <path id="Trazado_20598" data-name="Trazado 20598" d="M230.243,227.681a77.967,77.967,0,1,1,77.965-77.967A78.056,78.056,0,0,1,230.243,227.681Zm0-148.814a70.847,70.847,0,1,0,70.845,70.847A70.927,70.927,0,0,0,230.243,78.868Z" transform="translate(-152.274 -71.748)" fill="#fff"/>
          </g>
        </g>
        <g id="Grupo_23977" data-name="Grupo 23977" transform="translate(0 73.504)">
          <g id="Grupo_23974" data-name="Grupo 23974" transform="translate(4.239 3.868)">
            <path id="Trazado_20599" data-name="Trazado 20599" d="M255.872,199.912a87.545,87.545,0,0,1-87.445-86.853H124.668v-1.188h44.943v.594a86.26,86.26,0,0,0,172.519,0v-.594H385.3v1.188H343.314A87.545,87.545,0,0,1,255.872,199.912Z" transform="translate(-124.668 -111.871)"/>
          </g>
          <g id="Grupo_23975" data-name="Grupo 23975" transform="translate(260.186)">
            <path id="Trazado_20600" data-name="Trazado 20600" d="M261.856,109.865a4.462,4.462,0,1,1-4.462,4.462A4.462,4.462,0,0,1,261.856,109.865Z" transform="translate(-257.394 -109.865)"/>
          </g>
          <g id="Grupo_23976" data-name="Grupo 23976">
            <path id="Trazado_20601" data-name="Trazado 20601" d="M126.932,109.865a4.462,4.462,0,1,0,4.46,4.462A4.462,4.462,0,0,0,126.932,109.865Z" transform="translate(-122.47 -109.865)"/>
          </g>
        </g>
      </g>
      <g id="Grupo_23985" data-name="Grupo 23985" transform="translate(449.96 59.108)">
        <g id="Grupo_23980" data-name="Grupo 23980" transform="translate(55.703 9.48)">
          <circle id="Elipse_907" data-name="Elipse 907" cx="74.407" cy="74.407" r="74.407" transform="translate(3.559 3.559)" fill="#c74653"/>
          <g id="Grupo_23979" data-name="Grupo 23979">
            <path id="Trazado_20602" data-name="Trazado 20602" d="M344.337,219.957A77.967,77.967,0,1,1,422.3,141.989,78.056,78.056,0,0,1,344.337,219.957Zm0-148.814a70.846,70.846,0,1,0,70.845,70.845A70.927,70.927,0,0,0,344.337,71.144Z" transform="translate(-266.37 -64.024)" fill="#fff"/>
          </g>
        </g>
        <g id="Grupo_23984" data-name="Grupo 23984">
          <g id="Grupo_23981" data-name="Grupo 23981" transform="translate(4.239)">
            <path id="Trazado_20603" data-name="Trazado 20603" d="M500.315,147.147H455.372v-.594a86.26,86.26,0,0,0-172.519,0v.594H239.682v-1.186h41.987a87.446,87.446,0,0,1,174.887,0h43.759Z" transform="translate(-239.682 -59.108)"/>
          </g>
          <g id="Grupo_23982" data-name="Grupo 23982" transform="translate(0 82.984)">
            <path id="Trazado_20604" data-name="Trazado 20604" d="M241.946,111.064a4.461,4.461,0,1,1,4.46-4.46A4.462,4.462,0,0,1,241.946,111.064Z" transform="translate(-237.484 -102.141)"/>
          </g>
          <g id="Grupo_23983" data-name="Grupo 23983" transform="translate(260.186 82.984)">
            <path id="Trazado_20605" data-name="Trazado 20605" d="M376.87,111.064a4.461,4.461,0,1,0-4.462-4.46A4.462,4.462,0,0,0,376.87,111.064Z" transform="translate(-372.408 -102.141)"/>
          </g>
        </g>
      </g>
      <g id="Grupo_23992" data-name="Grupo 23992" transform="translate(669.509 83.483)">
        <g id="Grupo_23987" data-name="Grupo 23987" transform="translate(57.474)">
          <circle id="Elipse_908" data-name="Elipse 908" cx="74.407" cy="74.407" r="74.407" transform="translate(3.56 3.56)" fill="#7d1538"/>
          <g id="Grupo_23986" data-name="Grupo 23986">
            <path id="Trazado_20606" data-name="Trazado 20606" d="M459.106,227.681a77.967,77.967,0,1,1,77.967-77.967A78.054,78.054,0,0,1,459.106,227.681Zm0-148.814a70.847,70.847,0,1,0,70.847,70.847A70.926,70.926,0,0,0,459.106,78.868Z" transform="translate(-381.139 -71.748)" fill="#fff"/>
          </g>
        </g>
        <g id="Grupo_23991" data-name="Grupo 23991" transform="translate(0 73.504)">
          <g id="Grupo_23988" data-name="Grupo 23988" transform="translate(4.239 3.868)">
            <path id="Trazado_20607" data-name="Trazado 20607" d="M484.735,199.912a87.544,87.544,0,0,1-87.443-86.853H353.533v-1.188h44.943v.594a86.26,86.26,0,0,0,172.52,0v-.594h43.171v1.188H572.179A87.546,87.546,0,0,1,484.735,199.912Z" transform="translate(-353.533 -111.871)"/>
          </g>
          <g id="Grupo_23989" data-name="Grupo 23989" transform="translate(260.186)">
            <path id="Trazado_20608" data-name="Trazado 20608" d="M490.721,109.865a4.462,4.462,0,1,1-4.462,4.462A4.462,4.462,0,0,1,490.721,109.865Z" transform="translate(-486.259 -109.865)"/>
          </g>
          <g id="Grupo_23990" data-name="Grupo 23990">
            <path id="Trazado_20609" data-name="Trazado 20609" d="M355.8,109.865a4.462,4.462,0,1,0,4.46,4.462A4.462,4.462,0,0,0,355.8,109.865Z" transform="translate(-351.335 -109.865)"/>
          </g>
        </g>
      </g>
    </g>
    <path id="Trazado_49069" data-name="Trazado 49069" d="M22.7,86.977q-20,0-20-28.086,0-14.57,5.41-22.207t15.684-7.637q19.531,0,19.531,28.555,0,14.219-5.332,21.8T22.7,86.977Zm.547-48.516q-8.008,0-8.008,20.117,0,18.945,7.852,18.945,7.656,0,7.656-19.531T23.242,38.461Zm55.273-9.727V86h-12.3V42.641a14.736,14.736,0,0,1-2.4,1.7,24.8,24.8,0,0,1-2.949,1.445,26.334,26.334,0,0,1-3.242,1.094,23.681,23.681,0,0,1-3.32.645V37.133a51.328,51.328,0,0,0,9.063-3.594,51.574,51.574,0,0,0,7.7-4.8Z" transform="translate(321 3022)" fill="#fff"/>
    <path id="Trazado_49068" data-name="Trazado 49068" d="M22.7,86.977q-20,0-20-28.086,0-14.57,5.41-22.207t15.684-7.637q19.531,0,19.531,28.555,0,14.219-5.332,21.8T22.7,86.977Zm.547-48.516q-8.008,0-8.008,20.117,0,18.945,7.852,18.945,7.656,0,7.656-19.531T23.242,38.461Zm39.531,37.3h23.75V86H49.258V81.781A19.636,19.636,0,0,1,50.7,74.066a25.6,25.6,0,0,1,3.633-6.133,31.511,31.511,0,0,1,4.785-4.8q2.6-2.09,4.941-3.77Q66.523,57.6,68.379,56A24.6,24.6,0,0,0,71.5,52.816a12.1,12.1,0,0,0,1.895-3.2,9.526,9.526,0,0,0,.625-3.457,6.948,6.948,0,0,0-2.031-5.43q-2.031-1.836-6.211-1.836-7.227,0-13.828,5.742V33.773a29.684,29.684,0,0,1,16.484-4.727,24.345,24.345,0,0,1,7.637,1.113A16.157,16.157,0,0,1,81.8,33.344a13.578,13.578,0,0,1,3.574,5.02,16.94,16.94,0,0,1,1.23,6.582A18.559,18.559,0,0,1,85.41,51.82a21.126,21.126,0,0,1-3.164,5.469A28.7,28.7,0,0,1,77.7,61.8q-2.578,2.051-5.352,3.965Q70.469,67.094,68.73,68.4a34.255,34.255,0,0,0-3.066,2.578,14,14,0,0,0-2.109,2.48A4.282,4.282,0,0,0,62.773,75.766Z" transform="translate(538 3034)" fill="#fff"/>
    <path id="Trazado_49072" data-name="Trazado 49072" d="M22.7,86.977q-20,0-20-28.086,0-14.57,5.41-22.207t15.684-7.637q19.531,0,19.531,28.555,0,14.219-5.332,21.8T22.7,86.977Zm.547-48.516q-8.008,0-8.008,20.117,0,18.945,7.852,18.945,7.656,0,7.656-19.531T23.242,38.461Zm27.344,45.7V73.422a21.682,21.682,0,0,0,13.125,4.1q4.727,0,7.363-2.031a6.744,6.744,0,0,0,2.637-5.664,6.438,6.438,0,0,0-3.262-5.781q-3.262-2.031-8.965-2.031h-5.2V52.563h4.8q10.937,0,10.938-7.266,0-6.836-8.4-6.836A19.147,19.147,0,0,0,52.7,42.094V32.016a30.208,30.208,0,0,1,13.75-2.969q8.594,0,13.379,3.867a12.307,12.307,0,0,1,4.785,10.039q0,10.977-11.133,13.75v.2a15.135,15.135,0,0,1,9.375,4.316,12.17,12.17,0,0,1,3.438,8.77,15.029,15.029,0,0,1-5.742,12.422q-5.742,4.57-15.859,4.57Q56.016,86.977,50.586,84.164Z" transform="translate(760 3022)" fill="#fff"/>
    <path id="Trazado_49073" data-name="Trazado 49073" d="M22.7,86.977q-20,0-20-28.086,0-14.57,5.41-22.207t15.684-7.637q19.531,0,19.531,28.555,0,14.219-5.332,21.8T22.7,86.977Zm.547-48.516q-8.008,0-8.008,20.117,0,18.945,7.852,18.945,7.656,0,7.656-19.531T23.242,38.461ZM83.2,29.984V65.3h6.719v9.219H83.2V86H71.953V74.516H47.539V64.867q3.242-3.633,6.719-7.949t6.719-8.887q3.242-4.57,6.035-9.2a92.217,92.217,0,0,0,4.746-8.848ZM58.594,65.3H71.953V45.727q-1.367,2.539-2.969,5.137T65.625,55.98q-1.758,2.52-3.555,4.883T58.594,65.3Z" transform="translate(981 3035)" fill="#fff"/>
    <path id="Trazado_49070" data-name="Trazado 49070" d="M20.151,22H16.528l-2.178-3.6q-.244-.41-.469-.732a4.069,4.069,0,0,0-.454-.552,1.806,1.806,0,0,0-.479-.352,1.215,1.215,0,0,0-.542-.122h-.85V22H8.4V8h5q5.1,0,5.1,3.809a3.944,3.944,0,0,1-.225,1.353,3.757,3.757,0,0,1-.635,1.118,4.024,4.024,0,0,1-.991.859,5.112,5.112,0,0,1-1.294.566v.039a2.007,2.007,0,0,1,.605.317,4.336,4.336,0,0,1,.566.513,7.153,7.153,0,0,1,.522.63q.249.337.454.659ZM11.558,10.359v3.9h1.367a2.267,2.267,0,0,0,1.631-.586,1.955,1.955,0,0,0,.625-1.475q0-1.836-2.2-1.836Zm18.086,7.52H23.12q.156,2.178,2.744,2.178a5.357,5.357,0,0,0,2.9-.781V21.5a7.619,7.619,0,0,1-3.6.742A5.073,5.073,0,0,1,21.4,20.9a5.073,5.073,0,0,1-1.338-3.745,5.352,5.352,0,0,1,1.445-3.945,4.815,4.815,0,0,1,3.555-1.455,4.37,4.37,0,0,1,3.384,1.3,5,5,0,0,1,1.2,3.525Zm-2.861-1.895q0-2.148-1.738-2.148a1.66,1.66,0,0,0-1.284.615,2.792,2.792,0,0,0-.659,1.533Zm4.043,5.752v-2.5a6.57,6.57,0,0,0,1.519.684,5.035,5.035,0,0,0,1.431.225,3.068,3.068,0,0,0,1.294-.225.726.726,0,0,0,.474-.684.632.632,0,0,0-.215-.488,2,2,0,0,0-.552-.342,6.261,6.261,0,0,0-.737-.264q-.4-.117-.771-.264a7.392,7.392,0,0,1-1.05-.483,3.034,3.034,0,0,1-.762-.6A2.361,2.361,0,0,1,30.986,16a3.157,3.157,0,0,1-.161-1.064,2.74,2.74,0,0,1,.366-1.445,2.991,2.991,0,0,1,.977-.991,4.462,4.462,0,0,1,1.4-.566,7.281,7.281,0,0,1,1.636-.181,9.076,9.076,0,0,1,1.348.1,10.058,10.058,0,0,1,1.348.3v2.383a4.87,4.87,0,0,0-1.255-.513,5.294,5.294,0,0,0-1.313-.171,2.91,2.91,0,0,0-.571.054,1.882,1.882,0,0,0-.474.156.87.87,0,0,0-.322.264.607.607,0,0,0-.117.366.677.677,0,0,0,.176.469,1.527,1.527,0,0,0,.459.337,4.531,4.531,0,0,0,.63.254q.347.112.688.229a8.951,8.951,0,0,1,1.113.469,3.56,3.56,0,0,1,.854.6,2.339,2.339,0,0,1,.547.8,3.2,3.2,0,0,1-.2,2.612,3.088,3.088,0,0,1-1.025,1.025,4.65,4.65,0,0,1-1.475.576,8.175,8.175,0,0,1-1.733.181A8.936,8.936,0,0,1,30.825,21.736ZM49.78,22H46.7V20.477h-.049A3.49,3.49,0,0,1,43.6,22.244q-3.477,0-3.477-4.209V12H43.2v5.762q0,2.119,1.68,2.119a1.661,1.661,0,0,0,1.328-.581,2.343,2.343,0,0,0,.5-1.577V12H49.78Zm18.477,0H65.181V16.3q0-2.178-1.6-2.178a1.471,1.471,0,0,0-1.24.654A2.689,2.689,0,0,0,61.86,16.4V22H58.774V16.238q0-2.119-1.572-2.119a1.507,1.507,0,0,0-1.265.625,2.75,2.75,0,0,0-.474,1.7V22H52.378V12h3.086v1.563H55.5a3.789,3.789,0,0,1,3.232-1.807,2.88,2.88,0,0,1,2.9,1.865A3.7,3.7,0,0,1,65,11.756q3.262,0,3.262,4.023Zm11.426-4.121H73.159q.156,2.178,2.744,2.178a5.357,5.357,0,0,0,2.9-.781V21.5a7.619,7.619,0,0,1-3.6.742A5.073,5.073,0,0,1,71.44,20.9,5.073,5.073,0,0,1,70.1,17.156a5.352,5.352,0,0,1,1.445-3.945A4.815,4.815,0,0,1,75.1,11.756a4.37,4.37,0,0,1,3.384,1.3,5,5,0,0,1,1.2,3.525Zm-2.861-1.895q0-2.148-1.738-2.148a1.66,1.66,0,0,0-1.284.615,2.792,2.792,0,0,0-.659,1.533ZM91.177,22H88.1V16.443q0-2.324-1.66-2.324a1.647,1.647,0,0,0-1.318.615A2.344,2.344,0,0,0,84.6,16.3V22H81.519V12H84.6v1.582h.039a3.536,3.536,0,0,1,3.213-1.826q3.32,0,3.32,4.121Zm16.943-4.121H101.6q.156,2.178,2.744,2.178a5.357,5.357,0,0,0,2.9-.781V21.5a7.619,7.619,0,0,1-3.6.742,5.073,5.073,0,0,1-3.76-1.343,5.073,5.073,0,0,1-1.338-3.745,5.352,5.352,0,0,1,1.445-3.945,4.815,4.815,0,0,1,3.555-1.455,4.37,4.37,0,0,1,3.384,1.3,5,5,0,0,1,1.2,3.525Zm-2.861-1.895q0-2.148-1.738-2.148a1.66,1.66,0,0,0-1.284.615,2.792,2.792,0,0,0-.659,1.533Zm6.26-5.566a1.8,1.8,0,0,1-1.279-.464,1.5,1.5,0,0,1-.5-1.138,1.441,1.441,0,0,1,.5-1.133,2.089,2.089,0,0,1,2.563,0,1.448,1.448,0,0,1,.493,1.133,1.489,1.489,0,0,1-.493,1.152A1.833,1.833,0,0,1,111.519,10.418Zm1.523,11.406a5.436,5.436,0,0,1-1.084,3.545,3.8,3.8,0,0,1-3.125,1.328,4.321,4.321,0,0,1-1.475-.293V23.982a2.4,2.4,0,0,0,1.143.361q1.455,0,1.455-2.285V12h3.086Zm11.582-3.945H118.1q.156,2.178,2.744,2.178a5.357,5.357,0,0,0,2.9-.781V21.5a7.619,7.619,0,0,1-3.6.742,5.073,5.073,0,0,1-3.76-1.343,5.073,5.073,0,0,1-1.338-3.745,5.352,5.352,0,0,1,1.445-3.945,4.815,4.815,0,0,1,3.555-1.455,4.37,4.37,0,0,1,3.384,1.3,5,5,0,0,1,1.2,3.525Zm-2.861-1.895q0-2.148-1.738-2.148a1.66,1.66,0,0,0-1.284.615,2.792,2.792,0,0,0-.659,1.533Zm12.275,5.654a6.1,6.1,0,0,1-3.018.605,5.1,5.1,0,0,1-3.73-1.4,4.823,4.823,0,0,1-1.426-3.6,5.313,5.313,0,0,1,1.528-4.019,5.648,5.648,0,0,1,4.087-1.47,5.244,5.244,0,0,1,2.559.469v2.617a3.518,3.518,0,0,0-2.158-.723,2.844,2.844,0,0,0-2.1.776A2.9,2.9,0,0,0,129,17.039a2.85,2.85,0,0,0,.742,2.085,2.728,2.728,0,0,0,2.041.757,4.073,4.073,0,0,0,2.256-.723ZM145.562,22h-3.076V20.477h-.049a3.49,3.49,0,0,1-3.057,1.768q-3.477,0-3.477-4.209V12h3.076v5.762q0,2.119,1.68,2.119a1.661,1.661,0,0,0,1.328-.581,2.343,2.343,0,0,0,.5-1.577V12h3.076Zm8.643-.117a4.561,4.561,0,0,1-2.061.361q-3.262,0-3.262-3.389v-4.58h-1.621V12h1.621V9.842l3.076-.879V12H154.2v2.275h-2.246v4.043q0,1.562,1.24,1.563A2.091,2.091,0,0,0,154.2,19.6Zm3.3-11.465a1.8,1.8,0,0,1-1.279-.464,1.5,1.5,0,0,1-.5-1.138,1.441,1.441,0,0,1,.5-1.133,2.089,2.089,0,0,1,2.563,0,1.448,1.448,0,0,1,.493,1.133,1.489,1.489,0,0,1-.493,1.152A1.833,1.833,0,0,1,157.5,10.418ZM159.028,22h-3.086V12h3.086Zm12.119-10-3.721,10h-3.516l-3.545-10h3.3l1.738,6.162a9,9,0,0,1,.342,1.777h.039a10.087,10.087,0,0,1,.361-1.719L167.925,12Zm5.889,10.244a5.376,5.376,0,0,1-3.931-1.4,5.081,5.081,0,0,1-1.431-3.8,5.081,5.081,0,0,1,1.484-3.882,5.609,5.609,0,0,1,4.014-1.4,5.311,5.311,0,0,1,3.906,1.4,4.981,4.981,0,0,1,1.416,3.706,5.288,5.288,0,0,1-1.46,3.936A5.435,5.435,0,0,1,177.036,22.244Zm.078-8.125a2.058,2.058,0,0,0-1.7.752A3.316,3.316,0,0,0,174.81,17q0,2.881,2.324,2.881,2.217,0,2.217-2.959Q179.351,14.119,177.114,14.119Z" transform="translate(276 3150)" fill="#002b45"/>
    <path id="Trazado_49067" data-name="Trazado 49067" d="M45.332,21.5a9.235,9.235,0,0,1-4,.742A6.749,6.749,0,0,1,36.26,20.35,6.925,6.925,0,0,1,34.414,15.3a7.4,7.4,0,0,1,2.075-5.449,7.259,7.259,0,0,1,5.386-2.09,10.072,10.072,0,0,1,3.457.518v3.037a6.126,6.126,0,0,0-3.2-.84,4.249,4.249,0,0,0-3.184,1.24,4.6,4.6,0,0,0-1.211,3.359,4.514,4.514,0,0,0,1.143,3.237,4.036,4.036,0,0,0,3.076,1.206,6.561,6.561,0,0,0,3.379-.9Zm6.9.742a5.376,5.376,0,0,1-3.931-1.4,5.081,5.081,0,0,1-1.431-3.8,5.081,5.081,0,0,1,1.484-3.882,5.609,5.609,0,0,1,4.014-1.4,5.311,5.311,0,0,1,3.906,1.4A4.981,4.981,0,0,1,57.7,16.863a5.288,5.288,0,0,1-1.46,3.936A5.435,5.435,0,0,1,52.236,22.244Zm.078-8.125a2.058,2.058,0,0,0-1.7.752A3.316,3.316,0,0,0,50.01,17q0,2.881,2.324,2.881,2.217,0,2.217-2.959Q54.551,14.119,52.314,14.119ZM69.355,22H66.279V16.443q0-2.324-1.66-2.324a1.647,1.647,0,0,0-1.318.615,2.344,2.344,0,0,0-.518,1.563V22H59.7V12h3.086v1.582h.039a3.536,3.536,0,0,1,3.213-1.826q3.32,0,3.32,4.121Zm10.02-.361a6.1,6.1,0,0,1-3.018.605,5.1,5.1,0,0,1-3.73-1.4,4.823,4.823,0,0,1-1.426-3.6,5.313,5.313,0,0,1,1.528-4.019,5.648,5.648,0,0,1,4.087-1.47,5.244,5.244,0,0,1,2.559.469v2.617a3.518,3.518,0,0,0-2.158-.723,2.844,2.844,0,0,0-2.1.776,2.9,2.9,0,0,0-.776,2.144,2.85,2.85,0,0,0,.742,2.085,2.728,2.728,0,0,0,2.041.757,4.073,4.073,0,0,0,2.256-.723ZM84.482,22H81.4V7.2h3.086Zm12.1,0H93.506V20.477h-.049A3.49,3.49,0,0,1,90.4,22.244q-3.477,0-3.477-4.209V12H90v5.762q0,2.119,1.68,2.119a1.661,1.661,0,0,0,1.328-.581,2.343,2.343,0,0,0,.5-1.577V12h3.076Zm1.943-.264v-2.5a6.57,6.57,0,0,0,1.519.684,5.035,5.035,0,0,0,1.431.225,3.068,3.068,0,0,0,1.294-.225.726.726,0,0,0,.474-.684.632.632,0,0,0-.215-.488,2,2,0,0,0-.552-.342,6.261,6.261,0,0,0-.737-.264q-.4-.117-.771-.264a7.392,7.392,0,0,1-1.05-.483,3.034,3.034,0,0,1-.762-.6A2.361,2.361,0,0,1,98.687,16a3.157,3.157,0,0,1-.161-1.064,2.74,2.74,0,0,1,.366-1.445,2.991,2.991,0,0,1,.977-.991,4.462,4.462,0,0,1,1.4-.566,7.281,7.281,0,0,1,1.636-.181,9.076,9.076,0,0,1,1.348.1,10.059,10.059,0,0,1,1.348.3v2.383a4.87,4.87,0,0,0-1.255-.513,5.294,5.294,0,0,0-1.313-.171,2.91,2.91,0,0,0-.571.054,1.882,1.882,0,0,0-.474.156.87.87,0,0,0-.322.264.607.607,0,0,0-.117.366.677.677,0,0,0,.176.469,1.527,1.527,0,0,0,.459.337,4.531,4.531,0,0,0,.63.254q.347.112.688.229a8.951,8.951,0,0,1,1.113.469,3.56,3.56,0,0,1,.854.6,2.339,2.339,0,0,1,.547.8,3.2,3.2,0,0,1-.2,2.612,3.088,3.088,0,0,1-1.025,1.025,4.65,4.65,0,0,1-1.475.576,8.175,8.175,0,0,1-1.733.181A8.936,8.936,0,0,1,98.525,21.736Zm11.016-11.318a1.8,1.8,0,0,1-1.279-.464,1.5,1.5,0,0,1-.5-1.138,1.441,1.441,0,0,1,.5-1.133,2.089,2.089,0,0,1,2.563,0,1.448,1.448,0,0,1,.493,1.133,1.489,1.489,0,0,1-.493,1.152A1.833,1.833,0,0,1,109.541,10.418ZM111.064,22h-3.086V12h3.086Zm7.363.244a5.376,5.376,0,0,1-3.931-1.4,5.081,5.081,0,0,1-1.431-3.8,5.081,5.081,0,0,1,1.484-3.882,5.609,5.609,0,0,1,4.014-1.4,5.311,5.311,0,0,1,3.906,1.4,4.981,4.981,0,0,1,1.416,3.706,5.288,5.288,0,0,1-1.46,3.936A5.435,5.435,0,0,1,118.428,22.244Zm.078-8.125a2.058,2.058,0,0,0-1.7.752A3.316,3.316,0,0,0,116.2,17q0,2.881,2.324,2.881,2.217,0,2.217-2.959Q120.742,14.119,118.506,14.119ZM135.547,22h-3.076V16.443q0-2.324-1.66-2.324a1.647,1.647,0,0,0-1.318.615,2.344,2.344,0,0,0-.518,1.563V22h-3.086V12h3.086v1.582h.039a3.536,3.536,0,0,1,3.213-1.826q3.32,0,3.32,4.121Zm11.426-4.121h-6.523q.156,2.178,2.744,2.178a5.357,5.357,0,0,0,2.9-.781V21.5a7.62,7.62,0,0,1-3.6.742,5.073,5.073,0,0,1-3.76-1.343,5.073,5.073,0,0,1-1.338-3.745,5.351,5.351,0,0,1,1.445-3.945,4.815,4.815,0,0,1,3.555-1.455,4.37,4.37,0,0,1,3.384,1.3,5,5,0,0,1,1.2,3.525Zm-2.861-1.895q0-2.148-1.738-2.148a1.66,1.66,0,0,0-1.284.615,2.792,2.792,0,0,0-.659,1.533Zm4.043,5.752v-2.5a6.57,6.57,0,0,0,1.519.684,5.035,5.035,0,0,0,1.431.225,3.068,3.068,0,0,0,1.294-.225.726.726,0,0,0,.474-.684.632.632,0,0,0-.215-.488,2,2,0,0,0-.552-.342,6.262,6.262,0,0,0-.737-.264q-.4-.117-.771-.264a7.392,7.392,0,0,1-1.05-.483,3.034,3.034,0,0,1-.762-.6,2.361,2.361,0,0,1-.469-.791,3.157,3.157,0,0,1-.161-1.064,2.74,2.74,0,0,1,.366-1.445,2.991,2.991,0,0,1,.977-.991,4.462,4.462,0,0,1,1.4-.566,7.281,7.281,0,0,1,1.636-.181,9.076,9.076,0,0,1,1.348.1,10.058,10.058,0,0,1,1.348.3v2.383a4.87,4.87,0,0,0-1.255-.513,5.294,5.294,0,0,0-1.313-.171,2.91,2.91,0,0,0-.571.054,1.882,1.882,0,0,0-.474.156.87.87,0,0,0-.322.264.607.607,0,0,0-.117.366.677.677,0,0,0,.176.469,1.527,1.527,0,0,0,.459.337,4.531,4.531,0,0,0,.63.254q.347.112.688.229a8.951,8.951,0,0,1,1.113.469,3.559,3.559,0,0,1,.854.6,2.339,2.339,0,0,1,.547.8,3.2,3.2,0,0,1-.2,2.612,3.088,3.088,0,0,1-1.025,1.025,4.65,4.65,0,0,1-1.475.576,8.175,8.175,0,0,1-1.733.181A8.936,8.936,0,0,1,148.154,21.736Z" transform="translate(496 2984)" fill="#002b45"/>
    <path id="Trazado_49071" data-name="Trazado 49071" d="M23.94,22H20.317L18.14,18.4q-.244-.41-.469-.732a4.069,4.069,0,0,0-.454-.552,1.806,1.806,0,0,0-.479-.352,1.215,1.215,0,0,0-.542-.122h-.85V22H12.192V8h5q5.1,0,5.1,3.809a3.944,3.944,0,0,1-.225,1.353,3.757,3.757,0,0,1-.635,1.118,4.024,4.024,0,0,1-.991.859,5.112,5.112,0,0,1-1.294.566v.039a2.007,2.007,0,0,1,.605.317,4.336,4.336,0,0,1,.566.513,7.153,7.153,0,0,1,.522.63q.249.337.454.659ZM15.347,10.359v3.9h1.367a2.267,2.267,0,0,0,1.631-.586A1.955,1.955,0,0,0,18.97,12.2q0-1.836-2.2-1.836Zm18.086,7.52H26.909q.156,2.178,2.744,2.178a5.357,5.357,0,0,0,2.9-.781V21.5a7.619,7.619,0,0,1-3.6.742A5.073,5.073,0,0,1,25.19,20.9a5.073,5.073,0,0,1-1.338-3.745A5.352,5.352,0,0,1,25.3,13.211a4.815,4.815,0,0,1,3.555-1.455,4.37,4.37,0,0,1,3.384,1.3,5,5,0,0,1,1.2,3.525Zm-2.861-1.895q0-2.148-1.738-2.148a1.66,1.66,0,0,0-1.284.615,2.792,2.792,0,0,0-.659,1.533Zm12.275,5.654a6.1,6.1,0,0,1-3.018.605,5.1,5.1,0,0,1-3.73-1.4,4.823,4.823,0,0,1-1.426-3.6A5.313,5.313,0,0,1,36.2,13.226a5.648,5.648,0,0,1,4.087-1.47,5.244,5.244,0,0,1,2.559.469v2.617a3.518,3.518,0,0,0-2.158-.723,2.844,2.844,0,0,0-2.1.776,2.9,2.9,0,0,0-.776,2.144,2.85,2.85,0,0,0,.742,2.085,2.728,2.728,0,0,0,2.041.757,4.073,4.073,0,0,0,2.256-.723Zm6.787.605a5.376,5.376,0,0,1-3.931-1.4,5.081,5.081,0,0,1-1.431-3.8,5.081,5.081,0,0,1,1.484-3.882,5.609,5.609,0,0,1,4.014-1.4,5.311,5.311,0,0,1,3.906,1.4,4.981,4.981,0,0,1,1.416,3.706,5.288,5.288,0,0,1-1.46,3.936A5.435,5.435,0,0,1,49.634,22.244Zm.078-8.125a2.058,2.058,0,0,0-1.7.752A3.316,3.316,0,0,0,47.407,17q0,2.881,2.324,2.881,2.217,0,2.217-2.959Q51.948,14.119,49.712,14.119ZM72.974,22H69.9V16.3q0-2.178-1.6-2.178a1.471,1.471,0,0,0-1.24.654,2.689,2.689,0,0,0-.479,1.631V22H63.491V16.238q0-2.119-1.572-2.119a1.507,1.507,0,0,0-1.265.625,2.75,2.75,0,0,0-.474,1.7V22H57.095V12h3.086v1.563h.039a3.789,3.789,0,0,1,3.232-1.807,2.88,2.88,0,0,1,2.9,1.865,3.7,3.7,0,0,1,3.359-1.865q3.262,0,3.262,4.023ZM84.4,17.879H77.876q.156,2.178,2.744,2.178a5.357,5.357,0,0,0,2.9-.781V21.5a7.619,7.619,0,0,1-3.6.742,5.073,5.073,0,0,1-3.76-1.343,5.073,5.073,0,0,1-1.338-3.745,5.352,5.352,0,0,1,1.445-3.945,4.815,4.815,0,0,1,3.555-1.455,4.37,4.37,0,0,1,3.384,1.3,5,5,0,0,1,1.2,3.525Zm-2.861-1.895q0-2.148-1.738-2.148a1.66,1.66,0,0,0-1.284.615,2.792,2.792,0,0,0-.659,1.533ZM95.894,22H92.817V16.443q0-2.324-1.66-2.324a1.647,1.647,0,0,0-1.318.615,2.344,2.344,0,0,0-.518,1.563V22H86.235V12h3.086v1.582h.039a3.536,3.536,0,0,1,3.213-1.826q3.32,0,3.32,4.121Zm12.227,0h-3.086V20.623H105a3.46,3.46,0,0,1-3.1,1.621,3.791,3.791,0,0,1-3.018-1.323,5.478,5.478,0,0,1-1.143-3.7A5.962,5.962,0,0,1,99,13.25a4.109,4.109,0,0,1,3.3-1.494,2.808,2.808,0,0,1,2.7,1.387h.039V7.2h3.086Zm-3.027-4.863v-.752a2.366,2.366,0,0,0-.566-1.621,2,2,0,0,0-3.076.161,3.741,3.741,0,0,0-.576,2.212,3.237,3.237,0,0,0,.557,2.031,1.976,1.976,0,0,0,3.071-.039A3.134,3.134,0,0,0,105.093,17.137ZM119.038,22h-2.92V20.564h-.039a3.259,3.259,0,0,1-2.979,1.68,3.116,3.116,0,0,1-2.29-.825,2.957,2.957,0,0,1-.835-2.2q0-2.91,3.447-3.359l2.715-.361q0-1.641-1.777-1.641a6.067,6.067,0,0,0-3.4,1.064V12.6a7.646,7.646,0,0,1,1.763-.586,9.266,9.266,0,0,1,2.036-.254q4.277,0,4.277,4.268Zm-2.9-4.062v-.674l-1.816.234q-1.5.2-1.5,1.357a1.122,1.122,0,0,0,.366.864,1.407,1.407,0,0,0,.991.337,1.827,1.827,0,0,0,1.416-.6A2.169,2.169,0,0,0,116.138,17.938Zm12.92,3.7a6.1,6.1,0,0,1-3.018.605,5.1,5.1,0,0,1-3.73-1.4,4.823,4.823,0,0,1-1.426-3.6,5.313,5.313,0,0,1,1.528-4.019,5.648,5.648,0,0,1,4.087-1.47,5.244,5.244,0,0,1,2.559.469v2.617a3.518,3.518,0,0,0-2.158-.723,2.844,2.844,0,0,0-2.1.776,2.9,2.9,0,0,0-.776,2.144,2.85,2.85,0,0,0,.742,2.085,2.728,2.728,0,0,0,2.041.757,4.073,4.073,0,0,0,2.256-.723Zm3.584-11.221a1.8,1.8,0,0,1-1.279-.464,1.5,1.5,0,0,1-.5-1.138,1.441,1.441,0,0,1,.5-1.133,2.089,2.089,0,0,1,2.563,0,1.448,1.448,0,0,1,.493,1.133,1.489,1.489,0,0,1-.493,1.152A1.833,1.833,0,0,1,132.642,10.418ZM134.165,22h-3.086V12h3.086Zm7.363.244a5.376,5.376,0,0,1-3.931-1.4,5.081,5.081,0,0,1-1.431-3.8,5.081,5.081,0,0,1,1.484-3.882,5.609,5.609,0,0,1,4.014-1.4,5.311,5.311,0,0,1,3.906,1.4,4.981,4.981,0,0,1,1.416,3.706,5.288,5.288,0,0,1-1.46,3.936A5.435,5.435,0,0,1,141.528,22.244Zm.078-8.125a2.058,2.058,0,0,0-1.7.752A3.316,3.316,0,0,0,139.3,17q0,2.881,2.324,2.881,2.217,0,2.217-2.959Q143.843,14.119,141.606,14.119ZM158.647,22h-3.076V16.443q0-2.324-1.66-2.324a1.647,1.647,0,0,0-1.318.615,2.344,2.344,0,0,0-.518,1.563V22h-3.086V12h3.086v1.582h.039a3.536,3.536,0,0,1,3.213-1.826q3.32,0,3.32,4.121Zm11.426-4.121H163.55q.156,2.178,2.744,2.178a5.357,5.357,0,0,0,2.9-.781V21.5a7.62,7.62,0,0,1-3.6.742,5.073,5.073,0,0,1-3.76-1.343,5.073,5.073,0,0,1-1.338-3.745,5.351,5.351,0,0,1,1.445-3.945,4.815,4.815,0,0,1,3.555-1.455,4.37,4.37,0,0,1,3.384,1.3,5,5,0,0,1,1.2,3.525Zm-2.861-1.895q0-2.148-1.738-2.148a1.66,1.66,0,0,0-1.284.615,2.792,2.792,0,0,0-.659,1.533Zm4.043,5.752v-2.5a6.57,6.57,0,0,0,1.519.684,5.035,5.035,0,0,0,1.431.225,3.068,3.068,0,0,0,1.294-.225.726.726,0,0,0,.474-.684.632.632,0,0,0-.215-.488,2,2,0,0,0-.552-.342,6.262,6.262,0,0,0-.737-.264q-.4-.117-.771-.264a7.392,7.392,0,0,1-1.05-.483,3.034,3.034,0,0,1-.762-.6,2.361,2.361,0,0,1-.469-.791,3.157,3.157,0,0,1-.161-1.064,2.74,2.74,0,0,1,.366-1.445,2.991,2.991,0,0,1,.977-.991,4.462,4.462,0,0,1,1.4-.566,7.281,7.281,0,0,1,1.636-.181,9.076,9.076,0,0,1,1.348.1,10.058,10.058,0,0,1,1.348.3v2.383a4.87,4.87,0,0,0-1.255-.513,5.294,5.294,0,0,0-1.313-.171,2.91,2.91,0,0,0-.571.054,1.882,1.882,0,0,0-.474.156.87.87,0,0,0-.322.264.607.607,0,0,0-.117.366.677.677,0,0,0,.176.469,1.527,1.527,0,0,0,.459.337,4.531,4.531,0,0,0,.63.254q.347.112.688.229a8.951,8.951,0,0,1,1.113.469,3.559,3.559,0,0,1,.854.6,2.339,2.339,0,0,1,.547.8,3.2,3.2,0,0,1-.2,2.612,3.088,3.088,0,0,1-1.025,1.025,4.65,4.65,0,0,1-1.475.576,8.175,8.175,0,0,1-1.733.181A8.936,8.936,0,0,1,171.255,21.736Z" transform="translate(714 3150)" fill="#002b45"/>
    <path id="Trazado_49074" data-name="Trazado 49074" d="M22.129,17.176V22H18.975V8h4.941q5.293,0,5.293,4.463a4.282,4.282,0,0,1-1.519,3.413,6.016,6.016,0,0,1-4.058,1.3Zm0-6.758v4.365h1.24q2.52,0,2.52-2.207,0-2.158-2.52-2.158ZM37.48,14.783a2.677,2.677,0,0,0-1.3-.3,1.871,1.871,0,0,0-1.572.737,3.217,3.217,0,0,0-.566,2.007V22H30.957V12h3.086v1.855h.039a2.67,2.67,0,0,1,2.637-2.031,1.987,1.987,0,0,1,.762.117Zm10.342,3.1H41.3q.156,2.178,2.744,2.178a5.357,5.357,0,0,0,2.9-.781V21.5a7.619,7.619,0,0,1-3.6.742A5.073,5.073,0,0,1,39.58,20.9a5.073,5.073,0,0,1-1.338-3.745,5.352,5.352,0,0,1,1.445-3.945,4.815,4.815,0,0,1,3.555-1.455,4.37,4.37,0,0,1,3.384,1.3,5,5,0,0,1,1.2,3.525Zm-2.861-1.895q0-2.148-1.738-2.148a1.66,1.66,0,0,0-1.284.615,2.792,2.792,0,0,0-.659,1.533ZM49,21.736v-2.5a6.57,6.57,0,0,0,1.519.684,5.035,5.035,0,0,0,1.431.225,3.068,3.068,0,0,0,1.294-.225.726.726,0,0,0,.474-.684.632.632,0,0,0-.215-.488,2,2,0,0,0-.552-.342,6.261,6.261,0,0,0-.737-.264q-.4-.117-.771-.264A7.392,7.392,0,0,1,50.4,17.4a3.034,3.034,0,0,1-.762-.6A2.361,2.361,0,0,1,49.165,16,3.157,3.157,0,0,1,49,14.939a2.74,2.74,0,0,1,.366-1.445,2.991,2.991,0,0,1,.977-.991,4.462,4.462,0,0,1,1.4-.566,7.281,7.281,0,0,1,1.636-.181,9.076,9.076,0,0,1,1.348.1,10.058,10.058,0,0,1,1.348.3v2.383a4.87,4.87,0,0,0-1.255-.513,5.294,5.294,0,0,0-1.313-.171,2.91,2.91,0,0,0-.571.054,1.882,1.882,0,0,0-.474.156.87.87,0,0,0-.322.264.607.607,0,0,0-.117.366.677.677,0,0,0,.176.469,1.527,1.527,0,0,0,.459.337,4.531,4.531,0,0,0,.63.254q.347.112.688.229a8.951,8.951,0,0,1,1.113.469,3.56,3.56,0,0,1,.854.6,2.339,2.339,0,0,1,.547.8,3.2,3.2,0,0,1-.2,2.612,3.088,3.088,0,0,1-1.025,1.025,4.65,4.65,0,0,1-1.475.576,8.175,8.175,0,0,1-1.733.181A8.936,8.936,0,0,1,49,21.736Zm18.438-3.857H60.918q.156,2.178,2.744,2.178a5.357,5.357,0,0,0,2.9-.781V21.5a7.619,7.619,0,0,1-3.6.742A5.073,5.073,0,0,1,59.2,20.9a5.073,5.073,0,0,1-1.338-3.745,5.352,5.352,0,0,1,1.445-3.945,4.815,4.815,0,0,1,3.555-1.455,4.37,4.37,0,0,1,3.384,1.3,5,5,0,0,1,1.2,3.525ZM64.58,15.984q0-2.148-1.738-2.148a1.66,1.66,0,0,0-1.284.615,2.792,2.792,0,0,0-.659,1.533ZM78.936,22H75.859V16.443q0-2.324-1.66-2.324a1.647,1.647,0,0,0-1.318.615,2.344,2.344,0,0,0-.518,1.563V22H69.277V12h3.086v1.582H72.4a3.536,3.536,0,0,1,3.213-1.826q3.32,0,3.32,4.121Zm8.486-.117a4.561,4.561,0,0,1-2.061.361q-3.262,0-3.262-3.389v-4.58H80.479V12H82.1V9.842l3.076-.879V12h2.246v2.275H85.176v4.043q0,1.562,1.24,1.563a2.091,2.091,0,0,0,1.006-.283ZM97.48,22h-2.92V20.564h-.039a3.259,3.259,0,0,1-2.979,1.68,3.116,3.116,0,0,1-2.29-.825,2.957,2.957,0,0,1-.835-2.2q0-2.91,3.447-3.359L94.58,15.5q0-1.641-1.777-1.641a6.067,6.067,0,0,0-3.4,1.064V12.6a7.646,7.646,0,0,1,1.763-.586,9.266,9.266,0,0,1,2.036-.254q4.277,0,4.277,4.268Zm-2.9-4.062v-.674l-1.816.234q-1.5.2-1.5,1.357a1.122,1.122,0,0,0,.366.864,1.407,1.407,0,0,0,.991.337,1.827,1.827,0,0,0,1.416-.6A2.169,2.169,0,0,0,94.58,17.938Zm12.92,3.7a6.1,6.1,0,0,1-3.018.605,5.1,5.1,0,0,1-3.73-1.4,4.823,4.823,0,0,1-1.426-3.6,5.313,5.313,0,0,1,1.528-4.019,5.648,5.648,0,0,1,4.087-1.47,5.244,5.244,0,0,1,2.559.469v2.617a3.518,3.518,0,0,0-2.158-.723,2.844,2.844,0,0,0-2.1.776,2.9,2.9,0,0,0-.776,2.144,2.85,2.85,0,0,0,.742,2.085,2.728,2.728,0,0,0,2.041.757,4.073,4.073,0,0,0,2.256-.723Zm3.584-11.221a1.8,1.8,0,0,1-1.279-.464,1.5,1.5,0,0,1-.5-1.138,1.441,1.441,0,0,1,.5-1.133,2.089,2.089,0,0,1,2.563,0,1.448,1.448,0,0,1,.493,1.133,1.489,1.489,0,0,1-.493,1.152A1.833,1.833,0,0,1,111.084,10.418ZM112.607,22h-3.086V12h3.086Zm7.363.244a5.376,5.376,0,0,1-3.931-1.4,5.081,5.081,0,0,1-1.431-3.8,5.081,5.081,0,0,1,1.484-3.882,5.609,5.609,0,0,1,4.014-1.4,5.311,5.311,0,0,1,3.906,1.4,4.981,4.981,0,0,1,1.416,3.706,5.288,5.288,0,0,1-1.46,3.936A5.435,5.435,0,0,1,119.971,22.244Zm.078-8.125a2.058,2.058,0,0,0-1.7.752A3.316,3.316,0,0,0,117.744,17q0,2.881,2.324,2.881,2.217,0,2.217-2.959Q122.285,14.119,120.049,14.119Zm3.311-6.855L120.3,10.418h-2.227l2.539-3.154ZM137.08,22H134V16.443q0-2.324-1.66-2.324a1.647,1.647,0,0,0-1.318.615,2.344,2.344,0,0,0-.518,1.563V22h-3.086V12h3.086v1.582h.039a3.536,3.536,0,0,1,3.213-1.826q3.32,0,3.32,4.121Zm17.744,0h-3.086V20.623H151.7a3.46,3.46,0,0,1-3.1,1.621,3.791,3.791,0,0,1-3.018-1.323,5.478,5.478,0,0,1-1.143-3.7,5.962,5.962,0,0,1,1.26-3.975,4.109,4.109,0,0,1,3.3-1.494,2.808,2.808,0,0,1,2.7,1.387h.039V7.2h3.086ZM151.8,17.137v-.752a2.366,2.366,0,0,0-.566-1.621,2,2,0,0,0-3.076.161,3.741,3.741,0,0,0-.576,2.212,3.237,3.237,0,0,0,.557,2.031,1.976,1.976,0,0,0,3.071-.039A3.134,3.134,0,0,0,151.8,17.137Zm14.609.742h-6.523q.156,2.178,2.744,2.178a5.357,5.357,0,0,0,2.9-.781V21.5a7.62,7.62,0,0,1-3.6.742,5.073,5.073,0,0,1-3.76-1.343,5.073,5.073,0,0,1-1.338-3.745,5.351,5.351,0,0,1,1.445-3.945,4.815,4.815,0,0,1,3.555-1.455,4.37,4.37,0,0,1,3.384,1.3,5,5,0,0,1,1.2,3.525Zm-2.861-1.895q0-2.148-1.738-2.148a1.66,1.66,0,0,0-1.284.615,2.792,2.792,0,0,0-.659,1.533ZM171.328,22h-3.086V7.2h3.086ZM60.444,33.418a1.8,1.8,0,0,1-1.279-.464,1.5,1.5,0,0,1-.5-1.138,1.441,1.441,0,0,1,.5-1.133,2.089,2.089,0,0,1,2.563,0,1.448,1.448,0,0,1,.493,1.133,1.489,1.489,0,0,1-.493,1.152A1.833,1.833,0,0,1,60.444,33.418ZM61.968,45H58.882V35h3.086Zm12.256,0H71.147V39.443q0-2.324-1.66-2.324a1.647,1.647,0,0,0-1.318.615,2.344,2.344,0,0,0-.518,1.563V45H64.565V35h3.086v1.582h.039A3.536,3.536,0,0,1,70.9,34.756q3.32,0,3.32,4.121Zm8.965-12.441a3.117,3.117,0,0,0-1.143-.234q-1.484,0-1.484,1.611V35h2.285v2.275H80.562V45H77.485V37.275h-1.68V35h1.68V33.76A3.6,3.6,0,0,1,78.6,31.006a4.246,4.246,0,0,1,3.027-1.045,5.316,5.316,0,0,1,1.563.2ZM89.1,45.244a5.376,5.376,0,0,1-3.931-1.4,5.081,5.081,0,0,1-1.431-3.8,5.081,5.081,0,0,1,1.484-3.882,5.609,5.609,0,0,1,4.014-1.4,5.311,5.311,0,0,1,3.906,1.4,4.981,4.981,0,0,1,1.416,3.706A5.288,5.288,0,0,1,93.1,43.8,5.435,5.435,0,0,1,89.1,45.244Zm.078-8.125a2.058,2.058,0,0,0-1.7.752A3.316,3.316,0,0,0,86.87,40q0,2.881,2.324,2.881,2.217,0,2.217-2.959Q91.411,37.119,89.175,37.119Zm13.906.664a2.677,2.677,0,0,0-1.3-.3,1.871,1.871,0,0,0-1.572.737,3.217,3.217,0,0,0-.566,2.007V45H96.558V35h3.086v1.855h.039a2.67,2.67,0,0,1,2.637-2.031,1.987,1.987,0,0,1,.762.117ZM120.454,45h-3.076V39.3q0-2.178-1.6-2.178a1.471,1.471,0,0,0-1.24.654,2.689,2.689,0,0,0-.479,1.631V45h-3.086V39.238q0-2.119-1.572-2.119a1.507,1.507,0,0,0-1.265.625,2.75,2.75,0,0,0-.474,1.7V45h-3.086V35h3.086v1.563h.039a3.789,3.789,0,0,1,3.232-1.807,2.88,2.88,0,0,1,2.9,1.865,3.7,3.7,0,0,1,3.359-1.865q3.262,0,3.262,4.023Zm11.426-4.121h-6.523q.156,2.178,2.744,2.178a5.357,5.357,0,0,0,2.9-.781V44.5a7.619,7.619,0,0,1-3.6.742,4.654,4.654,0,0,1-5.1-5.088,5.352,5.352,0,0,1,1.445-3.945,4.815,4.815,0,0,1,3.555-1.455,4.37,4.37,0,0,1,3.384,1.3,5,5,0,0,1,1.2,3.525Zm-2.861-1.895q0-2.148-1.738-2.148a1.66,1.66,0,0,0-1.284.615,2.792,2.792,0,0,0-.659,1.533Z" transform="translate(934 2960)" fill="#002b45"/>
  </g>
</svg>
