<svg xmlns="http://www.w3.org/2000/svg" width="121" height="121" viewBox="0 0 121 121">
  <g id="Grupo_24017" data-name="Grupo 24017" transform="translate(-282.5 -2359)">
    <circle id="Elipse_839" data-name="Elipse 839" cx="60.5" cy="60.5" r="60.5" transform="translate(282.5 2359)" fill="#fe7c5f"/>
    <path id="Trazado_17262" data-name="Trazado 17262" d="M53.993,0A53.993,53.993,0,1,1,0,53.993,53.993,53.993,0,0,1,53.993,0Z" transform="translate(289.5 2366)" fill="#fff"/>
    <path id="Trazado_48981" data-name="Trazado 48981" d="M14.185,54.61q-12.5,0-12.5-17.554,0-9.106,3.381-13.879t9.8-4.773q12.207,0,12.207,17.847,0,8.887-3.333,13.623A10.978,10.978,0,0,1,14.185,54.61Zm.342-30.322q-5,0-5,12.573,0,11.841,4.907,11.841,4.785,0,4.785-12.207T14.526,24.288ZM32.227,53.1V46.5a14.391,14.391,0,0,0,7.642,2.2,7.178,7.178,0,0,0,4.773-1.453,4.89,4.89,0,0,0,1.721-3.943q0-5.2-7.349-5.2a54.416,54.416,0,0,0-6.25.415L34.082,18.99h18.53v6.3H39.966L39.478,32.3q1.88-.146,3.247-.146,5.4,0,8.447,2.832A9.889,9.889,0,0,1,54.224,42.6a11.243,11.243,0,0,1-3.638,8.655q-3.638,3.357-9.863,3.357A21.106,21.106,0,0,1,32.227,53.1Z" transform="translate(314 2386)" fill="#20287a"/>
  </g>
</svg>
