<svg xmlns="http://www.w3.org/2000/svg" width="108.795" height="103.232" viewBox="0 0 108.795 103.232">
  <g id="Grupo_24034" data-name="Grupo 24034" transform="translate(-710 -16840.385)">
    <g id="Grupo_23154" data-name="Grupo 23154" transform="translate(362.582 14518)">
      <path id="Trazado_12403" data-name="Trazado 12403" d="M-1875.37,363.37h71.6l37.192,50.053-37.192,53.181h-71.6Z" transform="translate(2222.788 1959.013)" fill="#c74653"/>
    </g>
    <path id="Trazado_49051" data-name="Trazado 49051" d="M38.862,72q0,9.741-5.64,15.09T16.885,92.44q-7.075,0-11.211-2.017V81.332a21.469,21.469,0,0,0,10.9,3.145q5.469,0,8.477-2.888a10.364,10.364,0,0,0,3.008-7.844V70.976h-.137a12.062,12.062,0,0,1-10.9,5.879,13.115,13.115,0,0,1-10.63-4.717Q2.461,67.421,2.461,59.491q0-8.887,4.375-14.116a14.283,14.283,0,0,1,11.519-5.229q6.392,0,9.57,4.922h.137V41h10.8ZM28.2,59.184V56.415a8.507,8.507,0,0,0-1.965-5.657,6.357,6.357,0,0,0-5.11-2.341,6.607,6.607,0,0,0-5.64,2.8q-2.051,2.8-2.051,7.9a11.124,11.124,0,0,0,1.948,6.921,6.349,6.349,0,0,0,5.332,2.546A6.609,6.609,0,0,0,26.13,66,10.581,10.581,0,0,0,28.2,59.184Z" transform="translate(736 16833)" fill="#fff"/>
  </g>
</svg>
