<svg xmlns="http://www.w3.org/2000/svg" width="121" height="121" viewBox="0 0 121 121">
  <g id="Grupo_24018" data-name="Grupo 24018" transform="translate(-710 -2359)">
    <circle id="Elipse_839" data-name="Elipse 839" cx="60.5" cy="60.5" r="60.5" transform="translate(710 2359)" fill="#fe7c5f"/>
    <path id="Trazado_17262" data-name="Trazado 17262" d="M53.993,0A53.993,53.993,0,1,1,0,53.993,53.993,53.993,0,0,1,53.993,0Z" transform="translate(717 2366)" fill="#fff"/>
    <path id="Trazado_48982" data-name="Trazado 48982" d="M14.185,54.61q-12.5,0-12.5-17.554,0-9.106,3.381-13.879t9.8-4.773q12.207,0,12.207,17.847,0,8.887-3.333,13.623A10.978,10.978,0,0,1,14.185,54.61Zm.342-30.322q-5,0-5,12.573,0,11.841,4.907,11.841,4.785,0,4.785-12.207T14.526,24.288ZM55.859,42.354a12.833,12.833,0,0,1-.9,4.834,11.8,11.8,0,0,1-2.515,3.894,11.635,11.635,0,0,1-3.833,2.588,13.149,13.149,0,0,1-10.144-.159,10.669,10.669,0,0,1-3.943-3.186,14.9,14.9,0,0,1-2.466-5.115,25.276,25.276,0,0,1-.854-6.86,28.245,28.245,0,0,1,1.111-8.191,18.806,18.806,0,0,1,3.174-6.287,14.256,14.256,0,0,1,4.993-4.041A14.846,14.846,0,0,1,47.07,18.4a16.626,16.626,0,0,1,6.3.952V25.8a11.551,11.551,0,0,0-5.811-1.514,8.119,8.119,0,0,0-3.54.757A7.825,7.825,0,0,0,41.3,27.193a10.388,10.388,0,0,0-1.782,3.357,14.94,14.94,0,0,0-.7,4.382h.146a8.491,8.491,0,0,1,7.349-3.442,9.575,9.575,0,0,1,3.931.781,8.527,8.527,0,0,1,3,2.209,10.136,10.136,0,0,1,1.929,3.43A13.685,13.685,0,0,1,55.859,42.354Zm-7.544.488q0-5.64-4.614-5.64a4.527,4.527,0,0,0-1.9.391,4.237,4.237,0,0,0-1.465,1.1,5.012,5.012,0,0,0-.94,1.672,6.573,6.573,0,0,0-.33,2.136,8.262,8.262,0,0,0,.342,2.417,6.419,6.419,0,0,0,.964,1.965,4.776,4.776,0,0,0,1.477,1.331,3.77,3.77,0,0,0,1.9.488,4.123,4.123,0,0,0,1.892-.427,4.237,4.237,0,0,0,1.44-1.2A5.5,5.5,0,0,0,48,45.223,8.464,8.464,0,0,0,48.315,42.843Z" transform="translate(741 2386)" fill="#20287a"/>
  </g>
</svg>
