<svg xmlns="http://www.w3.org/2000/svg" width="64.015" height="64.015" viewBox="0 0 64.015 64.015">
  <g id="Grupo_27392" data-name="Grupo 27392" transform="translate(-367 -5070)">
    <g id="Trazado_48983" data-name="Trazado 48983" transform="translate(367 5070)" fill="#fff">
      <path d="M 32.00732421875 61.51464462280273 C 28.02275848388672 61.51464462280273 24.15871238708496 60.73482513427734 20.52251243591309 59.19684600830078 C 17.00910186767578 57.71079254150391 13.8532018661499 55.58285903930664 11.14250183105469 52.87214660644531 C 8.431791305541992 50.16144561767578 6.303857326507568 47.00554656982422 4.817801952362061 43.49213409423828 C 3.279824256896973 39.85593414306641 2.500001907348633 35.99188995361328 2.500001907348633 32.00732421875 C 2.500001907348633 28.02275848388672 3.279824256896973 24.15871238708496 4.817801952362061 20.52251243591309 C 6.303857326507568 17.00910186767578 8.431791305541992 13.8532018661499 11.14250183105469 11.14250183105469 C 13.8532018661499 8.431791305541992 17.00910186767578 6.303857326507568 20.52251243591309 4.817801952362061 C 24.15871238708496 3.279824256896973 28.02275848388672 2.500001907348633 32.00732421875 2.500001907348633 C 35.99188995361328 2.500001907348633 39.85593414306641 3.279824256896973 43.49213409423828 4.817801952362061 C 47.00554656982422 6.303857326507568 50.16144561767578 8.431791305541992 52.87214660644531 11.14250183105469 C 55.58285903930664 13.8532018661499 57.71079254150391 17.00910186767578 59.19684600830078 20.52251243591309 C 60.73482513427734 24.15871238708496 61.51464462280273 28.02275848388672 61.51464462280273 32.00732421875 C 61.51464462280273 35.99188995361328 60.73482513427734 39.85593414306641 59.19684600830078 43.49213409423828 C 57.71079254150391 47.00554656982422 55.58285903930664 50.16144561767578 52.87214660644531 52.87214660644531 C 50.16144561767578 55.58285903930664 47.00554656982422 57.71079254150391 43.49213409423828 59.19684600830078 C 39.85593414306641 60.73482513427734 35.99188995361328 61.51464462280273 32.00732421875 61.51464462280273 Z" stroke="none"/>
      <path d="M 32.00732421875 5.000003814697266 C 28.35914993286133 5.000003814697266 24.8227653503418 5.71337890625 21.49639129638672 7.120323181152344 C 18.28097915649414 8.480323791503906 15.39217758178711 10.42833709716797 12.91025924682617 12.91025924682617 C 10.42833709716797 15.39217758178711 8.480323791503906 18.28097915649414 7.120323181152344 21.49639129638672 C 5.71337890625 24.8227653503418 5.000003814697266 28.35914993286133 5.000003814697266 32.00732421875 C 5.000003814697266 35.65549850463867 5.71337890625 39.19188690185547 7.120323181152344 42.51825714111328 C 8.480323791503906 45.73367309570312 10.42833709716797 48.62247085571289 12.91025924682617 51.10439300537109 C 15.39217758178711 53.58631134033203 18.28097915649414 55.53432464599609 21.49639129638672 56.89432525634766 C 24.8227653503418 58.30126953125 28.35914993286133 59.01464462280273 32.00732421875 59.01464462280273 C 35.65549850463867 59.01464462280273 39.19188690185547 58.30126953125 42.51825714111328 56.89432525634766 C 45.73367309570312 55.53432464599609 48.62247085571289 53.58631134033203 51.10439300537109 51.10439300537109 C 53.58631134033203 48.62247085571289 55.53432464599609 45.73367309570312 56.89432525634766 42.51825714111328 C 58.30126953125 39.19188690185547 59.01464462280273 35.65549850463867 59.01464462280273 32.00732421875 C 59.01464462280273 28.35914993286133 58.30126953125 24.8227653503418 56.89432525634766 21.49639129638672 C 55.53432464599609 18.28097915649414 53.58631134033203 15.39217758178711 51.10439300537109 12.91025924682617 C 48.62247085571289 10.42833709716797 45.73367309570312 8.480323791503906 42.51825714111328 7.120323181152344 C 39.19188690185547 5.71337890625 35.65549850463867 5.000003814697266 32.00732421875 5.000003814697266 M 32.00732421875 7.62939453125e-06 C 49.68448638916016 7.62939453125e-06 64.01464080810547 14.33016586303711 64.01464080810547 32.00732421875 C 64.01464080810547 49.68448638916016 49.68448638916016 64.01464080810547 32.00732421875 64.01464080810547 C 14.33016586303711 64.01464080810547 7.62939453125e-06 49.68448638916016 7.62939453125e-06 32.00732421875 C 7.62939453125e-06 14.33016586303711 14.33016586303711 7.62939453125e-06 32.00732421875 7.62939453125e-06 Z" stroke="none" fill="#fe7c5f"/>
    </g>
    <path id="Trazado_49746" data-name="Trazado 49746" d="M13.391,0H1.208V-2.417l5.75-6.128A14.184,14.184,0,0,0,8.71-10.8a3.628,3.628,0,0,0,.568-1.831,2.715,2.715,0,0,0-.6-1.862,2.159,2.159,0,0,0-1.709-.677,2.329,2.329,0,0,0-1.886.824,3.264,3.264,0,0,0-.69,2.167H.854a5.827,5.827,0,0,1,.775-2.966,5.463,5.463,0,0,1,2.191-2.106,6.66,6.66,0,0,1,3.21-.763A6.306,6.306,0,0,1,11.3-16.7a4.664,4.664,0,0,1,1.52,3.723,5.976,5.976,0,0,1-.684,2.686A14.924,14.924,0,0,1,9.79-7.1L5.75-2.844h7.642Z" transform="translate(391 5113)" fill="#97181a"/>
  </g>
</svg>
