<svg xmlns="http://www.w3.org/2000/svg" width="121" height="121" viewBox="0 0 121 121">
  <g id="Grupo_24020" data-name="Grupo 24020" transform="translate(-710 -2523)">
    <circle id="Elipse_839" data-name="Elipse 839" cx="60.5" cy="60.5" r="60.5" transform="translate(710 2523)" fill="#fe7c5f"/>
    <path id="Trazado_17262" data-name="Trazado 17262" d="M53.993,0A53.993,53.993,0,1,1,0,53.993,53.993,53.993,0,0,1,53.993,0Z" transform="translate(717 2530)" fill="#fff"/>
    <path id="Trazado_48984" data-name="Trazado 48984" d="M14.185,54.61q-12.5,0-12.5-17.554,0-9.106,3.381-13.879t9.8-4.773q12.207,0,12.207,17.847,0,8.887-3.333,13.623A10.978,10.978,0,0,1,14.185,54.61Zm.342-30.322q-5,0-5,12.573,0,11.841,4.907,11.841,4.785,0,4.785-12.207T14.526,24.288ZM30.713,44.576a9.321,9.321,0,0,1,.427-2.82,8.545,8.545,0,0,1,1.282-2.515,9.434,9.434,0,0,1,2.136-2.075,11.474,11.474,0,0,1,3.015-1.5,10.813,10.813,0,0,1-4.126-3.381,7.727,7.727,0,0,1-1.465-4.578A8.279,8.279,0,0,1,32.825,24a9,9,0,0,1,2.332-2.954A10.906,10.906,0,0,1,38.708,19.1a14.016,14.016,0,0,1,4.5-.7,14.289,14.289,0,0,1,4.565.7,11.164,11.164,0,0,1,3.577,1.929,8.748,8.748,0,0,1,2.332,2.917,8.171,8.171,0,0,1,.83,3.662,7.267,7.267,0,0,1-1.562,4.529,11.632,11.632,0,0,1-4.321,3.357,11.779,11.779,0,0,1,3,1.5,9.664,9.664,0,0,1,2.173,2.087,8.551,8.551,0,0,1,1.318,2.551,9.393,9.393,0,0,1,.439,2.869,9.167,9.167,0,0,1-.9,4.089,9.308,9.308,0,0,1-2.551,3.174,12.04,12.04,0,0,1-3.931,2.063,17.691,17.691,0,0,1-10.034.012A12,12,0,0,1,34.216,51.8a9.455,9.455,0,0,1-2.576-3.162A8.912,8.912,0,0,1,30.713,44.576Zm7.3-.659a5.948,5.948,0,0,0,.366,2.148,4.394,4.394,0,0,0,1.05,1.611,4.689,4.689,0,0,0,1.624,1.013,5.956,5.956,0,0,0,2.112.354,5.636,5.636,0,0,0,2.063-.366,4.841,4.841,0,0,0,1.624-1.025,4.664,4.664,0,0,0,1.074-1.611,5.813,5.813,0,0,0,.024-4.126,4.759,4.759,0,0,0-1.05-1.648,5.108,5.108,0,0,0-3.735-1.526,5.5,5.5,0,0,0-2.051.378,4.69,4.69,0,0,0-1.636,1.074A5.067,5.067,0,0,0,38.4,41.842,5.415,5.415,0,0,0,38.013,43.917Zm1.074-15.5a4.626,4.626,0,0,0,.33,1.746,4.5,4.5,0,0,0,.891,1.416,4.073,4.073,0,0,0,1.331.94,4.056,4.056,0,0,0,3.259,0,4.16,4.16,0,0,0,1.331-.952,4.56,4.56,0,0,0,1.233-3.149,4.85,4.85,0,0,0-.317-1.77,4.185,4.185,0,0,0-2.234-2.356,4.194,4.194,0,0,0-3.345.012,4.09,4.09,0,0,0-1.318.952,4.279,4.279,0,0,0-.854,1.416A4.953,4.953,0,0,0,39.087,28.414Z" transform="translate(741 2551)" fill="#20287a"/>
  </g>
</svg>
