<svg xmlns="http://www.w3.org/2000/svg" width="250" height="264.896" viewBox="0 0 250 264.896">
  <g id="Grupo_26502" data-name="Grupo 26502" transform="translate(-459.5 -131.143)">
    <g id="Grupo_26379" data-name="Grupo 26379" transform="translate(467.21 290.088)" opacity="0.6">
      <g id="Grupo_26370" data-name="Grupo 26370" transform="translate(10.352 9.605)">
        <path id="Trazado_48990" data-name="Trazado 48990" d="M503.659,207.523A35.975,35.975,0,1,0,539.635,243.5,35.975,35.975,0,0,0,503.659,207.523Zm0,54.892A18.917,18.917,0,1,1,522.577,243.5,18.917,18.917,0,0,1,503.659,262.415Z" transform="translate(-467.685 -207.523)" fill="#dae2f2"/>
      </g>
      <g id="Grupo_26371" data-name="Grupo 26371" transform="translate(37.242)">
        <path id="Trazado_48991" data-name="Trazado 48991" d="M497.314,221.137H481.105s-2.778-12.931,0-15.71c2.862-2.862,13.664-3.151,16.208,0C499.783,208.481,497.314,221.137,497.314,221.137Z" transform="translate(-479.87 -203.171)" fill="#dae2f2"/>
      </g>
      <g id="Grupo_26372" data-name="Grupo 26372" transform="translate(35.72 73.569)">
        <path id="Trazado_48992" data-name="Trazado 48992" d="M496.63,236.509H480.415s-2.776,12.927,0,15.7c2.864,2.869,13.666,3.156,16.215,0C499.1,249.158,496.63,236.509,496.63,236.509Z" transform="translate(-479.181 -236.509)" fill="#dae2f2"/>
      </g>
      <g id="Grupo_26373" data-name="Grupo 26373" transform="translate(9.14 10.425)">
        <path id="Trazado_48993" data-name="Trazado 48993" d="M489.508,217.5l-9.919,12.828s-11.927-5.715-12.424-9.61c-.516-4.018,5.868-12.739,9.919-12.826C481.008,207.811,489.508,217.5,489.508,217.5Z" transform="translate(-467.136 -207.895)" fill="#dae2f2"/>
      </g>
      <g id="Grupo_26374" data-name="Grupo 26374" transform="translate(0 36.537)">
        <path id="Trazado_48994" data-name="Trazado 48994" d="M482.283,222.778l-2.646,15.994s-13.209.631-15.5-2.562c-2.359-3.3-.878-14,2.648-16C470.206,218.274,482.283,222.778,482.283,222.778Z" transform="translate(-462.994 -219.728)" fill="#dae2f2"/>
      </g>
      <g id="Grupo_26375" data-name="Grupo 26375" transform="translate(73.884 37.637)">
        <path id="Trazado_48995" data-name="Trazado 48995" d="M496.475,237.258l.66-16.2s13.037-2.249,15.7.638c2.745,2.979,2.591,13.785-.662,16.2C509.018,240.241,496.475,237.258,496.475,237.258Z" transform="translate(-496.475 -220.226)" fill="#dae2f2"/>
      </g>
      <g id="Grupo_26376" data-name="Grupo 26376" transform="translate(60.822 9.918)">
        <path id="Trazado_48996" data-name="Trazado 48996" d="M490.556,217.273l9.917,12.828s11.927-5.718,12.426-9.608c.512-4.023-5.868-12.742-9.919-12.828C499.054,207.581,490.556,217.273,490.556,217.273Z" transform="translate(-490.556 -207.665)" fill="#dae2f2"/>
      </g>
      <g id="Grupo_26377" data-name="Grupo 26377" transform="translate(6.73 59.609)">
        <path id="Trazado_48997" data-name="Trazado 48997" d="M488.414,243.008l-9.919-12.826s-11.927,5.713-12.422,9.608c-.519,4.021,5.863,12.742,9.915,12.828C479.914,252.7,488.414,243.008,488.414,243.008Z" transform="translate(-466.044 -230.183)" fill="#dae2f2"/>
      </g>
      <g id="Grupo_26378" data-name="Grupo 26378" transform="translate(61.449 60.114)">
        <path id="Trazado_48998" data-name="Trazado 48998" d="M490.84,243.24l9.917-12.828s11.927,5.713,12.428,9.608c.512,4.023-5.868,12.739-9.919,12.825C499.338,252.932,490.84,243.24,490.84,243.24Z" transform="translate(-490.84 -230.412)" fill="#dae2f2"/>
      </g>
    </g>
    <g id="Grupo_26389" data-name="Grupo 26389" transform="translate(635.486 305.377)" opacity="0.6">
      <g id="Grupo_26380" data-name="Grupo 26380" transform="translate(8.615 6.052)">
        <path id="Trazado_48999" data-name="Trazado 48999" d="M584.455,215.283a29.547,29.547,0,1,0,15.361,38.86A29.549,29.549,0,0,0,584.455,215.283Zm-17.925,41.37a15.538,15.538,0,1,1,20.434-8.081A15.538,15.538,0,0,1,566.53,256.653Z" transform="translate(-543.154 -212.841)" fill="#ffda89"/>
      </g>
      <g id="Grupo_26381" data-name="Grupo 26381" transform="translate(41.266 0.134)">
        <path id="Trazado_49000" data-name="Trazado 49000" d="M570.169,227.551l-12.219-5.294s2.129-10.652,5.128-11.837c3.1-1.225,11.327,2.088,12.219,5.294C576.16,218.822,570.169,227.551,570.169,227.551Z" transform="translate(-557.95 -210.16)" fill="#ffda89"/>
      </g>
      <g id="Grupo_26382" data-name="Grupo 26382" transform="translate(16.689 53.635)">
        <path id="Trazado_49001" data-name="Trazado 49001" d="M564.308,239.7l-12.221-5.3s-6.311,8.84-5.126,11.841c1.225,3.094,9.266,6.834,12.219,5.294C562.037,250.041,564.308,239.7,564.308,239.7Z" transform="translate(-546.813 -234.404)" fill="#ffda89"/>
      </g>
      <g id="Grupo_26383" data-name="Grupo 26383" transform="translate(17.375)">
        <path id="Trazado_49002" data-name="Trazado 49002" d="M565.094,221.616l-11.665,6.428s-7.123-8.2-6.227-11.3c.927-3.2,8.582-7.684,11.662-6.428C561.852,211.533,565.094,221.616,565.094,221.616Z" transform="translate(-547.124 -210.099)" fill="#ffda89"/>
      </g>
      <g id="Grupo_26384" data-name="Grupo 26384" transform="translate(1.619 15.257)">
        <path id="Trazado_49003" data-name="Trazado 49003" d="M558.115,224.017l-7.218,11.19s-10.162-3.837-10.842-6.991c-.7-3.255,3.906-10.835,7.221-11.193C550.478,216.682,558.115,224.017,558.115,224.017Z" transform="translate(-539.984 -217.013)" fill="#ffda89"/>
      </g>
      <g id="Grupo_26385" data-name="Grupo 26385" transform="translate(55.965 39.461)">
        <path id="Trazado_49004" data-name="Trazado 49004" d="M564.611,239.975l5.786-11.994s10.559,2.566,11.621,5.607c1.1,3.142-2.547,11.234-5.788,11.994C573.091,246.319,564.611,239.975,564.611,239.975Z" transform="translate(-564.611 -227.981)" fill="#ffda89"/>
      </g>
      <g id="Grupo_26386" data-name="Grupo 26386" transform="translate(57.598 17.272)">
        <path id="Trazado_49005" data-name="Trazado 49005" d="M565.351,221.357l3.284,12.907s10.857-.41,12.5-3.184c1.7-2.862-.263-11.517-3.286-12.9C574.917,216.831,565.351,221.357,565.351,221.357Z" transform="translate(-565.351 -217.926)" fill="#ffda89"/>
      </g>
      <g id="Grupo_26387" data-name="Grupo 26387" transform="translate(0 37.316)">
        <path id="Trazado_49006" data-name="Trazado 49006" d="M555.664,239.912l-3.284-12.9s-10.857.408-12.5,3.182c-1.7,2.86.26,11.517,3.286,12.9C546.1,244.44,555.664,239.912,555.664,239.912Z" transform="translate(-539.25 -227.009)" fill="#ffda89"/>
      </g>
      <g id="Grupo_26388" data-name="Grupo 26388" transform="translate(40.628 54.738)">
        <path id="Trazado_49007" data-name="Trazado 49007" d="M557.661,241.33l11.662-6.426s7.126,8.2,6.23,11.3c-.927,3.2-8.584,7.686-11.665,6.428C560.9,251.41,557.661,241.33,557.661,241.33Z" transform="translate(-557.661 -234.904)" fill="#ffda89"/>
      </g>
    </g>
    <g id="Grupo_26390" data-name="Grupo 26390" transform="translate(459.5 383.716)">
      <path id="Trazado_49008" data-name="Trazado 49008" d="M704.012,251.762c0,3.4-54.738,6.159-122.259,6.159S459.5,255.163,459.5,251.762s54.738-6.163,122.253-6.163S704.012,248.357,704.012,251.762Z" transform="translate(-459.5 -245.599)" fill="#eaf0fe"/>
    </g>
    <g id="Grupo_26421" data-name="Grupo 26421" transform="translate(566.311 215.192)">
      <g id="Grupo_26392" data-name="Grupo 26392">
        <g id="Grupo_26391" data-name="Grupo 26391">
          <rect id="Rectángulo_4964" data-name="Rectángulo 4964" width="140.649" height="108.709" fill="#dae2f2"/>
        </g>
      </g>
      <g id="Grupo_26394" data-name="Grupo 26394" transform="translate(3.293 3.226)">
        <g id="Grupo_26393" data-name="Grupo 26393">
          <rect id="Rectángulo_4965" data-name="Rectángulo 4965" width="131.244" height="9.588" fill="#eaf0fe"/>
        </g>
      </g>
      <g id="Grupo_26396" data-name="Grupo 26396" transform="translate(5.176 17.611)">
        <g id="Grupo_26395" data-name="Grupo 26395">
          <rect id="Rectángulo_4966" data-name="Rectángulo 4966" width="49.863" height="86.496" fill="#eaf0fe"/>
        </g>
      </g>
      <g id="Grupo_26398" data-name="Grupo 26398" transform="translate(9.411 73.699)">
        <g id="Grupo_26397" data-name="Grupo 26397">
          <rect id="Rectángulo_4967" data-name="Rectángulo 4967" width="39.042" height="25.127" fill="#dae2f2"/>
        </g>
      </g>
      <g id="Grupo_26400" data-name="Grupo 26400" transform="translate(9.411 24.175)">
        <g id="Grupo_26399" data-name="Grupo 26399">
          <rect id="Rectángulo_4968" data-name="Rectángulo 4968" width="39.042" height="3.547" fill="#dae2f2"/>
        </g>
      </g>
      <g id="Grupo_26402" data-name="Grupo 26402" transform="translate(9.411 32.163)">
        <g id="Grupo_26401" data-name="Grupo 26401">
          <rect id="Rectángulo_4969" data-name="Rectángulo 4969" width="39.042" height="3.551" fill="#dae2f2"/>
        </g>
      </g>
      <g id="Grupo_26404" data-name="Grupo 26404" transform="translate(9.411 41.751)">
        <g id="Grupo_26403" data-name="Grupo 26403">
          <rect id="Rectángulo_4970" data-name="Rectángulo 4970" width="39.042" height="3.547" fill="#dae2f2"/>
        </g>
      </g>
      <g id="Grupo_26406" data-name="Grupo 26406" transform="translate(9.411 49.735)">
        <g id="Grupo_26405" data-name="Grupo 26405">
          <rect id="Rectángulo_4971" data-name="Rectángulo 4971" width="39.042" height="3.551" fill="#dae2f2"/>
        </g>
      </g>
      <g id="Grupo_26408" data-name="Grupo 26408" transform="translate(69.152 17.611)">
        <g id="Grupo_26407" data-name="Grupo 26407">
          <rect id="Rectángulo_4972" data-name="Rectángulo 4972" width="65.385" height="4.256" fill="#eaf0fe"/>
        </g>
      </g>
      <g id="Grupo_26410" data-name="Grupo 26410" transform="translate(69.152 25.593)">
        <g id="Grupo_26409" data-name="Grupo 26409">
          <rect id="Rectángulo_4973" data-name="Rectángulo 4973" width="65.385" height="4.261" fill="#eaf0fe"/>
        </g>
      </g>
      <g id="Grupo_26412" data-name="Grupo 26412" transform="translate(69.152 35.178)">
        <g id="Grupo_26411" data-name="Grupo 26411">
          <rect id="Rectángulo_4974" data-name="Rectángulo 4974" width="65.385" height="4.263" fill="#eaf0fe"/>
        </g>
      </g>
      <g id="Grupo_26414" data-name="Grupo 26414" transform="translate(69.152 45.298)">
        <g id="Grupo_26413" data-name="Grupo 26413">
          <rect id="Rectángulo_4975" data-name="Rectángulo 4975" width="65.385" height="56.304" fill="#eaf0fe"/>
        </g>
      </g>
      <g id="Grupo_26416" data-name="Grupo 26416" transform="translate(74.798 51.511)">
        <g id="Grupo_26415" data-name="Grupo 26415">
          <rect id="Rectángulo_4976" data-name="Rectángulo 4976" width="55.502" height="25.332" fill="#dae2f2"/>
        </g>
      </g>
      <g id="Grupo_26418" data-name="Grupo 26418" transform="translate(5.176 5.625)">
        <g id="Grupo_26417" data-name="Grupo 26417">
          <rect id="Rectángulo_4977" data-name="Rectángulo 4977" width="71.266" height="4.53" fill="#dae2f2"/>
        </g>
      </g>
      <g id="Grupo_26420" data-name="Grupo 26420" transform="translate(103.725 5.625)">
        <g id="Grupo_26419" data-name="Grupo 26419">
          <rect id="Rectángulo_4978" data-name="Rectángulo 4978" width="28.222" height="4.53" fill="#dae2f2"/>
        </g>
      </g>
    </g>
    <g id="Grupo_26434" data-name="Grupo 26434" transform="translate(476.941 192.333)">
      <g id="Grupo_26424" data-name="Grupo 26424">
        <g id="Grupo_26423" data-name="Grupo 26423">
          <g id="Grupo_26422" data-name="Grupo 26422">
            <path id="Trazado_49009" data-name="Trazado 49009" d="M548.484,159.1a75.222,75.222,0,1,0,69.141,80.852A75.232,75.232,0,0,0,548.484,159.1Zm-8.935,114.432a39.557,39.557,0,1,1,42.526-36.358A39.562,39.562,0,0,1,539.549,273.536Z" transform="translate(-467.404 -158.872)" fill="#ffe8a9"/>
          </g>
        </g>
      </g>
      <g id="Grupo_26433" data-name="Grupo 26433" transform="translate(0.021 0)">
        <g id="Grupo_26426" data-name="Grupo 26426" transform="translate(23.594)">
          <g id="Grupo_26425" data-name="Grupo 26425">
            <path id="Trazado_49010" data-name="Trazado 49010" d="M532.792,194.661c1.227.1,2.441.265,3.628.468l-.329-35.972c-.172-.011-.34-.038-.521-.053A75.032,75.032,0,0,0,478.1,179.381l22.762,27.688A39.445,39.445,0,0,1,532.792,194.661Z" transform="translate(-478.105 -158.872)" fill="#fdd247"/>
          </g>
        </g>
        <g id="Grupo_26428" data-name="Grupo 26428" transform="translate(0 72.807)">
          <g id="Grupo_26427" data-name="Grupo 26427">
            <path id="Trazado_49011" data-name="Trazado 49011" d="M503.157,191.865l-35.745,3.994a75.1,75.1,0,0,0,24.517,53.99l25.17-25.393A39.448,39.448,0,0,1,503.157,191.865Z" transform="translate(-467.413 -191.865)" fill="#fdd247"/>
          </g>
        </g>
        <g id="Grupo_26430" data-name="Grupo 26430" transform="translate(104.793 30.199)">
          <g id="Grupo_26429" data-name="Grupo 26429">
            <path id="Trazado_49012" data-name="Trazado 49012" d="M524.758,220.664a41.561,41.561,0,0,1-.788,5.175l35.458,4.57c.393-2.286.7-4.6.881-6.967a74.906,74.906,0,0,0-14.759-50.885L514.9,191.372A39.415,39.415,0,0,1,524.758,220.664Z" transform="translate(-514.901 -172.557)" fill="#fdd247"/>
          </g>
        </g>
        <g id="Grupo_26432" data-name="Grupo 26432" transform="translate(73.197 99.865)">
          <g id="Grupo_26431" data-name="Grupo 26431">
            <path id="Trazado_49013" data-name="Trazado 49013" d="M500.583,218.963l1.406,35.725A75.081,75.081,0,0,0,557.212,231.2l-23.661-27.072A39.536,39.536,0,0,1,500.583,218.963Z" transform="translate(-500.583 -204.127)" fill="#fdd247"/>
          </g>
        </g>
      </g>
    </g>
    <g id="Grupo_26501" data-name="Grupo 26501" transform="translate(549.512 131.143)">
      <g id="Grupo_26443" data-name="Grupo 26443" transform="translate(16.728 107.508)">
        <g id="Grupo_26438" data-name="Grupo 26438" transform="translate(20.792)">
          <g id="Grupo_26437" data-name="Grupo 26437">
            <g id="Grupo_26436" data-name="Grupo 26436">
              <g id="Grupo_26435" data-name="Grupo 26435">
                <path id="Trazado_49014" data-name="Trazado 49014" d="M518.609,185s4.239-2.3,4.31-3.416c.051-.931-1.289-4.268-5.627,1.979Z" transform="translate(-517.292 -179.861)" fill="#ffc190"/>
              </g>
            </g>
          </g>
        </g>
        <g id="Grupo_26442" data-name="Grupo 26442" transform="translate(0 3.186)">
          <g id="Grupo_26441" data-name="Grupo 26441">
            <g id="Grupo_26440" data-name="Grupo 26440">
              <g id="Grupo_26439" data-name="Grupo 26439">
                <path id="Trazado_49015" data-name="Trazado 49015" d="M520.1,219.843,507.87,201.761,528.706,181.3l1.79,1.677L516.94,201.207l10.005,16.652s3.811,5.338.049,7.593A19.052,19.052,0,0,1,520.1,219.843Z" transform="translate(-507.87 -181.305)" fill="#60d3be"/>
              </g>
            </g>
          </g>
        </g>
      </g>
      <g id="Grupo_26455" data-name="Grupo 26455">
        <g id="Grupo_26444" data-name="Grupo 26444" transform="translate(82.706 88.768)">
          <path id="Trazado_49016" data-name="Trazado 49016" d="M562.63,197.572c-7.838,6.091-17.945,6.2-22.568.249s-2.026-15.721,5.81-21.809,17.943-6.2,22.568-.249S570.464,191.479,562.63,197.572Z" transform="translate(-537.769 -171.369)" fill="#b52426"/>
        </g>
        <g id="Grupo_26445" data-name="Grupo 26445" transform="translate(74.733 84.375)">
          <path id="Trazado_49017" data-name="Trazado 49017" d="M556.961,189.373c-10.431,8.105-20.489,12.618-22.464,10.074s4.875-11.175,15.308-19.282,20.489-12.618,22.464-10.078S567.392,181.268,556.961,189.373Z" transform="translate(-534.156 -169.378)" fill="#d64626"/>
        </g>
        <g id="Grupo_26446" data-name="Grupo 26446">
          <path id="Trazado_49018" data-name="Trazado 49018" d="M545.908,171.129c-20.867,16.211-40.985,25.234-44.94,20.15s9.758-22.356,30.627-38.569,40.972-25.234,44.929-20.147S566.768,154.916,545.908,171.129Z" transform="translate(-500.29 -131.143)" fill="#b52426"/>
        </g>
        <g id="Grupo_26447" data-name="Grupo 26447" transform="translate(0)">
          <path id="Trazado_49019" data-name="Trazado 49019" d="M531.595,152.709c-20.869,16.213-34.577,33.48-30.627,38.569l75.556-58.717C572.567,127.475,552.453,136.5,531.595,152.709Z" transform="translate(-500.29 -131.143)" fill="#b52426"/>
        </g>
        <g id="Grupo_26448" data-name="Grupo 26448" transform="translate(0.678 60.136)">
          <path id="Trazado_49020" data-name="Trazado 49020" d="M501.948,159.374l-1.351-.98A3.293,3.293,0,0,0,501.948,159.374Z" transform="translate(-500.597 -158.394)" fill="#4e49a3"/>
        </g>
        <g id="Grupo_26449" data-name="Grupo 26449" transform="translate(76.234 1.419)">
          <path id="Trazado_49021" data-name="Trazado 49021" d="M534.836,131.786l.58,1.32A3.2,3.2,0,0,0,534.836,131.786Z" transform="translate(-534.836 -131.786)" fill="#4e49a3"/>
        </g>
        <g id="Grupo_26450" data-name="Grupo 26450" transform="translate(14.218 93.402)">
          <rect id="Rectángulo_4979" data-name="Rectángulo 4979" width="75.089" height="19.196" transform="translate(0 36.482) rotate(-29.069)" fill="#d64626"/>
        </g>
        <g id="Grupo_26451" data-name="Grupo 26451" transform="translate(23.281 18.661)">
          <path id="Trazado_49022" data-name="Trazado 49022" d="M545.254,176.473c-10.374,8.059-24.188,7.633-30.861-.951s-3.674-22.083,6.7-30.144,24.192-7.635,30.865.949S555.628,168.409,545.254,176.473Z" transform="translate(-510.84 -139.6)" fill="#ffda89"/>
        </g>
        <g id="Grupo_26452" data-name="Grupo 26452" transform="translate(2.029 2.739)">
          <path id="Trazado_49023" data-name="Trazado 49023" d="M612.026,214.728l-36.031-82.344c1.3,6.307-11.868,22.226-31.2,37.247-19.106,14.845-37.578,23.652-43.589,21.129l73.045,53.328Z" transform="translate(-501.209 -132.384)" fill="#d64626"/>
        </g>
        <g id="Grupo_26453" data-name="Grupo 26453" transform="translate(10.698 127.984)">
          <path id="Trazado_49024" data-name="Trazado 49024" d="M520.511,206.291a9.662,9.662,0,1,1,1.43-13.335A9.49,9.49,0,0,1,520.511,206.291Z" transform="translate(-505.138 -189.14)" fill="#d64626"/>
        </g>
        <g id="Grupo_26454" data-name="Grupo 26454" transform="translate(38.926 112.382)">
          <path id="Trazado_49025" data-name="Trazado 49025" d="M525.321,190.268a4.58,4.58,0,1,1,.808-6.43A4.58,4.58,0,0,1,525.321,190.268Z" transform="translate(-517.929 -182.07)" fill="#ffda89"/>
        </g>
      </g>
      <g id="Grupo_26459" data-name="Grupo 26459" transform="translate(72.451 114.334)">
        <g id="Grupo_26458" data-name="Grupo 26458">
          <g id="Grupo_26457" data-name="Grupo 26457">
            <g id="Grupo_26456" data-name="Grupo 26456">
              <path id="Trazado_49026" data-name="Trazado 49026" d="M535.468,188.986s-2.743-3.972-2.3-4.994c.373-.856,3.076-3.228,4.127,4.3Z" transform="translate(-533.122 -182.955)" fill="#ffc190"/>
            </g>
          </g>
        </g>
      </g>
      <g id="Grupo_26463" data-name="Grupo 26463" transform="translate(57.834 119.196)">
        <g id="Grupo_26462" data-name="Grupo 26462">
          <g id="Grupo_26461" data-name="Grupo 26461">
            <g id="Grupo_26460" data-name="Grupo 26460">
              <path id="Trazado_49027" data-name="Trazado 49027" d="M535.738,223.423l19.082-10.6-9.337-27.664-2.353.686,3.849,22.385L530.53,218.561s-5.813,3.041-3.48,6.748A19.042,19.042,0,0,0,535.738,223.423Z" transform="translate(-526.498 -185.158)" fill="#60d3be"/>
            </g>
          </g>
        </g>
      </g>
      <g id="Grupo_26467" data-name="Grupo 26467" transform="translate(41.254 256.15)">
        <g id="Grupo_26466" data-name="Grupo 26466">
          <g id="Grupo_26465" data-name="Grupo 26465">
            <g id="Grupo_26464" data-name="Grupo 26464">
              <path id="Trazado_49028" data-name="Trazado 49028" d="M523.913,247.22l-1.485.474.274,2.39-.306,1.149-3.411,4.4,7.01-4.224Z" transform="translate(-518.984 -247.22)" fill="#2e3b57"/>
            </g>
          </g>
        </g>
      </g>
      <g id="Grupo_26471" data-name="Grupo 26471" transform="translate(46.122 253.719)">
        <g id="Grupo_26470" data-name="Grupo 26470">
          <g id="Grupo_26469" data-name="Grupo 26469">
            <g id="Grupo_26468" data-name="Grupo 26468">
              <path id="Trazado_49029" data-name="Trazado 49029" d="M522.266,246.118l1.554.133.272,2.39.56,1.047,4.321,3.515-7.782-2.528Z" transform="translate(-521.19 -246.118)" fill="#2e3b57"/>
            </g>
          </g>
        </g>
      </g>
      <g id="Grupo_26475" data-name="Grupo 26475" transform="translate(34.425 189.569)">
        <g id="Grupo_26474" data-name="Grupo 26474">
          <g id="Grupo_26473" data-name="Grupo 26473">
            <g id="Grupo_26472" data-name="Grupo 26472">
              <path id="Trazado_49030" data-name="Trazado 49030" d="M516.9,217.048l-1.011,36.286,10.135,33.045,3.039-1.42-5.269-29.4,11.049-37.409Z" transform="translate(-515.89 -217.048)" fill="#a84e67"/>
            </g>
          </g>
        </g>
      </g>
      <g id="Grupo_26479" data-name="Grupo 26479" transform="translate(45.775 189.569)">
        <g id="Grupo_26478" data-name="Grupo 26478">
          <g id="Grupo_26477" data-name="Grupo 26477">
            <g id="Grupo_26476" data-name="Grupo 26476">
              <path id="Trazado_49031" data-name="Trazado 49031" d="M521.033,218.748l3.605,35.4-3.605,29.4h3.605l7.141-29.855,6.487-36.639Z" transform="translate(-521.033 -217.048)" fill="#c86277"/>
            </g>
          </g>
        </g>
      </g>
      <g id="Grupo_26483" data-name="Grupo 26483" transform="translate(33.61 144.423)">
        <g id="Grupo_26482" data-name="Grupo 26482">
          <g id="Grupo_26481" data-name="Grupo 26481">
            <g id="Grupo_26480" data-name="Grupo 26480">
              <path id="Trazado_49032" data-name="Trazado 49032" d="M516.335,247.144l29.58-2.549-2.4-21.759,5.765-21.671-13.126-4.575H515.521l.946,30.024Z" transform="translate(-515.521 -196.59)" fill="#ff8f00"/>
            </g>
          </g>
        </g>
      </g>
      <g id="Grupo_26500" data-name="Grupo 26500" transform="translate(46.022 130.892)">
        <g id="Grupo_26487" data-name="Grupo 26487" transform="translate(0.991 7.984)">
          <g id="Grupo_26486" data-name="Grupo 26486">
            <g id="Grupo_26485" data-name="Grupo 26485">
              <g id="Grupo_26484" data-name="Grupo 26484">
                <path id="Trazado_49033" data-name="Trazado 49033" d="M522.477,194.493l-.883,5.832s7.551,4.257,6.545,1.5a66.438,66.438,0,0,1-1.876-7.746Z" transform="translate(-521.594 -194.076)" fill="#ffc190"/>
              </g>
            </g>
          </g>
        </g>
        <g id="Grupo_26491" data-name="Grupo 26491" transform="translate(0.58 0.387)">
          <g id="Grupo_26490" data-name="Grupo 26490">
            <g id="Grupo_26489" data-name="Grupo 26489">
              <g id="Grupo_26488" data-name="Grupo 26488">
                <path id="Trazado_49034" data-name="Trazado 49034" d="M521.984,192.118c-.333,1.211-1.006,3.57-.183,5.025s2.1,4.078,3.919,4.541a2.442,2.442,0,0,0,2.882-1.933c.322-1.178,0-7.543-2.977-8.774C523.374,190.048,522.236,191.2,521.984,192.118Z" transform="translate(-521.408 -190.633)" fill="#ffc190"/>
              </g>
            </g>
          </g>
        </g>
        <g id="Grupo_26495" data-name="Grupo 26495">
          <g id="Grupo_26494" data-name="Grupo 26494">
            <g id="Grupo_26493" data-name="Grupo 26493">
              <g id="Grupo_26492" data-name="Grupo 26492">
                <path id="Trazado_49035" data-name="Trazado 49035" d="M527.2,192.226a3.525,3.525,0,0,1-3.1,1.095c-2-.267-1.538,1.624-1.518,1.834s.662,2.911,0,3.034-1.951-3.193-1.212-5.592A3.163,3.163,0,0,1,527.2,192.226Z" transform="translate(-521.145 -190.458)" fill="#2e3b57"/>
              </g>
            </g>
          </g>
        </g>
        <g id="Grupo_26499" data-name="Grupo 26499" transform="translate(1.989 6.771)">
          <g id="Grupo_26498" data-name="Grupo 26498">
            <g id="Grupo_26497" data-name="Grupo 26497">
              <g id="Grupo_26496" data-name="Grupo 26496">
                <path id="Trazado_49036" data-name="Trazado 49036" d="M522.046,195.439s2.18,1.679,4.177,1.209c1.269-.3,1.681-2.608,1.622-3.087s1.09,4.188-1.719,4.663S522.046,195.439,522.046,195.439Z" transform="translate(-522.046 -193.526)" fill="#2e3b57"/>
              </g>
            </g>
          </g>
        </g>
      </g>
    </g>
  </g>
</svg>
