<svg xmlns="http://www.w3.org/2000/svg" width="613.298" height="403.031" viewBox="0 0 613.298 403.031">
  <g id="Grupo_18140" data-name="Grupo 18140" transform="translate(-250.002 -157.53)">
    <g id="Grupo_24012" data-name="Grupo 24012">
      <g id="Grupo_24011" data-name="Grupo 24011">
        <path id="Trazado_17263" data-name="Trazado 17263" d="M1024.037,331.617C998.854,310.136,968.5,180.59,864.495,248.062c-53.732,34.859-144.337-29.927-219.331-7.549-68.873,20.551-75.512,88.259-68.848,110.321,13.461,44.566-28.429,51.2-67.29,70.346-60.956,30.035-16.132,135.592,41.454,136.1s406.453-1.005,406.453-1.005,83.656.212,118.444-45.96C1112.813,460.626,1089.083,387.1,1024.037,331.617Z" transform="translate(-229.877 3.181)" fill="#ebf2f9"/>
        <g id="Grupo_18132" data-name="Grupo 18132" transform="translate(405.824 157.53)">
          <g id="Grupo_18121" data-name="Grupo 18121" transform="translate(211.488 0)">
            <rect id="Rectángulo_3380" data-name="Rectángulo 3380" width="230.56" height="347.71" fill="#d2e4ff"/>
            <rect id="Rectángulo_3381" data-name="Rectángulo 3381" width="185.628" height="206.904" transform="translate(22.277 19.449)" fill="#f3f9ff"/>
            <circle id="Elipse_841" data-name="Elipse 841" cx="33.384" cy="33.384" r="33.384" transform="translate(12.395 292.458) rotate(-45)" fill="#f3f9ff"/>
            <path id="Trazado_17286" data-name="Trazado 17286" d="M1733.55,1305.56a28.219,28.219,0,1,0-11.1,22.438l-17.115-22.438,26.37,10.065A28.178,28.178,0,0,0,1733.55,1305.56Z" transform="translate(-1645.723 -1013.102)" fill="#ee9849"/>
            <circle id="Elipse_842" data-name="Elipse 842" cx="33.384" cy="33.384" r="33.384" transform="translate(133.191 317.279) rotate(-76.718)" fill="#f3f9ff"/>
            <path id="Trazado_17287" data-name="Trazado 17287" d="M2187.367,1277.339a28.22,28.22,0,0,0-20.113,48.016l20.113-19.8,26.37,10.065a28.239,28.239,0,0,0-26.37-38.285Z" transform="translate(-2014.014 -1013.102)" fill="#ee9849"/>
            <g id="Grupo_18117" data-name="Grupo 18117" transform="translate(156.358 278.132)">
              <path id="Trazado_17288" data-name="Trazado 17288" d="M2219.59,1336.222h-12.012a.861.861,0,0,0-.858.858h0a.861.861,0,0,0,.858.858h12.012a.861.861,0,0,0,.858-.858h0A.86.86,0,0,0,2219.59,1336.222Z" transform="translate(-2206.72 -1336.222)" fill="#dd7c2c"/>
              <path id="Trazado_17289" data-name="Trazado 17289" d="M2219.59,1347.736h-12.012a.858.858,0,0,0,0,1.716h12.012a.858.858,0,0,0,0-1.716Z" transform="translate(-2206.72 -1345.019)" fill="#dd7c2c"/>
              <path id="Trazado_17290" data-name="Trazado 17290" d="M2212.539,1359.252h-4.961a.858.858,0,1,0,0,1.716h4.961a.858.858,0,1,0,0-1.716Z" transform="translate(-2206.72 -1353.818)" fill="#dd7c2c"/>
            </g>
            <g id="Grupo_18118" data-name="Grupo 18118" transform="translate(42.382 278.132)">
              <path id="Trazado_17291" data-name="Trazado 17291" d="M1736.574,1336.222h-12.013a.86.86,0,0,0-.858.858h0a.861.861,0,0,0,.858.858h12.013a.86.86,0,0,0,.858-.858h0A.86.86,0,0,0,1736.574,1336.222Z" transform="translate(-1723.703 -1336.222)" fill="#dd7c2c"/>
              <path id="Trazado_17292" data-name="Trazado 17292" d="M1736.574,1347.736h-12.013a.858.858,0,0,0,0,1.716h12.013a.858.858,0,0,0,0-1.716Z" transform="translate(-1723.703 -1345.019)" fill="#dd7c2c"/>
              <path id="Trazado_17293" data-name="Trazado 17293" d="M1729.521,1359.252h-4.96a.858.858,0,1,0,0,1.716h4.96a.858.858,0,1,0,0-1.716Z" transform="translate(-1723.703 -1353.818)" fill="#dd7c2c"/>
            </g>
            <g id="Grupo_18119" data-name="Grupo 18119" transform="translate(38.807 59.38)">
              <rect id="Rectángulo_3382" data-name="Rectángulo 3382" width="19.588" height="122.022" transform="translate(0 34.013)" fill="#a6c7f9"/>
              <rect id="Rectángulo_3383" data-name="Rectángulo 3383" width="19.588" height="156.035" transform="translate(32.091)" fill="#a6c7f9"/>
              <rect id="Rectángulo_3384" data-name="Rectángulo 3384" width="19.588" height="92.514" transform="translate(67.107 63.521)" fill="#a6c7f9"/>
              <rect id="Rectángulo_3385" data-name="Rectángulo 3385" width="19.588" height="135.203" transform="translate(101.18 20.832)" fill="#a6c7f9"/>
              <rect id="Rectángulo_3386" data-name="Rectángulo 3386" width="19.588" height="74.406" transform="translate(135.43 81.629)" fill="#a6c7f9"/>
            </g>
            <g id="Grupo_18120" data-name="Grupo 18120" transform="translate(71.984 36.047)">
              <path id="Trazado_17294" data-name="Trazado 17294" d="M2157.147,422.915h-16.589a1.716,1.716,0,0,0,0,3.432h16.589a1.716,1.716,0,1,0,0-3.432Z" transform="translate(-2070.486 -396.34)" fill="#a6c7f9"/>
              <path id="Trazado_17295" data-name="Trazado 17295" d="M2144.337,449.378h-3.779a1.716,1.716,0,0,0,0,3.432h3.779a1.716,1.716,0,1,0,0-3.432Z" transform="translate(-2070.486 -416.558)" fill="#a6c7f9"/>
              <path id="Trazado_17296" data-name="Trazado 17296" d="M1867.459,310.292H1850.87a1.716,1.716,0,1,0,0,3.432h16.589a1.716,1.716,0,0,0,0-3.432Z" transform="translate(-1849.154 -310.292)" fill="#a6c7f9"/>
              <path id="Trazado_17297" data-name="Trazado 17297" d="M1854.648,336.755h-3.778a1.721,1.721,0,0,0-1.716,1.716h0a1.721,1.721,0,0,0,1.716,1.716h3.778a1.721,1.721,0,0,0,1.716-1.716h0A1.721,1.721,0,0,0,1854.648,336.755Z" transform="translate(-1849.154 -330.511)" fill="#a6c7f9"/>
              <path id="Trazado_17298" data-name="Trazado 17298" d="M2010.332,601.192h-16.589a1.716,1.716,0,1,0,0,3.432h16.589a1.716,1.716,0,0,0,0-3.432Z" transform="translate(-1958.314 -532.549)" fill="#a6c7f9"/>
              <path id="Trazado_17299" data-name="Trazado 17299" d="M1997.521,627.656h-3.778a1.722,1.722,0,0,0-1.716,1.716h0a1.721,1.721,0,0,0,1.716,1.716h3.778a1.721,1.721,0,0,0,1.716-1.716h0A1.721,1.721,0,0,0,1997.521,627.656Z" transform="translate(-1958.314 -552.769)" fill="#a6c7f9"/>
              <path id="Trazado_17300" data-name="Trazado 17300" d="M2299.878,678.373h-16.589a1.716,1.716,0,1,0,0,3.432h16.589a1.716,1.716,0,0,0,0-3.432Z" transform="translate(-2179.536 -591.518)" fill="#a6c7f9"/>
              <path id="Trazado_17301" data-name="Trazado 17301" d="M2287.067,704.837h-3.778a1.716,1.716,0,1,0,0,3.432h3.778a1.716,1.716,0,1,0,0-3.432Z" transform="translate(-2179.536 -611.737)" fill="#a6c7f9"/>
            </g>
          </g>
          <g id="Grupo_18125" data-name="Grupo 18125" transform="translate(11.868 131.802)">
            <rect id="Rectángulo_3387" data-name="Rectángulo 3387" width="168.506" height="94.864" fill="#aed3ff"/>
            <rect id="Rectángulo_3388" data-name="Rectángulo 3388" width="168.506" height="94.864" transform="translate(5.479)" fill="#d2e4ff"/>
            <circle id="Elipse_843" data-name="Elipse 843" cx="30.468" cy="30.468" r="30.468" transform="translate(8.476 45.289) rotate(-45)" fill="#f3f9ff"/>
            <g id="Grupo_18122" data-name="Grupo 18122" transform="translate(101.244 28.269)">
              <path id="Trazado_17302" data-name="Trazado 17302" d="M1180.99,835.892h-50.473a3.336,3.336,0,0,0-3.326,3.326h0a3.336,3.336,0,0,0,3.326,3.326h50.473a3.336,3.336,0,0,0,3.326-3.326h0A3.336,3.336,0,0,0,1180.99,835.892Z" transform="translate(-1127.191 -835.892)" fill="#f3f9ff"/>
              <path id="Trazado_17303" data-name="Trazado 17303" d="M1180.99,893.927h-50.473a3.336,3.336,0,0,0-3.326,3.326h0a3.335,3.335,0,0,0,3.326,3.326h50.473a3.335,3.335,0,0,0,3.326-3.326h0A3.336,3.336,0,0,0,1180.99,893.927Z" transform="translate(-1127.191 -880.233)" fill="#f3f9ff"/>
              <path id="Trazado_17304" data-name="Trazado 17304" d="M1180.99,951.962h-50.473a3.326,3.326,0,1,0,0,6.651h50.473a3.326,3.326,0,1,0,0-6.651Z" transform="translate(-1127.191 -924.573)" fill="#f3f9ff"/>
            </g>
            <path id="Trazado_17305" data-name="Trazado 17305" d="M798.435,815.822h27.9v-27.9A27.9,27.9,0,0,0,798.435,815.822Z" transform="translate(-774.766 -770.976)" fill="#a8d29f"/>
            <path id="Trazado_17306" data-name="Trazado 17306" d="M854.226,909.951H798.435a27.9,27.9,0,0,0,27.9,27.9h0A27.9,27.9,0,0,0,854.226,909.951Z" transform="translate(-774.766 -864.207)" fill="#f1a34f"/>
            <g id="Grupo_18123" data-name="Grupo 18123" transform="translate(30.041 30.505)">
              <path id="Trazado_17307" data-name="Trazado 17307" d="M842.144,845.367H827a1.566,1.566,0,0,0,0,3.133h15.14a1.566,1.566,0,0,0,0-3.133Z" transform="translate(-825.438 -845.367)" fill="#82b378"/>
              <path id="Trazado_17308" data-name="Trazado 17308" d="M830.452,869.52H827a1.566,1.566,0,1,0,0,3.132h3.448a1.566,1.566,0,0,0,0-3.132Z" transform="translate(-825.438 -863.821)" fill="#82b378"/>
            </g>
            <g id="Grupo_18124" data-name="Grupo 18124" transform="translate(52.517 52.564)">
              <path id="Trazado_17309" data-name="Trazado 17309" d="M937.4,938.852h-15.14a1.566,1.566,0,0,0,0,3.132H937.4a1.566,1.566,0,0,0,0-3.132Z" transform="translate(-920.692 -938.852)" fill="#dd8936"/>
              <path id="Trazado_17310" data-name="Trazado 17310" d="M925.706,963h-3.448a1.571,1.571,0,0,0-1.566,1.566h0a1.571,1.571,0,0,0,1.566,1.566h3.448a1.571,1.571,0,0,0,1.566-1.566h0A1.571,1.571,0,0,0,925.706,963Z" transform="translate(-920.692 -957.304)" fill="#dd8936"/>
            </g>
          </g>
          <g id="Grupo_18128" data-name="Grupo 18128" transform="translate(0 243.654)">
            <path id="Trazado_17311" data-name="Trazado 17311" d="M647.833,1190.109v97.017H816.339v-97.017Z" transform="translate(-647.833 -1190.109)" fill="#aed3ff"/>
            <path id="Trazado_17312" data-name="Trazado 17312" d="M671.054,1190.109v97.017H839.56v-97.017Z" transform="translate(-665.575 -1190.109)" fill="#d2e4ff"/>
            <circle id="Elipse_844" data-name="Elipse 844" cx="30.468" cy="30.468" r="30.468" transform="translate(21.095 15.045)" fill="#f3f9ff"/>
            <g id="Grupo_18126" data-name="Grupo 18126" transform="translate(101.242 28.492)">
              <path id="Trazado_17313" data-name="Trazado 17313" d="M1080.213,1317.509h50.473a3.326,3.326,0,1,0,0-6.652h-50.473a3.326,3.326,0,0,0,0,6.652Z" transform="translate(-1076.887 -1310.857)" fill="#f3f9ff"/>
              <path id="Trazado_17314" data-name="Trazado 17314" d="M1130.686,1368.893h-50.473a3.326,3.326,0,0,0,0,6.651h50.473a3.326,3.326,0,1,0,0-6.651Z" transform="translate(-1076.887 -1355.198)" fill="#f3f9ff"/>
              <path id="Trazado_17315" data-name="Trazado 17315" d="M1130.686,1426.928h-50.473a3.336,3.336,0,0,0-3.326,3.326h0a3.335,3.335,0,0,0,3.326,3.326h50.473a3.336,3.336,0,0,0,3.326-3.326h0A3.336,3.336,0,0,0,1130.686,1426.928Z" transform="translate(-1076.887 -1399.539)" fill="#f3f9ff"/>
            </g>
            <path id="Trazado_17316" data-name="Trazado 17316" d="M776.027,1383.935l-27.893-.355c0,.117,0,.238,0,.355a27.9,27.9,0,0,0,42.863,23.542Z" transform="translate(-724.464 -1337.927)" fill="#f1a34f"/>
            <g id="Grupo_18127" data-name="Grupo 18127" transform="translate(35.884 54.791)">
              <rect id="Rectángulo_3389" data-name="Rectángulo 3389" width="18.272" height="3.132" rx="1.566" transform="translate(0)" fill="#dd8936"/>
              <path id="Trazado_17317" data-name="Trazado 17317" d="M804.921,1446.461h-3.448a1.566,1.566,0,0,0,0,3.132h3.448a1.566,1.566,0,0,0,0-3.132Z" transform="translate(-799.907 -1440.762)" fill="#dd8936"/>
            </g>
          </g>
          <g id="Grupo_18131" data-name="Grupo 18131" transform="translate(0 28.342)">
            <rect id="Rectángulo_3390" data-name="Rectángulo 3390" width="168.509" height="87.914" fill="#aed3ff"/>
            <rect id="Rectángulo_3391" data-name="Rectángulo 3391" width="168.506" height="87.914" transform="translate(5.479)" fill="#d2e4ff"/>
            <circle id="Elipse_845" data-name="Elipse 845" cx="30.468" cy="30.468" r="30.468" transform="translate(8.475 45.249) rotate(-45)" fill="#f3f9ff"/>
            <path id="Trazado_17318" data-name="Trazado 17318" d="M776.029,351.191a27.9,27.9,0,0,0-13.388,52.37c4.469-8.277,13.388-24.477,13.388-24.477l13.208,24.573a27.9,27.9,0,0,0-13.208-52.467Z" transform="translate(-724.466 -333.835)" fill="#a8d29f"/>
            <g id="Grupo_18129" data-name="Grupo 18129" transform="translate(101.243 28.229)">
              <rect id="Rectángulo_3392" data-name="Rectángulo 3392" width="57.125" height="6.651" rx="3.326" fill="#f3f9ff"/>
              <path id="Trazado_17319" data-name="Trazado 17319" d="M1130.688,455.3h-50.473a3.326,3.326,0,1,0,0,6.652h50.473a3.326,3.326,0,0,0,0-6.652Z" transform="translate(-1076.889 -441.611)" fill="#f3f9ff"/>
              <path id="Trazado_17320" data-name="Trazado 17320" d="M1130.688,513.34h-50.473a3.326,3.326,0,1,0,0,6.651h50.473a3.326,3.326,0,0,0,0-6.651Z" transform="translate(-1076.889 -485.952)" fill="#f3f9ff"/>
            </g>
            <g id="Grupo_18130" data-name="Grupo 18130" transform="translate(35.885 31.926)">
              <path id="Trazado_17321" data-name="Trazado 17321" d="M816.615,412.94h-15.14a1.566,1.566,0,1,0,0,3.132h15.14a1.566,1.566,0,1,0,0-3.132Z" transform="translate(-799.909 -412.94)" fill="#82b378"/>
              <path id="Trazado_17322" data-name="Trazado 17322" d="M804.923,437.092h-3.448a1.571,1.571,0,0,0-1.566,1.566h0a1.571,1.571,0,0,0,1.566,1.566h3.448a1.571,1.571,0,0,0,1.566-1.566h0A1.571,1.571,0,0,0,804.923,437.092Z" transform="translate(-799.909 -431.393)" fill="#82b378"/>
            </g>
          </g>
        </g>
      </g>
      <g id="Grupo_18133" data-name="Grupo 18133" transform="translate(520.867 303.661)">
        <path id="Trazado_17323" data-name="Trazado 17323" d="M1550.8,921.065s19.656,20.291,20.6,27.942-9.351,19.621-9.351,19.621Z" transform="translate(-1505.874 -887.027)" fill="#e58638"/>
        <path id="Trazado_17324" data-name="Trazado 17324" d="M1429.389,1801.895s-.669,10.787-2.756,10.942c-.278.021-10.585.021-10.585.021l-13.158-.076s.086-3.171,3.932-3.841,10.284-3.373,12.614-8.457C1421.887,1795.135,1429.389,1801.895,1429.389,1801.895Z" transform="translate(-1392.863 -1557.359)" fill="#163560"/>
        <path id="Trazado_17325" data-name="Trazado 17325" d="M1553.46,1801.895s-.669,10.787-2.756,10.942c-.278.021-10.585.021-10.585.021l-13.2-.047s.125-3.2,3.972-3.87,10.284-3.373,12.614-8.457C1545.958,1795.135,1553.46,1801.895,1553.46,1801.895Z" transform="translate(-1487.628 -1557.359)" fill="#163560"/>
        <path id="Trazado_17326" data-name="Trazado 17326" d="M1453.433,1269.5s3.441,22.01,16.279,61.081,14.587,55.989,14.587,55.989a56.535,56.535,0,0,0,7.14.5,45.221,45.221,0,0,0,6.631-.89s.118-42.7-5.8-62.347-1.277-70.83-1.277-70.83Z" transform="translate(-1431.48 -1140.641)" fill="#163560"/>
        <path id="Trazado_17327" data-name="Trazado 17327" d="M1425,1258.116a534.178,534.178,0,0,0,5.251,73.891c5.739,40.723,3.794,58.01,3.794,58.01s4.724.846,6.384.9c1.776.059,7.36-.445,7.36-.445s8.214-40.739,5.859-61.122,11.248-69.943,11.248-69.943Z" transform="translate(-1409.747 -1144.545)" fill="#1c468a"/>
        <path id="Trazado_17328" data-name="Trazado 17328" d="M1486.464,876.1l-6.483,4.8-9.369-1.972c.13-.854.748-4.4,1.311-7.6.034-.189.068-.379.1-.563.483-2.729.9-5.073.9-5.073l8.751-4.361,3.262-1.626c-.008.057-.253,3.029-.286,3.462A28.014,28.014,0,0,0,1486.464,876.1Z" transform="translate(-1444.606 -840.142)" fill="#ffb27d"/>
        <path id="Trazado_17329" data-name="Trazado 17329" d="M1459.68,908c.205-.086,12.744-3.787,14.107-3.337s2.168,3.085,2.168,3.085l-20.51,4.637S1457.06,909.1,1459.68,908Z" transform="translate(-1433.017 -874.463)" fill="#e58638"/>
        <path id="Trazado_17330" data-name="Trazado 17330" d="M1462.56,1001.89c-2.125,9.7-37.5,10.846-46.616,2.044-1.037-1-1.088-5.67-.7-11.964.765-12.3,3.222-30.79,3.318-40.24a74.785,74.785,0,0,1,1.509-13.468,109.377,109.377,0,0,1,4.487-16.121s17.277-5.585,20.51-4.636C1460.645,922.082,1464.685,992.194,1462.56,1001.89Z" transform="translate(-1402.132 -884.225)" fill="#ee9849"/>
        <path id="Trazado_17331" data-name="Trazado 17331" d="M1415.976,1053.591c.765-12.3,3.222-30.79,3.318-40.24a74.756,74.756,0,0,1,1.509-13.469l10.393-1.834S1441.357,1039.553,1415.976,1053.591Z" transform="translate(-1402.861 -945.845)" fill="#e58638"/>
        <path id="Trazado_17332" data-name="Trazado 17332" d="M1430.243,1155.572a2.445,2.445,0,0,1-.779,2.83c-1.488,1.137-2.453,2.979-2.112,4.325s3.6,3.542,4.735,3.188,3.434-2.127,3.186-2.837,1.548-6.231-1.21-8.356S1430.243,1155.572,1430.243,1155.572Z" transform="translate(-1411.5 -1064.964)" fill="#ffb27d"/>
        <path id="Trazado_17333" data-name="Trazado 17333" d="M1390.761,926.961s-10.136,1.9-18.213,13.8-13.39,20.751-11.9,25.041,15.049,19.167,17.387,19.167,6.111-1.7,6.323-5.526c0,0-9.548-14.31-7.667-16.453.8-.916,12.4-10.327,14.051-6.076C1393.479,963.946,1390.761,926.961,1390.761,926.961Z" transform="translate(-1360.397 -891.532)" fill="#ee9849"/>
        <path id="Trazado_17334" data-name="Trazado 17334" d="M1488.238,868.558c-1.921,3.677-9.081,6.857-12.068,8.025.034-.189.068-.378.1-.563.482-2.729.9-5.073.9-5.073l8.75-4.362C1487.853,866.556,1489.031,867.045,1488.238,868.558Z" transform="translate(-1448.852 -845.402)" fill="#fca56b"/>
        <path id="Trazado_17335" data-name="Trazado 17335" d="M1463.212,816.888s12.953,4.041,15.345-4.065,5.675-13.042-2.494-15.965-10.7-.306-12.153,2.205S1459.9,815.628,1463.212,816.888Z" transform="translate(-1437.714 -791.144)" fill="#ffb27d"/>
        <path id="Trazado_17336" data-name="Trazado 17336" d="M1469.629,783.954s.826,9.432,2.776,9.023,3.72-.713,3.434,2.13-2.99,6.126,3.021,6.629,14.653-15,13-17.935C1487.1,775.331,1462.742,773.622,1469.629,783.954Z" transform="translate(-1442.923 -776.815)" fill="#163560"/>
      </g>
      <g id="Grupo_18135" data-name="Grupo 18135" transform="translate(334.366 309.873)">
        <path id="Trazado_17337" data-name="Trazado 17337" d="M485.249,1735.912l3.943,16.609,5.907-.034.217-16.575Z" transform="translate(-452.156 -1515.809)" fill="#ffb27d"/>
        <path id="Trazado_17338" data-name="Trazado 17338" d="M695.812,1731.833l11.22,15.9,4.373-5.615-6.753-12.472Z" transform="translate(-613.032 -1511.023)" fill="#ffb27d"/>
        <path id="Trazado_17339" data-name="Trazado 17339" d="M398.61,804.992a11.439,11.439,0,0,0-6.192-1.184,2.9,2.9,0,0,1,1.306-.62c-1.06-.158-3.426.894-3.426.894-14.743-5.681-17.06,16.027-16.75,21.071s-4.954,6.69-12.625,10.663C346.288,843.4,345,853.55,345,853.55c.114.067.233.144.36.231.726-1.23,2.221-3.54,3.481-3.889a52.14,52.14,0,0,0-2.028,4.939c4.318,3.284,12.395,10.562,18.024,15.721a8.274,8.274,0,0,1,.383-3.2l.7,4.188c3.012,2.769,5.089,4.717,5.089,4.717-.372-4.076,18.432-25.583,28.243-32.024,2.388-3.516,3.237-9.727,3.3-10.216-.412,4.925-1.255,7.687-2.008,9.243C408.851,835.618,404.015,808.063,398.61,804.992Z" transform="translate(-345.002 -803.141)" fill="#163560"/>
        <path id="Trazado_17340" data-name="Trazado 17340" d="M527.468,931.629c.049.022-4.737,2.507-8.337,1.523-3.386-.923-5.6-5.314-5.552-5.324,1.434-.285,1.848-2.256,1.817-10.724l.648.128,10.9,2.159s-.248,3.431-.255,6.662C526.682,928.766,526.847,931.34,527.468,931.629Z" transform="translate(-473.8 -890.212)" fill="#ffb27d"/>
        <path id="Trazado_17341" data-name="Trazado 17341" d="M520.2,817.523s5.377-5.725,12.128-.293C532.329,817.23,528.4,816.55,520.2,817.523Z" transform="translate(-478.86 -812.117)" fill="#e37970"/>
        <path id="Trazado_17342" data-name="Trazado 17342" d="M534.93,919.8s-.248,3.43-.255,6.662c-6.1-.172-9.324-5.736-10.645-8.821Z" transform="translate(-481.785 -890.626)" fill="#d68d5d"/>
        <path id="Trazado_17343" data-name="Trazado 17343" d="M506.121,840.094s-3.2-5.051-3.964-9.37c-.548-3.083,1.023-14.513,12.508-12.867a15.6,15.6,0,0,1,6.471,2.447c2.494,1.684,6.092,5.32,2.069,15.294l-1.045,3.369Z" transform="translate(-465.002 -814.262)" fill="#163560"/>
        <path id="Trazado_17344" data-name="Trazado 17344" d="M554,1359.205l-5.778.177-6.255.192s-14.447-16.085-22.55-41.869q-.284-.9-.6-1.82c-4.435-12.931-13.629-29.163-18.474-43.856-.771-2.34-1.464-4.543-2.085-6.628-.2-.668-.393-1.323-.577-1.969a155.807,155.807,0,0,1-5.557-29.254l34.986.28A652.164,652.164,0,0,0,554,1359.205Z" transform="translate(-457.412 -1132.468)" fill="#80bdcc"/>
        <path id="Trazado_17345" data-name="Trazado 17345" d="M473.667,1003.318c-.088,16.649,2.442,23.791,2.442,23.791a47.012,47.012,0,0,1-32.783,2.009c-.21-.066-14.742-3.383-14.742-3.383.3-.674,2.948-11.894,3.238-12.512,3.759-8.072,6.613-11.611,7.059-14.093a52.788,52.788,0,0,0,.433-13.948,111.927,111.927,0,0,0-4.317-21.9,114.8,114.8,0,0,0,14.568-4.885c1.161,1.446,4.586,2.908,7.666,2.839,3.546-.078,4.654-1.578,4.524-3.267,3.779,2.1,6.783,4.1,6.783,4.1,3.212,5.579,9.726,11,10.2,19.556C478.853,983.728,473.67,1002.852,473.667,1003.318Z" transform="translate(-408.862 -921.432)" fill="#e7f1fd"/>
        <path id="Trazado_17346" data-name="Trazado 17346" d="M454.063,1064.353c-1.53,2.165-4.461,15.321-11.756,16.974,3.759-9.377,6.613-13.488,7.059-16.37a71.12,71.12,0,0,0,.433-16.2c2.442-4.28,4.264-7.214,4.264-7.214.192-.692,3.881-12.1,5.063-1.9S455.772,1061.932,454.063,1064.353Z" transform="translate(-419.346 -980.61)" fill="#5f9aa8"/>
        <path id="Trazado_17347" data-name="Trazado 17347" d="M531.571,860.91s-14.432.238-14.442-8.752-1.879-15.014,7.335-15.546,11.008,2.9,11.741,5.9S535.325,860.617,531.571,860.91Z" transform="translate(-476.389 -828.672)" fill="#ffb27d"/>
        <path id="Trazado_17348" data-name="Trazado 17348" d="M520.751,831.063c-2.227-2.7-3.911-2.113-4.857-1.3-3.119-4.66-12.976,2.079-12.976,2.079a17.172,17.172,0,0,1-5.617,10.145s2.631,1.625,8.695.066c4.772-1.228,8.236-8.02,9.5-10.859a11.45,11.45,0,0,1,3.212,4.252c.719,2.289,1.043,7,2.417,6.842C521.119,842.286,524.1,835.118,520.751,831.063Z" transform="translate(-461.363 -822.225)" fill="#163560"/>
        <path id="Trazado_17349" data-name="Trazado 17349" d="M498.388,1802.363a16.006,16.006,0,0,1-.752,6.81s-.967,4.4,3.371,4.486,5.4-.327,4.911-3.028-1.425-7.373-1.425-7.373Z" transform="translate(-461.549 -1566.58)" fill="#ffb27d"/>
        <path id="Trazado_17350" data-name="Trazado 17350" d="M505.1,1837.5l-.014.01h-8.976l-.014-.01c-.491-2.3.311-6.644.311-6.644,4.913,4.7,7.987-.118,7.987-.118C505.192,1832.748,505.1,1837.5,505.1,1837.5Z" transform="translate(-460.321 -1588.261)" fill="#c45446"/>
        <path id="Trazado_17351" data-name="Trazado 17351" d="M753.092,1796.1s-8-9.084-10.454-13.6l-5.948,3.047,13.295,12.486,3.111-.409Z" transform="translate(-644.265 -1551.405)" fill="#ffb27d"/>
        <path id="Trazado_17352" data-name="Trazado 17352" d="M752.916,1810.4h-11.1c-.977-.88-1.909-2.655-3.051-4.981a5.37,5.37,0,0,0-3.622-2.471v7.452h-2.3l-2.126-7.924c-1.416-2.654-.352-5.089.643-7.187,1.159,0,4.52.835,10.428,7.623a7.686,7.686,0,0,0,6.215,2.96.582.582,0,0,0,.087.047C751.462,1807.465,752.559,1809.362,752.916,1810.4Z" transform="translate(-639.183 -1561.177)" fill="#c45446"/>
        <path id="Trazado_17353" data-name="Trazado 17353" d="M629.423,968.589s-9.474,5.3-12.858,6.824c-1.2.543-3.384,1.557-5.611,2.6-1.345.628-2.706,1.267-3.884,1.822a4.883,4.883,0,0,1-5.786-1.248c-5.13-5.99-18.405-18.972-32.115-20.6l-.047-.021.006.015-.017,0,.076.148c.771,1.916,8.286,20.7,8.52,24.655.245,4.174.982,68.267.982,68.267s-.491,2.947,5.157,1.719,7.121-2.456,7.121-2.456-5.4-39.536-3.929-53.288a30.6,30.6,0,0,0-.575-8.862,70.423,70.423,0,0,0,18.194,7.307,82.837,82.837,0,0,0,9.377-5.137,58.838,58.838,0,0,0,7.907-6.362c3.3-3.028,8.988-10.344,8.988-10.344Z" transform="translate(-516.228 -921.432)" fill="#e37970"/>
        <path id="Trazado_17354" data-name="Trazado 17354" d="M566.22,1441.445l-6.255.192s-14.447-16.085-22.55-41.869q-.284-.9-.6-1.82c-4.435-12.931-13.629-29.163-18.474-43.856-.771-2.34-1.464-4.543-2.085-6.628-.2-.668-.393-1.324-.577-1.969l5.152-3.909s15.468,25.048,20.257,48.62C545.249,1410.681,561.908,1435.319,566.22,1441.445Z" transform="translate(-475.406 -1214.531)" fill="#5f9aa8"/>
        <path id="Trazado_17355" data-name="Trazado 17355" d="M453.034,1370.877c.089,11.463-.491,37.817-1.984,48.728h-5.54c-3.062,0-4.59-.045-4.59-.045-3.745-18.97-6.409-34.666-8.349-48.192-1.591-11.1-3.006-20.616-4.094-28.807-1.1-8.244-1.856-15.147-2.129-20.979q-.063-1.378-.091-2.679t-.015-2.542l30.229-2.947C456.092,1333.5,452.985,1364.215,453.034,1370.877Z" transform="translate(-407.071 -1193.007)" fill="#80bdcc"/>
        <path id="Trazado_17356" data-name="Trazado 17356" d="M445.863,1446.051c-3.062,0-4.59-.044-4.59-.044-3.745-18.97-6.409-34.667-8.349-48.193-1.591-11.1-3.006-20.615-4.094-28.807-1.1-8.244-1.856-15.147-2.129-20.979l11.092,6.525s-7.08,2.5-4.378,21.406S442.1,1443.374,445.863,1446.051Z" transform="translate(-407.423 -1219.453)" fill="#5f9aa8"/>
        <path id="Trazado_17357" data-name="Trazado 17357" d="M425.435,1051.208s-2.129,7.694-9.5,6.711-17.843-5.4-17.843-5.4,3.148-9.948,7.062-23.017c4.74-15.822,10.606-36.218,13.371-49.084a79.518,79.518,0,0,0,1.5-8.772l6.239-11.864s8.986,20.458,9.477,25.615S425.435,1051.208,425.435,1051.208Z" transform="translate(-385.568 -922.819)" fill="#e37970"/>
        <path id="Trazado_17358" data-name="Trazado 17358" d="M539.719,1091.694c-3.546.466-4.905,2.351-5.343,4.893a10.806,10.806,0,0,1-1.544,3.685c-3.532.189-11.943.647-19.01,1.094l-.583,9.269a105.857,105.857,0,0,0,21.149-5.006,5.535,5.535,0,0,0,2.407-1.309c5.088-4.167,7.975-11.144,7.984-12.143S543.265,1091.228,539.719,1091.694Z" transform="translate(-473.541 -1023.361)" fill="#ffb27d"/>
        <path id="Trazado_17359" data-name="Trazado 17359" d="M447.976,1063.016c-.329,8.349-2.293,24.556-19.81,33.232-.047.022-.093.047-.14.066,4.74-15.822,10.606-36.219,13.371-49.083C444.614,1052.039,448.155,1058.419,447.976,1063.016Z" transform="translate(-408.435 -989.634)" fill="#c45446"/>
        <path id="Trazado_17360" data-name="Trazado 17360" d="M447.057,959.781s-14.983,1.062-18.585,9.084-4.748,34.706-.164,42.565c0,0,6.311,1.8,17.473-.29l.412-.078s3.561-8.718.368-10.436c0,0-9.413.491-8.431-2.62S447.057,959.781,447.057,959.781Z" transform="translate(-406.353 -922.819)" fill="#e37970"/>
        <g id="Grupo_18134" data-name="Grupo 18134" transform="translate(94.726 40.761)">
          <path id="Trazado_17361" data-name="Trazado 17361" d="M835.067,975.983a9.009,9.009,0,0,0-10.1,6.3l1.505,5.036c2.485.343,4.659-.3,6.662-3.171s2.555-1.766,3.828-3.9C838.7,977.351,835.992,976.273,835.067,975.983Z" transform="translate(-806.44 -975.883)" fill="#ffb27d"/>
          <path id="Trazado_17362" data-name="Trazado 17362" d="M752.051,1009.814c-1.2.543-3.384,1.557-5.611,2.6,1.192,2.117,2.683,5.963,3.08,12.32a51.424,51.424,0,0,0,8.143-6.559,107.984,107.984,0,0,0,8.752-10.147l-1.506-5.036S755.435,1008.287,752.051,1009.814Z" transform="translate(-746.44 -996.593)" fill="#ffb27d"/>
        </g>
      </g>
      <g id="Grupo_18139" data-name="Grupo 18139" transform="translate(654.062 326.456)">
        <g id="Grupo_18136" data-name="Grupo 18136" transform="translate(18.489 39.624)">
          <path id="Trazado_17363" data-name="Trazado 17363" d="M2514.933,1279.439s-5.732,1.472-9.376.374-9.916.705-10.926,2.034-.639,1.857,1.163,2.315,8.187,3.182,12.383,1.606a33.442,33.442,0,0,1,9.67-1.634Z" transform="translate(-2494.08 -1223.255)" fill="#e49963"/>
          <path id="Trazado_17364" data-name="Trazado 17364" d="M2618.1,1047.729s-6.439,45.767-17.1,49.866c-5.261,2.022-28.513,6.608-35.391,7.068,0,0-1.685-1.367-1.274-6.931,0,0,24.361-8.944,27.822-13.807,5.151-7.239-3.2-29.572,3.265-36.371S2612.765,1037.834,2618.1,1047.729Z" transform="translate(-2547.704 -1041.34)" fill="#4a75cb"/>
        </g>
        <path id="Trazado_17365" data-name="Trazado 17365" d="M2685.518,1579.959v-9.978h15.71a.773.773,0,0,0,.771-.771v-1.6a.773.773,0,0,0-.771-.771h-15.71v-56.8a2.906,2.906,0,0,0-2.9-2.9h-3.109a2.906,2.906,0,0,0-2.9,2.9v56.8H2660.9a.774.774,0,0,0-.772.771v1.6a.774.774,0,0,0,.772.771h15.709v9.978c-11.367.859-20.473,4.952-23.028,10.239h54.962C2705.992,1584.91,2696.885,1580.818,2685.518,1579.959Z" transform="translate(-2597.458 -1357.602)" fill="#2b478b"/>
        <path id="Trazado_17366" data-name="Trazado 17366" d="M2573.464,1390.031a80.244,80.244,0,0,1-6.29,9c-6.921,8.737-14.455,15.941-15.767,22.75a30.891,30.891,0,0,1-1.217,4.358c-.548,1.56-1.226,3.2-2.008,4.9a150.774,150.774,0,0,1-11.714,20.025c-7.58,11.233-14.708,20.606-14.708,20.606l-13.072-.557c.523-1.31,6.225-16.819,13.852-35.773,3.1-7.694,6.391-15.878,9.568-23.77q.635-1.582,1.266-3.144c.971-2.416,1.928-4.793,2.861-7.108,7.162-17.8,12.865-31.969,12.865-31.969s28.624-10.843,31.6-3.817C2583.149,1371.321,2581.152,1377,2573.464,1390.031Z" transform="translate(-2486.752 -1247.597)" fill="#163560"/>
        <path id="Trazado_17367" data-name="Trazado 17367" d="M2476.555,1801.693s-.669,10.787-2.756,10.942c-.278.021-10.585.021-10.585.021l-13.158-.076s.086-3.17,3.932-3.841,10.284-3.374,12.614-8.457C2469.054,1794.934,2476.555,1801.693,2476.555,1801.693Z" transform="translate(-2441.956 -1580)" fill="#163560"/>
        <path id="Trazado_17368" data-name="Trazado 17368" d="M2668.475,1682.331s9.092,5.843,8.21,7.74c-.117.252-5.142,9.252-5.142,9.252l-6.481,11.451s-2.727-1.621-1.437-5.306,2.068-10.623-1.234-15.136C2658.916,1685.586,2668.475,1682.331,2668.475,1682.331Z" transform="translate(-2603.605 -1491.455)" fill="#163560"/>
        <path id="Trazado_17369" data-name="Trazado 17369" d="M2508.464,1367.563s-35.928,22.38-39.939,37.42,47.793,47.125,47.793,47.125,5.682-5.013,6.685-8.69c0,0-23.417-28.054-28.5-34.343-3.119-3.862,46.125-13.37,52.141-22.728s3.863-17.232,3.863-17.232Z" transform="translate(-2455.897 -1250.961)" fill="#1c468a"/>
        <path id="Rectángulo_3393" data-name="Rectángulo 3393" d="M10.027,0H68.853A10.027,10.027,0,0,1,78.88,10.027v0A10.028,10.028,0,0,1,68.853,20.054H10.028A10.028,10.028,0,0,1,0,10.027v0A10.027,10.027,0,0,1,10.027,0Z" transform="translate(44.168 145.339)" fill="#ee9849"/>
        <path id="Trazado_17370" data-name="Trazado 17370" d="M2691.186,975.464a20.279,20.279,0,0,0-5.474,4.96c8.608,2.226,22.877-5.75,22.877-5.75a21.114,21.114,0,0,1-7.594-11.9q-.155-.619-.282-1.269a25.887,25.887,0,0,1-.466-4.479l-3.953,3.542-6.575,5.89a56.551,56.551,0,0,0,.972,6.648Q2690.906,974.2,2691.186,975.464Z" transform="translate(-2622.005 -937.296)" fill="#e49963"/>
        <path id="Trazado_17371" data-name="Trazado 17371" d="M2677.786,1062.082c-1.233,16.582.841,41.792-.558,46.16-1.207,3.768-15.412,1.538-20.9.28-2.032-.466-4.494-1.131-7.036-1.917-7.09-2.2-14.816-5.33-15.645-7.658a1.928,1.928,0,0,1-.077-.268,2.128,2.128,0,0,1,.015-.976c.277-1.186,1.341-2.47,1.466-5.407.141-3.28.119-7.141.243-11.294.006-.467.012-.977.063-1.443l0-.17.006-.266c.119-4.631.361-9.5.642-14.33.179-3.032.384-6.036.622-8.914.619-7.428,1.452-14.034,2.555-18.21,1.8-6.808,5.777-11.248,9.395-14.5l2.617-2.244a15.132,15.132,0,0,0,9.494-1.265c3.379-1.6,4.546-2.755,5.135-2.321C2673.628,1023.359,2679.241,1041.81,2677.786,1062.082Z" transform="translate(-2582.127 -983.308)" fill="#739af0"/>
        <path id="Trazado_17372" data-name="Trazado 17372" d="M2649.623,1267.766c-7.09-2.2-14.816-5.33-15.644-7.658a1.944,1.944,0,0,1-.077-.268c0-.325.008-.651.015-.976.276-1.186,1.341-2.47,1.467-5.407.14-3.28.119-7.141.242-11.294.007-.467.013-.977.064-1.443l0-.17c0-.089,0-.177.006-.266l26.782-12.146S2664.023,1249.724,2649.623,1267.766Z" transform="translate(-2582.42 -1144.437)" fill="#4a75cb"/>
        <path id="Trazado_17373" data-name="Trazado 17373" d="M2702.692,977.925a56.418,56.418,0,0,0,.972,6.648c6.42-2.074,9.333-7.873,10.305-10.333.276-.7.4-1.124.4-1.124l-.678-.145-4.42-.937Z" transform="translate(-2634.978 -948.765)" fill="#d68d5d"/>
        <path id="Trazado_17374" data-name="Trazado 17374" d="M2680.885,920.791s14.1,1.591,14.961-7.208,3.252-14.52-5.717-15.908-11.049,1.8-12.048,4.667S2677.239,920.151,2680.885,920.791Z" transform="translate(-2615.771 -891.695)" fill="#e49963"/>
        <path id="Trazado_17375" data-name="Trazado 17375" d="M2693.642,895.914s-.894-11.68-13.734-12.89c-8.794-.829-3.891-8.4-2.954-9.6,0,0,6.738.924,13.644,2.065C2705.1,877.879,2695.066,894.1,2693.642,895.914Z" transform="translate(-2613.627 -873.419)" fill="#2b478b"/>
        <g id="Grupo_18137" data-name="Grupo 18137" transform="translate(0 74.947)">
          <rect id="Rectángulo_3394" data-name="Rectángulo 3394" width="1.298" height="33.994" transform="translate(0 0.401) rotate(-18.001)" fill="#4a75cb"/>
          <rect id="Rectángulo_3395" data-name="Rectángulo 3395" width="35.672" height="2.134" transform="translate(10.459 30.597) rotate(-1.224)" fill="#4a75cb"/>
        </g>
        <g id="Grupo_18138" data-name="Grupo 18138" transform="translate(21.955 42.562)">
          <path id="Trazado_17376" data-name="Trazado 17376" d="M2529.106,1309.257s-5.535,2.1-9.278,1.406-9.777,1.794-10.635,3.226-.431,1.916,1.412,2.172,8.488,2.26,12.485.231a33.452,33.452,0,0,1,9.431-2.689Z" transform="translate(-2508.769 -1248.976)" fill="#e49963"/>
          <path id="Trazado_17377" data-name="Trazado 17377" d="M2625.174,1059.12s-1.355,46.2-11.5,51.448c-5.006,2.591-27.611,9.711-34.4,10.927,0,0-1.825-1.173-2.031-6.748,0,0,23.227-11.575,26.13-16.791,4.321-7.762-6.439-29.039-.764-36.509S2618.784,1049.874,2625.174,1059.12Z" transform="translate(-2561.089 -1053.791)" fill="#739af0"/>
        </g>
      </g>
    </g>
  </g>
</svg>
