<svg xmlns="http://www.w3.org/2000/svg" width="121" height="121" viewBox="0 0 121 121">
  <g id="Grupo_24013" data-name="Grupo 24013" transform="translate(-282.5 -2031)">
    <circle id="Elipse_839" data-name="Elipse 839" cx="60.5" cy="60.5" r="60.5" transform="translate(282.5 2031)" fill="#fe7c5f"/>
    <path id="Trazado_17262" data-name="Trazado 17262" d="M53.993,0A53.993,53.993,0,1,1,0,53.993,53.993,53.993,0,0,1,53.993,0Z" transform="translate(289.5 2038)" fill="#fff"/>
    <path id="Trazado_48977" data-name="Trazado 48977" d="M14.185,54.61q-12.5,0-12.5-17.554,0-9.106,3.381-13.879t9.8-4.773q12.207,0,12.207,17.847,0,8.887-3.333,13.623A10.978,10.978,0,0,1,14.185,54.61Zm.342-30.322q-5,0-5,12.573,0,11.841,4.907,11.841,4.785,0,4.785-12.207T14.526,24.288Zm34.546-6.079V54h-7.69V26.9a9.209,9.209,0,0,1-1.5,1.062,15.5,15.5,0,0,1-1.843.9,16.459,16.459,0,0,1-2.026.684,14.8,14.8,0,0,1-2.075.4V23.458A32.08,32.08,0,0,0,39.6,21.212a32.233,32.233,0,0,0,4.81-3Z" transform="translate(314 2060)" fill="#20287a"/>
  </g>
</svg>
