<svg xmlns="http://www.w3.org/2000/svg" width="108.795" height="103.234" viewBox="0 0 108.795 103.234">
  <g id="Grupo_26369" data-name="Grupo 26369" transform="translate(-235 -4419)">
    <g id="Grupo_19152" data-name="Grupo 19152" transform="translate(-112.418 2096.617)">
      <path id="Trazado_12403" data-name="Trazado 12403" d="M-1875.37,363.37h71.6l37.192,50.053-37.192,53.181h-71.6Z" transform="translate(2222.788 1959.013)" fill="#ff8f00"/>
    </g>
    <path id="Trazado_48989" data-name="Trazado 48989" d="M15.8,39.083a7.438,7.438,0,0,1,.378,1.428,9.015,9.015,0,0,1,.134,1.5,8.9,8.9,0,0,1-.22,2.051,7.154,7.154,0,0,1-.659,1.746,8.247,8.247,0,0,1-1.1,1.563,14.125,14.125,0,0,1-1.538,1.477q-.9.781-1.611,1.453a9.861,9.861,0,0,0-1.2,1.343,5.206,5.206,0,0,0-.732,1.392,4.958,4.958,0,0,0-.244,1.6,3.625,3.625,0,0,0,.269,1.4,3.131,3.131,0,0,0,.769,1.111,3.644,3.644,0,0,0,1.221.732,4.547,4.547,0,0,0,1.6.269,10.939,10.939,0,0,0,3.955-.793,12.948,12.948,0,0,0,3.882-2.4V62.3a15.219,15.219,0,0,1-4.1,1.685,18.658,18.658,0,0,1-4.59.562,16.978,16.978,0,0,1-4.224-.5,9.716,9.716,0,0,1-3.406-1.575,7.4,7.4,0,0,1-2.271-2.747,9.064,9.064,0,0,1-.818-4.016,9.9,9.9,0,0,1,.342-2.7,9.058,9.058,0,0,1,1-2.283,11.515,11.515,0,0,1,1.636-2.063,30.29,30.29,0,0,1,2.246-2.039q.854-.708,1.5-1.318A8.374,8.374,0,0,0,9.094,44.1a4.68,4.68,0,0,0,.647-1.27,4.9,4.9,0,0,0,.22-1.526,4.743,4.743,0,0,0-.159-1.2,3.5,3.5,0,0,0-.427-1.025ZM12.231,28.39a4.6,4.6,0,0,1,3.247,1.172,3.834,3.834,0,0,1,1.294,2.881A3.662,3.662,0,0,1,15.479,35.3a4.714,4.714,0,0,1-3.247,1.147,4.589,4.589,0,0,1-3.2-1.147,3.646,3.646,0,0,1-1.27-2.856,3.732,3.732,0,0,1,1.245-2.905A4.623,4.623,0,0,1,12.231,28.39ZM28.32,43.868a7.438,7.438,0,0,1-.378-1.428,9.015,9.015,0,0,1-.134-1.5,8.9,8.9,0,0,1,.22-2.051,7.154,7.154,0,0,1,.659-1.746,8.247,8.247,0,0,1,1.1-1.562A14.125,14.125,0,0,1,31.323,34.1q.928-.781,1.624-1.453a10.3,10.3,0,0,0,1.184-1.343,5.206,5.206,0,0,0,.732-1.392,4.958,4.958,0,0,0,.244-1.6,3.625,3.625,0,0,0-.269-1.4A3.131,3.131,0,0,0,34.07,25.8a3.644,3.644,0,0,0-1.221-.732,4.547,4.547,0,0,0-1.6-.269,10.939,10.939,0,0,0-3.955.793A12.948,12.948,0,0,0,23.413,28V20.65a15.22,15.22,0,0,1,4.1-1.685A18.659,18.659,0,0,1,32.1,18.4a16.978,16.978,0,0,1,4.224.5,9.716,9.716,0,0,1,3.406,1.575A7.4,7.4,0,0,1,42,23.226a9.064,9.064,0,0,1,.818,4.016,9.9,9.9,0,0,1-.342,2.7,9.058,9.058,0,0,1-1,2.283,11.515,11.515,0,0,1-1.636,2.063A30.29,30.29,0,0,1,37.6,36.324q-.854.708-1.5,1.318a8.374,8.374,0,0,0-1.074,1.208,4.68,4.68,0,0,0-.647,1.27,4.9,4.9,0,0,0-.22,1.526,4.743,4.743,0,0,0,.159,1.2,3.5,3.5,0,0,0,.427,1.025Zm3.564,10.693a4.655,4.655,0,0,1-3.247-1.172,3.834,3.834,0,0,1-1.294-2.881,3.662,3.662,0,0,1,1.294-2.856A4.714,4.714,0,0,1,31.885,46.5a4.589,4.589,0,0,1,3.2,1.147,3.646,3.646,0,0,1,1.27,2.856,3.78,3.78,0,0,1-1.245,2.905A4.623,4.623,0,0,1,31.885,54.562Z" transform="translate(258 4429.596)" fill="#fff"/>
  </g>
</svg>
