<svg xmlns="http://www.w3.org/2000/svg" width="108.795" height="103.234" viewBox="0 0 108.795 103.234">
  <g id="Grupo_24035" data-name="Grupo 24035" transform="translate(231 -3230.384)">
    <g id="Grupo_20995" data-name="Grupo 20995" transform="translate(-231 3230.384)">
      <path id="Trazado_12403" data-name="Trazado 12403" d="M-1875.37,363.37h71.6l37.192,50.053-37.192,53.181h-71.6Z" transform="translate(1875.37 -363.37)" fill="#f0c068"/>
    </g>
    <path id="Trazado_49023" data-name="Trazado 49023" d="M31.069,74.735q-3.657,2.119-10.562,2.119-8.066,0-13.057-4.888a16.881,16.881,0,0,1-4.99-12.612q0-8.921,5.349-14.065t14.3-5.144q6.187,0,8.955,1.641v9.16a12.313,12.313,0,0,0-7.554-2.529,9.953,9.953,0,0,0-7.366,2.717,10.139,10.139,0,0,0-2.717,7.5,9.974,9.974,0,0,0,2.6,7.3,9.547,9.547,0,0,0,7.144,2.649,14.256,14.256,0,0,0,7.9-2.529Z" transform="translate(-207 3231)" fill="#fff"/>
  </g>
</svg>
