<svg xmlns="http://www.w3.org/2000/svg" width="419.13" height="412.847" viewBox="0 0 419.13 412.847">
  <g id="Grupo_20974" data-name="Grupo 20974" transform="translate(-42.631 -46.458)">
    <g id="Background_Complete" data-name="Background Complete">
      <g id="Grupo_20659" data-name="Grupo 20659">
        <g id="Grupo_20654" data-name="Grupo 20654">
          <path id="Trazado_19198" data-name="Trazado 19198" d="M60.286,120.176,45.68,190.682c6.5,6.594,13.386,12.826,24.509,15.178l53.5,9.4,12.563-82.877Z" fill="#fafafa"/>
          <path id="Trazado_19199" data-name="Trazado 19199" d="M57.237,115.826,42.631,186.332,67.139,201.51l53.5,9.4,15.794-79.557Z" fill="#f5f5f5"/>
          <path id="Trazado_19200" data-name="Trazado 19200" d="M52.6,182.569l-9.973,3.763s3.6,5.871,8.849,9.051a44.74,44.74,0,0,0,15.659,6.127S55.456,195.7,52.6,182.569Z" fill="#e0e0e0"/>
        </g>
        <path id="Trazado_19201" data-name="Trazado 19201" d="M49.105,130.963,85.671,119.62l-2.334-7.7-37.167,10.8Z" fill="#ebebeb"/>
        <path id="Trazado_19202" data-name="Trazado 19202" d="M142.767,150.378l-23.7-30.065-6.349,4.94,23.416,30.819Z" fill="#ebebeb"/>
        <g id="Grupo_20655" data-name="Grupo 20655">
          <path id="Trazado_19203" data-name="Trazado 19203" d="M122.68,154.778c-.028.141-13.532-2.381-30.159-5.633s-30.089-6-30.061-6.145,13.529,2.381,30.161,5.634S122.707,154.637,122.68,154.778Z" fill="#e0e0e0"/>
        </g>
        <g id="Grupo_20656" data-name="Grupo 20656">
          <path id="Trazado_19204" data-name="Trazado 19204" d="M120.29,165.587c-.028.141-13.532-2.381-30.159-5.633s-30.089-6-30.061-6.145,13.529,2.381,30.161,5.634S120.317,165.446,120.29,165.587Z" fill="#e0e0e0"/>
        </g>
        <g id="Grupo_20657" data-name="Grupo 20657">
          <path id="Trazado_19205" data-name="Trazado 19205" d="M118.744,175.28c-.027.141-13.532-2.381-30.158-5.633s-30.089-6-30.062-6.144,13.529,2.38,30.162,5.633S118.772,175.139,118.744,175.28Z" fill="#e0e0e0"/>
        </g>
        <g id="Grupo_20658" data-name="Grupo 20658">
          <path id="Trazado_19206" data-name="Trazado 19206" d="M116.867,184.537c-.027.142-13.531-2.381-30.158-5.633s-30.089-6-30.062-6.144,13.529,2.38,30.162,5.633S116.895,184.4,116.867,184.537Z" fill="#e0e0e0"/>
        </g>
      </g>
      <g id="Grupo_20665" data-name="Grupo 20665">
        <g id="Grupo_20660" data-name="Grupo 20660">
          <path id="Trazado_19207" data-name="Trazado 19207" d="M402.629,87.758l-18.9,46.1c-6.278,1.269-12.642,2.178-19.932-.777l-34.331-15.311,24.865-52.4Z" fill="#fafafa"/>
          <path id="Trazado_19208" data-name="Trazado 19208" d="M406.062,86.443l-18.906,46.1-19.932-.778-34.33-15.311L354.62,64.7Z" fill="#f5f5f5"/>
          <path id="Trazado_19209" data-name="Trazado 19209" d="M382.892,126.522l4.264,6.017a21.427,21.427,0,0,1-8.578,1.767,30.942,30.942,0,0,1-11.354-2.545S376.175,132.949,382.892,126.522Z" fill="#e0e0e0"/>
        </g>
        <path id="Trazado_19210" data-name="Trazado 19210" d="M404.869,98.272,388.283,77.616,392.6,74.1,409.74,94.684Z" fill="#ebebeb"/>
        <path id="Trazado_19211" data-name="Trazado 19211" d="M343.629,73.165l25.23-8.074,1.73,5.291L345.232,79Z" fill="#ebebeb"/>
        <g id="Grupo_20661" data-name="Grupo 20661">
          <path id="Trazado_19212" data-name="Trazado 19212" d="M353.449,83.462c.056-.132,8.855,3.465,19.651,8.034s19.506,8.381,19.45,8.514S383.7,96.546,372.9,91.975,353.393,83.6,353.449,83.462Z" fill="#e0e0e0"/>
        </g>
        <g id="Grupo_20662" data-name="Grupo 20662">
          <path id="Trazado_19213" data-name="Trazado 19213" d="M350.637,90.587c.056-.132,8.855,3.465,19.651,8.034s19.506,8.381,19.45,8.514-8.853-3.464-19.653-8.035S350.581,90.72,350.637,90.587Z" fill="#e0e0e0"/>
        </g>
        <g id="Grupo_20663" data-name="Grupo 20663">
          <path id="Trazado_19214" data-name="Trazado 19214" d="M347.772,96.746c.056-.133,8.856,3.465,19.652,8.033s19.506,8.382,19.45,8.514-8.854-3.464-19.653-8.034S347.716,96.878,347.772,96.746Z" fill="#e0e0e0"/>
        </g>
        <g id="Grupo_20664" data-name="Grupo 20664">
          <path id="Trazado_19215" data-name="Trazado 19215" d="M345.267,102.782c.056-.132,8.855,3.465,19.651,8.034s19.506,8.381,19.45,8.514-8.853-3.464-19.653-8.035S345.211,102.915,345.267,102.782Z" fill="#e0e0e0"/>
        </g>
      </g>
      <g id="Grupo_20689" data-name="Grupo 20689">
        <g id="Grupo_20668" data-name="Grupo 20668">
          <g id="Grupo_20667" data-name="Grupo 20667">
            <g id="Grupo_20666" data-name="Grupo 20666">
              <path id="Trazado_19216" data-name="Trazado 19216" d="M382.07,284.192c-15.316-12.482-17.427-33.7-15.392-52.482.339-3.135.24-6.474,1.939-9.121s5.328-4.273,8.044-2.74c2.253,1.272,3.069,4.063,4.208,6.4a18.442,18.442,0,0,0,6.849,7.587c1.925,1.187,4.354,2,6.41,1.062,2.822-1.295,3.419-5.016,3.632-8.144q.592-8.744,1.187-17.486a29.222,29.222,0,0,1,1.631-9.215c1.192-2.894,3.545-5.491,6.58-6.1s6.586,1.375,6.987,4.482a29.016,29.016,0,0,1-.2,3.9c-.01,1.305.488,2.785,1.694,3.238s2.537-.334,3.539-1.18c3.461-2.917,5.951-6.821,8.3-10.712s4.638-7.884,7.821-11.11,7.435-5.653,11.93-5.575,9.061,3.2,9.866,7.674S455,193.441,451.937,196.8a69.961,69.961,0,0,1-15.555,12.771,5.758,5.758,0,0,0-2.624,2.433c-.833,2.034.988,4.25,2.995,5.087,2.272.949,4.819.894,7.235,1.362s4.977,1.739,5.728,4.111c1.043,3.29-1.877,6.441-4.669,8.439a59.949,59.949,0,0,1-18.447,8.9c-2.362.671-4.837,1.23-6.811,2.708s-3.3,4.205-2.345,6.489,3.781,3.206,6.223,2.937,4.694-1.416,7.054-2.111c4.416-1.3,9.941-.6,12.418,3.321a9.918,9.918,0,0,1,.4,8.825,22.857,22.857,0,0,1-5.312,7.375,60.267,60.267,0,0,1-27,16.133c-10.221,2.717-19.524,2.967-29.159-1.389" fill="#f5f5f5"/>
            </g>
          </g>
        </g>
        <g id="Grupo_20672" data-name="Grupo 20672">
          <g id="Grupo_20671" data-name="Grupo 20671">
            <g id="Grupo_20670" data-name="Grupo 20670">
              <g id="Grupo_20669" data-name="Grupo 20669">
                <path id="Trazado_19217" data-name="Trazado 19217" d="M380.788,298.133a137.587,137.587,0,0,1,7.018-25.384,280.623,280.623,0,0,1,13.354-29.332q1.974-3.8,3.9-7.509c1.284-2.462,2.557-4.9,3.951-7.214a140.256,140.256,0,0,1,8.765-12.819c2.986-3.943,5.962-7.575,8.77-10.952s5.5-6.464,8.068-9.179a111.253,111.253,0,0,1,13.054-11.9c1.645-1.279,2.953-2.229,3.849-2.862l1.023-.712a2.294,2.294,0,0,1,.36-.226,2.191,2.191,0,0,1-.325.274l-.99.759c-.872.663-2.158,1.642-3.781,2.946a117.685,117.685,0,0,0-12.895,12c-2.541,2.725-5.2,5.826-8,9.206s-5.749,7.026-8.715,10.967a141.576,141.576,0,0,0-8.7,12.788c-1.382,2.3-2.642,4.721-3.928,7.189l-3.891,7.506A287.692,287.692,0,0,0,388.3,272.94a140.046,140.046,0,0,0-7.112,25.263" fill="#e0e0e0"/>
              </g>
            </g>
          </g>
        </g>
        <g id="Grupo_20676" data-name="Grupo 20676">
          <g id="Grupo_20675" data-name="Grupo 20675">
            <g id="Grupo_20674" data-name="Grupo 20674">
              <g id="Grupo_20673" data-name="Grupo 20673">
                <path id="Trazado_19218" data-name="Trazado 19218" d="M409.173,228.684a6.254,6.254,0,0,1-.207-1.356c-.1-.876-.2-2.148-.307-3.721-.211-3.145-.355-7.5-.495-12.3s-.345-9.141-.6-12.274c-.125-1.567-.239-2.835-.329-3.71a6.315,6.315,0,0,1-.074-1.37,6.2,6.2,0,0,1,.3,1.34c.159.867.335,2.132.511,3.7.365,3.134.635,7.488.775,12.295.126,4.738.239,9.023.326,12.3.048,1.479.091,2.725.124,3.726A6.32,6.32,0,0,1,409.173,228.684Z" fill="#e0e0e0"/>
              </g>
            </g>
          </g>
        </g>
        <g id="Grupo_20680" data-name="Grupo 20680">
          <g id="Grupo_20679" data-name="Grupo 20679">
            <g id="Grupo_20678" data-name="Grupo 20678">
              <g id="Grupo_20677" data-name="Grupo 20677">
                <path id="Trazado_19219" data-name="Trazado 19219" d="M449.919,224.153a8.668,8.668,0,0,1-1.617.073c-1.038.015-2.54.029-4.395.106-3.71.125-8.83.476-14.461,1.111s-10.7,1.445-14.355,2.131c-1.83.329-3.3.636-4.321.841a8.656,8.656,0,0,1-1.6.269,8.572,8.572,0,0,1,1.546-.49c1.006-.273,2.47-.642,4.294-1.026,3.642-.79,8.721-1.658,14.37-2.306a142.252,142.252,0,0,1,14.516-.942c1.862-.024,3.369.024,4.409.079A8.515,8.515,0,0,1,449.919,224.153Z" fill="#e0e0e0"/>
              </g>
            </g>
          </g>
        </g>
        <g id="Grupo_20684" data-name="Grupo 20684">
          <g id="Grupo_20683" data-name="Grupo 20683">
            <g id="Grupo_20682" data-name="Grupo 20682">
              <g id="Grupo_20681" data-name="Grupo 20681">
                <path id="Trazado_19220" data-name="Trazado 19220" d="M388.355,272.046a2.026,2.026,0,0,1-.24-.51c-.156-.407-.347-.9-.579-1.505-.5-1.309-1.168-3.222-1.965-5.6-1.6-4.748-3.6-11.375-5.707-18.719s-4.046-13.984-5.542-18.758c-.734-2.321-1.339-4.23-1.788-5.65-.192-.616-.35-1.123-.479-1.54a2.063,2.063,0,0,1-.129-.551,2.127,2.127,0,0,1,.239.511l.579,1.5c.5,1.309,1.168,3.223,1.965,5.6,1.6,4.748,3.6,11.376,5.708,18.722s4.045,13.981,5.541,18.756c.736,2.32,1.34,4.231,1.789,5.649.191.616.349,1.124.478,1.541A2.1,2.1,0,0,1,388.355,272.046Z" fill="#e0e0e0"/>
              </g>
            </g>
          </g>
        </g>
        <g id="Grupo_20688" data-name="Grupo 20688">
          <g id="Grupo_20687" data-name="Grupo 20687">
            <g id="Grupo_20686" data-name="Grupo 20686">
              <g id="Grupo_20685" data-name="Grupo 20685">
                <path id="Trazado_19221" data-name="Trazado 19221" d="M443.037,258.793a2.181,2.181,0,0,1-.546.18l-1.59.4-5.856,1.429c-4.945,1.208-11.756,2.955-19.278,4.895s-14.359,3.627-19.33,4.733c-2.485.554-4.5.982-5.9,1.249l-1.613.3a2.069,2.069,0,0,1-.57.064,2.191,2.191,0,0,1,.546-.18l1.589-.4,5.856-1.429c4.945-1.207,11.756-2.955,19.281-4.9s14.355-3.626,19.326-4.732c2.486-.554,4.5-.982,5.9-1.249l1.612-.3A2.158,2.158,0,0,1,443.037,258.793Z" fill="#e0e0e0"/>
              </g>
            </g>
          </g>
        </g>
      </g>
    </g>
    <g id="Note">
      <g id="Grupo_20695" data-name="Grupo 20695">
        <g id="Grupo_20690" data-name="Grupo 20690">
          <path id="Trazado_19222" data-name="Trazado 19222" d="M170.774,77.793,194.9,151.347c9.587,2.67,19.346,4.793,30.975,1.032l54.917-19.873L248.14,48.512Z" fill="#e0e0e0"/>
          <path id="Trazado_19223" data-name="Trazado 19223" d="M165.6,75.37l24.123,73.554,30.975,1.032,54.918-19.873-27.86-82.628Z" fill="#e8505b"/>
          <path id="Trazado_19224" data-name="Trazado 19224" d="M197.01,140.077l-7.284,8.846s6.5,3.546,13.1,3.7a48.091,48.091,0,0,0,17.879-2.67S206.7,150.792,197.01,140.077Z" fill="#e8505b"/>
          <path id="Trazado_19225" data-name="Trazado 19225" d="M197.01,140.077c-2.214,4.476-4.448,9.72-7.284,8.846,0,0,6.5,3.546,13.1,3.7a48.091,48.091,0,0,0,17.879-2.67S206.7,150.792,197.01,140.077Z" opacity="0.3"/>
        </g>
        <path id="Trazado_19226" data-name="Trazado 19226" d="M166.124,93.835l28.02-30.148-6.3-5.928L158.979,87.727Z" fill="#e0e0e0"/>
        <path id="Trazado_19227" data-name="Trazado 19227" d="M263.841,61.8,225.65,46.458l-3.275,8,38.328,16.2Z" fill="#e0e0e0"/>
        <g id="Grupo_20691" data-name="Grupo 20691">
          <path id="Trazado_19228" data-name="Trazado 19228" d="M247.468,76.656c.047.136-13.9,5-31.139,10.873s-31.264,10.517-31.31,10.381,13.894-5,31.142-10.874S247.422,76.52,247.468,76.656Z" fill="#263238"/>
        </g>
        <g id="Grupo_20692" data-name="Grupo 20692">
          <path id="Trazado_19229" data-name="Trazado 19229" d="M251.026,88.012c.046.136-13.9,5-31.14,10.873s-31.264,10.517-31.31,10.381,13.894-5,31.142-10.874S250.979,87.876,251.026,88.012Z" fill="#263238"/>
        </g>
        <g id="Grupo_20693" data-name="Grupo 20693">
          <path id="Trazado_19230" data-name="Trazado 19230" d="M254.773,97.877c.047.137-13.9,5.005-31.139,10.873s-31.264,10.517-31.31,10.381,13.894-5,31.142-10.874S254.727,97.741,254.773,97.877Z" fill="#263238"/>
        </g>
        <g id="Grupo_20694" data-name="Grupo 20694">
          <path id="Trazado_19231" data-name="Trazado 19231" d="M257.979,107.513c.046.136-13.9,5-31.14,10.873s-31.264,10.517-31.31,10.381,13.894-5,31.143-10.874S257.932,107.377,257.979,107.513Z" fill="#263238"/>
        </g>
      </g>
    </g>
    <g id="Character_2" data-name="Character 2">
      <g id="Grupo_20822" data-name="Grupo 20822">
        <path id="Trazado_19232" data-name="Trazado 19232" d="M295.016,318.189l-4.838,45.046s-9.427-14.254-15.809-7.9c-6.079,6.052-16.814,50.248-16.814,50.248s-.149,14.412,7.519,18.218c24.547,12.186,51.89-10.792,51.89-10.792L313.088,284.2h0A51.668,51.668,0,0,0,295.016,318.189Z" fill="#e8505b"/>
        <g id="Grupo_20752" data-name="Grupo 20752">
          <g id="Grupo_20751" data-name="Grupo 20751">
            <g id="Grupo_20750" data-name="Grupo 20750">
              <g id="Grupo_20746" data-name="Grupo 20746">
                <g id="Grupo_20744" data-name="Grupo 20744">
                  <g id="Grupo_20704" data-name="Grupo 20704">
                    <g id="Grupo_20703" data-name="Grupo 20703">
                      <g id="Grupo_20702" data-name="Grupo 20702">
                        <g id="Grupo_20698" data-name="Grupo 20698">
                          <g id="Grupo_20697" data-name="Grupo 20697">
                            <g id="Grupo_20696" data-name="Grupo 20696">
                              <path id="Trazado_19233" data-name="Trazado 19233" d="M377.895,286.915l-42.513-3.4c-.265-4.964.09-24.167.09-24.167s-17.688-2.75-17.907-20.435,2.848-58.295,2.848-58.295h0a61.468,61.468,0,0,1,61.761,7.763l2.62,2.018Z" fill="#b78876"/>
                            </g>
                          </g>
                        </g>
                        <g id="Grupo_20701" data-name="Grupo 20701">
                          <g id="Grupo_20700" data-name="Grupo 20700">
                            <g id="Grupo_20699" data-name="Grupo 20699">
                              <path id="Trazado_19234" data-name="Trazado 19234" d="M335.443,259.1a41.128,41.128,0,0,0,23.056-6.552s-5.45,12.727-23.1,11.134Z" fill="#aa6550"/>
                            </g>
                          </g>
                        </g>
                      </g>
                    </g>
                  </g>
                  <g id="Grupo_20712" data-name="Grupo 20712">
                    <g id="Grupo_20707" data-name="Grupo 20707">
                      <g id="Grupo_20706" data-name="Grupo 20706">
                        <g id="Grupo_20705" data-name="Grupo 20705">
                          <path id="Trazado_19235" data-name="Trazado 19235" d="M382.615,208.722c.3-.13,12.152-3.594,11.765,8.5s-12.445,9.209-12.455,8.862S382.615,208.722,382.615,208.722Z" fill="#b78876"/>
                        </g>
                      </g>
                    </g>
                    <g id="Grupo_20711" data-name="Grupo 20711">
                      <g id="Grupo_20710" data-name="Grupo 20710">
                        <g id="Grupo_20709" data-name="Grupo 20709">
                          <g id="Grupo_20708" data-name="Grupo 20708">
                            <path id="Trazado_19236" data-name="Trazado 19236" d="M385.765,221.618c.054-.037.206.154.557.329a2.105,2.105,0,0,0,1.573.082c1.292-.427,2.433-2.421,2.561-4.6a6.962,6.962,0,0,0-.493-3.035,2.436,2.436,0,0,0-1.533-1.667,1.073,1.073,0,0,0-1.262.537c-.172.333-.1.577-.168.595-.035.03-.253-.21-.14-.706a1.348,1.348,0,0,1,.5-.743,1.589,1.589,0,0,1,1.175-.27,2.961,2.961,0,0,1,2.14,1.944,7.16,7.16,0,0,1,.623,3.394c-.156,2.434-1.476,4.674-3.24,5.123a2.253,2.253,0,0,1-1.916-.382C385.777,221.911,385.722,221.639,385.765,221.618Z" fill="#aa6550"/>
                          </g>
                        </g>
                      </g>
                    </g>
                  </g>
                  <g id="Grupo_20743" data-name="Grupo 20743">
                    <g id="Grupo_20742" data-name="Grupo 20742">
                      <g id="Grupo_20735" data-name="Grupo 20735">
                        <g id="Grupo_20734" data-name="Grupo 20734">
                          <g id="Grupo_20733" data-name="Grupo 20733">
                            <g id="Grupo_20720" data-name="Grupo 20720">
                              <g id="Grupo_20715" data-name="Grupo 20715">
                                <g id="Grupo_20714" data-name="Grupo 20714">
                                  <g id="Grupo_20713" data-name="Grupo 20713">
                                    <path id="Trazado_19237" data-name="Trazado 19237" d="M324.311,208.031a2.526,2.526,0,0,0,2.435,2.548,2.416,2.416,0,0,0,2.6-2.277,2.527,2.527,0,0,0-2.433-2.55A2.417,2.417,0,0,0,324.311,208.031Z" fill="#263238"/>
                                  </g>
                                </g>
                              </g>
                              <g id="Grupo_20719" data-name="Grupo 20719">
                                <g id="Grupo_20718" data-name="Grupo 20718">
                                  <g id="Grupo_20717" data-name="Grupo 20717">
                                    <g id="Grupo_20716" data-name="Grupo 20716">
                                      <path id="Trazado_19238" data-name="Trazado 19238" d="M323.76,205.5c.313.33,2.226-1.086,4.944-1.079,2.715-.032,4.71,1.366,5,1.034.145-.148-.174-.742-1.042-1.375a6.928,6.928,0,0,0-4.006-1.234,6.649,6.649,0,0,0-3.935,1.27C323.889,204.758,323.606,205.354,323.76,205.5Z" fill="#263238"/>
                                    </g>
                                  </g>
                                </g>
                              </g>
                            </g>
                            <g id="Grupo_20728" data-name="Grupo 20728">
                              <g id="Grupo_20723" data-name="Grupo 20723">
                                <g id="Grupo_20722" data-name="Grupo 20722">
                                  <g id="Grupo_20721" data-name="Grupo 20721">
                                    <path id="Trazado_19239" data-name="Trazado 19239" d="M350.927,208.979a2.525,2.525,0,0,0,2.435,2.548,2.415,2.415,0,0,0,2.6-2.277,2.527,2.527,0,0,0-2.433-2.55A2.418,2.418,0,0,0,350.927,208.979Z" fill="#263238"/>
                                  </g>
                                </g>
                              </g>
                              <g id="Grupo_20727" data-name="Grupo 20727">
                                <g id="Grupo_20726" data-name="Grupo 20726">
                                  <g id="Grupo_20725" data-name="Grupo 20725">
                                    <g id="Grupo_20724" data-name="Grupo 20724">
                                      <path id="Trazado_19240" data-name="Trazado 19240" d="M350.474,206.008c.314.33,2.23-1.086,4.945-1.079,2.715-.031,4.71,1.367,5.005,1.034.144-.148-.172-.742-1.044-1.374a6.922,6.922,0,0,0-4.005-1.235,6.655,6.655,0,0,0-3.936,1.27C350.606,205.266,350.321,205.861,350.474,206.008Z" fill="#263238"/>
                                    </g>
                                  </g>
                                </g>
                              </g>
                            </g>
                            <g id="Grupo_20732" data-name="Grupo 20732">
                              <g id="Grupo_20731" data-name="Grupo 20731">
                                <g id="Grupo_20730" data-name="Grupo 20730">
                                  <g id="Grupo_20729" data-name="Grupo 20729">
                                    <path id="Trazado_19241" data-name="Trazado 19241" d="M340.611,226.164c.013-.155-1.677-.447-4.414-.8-.694-.071-1.351-.209-1.468-.683a3.532,3.532,0,0,1,.463-2.057q.98-2.519,2.053-5.284c2.85-7.524,4.913-13.711,4.609-13.823s-2.861,5.895-5.711,13.419c-.686,1.856-1.342,3.624-1.966,5.317a4.02,4.02,0,0,0-.36,2.723,1.742,1.742,0,0,0,1.141,1.015,4.765,4.765,0,0,0,1.179.164C338.892,226.306,340.6,226.318,340.611,226.164Z" fill="#263238"/>
                                  </g>
                                </g>
                              </g>
                            </g>
                          </g>
                        </g>
                      </g>
                      <g id="Grupo_20738" data-name="Grupo 20738">
                        <g id="Grupo_20737" data-name="Grupo 20737">
                          <g id="Grupo_20736" data-name="Grupo 20736">
                            <path id="Trazado_19242" data-name="Trazado 19242" d="M349.773,195.358c.268.739,2.981.389,6.17.773,3.2.32,5.767,1.254,6.19.591.189-.317-.259-1.012-1.3-1.728a10.811,10.811,0,0,0-9.417-1.039C350.247,194.426,349.657,195.007,349.773,195.358Z" fill="#263238"/>
                          </g>
                        </g>
                      </g>
                      <g id="Grupo_20741" data-name="Grupo 20741">
                        <g id="Grupo_20740" data-name="Grupo 20740">
                          <g id="Grupo_20739" data-name="Grupo 20739">
                            <path id="Trazado_19243" data-name="Trazado 19243" d="M324.759,197.636c.478.617,2.35-.024,4.6-.053,2.25-.11,4.157.414,4.6-.232.193-.313-.107-.931-.941-1.516a6.663,6.663,0,0,0-7.411.23C324.809,196.7,324.548,197.335,324.759,197.636Z" fill="#263238"/>
                          </g>
                        </g>
                      </g>
                    </g>
                  </g>
                </g>
                <g id="Grupo_20745" data-name="Grupo 20745">
                  <path id="Trazado_19244" data-name="Trazado 19244" d="M311.8,169.458a6.529,6.529,0,0,1,2.411-5.833,4.63,4.63,0,0,1,6,.449,5.4,5.4,0,0,1,4.645-6.554c2.884-.183,5.344,2,8.131,2.76a13.133,13.133,0,0,0,8.258-.953c2.617-1.054,5.063-2.508,7.713-3.476a22.614,22.614,0,0,1,28.924,13.279c3.868-1.209,8.263.755,10.648,4.031s3,7.579,2.522,11.6a36.821,36.821,0,0,1-2.022,7.935c0,.228.023.451.019.679-.183,9.725-1.282,21.145-5.431,21.209-7.232.11-5.509-13.514-5.509-13.514-8.874-3.429-5.568-16.725-7.787-18.742s-6.861-6.7-25.441,2.792c-7.215,3.687-16.808,3.572-22.045,2.384-.153-.033-.309-.056-.462-.093-.032-.009-.075-.014-.107-.023-.058-.014-.1-.045-.154-.061a16.74,16.74,0,0,1-4.765-2.022,9.419,9.419,0,0,1-3.927-4.366,5.154,5.154,0,0,1,1.014-5.536A11.336,11.336,0,0,1,311.8,169.458Z" fill="#263238"/>
                </g>
              </g>
              <g id="Grupo_20749" data-name="Grupo 20749">
                <g id="Grupo_20748" data-name="Grupo 20748">
                  <g id="Grupo_20747" data-name="Grupo 20747">
                    <path id="Trazado_19245" data-name="Trazado 19245" d="M412.672,397.894l1.337,25.1L417,459.039H303.373l4.934-53.263-9.677-84.149c.84-29.735,12.259-42.1,35.621-44.94.2-.024-2.037.254-1.84.231,3.216-.38,0,0,1.84-.231a75.216,75.216,0,0,0,45.33-.028h0c7.005.3,12.809,2.454,18.767,3.6,18.768,3.6,34.221,18.1,37.973,30.72,3.09,10.393,25.439,100.519,25.439,100.519H417.3Z" fill="#e8505b"/>
                  </g>
                </g>
              </g>
            </g>
          </g>
        </g>
        <path id="Trazado_19246" data-name="Trazado 19246" d="M338.3,234.524a12.137,12.137,0,0,0,1.576,3.089,4.1,4.1,0,0,0,2.917,1.693,3.682,3.682,0,0,0,3.114-1.7,5.877,5.877,0,0,0,.868-3.542c-.05-1.116-.561-2.449-1.671-2.58a2.793,2.793,0,0,0-1.348.3l-5.833,2.366" fill="#aa6550"/>
        <g id="Grupo_20753" data-name="Grupo 20753">
          <path id="Trazado_19247" data-name="Trazado 19247" d="M340.634,239.323a8.457,8.457,0,0,0,3.112-.384A4.45,4.45,0,0,0,346.1,236.8a4.683,4.683,0,0,0,.076-3.816,4.2,4.2,0,0,0-.508-.872c-.231-.243-.189-.231-.441-.195-.237.065-.621.245-.934.367l-.958.39c-1.249.505-2.379.947-3.334,1.3-1.91.713-3.12,1.089-3.177.956s1.051-.746,2.887-1.633c.918-.444,2.019-.956,3.247-1.509l.944-.423a10.788,10.788,0,0,1,1.065-.439,1.363,1.363,0,0,1,.866.026,1.6,1.6,0,0,1,.643.508,5,5,0,0,1,.656,1.106,5.467,5.467,0,0,1-.178,4.667,4.988,4.988,0,0,1-2.961,2.394,4.692,4.692,0,0,1-2.527.1C340.884,239.579,340.612,239.381,340.634,239.323Z" fill="#263238"/>
        </g>
        <g id="Grupo_20799" data-name="Grupo 20799">
          <g id="Grupo_20798" data-name="Grupo 20798">
            <g id="Grupo_20757" data-name="Grupo 20757">
              <g id="Grupo_20756" data-name="Grupo 20756">
                <g id="Grupo_20755" data-name="Grupo 20755">
                  <g id="Grupo_20754" data-name="Grupo 20754">
                    <path id="Trazado_19248" data-name="Trazado 19248" d="M298.44,392.872l-26.76-82.16-2.422-13.8s-7.281-30.752-7.6-33.8c-.374-3.517-2.159-4.182-3.445-3.956-2.006.352-3.169,2.994-2.942,6.021.079,1.047,1.984,17.507,1.984,17.507a38.965,38.965,0,0,0-3.669-4.1c-2.769-2.821-8.679-3.967-14.53-3.146s-7.417,1.568-7.2,3.855a2.924,2.924,0,0,0,1.39,2.093,5.785,5.785,0,0,0,4.016.918c9.388-1.186,12.461,3.568,12.461,3.568l.317,1.8s-6.157-3.466-10.524-1.252a5.553,5.553,0,0,0-1.7,1.316,7.4,7.4,0,0,0-5.195,11.664c.727,1.018,1.963,1.9,3.155,1.527a3.935,3.935,0,0,0,1.555-1.19,5.878,5.878,0,0,1,.771-.709l1.595,4.931s4.177,10.887,5.459,15.83l13.03,82.734a20.766,20.766,0,0,0,24.1,17.223h0A20.765,20.765,0,0,0,298.44,392.872Z" fill="#b78876"/>
                  </g>
                </g>
              </g>
            </g>
            <g id="Grupo_20767" data-name="Grupo 20767">
              <g id="Grupo_20761" data-name="Grupo 20761">
                <g id="Grupo_20760" data-name="Grupo 20760">
                  <g id="Grupo_20759" data-name="Grupo 20759">
                    <g id="Grupo_20758" data-name="Grupo 20758">
                      <path id="Trazado_19249" data-name="Trazado 19249" d="M268.852,309.87c-1.676.659-3.583-.415-4.679-1.843s-1.677-3.185-2.668-4.688c-2.963-4.495-9.134-6.128-11.879-10.76-.382-.646-.652-1.563-.1-2.073.51-.474,1.325-.23,1.966.04l16.438,6.915" fill="#b78876"/>
                    </g>
                  </g>
                </g>
              </g>
              <g id="Grupo_20766" data-name="Grupo 20766">
                <g id="Grupo_20765" data-name="Grupo 20765">
                  <g id="Grupo_20764" data-name="Grupo 20764">
                    <g id="Grupo_20763" data-name="Grupo 20763">
                      <g id="Grupo_20762" data-name="Grupo 20762">
                        <path id="Trazado_19250" data-name="Trazado 19250" d="M267.928,297.461a7.213,7.213,0,0,0-1.7-.93c-1.121-.538-2.756-1.285-4.785-2.188l-7.146-3.126-2.071-.89a3.537,3.537,0,0,0-2.635-.451,1.5,1.5,0,0,0-.879,1.441,3.089,3.089,0,0,0,.412,1.4,11.6,11.6,0,0,0,1.579,2.1c2.448,2.56,5.408,4.014,7.632,5.835a13.462,13.462,0,0,1,2.8,2.887c.706,1.035,1.2,2.15,1.761,3.13a6.275,6.275,0,0,0,4.017,3.482,2.255,2.255,0,0,0,1.943-.282,5.218,5.218,0,0,1-1.846-.1,6.078,6.078,0,0,1-3.481-3.44c-.5-.965-.957-2.107-1.692-3.255a13.849,13.849,0,0,0-2.908-3.147c-2.29-1.927-5.225-3.426-7.48-5.8a10.963,10.963,0,0,1-1.435-1.894c-.367-.643-.4-1.332-.018-1.442.4-.185,1.155.132,1.856.435l2.084.858c2.656,1.074,5.09,2.059,7.232,2.924,2.064.819,3.741,1.466,4.909,1.891A7.091,7.091,0,0,0,267.928,297.461Z" fill="#aa6550"/>
                      </g>
                    </g>
                  </g>
                </g>
              </g>
            </g>
            <g id="Grupo_20772" data-name="Grupo 20772">
              <g id="Grupo_20771" data-name="Grupo 20771">
                <g id="Grupo_20770" data-name="Grupo 20770">
                  <g id="Grupo_20769" data-name="Grupo 20769">
                    <g id="Grupo_20768" data-name="Grupo 20768">
                      <path id="Trazado_19251" data-name="Trazado 19251" d="M250.262,287.745a7.344,7.344,0,0,0-1.422-3.054,5.682,5.682,0,0,0-3.088-1.769,14.524,14.524,0,0,0-4.518-.163,23.109,23.109,0,0,1-4.694.1,7.473,7.473,0,0,1-3.646-1.355,2.917,2.917,0,0,1-1.19-2.334,1.725,1.725,0,0,1,.213-.938c.063.011-.01.346.042.926a2.758,2.758,0,0,0,1.216,1.977,7.416,7.416,0,0,0,3.433,1.123,25.55,25.55,0,0,0,4.574-.148,14.118,14.118,0,0,1,4.716.23,5.963,5.963,0,0,1,3.3,2.061,5.3,5.3,0,0,1,1.062,2.393A1.833,1.833,0,0,1,250.262,287.745Z" fill="#aa6550"/>
                    </g>
                  </g>
                </g>
              </g>
            </g>
            <g id="Grupo_20777" data-name="Grupo 20777">
              <g id="Grupo_20776" data-name="Grupo 20776">
                <g id="Grupo_20775" data-name="Grupo 20775">
                  <g id="Grupo_20774" data-name="Grupo 20774">
                    <g id="Grupo_20773" data-name="Grupo 20773">
                      <path id="Trazado_19252" data-name="Trazado 19252" d="M255.2,264.018a18.636,18.636,0,0,1,.4,3.27c.218,2.249.477,4.929.764,7.892.331,2.958.63,5.635.882,7.88a18.57,18.57,0,0,1,.283,3.282,14.766,14.766,0,0,1-.743-3.214c-.356-2.005-.752-4.791-1.075-7.88s-.509-5.9-.574-7.931A14.725,14.725,0,0,1,255.2,264.018Z" fill="#aa6550"/>
                    </g>
                  </g>
                </g>
              </g>
            </g>
            <g id="Grupo_20782" data-name="Grupo 20782">
              <g id="Grupo_20781" data-name="Grupo 20781">
                <g id="Grupo_20780" data-name="Grupo 20780">
                  <g id="Grupo_20779" data-name="Grupo 20779">
                    <g id="Grupo_20778" data-name="Grupo 20778">
                      <path id="Trazado_19253" data-name="Trazado 19253" d="M246.944,291.857a3.964,3.964,0,0,1-1-.268,3.062,3.062,0,0,0-2.544.151,1.641,1.641,0,0,0-.705,1.46,8.724,8.724,0,0,0,.384,2.113,3.7,3.7,0,0,1-.113,2.62,3.146,3.146,0,0,1-2.369,1.573,3.57,3.57,0,0,1-2.7-.839,4.464,4.464,0,0,1-1.463-2.159,14.46,14.46,0,0,1-.388-4.222,8.539,8.539,0,0,1,.544-2.8c.275-.629.563-.895.584-.873.049.035-.156.34-.343.959a10.074,10.074,0,0,0-.321,2.727,15.545,15.545,0,0,0,.5,4.036,3.533,3.533,0,0,0,3.5,2.521,2.525,2.525,0,0,0,1.885-1.223,3.148,3.148,0,0,0,.092-2.185,8.67,8.67,0,0,1-.338-2.266,2.126,2.126,0,0,1,1-1.834,3.2,3.2,0,0,1,2.876,0A2.66,2.66,0,0,1,246.944,291.857Z" fill="#aa6550"/>
                    </g>
                  </g>
                </g>
              </g>
            </g>
            <g id="Grupo_20787" data-name="Grupo 20787">
              <g id="Grupo_20786" data-name="Grupo 20786">
                <g id="Grupo_20785" data-name="Grupo 20785">
                  <g id="Grupo_20784" data-name="Grupo 20784">
                    <g id="Grupo_20783" data-name="Grupo 20783">
                      <path id="Trazado_19254" data-name="Trazado 19254" d="M238.12,298.139c.03-.009.158.331.009.94a2.869,2.869,0,0,1-1.73,1.9,3.823,3.823,0,0,1-3.726-.725,6.258,6.258,0,0,1-2.076-4.161,7.566,7.566,0,0,1,.934-4.549,7.241,7.241,0,0,1,2.685-2.673,6.852,6.852,0,0,1,2.395-.846,1.968,1.968,0,0,1,.93-.008,11.886,11.886,0,0,0-3.083,1.25,7.139,7.139,0,0,0-2.4,2.571,7.215,7.215,0,0,0-.811,4.183,5.815,5.815,0,0,0,1.812,3.769,3.392,3.392,0,0,0,3.182.752A2.72,2.72,0,0,0,237.886,299C238.094,298.477,238.063,298.14,238.12,298.139Z" fill="#aa6550"/>
                    </g>
                  </g>
                </g>
              </g>
            </g>
            <g id="Grupo_20792" data-name="Grupo 20792">
              <g id="Grupo_20791" data-name="Grupo 20791">
                <g id="Grupo_20790" data-name="Grupo 20790">
                  <g id="Grupo_20789" data-name="Grupo 20789">
                    <g id="Grupo_20788" data-name="Grupo 20788">
                      <path id="Trazado_19255" data-name="Trazado 19255" d="M250.646,307.927a2.687,2.687,0,0,1,1.576-.147,6.21,6.21,0,0,1,3.652,1.706l-.536.22a18.486,18.486,0,0,1,.127-2.234c.5-4.343,2.535-7.354,2.655-7.239.184.082-1.529,3.136-2,7.316-.09.753-.136,1.485-.151,2.161l-.016.748-.52-.527a6.511,6.511,0,0,0-3.269-1.761C251.235,307.974,250.653,308.014,250.646,307.927Z" fill="#aa6550"/>
                    </g>
                  </g>
                </g>
              </g>
            </g>
            <g id="Grupo_20797" data-name="Grupo 20797">
              <g id="Grupo_20796" data-name="Grupo 20796">
                <g id="Grupo_20795" data-name="Grupo 20795">
                  <g id="Grupo_20794" data-name="Grupo 20794">
                    <g id="Grupo_20793" data-name="Grupo 20793">
                      <path id="Trazado_19256" data-name="Trazado 19256" d="M247.319,279.929c.163.06-.346,1.309-1.726,2.084s-2.707.584-2.675.413c0-.191,1.159-.291,2.351-.984C246.474,280.775,247.155,279.83,247.319,279.929Z" fill="#aa6550"/>
                    </g>
                  </g>
                </g>
              </g>
            </g>
          </g>
        </g>
        <g id="Grupo_20800" data-name="Grupo 20800">
          <path id="Trazado_19257" data-name="Trazado 19257" d="M319.636,279.922c.026.028-.365.4-1.036,1.167a11.974,11.974,0,0,0-2.32,3.725,4.889,4.889,0,0,0-.263,1.441,3.318,3.318,0,0,0,.381,1.514,5.329,5.329,0,0,0,2.885,2.142,28.489,28.489,0,0,0,9.145,1.291c1.725.033,3.58.1,5.484.211l2.911.34c.991.108,1.978.374,2.994.559a30.312,30.312,0,0,1,12.022,5.341,22.107,22.107,0,0,1,4.965,5.207,17.729,17.729,0,0,1,.943,1.622c.29.585.494,1.161.736,1.735a21.129,21.129,0,0,1,1.04,3.655,23.192,23.192,0,0,1-2.353,15.368,22.4,22.4,0,0,1-11.818,10.092,23.241,23.241,0,0,1-7.362,1.461,28.38,28.38,0,0,1-7.115-.866,45.513,45.513,0,0,0-6.545-1.169,11.354,11.354,0,0,0-5.941,1.049,15.329,15.329,0,0,0-4.449,3.609c-1.246,1.4-2.306,2.871-3.356,4.267-2.076,2.786-4.272,5.243-6.835,6.533a8.386,8.386,0,0,1-3.811,1,8.566,8.566,0,0,1-3.249-.607,7.069,7.069,0,0,1-2.23-1.408,5.33,5.33,0,0,1-1.118-1.577,3.486,3.486,0,0,1-.351-1.536,14.479,14.479,0,0,0,.54,1.444,5.4,5.4,0,0,0,1.14,1.442,6.924,6.924,0,0,0,2.164,1.257,7.934,7.934,0,0,0,6.645-.527c2.4-1.268,4.49-3.661,6.514-6.457,1.023-1.4,2.079-2.9,3.345-4.359A16.051,16.051,0,0,1,318,335.036a12.216,12.216,0,0,1,6.388-1.192,45.6,45.6,0,0,1,6.691,1.145,27.6,27.6,0,0,0,6.882.81,22.348,22.348,0,0,0,7.032-1.422,21.452,21.452,0,0,0,11.263-9.636,22.248,22.248,0,0,0,2.266-14.676,20.3,20.3,0,0,0-.983-3.5c-.234-.559-.439-1.138-.69-1.644a16.73,16.73,0,0,0-.876-1.519,21.227,21.227,0,0,0-4.719-4.993,29.657,29.657,0,0,0-11.628-5.259c-.994-.19-1.955-.46-2.927-.576l-2.858-.365c-1.884-.131-3.676-.217-5.429-.274a28.534,28.534,0,0,1-9.343-1.487A5.8,5.8,0,0,1,315.961,288a3.762,3.762,0,0,1-.4-1.756,5.285,5.285,0,0,1,.332-1.568,11.327,11.327,0,0,1,2.549-3.732A5.594,5.594,0,0,1,319.636,279.922Z" fill="#fafafa"/>
        </g>
        <g id="Grupo_20801" data-name="Grupo 20801">
          <path id="Trazado_19258" data-name="Trazado 19258" d="M395.706,346.6a7.439,7.439,0,0,1-.478-2.249,18.5,18.5,0,0,1,.415-6.27,24.147,24.147,0,0,1,3.882-8.484,27.886,27.886,0,0,1,8.4-7.745,35.409,35.409,0,0,1,10.676-4.032,46.387,46.387,0,0,1,9.246-.952,52.272,52.272,0,0,1,6.24.315,9.093,9.093,0,0,1,2.259.394c-.015.185-3.26-.174-8.481.027a50.828,50.828,0,0,0-9.06,1.153,36.131,36.131,0,0,0-10.351,3.992,27.906,27.906,0,0,0-8.149,7.408,24.584,24.584,0,0,0-3.946,8.1,20.712,20.712,0,0,0-.726,6.065A13.8,13.8,0,0,1,395.706,346.6Z" fill="#fafafa"/>
        </g>
        <g id="Grupo_20802" data-name="Grupo 20802">
          <path id="Trazado_19259" data-name="Trazado 19259" d="M450.348,363.981a7.178,7.178,0,0,1-1.175,1.758,28.842,28.842,0,0,1-4.027,4.132,32.747,32.747,0,0,1-7.21,4.643,32.256,32.256,0,0,1-20.6,2.486,32.766,32.766,0,0,1-8.108-2.8,28.846,28.846,0,0,1-4.894-3.055,7.176,7.176,0,0,1-1.559-1.428c.12-.167,2.406,1.827,6.769,3.818a33.578,33.578,0,0,0,35.134-4.24C448.445,366.329,450.192,363.848,450.348,363.981Z" fill="#fafafa"/>
        </g>
        <g id="Grupo_20803" data-name="Grupo 20803">
          <path id="Trazado_19260" data-name="Trazado 19260" d="M400.124,360.783a4.931,4.931,0,0,1-.912.373,6.872,6.872,0,0,0-2.288,1.524,11.1,11.1,0,0,0-2.3,3.692,34.253,34.253,0,0,0-1.606,5.643,66.067,66.067,0,0,1-1.628,7.049,16.447,16.447,0,0,1-1.73,3.725,14.467,14.467,0,0,1-2.916,3.258,22.859,22.859,0,0,1-8.261,4.177c-3.08.912-6.344,1.414-9.618,2.055a40.393,40.393,0,0,0-17.1,7.121,28.017,28.017,0,0,0-5.7,5.743,25.28,25.28,0,0,0-3.251,6.255,21.682,21.682,0,0,0-1.056,10.122c.361,2.409.9,3.675.8,3.71a3.522,3.522,0,0,1-.425-.9,8.974,8.974,0,0,1-.387-1.142,13.105,13.105,0,0,1-.391-1.6,21.077,21.077,0,0,1,.757-10.421,25.5,25.5,0,0,1,3.246-6.522,28.412,28.412,0,0,1,5.818-6.005,40.621,40.621,0,0,1,17.478-7.381c3.306-.647,6.535-1.138,9.532-2.012a22.152,22.152,0,0,0,7.936-3.937,13.659,13.659,0,0,0,2.761-3.019,15.731,15.731,0,0,0,1.679-3.5,70.354,70.354,0,0,0,1.727-6.93,32.955,32.955,0,0,1,1.789-5.712,11.085,11.085,0,0,1,2.561-3.76,6.426,6.426,0,0,1,2.5-1.427A2.839,2.839,0,0,1,400.124,360.783Z" fill="#fafafa"/>
        </g>
        <g id="Grupo_20804" data-name="Grupo 20804">
          <path id="Trazado_19261" data-name="Trazado 19261" d="M373.327,356.611a4.171,4.171,0,0,1,.52,2.046,8.784,8.784,0,0,1-1.6,5.533,8.56,8.56,0,0,1-3.012,2.734,7.971,7.971,0,0,1-2.169.788,8.749,8.749,0,0,1-2.443.1,9.566,9.566,0,0,1-4.8-1.943,8.585,8.585,0,0,1-3.1-4.637,7.523,7.523,0,0,1,1.546-6.82,16.758,16.758,0,0,1,2.2-2.4,8.23,8.23,0,0,1,1.272-.951,3.393,3.393,0,0,1,1.568-.548l.134.894-.495.123-.248-.861a8.514,8.514,0,0,1,5.511.3,9.012,9.012,0,0,1,3.479,2.405,7.545,7.545,0,0,1,1.423,2.3c.2.592.253.92.213.931a13.467,13.467,0,0,0-2.016-2.874,8.914,8.914,0,0,0-3.354-2.077,7.894,7.894,0,0,0-4.987-.131l-.248-.862.491-.135.134.893a4.553,4.553,0,0,0-2.233,1.309,16.253,16.253,0,0,0-2.033,2.282,6.575,6.575,0,0,0-1.341,5.966,7.644,7.644,0,0,0,2.715,4.084,8.71,8.71,0,0,0,4.278,1.793,7.963,7.963,0,0,0,2.169-.047,7.216,7.216,0,0,0,1.937-.654,7.976,7.976,0,0,0,2.814-2.4,8.878,8.878,0,0,0,1.789-5.1C373.461,357.357,373.232,356.636,373.327,356.611Z" fill="#fafafa"/>
        </g>
        <g id="Grupo_20805" data-name="Grupo 20805">
          <path id="Trazado_19262" data-name="Trazado 19262" d="M308.8,323.948a1.032,1.032,0,0,1,.009.269c-.007.208-.015.466-.025.786-.036.729-.086,1.737-.148,3.016-.157,2.617-.314,6.408-.522,11.09-.392,9.367-.775,22.314-1.078,36.617s-.494,27.26-.628,36.636c-.071,4.657-.128,8.44-.169,11.1-.027,1.279-.049,2.288-.064,3.018-.012.32-.022.578-.03.785a1.039,1.039,0,0,1-.027.268,1.02,1.02,0,0,1-.026-.268c-.006-.207-.013-.465-.022-.785-.008-.73-.019-1.74-.033-3.02,0-2.664,0-6.447,0-11.1.04-9.378.168-22.334.475-36.644s.745-27.256,1.231-36.623c.256-4.683.469-8.472.687-11.086.1-1.276.186-2.283.246-3.011.031-.318.057-.575.077-.782A1.037,1.037,0,0,1,308.8,323.948Z" fill="#263238"/>
        </g>
        <g id="Grupo_20806" data-name="Grupo 20806" opacity="0.2">
          <path id="Trazado_19263" data-name="Trazado 19263" d="M289.69,416.931c5.578,2.668,12.874-2.458,15.724-7.946,0,0,1.489-12.095,1.282-18.275-.385-11.441.451-22.769.067-34.21a36,36,0,0,1-8.164,18.585c-1.225,1.448-2.611,2.885-3.068,4.725-.818,3.3,1.7,9.235,3.321,12.22,4.957,9.14-5.9,24.964-8.8,24.668"/>
        </g>
        <g id="Grupo_20807" data-name="Grupo 20807" opacity="0.2">
          <path id="Trazado_19264" data-name="Trazado 19264" d="M394.117,342.282l5.481,68.4a20.136,20.136,0,0,0,1.2,6.338,6.822,6.822,0,0,0,4.6,4.2c3.241.66,6.383-2.128,7.3-5.306s.185-6.575-.611-9.785c-1.355-5.47-2.894-10.892-4.432-16.314l-13.387-47.182"/>
        </g>
        <g id="Grupo_20808" data-name="Grupo 20808">
          <path id="Trazado_19265" data-name="Trazado 19265" d="M331.445,459.072a13.215,13.215,0,0,0,1.521-3.631c.567-2.466.212-6.286-1.7-10.425-.944-2.066-2.273-4.212-3.613-6.578a28.635,28.635,0,0,1-3.386-8.08,19.232,19.232,0,0,1,.708-9.677c.98-3.224,2.442-6.354,3.62-9.632a28.8,28.8,0,0,0,.5-19.125,28.135,28.135,0,0,0-3.79-7.589,29.486,29.486,0,0,0-5.056-5.424,29.957,29.957,0,0,0-9.39-5.237c-2.43-.814-3.847-1.032-3.829-1.129a3.957,3.957,0,0,1,1.038.091,21.442,21.442,0,0,1,2.913.652,28.5,28.5,0,0,1,9.731,5.051A29.486,29.486,0,0,1,326,383.83a28.554,28.554,0,0,1,4,7.8,29.409,29.409,0,0,1-.43,19.775c-1.2,3.34-2.663,6.452-3.625,9.579a18.394,18.394,0,0,0-.744,9.186,28.249,28.249,0,0,0,3.2,7.853c1.3,2.368,2.6,4.547,3.531,6.7,1.88,4.289,2.138,8.278,1.422,10.818a9.5,9.5,0,0,1-1.232,2.744A3.781,3.781,0,0,1,331.445,459.072Z" fill="#fafafa"/>
        </g>
        <g id="Grupo_20809" data-name="Grupo 20809">
          <path id="Trazado_19266" data-name="Trazado 19266" d="M425.318,294.561a5.617,5.617,0,0,1-.97,1.991,14.555,14.555,0,0,1-4.342,4.213,18.49,18.49,0,0,1-8.525,2.82,28.2,28.2,0,0,1-10.892-1.389,22.7,22.7,0,0,1-9.506-5.519,14.112,14.112,0,0,1-2.772-4,13.133,13.133,0,0,1-1.077-4.1,10.42,10.42,0,0,1,1.111-5.952,5.7,5.7,0,0,1,.507-.811,3.5,3.5,0,0,1,.435-.547c.257-.278.4-.409.43-.386.077.061-.444.66-1.008,1.923a10.7,10.7,0,0,0-.743,5.692,12.849,12.849,0,0,0,1.128,3.817A13.592,13.592,0,0,0,391.767,296a22.436,22.436,0,0,0,9.138,5.2,28.356,28.356,0,0,0,10.5,1.426,18.435,18.435,0,0,0,8.213-2.49,15.778,15.778,0,0,0,4.4-3.824C424.875,295.217,425.239,294.521,425.318,294.561Z" fill="#fafafa"/>
        </g>
        <g id="Grupo_20810" data-name="Grupo 20810">
          <path id="Trazado_19267" data-name="Trazado 19267" d="M411.629,402.133a1.255,1.255,0,0,1-.106-.28c-.067-.217-.152-.493-.26-.838-.227-.775-.546-1.858-.951-3.236-.814-2.853-1.974-6.918-3.4-11.926-2.834-10.115-6.734-24.03-11.041-39.4-2.135-7.7-4.168-15.034-6.018-21.711a74.6,74.6,0,0,1-2.13-9.62,29.491,29.491,0,0,1-.027-8.592,18.5,18.5,0,0,1,5.656-10.881,13.688,13.688,0,0,1,2.808-1.887l.811-.344a1.273,1.273,0,0,1,.282-.1,15.654,15.654,0,0,0-3.765,2.48,18.519,18.519,0,0,0-5.428,10.789,29.41,29.41,0,0,0,.09,8.475,75.747,75.747,0,0,0,2.165,9.552c1.863,6.673,3.909,14,6.057,21.7l10.895,39.441c1.363,5.027,2.469,9.108,3.245,11.971l.856,3.262c.087.351.156.631.211.851A1.284,1.284,0,0,1,411.629,402.133Z" fill="#263238"/>
        </g>
        <g id="Grupo_20811" data-name="Grupo 20811">
          <path id="Trazado_19268" data-name="Trazado 19268" d="M370.9,180.683a10.584,10.584,0,0,0,.009-2.14,8.347,8.347,0,0,0-2.765-4.967,11.249,11.249,0,0,0-7.962-2.63c-3.272.027-6.749,1.1-10.345,2.314-1.807.6-3.587,1.163-5.354,1.553a27.776,27.776,0,0,1-5.172.629A28.105,28.105,0,0,1,330.6,174.3a27.049,27.049,0,0,1-5.453-2.312c-.613-.339-1.067-.637-1.37-.846a2.291,2.291,0,0,1-.45-.337c.029-.046.675.378,1.916,1a30.068,30.068,0,0,0,5.459,2.137,28.667,28.667,0,0,0,8.6,1.02,27.969,27.969,0,0,0,5.075-.647c1.736-.391,3.5-.956,5.3-1.551,3.589-1.208,7.14-2.3,10.5-2.3A11.519,11.519,0,0,1,368.4,173.3a8.364,8.364,0,0,1,2.716,5.215A4.865,4.865,0,0,1,370.9,180.683Z" fill="#455a64"/>
        </g>
        <g id="Grupo_20812" data-name="Grupo 20812">
          <path id="Trazado_19269" data-name="Trazado 19269" d="M384.656,210.571a1.393,1.393,0,0,1-.233-.372c-.141-.25-.326-.63-.549-1.128a22.691,22.691,0,0,1-1.409-4.4,24.245,24.245,0,0,1-.456-6.837,60.9,60.9,0,0,1,1.578-8.216,16.086,16.086,0,0,0,.016-8.128,8.225,8.225,0,0,0-1.694-3.08,6.2,6.2,0,0,0-2.541-1.667,5.808,5.808,0,0,0-4.365.112,8.412,8.412,0,0,0-1.358.951,3.375,3.375,0,0,1,1.265-1.131,5.868,5.868,0,0,1,4.576-.28,6.492,6.492,0,0,1,2.743,1.724,8.57,8.57,0,0,1,1.832,3.227,16.286,16.286,0,0,1,.036,8.378,65.386,65.386,0,0,0-1.61,8.149,25.036,25.036,0,0,0,.339,6.725,26.492,26.492,0,0,0,1.235,4.392A16.079,16.079,0,0,1,384.656,210.571Z" fill="#455a64"/>
        </g>
        <g id="Grupo_20813" data-name="Grupo 20813">
          <path id="Trazado_19270" data-name="Trazado 19270" d="M372.6,179.255a3.738,3.738,0,0,1,.007-.711c.02-.515.045-1.189.076-2.028a23.5,23.5,0,0,0-.817-7.344,12.972,12.972,0,0,0-2.363-4.462,9.123,9.123,0,0,0-4.741-3.132,11.97,11.97,0,0,0-6.329.259,29.269,29.269,0,0,0-6.329,2.869,52.383,52.383,0,0,1-6.275,3.228,19.218,19.218,0,0,1-6.468,1.3,20.45,20.45,0,0,1-5.923-.727,22.905,22.905,0,0,1-4.806-1.981,19.642,19.642,0,0,1-5.689-4.856,12.357,12.357,0,0,1-1.154-1.681,3.736,3.736,0,0,1-.342-.622,3.606,3.606,0,0,1,.431.565,15.367,15.367,0,0,0,1.222,1.61,20.339,20.339,0,0,0,5.712,4.663,22.955,22.955,0,0,0,4.738,1.884,20.22,20.22,0,0,0,5.8.665,18.88,18.88,0,0,0,6.292-1.293,53.11,53.11,0,0,0,6.209-3.208,29.342,29.342,0,0,1,6.445-2.906,12.39,12.39,0,0,1,6.592-.232,9.535,9.535,0,0,1,4.952,3.323,13.215,13.215,0,0,1,2.381,4.629,22.489,22.489,0,0,1,.667,7.459c-.052.883-.121,1.566-.174,2.028A3.533,3.533,0,0,1,372.6,179.255Z" fill="#455a64"/>
        </g>
        <g id="Grupo_20821" data-name="Grupo 20821">
          <g id="Grupo_20819" data-name="Grupo 20819">
            <g id="Grupo_20815" data-name="Grupo 20815">
              <path id="Trazado_19271" data-name="Trazado 19271" d="M346.19,429.3l74.783-11.154-1.208-6.65h40.25l1.179,10.231a30.944,30.944,0,0,1-30.073,36.785l-87.222-.969Z" fill="#b78876"/>
              <g id="Grupo_20814" data-name="Grupo 20814">
                <path id="Trazado_19272" data-name="Trazado 19272" d="M351.586,430.585c-.4.133-5.437-2.125-9.95-4.213a32.546,32.546,0,0,0-15.318-2.969l-20.792,1.057s1.284,3.431,3.489,4.65,15.131,1.481,15.131,1.481l-.662.681a14.954,14.954,0,0,1-10.349,4.529l-1.986.05a19.453,19.453,0,0,1-4.34-.848l-5.128-2.073c-1.552-.7-3.191-.586-3.866.977-.611,1.414-.163,3.361,4.071,5.493,2.366,1.193,11.141,4.227,11.141,4.227a21.194,21.194,0,0,0,.511,3.7c.383,1.277,3.831,2.554,3.831,2.554a45.471,45.471,0,0,0,3.065,5.491c.4.458,3.522,1.43,6.845,2.362a29.442,29.442,0,0,0,16.383-.124l7.924-2.366V431.112" fill="#b78876"/>
              </g>
            </g>
            <g id="Grupo_20816" data-name="Grupo 20816">
              <path id="Trazado_19273" data-name="Trazado 19273" d="M323.145,446.354a23.68,23.68,0,0,1-10.492-2.76c.059-.142,2.328.732,5.218,1.486S323.162,446.2,323.145,446.354Z" fill="#aa6550"/>
            </g>
            <g id="Grupo_20817" data-name="Grupo 20817">
              <path id="Trazado_19274" data-name="Trazado 19274" d="M322.413,451.223a7.648,7.648,0,0,1-5.554-1.509,19.2,19.2,0,0,1,2.767.794A19.272,19.272,0,0,1,322.413,451.223Z" fill="#aa6550"/>
            </g>
            <g id="Grupo_20818" data-name="Grupo 20818">
              <path id="Trazado_19275" data-name="Trazado 19275" d="M440.728,435.587c-.1.035-.591-1.447-1.791-3.637a28.992,28.992,0,0,0-2.394-3.662,28.982,28.982,0,0,0-7.929-7.118,29.08,29.08,0,0,0-3.9-1.987c-2.307-.957-3.833-1.291-3.808-1.389a4.418,4.418,0,0,1,1.082.179,10.478,10.478,0,0,1,1.245.325c.478.151,1.033.3,1.617.543a26.006,26.006,0,0,1,4.009,1.917,27.289,27.289,0,0,1,8.065,7.24,25.992,25.992,0,0,1,2.337,3.779c.306.554.512,1.091.714,1.55a10.513,10.513,0,0,1,.457,1.2A4.424,4.424,0,0,1,440.728,435.587Z" fill="#aa6550"/>
            </g>
          </g>
          <g id="Grupo_20820" data-name="Grupo 20820">
            <path id="Trazado_19276" data-name="Trazado 19276" d="M326.211,428.715a9.152,9.152,0,0,1-1.606,1.715,25.789,25.789,0,0,1-4.53,3.43,18.007,18.007,0,0,1-5.309,2.049,7.6,7.6,0,0,1-2.341.254c-.049-.19,3.6-.525,7.389-2.753a35.368,35.368,0,0,0,4.549-3.257A12.328,12.328,0,0,1,326.211,428.715Z" fill="#aa6550"/>
          </g>
        </g>
      </g>
    </g>
    <g id="Character_1" data-name="Character 1">
      <g id="Grupo_20962" data-name="Grupo 20962">
        <path id="Trazado_19277" data-name="Trazado 19277" d="M111.077,404.972c1.783,0-13.621,41.376-17.585,51.945-.439,1.171-.746,2.2-.746,2.2l107.823.187L199.3,358.982a1.881,1.881,0,0,0-.014-.2l-9.018-71.762a1.763,1.763,0,0,0-1.288-1.487c-4.27-1.158-19.654-5.129-31.424-5.565-13.8-.511-33.751,2.226-33.751,2.226s-17.9,1.847-27.759,5.4a1.77,1.77,0,0,0-1.155,1.914Z" fill="#e8505b"/>
        <g id="Grupo_20823" data-name="Grupo 20823">
          <path id="Trazado_19278" data-name="Trazado 19278" d="M160.872,360.5a7.393,7.393,0,0,1-.541,1.3,12.513,12.513,0,0,1-.757,1.472,21.065,21.065,0,0,1-1.144,1.873,23.435,23.435,0,0,1-1.575,2.146c-.576.768-1.29,1.5-2.022,2.3a32.328,32.328,0,0,1-11.645,7.627c-1.018.354-1.978.715-2.912.936a23.366,23.366,0,0,1-2.6.586,20.792,20.792,0,0,1-2.174.3,12.608,12.608,0,0,1-1.652.106,7.266,7.266,0,0,1-1.409-.025c-.006-.115,2.01-.1,5.165-.742a24.9,24.9,0,0,0,2.55-.641c.916-.235,1.857-.606,2.855-.967a33.7,33.7,0,0,0,11.479-7.518c.73-.771,1.446-1.485,2.028-2.23a25.131,25.131,0,0,0,1.605-2.082C159.975,362.306,160.769,360.452,160.872,360.5Z" fill="#263238"/>
        </g>
        <g id="Grupo_20824" data-name="Grupo 20824" opacity="0.2">
          <path id="Trazado_19279" data-name="Trazado 19279" d="M96.407,449.1a31.736,31.736,0,0,0,30.934-3.869c3.888-2.823,7.151-6.513,11.346-8.855,5.818-3.247,12.755-3.554,19.4-4.028,8.9-.635,17.86-1.726,26.223-4.824a10.484,10.484,0,0,0,4.585-2.773c1.158-1.387,1.546-3.576.416-4.987-1.155-1.44-3.281-1.521-5.127-1.467-27.884.823-53.362,3.059-80.5,9.507"/>
        </g>
        <path id="Trazado_19280" data-name="Trazado 19280" d="M126.458,176.756c8.618-8.774,22.219-13.954,33.486-9.024,7.575,3.315,12.714,10.424,19.363,15.34,4.842,3.579,10.825,6.346,13.363,11.807,2.237,4.815,1.158,10.418.618,15.7s-.162,11.373,3.929,14.757c2.148,1.778,4.972,2.48,7.391,3.866,4.87,2.789,7.762,8.219,8.8,13.733s.48,11.19-.086,16.773l-23.208,4.422-3.812-6.412L184.978,267.8l-29.618,2.673Z" fill="#263238"/>
        <g id="Grupo_20891" data-name="Grupo 20891">
          <g id="Grupo_20890" data-name="Grupo 20890">
            <g id="Grupo_20889" data-name="Grupo 20889">
              <g id="Grupo_20878" data-name="Grupo 20878">
                <g id="Grupo_20877" data-name="Grupo 20877">
                  <g id="Grupo_20876" data-name="Grupo 20876">
                    <g id="Grupo_20829" data-name="Grupo 20829">
                      <g id="Grupo_20828" data-name="Grupo 20828">
                        <g id="Grupo_20827" data-name="Grupo 20827">
                          <g id="Grupo_20826" data-name="Grupo 20826">
                            <g id="Grupo_20825" data-name="Grupo 20825">
                              <path id="Trazado_19281" data-name="Trazado 19281" d="M122.63,186.335l-.05,6.458-1.826,96.8c-.159,11.221,10.577,20.775,22.593,20.854h0c12.135.079,17.085-9.038,17.432-20.37.365-11.895.967-24.411.967-24.411s15.4-2.121,19.121-22.028c1.853-9.9,1.8-26.216,1.331-39.566a21.12,21.12,0,0,0-22.745-20.325Z" fill="#ffbe9d"/>
                            </g>
                          </g>
                        </g>
                      </g>
                    </g>
                    <g id="Grupo_20841" data-name="Grupo 20841">
                      <g id="Grupo_20834" data-name="Grupo 20834">
                        <g id="Grupo_20833" data-name="Grupo 20833">
                          <g id="Grupo_20832" data-name="Grupo 20832">
                            <g id="Grupo_20831" data-name="Grupo 20831">
                              <g id="Grupo_20830" data-name="Grupo 20830">
                                <path id="Trazado_19282" data-name="Trazado 19282" d="M176.924,216.936a2.565,2.565,0,0,1-2.544,2.518,2.452,2.452,0,0,1-2.579-2.384,2.565,2.565,0,0,1,2.541-2.521A2.455,2.455,0,0,1,176.924,216.936Z" fill="#263238"/>
                              </g>
                            </g>
                          </g>
                        </g>
                      </g>
                      <g id="Grupo_20840" data-name="Grupo 20840">
                        <g id="Grupo_20839" data-name="Grupo 20839">
                          <g id="Grupo_20838" data-name="Grupo 20838">
                            <g id="Grupo_20837" data-name="Grupo 20837">
                              <g id="Grupo_20836" data-name="Grupo 20836">
                                <g id="Grupo_20835" data-name="Grupo 20835">
                                  <path id="Trazado_19283" data-name="Trazado 19283" d="M178.427,212.46c-.326.325-2.23-1.166-4.989-1.234-2.755-.108-4.82,1.255-5.11.909-.143-.154.2-.748,1.1-1.366a7.046,7.046,0,0,1,4.1-1.142,6.758,6.758,0,0,1,3.96,1.4C178.317,211.7,178.588,212.314,178.427,212.46Z" fill="#263238"/>
                                </g>
                              </g>
                            </g>
                          </g>
                        </g>
                      </g>
                    </g>
                    <g id="Grupo_20853" data-name="Grupo 20853">
                      <g id="Grupo_20846" data-name="Grupo 20846">
                        <g id="Grupo_20845" data-name="Grupo 20845">
                          <g id="Grupo_20844" data-name="Grupo 20844">
                            <g id="Grupo_20843" data-name="Grupo 20843">
                              <g id="Grupo_20842" data-name="Grupo 20842">
                                <path id="Trazado_19284" data-name="Trazado 19284" d="M149.744,216.936a2.565,2.565,0,0,1-2.544,2.518,2.454,2.454,0,0,1-2.58-2.384,2.567,2.567,0,0,1,2.542-2.521A2.456,2.456,0,0,1,149.744,216.936Z" fill="#263238"/>
                              </g>
                            </g>
                          </g>
                        </g>
                      </g>
                      <g id="Grupo_20852" data-name="Grupo 20852">
                        <g id="Grupo_20851" data-name="Grupo 20851">
                          <g id="Grupo_20850" data-name="Grupo 20850">
                            <g id="Grupo_20849" data-name="Grupo 20849">
                              <g id="Grupo_20848" data-name="Grupo 20848">
                                <g id="Grupo_20847" data-name="Grupo 20847">
                                  <path id="Trazado_19285" data-name="Trazado 19285" d="M151.291,212.227c-.328.325-2.233-1.165-4.99-1.234-2.756-.109-4.82,1.255-5.111.908-.141-.153.2-.747,1.1-1.365a7.038,7.038,0,0,1,4.1-1.142,6.768,6.768,0,0,1,3.961,1.4C151.178,211.469,151.451,212.082,151.291,212.227Z" fill="#263238"/>
                                </g>
                              </g>
                            </g>
                          </g>
                        </g>
                      </g>
                    </g>
                    <g id="Grupo_20859" data-name="Grupo 20859">
                      <g id="Grupo_20858" data-name="Grupo 20858">
                        <g id="Grupo_20857" data-name="Grupo 20857">
                          <g id="Grupo_20856" data-name="Grupo 20856">
                            <g id="Grupo_20855" data-name="Grupo 20855">
                              <g id="Grupo_20854" data-name="Grupo 20854">
                                <path id="Trazado_19286" data-name="Trazado 19286" d="M160.74,232.966c-.008-.157,1.715-.406,4.5-.685.707-.053,1.377-.175,1.51-.653a3.6,3.6,0,0,0-.413-2.1q-.924-2.584-1.936-5.422c-2.683-7.719-4.6-14.058-4.293-14.163s2.74,6.065,5.423,13.784c.644,1.9,1.261,3.716,1.847,5.452a4.077,4.077,0,0,1,.289,2.776,1.769,1.769,0,0,1-1.187,1,4.782,4.782,0,0,1-1.2.133C162.482,233.158,160.746,233.123,160.74,232.966Z" fill="#263238"/>
                              </g>
                            </g>
                          </g>
                        </g>
                      </g>
                    </g>
                    <g id="Grupo_20864" data-name="Grupo 20864">
                      <g id="Grupo_20863" data-name="Grupo 20863">
                        <g id="Grupo_20862" data-name="Grupo 20862">
                          <g id="Grupo_20861" data-name="Grupo 20861">
                            <g id="Grupo_20860" data-name="Grupo 20860">
                              <path id="Trazado_19287" data-name="Trazado 19287" d="M161.746,265.67a50.878,50.878,0,0,1-26.58-7.881s6.117,13.914,26.18,12.594Z" fill="#eb996e"/>
                            </g>
                          </g>
                        </g>
                      </g>
                    </g>
                    <g id="Grupo_20869" data-name="Grupo 20869">
                      <g id="Grupo_20868" data-name="Grupo 20868">
                        <g id="Grupo_20867" data-name="Grupo 20867">
                          <g id="Grupo_20866" data-name="Grupo 20866">
                            <g id="Grupo_20865" data-name="Grupo 20865">
                              <path id="Trazado_19288" data-name="Trazado 19288" d="M159.39,239.584a4.973,4.973,0,0,0-4.406-1.97,4.541,4.541,0,0,0-3.181,1.6,2.878,2.878,0,0,0-.31,3.283,3.339,3.339,0,0,0,3.592,1.015,10.461,10.461,0,0,0,3.585-2.008,3.051,3.051,0,0,0,.811-.794.924.924,0,0,0,.024-1.028" fill="#eb996e"/>
                            </g>
                          </g>
                        </g>
                      </g>
                    </g>
                    <g id="Grupo_20875" data-name="Grupo 20875">
                      <g id="Grupo_20874" data-name="Grupo 20874">
                        <g id="Grupo_20873" data-name="Grupo 20873">
                          <g id="Grupo_20872" data-name="Grupo 20872">
                            <g id="Grupo_20871" data-name="Grupo 20871">
                              <g id="Grupo_20870" data-name="Grupo 20870">
                                <path id="Trazado_19289" data-name="Trazado 19289" d="M152.567,234.651c.45-.014.373,2.981,2.878,5.178s5.7,1.955,5.714,2.374c.037.189-.727.562-2.076.561a7.457,7.457,0,0,1-4.774-1.812,6.5,6.5,0,0,1-2.221-4.337C152.008,235.36,152.363,234.628,152.567,234.651Z" fill="#263238"/>
                              </g>
                            </g>
                          </g>
                        </g>
                      </g>
                    </g>
                  </g>
                </g>
              </g>
              <g id="Grupo_20883" data-name="Grupo 20883">
                <g id="Grupo_20882" data-name="Grupo 20882">
                  <g id="Grupo_20881" data-name="Grupo 20881">
                    <g id="Grupo_20880" data-name="Grupo 20880">
                      <g id="Grupo_20879" data-name="Grupo 20879">
                        <path id="Trazado_19290" data-name="Trazado 19290" d="M152.167,204.2c-.293.743-3.038.311-6.285.612-3.255.236-5.891,1.111-6.3.426-.183-.327.291-1.02,1.367-1.717a10.976,10.976,0,0,1,9.59-.792C151.712,203.242,152.294,203.848,152.167,204.2Z" fill="#263238"/>
                      </g>
                    </g>
                  </g>
                </g>
              </g>
              <g id="Grupo_20888" data-name="Grupo 20888">
                <g id="Grupo_20887" data-name="Grupo 20887">
                  <g id="Grupo_20886" data-name="Grupo 20886">
                    <g id="Grupo_20885" data-name="Grupo 20885">
                      <g id="Grupo_20884" data-name="Grupo 20884">
                        <path id="Trazado_19291" data-name="Trazado 19291" d="M178.53,206.886c-.609.61-2.9-.1-5.685-.211-2.778-.188-5.15.279-5.674-.391-.229-.325.159-.943,1.205-1.508a9.18,9.18,0,0,1,4.651-.9,9.006,9.006,0,0,1,4.5,1.385C178.494,205.933,178.8,206.587,178.53,206.886Z" fill="#263238"/>
                      </g>
                    </g>
                  </g>
                </g>
              </g>
            </g>
          </g>
        </g>
        <path id="Trazado_19292" data-name="Trazado 19292" d="M102,285.767s-32.158,7.546-38.4,38.042c-2.866,14.013-6.882,94.475,11.862,106.974,24.193,16.133,54.945,1.452,54.945,1.452l-3.949-38.919H106.491L103.8,350.68C104.548,353.95,102,285.767,102,285.767Z" fill="#e8505b"/>
        <path id="Trazado_19293" data-name="Trazado 19293" d="M216.4,419.712A24.868,24.868,0,0,0,238.706,393.9l-13.133-55.822s-8.518-47.9-35.454-52.224l9.177,73.032-.875,15.391s.416,10.182,1.452,29.258Z" fill="#e8505b"/>
        <g id="Grupo_20892" data-name="Grupo 20892">
          <path id="Trazado_19294" data-name="Trazado 19294" d="M219.884,384.78a34.368,34.368,0,0,0-4.849.533,19.693,19.693,0,0,0-15.453,15.775,34.066,34.066,0,0,0-.432,4.859,5.385,5.385,0,0,1-.153-1.316,17.493,17.493,0,0,1,.223-3.607,19.361,19.361,0,0,1,15.743-16.072,17.467,17.467,0,0,1,3.6-.3A5.383,5.383,0,0,1,219.884,384.78Z" fill="#263238"/>
        </g>
        <path id="Trazado_19295" data-name="Trazado 19295" d="M136.91,174.525c3.622,4.862,5.343,8.6,7.514,17.244,1.063,4.234-2.38,7.225-5.8,9.81a2.758,2.758,0,0,1-4.358-1.6h0s1.188,13.249-3.6,19.19c-2.246,2.784-2.341,6.357-1.808,9.367a15.889,15.889,0,0,0,4.279,8.1c5.554,5.839,7.1,15.365,3.266,22.527a59.182,59.182,0,0,0-3.045,5.44,8.2,8.2,0,0,0-.639,3.516,2.785,2.785,0,0,1-2.361,2.959,218.7,218.7,0,0,1-49.7,1.494,2.727,2.727,0,0,1-2.434-2.06c-1.3-5.49.866-11.477,3.641-16.533,3.1-5.646,7.044-11.063,8.111-17.414,1-5.977-.628-12.422,1.773-17.987,2.947-6.829,10.958-10.059,14.969-16.323,3.784-5.911,3.48-13.662,6.87-19.808,4.352-7.89,15.068-11.533,23.327-7.93" fill="#263238"/>
        <path id="Trazado_19296" data-name="Trazado 19296" d="M137.833,181.864c6.289,3.233,9.2,10.924,15.3,14.485,5.564,3.242,12.507,2.386,18.876,1.43q-.355-2.12-.71-4.238a11.436,11.436,0,0,0,2.36,3.431,3.879,3.879,0,0,0,3.871.916c2.137-.86,2.42-3.8,1.872-6.037a20.726,20.726,0,0,0-5.56-9.417,28.2,28.2,0,0,0-36.784-2.94" fill="#263238"/>
        <g id="Grupo_20893" data-name="Grupo 20893">
          <path id="Trazado_19297" data-name="Trazado 19297" d="M196.8,324.214a4.467,4.467,0,0,1,.06.785q.025.846.068,2.253c.039,1.956.138,4.786.287,8.28.287,6.991.94,16.634,1.727,27.283s1.384,20.311,1.577,27.312c.1,3.5.144,6.333.12,8.291-.012.94-.021,1.69-.028,2.254a4.476,4.476,0,0,1-.046.786,4.423,4.423,0,0,1-.059-.785q-.027-.846-.069-2.253c-.039-1.955-.137-4.785-.286-8.28-.287-6.99-.94-16.634-1.728-27.287s-1.383-20.306-1.576-27.307c-.1-3.5-.145-6.334-.121-8.292.012-.94.021-1.69.029-2.255A4.425,4.425,0,0,1,196.8,324.214Z" fill="#263238"/>
        </g>
        <g id="Grupo_20894" data-name="Grupo 20894">
          <path id="Trazado_19298" data-name="Trazado 19298" d="M106.491,393.316a2.31,2.31,0,0,1-.072-.559c-.027-.424-.062-.956-.1-1.6-.082-1.467-.193-3.467-.329-5.9-.284-4.985-.722-11.87-1.241-19.472-.527-7.572-1-14.422-1.354-19.47-.16-2.438-.292-4.436-.388-5.9-.033-.65-.061-1.181-.083-1.607a2.324,2.324,0,0,1,.006-.563,2.276,2.276,0,0,1,.1.555c.048.423.107.952.18,1.6.137,1.463.325,3.458.553,5.89.438,4.976.988,11.856,1.506,19.463s.9,14.5,1.09,19.49c.088,2.5.154,4.518.164,5.916,0,.651,0,1.183.006,1.609A2.274,2.274,0,0,1,106.491,393.316Z" fill="#263238"/>
        </g>
        <g id="Grupo_20895" data-name="Grupo 20895">
          <path id="Trazado_19299" data-name="Trazado 19299" d="M106.491,393.316c.009.093-1.044.139-2.618.671a11.638,11.638,0,0,0-7.89,9.362c-.257,1.641-.124,2.686-.217,2.693a1.854,1.854,0,0,1-.155-.724,9.543,9.543,0,0,1,.007-2.017,11.214,11.214,0,0,1,8.146-9.666,9.487,9.487,0,0,1,1.987-.348A1.87,1.87,0,0,1,106.491,393.316Z" fill="#263238"/>
        </g>
        <g id="Grupo_20896" data-name="Grupo 20896">
          <path id="Trazado_19300" data-name="Trazado 19300" d="M130.407,432.235a2.811,2.811,0,0,1-.115-.615c-.059-.461-.135-1.05-.229-1.776-.184-1.611-.437-3.829-.747-6.54-.587-5.587-1.386-13.193-2.268-21.6-.293-2.921-.576-5.744-.839-8.365l.249.225-15.993-.093-4.643-.073-1.242-.041a1.6,1.6,0,0,1-.429-.044,1.628,1.628,0,0,1,.429-.043l1.242-.042,4.643-.073,15.993-.092h.226l.023.226c.269,2.621.559,5.444.859,8.363.823,8.41,1.569,16.022,2.116,21.613.242,2.718.439,4.942.582,6.557.054.73.1,1.322.133,1.785A2.813,2.813,0,0,1,130.407,432.235Z" fill="#263238"/>
        </g>
        <g id="Grupo_20897" data-name="Grupo 20897">
          <path id="Trazado_19301" data-name="Trazado 19301" d="M130.407,432.235a4.661,4.661,0,0,1-.755.279l-2.194.7c-1.911.591-4.68,1.437-8.139,2.36A102.476,102.476,0,0,1,107,438.132a42.576,42.576,0,0,1-15.365-.728,65.319,65.319,0,0,1-7.693-2.168c-1.216-.433-2.4-.88-3.551-1.357-.572-.243-1.142-.464-1.688-.759l-.82-.414-.762-.49a18.773,18.773,0,0,1-4.823-4.73,32.848,32.848,0,0,1-2.97-5.071,59.772,59.772,0,0,1-3.024-7.925c-.292-.958-.511-1.7-.646-2.212a4.7,4.7,0,0,1-.185-.783,4.621,4.621,0,0,1,.285.752c.184.544.43,1.269.738,2.18a67.367,67.367,0,0,0,3.163,7.827,33.386,33.386,0,0,0,2.987,4.976,18.5,18.5,0,0,0,4.737,4.584l.74.471.795.395c.521.281,1.1.5,1.663.739,1.14.469,2.32.908,3.529,1.335a66.324,66.324,0,0,0,7.634,2.141,42.7,42.7,0,0,0,15.192.761,108.379,108.379,0,0,0,12.289-2.439c3.463-.875,6.246-1.666,8.174-2.2l2.222-.606A4.735,4.735,0,0,1,130.407,432.235Z" fill="#263238"/>
        </g>
        <path id="Trazado_19302" data-name="Trazado 19302" d="M113.438,198.22a12.785,12.785,0,0,0-2.923-13.986,14.389,14.389,0,0,0-14.16-3.067,10.912,10.912,0,0,0-5.527,3.781c-2.452,3.386-1.974,8.367.561,11.691a14.733,14.733,0,0,0,10.933,5.312,28.016,28.016,0,0,0,12.178-2.52" fill="#263238"/>
        <g id="Grupo_20905" data-name="Grupo 20905">
          <g id="Grupo_20900" data-name="Grupo 20900">
            <path id="Trazado_19303" data-name="Trazado 19303" d="M146.692,356.822c6.994,5.771,23.453,19.43,23.453,19.43l9.216-1.641-27.919-23.487a3.709,3.709,0,0,0-5.073.281h0A3.706,3.706,0,0,0,146.692,356.822Z" fill="#455a64"/>
            <path id="Trazado_19304" data-name="Trazado 19304" d="M145.953,353.823l-3.625-3.272a1.772,1.772,0,0,1-.167-2.456h0a1.771,1.771,0,0,1,2.55-.164l3.487,3.2Z" fill="#455a64"/>
            <g id="Grupo_20898" data-name="Grupo 20898">
              <path id="Trazado_19305" data-name="Trazado 19305" d="M156.74,355.581a24.262,24.262,0,0,1-4.87,5.145,24.2,24.2,0,0,1,4.87-5.145Z" fill="#263238"/>
            </g>
            <g id="Grupo_20899" data-name="Grupo 20899">
              <path id="Trazado_19306" data-name="Trazado 19306" d="M157.02,367.083a18,18,0,0,1-2.786-1.821c-1.667-1.2-3.915-2.942-6.28-5a10.385,10.385,0,0,1-2.94-3.384,4.849,4.849,0,0,1-.094-3.675,4.613,4.613,0,0,1,1.479-1.987,1.854,1.854,0,0,1,.794-.433,8.354,8.354,0,0,1-.663.587,4.849,4.849,0,0,0-1.264,1.959,4.579,4.579,0,0,0,.185,3.351,10.433,10.433,0,0,0,2.844,3.189c2.355,2.052,4.556,3.829,6.162,5.1A25.458,25.458,0,0,1,157.02,367.083Z" fill="#263238"/>
            </g>
          </g>
          <g id="Grupo_20904" data-name="Grupo 20904">
            <path id="Trazado_19307" data-name="Trazado 19307" d="M126.774,396.433c6.631-2.228,13.678-.728,20.309-2.955a17.588,17.588,0,0,0,6.266-3.09c2.106-1.871,3.178-4.62,4.857-6.882,5.02-6.759,14.4-8.16,22.772-9.018a16.947,16.947,0,0,1,5.864.084,5.744,5.744,0,0,1,4.262,3.676c.535,1.892-.687,4.252-2.643,4.448,1.835.081,3.12,1.945,3.457,3.751s.038,3.675.28,5.5c.341,2.558,1.74,4.952,1.659,7.531-.111,3.53-3.037,6.437-6.3,7.8S180.693,408.8,177.2,409.3c-17.171,2.416-30.232,12.166-46.788,19.531" fill="#ffbe9d"/>
            <path id="Trazado_19308" data-name="Trazado 19308" d="M192.079,388.817a2.37,2.37,0,0,0,3.383.7,3.628,3.628,0,0,0,1.3-3.495A8.141,8.141,0,0,0,195.1,382.5a45.283,45.283,0,0,0-4.8-5.307l-5.32,4.454Z" fill="#ffbe9d"/>
            <g id="Grupo_20901" data-name="Grupo 20901">
              <path id="Trazado_19309" data-name="Trazado 19309" d="M190.119,383c-.009.164-3.258-.1-7.193.507-3.94.58-6.965,1.794-7.022,1.64a7.007,7.007,0,0,1,1.941-.895A26.692,26.692,0,0,1,188,382.72,7.061,7.061,0,0,1,190.119,383Z" fill="#eb996e"/>
            </g>
            <g id="Grupo_20902" data-name="Grupo 20902">
              <path id="Trazado_19310" data-name="Trazado 19310" d="M192.461,393.421c-.031.157-2.735-.4-6.1-.3-3.37.071-6.043.759-6.082.6a19.57,19.57,0,0,1,12.186-.3Z" fill="#eb996e"/>
            </g>
            <g id="Grupo_20903" data-name="Grupo 20903">
              <path id="Trazado_19311" data-name="Trazado 19311" d="M191.9,390.341c-.084-.01,0-.783-.146-2a10.548,10.548,0,0,0-1.611-4.442,10.17,10.17,0,0,0-.683-.926l-.15-.187.166-.163a4.818,4.818,0,0,0,1.383-3.518c-.025-.994-.3-1.565-.223-1.6a2.63,2.63,0,0,1,.559,1.573,4.859,4.859,0,0,1-1.36,3.907l.016-.35a9.721,9.721,0,0,1,.728.974,9.57,9.57,0,0,1,1.542,4.7A4.493,4.493,0,0,1,191.9,390.341Z" fill="#eb996e"/>
            </g>
          </g>
        </g>
        <path id="Trazado_19312" data-name="Trazado 19312" d="M192.085,388.247l8.725,8.186,1.115,4.862-8.068-1.821C192.7,395.368,191.849,391.457,192.085,388.247Z" fill="#455a64"/>
        <path id="Trazado_19313" data-name="Trazado 19313" d="M180.275,398.674c-.178.32-47.072,23.44-47.072,23.44v4.973L181.057,402.2l59.377-2.241v-3.521Z" fill="#f5f5f5"/>
        <path id="Trazado_19314" data-name="Trazado 19314" d="M133.2,427.8c.328-.224,51.775-4.862,51.775-4.862l55.456-22.986L181.057,402.2,133.2,427.087Z" fill="#263238"/>
        <g id="Grupo_20909" data-name="Grupo 20909">
          <path id="Trazado_19315" data-name="Trazado 19315" d="M182.463,415.488c-.417-2.7,2.164-5,4.794-5.723s5.442-.435,8.1-1.04a36.938,36.938,0,0,0,4.942-1.761c8.2-3.147,17.2-3.31,25.982-3.433a5.576,5.576,0,0,1-1.992,6.816,9.18,9.18,0,0,1-.272,6.586,20.559,20.559,0,0,1-3.664,5.628,12.781,12.781,0,0,1-4.335,3.633,14.426,14.426,0,0,1-5.563.855c-5.891.125-12.212.129-17.086-3.184-3.787-2.574-6.415-6.991-10.8-8.3l1.041.042" fill="#ffbe9d"/>
          <g id="Grupo_20906" data-name="Grupo 20906">
            <path id="Trazado_19316" data-name="Trazado 19316" d="M221.765,412.22a4.755,4.755,0,0,1-1.128.107l-3.077.1c-2.6.06-6.187.107-10.151.127l-5.6,0a7.707,7.707,0,0,1-2.472-.379,3.792,3.792,0,0,1-1.787-1.3,2.372,2.372,0,0,1-.467-1.771,2.225,2.225,0,0,1,.62-1.23,1.242,1.242,0,0,1,1.055-.439,2.275,2.275,0,0,0-.907.578,2.049,2.049,0,0,0-.006,2.642,3.484,3.484,0,0,0,1.634,1.115,7.5,7.5,0,0,0,2.337.306l5.585-.043c3.964-.019,7.554-.008,10.152.026l3.078.067A4.761,4.761,0,0,1,221.765,412.22Z" fill="#eb996e"/>
          </g>
          <g id="Grupo_20907" data-name="Grupo 20907">
            <path id="Trazado_19317" data-name="Trazado 19317" d="M218.743,417.158a7.53,7.53,0,0,1-1.416.277c-.917.141-2.246.331-3.9.49a37.856,37.856,0,0,1-5.847.14,43.049,43.049,0,0,1-7.058-1.187,54.97,54.97,0,0,0-12.773-1.568c-1.652-.007-2.989.058-3.912.109a8.689,8.689,0,0,1-1.441.043,6.913,6.913,0,0,1,1.423-.245c.922-.113,2.263-.235,3.926-.275a49.757,49.757,0,0,1,12.891,1.428,45.814,45.814,0,0,0,6.977,1.216,41.721,41.721,0,0,0,5.785-.028c1.648-.111,2.982-.245,3.906-.324A7.818,7.818,0,0,1,218.743,417.158Z" fill="#eb996e"/>
          </g>
          <g id="Grupo_20908" data-name="Grupo 20908">
            <path id="Trazado_19318" data-name="Trazado 19318" d="M213.847,422.438a4.615,4.615,0,0,1-1.1.206c-.714.094-1.749.222-3.034.331a36.5,36.5,0,0,1-10.081-.326c-3.948-.753-7.018-2.764-9.372-3.7a23.876,23.876,0,0,0-3.949-1.213,3.476,3.476,0,0,1,1.125.059,14.351,14.351,0,0,1,2.961.812c2.443.875,5.5,2.8,9.337,3.532a41.261,41.261,0,0,0,9.954.469l3.04-.166A4.691,4.691,0,0,1,213.847,422.438Z" fill="#eb996e"/>
          </g>
        </g>
        <g id="Grupo_20910" data-name="Grupo 20910" opacity="0.2">
          <path id="Trazado_19319" data-name="Trazado 19319" d="M200.547,395.6a33.723,33.723,0,0,1,2.922-10.57,16.314,16.314,0,0,1,7.552-7.725,10.855,10.855,0,0,1,10.51.644,5.461,5.461,0,0,1,2.1,2.5,3.066,3.066,0,0,1-.5,3.108c-1.106,1.172-2.972.986-4.582.915a19.288,19.288,0,0,0-17.829,10.742"/>
        </g>
        <g id="Grupo_20911" data-name="Grupo 20911" opacity="0.2">
          <path id="Trazado_19320" data-name="Trazado 19320" d="M113.708,392.55c3.973-7.166,2.565-16.156-.484-23.762s-7.6-14.6-9.932-22.457A138.663,138.663,0,0,0,110.14,393.3"/>
        </g>
        <path id="Trazado_19321" data-name="Trazado 19321" d="M120.752,282.879s4.85,11.431,22.345,10.7,18.063-14.3,18.063-14.3l11.705,12.445-11.119,22.92L146.809,325.8l-20.351-8.363-16.765-13.008Z" fill="#e8505b"/>
        <g id="Grupo_20912" data-name="Grupo 20912" opacity="0.5">
          <path id="Trazado_19322" data-name="Trazado 19322" d="M79.775,331.739c.18.224-2.109,2.36-5.112,4.769s-5.584,4.181-5.764,3.957,2.108-2.36,5.112-4.77S79.6,331.515,79.775,331.739Z" fill="#fafafa"/>
        </g>
        <g id="Grupo_20913" data-name="Grupo 20913">
          <path id="Trazado_19323" data-name="Trazado 19323" d="M87.971,319.408c-.09.259-2.853-.52-5.842-2.364s-4.943-3.943-4.753-4.14c.2-.224,2.4,1.481,5.3,3.252S88.08,319.128,87.971,319.408Z" fill="#fafafa"/>
        </g>
        <g id="Grupo_20914" data-name="Grupo 20914">
          <path id="Trazado_19324" data-name="Trazado 19324" d="M103,320.746c.236.182-1.974,3.395-4.49,7.475s-4.417,7.484-4.686,7.354c-.251-.117,1.239-3.775,3.8-7.9S102.785,320.574,103,320.746Z" fill="#fafafa"/>
        </g>
        <g id="Grupo_20915" data-name="Grupo 20915">
          <path id="Trazado_19325" data-name="Trazado 19325" d="M90.16,355.5c-.205.181-2.513-2.171-4.533-5.668-2.036-3.49-2.934-6.661-2.675-6.748.282-.106,1.591,2.826,3.575,6.225C88.494,352.712,90.392,355.3,90.16,355.5Z" fill="#fafafa"/>
        </g>
        <g id="Grupo_20916" data-name="Grupo 20916">
          <path id="Trazado_19326" data-name="Trazado 19326" d="M76.741,372.312c-.285.038-.867-2.507-1.3-5.684s-.552-5.786-.267-5.825.867,2.506,1.3,5.684S77.026,372.273,76.741,372.312Z" fill="#fafafa"/>
        </g>
        <g id="Grupo_20917" data-name="Grupo 20917" opacity="0.5">
          <path id="Trazado_19327" data-name="Trazado 19327" d="M89.379,376.892c-.249-.144,1.036-2.824,2.869-5.985s3.522-5.607,3.771-5.463-1.036,2.824-2.87,5.986S89.627,377.036,89.379,376.892Z" fill="#fafafa"/>
        </g>
        <g id="Grupo_20918" data-name="Grupo 20918">
          <path id="Trazado_19328" data-name="Trazado 19328" d="M74.7,394.3c-.208.185-2.438-2-4.6-5.164s-3.41-6.025-3.162-6.152,1.886,2.462,4.021,5.563S74.921,394.109,74.7,394.3Z" fill="#fafafa"/>
        </g>
        <g id="Grupo_20919" data-name="Grupo 20919">
          <path id="Trazado_19329" data-name="Trazado 19329" d="M94.646,391.431c.2.2-2.092,2.85-5.127,5.913s-5.663,5.384-5.867,5.181,2.091-2.849,5.127-5.914S94.441,391.228,94.646,391.431Z" fill="#fafafa"/>
        </g>
        <g id="Grupo_20920" data-name="Grupo 20920" opacity="0.5">
          <path id="Trazado_19330" data-name="Trazado 19330" d="M83.306,427.364c-.189.2-2.4-1.648-4.421-4.542s-3.013-5.6-2.76-5.708c.271-.127,1.641,2.311,3.613,5.11S83.519,427.153,83.306,427.364Z" fill="#fafafa"/>
        </g>
        <g id="Grupo_20921" data-name="Grupo 20921">
          <path id="Trazado_19331" data-name="Trazado 19331" d="M109.048,420.09c.142.25-2.316,1.921-5.49,3.731s-5.864,3.076-6.007,2.826,2.315-1.92,5.491-3.731S108.9,419.841,109.048,420.09Z" fill="#fafafa"/>
        </g>
        <g id="Grupo_20922" data-name="Grupo 20922">
          <path id="Trazado_19332" data-name="Trazado 19332" d="M119.082,411.809c-.177.208-2.517-1.572-4.629-4.479-2.127-2.9-3.11-5.668-2.858-5.773.274-.127,1.643,2.36,3.7,5.159C117.333,409.525,119.286,411.587,119.082,411.809Z" fill="#fafafa"/>
        </g>
        <g id="Grupo_20923" data-name="Grupo 20923">
          <path id="Trazado_19333" data-name="Trazado 19333" d="M136.774,354.222c.173.23-2.475,2.5-5.913,5.078s-6.365,4.475-6.538,4.245,2.475-2.5,5.914-5.079S136.6,353.992,136.774,354.222Z" fill="#fafafa"/>
        </g>
        <g id="Grupo_20924" data-name="Grupo 20924">
          <path id="Trazado_19334" data-name="Trazado 19334" d="M118.127,353.019c-.287-.029-.24-2.769.1-6.119s.854-6.043,1.141-6.013.239,2.768-.1,6.119S118.413,353.049,118.127,353.019Z" fill="#fafafa"/>
        </g>
        <g id="Grupo_20925" data-name="Grupo 20925" opacity="0.5">
          <path id="Trazado_19335" data-name="Trazado 19335" d="M135.322,329.592c-.16.229-3.259-1.68-6.661-4.588s-5.781-5.66-5.58-5.854,2.887,2.2,6.256,5.062S135.493,329.351,135.322,329.592Z" fill="#fafafa"/>
        </g>
        <g id="Grupo_20926" data-name="Grupo 20926">
          <path id="Trazado_19336" data-name="Trazado 19336" d="M122.411,300.374c.219.186-1.968,3.125-4.885,6.564s-5.46,6.076-5.68,5.89,1.968-3.124,4.886-6.564S122.192,300.188,122.411,300.374Z" fill="#fafafa"/>
        </g>
        <g id="Grupo_20927" data-name="Grupo 20927" opacity="0.5">
          <path id="Trazado_19337" data-name="Trazado 19337" d="M107.618,297.244c-.158.257-2.392-.892-5.3-1.865-2.9-.994-5.37-1.44-5.339-1.741.014-.273,2.641-.283,5.674.754C105.693,295.413,107.773,297.019,107.618,297.244Z" fill="#fafafa"/>
        </g>
        <g id="Grupo_20928" data-name="Grupo 20928">
          <path id="Trazado_19338" data-name="Trazado 19338" d="M145.212,310.714c-.276-.081.2-2.515,1.055-5.435s1.778-5.223,2.054-5.142-.2,2.514-1.055,5.436S145.488,310.8,145.212,310.714Z" fill="#fafafa"/>
        </g>
        <g id="Grupo_20929" data-name="Grupo 20929">
          <path id="Trazado_19339" data-name="Trazado 19339" d="M154.2,333.731c-.287-.016-.383-2.4-.215-5.318s.536-5.276.824-5.26.383,2.4.215,5.319S154.483,333.748,154.2,333.731Z" fill="#fafafa"/>
        </g>
        <g id="Grupo_20930" data-name="Grupo 20930">
          <path id="Trazado_19340" data-name="Trazado 19340" d="M168.97,351c-.18.224-2.369-1.237-4.889-3.263s-4.417-3.85-4.236-4.074,2.368,1.237,4.889,3.263S169.151,350.779,168.97,351Z" fill="#fafafa"/>
        </g>
        <g id="Grupo_20931" data-name="Grupo 20931">
          <path id="Trazado_19341" data-name="Trazado 19341" d="M184.711,326.885c.19.216-1.763,2.25-4.363,4.544s-4.862,3.978-5.052,3.762,1.763-2.249,4.363-4.543S184.521,326.67,184.711,326.885Z" fill="#fafafa"/>
        </g>
        <g id="Grupo_20932" data-name="Grupo 20932" opacity="0.5">
          <path id="Trazado_19342" data-name="Trazado 19342" d="M177.476,315.5c-.153.235-2.627-1.121-5.289-3.334s-4.458-4.387-4.256-4.581,2.3,1.612,4.921,3.779S177.639,315.255,177.476,315.5Z" fill="#fafafa"/>
        </g>
        <g id="Grupo_20933" data-name="Grupo 20933">
          <path id="Trazado_19343" data-name="Trazado 19343" d="M195.662,295.2c.227.158-.984,2.228-3.124,4.23s-4.273,3.093-4.417,2.857c-.162-.25,1.653-1.678,3.7-3.616S195.422,295.026,195.662,295.2Z" fill="#fafafa"/>
        </g>
        <g id="Grupo_20934" data-name="Grupo 20934" opacity="0.5">
          <path id="Trazado_19344" data-name="Trazado 19344" d="M183.157,293.3c-.038.277-3.231.049-7.043-.92s-6.732-2.276-6.634-2.538c.1-.278,3.133.584,6.889,1.529S183.2,293.01,183.157,293.3Z" fill="#fafafa"/>
        </g>
        <g id="Grupo_20935" data-name="Grupo 20935" opacity="0.5">
          <path id="Trazado_19345" data-name="Trazado 19345" d="M206.383,325.62c-.274-.059.35-3.966,1.777-8.619s3.083-8.246,3.343-8.142-.943,3.832-2.347,8.446S206.671,325.684,206.383,325.62Z" fill="#fafafa"/>
        </g>
        <g id="Grupo_20936" data-name="Grupo 20936">
          <path id="Trazado_19346" data-name="Trazado 19346" d="M211.527,347.676c-.209.2-2.678-2.079-5.514-5.083s-4.967-5.6-4.758-5.8,2.678,2.078,5.515,5.084S211.736,347.479,211.527,347.676Z" fill="#fafafa"/>
        </g>
        <g id="Grupo_20937" data-name="Grupo 20937" opacity="0.5">
          <path id="Trazado_19347" data-name="Trazado 19347" d="M219.5,360.175c-.288,0-.465-3.283-.4-7.32s.357-7.307.645-7.3.465,3.282.4,7.321S219.784,360.18,219.5,360.175Z" fill="#fafafa"/>
        </g>
        <g id="Grupo_20938" data-name="Grupo 20938">
          <path id="Trazado_19348" data-name="Trazado 19348" d="M211.407,380.75c-.225.163-2.371-2.459-4.347-6.121s-3.01-6.886-2.751-6.985c.276-.111,1.712,2.894,3.667,6.489S211.65,380.579,211.407,380.75Z" fill="#fafafa"/>
        </g>
        <g id="Grupo_20939" data-name="Grupo 20939">
          <path id="Trazado_19349" data-name="Trazado 19349" d="M232.064,384.507c.2.205-1.186,1.886-3.1,3.753s-3.625,3.214-3.826,3.008,1.186-1.886,3.1-3.753S231.863,384.3,232.064,384.507Z" fill="#fafafa"/>
        </g>
        <g id="Grupo_20940" data-name="Grupo 20940" opacity="0.5">
          <path id="Trazado_19350" data-name="Trazado 19350" d="M181.778,361.055c-.256-.078.662-3.359,3.032-6.771,2.351-3.428,5.092-5.451,5.256-5.239.205.229-2.137,2.527-4.4,5.83C183.382,358.16,182.065,361.166,181.778,361.055Z" fill="#fafafa"/>
        </g>
        <g id="Grupo_20941" data-name="Grupo 20941">
          <path id="Trazado_19351" data-name="Trazado 19351" d="M123.465,388.494c-.279-.069.213-3.045,1.1-6.645s1.832-6.466,2.111-6.4-.213,3.044-1.1,6.646S123.744,388.562,123.465,388.494Z" fill="#fafafa"/>
        </g>
        <g id="Grupo_20942" data-name="Grupo 20942">
          <path id="Trazado_19352" data-name="Trazado 19352" d="M148.029,390.938c-.157.241-2.647-1.1-5.561-3s-5.15-3.635-4.993-3.876,2.647,1.1,5.562,3S148.186,390.7,148.029,390.938Z" fill="#fafafa"/>
        </g>
        <g id="Grupo_20943" data-name="Grupo 20943">
          <path id="Trazado_19353" data-name="Trazado 19353" d="M146.8,373.218c-.24.16-1.41-1.172-2.615-2.974s-1.987-3.394-1.748-3.554,1.409,1.172,2.614,2.975S147.036,373.058,146.8,373.218Z" fill="#fafafa"/>
        </g>
        <g id="Grupo_20944" data-name="Grupo 20944">
          <path id="Trazado_19354" data-name="Trazado 19354" d="M157.628,377.256c.166.235-.886,1.259-2.349,2.286s-2.783,1.669-2.948,1.434.886-1.259,2.35-2.286S157.463,377.02,157.628,377.256Z" fill="#fafafa"/>
        </g>
        <g id="Grupo_20945" data-name="Grupo 20945" opacity="0.5">
          <path id="Trazado_19355" data-name="Trazado 19355" d="M129.347,449.149c-.284-.086.178-2.356.59-5.16s.644-5.108.94-5.108c.279-.005.526,2.37.09,5.262S129.612,449.235,129.347,449.149Z" fill="#fafafa"/>
        </g>
        <g id="Grupo_20946" data-name="Grupo 20946" opacity="0.5">
          <path id="Trazado_19356" data-name="Trazado 19356" d="M154.268,441.036c-.25.142-2.148-2.723-4.24-6.4s-3.586-6.773-3.336-6.915,2.148,2.722,4.241,6.4S154.518,440.894,154.268,441.036Z" fill="#fafafa"/>
        </g>
        <g id="Grupo_20947" data-name="Grupo 20947" opacity="0.5">
          <path id="Trazado_19357" data-name="Trazado 19357" d="M180.7,429.885c.229.175-2.277,3.835-5.6,8.173s-6.2,7.716-6.424,7.541,2.276-3.834,5.6-8.174S180.475,429.711,180.7,429.885Z" fill="#fafafa"/>
        </g>
        <g id="Grupo_20948" data-name="Grupo 20948" opacity="0.5">
          <path id="Trazado_19358" data-name="Trazado 19358" d="M188.151,451.117c.041.285-3.269,1-7.392,1.6s-7.5.85-7.543.565,3.269-1,7.394-1.6S188.11,450.833,188.151,451.117Z" fill="#fafafa"/>
        </g>
        <g id="Grupo_20949" data-name="Grupo 20949">
          <path id="Trazado_19359" data-name="Trazado 19359" d="M189.3,440.419c-.29-.065-.029-2.2.078-4.82.122-2.621.047-4.769.342-4.809.274-.044.824,2.124.7,4.855S189.566,440.487,189.3,440.419Z" fill="#fafafa"/>
        </g>
        <g id="Grupo_20950" data-name="Grupo 20950">
          <path id="Trazado_19360" data-name="Trazado 19360" d="M153.6,452.88c-.1.255-2.8-.643-5.621-2.68s-4.543-4.3-4.333-4.475c.222-.2,2.213,1.682,4.941,3.629C151.3,451.318,153.728,452.605,153.6,452.88Z" fill="#fafafa"/>
        </g>
        <g id="Grupo_20951" data-name="Grupo 20951">
          <path id="Trazado_19361" data-name="Trazado 19361" d="M111.2,451.3c-.279-.071.056-2.355.747-5.1s1.478-4.919,1.757-4.848-.055,2.354-.747,5.1S111.475,451.37,111.2,451.3Z" fill="#fafafa"/>
        </g>
        <g id="Grupo_20952" data-name="Grupo 20952">
          <path id="Trazado_19362" data-name="Trazado 19362" d="M106.588,198.363c.065-.082,1.2.895,3.294,2.045a24.259,24.259,0,0,0,3.831,1.672,24.421,24.421,0,0,0,10.1,1.163,24.181,24.181,0,0,0,4.111-.758c2.3-.644,3.628-1.338,3.673-1.243a4.066,4.066,0,0,1-.909.528,9.048,9.048,0,0,1-1.122.51,14.842,14.842,0,0,1-1.537.558,21.807,21.807,0,0,1-4.167.882,23.212,23.212,0,0,1-10.306-1.186,21.911,21.911,0,0,1-3.857-1.806,14.888,14.888,0,0,1-1.37-.893,8.834,8.834,0,0,1-.977-.752A4.092,4.092,0,0,1,106.588,198.363Z" fill="#455a64"/>
        </g>
        <g id="Grupo_20953" data-name="Grupo 20953">
          <path id="Trazado_19363" data-name="Trazado 19363" d="M132.423,209.866a4.709,4.709,0,0,1-1.09.337c-.71.18-1.745.415-3.039.64a27.719,27.719,0,0,1-10.243.061,15.945,15.945,0,0,1-8.851-5.046,10.9,10.9,0,0,1-1.676-2.637,3.874,3.874,0,0,1-.366-1.084,17.852,17.852,0,0,0,2.319,3.478,16.333,16.333,0,0,0,8.68,4.779,29.988,29.988,0,0,0,10.081.085c1.291-.177,2.333-.355,3.054-.474A4.939,4.939,0,0,1,132.423,209.866Z" fill="#455a64"/>
        </g>
        <g id="Grupo_20954" data-name="Grupo 20954">
          <path id="Trazado_19364" data-name="Trazado 19364" d="M96.814,271.067c-.007.006-.051-.041-.132-.138a5.072,5.072,0,0,1-.34-.446,5.782,5.782,0,0,1-.8-2,9.176,9.176,0,0,1,2.2-7.429,18.849,18.849,0,0,1,4.183-3.529c1.639-1.082,3.484-2.077,5.29-3.294a16.123,16.123,0,0,0,4.818-4.705,8.528,8.528,0,0,0,1.2-3.3,10.322,10.322,0,0,0-.193-3.638,45.18,45.18,0,0,0-2.532-6.9,19.1,19.1,0,0,1-1.691-6.731,17.952,17.952,0,0,1,3.43-11.084,16.805,16.805,0,0,1,5.9-5.2l1.12-.536.858-.3a3.882,3.882,0,0,1,.717-.213,4.161,4.161,0,0,1-.68.312l-.832.344-1.086.573a17.171,17.171,0,0,0-5.695,5.233,17.751,17.751,0,0,0-3.251,10.85,18.809,18.809,0,0,0,1.684,6.561,44.54,44.54,0,0,1,2.568,6.978,10.774,10.774,0,0,1,.2,3.821,9.025,9.025,0,0,1-1.275,3.5,16.477,16.477,0,0,1-4.985,4.836c-1.846,1.228-3.692,2.2-5.324,3.26a18.709,18.709,0,0,0-4.138,3.406,9.067,9.067,0,0,0-2.278,7.152A6.9,6.9,0,0,0,96.814,271.067Z" fill="#455a64"/>
        </g>
        <g id="Grupo_20955" data-name="Grupo 20955">
          <path id="Trazado_19365" data-name="Trazado 19365" d="M123.449,271.431a3.137,3.137,0,0,1-.579-.327,4.675,4.675,0,0,1-1.29-1.4,6.7,6.7,0,0,1-.9-2.882,10.9,10.9,0,0,1,.436-3.975c.812-2.936,3.265-5.607,5.107-8.961a11.211,11.211,0,0,0,1.5-5.7,15.28,15.28,0,0,0-1.606-6.173c-1.9-4.021-4.82-7.217-6.837-10.563a21.777,21.777,0,0,1-2.359-5.027,12.152,12.152,0,0,1-.491-4.821,9.546,9.546,0,0,1,2.912-6.254,6.779,6.779,0,0,1,1.6-1.029,3.1,3.1,0,0,1,.624-.222,10.257,10.257,0,0,0-2.091,1.4,9.509,9.509,0,0,0-2.682,6.137,11.9,11.9,0,0,0,.536,4.66,21.715,21.715,0,0,0,2.355,4.9c1.022,1.635,2.234,3.268,3.466,4.987a35.418,35.418,0,0,1,3.434,5.607,15.692,15.692,0,0,1,1.646,6.387,11.638,11.638,0,0,1-1.592,5.933c-1.913,3.414-4.362,6.032-5.177,8.84a10.8,10.8,0,0,0-.5,3.845,6.662,6.662,0,0,0,.784,2.8A5.908,5.908,0,0,0,123.449,271.431Z" fill="#455a64"/>
        </g>
        <g id="Grupo_20956" data-name="Grupo 20956">
          <path id="Trazado_19366" data-name="Trazado 19366" d="M162.913,196.361c-.009.016-.138-.039-.378-.159a7.527,7.527,0,0,1-.99-.631,12.057,12.057,0,0,1-2.876-3.207,35.771,35.771,0,0,1-2.769-5.743c-.461-1.1-.952-2.248-1.556-3.383a20.965,20.965,0,0,0-2.207-3.3,22.621,22.621,0,0,0-11.558-7.449,31.1,31.1,0,0,0-5.751-.824,8.331,8.331,0,0,1,1.574-.089,20.775,20.775,0,0,1,4.268.556,22.2,22.2,0,0,1,11.871,7.477A20.857,20.857,0,0,1,154.795,183c.612,1.165,1.1,2.331,1.549,3.439a38.51,38.51,0,0,0,2.637,5.73,13.016,13.016,0,0,0,2.69,3.245C162.439,196.056,162.937,196.32,162.913,196.361Z" fill="#455a64"/>
        </g>
        <g id="Grupo_20957" data-name="Grupo 20957">
          <path id="Trazado_19367" data-name="Trazado 19367" d="M176.859,196.279a2.09,2.09,0,0,1-.537-.056,8.237,8.237,0,0,1-1.5-.39,13,13,0,0,1-4.767-3.1A28.764,28.764,0,0,1,165.1,185.9c-1.566-2.748-3.085-5.91-5.437-8.66a17.08,17.08,0,0,0-8.486-5.294,33.146,33.146,0,0,0-8.256-1.1c-2.385-.053-4.32.047-5.656.1l-1.541.058a2.15,2.15,0,0,1-.54-.012,2.119,2.119,0,0,1,.532-.092c.351-.042.868-.1,1.536-.156,1.334-.115,3.27-.271,5.674-.265a32.093,32.093,0,0,1,8.382,1.008,17.349,17.349,0,0,1,8.749,5.414c2.414,2.827,3.925,6.02,5.463,8.768a29.443,29.443,0,0,0,4.787,6.807,13.471,13.471,0,0,0,4.579,3.169C176.127,196.13,176.871,196.222,176.859,196.279Z" fill="#455a64"/>
        </g>
        <g id="Grupo_20958" data-name="Grupo 20958">
          <path id="Trazado_19368" data-name="Trazado 19368" d="M200.473,261.184c-.058-.023.256-.71.588-2.019a18.939,18.939,0,0,0-4.383-17.776c-1.158-1.286-2.483-2.508-3.823-3.788a34.732,34.732,0,0,1-3.706-3.978,24.658,24.658,0,0,1-2.667-4.317,25.337,25.337,0,0,1-2.364-8.219,23.362,23.362,0,0,1,.057-5.765,14.437,14.437,0,0,1,.275-1.543,2.206,2.206,0,0,1,.145-.527c.054.01-.1.747-.218,2.093a25.588,25.588,0,0,0,.107,5.7,25.765,25.765,0,0,0,2.429,8.053,24.694,24.694,0,0,0,2.639,4.214,35.04,35.04,0,0,0,3.663,3.914c1.335,1.277,2.668,2.51,3.842,3.824a19.319,19.319,0,0,1,2.906,4.167,19.013,19.013,0,0,1,2.067,8.291,17.993,17.993,0,0,1-.774,5.714,12.016,12.016,0,0,1-.541,1.473A2.148,2.148,0,0,1,200.473,261.184Z" fill="#455a64"/>
        </g>
        <g id="Grupo_20959" data-name="Grupo 20959">
          <path id="Trazado_19369" data-name="Trazado 19369" d="M90.925,195.488a2.966,2.966,0,0,1,.127-.981,9.607,9.607,0,0,1,.982-2.515,10.687,10.687,0,0,1,15.536-3.716,9.592,9.592,0,0,1,2.014,1.8,2.99,2.99,0,0,1,.557.816,18.023,18.023,0,0,0-2.771-2.306,10.636,10.636,0,0,0-15.017,3.592A17.88,17.88,0,0,0,90.925,195.488Z" fill="#455a64"/>
        </g>
        <g id="Grupo_20960" data-name="Grupo 20960">
          <path id="Trazado_19370" data-name="Trazado 19370" d="M100.615,199.7a8.191,8.191,0,0,1,.279-2.27,10.012,10.012,0,0,1,2.363-5.013,5.3,5.3,0,0,1,5.3-1.342,3.111,3.111,0,0,1,1.417.97c.251.321.328.534.305.547a4.668,4.668,0,0,0-1.834-1.166,5.14,5.14,0,0,0-4.816,1.355,10.794,10.794,0,0,0-2.378,4.736A12.731,12.731,0,0,1,100.615,199.7Z" fill="#455a64"/>
        </g>
        <g id="Grupo_20961" data-name="Grupo 20961">
          <path id="Trazado_19371" data-name="Trazado 19371" d="M113.316,185.05a45.034,45.034,0,0,0-2.626,5.447,45.049,45.049,0,0,0-1.358,5.894,15.731,15.731,0,0,1,3.984-11.341Z" fill="#e8505b"/>
        </g>
      </g>
    </g>
    <g id="Speech_Bubble" data-name="Speech Bubble">
      <g id="Grupo_20973" data-name="Grupo 20973">
        <g id="Grupo_20969" data-name="Grupo 20969">
          <g id="Grupo_20964" data-name="Grupo 20964">
            <g id="Grupo_20963" data-name="Grupo 20963">
              <path id="Trazado_19372" data-name="Trazado 19372" d="M273.3,209.428a3.112,3.112,0,1,0,3.112-3.113A3.112,3.112,0,0,0,273.3,209.428Z" fill="#455a64"/>
            </g>
          </g>
          <g id="Grupo_20966" data-name="Grupo 20966">
            <g id="Grupo_20965" data-name="Grupo 20965">
              <circle id="Elipse_873" data-name="Elipse 873" cx="3.112" cy="3.112" r="3.112" transform="translate(260.843 206.315)" fill="#455a64"/>
            </g>
          </g>
          <g id="Grupo_20968" data-name="Grupo 20968">
            <g id="Grupo_20967" data-name="Grupo 20967">
              <path id="Trazado_19373" data-name="Trazado 19373" d="M248.42,207.871a3.112,3.112,0,1,0,4.251-1.139A3.112,3.112,0,0,0,248.42,207.871Z" fill="#455a64"/>
            </g>
          </g>
        </g>
        <g id="Grupo_20972" data-name="Grupo 20972">
          <g id="Grupo_20971" data-name="Grupo 20971">
            <g id="Grupo_20970" data-name="Grupo 20970">
              <path id="Trazado_19374" data-name="Trazado 19374" d="M263.762,173.076a3.486,3.486,0,0,0-.629-.01l-1.85.052c-.406.019-.863.018-1.363.06l-1.631.229-1.9.274-2.127.527a34.47,34.47,0,0,0-10.309,4.5,36.385,36.385,0,0,0-16.711,27.345,37.694,37.694,0,0,0-.1,4.985c.059.843.042,1.7.165,2.55l.387,2.568a36.533,36.533,0,0,0,3.464,10.144,39.077,39.077,0,0,0,6.626,9.118,38.314,38.314,0,0,0,9.546,6.858,34.682,34.682,0,0,0,11.637,3.571,23.056,23.056,0,0,0,3.1.264,27.8,27.8,0,0,0,3.137.057,37.27,37.27,0,0,0,6.285-.793A36.729,36.729,0,0,0,284,240.1l-.379.038,12.743,5.115.754.3-.215-.784q-1.929-7.014-3.746-13.623l-.064.336a36.558,36.558,0,0,0,6.8-15.567,33.074,33.074,0,0,0,.495-7.976,25.548,25.548,0,0,0-.361-3.83q-.145-.939-.29-1.864c-.114-.613-.3-1.207-.445-1.805a36.443,36.443,0,0,0-14.218-20.726,34.849,34.849,0,0,0-8.461-4.464l-1.906-.682-1.809-.459-1.655-.411c-.531-.1-1.044-.156-1.524-.23-.963-.122-1.81-.289-2.551-.325l-1.873-.063-1.144-.026a1.7,1.7,0,0,0-.387.014,1.775,1.775,0,0,0,.387.053l1.138.09,1.861.126c.736.057,1.574.243,2.528.384a36.24,36.24,0,0,1,28.976,26.88c.139.588.32,1.171.429,1.773q.137.91.275,1.832a25.05,25.05,0,0,1,.337,3.761,32.508,32.508,0,0,1-.516,7.819,35.9,35.9,0,0,1-6.707,15.228l-.115.153.05.184q1.8,6.6,3.718,13.631l.54-.48-12.738-5.129-.2-.081-.181.119a35.977,35.977,0,0,1-12.231,5.142,36.516,36.516,0,0,1-6.143.777,27.268,27.268,0,0,1-3.067-.055,22.536,22.536,0,0,1-3.035-.256,33.969,33.969,0,0,1-11.38-3.48,37.612,37.612,0,0,1-9.351-6.693,38.42,38.42,0,0,1-6.508-8.909,35.967,35.967,0,0,1-3.426-9.927q-.2-1.266-.388-2.515c-.125-.833-.11-1.674-.172-2.5a35.447,35.447,0,0,1,5.929-21.591,36.759,36.759,0,0,1,10.427-10.32,34.675,34.675,0,0,1,10.142-4.573l2.1-.559,1.884-.309,1.616-.267c.5-.055.949-.068,1.353-.1l1.839-.134A3.529,3.529,0,0,0,263.762,173.076Z" fill="#455a64"/>
            </g>
          </g>
        </g>
      </g>
    </g>
  </g>
</svg>
