<svg xmlns="http://www.w3.org/2000/svg" width="108.795" height="103.234" viewBox="0 0 108.795 103.234">
  <g id="Grupo_24033" data-name="Grupo 24033" transform="translate(-710 -2786.384)">
    <g id="Grupo_20992" data-name="Grupo 20992" transform="translate(362.582 464)">
      <path id="Trazado_12403" data-name="Trazado 12403" d="M-1875.37,363.37h71.6l37.192,50.053-37.192,53.181h-71.6Z" transform="translate(2222.788 1959.013)" fill="#97181a"/>
    </g>
    <path id="Trazado_49021" data-name="Trazado 49021" d="M38.794,76h-10.8V71.181h-.137a12.11,12.11,0,0,1-10.835,5.674A13.27,13.27,0,0,1,6.46,72.223q-4-4.631-4-12.937,0-8.682,4.409-13.911a14.382,14.382,0,0,1,11.553-5.229q6.768,0,9.434,4.854h.137V24.184h10.8ZM28.2,58.979V56.347a8.282,8.282,0,0,0-1.982-5.674,6.547,6.547,0,0,0-5.161-2.256,6.506,6.506,0,0,0-5.605,2.82,13.1,13.1,0,0,0-2.017,7.742q0,4.614,1.948,7.109a6.469,6.469,0,0,0,5.4,2.5,6.5,6.5,0,0,0,5.349-2.632A10.97,10.97,0,0,0,28.2,58.979Z" transform="translate(733 2790)" fill="#fff"/>
  </g>
</svg>
