<svg xmlns="http://www.w3.org/2000/svg" width="964" height="571.783" viewBox="0 0 964 571.783">
  <g id="Grupo_21010" data-name="Grupo 21010" transform="translate(-228.5 -6251.217)">
    <g id="Grupo_12823" data-name="Grupo 12823" transform="translate(-35 -17)">
      <rect id="Rectángulo_3055" data-name="Rectángulo 3055" width="380" height="75" transform="translate(297 6410)" fill="#eef0f2"/>
    </g>
    <g id="Grupo_12822" data-name="Grupo 12822" transform="translate(41 14)">
      <rect id="Rectángulo_3043" data-name="Rectángulo 3043" width="305" height="92" transform="translate(534 6237.217)" fill="#97181a"/>
      <path id="Trazado_49743" data-name="Trazado 49743" d="M50.271,17H47.635V4.2h2.637Zm4.614-9.51.079,1.1A3.32,3.32,0,0,1,57.7,7.314a2.759,2.759,0,0,1,2.25.888,4.142,4.142,0,0,1,.756,2.654V17h-2.54V10.918a1.648,1.648,0,0,0-.352-1.173,1.574,1.574,0,0,0-1.169-.365,1.747,1.747,0,0,0-1.608.914V17H52.5V7.49ZM63.323,17V9.354H61.908V7.49h1.415V6.682A3.283,3.283,0,0,1,64.242,4.2a3.557,3.557,0,0,1,2.571-.883,5.938,5.938,0,0,1,1.292.176L68.078,5.46a3.238,3.238,0,0,0-.773-.079q-1.433,0-1.433,1.345V7.49h1.89V9.354h-1.89V17Zm5.361-4.843a5.64,5.64,0,0,1,.545-2.522A3.989,3.989,0,0,1,70.8,7.921a4.577,4.577,0,0,1,2.377-.606,4.33,4.33,0,0,1,3.142,1.178,4.727,4.727,0,0,1,1.358,3.2l.018.65a4.97,4.97,0,0,1-1.222,3.511,4.735,4.735,0,0,1-6.561,0,5.058,5.058,0,0,1-1.226-3.586Zm2.54.18a3.555,3.555,0,0,0,.51,2.073,1.831,1.831,0,0,0,2.9.009,3.89,3.89,0,0,0,.519-2.267,3.519,3.519,0,0,0-.519-2.06,1.686,1.686,0,0,0-1.459-.731,1.658,1.658,0,0,0-1.441.726A3.955,3.955,0,0,0,71.225,12.338ZM84.6,9.872a6.9,6.9,0,0,0-.914-.07,1.86,1.86,0,0,0-1.89.976V17h-2.54V7.49h2.4l.07,1.134a2.354,2.354,0,0,1,2.118-1.31,2.662,2.662,0,0,1,.791.114Zm3.6-2.382.079,1.063a3.342,3.342,0,0,1,2.733-1.239,2.536,2.536,0,0,1,2.522,1.45A3.265,3.265,0,0,1,96.4,7.314a2.836,2.836,0,0,1,2.3.9,4.141,4.141,0,0,1,.756,2.711V17H96.906V10.936a1.811,1.811,0,0,0-.316-1.182,1.4,1.4,0,0,0-1.116-.374,1.585,1.585,0,0,0-1.582,1.09L93.9,17H91.36V10.944a1.789,1.789,0,0,0-.325-1.2,1.416,1.416,0,0,0-1.107-.369,1.646,1.646,0,0,0-1.564.9V17h-2.54V7.49ZM106.917,17a2.821,2.821,0,0,1-.255-.853,3.073,3.073,0,0,1-2.4,1.028,3.376,3.376,0,0,1-2.316-.809,2.6,2.6,0,0,1-.918-2.039,2.687,2.687,0,0,1,1.121-2.32,5.529,5.529,0,0,1,3.239-.817h1.169v-.545a1.567,1.567,0,0,0-.338-1.055,1.331,1.331,0,0,0-1.068-.4,1.513,1.513,0,0,0-1.006.308,1.045,1.045,0,0,0-.365.844h-2.54a2.551,2.551,0,0,1,.51-1.529,3.37,3.37,0,0,1,1.441-1.1,5.253,5.253,0,0,1,2.092-.4,4.15,4.15,0,0,1,2.791.883,3.09,3.09,0,0,1,1.033,2.483V14.8a4.546,4.546,0,0,0,.378,2.048V17Zm-2.1-1.767a2.188,2.188,0,0,0,1.037-.25,1.645,1.645,0,0,0,.7-.672V12.676h-.949q-1.907,0-2.03,1.318l-.009.149a1.017,1.017,0,0,0,.334.782A1.3,1.3,0,0,0,104.816,15.233Zm10.2-.105a1.666,1.666,0,0,0,1.143-.387,1.355,1.355,0,0,0,.457-1.028h2.382a3.258,3.258,0,0,1-.527,1.771,3.48,3.48,0,0,1-1.419,1.248,4.442,4.442,0,0,1-1.991.444,4.129,4.129,0,0,1-3.217-1.3,5.13,5.13,0,0,1-1.178-3.582v-.167a5.071,5.071,0,0,1,1.169-3.507,4.08,4.08,0,0,1,3.208-1.31A4,4,0,0,1,117.9,8.33a3.594,3.594,0,0,1,1.094,2.7h-2.382a1.745,1.745,0,0,0-.457-1.206,1.7,1.7,0,0,0-2.5.183,3.749,3.749,0,0,0-.453,2.1v.264a3.8,3.8,0,0,0,.448,2.113A1.549,1.549,0,0,0,115.012,15.128ZM123.124,17h-2.549V7.49h2.549Zm-2.7-11.971a1.251,1.251,0,0,1,.382-.94,1.648,1.648,0,0,1,2.079,0,1.244,1.244,0,0,1,.387.94,1.247,1.247,0,0,1-.391.949,1.629,1.629,0,0,1-2.065,0A1.247,1.247,0,0,1,120.426,5.029Zm4.395,7.128a5.64,5.64,0,0,1,.545-2.522,3.989,3.989,0,0,1,1.569-1.714,4.577,4.577,0,0,1,2.377-.606,4.33,4.33,0,0,1,3.142,1.178,4.727,4.727,0,0,1,1.358,3.2l.018.65a4.97,4.97,0,0,1-1.222,3.511,4.735,4.735,0,0,1-6.561,0,5.058,5.058,0,0,1-1.226-3.586Zm2.54.18a3.555,3.555,0,0,0,.51,2.073,1.831,1.831,0,0,0,2.9.009,3.89,3.89,0,0,0,.519-2.267,3.519,3.519,0,0,0-.519-2.06,1.686,1.686,0,0,0-1.459-.731,1.658,1.658,0,0,0-1.441.726A3.955,3.955,0,0,0,127.36,12.338ZM129.813,3.5h2.769l-2.435,2.725h-2.065Zm7.919,3.99.079,1.1a3.32,3.32,0,0,1,2.733-1.274,2.759,2.759,0,0,1,2.25.888,4.142,4.142,0,0,1,.756,2.654V17h-2.54V10.918a1.648,1.648,0,0,0-.352-1.173,1.574,1.574,0,0,0-1.169-.365,1.747,1.747,0,0,0-1.608.914V17h-2.54V7.49Zm20.786,4.843a5.7,5.7,0,0,1-1,3.52,3.2,3.2,0,0,1-2.694,1.323,2.963,2.963,0,0,1-2.329-1v4.482h-2.54V7.49h2.355l.088.932a2.985,2.985,0,0,1,2.408-1.107,3.22,3.22,0,0,1,2.733,1.3,5.858,5.858,0,0,1,.976,3.586Zm-2.54-.185a3.743,3.743,0,0,0-.47-2.048,1.532,1.532,0,0,0-1.367-.721,1.663,1.663,0,0,0-1.644.914v3.894a1.692,1.692,0,0,0,1.661.94Q155.978,15.128,155.978,12.148Zm9.457-2.276a6.9,6.9,0,0,0-.914-.07,1.86,1.86,0,0,0-1.89.976V17h-2.54V7.49h2.4l.07,1.134a2.354,2.354,0,0,1,2.118-1.31,2.662,2.662,0,0,1,.791.114Zm3.9,7.128h-2.549V7.49h2.549Zm-2.7-11.971a1.251,1.251,0,0,1,.382-.94,1.648,1.648,0,0,1,2.079,0,1.244,1.244,0,0,1,.387.94,1.247,1.247,0,0,1-.391.949,1.629,1.629,0,0,1-2.065,0A1.247,1.247,0,0,1,166.639,5.029Zm7.172,2.461.079,1.063a3.342,3.342,0,0,1,2.733-1.239,2.536,2.536,0,0,1,2.522,1.45A3.265,3.265,0,0,1,182,7.314a2.836,2.836,0,0,1,2.3.9,4.141,4.141,0,0,1,.756,2.711V17h-2.549V10.936a1.811,1.811,0,0,0-.316-1.182,1.4,1.4,0,0,0-1.116-.374,1.585,1.585,0,0,0-1.582,1.09l.009,6.53h-2.54V10.944a1.789,1.789,0,0,0-.325-1.2,1.416,1.416,0,0,0-1.107-.369,1.646,1.646,0,0,0-1.564.9V17h-2.54V7.49ZM192.522,17a2.821,2.821,0,0,1-.255-.853,3.073,3.073,0,0,1-2.4,1.028,3.376,3.376,0,0,1-2.316-.809,2.6,2.6,0,0,1-.918-2.039,2.687,2.687,0,0,1,1.121-2.32,5.529,5.529,0,0,1,3.239-.817h1.169v-.545a1.567,1.567,0,0,0-.338-1.055,1.331,1.331,0,0,0-1.068-.4,1.513,1.513,0,0,0-1.006.308,1.045,1.045,0,0,0-.365.844h-2.54a2.551,2.551,0,0,1,.51-1.529,3.37,3.37,0,0,1,1.441-1.1,5.253,5.253,0,0,1,2.092-.4,4.15,4.15,0,0,1,2.791.883,3.09,3.09,0,0,1,1.033,2.483V14.8a4.546,4.546,0,0,0,.378,2.048V17Zm-2.1-1.767a2.188,2.188,0,0,0,1.037-.25,1.645,1.645,0,0,0,.7-.672V12.676h-.949q-1.907,0-2.03,1.318l-.009.149a1.017,1.017,0,0,0,.334.782A1.3,1.3,0,0,0,190.422,15.233Zm11.584-5.361a6.9,6.9,0,0,0-.914-.07,1.86,1.86,0,0,0-1.89.976V17h-2.54V7.49h2.4l.07,1.134a2.354,2.354,0,0,1,2.118-1.31,2.662,2.662,0,0,1,.791.114Zm3.9,7.128h-2.549V7.49h2.549Zm-2.7-11.971a1.251,1.251,0,0,1,.382-.94,1.648,1.648,0,0,1,2.079,0,1.244,1.244,0,0,1,.387.94,1.247,1.247,0,0,1-.391.949,1.629,1.629,0,0,1-2.065,0A1.247,1.247,0,0,1,203.21,5.029ZM213.511,17a2.821,2.821,0,0,1-.255-.853,3.073,3.073,0,0,1-2.4,1.028,3.376,3.376,0,0,1-2.316-.809,2.6,2.6,0,0,1-.918-2.039,2.687,2.687,0,0,1,1.121-2.32,5.529,5.529,0,0,1,3.239-.817h1.169v-.545a1.567,1.567,0,0,0-.338-1.055,1.331,1.331,0,0,0-1.068-.4,1.513,1.513,0,0,0-1.006.308,1.045,1.045,0,0,0-.365.844h-2.54a2.551,2.551,0,0,1,.51-1.529,3.37,3.37,0,0,1,1.441-1.1,5.253,5.253,0,0,1,2.092-.4,4.15,4.15,0,0,1,2.791.883,3.09,3.09,0,0,1,1.033,2.483V14.8a4.546,4.546,0,0,0,.378,2.048V17Zm-2.1-1.767a2.188,2.188,0,0,0,1.037-.25,1.645,1.645,0,0,0,.7-.672V12.676H212.2q-1.907,0-2.03,1.318l-.009.149a1.017,1.017,0,0,0,.334.782A1.3,1.3,0,0,0,211.41,15.233Z" transform="translate(555 6272.217)" fill="#fff"/>
    </g>
    <line id="Línea_169" data-name="Línea 169" x2="25" transform="translate(724.5 6343) rotate(90)" fill="none" stroke="#ff8f00" stroke-width="3"/>
    <g id="Grupo_20989" data-name="Grupo 20989" transform="translate(515 -17)">
      <rect id="Rectángulo_3055-2" data-name="Rectángulo 3055" width="380" height="75" transform="translate(297 6410)" fill="#eef0f2"/>
    </g>
    <rect id="Rectángulo_3052" data-name="Rectángulo 3052" width="336" height="66" transform="translate(856.5 6510)" fill="#eef0f2"/>
    <rect id="Rectángulo_3051" data-name="Rectángulo 3051" width="286" height="66" transform="translate(906.5 6593)" fill="#eef0f2"/>
    <text id="Investigación_cuantitativa" data-name="Investigación cuantitativa" transform="translate(832 6418)" fill="#00223d" font-size="18" font-family="Roboto-Bold, Roboto" font-weight="700"><tspan x="74.889" y="17">Investigación cuantitativa</tspan></text>
    <text id="Investigación_cuantitativa-2" data-name="Investigación cuantitativa" transform="translate(264 6418)" fill="#00223d" font-size="18" font-family="Roboto-Bold, Roboto" font-weight="700"><tspan x="74.889" y="17">Investigación cuantitativa</tspan></text>
    <g id="Grupo_12815" data-name="Grupo 12815" transform="translate(576.5 1013)">
      <line id="Línea_142" data-name="Línea 142" y2="75.217" transform="translate(255.5 5455.5)" fill="none" stroke="#ff8f00" stroke-width="3"/>
      <line id="Línea_143" data-name="Línea 143" x2="25" transform="translate(255.5 5530.5)" fill="none" stroke="#ff8f00" stroke-width="3"/>
      <line id="Línea_206" data-name="Línea 206" y2="212" transform="translate(305.5 5563.217)" fill="none" stroke="#ff8f00" stroke-width="3"/>
      <line id="Línea_207" data-name="Línea 207" x2="25" transform="translate(305.5 5614.5)" fill="none" stroke="#ff8f00" stroke-width="3"/>
      <line id="Línea_208" data-name="Línea 208" x2="25" transform="translate(305.5 5696.5)" fill="none" stroke="#ff8f00" stroke-width="3"/>
      <line id="Línea_209" data-name="Línea 209" x2="25" transform="translate(305.5 5775.5)" fill="none" stroke="#ff8f00" stroke-width="3"/>
    </g>
    <g id="Grupo_12821" data-name="Grupo 12821" transform="translate(88.5 15)">
      <line id="Línea_142-2" data-name="Línea 142" x1="570" transform="translate(363.5 6353.5)" fill="none" stroke="#ff8f00" stroke-width="3"/>
      <line id="Línea_143-2" data-name="Línea 143" x2="25" transform="translate(933 6353) rotate(90)" fill="none" stroke="#ff8f00" stroke-width="3"/>
      <line id="Línea_151" data-name="Línea 151" x2="25" transform="translate(364 6353) rotate(90)" fill="none" stroke="#ff8f00" stroke-width="3"/>
    </g>
    <text id="Encuesta" transform="translate(907 6532)" fill="#00223d" font-size="18" font-family="Roboto-Regular, Roboto"><tspan x="-36.998" y="17">Encuesta</tspan></text>
    <text id="Personal" transform="translate(938 6615)" fill="#00223d" font-size="18" font-family="Roboto-Regular, Roboto"><tspan x="-35.253" y="17">Personal</tspan></text>
    <rect id="Rectángulo_3475" data-name="Rectángulo 3475" width="286" height="66" transform="translate(906.5 6675)" fill="#eef0f2"/>
    <text id="Telefónica" transform="translate(938 6697)" fill="#00223d" font-size="18" font-family="Roboto-Regular, Roboto"><tspan x="-41.669" y="17">Telefónica</tspan></text>
    <rect id="Rectángulo_3480" data-name="Rectángulo 3480" width="286" height="66" transform="translate(906.5 6757)" fill="#eef0f2"/>
    <text id="Web" transform="translate(938 6779)" fill="#00223d" font-size="18" font-family="Roboto-Regular, Roboto"><tspan x="-17.666" y="17">Web</tspan></text>
    <line id="Línea_210" data-name="Línea 210" x2="25" transform="translate(452 6468) rotate(90)" fill="none" stroke="#ff8f00" stroke-width="3"/>
    <g id="Grupo_21011" data-name="Grupo 21011" transform="translate(337 6494)">
      <line id="Línea_142-3" data-name="Línea 142" x1="390" transform="translate(0 0.5)" fill="none" stroke="#ff8f00" stroke-width="3"/>
      <line id="Línea_143-3" data-name="Línea 143" x2="25" transform="translate(389.5) rotate(90)" fill="none" stroke="#ff8f00" stroke-width="3"/>
      <line id="Línea_151-2" data-name="Línea 151" x2="25" transform="translate(0.5) rotate(90)" fill="none" stroke="#ff8f00" stroke-width="3"/>
      <line id="Línea_211" data-name="Línea 211" x2="25" transform="translate(199.5) rotate(90)" fill="none" stroke="#ff8f00" stroke-width="3"/>
      <line id="Línea_212" data-name="Línea 212" x2="25" transform="translate(389.5 81) rotate(90)" fill="none" stroke="#ff8f00" stroke-width="3"/>
      <line id="Línea_213" data-name="Línea 213" x2="25" transform="translate(0.5 81) rotate(90)" fill="none" stroke="#ff8f00" stroke-width="3"/>
      <line id="Línea_214" data-name="Línea 214" x2="25" transform="translate(199.5 81) rotate(90)" fill="none" stroke="#ff8f00" stroke-width="3"/>
    </g>
    <rect id="Rectángulo_3482" data-name="Rectángulo 3482" width="171" height="66" transform="translate(261 6510)" fill="#eef0f2"/>
    <text id="Entrevista" transform="translate(228.5 6532)" fill="#00223d" font-size="18" font-family="Roboto-Regular, Roboto"><tspan x="-39.713" y="17">Entrevista</tspan></text>
    <rect id="Rectángulo_3484" data-name="Rectángulo 3484" width="171" height="66" transform="translate(452 6510)" fill="#eef0f2"/>
    <text id="Observación" transform="translate(419.5 6532)" fill="#00223d" font-size="18" font-family="Roboto-Regular, Roboto"><tspan x="-49.953" y="17">Observación</tspan></text>
    <rect id="Rectángulo_3485" data-name="Rectángulo 3485" width="171" height="66" transform="translate(641 6510)" fill="#eef0f2"/>
    <text id="Experimental" transform="translate(608.5 6532)" fill="#00223d" font-size="18" font-family="Roboto-Regular, Roboto"><tspan x="-52.264" y="17">Experimental</tspan></text>
    <rect id="Rectángulo_3486" data-name="Rectángulo 3486" width="171" height="66" transform="translate(261 6600)" fill="#eef0f2"/>
    <text id="Personal-2" data-name="Personal" transform="translate(228.5 6622)" fill="#00223d" font-size="18" font-family="Roboto-Regular, Roboto"><tspan x="-35.253" y="17">Personal</tspan></text>
    <rect id="Rectángulo_3487" data-name="Rectángulo 3487" width="171" height="66" transform="translate(452 6600)" fill="#eef0f2"/>
    <text id="Directa" transform="translate(419.5 6622)" fill="#00223d" font-size="18" font-family="Roboto-Regular, Roboto"><tspan x="-28.362" y="17">Directa</tspan></text>
    <rect id="Rectángulo_3488" data-name="Rectángulo 3488" width="171" height="66" transform="translate(641 6600)" fill="#eef0f2"/>
    <text id="Panel" transform="translate(608.5 6622)" fill="#00223d" font-size="18" font-family="Roboto-Regular, Roboto"><tspan x="-22.443" y="17">Panel</tspan></text>
  </g>
</svg>
