<svg xmlns="http://www.w3.org/2000/svg" width="121" height="121" viewBox="0 0 121 121">
  <g id="Grupo_24015" data-name="Grupo 24015" transform="translate(-282.5 -2195)">
    <circle id="Elipse_839" data-name="Elipse 839" cx="60.5" cy="60.5" r="60.5" transform="translate(282.5 2195)" fill="#fe7c5f"/>
    <path id="Trazado_17262" data-name="Trazado 17262" d="M53.993,0A53.993,53.993,0,1,1,0,53.993,53.993,53.993,0,0,1,53.993,0Z" transform="translate(289.5 2202)" fill="#fff"/>
    <path id="Trazado_48979" data-name="Trazado 48979" d="M14.185,54.61q-12.5,0-12.5-17.554,0-9.106,3.381-13.879t9.8-4.773q12.207,0,12.207,17.847,0,8.887-3.333,13.623A10.978,10.978,0,0,1,14.185,54.61Zm.342-30.322q-5,0-5,12.573,0,11.841,4.907,11.841,4.785,0,4.785-12.207T14.526,24.288Zm17.09,28.564V46.139a13.551,13.551,0,0,0,8.2,2.563,7.385,7.385,0,0,0,4.6-1.27,4.215,4.215,0,0,0,1.648-3.54,4.024,4.024,0,0,0-2.039-3.613,10.561,10.561,0,0,0-5.6-1.27H35.181V33.1h3q6.836,0,6.836-4.541,0-4.272-5.249-4.272a11.967,11.967,0,0,0-6.836,2.271v-6.3A18.88,18.88,0,0,1,41.528,18.4q5.371,0,8.362,2.417A7.692,7.692,0,0,1,52.881,27.1q0,6.86-6.958,8.594v.122a9.459,9.459,0,0,1,5.859,2.7,7.607,7.607,0,0,1,2.148,5.481,9.393,9.393,0,0,1-3.589,7.764Q46.753,54.61,40.43,54.61A19.157,19.157,0,0,1,31.616,52.853Z" transform="translate(314 2222)" fill="#20287a"/>
  </g>
</svg>
