<svg xmlns="http://www.w3.org/2000/svg" width="111.882" height="158.406" viewBox="0 0 111.882 158.406">
  <path id="Trazado_19379" data-name="Trazado 19379" d="M96.1,200.9c-19.427,0-35.031-4.579-43.163-8.877a2.7,2.7,0,0,1-1.371-3l6.253-26.392a2.708,2.708,0,0,1,1.469-1.814,2.678,2.678,0,0,1,2.333,0c7.127,3.445,20.442,7.138,32.85,7.138,13.639,0,27.4-6.242,27.4-20.215,0-15-12.969-22.3-39.664-22.3A128.86,128.86,0,0,0,62.236,126.8a2.69,2.69,0,0,1-3.078-3l9.956-78.939a2.7,2.7,0,0,1,2.678-2.365h82.87a2.7,2.7,0,0,1,2.7,2.7V74.13a2.7,2.7,0,0,1-2.7,2.7H98.671l-2.43,17.418c2.084-.13,4.168-.13,6.566-.13,16.306,0,30.928,4.039,41.165,11.382,12.667,8.531,19.405,22.353,19.405,39.923a50.736,50.736,0,0,1-7.246,26.122,2.7,2.7,0,0,1-4.633-2.786,45.249,45.249,0,0,0,6.479-23.336c0-15.691-5.907-27.958-17.094-35.5C131.5,103.2,118,99.518,102.807,99.518a63.463,63.463,0,0,0-9.341.432A2.705,2.705,0,0,1,90.41,96.9l3.25-23.152a2.69,2.69,0,0,1,2.667-2.322h55.635V47.889H74.169l-9.211,73.1a136.234,136.234,0,0,1,17.246-.95c29.9,0,45.063,9.319,45.063,27.7,0,17.6-17,25.625-32.8,25.625a90.339,90.339,0,0,1-32.137-6.339l-5.011,21.144c7.959,3.7,21.749,7.332,38.778,7.332a2.7,2.7,0,0,1,0,5.4Z" transform="translate(-51.495 -42.49)" fill="#c74653"/>
</svg>
