<svg xmlns="http://www.w3.org/2000/svg" width="588.747" height="423.478" viewBox="0 0 588.747 423.478">
  <g id="Grupo_22347" data-name="Grupo 22347" transform="translate(-92.904 -41.605)">
    <g id="Background_Complete" data-name="Background Complete">
      <g id="Grupo_22213" data-name="Grupo 22213">
        <path id="Trazado_19958" data-name="Trazado 19958" d="M474.951,200.836v44.1A14.384,14.384,0,0,0,489.4,259.072H647.519a14.447,14.447,0,0,0,14.447-14.447V207.364l19.685-20.683-192.209-.6A14.515,14.515,0,0,0,474.951,200.836Z" fill="#f5f5f5"/>
        <g id="Grupo_22210" data-name="Grupo 22210">
          <path id="Trazado_19959" data-name="Trazado 19959" d="M638.657,212.8l-143.485-.663.015-4.41,143.484.663Z" fill="#e0e0e0"/>
        </g>
        <g id="Grupo_22211" data-name="Grupo 22211">
          <path id="Trazado_19960" data-name="Trazado 19960" d="M638.657,227.306l-143.485-.663.015-4.41,143.484.663Z" fill="#e0e0e0"/>
        </g>
        <g id="Grupo_22212" data-name="Grupo 22212">
          <rect id="Rectángulo_3571" data-name="Rectángulo 3571" width="4.41" height="56.773" transform="matrix(0.005, -1, 1, 0.005, 581.883, 241.169)" fill="#e0e0e0"/>
        </g>
      </g>
      <g id="Grupo_22237" data-name="Grupo 22237">
        <g id="Grupo_22216" data-name="Grupo 22216">
          <g id="Grupo_22215" data-name="Grupo 22215">
            <g id="Grupo_22214" data-name="Grupo 22214">
              <path id="Trazado_19961" data-name="Trazado 19961" d="M205.466,425.606c22.11-15.447,27.127-44.12,26.252-69.894-.146-4.3.327-8.838-1.719-12.613s-6.823-6.354-10.675-4.541c-3.2,1.5-4.587,5.22-6.375,8.294a25.169,25.169,0,0,1-10.09,9.637c-2.739,1.422-6.129,2.291-8.834.8-3.71-2.048-4.148-7.175-4.121-11.455q.075-11.963.149-23.924c.027-4.279.039-8.648-1.291-12.709s-4.272-7.834-8.342-8.974-9.1,1.207-9.964,5.4c-.358,1.743,0,3.552-.122,5.328s-.946,3.742-2.633,4.236c-1.708.5-3.42-.711-4.7-1.963-4.417-4.321-7.414-9.886-10.215-15.421s-5.519-11.2-9.527-15.914-9.55-8.447-15.678-8.794-12.658,3.436-14.206,9.452c-1.553,6.032,1.966,12.153,5.8,17.036a95.5,95.5,0,0,0,19.887,18.956c1.349.958,2.811,1.992,3.326,3.577.93,2.853-1.773,5.686-4.59,6.624-3.189,1.062-6.65.731-9.986,1.124s-6.951,1.864-8.214,5.017c-1.752,4.374,1.906,8.958,5.5,11.961a81.811,81.811,0,0,0,24.215,13.978c3.148,1.152,6.46,2.162,9,4.374s4.07,6.057,2.537,9.071-5.471,3.982-8.768,3.37-6.248-2.4-9.39-3.587c-5.88-2.219-13.474-1.814-17.241,3.268-2.475,3.341-2.693,7.992-1.441,11.974s3.79,7.412,6.487,10.576c9.424,11.057,21.49,19.959,35.132,24.689s26.279,6.01,39.836,1.052" fill="#f5f5f5"/>
            </g>
          </g>
        </g>
        <g id="Grupo_22220" data-name="Grupo 22220">
          <g id="Grupo_22219" data-name="Grupo 22219">
            <g id="Grupo_22218" data-name="Grupo 22218">
              <g id="Grupo_22217" data-name="Grupo 22217">
                <path id="Trazado_19962" data-name="Trazado 19962" d="M205.8,444.715a187.921,187.921,0,0,0-6.991-35.266,383.442,383.442,0,0,0-15.22-41.281q-2.3-5.375-4.545-10.615c-1.5-3.481-2.987-6.933-4.651-10.219A191.412,191.412,0,0,0,163.758,329c-3.666-5.669-7.352-10.914-10.834-15.794s-6.836-9.356-10.056-13.311a152.009,152.009,0,0,0-16.57-17.514c-2.111-1.908-3.8-3.333-4.953-4.284l-1.32-1.074a3.382,3.382,0,0,0-.467-.344,2.893,2.893,0,0,0,.415.407l1.27,1.133c1.121.99,2.773,2.452,4.85,4.392a160.526,160.526,0,0,1,16.344,17.64c3.184,3.966,6.492,8.457,9.957,13.341s7.118,10.145,10.759,15.81a193.731,193.731,0,0,1,10.557,18.287c1.649,3.271,3.119,6.694,4.62,10.184l4.54,10.611a392.892,392.892,0,0,1,15.249,41.177,191.141,191.141,0,0,1,7.132,35.111" fill="#e0e0e0"/>
              </g>
            </g>
          </g>
        </g>
        <g id="Grupo_22224" data-name="Grupo 22224">
          <g id="Grupo_22223" data-name="Grupo 22223">
            <g id="Grupo_22222" data-name="Grupo 22222">
              <g id="Grupo_22221" data-name="Grupo 22221">
                <path id="Trazado_19963" data-name="Trazado 19963" d="M174.172,347.3a8.625,8.625,0,0,0,.418-1.825c.225-1.183.494-2.9.794-5.035.6-4.26,1.24-10.172,1.915-16.693s1.392-12.41,2.06-16.649c.329-2.121.611-3.835.822-5.017a8.585,8.585,0,0,0,.239-1.857,8.5,8.5,0,0,0-.538,1.793c-.3,1.165-.671,2.869-1.069,4.984-.812,4.231-1.62,10.131-2.295,16.661-.65,6.437-1.237,12.259-1.686,16.708-.215,2.009-.4,3.7-.545,5.06A8.637,8.637,0,0,0,174.172,347.3Z" fill="#e0e0e0"/>
              </g>
            </g>
          </g>
        </g>
        <g id="Grupo_22228" data-name="Grupo 22228">
          <g id="Grupo_22227" data-name="Grupo 22227">
            <g id="Grupo_22226" data-name="Grupo 22226">
              <g id="Grupo_22225" data-name="Grupo 22225">
                <path id="Trazado_19964" data-name="Trazado 19964" d="M119.158,337.022a11.963,11.963,0,0,0,2.194.262c1.412.126,3.456.3,5.973.589,5.039.544,11.973,1.539,19.575,2.971s14.426,3.049,19.328,4.35c2.457.633,4.43,1.2,5.8,1.582a11.758,11.758,0,0,0,2.147.527,11.742,11.742,0,0,0-2.056-.823c-1.342-.474-3.3-1.124-5.742-1.83-4.878-1.444-11.706-3.137-19.33-4.59a194.241,194.241,0,0,0-19.666-2.748c-2.533-.22-4.589-.307-6.01-.336A11.572,11.572,0,0,0,119.158,337.022Z" fill="#e0e0e0"/>
              </g>
            </g>
          </g>
        </g>
        <g id="Grupo_22232" data-name="Grupo 22232">
          <g id="Grupo_22231" data-name="Grupo 22231">
            <g id="Grupo_22230" data-name="Grupo 22230">
              <g id="Grupo_22229" data-name="Grupo 22229">
                <path id="Trazado_19965" data-name="Trazado 19965" d="M198.136,408.437a2.843,2.843,0,0,0,.378-.671l.94-1.991c.81-1.731,1.915-4.268,3.24-7.42,2.654-6.3,6.047-15.123,9.658-24.907s6.92-18.629,9.439-24.978c1.234-3.086,2.251-5.624,3.005-7.511.323-.819.589-1.494.807-2.049a2.833,2.833,0,0,0,.232-.737,2.921,2.921,0,0,0-.378.673l-.94,1.989c-.81,1.731-1.915,4.268-3.24,7.42-2.655,6.3-6.047,15.123-9.66,24.912s-6.919,18.624-9.437,24.974c-1.236,3.085-2.251,5.625-3,7.51-.323.819-.589,1.5-.807,2.049A2.882,2.882,0,0,0,198.136,408.437Z" fill="#e0e0e0"/>
              </g>
            </g>
          </g>
        </g>
        <g id="Grupo_22236" data-name="Grupo 22236">
          <g id="Grupo_22235" data-name="Grupo 22235">
            <g id="Grupo_22234" data-name="Grupo 22234">
              <g id="Grupo_22233" data-name="Grupo 22233">
                <path id="Trazado_19966" data-name="Trazado 19966" d="M125.031,384.875a2.908,2.908,0,0,0,.726.3l2.123.712,7.828,2.537c6.61,2.144,15.705,5.209,25.751,8.61s19.18,6.387,25.837,8.394c3.327,1.005,6.028,1.791,7.9,2.295l2.165.569a2.908,2.908,0,0,0,.77.146,2.949,2.949,0,0,0-.725-.3l-2.123-.71-7.828-2.537c-6.61-2.142-15.706-5.209-25.754-8.611s-19.177-6.386-25.833-8.393c-3.328-1.005-6.028-1.791-7.907-2.3-.867-.228-1.582-.417-2.165-.569A2.888,2.888,0,0,0,125.031,384.875Z" fill="#e0e0e0"/>
              </g>
            </g>
          </g>
        </g>
      </g>
      <g id="Grupo_22241" data-name="Grupo 22241">
        <path id="Trazado_19967" data-name="Trazado 19967" d="M256.485,155.214v34.168a11.194,11.194,0,0,1-11.194,11.194H122.774a11.194,11.194,0,0,1-11.194-11.194v-28.87L96.327,144.486l148.929-.466A11.194,11.194,0,0,1,256.485,155.214Z" fill="#e0e0e0"/>
        <g id="Grupo_22238" data-name="Grupo 22238">
          <path id="Trazado_19968" data-name="Trazado 19968" d="M129.64,164.721l111.176-.514-.012-3.417-111.176.514Z" fill="#fafafa"/>
        </g>
        <g id="Grupo_22239" data-name="Grupo 22239">
          <path id="Trazado_19969" data-name="Trazado 19969" d="M129.64,175.963l111.176-.514-.012-3.417-111.176.514Z" fill="#fafafa"/>
        </g>
        <g id="Grupo_22240" data-name="Grupo 22240">
          <rect id="Rectángulo_3572" data-name="Rectángulo 3572" width="43.99" height="3.417" transform="translate(129.625 183.504) rotate(-0.282)" fill="#fafafa"/>
        </g>
      </g>
    </g>
    <g id="Floor">
      <g id="Grupo_22242" data-name="Grupo 22242">
        <path id="Trazado_19970" data-name="Trazado 19970" d="M669.182,464.822c0,.144-129.015.261-288.125.261-159.166,0-288.153-.117-288.153-.261s128.987-.26,288.153-.26C540.167,464.562,669.182,464.679,669.182,464.822Z" fill="#263238"/>
      </g>
    </g>
    <g id="Device">
      <g id="Grupo_22282" data-name="Grupo 22282">
        <g id="Grupo_22248" data-name="Grupo 22248">
          <g id="Grupo_22247" data-name="Grupo 22247">
            <g id="Grupo_22243" data-name="Grupo 22243">
              <path id="Rectángulo_3573" data-name="Rectángulo 3573" d="M11.55,0H246.555A11.549,11.549,0,0,1,258.1,11.549v347.3A11.549,11.549,0,0,1,246.555,370.4H11.549A11.549,11.549,0,0,1,0,358.853V11.55A11.55,11.55,0,0,1,11.55,0Z" transform="translate(196.449 464.822) rotate(-90)" fill="#263238"/>
            </g>
            <g id="Grupo_22244" data-name="Grupo 22244">
              <rect id="Rectángulo_3574" data-name="Rectángulo 3574" width="241.826" height="309.33" transform="translate(221.79 456.684) rotate(-90)" fill="#fff"/>
            </g>
            <g id="Grupo_22245" data-name="Grupo 22245">
              <circle id="Elipse_881" data-name="Elipse 881" cx="9.903" cy="9.903" r="9.903" transform="matrix(0.229, -0.973, 0.973, 0.229, 536.331, 343.145)" fill="#455a64"/>
            </g>
            <g id="Grupo_22246" data-name="Grupo 22246">
              <rect id="Rectángulo_3575" data-name="Rectángulo 3575" width="77.738" height="4.092" rx="1.215" transform="translate(207.116 374.639) rotate(-90)" fill="#455a64"/>
            </g>
          </g>
        </g>
        <g id="Grupo_22254" data-name="Grupo 22254">
          <circle id="Elipse_882" data-name="Elipse 882" cx="24.991" cy="24.991" r="24.991" transform="translate(254.044 350.173) rotate(-56.646)" fill="#e8505b"/>
          <circle id="Elipse_883" data-name="Elipse 883" cx="24.991" cy="24.991" r="24.991" transform="translate(254.044 350.173) rotate(-56.646)" fill="#fff" opacity="0.3"/>
          <g id="Grupo_22249" data-name="Grupo 22249">
            <path id="Trazado_19971" data-name="Trazado 19971" d="M280.037,336.742c.946-.078,1.806.966,1.919,2.334s-.564,2.538-1.511,2.616-1.807-.967-1.919-2.334S279.09,336.82,280.037,336.742Z" fill="#263238"/>
          </g>
          <g id="Grupo_22250" data-name="Grupo 22250">
            <path id="Trazado_19972" data-name="Trazado 19972" d="M295.925,336.415c-.95-.039-1.764,1.039-1.821,2.41s.668,2.513,1.617,2.552,1.765-1.041,1.822-2.411S296.874,336.453,295.925,336.415Z" fill="#263238"/>
          </g>
          <g id="Grupo_22251" data-name="Grupo 22251">
            <path id="Trazado_19973" data-name="Trazado 19973" d="M298.65,347.987c0,.3-4.658.534-10.4.534s-10.4-.239-10.4-.534,4.658-.533,10.4-.533S298.65,347.693,298.65,347.987Z" fill="#263238"/>
          </g>
          <g id="Grupo_22252" data-name="Grupo 22252">
            <path id="Trazado_19974" data-name="Trazado 19974" d="M281.947,333.871c-.061.3-1.246.286-2.636.513-1.394.208-2.519.58-2.668.316-.153-.241.892-1.122,2.5-1.369S282.019,333.6,281.947,333.871Z" fill="#263238"/>
          </g>
          <g id="Grupo_22253" data-name="Grupo 22253">
            <path id="Trazado_19975" data-name="Trazado 19975" d="M300.435,335.082c-.189.238-1.268-.327-2.656-.742-1.382-.435-2.592-.573-2.614-.876-.038-.282,1.324-.64,2.927-.143S300.625,334.87,300.435,335.082Z" fill="#263238"/>
          </g>
        </g>
        <g id="Grupo_22260" data-name="Grupo 22260">
          <circle id="Elipse_884" data-name="Elipse 884" cx="25.903" cy="25.903" r="25.903" transform="translate(439.916 362.472) rotate(-80.951)" fill="#e8505b"/>
          <circle id="Elipse_885" data-name="Elipse 885" cx="25.903" cy="25.903" r="25.903" transform="translate(439.916 362.472) rotate(-80.951)" opacity="0.3"/>
          <g id="Grupo_22255" data-name="Grupo 22255">
            <path id="Trazado_19976" data-name="Trazado 19976" d="M460.634,334.439c.981-.081,1.872,1,1.989,2.419s-.585,2.631-1.566,2.712-1.873-1-1.989-2.419S459.652,334.52,460.634,334.439Z" fill="#263238"/>
          </g>
          <g id="Grupo_22256" data-name="Grupo 22256">
            <path id="Trazado_19977" data-name="Trazado 19977" d="M477.1,334.1c-.984-.041-1.829,1.078-1.888,2.5s.693,2.605,1.677,2.646,1.83-1.079,1.888-2.5S478.086,334.139,477.1,334.1Z" fill="#263238"/>
          </g>
          <g id="Grupo_22257" data-name="Grupo 22257">
            <path id="Trazado_19978" data-name="Trazado 19978" d="M479.927,346.1c-.107.141-1.183-.622-3.034-1.573a16.793,16.793,0,0,0-7.711-1.9,19.2,19.2,0,0,0-7.732,2.007c-1.877.913-2.993,1.612-3.091,1.471-.072-.1.891-1.02,2.737-2.136a16.822,16.822,0,0,1,8.068-2.408,15.148,15.148,0,0,1,8.1,2.313C479.089,345.025,480,346.006,479.927,346.1Z" fill="#263238"/>
          </g>
          <g id="Grupo_22258" data-name="Grupo 22258">
            <path id="Trazado_19979" data-name="Trazado 19979" d="M462.614,331.463c.088.11-.082.434-.511.811a4.308,4.308,0,0,1-2.027.949,3.891,3.891,0,0,1-2.247-.249c-.529-.246-.772-.526-.713-.652.136-.282,1.354.124,2.774-.149C461.314,331.92,462.417,331.215,462.614,331.463Z" fill="#263238"/>
          </g>
          <g id="Grupo_22259" data-name="Grupo 22259">
            <path id="Trazado_19980" data-name="Trazado 19980" d="M481.777,332.719c.043.13-.241.383-.813.565a3.847,3.847,0,0,1-2.328-.085,4.529,4.529,0,0,1-1.9-1.273c-.38-.439-.518-.784-.417-.884.225-.233,1.267.659,2.67,1.15C480.378,332.7,481.676,332.419,481.777,332.719Z" fill="#263238"/>
          </g>
        </g>
        <g id="Grupo_22266" data-name="Grupo 22266">
          <g id="Grupo_22261" data-name="Grupo 22261">
            <path id="Trazado_19981" data-name="Trazado 19981" d="M419.932,412.864l6-2.975,5.852,3.257-.975-6.626,4.906-4.56-6.6-1.121-2.82-6.075-3.106,5.934-6.649.8,4.683,4.788Z" fill="#e0e0e0"/>
          </g>
          <g id="Grupo_22262" data-name="Grupo 22262">
            <path id="Trazado_19982" data-name="Trazado 19982" d="M395.452,412.864l6-2.975,5.853,3.257-.975-6.626,4.906-4.56-6.6-1.121-2.82-6.075-3.106,5.934-6.649.8,4.683,4.788Z" fill="#e8505b"/>
          </g>
          <g id="Grupo_22263" data-name="Grupo 22263">
            <path id="Trazado_19983" data-name="Trazado 19983" d="M370.971,412.864l6-2.975,5.852,3.257-.975-6.626,4.906-4.56-6.6-1.121-2.82-6.075-3.106,5.934-6.649.8,4.684,4.788Z" fill="#e8505b"/>
          </g>
          <g id="Grupo_22264" data-name="Grupo 22264">
            <path id="Trazado_19984" data-name="Trazado 19984" d="M346.491,412.864l6-2.975,5.852,3.257-.975-6.626,4.906-4.56-6.6-1.121-2.82-6.075-3.106,5.934-6.649.8,4.683,4.788Z" fill="#e8505b"/>
          </g>
          <g id="Grupo_22265" data-name="Grupo 22265">
            <path id="Trazado_19985" data-name="Trazado 19985" d="M322.011,412.864l6-2.975,5.853,3.257-.975-6.626,4.906-4.56-6.6-1.121-2.82-6.075-3.106,5.934-6.649.8,4.684,4.788Z" fill="#e8505b"/>
          </g>
        </g>
        <g id="Grupo_22267" data-name="Grupo 22267">
          <path id="Trazado_19986" data-name="Trazado 19986" d="M435.991,265.514c0,.147-26.856.266-59.978.266s-59.983-.119-59.983-.266,26.85-.267,59.983-.267S435.991,265.367,435.991,265.514Z" fill="#263238"/>
        </g>
        <g id="Grupo_22268" data-name="Grupo 22268">
          <path id="Trazado_19987" data-name="Trazado 19987" d="M406.5,258.309c0,.147-13.265.266-29.625.266s-29.627-.119-29.627-.266,13.262-.267,29.627-.267S406.5,258.162,406.5,258.309Z" fill="#263238"/>
        </g>
        <g id="Grupo_22279" data-name="Grupo 22279">
          <g id="Grupo_22277" data-name="Grupo 22277">
            <g id="Grupo_22274" data-name="Grupo 22274">
              <circle id="Elipse_886" data-name="Elipse 886" cx="34.122" cy="34.122" r="34.122" transform="matrix(0.307, -0.952, 0.952, 0.307, 338.189, 357.015)" fill="#e8505b"/>
              <g id="Grupo_22269" data-name="Grupo 22269">
                <path id="Trazado_19988" data-name="Trazado 19988" d="M369.358,326.4c1.293-.106,2.466,1.32,2.621,3.187s-.77,3.465-2.063,3.573-2.467-1.321-2.62-3.187S368.065,326.508,369.358,326.4Z" fill="#263238"/>
              </g>
              <g id="Grupo_22270" data-name="Grupo 22270">
                <path id="Trazado_19989" data-name="Trazado 19989" d="M391.052,325.955c-1.3-.053-2.409,1.42-2.486,3.292s.912,3.431,2.209,3.484,2.41-1.421,2.486-3.292S392.349,326.008,391.052,325.955Z" fill="#263238"/>
              </g>
              <g id="Grupo_22271" data-name="Grupo 22271">
                <path id="Trazado_19990" data-name="Trazado 19990" d="M394.773,337.154c.053.052-.224.4-.774,1a19.5,19.5,0,0,1-2.558,2.3,18.225,18.225,0,0,1-4.513,2.473,15.988,15.988,0,0,1-6.255.98,18.456,18.456,0,0,1-6.153-1.418,26.525,26.525,0,0,1-4.532-2.374c-2.416-1.618-3.7-2.875-3.626-2.965.108-.142,1.553.9,4.017,2.32a32.163,32.163,0,0,0,4.494,2.1,19.033,19.033,0,0,0,5.85,1.269,16.112,16.112,0,0,0,5.877-.841,20.089,20.089,0,0,0,4.41-2.165c1.163-.8,2.1-1.473,2.708-1.991C394.346,337.354,394.721,337.1,394.773,337.154Z" fill="#263238"/>
              </g>
              <g id="Grupo_22272" data-name="Grupo 22272">
                <path id="Trazado_19991" data-name="Trazado 19991" d="M370.9,318.726c-.059.3-1.692.192-3.63.508-1.943.291-3.464.892-3.612.623-.154-.236,1.288-1.346,3.448-1.676S370.975,318.453,370.9,318.726Z" fill="#263238"/>
              </g>
              <g id="Grupo_22273" data-name="Grupo 22273">
                <path id="Trazado_19992" data-name="Trazado 19992" d="M398.371,320.32c-.188.244-1.634-.619-3.568-1.2-1.928-.605-3.608-.7-3.628-1.009-.04-.279,1.792-.677,3.941-.01S398.561,320.113,398.371,320.32Z" fill="#263238"/>
              </g>
            </g>
            <g id="Grupo_22275" data-name="Grupo 22275">
              <path id="Trazado_19993" data-name="Trazado 19993" d="M366.918,334.7c.134-.024.35.329.385.974a4.017,4.017,0,0,1-2.723,3.836c-.621.18-1.025.092-1.046-.042-.05-.3,1.259-.735,2.158-2.053C366.64,336.131,366.623,334.75,366.918,334.7Z" fill="#263238"/>
            </g>
            <g id="Grupo_22276" data-name="Grupo 22276">
              <path id="Trazado_19994" data-name="Trazado 19994" d="M397.657,337.836c.026.135-.254.341-.788.387a3.09,3.09,0,0,1-3.087-2.291c-.11-.524.006-.852.142-.867.3-.024.636.985,1.638,1.7C396.53,337.512,397.594,337.544,397.657,337.836Z" fill="#263238"/>
            </g>
          </g>
          <g id="Grupo_22278" data-name="Grupo 22278">
            <path id="Trazado_19995" data-name="Trazado 19995" d="M422.855,334.7s-.03-.233-.062-.686L422.665,332q-.041-.664-.088-1.481c-.057-.543-.173-1.131-.268-1.771s-.211-1.328-.327-2.063a22.763,22.763,0,0,0-.554-2.311,40.412,40.412,0,0,0-4.693-11.246A42.13,42.13,0,0,0,406,301.155l-1.825-1.359c-.641-.42-1.316-.8-1.984-1.216-.681-.388-1.326-.859-2.057-1.19l-2.19-1.05-1.114-.528-1.17-.426-2.374-.865c-.806-.266-1.65-.438-2.485-.665a21.417,21.417,0,0,0-2.552-.578,39.233,39.233,0,0,0-5.331-.616c-.909-.032-1.825-.12-2.748-.106l-2.79.144c-.467.033-.94.03-1.408.092l-1.406.216c-.938.155-1.892.265-2.835.46a44.6,44.6,0,0,0-5.62,1.65,43.914,43.914,0,0,0-5.5,2.415c-.89.483-1.743,1.045-2.624,1.567-.431.277-.891.512-1.3.823l-1.241.929a47.53,47.53,0,0,0-4.779,4.063l-2.141,2.358-.539.593-.484.641-.964,1.291-.969,1.3-.849,1.386-.847,1.4-.425.7-.36.737q-.712,1.479-1.43,2.971-.57,1.554-1.143,3.12a41.752,41.752,0,0,0,0,26.585q.573,1.567,1.143,3.121.717,1.492,1.43,2.972l.36.738.425.7.847,1.395.849,1.387.969,1.3.964,1.292.484.641.539.593q1.075,1.185,2.142,2.359a47.328,47.328,0,0,0,4.78,4.064l1.24.929c.411.312.872.547,1.3.823.881.523,1.734,1.085,2.624,1.568a44.148,44.148,0,0,0,5.5,2.416,44.646,44.646,0,0,0,5.62,1.649c.944.2,1.9.3,2.836.461l1.406.216c.468.062.941.059,1.409.091l2.79.144c.923.014,1.839-.074,2.748-.106a39.106,39.106,0,0,0,5.332-.616,21.654,21.654,0,0,0,2.552-.578c.835-.227,1.679-.4,2.485-.666l2.373-.864,1.171-.426,1.113-.529,2.191-1.05c.73-.332,1.376-.8,2.057-1.19.668-.411,1.343-.8,1.984-1.216l1.824-1.36a42.111,42.111,0,0,0,10.736-11.974,40.419,40.419,0,0,0,4.693-11.245,23.08,23.08,0,0,0,.553-2.311q.174-1.1.327-2.063c.1-.64.211-1.227.268-1.77q.048-.816.088-1.482c.055-.871.1-1.54.128-2.011.032-.454.062-.686.062-.686s.006.232-.008.687c-.017.472-.042,1.143-.075,2.017q-.029.669-.062,1.488c-.049.545-.157,1.136-.244,1.779s-.2,1.336-.3,2.076a23.065,23.065,0,0,1-.532,2.326,40.215,40.215,0,0,1-4.638,11.348,42.264,42.264,0,0,1-10.763,12.121l-1.836,1.379c-.645.426-1.325.817-2,1.235-.686.394-1.337.871-2.073,1.208l-2.208,1.068q-.558.268-1.123.537l-1.18.435-2.4.88c-.813.272-1.665.448-2.508.68a21.851,21.851,0,0,1-2.577.591,39.7,39.7,0,0,1-5.387.638c-.918.034-1.844.125-2.778.113l-2.82-.139c-.473-.032-.951-.029-1.425-.09l-1.422-.215c-.949-.155-1.914-.265-2.869-.461a44.889,44.889,0,0,1-5.689-1.658,44.288,44.288,0,0,1-5.565-2.436c-.9-.487-1.766-1.054-2.658-1.582-.437-.279-.9-.517-1.319-.832l-1.257-.938a47.725,47.725,0,0,1-4.842-4.108q-1.081-1.186-2.171-2.386l-.546-.6-.49-.648-.978-1.306-.982-1.312-.86-1.4-.859-1.413-.43-.709-.365-.746-1.45-3.008q-.578-1.575-1.159-3.16a42.23,42.23,0,0,1,0-26.92l1.159-3.159,1.45-3.008.365-.746.431-.708.858-1.412.86-1.4.982-1.312.977-1.3.491-.648.546-.6q1.089-1.2,2.17-2.385a47.845,47.845,0,0,1,4.842-4.107l1.256-.938c.416-.314.882-.553,1.319-.831.892-.528,1.757-1.1,2.658-1.582a44.264,44.264,0,0,1,5.564-2.436A45.09,45.09,0,0,1,371.629,293c.955-.2,1.92-.3,2.869-.46l1.422-.216c.473-.061.951-.057,1.424-.089l2.821-.139c.933-.013,1.859.079,2.777.113a39.373,39.373,0,0,1,5.386.637,21.918,21.918,0,0,1,2.578.59c.843.232,1.694.409,2.508.68l2.395.881,1.18.434,1.123.537,2.208,1.068c.736.337,1.387.814,2.073,1.208.673.417,1.352.808,2,1.235l1.836,1.378a42.273,42.273,0,0,1,10.765,12.121,40.185,40.185,0,0,1,4.638,11.348,22.886,22.886,0,0,1,.533,2.327q.162,1.11.3,2.076c.087.643.2,1.234.244,1.78q.033.819.062,1.488c.032.874.058,1.545.075,2.018C422.861,334.467,422.855,334.7,422.855,334.7Z" fill="#e8505b"/>
          </g>
        </g>
        <rect id="Rectángulo_3576" data-name="Rectángulo 3576" width="309.33" height="15.433" transform="translate(221.79 214.857)" fill="#e0e0e0"/>
        <path id="Trazado_19996" data-name="Trazado 19996" d="M231.771,222.148a2.09,2.09,0,1,1-2.09-2.09A2.09,2.09,0,0,1,231.771,222.148Z" fill="#fff"/>
        <path id="Trazado_19997" data-name="Trazado 19997" d="M238.714,222.148a2.09,2.09,0,1,1-2.09-2.09A2.09,2.09,0,0,1,238.714,222.148Z" fill="#fff"/>
        <path id="Trazado_19998" data-name="Trazado 19998" d="M245.657,222.148a2.09,2.09,0,1,1-2.09-2.09A2.09,2.09,0,0,1,245.657,222.148Z" fill="#fff"/>
        <g id="Grupo_22280" data-name="Grupo 22280">
          <path id="Trazado_19999" data-name="Trazado 19999" d="M497.039,277.683c0,.147-53.673.267-119.867.267-66.216,0-119.878-.12-119.878-.267s53.662-.266,119.878-.266C443.366,277.417,497.039,277.536,497.039,277.683Z" fill="#e0e0e0"/>
        </g>
        <g id="Grupo_22281" data-name="Grupo 22281">
          <path id="Trazado_20000" data-name="Trazado 20000" d="M497.039,283.626c0,.147-53.673.266-119.867.266-66.216,0-119.878-.119-119.878-.266s53.662-.267,119.878-.267C443.366,283.359,497.039,283.479,497.039,283.626Z" fill="#e0e0e0"/>
        </g>
      </g>
    </g>
    <g id="Character">
      <g id="Grupo_22329" data-name="Grupo 22329">
        <g id="Grupo_22300" data-name="Grupo 22300">
          <g id="Grupo_22297" data-name="Grupo 22297">
            <g id="Grupo_22283" data-name="Grupo 22283">
              <path id="Trazado_20001" data-name="Trazado 20001" d="M339.7,208.349s-2.115-4.787-2.509-5.841c-1.075-2.872-8-22.1-6.336-25.012,7.674-13.464,13.619-23.036,28.755-23.036l26.725-.178s25.328-5.157,43.174,52.436Z" fill="#455a64"/>
              <path id="Trazado_20002" data-name="Trazado 20002" d="M283.317,213.173l35-7.543,41.144-21.642.156-29.528c-6.174-1.7-17.985,2.579-39.253,13.414l-31.593,16.309a18.7,18.7,0,0,0-5.449,28.99Z" fill="#455a64"/>
            </g>
            <g id="Grupo_22290" data-name="Grupo 22290">
              <g id="Grupo_22287" data-name="Grupo 22287">
                <g id="Grupo_22284" data-name="Grupo 22284">
                  <path id="Trazado_20003" data-name="Trazado 20003" d="M362.08,270.331c-.506-1.661-.162-2.728,2.259-1.915,5.34,1.791,10.108,1.208,11.275.172s.1-3.02-1.64-2.85a21.014,21.014,0,0,1-5.624-.779,13.7,13.7,0,0,1-4.194-1.772c-1.113-.712-2.076-1.375-2.929-1.987,0,0-4.923-3.556-6.467-6.418l-16.888,7.245,2.72,8.459a8.941,8.941,0,0,0,5.713,6.553c4.827,1.573,12.505.982,12.505.982,1.408-.923,6.842,6.938,8.485,9.713,1.623,2.742,3.607,3.118,4.243,1.423.434-1.156-4.394-9.769-6.082-12.476a32.987,32.987,0,0,1-3.376-6.35" fill="#b77153"/>
                </g>
                <g id="Grupo_22285" data-name="Grupo 22285">
                  <path id="Trazado_20004" data-name="Trazado 20004" d="M350.639,278.043c-.015.061-.417.043-.993-.239a4.369,4.369,0,0,1-2.312-4.134c.061-.639.256-.991.315-.971a5.589,5.589,0,0,0,2.99,5.344Z" fill="#995037"/>
                </g>
                <g id="Grupo_22286" data-name="Grupo 22286">
                  <path id="Trazado_20005" data-name="Trazado 20005" d="M355.981,278.247c-.018.061-.4.024-.941-.266a4.342,4.342,0,0,1-2.167-4c.053-.611.232-.952.292-.934a5.789,5.789,0,0,0,2.816,5.2Z" fill="#995037"/>
                </g>
              </g>
              <g id="Grupo_22289" data-name="Grupo 22289">
                <path id="Trazado_20006" data-name="Trazado 20006" d="M282.323,212.028s53.614,61.619,53.551,60.6S359.907,253.6,359.907,253.6L307.34,190.983Z" fill="#455a64"/>
                <g id="Grupo_22288" data-name="Grupo 22288">
                  <path id="Trazado_20007" data-name="Trazado 20007" d="M314.841,199.919c.014-.012.144.114.377.365l1,1.113,3.6,4.16c3.024,3.527,7.174,8.423,11.732,13.853s8.665,10.367,11.616,13.957l3.475,4.27.924,1.179a1.944,1.944,0,0,1,.3.435c-.014.012-.143-.114-.376-.364-.269-.3-.6-.668-1-1.113l-3.6-4.159c-3.024-3.528-7.175-8.425-11.735-13.857s-8.665-10.366-11.616-13.957l-3.474-4.269-.924-1.179A1.955,1.955,0,0,1,314.841,199.919Z" fill="#263238"/>
                </g>
              </g>
            </g>
            <g id="Grupo_22291" data-name="Grupo 22291">
              <path id="Trazado_20008" data-name="Trazado 20008" d="M409.688,207.02a18.244,18.244,0,0,0,.642-3.948,11.829,11.829,0,0,0-3.5-8.644c-1.3-1.368-2.7-2.547-3.825-3.788a11.683,11.683,0,0,1-2.4-3.744,6.528,6.528,0,0,1-.436-2.971,2.624,2.624,0,0,1,.279-1.064,7.433,7.433,0,0,0,.507,3.9,11.941,11.941,0,0,0,2.412,3.549c1.118,1.194,2.52,2.355,3.852,3.756a12.28,12.28,0,0,1,2.888,4.615,11.819,11.819,0,0,1,.6,4.407,10.665,10.665,0,0,1-.562,2.94A3.281,3.281,0,0,1,409.688,207.02Z" fill="#263238"/>
            </g>
            <g id="Grupo_22292" data-name="Grupo 22292">
              <path id="Trazado_20009" data-name="Trazado 20009" d="M337.375,159.6a5.2,5.2,0,0,1,.778-.369c.519-.223,1.3-.523,2.321-.848a20.188,20.188,0,0,1,3.84-.782,13.2,13.2,0,0,1,5.174.482,11.989,11.989,0,0,1,5.291,3.4,14.061,14.061,0,0,1,3.18,6.481,24.694,24.694,0,0,1,.508,7.972,17.3,17.3,0,0,1-2.964,8.035,22.071,22.071,0,0,1-6.414,5.687c-2.346,1.479-4.71,2.689-6.949,3.869l-11.907,6.25-8.048,4.172-2.2,1.111a5.1,5.1,0,0,1-.783.354,5.284,5.284,0,0,1,.735-.45l2.154-1.2,7.966-4.321L341.9,193.1c2.23-1.19,4.6-2.413,6.906-3.879a21.711,21.711,0,0,0,6.258-5.555,16.847,16.847,0,0,0,2.88-7.786,24.413,24.413,0,0,0-.468-7.8,13.677,13.677,0,0,0-3.029-6.293,11.674,11.674,0,0,0-5.077-3.34,13.034,13.034,0,0,0-5.034-.545,20.978,20.978,0,0,0-3.808.685c-1.025.291-1.811.558-2.34.748A5.15,5.15,0,0,1,337.375,159.6Z" fill="#263238"/>
            </g>
            <g id="Grupo_22293" data-name="Grupo 22293">
              <path id="Trazado_20010" data-name="Trazado 20010" d="M320.737,205.567a21.841,21.841,0,0,0-8.288-12.8,6.7,6.7,0,0,1,1.973,1.218,17.2,17.2,0,0,1,6.01,9.28A6.72,6.72,0,0,1,320.737,205.567Z" fill="#263238"/>
            </g>
            <g id="Grupo_22294" data-name="Grupo 22294">
              <path id="Trazado_20011" data-name="Trazado 20011" d="M399.542,198.874a6.508,6.508,0,0,1-1.138.307,11.478,11.478,0,0,1-3.381.145,12.431,12.431,0,0,1-5.082-1.67,11.631,11.631,0,0,1-4.692-5.271,12.407,12.407,0,0,1-.647-8.509,6.973,6.973,0,0,1,2.829-3.921,3.5,3.5,0,0,1,2.554-.522,3.736,3.736,0,0,1,2.229,1.48,12.383,12.383,0,0,1,1.2,10.667,12.676,12.676,0,0,1-3.031,4.965,11.538,11.538,0,0,1-5.211,2.945,11.913,11.913,0,0,1-11.14-2.592,11.68,11.68,0,0,1-3.342-10.157,10.06,10.06,0,0,1,2.04-4.705,5.022,5.022,0,0,1,2-1.528,3.216,3.216,0,0,1,2.455.026,4.567,4.567,0,0,1,2.614,3.634,7.652,7.652,0,0,1-.811,4.086,19.514,19.514,0,0,1-4.256,5.675,20.248,20.248,0,0,1-4.37,3.093,18.8,18.8,0,0,1-3.121,1.3c-.367.121-.656.183-.847.235a1.222,1.222,0,0,1-.294.059,1.316,1.316,0,0,1,.279-.111c.185-.069.469-.148.828-.285a21.156,21.156,0,0,0,3.057-1.385,20.591,20.591,0,0,0,4.264-3.127,19.429,19.429,0,0,0,4.118-5.616,7.3,7.3,0,0,0,.745-3.878,4.154,4.154,0,0,0-2.375-3.276,2.766,2.766,0,0,0-2.12-.01,4.587,4.587,0,0,0-1.8,1.4,9.608,9.608,0,0,0-1.916,4.484,11.2,11.2,0,0,0,3.216,9.7,11.41,11.41,0,0,0,10.645,2.457A11.017,11.017,0,0,0,390,196.168a12.172,12.172,0,0,0,2.909-4.752,13.028,13.028,0,0,0,.59-5.365,11.206,11.206,0,0,0-.55-2.569,7.4,7.4,0,0,0-1.128-2.269,3.252,3.252,0,0,0-1.936-1.309,3.031,3.031,0,0,0-2.214.451A6.546,6.546,0,0,0,385.026,184a12.048,12.048,0,0,0,.567,8.229,11.369,11.369,0,0,0,4.5,5.17,12.409,12.409,0,0,0,4.951,1.719A13.839,13.839,0,0,0,399.542,198.874Z" fill="#fafafa"/>
            </g>
            <g id="Grupo_22296" data-name="Grupo 22296">
              <g id="Grupo_22295" data-name="Grupo 22295">
                <path id="Trazado_20012" data-name="Trazado 20012" d="M403.58,138.874a12.12,12.12,0,0,1-2.389-4.75,3.224,3.224,0,0,1-.064-1.735,1.338,1.338,0,0,1,1.29-.991c.6.057,1.008.616,1.329,1.126a25.5,25.5,0,0,1,2.467,4.678,3.562,3.562,0,0,1,.288,1.421,1.443,1.443,0,0,1-.7,1.211,1.483,1.483,0,0,1-1.505-.2,4.366,4.366,0,0,1-1.027-1.211" fill="#995037"/>
                <path id="Trazado_20013" data-name="Trazado 20013" d="M406.152,137.756q-1.323-2.768-2.645-5.535a4.4,4.4,0,0,1-.547-1.723,1.33,1.33,0,0,1,2.314-1.1,4.421,4.421,0,0,1,.886,1.307l1.248,2.427a7.793,7.793,0,0,1,.823,2.064,2.63,2.63,0,0,1-.414,2.121,1.612,1.612,0,0,1-1.989.472" fill="#995037"/>
                <path id="Trazado_20014" data-name="Trazado 20014" d="M394.4,154.894s-3.68-4.773-4.011-7.289,2.753-6.978,9.364-7.981a16.2,16.2,0,0,0,6.8-2.328,2.133,2.133,0,0,0,.774-2.58c-.869-2.108-2.434-6.019-2.315-6.543.308-1.35,1.187-1.323,3.475,2.021s4.922,6.738,4.414,8.278-8.567,6.31-8.567,6.31l2.2,3.551Z" fill="#b77153"/>
              </g>
              <path id="Trazado_20015" data-name="Trazado 20015" d="M416.263,203.926l-25.372-49.7,16.335-9.155,34.32,54.406s1.811,3.476,4.34,7.546h-28.77" fill="#455a64"/>
            </g>
          </g>
          <g id="Grupo_22298" data-name="Grupo 22298">
            <path id="Trazado_20016" data-name="Trazado 20016" d="M406.963,145.068a1.231,1.231,0,0,1-.282.2l-.857.519-3.285,1.914-11.8,6.722.093-.3c2.467,5.033,5.674,10.851,8.907,17.175,4.813,9.355,8.973,17.923,11.9,24.163,1.466,3.119,2.624,5.656,3.412,7.415q.555,1.268.891,2.032a4.224,4.224,0,0,1,.277.724,4.312,4.312,0,0,1-.375-.678l-.981-1.99-3.564-7.34c-3.011-6.2-7.222-14.732-12.032-24.082-3.229-6.316-6.415-12.152-8.843-17.214l-.1-.2.188-.1,11.892-6.555,3.348-1.8.89-.459A1.283,1.283,0,0,1,406.963,145.068Z" fill="#263238"/>
          </g>
          <g id="Grupo_22299" data-name="Grupo 22299">
            <path id="Trazado_20017" data-name="Trazado 20017" d="M339.7,208.349a30.5,30.5,0,0,1-4.23-11.681c.153-.035.844,2.661,2.016,5.877S339.842,208.278,339.7,208.349Z" fill="#263238"/>
          </g>
        </g>
        <g id="Grupo_22328" data-name="Grupo 22328">
          <path id="Trazado_20018" data-name="Trazado 20018" d="M395.578,135.069A10.034,10.034,0,0,0,407.411,119.9c5.729-1.45,9.3-8.058,8.142-13.853s-6.337-10.318-12.113-11.569a12.888,12.888,0,0,0-6.7.17,8.2,8.2,0,0,0-5,4.288" fill="#263238"/>
          <g id="Grupo_22301" data-name="Grupo 22301">
            <path id="Trazado_20019" data-name="Trazado 20019" d="M394.775,122.112c.018.061-.748.195-1.956.828a8.643,8.643,0,0,0-3.827,4.122,8.454,8.454,0,0,0,.641,8.059,8.439,8.439,0,0,0,3.736,3.148,8.382,8.382,0,0,0,9.688-2.213,8.446,8.446,0,0,0,2-4.459,8.457,8.457,0,0,0-2.923-7.538,8.645,8.645,0,0,0-5.237-2.051c-1.363-.045-2.111.167-2.121.1a2.13,2.13,0,0,1,.536-.149,6.925,6.925,0,0,1,1.589-.162,8.627,8.627,0,0,1,5.475,1.969,8.749,8.749,0,0,1,2.478,3.248,8.9,8.9,0,0,1,.691,4.64,8.921,8.921,0,0,1-2.091,4.74,8.861,8.861,0,0,1-10.291,2.35,8.9,8.9,0,0,1-3.942-3.361,8.885,8.885,0,0,1-1.392-4.479,8.74,8.74,0,0,1,.821-4,8.633,8.633,0,0,1,4.076-4.151,6.91,6.91,0,0,1,1.5-.544A2.143,2.143,0,0,1,394.775,122.112Z" fill="#e8505b"/>
          </g>
          <path id="Trazado_20020" data-name="Trazado 20020" d="M399.107,106.352a9.83,9.83,0,0,0,4.627-18.17A12.214,12.214,0,0,0,385.5,73.888a16.207,16.207,0,0,0-29.96,4.8,15.663,15.663,0,0,0-20.1,21.253A12.133,12.133,0,0,0,337.5,124.12a10.706,10.706,0,0,0,16.224,12.017,11.711,11.711,0,0,0,21.055-2.419" fill="#263238"/>
          <g id="Grupo_22313" data-name="Grupo 22313">
            <g id="Grupo_22312" data-name="Grupo 22312">
              <g id="Grupo_22302" data-name="Grupo 22302">
                <path id="Trazado_20021" data-name="Trazado 20021" d="M387.072,153.266c.209-4.869.471-9.277.471-9.277s10.884-1.373,11.353-12.482-.636-36.69-.636-36.69L378.227,85.2,356.674,102.56l3.381,51.021A13.529,13.529,0,0,0,374.18,166.2h0A13.529,13.529,0,0,0,387.072,153.266Z" fill="#b77153"/>
              </g>
              <g id="Grupo_22305" data-name="Grupo 22305">
                <g id="Grupo_22304" data-name="Grupo 22304">
                  <g id="Grupo_22303" data-name="Grupo 22303">
                    <path id="Trazado_20022" data-name="Trazado 20022" d="M397.726,113.845c-.175.186-1.212-.688-2.7-.744-1.49-.079-2.6.7-2.756.5-.078-.09.1-.432.585-.785a3.6,3.6,0,0,1,4.358.2C397.662,113.4,397.812,113.762,397.726,113.845Z" fill="#263238"/>
                  </g>
                </g>
              </g>
              <g id="Grupo_22308" data-name="Grupo 22308">
                <g id="Grupo_22307" data-name="Grupo 22307">
                  <g id="Grupo_22306" data-name="Grupo 22306">
                    <path id="Trazado_20023" data-name="Trazado 20023" d="M381.209,113.845c-.175.186-1.213-.688-2.7-.744-1.49-.079-2.6.7-2.756.5-.078-.09.1-.432.585-.785a3.6,3.6,0,0,1,4.358.2C381.144,113.4,381.3,113.762,381.209,113.845Z" fill="#263238"/>
                  </g>
                </g>
              </g>
              <g id="Grupo_22310" data-name="Grupo 22310">
                <g id="Grupo_22309" data-name="Grupo 22309">
                  <path id="Trazado_20024" data-name="Trazado 20024" d="M386.809,125.047a9.18,9.18,0,0,1,2.43-.37c.382-.027.744-.094.812-.37a2.223,2.223,0,0,0-.235-1.219q-.515-1.5-1.078-3.151c-1.495-4.484-2.571-8.166-2.4-8.225s1.516,3.528,3.011,8.013q.54,1.658,1.031,3.167a2.539,2.539,0,0,1,.172,1.609.944.944,0,0,1-.636.571,2.374,2.374,0,0,1-.648.07A9.118,9.118,0,0,1,386.809,125.047Z" fill="#263238"/>
                </g>
              </g>
              <g id="Grupo_22311" data-name="Grupo 22311">
                <path id="Trazado_20025" data-name="Trazado 20025" d="M387.543,143.989a26.5,26.5,0,0,1-14.412-4.718s3.387,8.092,14.223,7.445Z" fill="#995037"/>
              </g>
            </g>
          </g>
          <path id="Trazado_20026" data-name="Trazado 20026" d="M372.082,85.82a14.661,14.661,0,0,0,.2,16.977c1.615,2.126,4.058,3.854,6.726,3.757s5.251-2.626,4.685-5.236a5.522,5.522,0,1,0,10.578.189,9.959,9.959,0,0,0,1.245,3.408,3.379,3.379,0,0,0,3.068,1.614c1.675-.221,2.648-2.019,3.031-3.664a15.06,15.06,0,0,0-4.279-13.849,18.251,18.251,0,0,0-13.879-4.868,23.243,23.243,0,0,0-13.633,5.963" fill="#263238"/>
          <path id="Trazado_20027" data-name="Trazado 20027" d="M373.493,89.737A25.9,25.9,0,0,1,375.73,99.7a13.369,13.369,0,0,1-3.6,9.356,9.1,9.1,0,0,1-9.449,2.267A10.524,10.524,0,0,1,361.3,120.2c-1.865,2.47-5.523,3.652-8.237,2.165-2.454-1.345-3.515-4.321-3.852-7.1a22.728,22.728,0,0,1,24.723-25.368" fill="#263238"/>
          <g id="Grupo_22316" data-name="Grupo 22316">
            <g id="Grupo_22315" data-name="Grupo 22315">
              <path id="Trazado_20028" data-name="Trazado 20028" d="M359.754,116.206c-1.482-.914-3.5-.162-4.68,1.121a6.384,6.384,0,0,0,6.353,10.482" fill="#b77153"/>
              <g id="Grupo_22314" data-name="Grupo 22314">
                <path id="Trazado_20029" data-name="Trazado 20029" d="M359.412,124.481c0,.063-.494.134-1.26-.083a3.344,3.344,0,0,1-2.284-2.042,2.441,2.441,0,0,1,.061-1.774,2.611,2.611,0,0,1,.923-1.093c.684-.452,1.21-.435,1.213-.378.025.084-.443.206-.983.677a2.192,2.192,0,0,0-.708,2.4,3.3,3.3,0,0,0,1.906,1.857C358.951,124.331,359.421,124.4,359.412,124.481Z" fill="#995037"/>
              </g>
            </g>
          </g>
          <g id="Grupo_22317" data-name="Grupo 22317">
            <path id="Trazado_20030" data-name="Trazado 20030" d="M382.126,109.206c-.139.433-1.763.274-3.7.36-1.934.058-3.541.337-3.712-.083-.18-.39,1.4-1.437,3.653-1.515S382.276,108.805,382.126,109.206Z" fill="#263238"/>
          </g>
          <g id="Grupo_22318" data-name="Grupo 22318">
            <path id="Trazado_20031" data-name="Trazado 20031" d="M377.773,108.415" fill="none" stroke="#4e585d" stroke-miterlimit="10" stroke-width="1"/>
          </g>
          <g id="Grupo_22319" data-name="Grupo 22319">
            <path id="Trazado_20032" data-name="Trazado 20032" d="M397.689,108.9c-.169.154-.5.053-.89-.045a3.627,3.627,0,0,0-1.358-.086,16.731,16.731,0,0,1-1.707.15c-.489,0-.83-.11-.893-.322s.156-.487.571-.762a4.269,4.269,0,0,1,1.886-.659,2.5,2.5,0,0,1,2.147.752C397.825,108.381,397.845,108.761,397.689,108.9Z" fill="#263238"/>
          </g>
          <path id="Trazado_20033" data-name="Trazado 20033" d="M384.222,127.892a3.347,3.347,0,0,1,2.807-.4,2.1,2.1,0,0,1,1.394,2.292,2.3,2.3,0,0,1-.9,1.279,2.923,2.923,0,0,1-2.315.567,2.266,2.266,0,0,1-1.722-1.574,1.854,1.854,0,0,1,.9-2.083" fill="#995037"/>
          <g id="Grupo_22320" data-name="Grupo 22320">
            <path id="Trazado_20034" data-name="Trazado 20034" d="M389.676,129.075c.026.06-.355.315-1.071.469a4.831,4.831,0,0,1-5-2.081c-.4-.617-.481-1.067-.421-1.09.075-.034.282.35.724.865a5.4,5.4,0,0,0,4.64,1.933C389.229,129.122,389.647,129,389.676,129.075Z" fill="#263238"/>
          </g>
          <g id="Grupo_22321" data-name="Grupo 22321">
            <path id="Trazado_20035" data-name="Trazado 20035" d="M367.126,134.375c-.063.005-.023-.772-.371-2.091a8.645,8.645,0,0,0-3.167-4.649,8.457,8.457,0,0,0-8-1.17,8.465,8.465,0,0,0-3.9,2.941,8.383,8.383,0,0,0,0,9.938,8.453,8.453,0,0,0,3.9,2.942,8.455,8.455,0,0,0,8-1.171,8.642,8.642,0,0,0,3.166-4.649c.348-1.318.308-2.1.371-2.091a2.131,2.131,0,0,1,.026.556,6.938,6.938,0,0,1-.2,1.586,8.632,8.632,0,0,1-3.139,4.9,8.74,8.74,0,0,1-3.718,1.692,8.88,8.88,0,0,1-4.677-.36,8.882,8.882,0,0,1-4.155-3.094,8.859,8.859,0,0,1,0-10.556A8.9,8.9,0,0,1,355.422,126a8.886,8.886,0,0,1,4.676-.36,8.751,8.751,0,0,1,3.719,1.692,8.636,8.636,0,0,1,3.139,4.9,6.924,6.924,0,0,1,.2,1.585A2.125,2.125,0,0,1,367.126,134.375Z" fill="#e8505b"/>
          </g>
          <g id="Grupo_22322" data-name="Grupo 22322">
            <path id="Trazado_20036" data-name="Trazado 20036" d="M397.683,84.663c0-.013.1.009.277.068a2.162,2.162,0,0,1,.7.449,3.234,3.234,0,0,1,.894,2.915,4.168,4.168,0,0,1-3.461,3.066,8.673,8.673,0,0,1-5.861-1.4l-2.064-1.191,2.265.744a2.451,2.451,0,0,1,1.529,1.754,3.149,3.149,0,0,1-.316,2.391A3.348,3.348,0,0,1,389.61,94.9a4.767,4.767,0,0,1-2.535-.056,8.669,8.669,0,0,1-4.354-3.761l-1.447-2.119,1.839,1.786a4,4,0,0,1,.99,3.78,4.14,4.14,0,0,1-2.224,2.816,5.385,5.385,0,0,1-5.691-.694,6.77,6.77,0,0,1-2.154-3.209,6.261,6.261,0,0,1-.239-1.012,1.1,1.1,0,0,1-.021-.36c.043-.008.107.483.428,1.312a6.885,6.885,0,0,0,2.191,3.007,5.048,5.048,0,0,0,5.283.556,3.683,3.683,0,0,0,1.95-2.526,3.518,3.518,0,0,0-.869-3.295l.392-.333a8.255,8.255,0,0,0,4.075,3.54,3.5,3.5,0,0,0,3.972-1.142c.728-1.179.294-3.006-.922-3.409l.2-.448a8.343,8.343,0,0,0,5.538,1.424,3.862,3.862,0,0,0,3.246-2.719,3.119,3.119,0,0,0-.713-2.744A3.732,3.732,0,0,0,397.683,84.663Z" fill="#455a64"/>
          </g>
          <g id="Grupo_22323" data-name="Grupo 22323">
            <path id="Trazado_20037" data-name="Trazado 20037" d="M371.042,102.527c.009.007-.036.073-.132.194a4.433,4.433,0,0,1-.468.5,6.475,6.475,0,0,1-6.278,1.4,6.723,6.723,0,0,1-3.97-3.434l.42-.058a6.468,6.468,0,1,1-10.88-5.688l.347.379a6.646,6.646,0,0,1-4.2,1.522,7.222,7.222,0,0,1-3.949-1.076,5.973,5.973,0,0,1-2.364-2.777,7.02,7.02,0,0,1,1.149-7.157,4.288,4.288,0,0,1,1.22-1.012c.033.041-.452.339-1.086,1.125a6.907,6.907,0,0,0-1.452,3.971,6.672,6.672,0,0,0,.527,2.921,5.6,5.6,0,0,0,2.239,2.554,6.8,6.8,0,0,0,3.706.967,6.179,6.179,0,0,0,3.879-1.427l.347.379a6.175,6.175,0,0,0-1.273,6.723,6.111,6.111,0,0,0,6.679,3.394,6.207,6.207,0,0,0,4.678-4.87l.116-.7.3.645a6.384,6.384,0,0,0,3.683,3.281,6.162,6.162,0,0,0,3.851.031,6.672,6.672,0,0,0,2.226-1.187C370.81,102.746,371.019,102.506,371.042,102.527Z" fill="#455a64"/>
          </g>
          <g id="Grupo_22324" data-name="Grupo 22324">
            <path id="Trazado_20038" data-name="Trazado 20038" d="M351.206,120.314a2.54,2.54,0,0,1-.865.515,5.89,5.89,0,0,1-6.584-1.431,6.172,6.172,0,0,1-1.5-5.129l.457.2a10.207,10.207,0,0,1-3.756,3.066,8.062,8.062,0,0,1-3.645.777,7.43,7.43,0,0,1-3.35-.921,5.92,5.92,0,0,1-3.186-4.732,5.617,5.617,0,0,1,1.029-3.752,4.324,4.324,0,0,1,.747-.763c.2-.145.305-.212.316-.2.036.041-.39.336-.893,1.079a5.547,5.547,0,0,0,2.222,7.934,7.225,7.225,0,0,0,6.536.092,9.854,9.854,0,0,0,3.571-2.895l.647-.836-.19,1.039a5.769,5.769,0,0,0,1.329,4.742,5.5,5.5,0,0,0,3.519,1.832,6.122,6.122,0,0,0,2.672-.271C350.882,120.461,351.186,120.28,351.206,120.314Z" fill="#455a64"/>
          </g>
          <g id="Grupo_22325" data-name="Grupo 22325">
            <path id="Trazado_20039" data-name="Trazado 20039" d="M407.837,98.65a3.358,3.358,0,0,1,.221,1.848,6.643,6.643,0,0,1-5.844,6.111,3.357,3.357,0,0,1-1.856-.138c.008-.089.713-.014,1.8-.234a6.862,6.862,0,0,0,5.531-5.783C407.855,99.363,407.749,98.662,407.837,98.65Z" fill="#455a64"/>
          </g>
          <g id="Grupo_22326" data-name="Grupo 22326">
            <path id="Trazado_20040" data-name="Trazado 20040" d="M413.955,109.121a1.619,1.619,0,0,1,.251.758,4.3,4.3,0,0,1-.207,2.193,3.4,3.4,0,0,1-2.421,2.225,3.472,3.472,0,0,1-2.024-.175,2.792,2.792,0,0,1-1.593-1.545l.5-.169a3.447,3.447,0,0,1,.125.983,3.982,3.982,0,0,1-2.507,3.563,3.336,3.336,0,0,1-1.989.082,3.853,3.853,0,0,1-1.5-.827,3.63,3.63,0,0,1-1.211-2.1,1.585,1.585,0,0,1,.028-.886c.049,0,.031.317.175.84a3.66,3.66,0,0,0,1.251,1.855,3.113,3.113,0,0,0,3.075.574,3.534,3.534,0,0,0,2.148-3.113,2.964,2.964,0,0,0-.1-.826l.5-.169a2.706,2.706,0,0,0,3.026,1.442,3.064,3.064,0,0,0,2.18-1.891,4.618,4.618,0,0,0,.347-2.037A4.73,4.73,0,0,1,413.955,109.121Z" fill="#455a64"/>
          </g>
          <g id="Grupo_22327" data-name="Grupo 22327">
            <path id="Trazado_20041" data-name="Trazado 20041" d="M383.459,123.979c.067.01.112.228.023.566a2.339,2.339,0,0,1-1.983,1.643c-.349.024-.555-.061-.553-.128,0-.152.772-.225,1.451-.806C383.1,124.695,383.31,123.954,383.459,123.979Z" fill="#263238"/>
          </g>
        </g>
      </g>
    </g>
    <g id="Plant">
      <g id="Grupo_22340" data-name="Grupo 22340">
        <g id="Grupo_22330" data-name="Grupo 22330">
          <path id="Trazado_20042" data-name="Trazado 20042" d="M621.809,410.788c-2.5,3.566-7.348,2.385-9.6.209s-3.2-5.331-4.066-8.339c-1.978-6.872-3.972-14.082-2.5-21.081a11.715,11.715,0,0,1,2.692-5.732,6.12,6.12,0,0,1,5.8-1.929c2.446.646,3.967,3.042,5.065,5.322a50.251,50.251,0,0,1,4.967,21.566c.011,3.473-.4,7.117-2.358,9.984" fill="#e8505b"/>
        </g>
        <g id="Grupo_22331" data-name="Grupo 22331" opacity="0.2">
          <path id="Trazado_20043" data-name="Trazado 20043" d="M621.809,410.788c-2.5,3.566-7.348,2.385-9.6.209s-3.2-5.331-4.066-8.339c-1.978-6.872-3.972-14.082-2.5-21.081a11.715,11.715,0,0,1,2.692-5.732,6.12,6.12,0,0,1,5.8-1.929c2.446.646,3.967,3.042,5.065,5.322a50.251,50.251,0,0,1,4.967,21.566c.011,3.473-.4,7.117-2.358,9.984"/>
        </g>
        <g id="Grupo_22332" data-name="Grupo 22332">
          <path id="Trazado_20044" data-name="Trazado 20044" d="M612.456,428.845a21.641,21.641,0,0,0-13.423-1.631c-2.435.4-4.974,1.131-6.631,2.96s-1.971,5.048-.068,6.62a6.354,6.354,0,0,0,4.181,1.06c3.548-.041,7.485-.666,10.32,1.469,1.617,1.218,2.693,3.243,4.627,3.842a4.571,4.571,0,0,0,5.03-2.238,7.817,7.817,0,0,0,.569-5.766A8.8,8.8,0,0,0,612.456,428.845Z" fill="#e8505b"/>
        </g>
        <g id="Grupo_22333" data-name="Grupo 22333">
          <path id="Trazado_20045" data-name="Trazado 20045" d="M628.665,415.9c-2.711-3.217-3.225-7.909-2.019-11.94a23.005,23.005,0,0,1,7.072-10.257,38.071,38.071,0,0,1,12.662-7.472,13.492,13.492,0,0,1,5.7-.967,5.974,5.974,0,0,1,4.779,2.891c1.333,2.542.055,5.625-1.327,8.14a96.38,96.38,0,0,1-8.317,12.665c-2.493,3.214-5.348,6.384-9.147,7.836s-7.746,1.282-9.76-1.353" fill="#e8505b"/>
        </g>
        <g id="Grupo_22335" data-name="Grupo 22335">
          <g id="Grupo_22334" data-name="Grupo 22334">
            <path id="Trazado_20046" data-name="Trazado 20046" d="M621.978,464.575a7.853,7.853,0,0,1-.225-1.62c-.115-1.18-.259-2.66-.431-4.422a64.079,64.079,0,0,0-.994-6.486,50.147,50.147,0,0,0-2.358-7.655,28.245,28.245,0,0,0-3.908-6.926,14.612,14.612,0,0,0-4.942-4.108,13.815,13.815,0,0,0-4.162-1.3,7.869,7.869,0,0,1-1.613-.233,7.589,7.589,0,0,1,1.641-.026,12.594,12.594,0,0,1,4.34,1.13,14.553,14.553,0,0,1,5.213,4.144,27.579,27.579,0,0,1,4.052,7.065,46.832,46.832,0,0,1,2.34,7.78,54.788,54.788,0,0,1,.862,6.568c.141,1.878.194,3.4.22,4.449A7.551,7.551,0,0,1,621.978,464.575Z" fill="#263238"/>
          </g>
        </g>
        <g id="Grupo_22337" data-name="Grupo 22337">
          <g id="Grupo_22336" data-name="Grupo 22336">
            <path id="Trazado_20047" data-name="Trazado 20047" d="M621.674,461.173a3.189,3.189,0,0,1-.044-.752c0-.565,0-1.277.006-2.15.005-1.866,0-4.566-.1-7.9-.165-6.668-.739-15.873-1.848-25.99s-2.6-19.224-3.947-25.755c-.319-1.637-.64-3.111-.943-4.4s-.534-2.407-.772-3.309l-.5-2.09a3.217,3.217,0,0,1-.132-.742,3.135,3.135,0,0,1,.262.7c.164.541.37,1.223.624,2.06.277.894.56,2,.884,3.289s.692,2.755,1.042,4.389a244.293,244.293,0,0,1,4.149,25.781c1.111,10.138,1.612,19.369,1.656,26.054.04,3.343-.031,6.048-.117,7.915-.053.873-.1,1.585-.131,2.149A3.164,3.164,0,0,1,621.674,461.173Z" fill="#263238"/>
          </g>
        </g>
        <g id="Grupo_22339" data-name="Grupo 22339">
          <g id="Grupo_22338" data-name="Grupo 22338">
            <path id="Trazado_20048" data-name="Trazado 20048" d="M621.629,443.368a14.4,14.4,0,0,1,.016-2.246c.083-1.443.281-3.529.688-6.084a79.986,79.986,0,0,1,1.978-8.865,78.641,78.641,0,0,1,3.707-10.49,55.886,55.886,0,0,1,10.887-16.951,27.669,27.669,0,0,1,2.56-2.38c.394-.332.741-.664,1.095-.926l.993-.685a14.217,14.217,0,0,1,1.891-1.21,66.7,66.7,0,0,0-6.2,5.528,58.894,58.894,0,0,0-10.615,16.89,83.745,83.745,0,0,0-3.728,10.393c-.972,3.257-1.618,6.253-2.106,8.777-.463,2.529-.732,4.594-.894,6.024A14.415,14.415,0,0,1,621.629,443.368Z" fill="#263238"/>
          </g>
        </g>
      </g>
    </g>
    <g id="Speech_Bubble" data-name="Speech Bubble">
      <g id="Grupo_22346" data-name="Grupo 22346">
        <g id="Grupo_22342" data-name="Grupo 22342">
          <g id="Grupo_22341" data-name="Grupo 22341">
            <path id="Trazado_20049" data-name="Trazado 20049" d="M270.4,41.62a4.2,4.2,0,0,1-.695.086l-2.038.172a22.883,22.883,0,0,0-3.281.476c-.641.138-1.35.2-2.073.42l-2.314.67a38.252,38.252,0,0,0-10.983,5.6,39.135,39.135,0,0,0-10.732,12.222,41.242,41.242,0,0,0-3.711,8.743,43.785,43.785,0,0,0-1.384,15.6c.058.919.267,1.828.394,2.753a19.439,19.439,0,0,0,.557,2.768,39.115,39.115,0,0,0,4.318,10.825,38.661,38.661,0,0,0,18.434,16.371,35.548,35.548,0,0,0,12.9,2.743A34.8,34.8,0,0,0,283.2,118.99l1.312-.5.173-.065.158.077,19,9.377-.556.485c-2.089-6.238-4.114-12.286-6.056-18.089l-.075-.224.165-.169a40.348,40.348,0,0,0,9.731-16.6,41.422,41.422,0,0,0,1.239-17.573,40.407,40.407,0,0,0-13.781-25.171,41.5,41.5,0,0,0-9.348-5.8,40.637,40.637,0,0,0-7.868-2.381l-2.944-.467-2.17-.127-1.329-.087a2.272,2.272,0,0,1-.451-.053,2.42,2.42,0,0,1,.452-.014l1.333.023,2.184.063,2.971.408a39.858,39.858,0,0,1,7.969,2.29,41.442,41.442,0,0,1,9.509,5.775,40.7,40.7,0,0,1,8.838,10.426,41.158,41.158,0,0,1,5.286,15.021,42.017,42.017,0,0,1-1.2,17.871,41.008,41.008,0,0,1-9.873,16.94l.09-.393c1.951,5.8,3.984,11.845,6.082,18.081l.307.911-.863-.425-19.007-9.365.331.012-1.34.51a35.545,35.545,0,0,1-13.707,2.128,36.3,36.3,0,0,1-13.181-2.816,39.369,39.369,0,0,1-18.775-16.731A39.772,39.772,0,0,1,233.444,91.3a20.212,20.212,0,0,1-.556-2.817c-.127-.942-.335-1.867-.392-2.8a44.383,44.383,0,0,1,1.475-15.844,41.641,41.641,0,0,1,3.814-8.853,39.38,39.38,0,0,1,10.961-12.3A38,38,0,0,1,259.9,43.143l2.343-.639a21.2,21.2,0,0,1,2.094-.387,21.444,21.444,0,0,1,3.31-.4l2.049-.091A4.488,4.488,0,0,1,270.4,41.62Z" fill="#263238"/>
          </g>
        </g>
        <g id="Grupo_22345" data-name="Grupo 22345">
          <g id="Grupo_22343" data-name="Grupo 22343">
            <path id="Trazado_20050" data-name="Trazado 20050" d="M279.339,76.5l-2.769.032-6.137-8.351-.063-5.526s-4.282-.214-3.7,7.016.02,5.394.02,5.394-9.085.138-9.831.936c-.543.58-.688,9.608-.728,14.5a5.3,5.3,0,0,0,3.816,5.3,3.975,3.975,0,0,0,.979.12c2.266-.026,13.824-2,13.824-2l4.782-.054Z" fill="#e8505b"/>
          </g>
          <g id="Grupo_22344" data-name="Grupo 22344">
            <path id="Trazado_20051" data-name="Trazado 20051" d="M287.246,74.891l-1.487,18.954-4.741.054-.211-18.553Z" fill="#e8505b"/>
          </g>
        </g>
      </g>
    </g>
  </g>
</svg>
