<svg xmlns="http://www.w3.org/2000/svg" width="121" height="121" viewBox="0 0 121 121">
  <g id="Grupo_24016" data-name="Grupo 24016" transform="translate(-710 -2195)">
    <circle id="Elipse_839" data-name="Elipse 839" cx="60.5" cy="60.5" r="60.5" transform="translate(710 2195)" fill="#fe7c5f"/>
    <path id="Trazado_17262" data-name="Trazado 17262" d="M53.993,0A53.993,53.993,0,1,1,0,53.993,53.993,53.993,0,0,1,53.993,0Z" transform="translate(717 2202)" fill="#fff"/>
    <path id="Trazado_48980" data-name="Trazado 48980" d="M14.185,54.61q-12.5,0-12.5-17.554,0-9.106,3.381-13.879t9.8-4.773q12.207,0,12.207,17.847,0,8.887-3.333,13.623A10.978,10.978,0,0,1,14.185,54.61Zm.342-30.322q-5,0-5,12.573,0,11.841,4.907,11.841,4.785,0,4.785-12.207T14.526,24.288ZM52,18.99v22.07h4.2v5.762H52V54H44.971V46.822H29.712v-6.03q2.026-2.271,4.2-4.968t4.2-5.554q2.026-2.856,3.772-5.75a57.634,57.634,0,0,0,2.966-5.53ZM36.621,41.061h8.35V28.829q-.854,1.587-1.855,3.21t-2.1,3.2q-1.1,1.575-2.222,3.052T36.621,41.061Z" transform="translate(741 2222)" fill="#20287a"/>
  </g>
</svg>
