<svg xmlns="http://www.w3.org/2000/svg" width="108.795" height="103.232" viewBox="0 0 108.795 103.232">
  <g id="Grupo_24032" data-name="Grupo 24032" transform="translate(-710 -16448.385)">
    <g id="Grupo_23150" data-name="Grupo 23150" transform="translate(362.582 14126)">
      <path id="Trazado_12403" data-name="Trazado 12403" d="M-1875.37,363.37h71.6l37.192,50.053-37.192,53.181h-71.6Z" transform="translate(2222.788 1959.013)" fill="#c74653"/>
    </g>
    <path id="Trazado_49049" data-name="Trazado 49049" d="M35.991,61.576H13.159q.547,7.622,9.6,7.622a18.751,18.751,0,0,0,10.151-2.734v7.793q-4.854,2.6-12.612,2.6-8.477,0-13.159-4.7T2.461,59.047q0-8.716,5.059-13.809a16.853,16.853,0,0,1,12.441-5.093q7.656,0,11.843,4.546T35.991,57.03ZM25.977,54.945q0-7.52-6.084-7.52A5.809,5.809,0,0,0,15.4,49.579a9.773,9.773,0,0,0-2.307,5.366Z" transform="translate(736 16449)" fill="#fff"/>
  </g>
</svg>
