<svg xmlns="http://www.w3.org/2000/svg" width="590" height="309.082" viewBox="0 0 590 309.082"><g transform="translate(-30.52 -66.068)"><g transform="translate(30.52 66.067)"><g transform="translate(505.033 50.392)"><path d="M705.935,125.846s-7.1-4.337-14.962,12.562-10.719,26.586-10.719,26.586-2.11,3.558-4.58,1.371-5.974-8.516-9.992-7.209c-4.167,1.356-5.384,6.1-4.333,12.98s2.8,22.025,2.956,23.395c.15,1.346-.55,3.361-2.472,2.141s-13.141-12.845-18.339-7.19.881,24.327,1.505,26.381.252,2.955-.715,3.5-4.37-3.714-7.7-6.89-7.741-6.274-10.466-2.76S623,228.421,637.3,250.93l7.31,10L657,259.791c26.36-4.047,36.779-13.688,37.631-18.052s-4.386-5.648-8.966-6.063-10.029-.171-10.253-1.26.209-1.964,2.167-2.844,20.017-8.6,20.854-16.23-15.3-8.431-17.483-9.075-1.127-2.5-.015-3.27c1.132-.786,13.69-9.437,19.559-13.171s8.644-7.776,6.921-11.8c-1.66-3.886-8.731-2.357-12-2.778s-1.982-4.352-1.982-4.352,5.41-8.527,12.961-25.567-.6-19.556-.6-19.556" transform="translate(-624.628 -125.347)" fill="#f5f5f5"/><g transform="translate(11.611 15.622)"><path d="M700.919,143.724s-.04.127-.139.366c-.107.255-.255.605-.446,1.057l-1.751,4.045c-1.526,3.511-3.77,8.574-6.568,14.819C686.423,176.5,678.551,193.7,669.8,212.655s-16.673,36.138-22.334,48.6c-2.819,6.22-5.1,11.259-6.689,14.763-.786,1.728-1.4,3.076-1.823,4.012-.207.444-.367.789-.485,1.039-.11.234-.178.349-.178.349s.041-.127.139-.366c.108-.254.256-.6.446-1.056.408-.943,1-2.3,1.751-4.044,1.525-3.511,3.77-8.574,6.569-14.819,5.592-12.493,13.463-29.689,22.222-48.654s16.67-36.13,22.331-48.591c2.818-6.221,5.1-11.261,6.689-14.764.786-1.729,1.4-3.078,1.823-4.013l.485-1.039C700.853,143.839,700.919,143.724,700.919,143.724Z" transform="translate(-638.287 -143.724)" fill="#e0e0e0"/></g><g transform="translate(45.594 42.861)"><path d="M678.269,175.768a3.691,3.691,0,0,1,.349.826c.2.539.468,1.329.787,2.306.635,1.958,1.441,4.685,2.274,7.71.806,2.979,1.534,5.673,2.1,7.754q.38,1.382.646,2.346a3.753,3.753,0,0,1,.2.873,3.607,3.607,0,0,1-.355-.824c-.2-.541-.467-1.329-.775-2.312-.616-1.965-1.386-4.7-2.219-7.725-.826-2.971-1.574-5.659-2.152-7.735q-.388-1.381-.659-2.344A3.715,3.715,0,0,1,678.269,175.768Z" transform="translate(-678.263 -175.768)" fill="#e0e0e0"/></g><g transform="translate(53.097 56.708)"><path d="M687.09,200.2c-.036-.111,5.511-2.022,12.388-4.271s12.483-3.982,12.519-3.872-5.509,2.022-12.389,4.271S687.126,200.315,687.09,200.2Z" transform="translate(-687.09 -192.057)" fill="#e0e0e0"/></g><g transform="translate(38.335 91.65)"><path d="M669.724,234.88a3.9,3.9,0,0,1,.912-.082l2.484-.087c2.1-.074,4.991-.187,8.18-.426s6.071-.541,8.156-.78l2.469-.278a3.892,3.892,0,0,1,.913-.054,3.836,3.836,0,0,1-.889.216c-.577.111-1.415.256-2.455.411-2.078.315-4.963.671-8.163.9s-6.105.306-8.207.3c-1.051,0-1.9-.019-2.488-.047A3.825,3.825,0,0,1,669.724,234.88Z" transform="translate(-669.724 -233.161)" fill="#e0e0e0"/></g><g transform="translate(27.172 74.966)"><path d="M656.6,213.536a3.3,3.3,0,0,1,.515.672c.309.446.743,1.1,1.273,1.913,1.059,1.625,2.5,3.886,4.065,6.4s2.966,4.8,3.961,6.462c.5.833.893,1.511,1.16,1.984a3.279,3.279,0,0,1,.377.757,3.3,3.3,0,0,1-.515-.671c-.309-.447-.743-1.1-1.273-1.913-1.058-1.625-2.5-3.887-4.065-6.4s-2.966-4.8-3.961-6.461c-.5-.833-.893-1.511-1.159-1.984A3.275,3.275,0,0,1,656.6,213.536Z" transform="translate(-656.593 -213.535)" fill="#e0e0e0"/></g><g transform="translate(10.943 98.482)"><path d="M637.5,241.2a5.332,5.332,0,0,1,.649.867c.434.646.983,1.466,1.639,2.447,1.369,2.076,3.234,4.959,5.273,8.158s3.866,6.108,5.171,8.225l1.526,2.518a5.335,5.335,0,0,1,.512.954,5.3,5.3,0,0,1-.649-.866l-1.639-2.446c-1.368-2.076-3.234-4.959-5.274-8.159s-3.865-6.107-5.169-8.224l-1.527-2.519A5.4,5.4,0,0,1,637.5,241.2Z" transform="translate(-637.501 -241.198)" fill="#e0e0e0"/></g><g transform="translate(25.518 118.027)"><path d="M654.646,267.162a6.157,6.157,0,0,1,1.152-.131l3.145-.222c2.655-.189,6.321-.461,10.36-.873s7.688-.87,10.327-1.221l3.126-.412a6.094,6.094,0,0,1,1.154-.1,6.04,6.04,0,0,1-1.129.264c-.731.144-1.793.333-3.108.545-2.631.427-6.279.937-10.328,1.344s-7.723.639-10.385.752c-1.332.053-2.41.084-3.156.088A6.116,6.116,0,0,1,654.646,267.162Z" transform="translate(-654.646 -264.191)" fill="#e0e0e0"/></g></g><path d="M110.659,200.688c19.83-13.236,24.671-38.279,24.247-60.86-.071-3.771.41-7.737-1.354-11.069s-5.967-5.655-9.409-4.119c-2.855,1.274-4.142,4.51-5.77,7.179a22.233,22.233,0,0,1-9.083,8.306c-2.451,1.209-5.47,1.925-7.85.582-3.266-1.842-3.584-6.336-3.5-10.086q.228-10.472.458-20.948c.082-3.746.154-7.572-.972-11.146s-3.683-6.917-7.279-7.969-8.1.937-8.915,4.593c-.342,1.522-.051,3.11-.18,4.664s-.892,3.264-2.4,3.676c-1.521.417-3.024-.67-4.142-1.783-3.86-3.842-6.444-8.756-8.853-13.64s-4.745-9.881-8.237-14.061S49.062,66.484,43.63,66.1,32.352,68.939,30.9,74.188s1.58,10.668,4.912,15a84.192,84.192,0,0,0,17.386,16.864c1.184.856,2.467,1.782,2.9,3.176.785,2.51-1.653,4.957-4.164,5.741-2.845.887-5.911.551-8.876.851s-6.194,1.54-7.357,4.284c-1.613,3.808,1.569,7.871,4.722,10.548a72.81,72.81,0,0,0,21.3,12.561c2.778,1.052,5.7,1.979,7.924,3.949s3.529,5.359,2.128,7.977-4.908,3.415-7.826,2.836-5.511-2.186-8.283-3.266c-5.188-2.021-11.931-1.766-15.342,2.634-2.242,2.893-2.5,6.964-1.443,10.467a27.27,27.27,0,0,0,5.611,9.347,72.951,72.951,0,0,0,30.836,22.087c12.04,4.323,23.237,5.612,35.333,1.45" transform="translate(-30.52 -66.067)" fill="#ebebeb"/><g transform="translate(5.941 3.062)"><path d="M110.15,201.664c-3.191-11.437-11.926-38.345-17.13-51q-1.969-4.737-3.889-9.355c-1.282-3.07-2.554-6.109-3.984-9.008a167.305,167.305,0,0,0-9.182-16.195c-3.174-5.012-6.37-9.654-9.392-13.976s-5.932-8.285-8.733-11.792A134.378,134.378,0,0,0,43.395,74.771c-1.845-1.7-3.318-2.975-4.328-3.828l-1.153-.961c-.262-.213-.405-.312-.405-.312s.118.128.367.356l1.117,1c.984.88,2.433,2.179,4.251,3.9A140.557,140.557,0,0,1,57.526,90.585C60.3,94.1,63.177,98.076,66.188,102.4s6.18,8.977,9.335,13.987a168.224,168.224,0,0,1,9.125,16.158c1.42,2.888,2.68,5.906,3.963,8.983s2.573,6.2,3.886,9.352c5.2,12.647,13.939,39.527,17.15,50.928" transform="translate(-37.509 -69.67)" fill="#e0e0e0"/></g><g transform="translate(53.427 24.491)"><path d="M93.382,136.021a9.077,9.077,0,0,0,.37-1.6c.207-1.034.462-2.538.752-4.4.584-3.724,1.22-8.893,1.908-14.6s1.412-10.85,2.075-14.553c.326-1.852.608-3.348.818-4.38a9.117,9.117,0,0,0,.262-1.618,9.125,9.125,0,0,0-.476,1.568c-.277,1.018-.62,2.507-1,4.355-.767,3.694-1.556,8.849-2.244,14.558-.674,5.653-1.284,10.769-1.741,14.608-.232,1.788-.425,3.274-.575,4.421A8.948,8.948,0,0,0,93.382,136.021Z" transform="translate(-93.37 -94.878)" fill="#e0e0e0"/></g><g transform="translate(4.765 55.876)"><path d="M36.125,131.824a1.758,1.758,0,0,0,.5.089l1.443.145c1.253.12,3.065.29,5.3.573,4.465.53,10.609,1.488,17.335,2.843s12.761,2.868,17.091,4.085c2.169.593,3.911,1.121,5.117,1.482l1.392.409a1.729,1.729,0,0,0,.5.106,1.732,1.732,0,0,0-.462-.214c-.372-.139-.82-.309-1.358-.509-1.186-.425-2.914-1.014-5.074-1.658-4.312-1.318-10.347-2.884-17.092-4.255s-12.914-2.256-17.4-2.685c-2.242-.233-4.064-.343-5.323-.4l-1.452-.04A1.754,1.754,0,0,0,36.125,131.824Z" transform="translate(-36.125 -131.799)" fill="#e0e0e0"/></g><g transform="translate(73.867 58.324)"><path d="M117.418,195.841a3.022,3.022,0,0,0,.331-.587l.852-1.736c.734-1.509,1.743-3.718,2.957-6.463,2.429-5.488,5.553-13.169,8.891-21.69s6.4-16.22,8.733-21.742c1.157-2.707,2.1-4.921,2.789-6.53l.754-1.777a3.052,3.052,0,0,0,.229-.637,3.037,3.037,0,0,0-.332.589c-.22.451-.5,1.025-.851,1.734-.734,1.509-1.743,3.718-2.955,6.463-2.431,5.488-5.554,13.169-8.893,21.694s-6.4,16.216-8.733,21.739c-1.156,2.707-2.1,4.921-2.789,6.53-.309.727-.559,1.316-.754,1.779A3.019,3.019,0,0,0,117.418,195.841Z" transform="translate(-117.415 -134.678)" fill="#e0e0e0"/></g><g transform="translate(9.324 97.882)"><path d="M41.488,181.217a3.3,3.3,0,0,0,.644.26l1.878.638,6.92,2.306c5.838,1.953,13.871,4.75,22.737,7.862s16.929,5.854,22.8,7.711c2.938.931,5.321,1.661,6.977,2.135l1.91.539a3.171,3.171,0,0,0,.677.15,3.233,3.233,0,0,0-.644-.259l-1.877-.638c-1.7-.568-4.048-1.349-6.919-2.305-5.839-1.953-13.871-4.753-22.741-7.865s-16.926-5.852-22.8-7.709c-2.938-.93-5.321-1.661-6.977-2.135l-1.91-.538A3.218,3.218,0,0,0,41.488,181.217Z" transform="translate(-41.488 -181.214)" fill="#e0e0e0"/></g><g transform="translate(378.779 3.655)"><path d="M503.863,70.367H611.035L590.067,85.275V97.717a23.184,23.184,0,0,1-23.355,23.011H499.46a23.184,23.184,0,0,1-23.355-23.011h0A27.557,27.557,0,0,1,503.863,70.367Z" transform="translate(-476.105 -70.367)" fill="#f5f5f5"/><g transform="translate(15.958 16.415)"><path d="M574.8,89.9c0,.122-17.893.222-39.96.222s-39.963-.1-39.963-.222,17.89-.221,39.963-.221S574.8,89.776,574.8,89.9Z" transform="translate(-494.877 -89.677)" fill="#e0e0e0"/></g><g transform="translate(15.958 24.695)"><path d="M574.8,99.639c0,.122-17.893.222-39.96.222s-39.963-.1-39.963-.222,17.89-.221,39.963-.221S574.8,99.517,574.8,99.639Z" transform="translate(-494.877 -99.418)" fill="#e0e0e0"/></g></g><g transform="translate(117.13 258.721)"><path d="M295.125,370.42H168.309l20.658,14.908v29.328a6.124,6.124,0,0,0,6.124,6.125H295.125a6.125,6.125,0,0,0,6.125-6.125V376.544A6.125,6.125,0,0,0,295.125,370.42Z" transform="translate(-168.309 -370.42)" fill="#f5f5f5"/><g transform="translate(36.092 20.505)"><path d="M296.2,394.764c0,.122-19.127.221-42.715.221s-42.719-.1-42.719-.221,19.123-.222,42.719-.222S296.2,394.641,296.2,394.764Z" transform="translate(-210.767 -394.542)" fill="#e0e0e0"/></g><g transform="translate(36.092 31.766)"><path d="M296.2,408.01c0,.122-19.127.222-42.715.222s-42.719-.1-42.719-.222,19.123-.221,42.719-.221S296.2,407.888,296.2,408.01Z" transform="translate(-210.767 -407.789)" fill="#e0e0e0"/></g></g></g><g transform="translate(329.052 148.032)"><g transform="translate(22.945 32.224)"><rect width="214.362" height="186.743" rx="38.787" fill="#e8505b"/><g opacity="0.4"><rect width="214.362" height="186.743" rx="38.787"/></g><g transform="translate(213.58 65.105)"><path d="M660.674,276.984h32.1l-32.831,32.832Z" transform="translate(-659.946 -276.984)" fill="#e8505b"/><g opacity="0.4"><path d="M660.674,276.984h32.1l-32.831,32.832Z" transform="translate(-659.946 -276.984)"/></g></g></g><g transform="translate(0 86.893)"><path d="M399.522,295.327l-13.459-15.263c-3.64-3.639-4.885-5.4-4.16-6.032.967-.851.557-.567,8.114,5.106,0,0-10.715-8.191-7-8.242.655-.008,2.472,1.054,4.42,2.333-2.651-2.256-3.385-3.772-2.883-4.5.865-1.251,7.419,3.291,10.435,5.482-2.469-1.84-7.167-5.406-7.995-6.523-1.133-1.529,1.164-1.407,3.035-.768,2.1.717,13.7,6.638,17.139,8.172a2.22,2.22,0,0,0,3.2-1.084c1.265-5.315,5.089-8.779,6.565-9.231s2.591,1.426,1.548,2.779a20.384,20.384,0,0,0-2.265,5.047,13.064,13.064,0,0,0-.686,4.357c.029,1.717.121,3.17.23,4.4l12.295,16.878-20.568,11.928Z" transform="translate(-381.705 -264.707)" fill="#b78876"/><g transform="translate(2.826 8.738)"><path d="M395.183,283.019c-.139.193-2.529-1.451-5.34-3.672s-4.962-4.169-4.806-4.347,2.546,1.465,5.34,3.673S395.321,282.827,395.183,283.019Z" transform="translate(-385.029 -274.986)" fill="#aa6550"/></g><g transform="translate(4.269 6.18)"><path d="M398.059,279.884c-.136.195-2.781-1.414-5.91-3.592s-5.553-4.1-5.417-4.3,2.781,1.413,5.909,3.592S398.194,279.689,398.059,279.884Z" transform="translate(-386.727 -271.977)" fill="#aa6550"/></g><g transform="translate(6.682 3.89)"><path d="M400.386,276.625c-.133.2-2.662-1.284-5.649-3.306s-5.3-3.822-5.167-4.018,2.662,1.284,5.649,3.306S400.52,276.429,400.386,276.625Z" transform="translate(-389.566 -269.283)" fill="#aa6550"/></g><g transform="translate(17.817 18.977)"><path d="M420.045,287.031l49.029,62.177-11.229,26.141S444.4,372.371,440.32,366.7s-37.656-68.031-37.656-68.031Z" transform="translate(-402.664 -287.031)" fill="#b78876"/></g></g><g transform="translate(94.359)"><g transform="translate(0 0.392)"><g transform="translate(54.166 18.474)"><path d="M567.566,184.682c3.529,3.057,3.517,8.448,3.109,13.1s-.718,9.948,2.5,13.327c2.655,2.786,7.474,4.006,8.094,7.8a4.376,4.376,0,0,1-7.235,3.968c1.037,3,.32,6.751-2.282,8.568s-6.957.7-7.764-2.37a3.851,3.851,0,1,1-7.565,1.375" transform="translate(-556.426 -184.682)" fill="#263238"/></g><g transform="translate(0 8.466)"><path d="M507.488,214.3a4.635,4.635,0,1,1-8.547-3.573c.809-1.768,2.722-3.044,2.9-4.98.222-2.344-2.167-4.014-4.289-5.036s-4.6-2.35-4.833-4.694c-.222-2.262,1.8-4.022,3.5-5.536s3.365-3.853,2.319-5.871c-.535-1.032-1.647-1.627-2.367-2.541-1.591-2.022-.759-5.244,1.268-6.831s4.837-1.808,7.37-1.352a69.692,69.692,0,0,1,7.384,2.239,30.777,30.777,0,0,0,24.518-3.212" transform="translate(-492.706 -172.909)" fill="#263238"/></g><g transform="translate(6.073)"><g transform="translate(1.513 6.162)"><path d="M523.883,268.711a17.064,17.064,0,0,0,20.056-13.089L556,200.314a24.545,24.545,0,0,0-18.923-29.667l-1.266-.185a24.709,24.709,0,0,0-27.666,18.914c-2.683,11.674-5.5,24.606-6.347,30.955-1.76,13.145,11.066,17.109,11.066,17.109l-2.3,11.074a17.063,17.063,0,0,0,13.323,20.2Z" transform="translate(-501.63 -170.199)" fill="#b78876"/></g><g transform="translate(9.886 24.817)"><g transform="translate(0 5.868)"><g transform="translate(0.473 1.874)"><path d="M512.066,202.7a1.893,1.893,0,0,0,1.53,2.155,1.811,1.811,0,0,0,2.179-1.407,1.894,1.894,0,0,0-1.528-2.156A1.812,1.812,0,0,0,512.066,202.7Z" transform="translate(-512.037 -201.253)" fill="#263238"/></g><path d="M511.5,200.536c.2.278,1.77-.564,3.785-.264,2.018.271,3.346,1.525,3.6,1.31.123-.094-.048-.569-.624-1.132a5.2,5.2,0,0,0-2.838-1.352,5,5,0,0,0-3.059.514C511.676,200,511.4,200.41,511.5,200.536Z" transform="translate(-511.48 -199.048)" fill="#263238"/><g transform="translate(19.766 3.279)"><g transform="translate(0.418 1.867)"><path d="M535.253,206.547a1.9,1.9,0,0,0,1.53,2.156,1.812,1.812,0,0,0,2.18-1.407,1.9,1.9,0,0,0-1.529-2.156A1.812,1.812,0,0,0,535.253,206.547Z" transform="translate(-535.224 -205.101)" fill="#263238"/></g><path d="M534.752,204.393c.2.278,1.772-.564,3.786-.264,2.018.271,3.347,1.525,3.6,1.311.122-.094-.047-.57-.626-1.133a5.189,5.189,0,0,0-2.838-1.352,5,5,0,0,0-3.059.515C534.93,203.856,534.654,204.268,534.752,204.393Z" transform="translate(-534.733 -202.905)" fill="#263238"/></g><g transform="translate(5.335 1.982)"><path d="M522.7,218.048a13.452,13.452,0,0,0-3.189-1.071c-.507-.128-.979-.3-1.015-.666a2.659,2.659,0,0,1,.567-1.476q1-1.762,2.1-3.7c2.933-5.273,5.135-9.639,4.922-9.755s-2.764,4.063-5.7,9.336c-.711,1.3-1.389,2.543-2.036,3.731a3.007,3.007,0,0,0-.563,1.982,1.3,1.3,0,0,0,.736.877,3.554,3.554,0,0,0,.856.249A13.287,13.287,0,0,0,522.7,218.048Z" transform="translate(-517.756 -201.379)" fill="#263238"/></g></g><g transform="translate(20.419 1.626)"><path d="M535.5,195.088c.119.577,2.17.612,4.494,1.244,2.337.585,4.143,1.557,4.529,1.111.174-.214-.083-.779-.776-1.423a8.112,8.112,0,0,0-6.875-1.794C535.957,194.448,535.456,194.815,535.5,195.088Z" transform="translate(-535.5 -194.056)" fill="#263238"/></g><g transform="translate(1.585)"><path d="M513.375,193.774c.287.51,1.746.238,3.42.461,1.681.163,3.04.759,3.436.327.177-.211.021-.7-.534-1.227a5,5,0,0,0-5.524-.635C513.514,193.084,513.251,193.527,513.375,193.774Z" transform="translate(-513.345 -192.144)" fill="#263238"/></g></g><g transform="translate(43.74 13.108)"><path d="M551.3,185.064l.064.067a10.437,10.437,0,0,1,2.86,7.237c0,.094,0,.185,0,.27-.035,3.818-.685,7.612-.683,11.43s.74,7.81,3.127,10.79c.982,1.226,2.885,2.249,4,1.145a3.241,3.241,0,0,0,.719-1.647c2.022-8.935,5.665-16.592,7.032-26.044a8.052,8.052,0,0,0-2.356-6.969c-1.771-1.708-3.971-3.532-6.322-2.813s-5.8,4.418-7.764,5.913" transform="translate(-551.305 -178.371)" fill="#263238"/></g><g transform="translate(48.188 41.468)"><path d="M558.936,211.831c.238-.064,9.407-1.347,7.807,7.583s-10.235,5.481-10.205,5.222S558.936,211.831,558.936,211.831Z" transform="translate(-556.538 -211.732)" fill="#b78876"/><g transform="translate(3.32 3.224)"><path d="M560.458,222.31c.044-.022.136.137.377.3a1.58,1.58,0,0,0,1.159.232c1-.177,2.068-1.533,2.4-3.134a5.213,5.213,0,0,0-.037-2.3,1.825,1.825,0,0,0-.955-1.4.805.805,0,0,0-.995.262c-.165.229-.139.417-.19.423-.03.018-.165-.184-.027-.54a1.012,1.012,0,0,1,.451-.5,1.192,1.192,0,0,1,.9-.073,2.22,2.22,0,0,1,1.377,1.676,5.356,5.356,0,0,1,.093,2.585c-.379,1.789-1.6,3.308-2.96,3.45a1.7,1.7,0,0,1-1.381-.491C560.435,222.529,560.423,222.32,560.458,222.31Z" transform="translate(-560.443 -215.525)" fill="#aa6550"/></g></g><path d="M552.129,177.653c2.734-3.266-2.563-9.306-6.786-11.35s-10.372-.74-14.992.077c-2.916.515-5.875,1.4-8.784.846a20.009,20.009,0,0,1-5.474-2.282,14.679,14.679,0,0,0-5.573-1.974,5.471,5.471,0,0,0-5.16,2.3c-1.01,1.709-.309,4.357,1.6,4.912a4.452,4.452,0,1,0-2.37,7.992c-1.134-1.154-3.324.157-3.4,1.773s1.2,2.986,2.57,3.845c3.5,2.191,7.94,2.3,12,1.568s7.952-2.241,12-3.078,10.841-2.407,14.5-.484c2.691,1.416,4.165,5.123,5.877,4.6a5.544,5.544,0,0,0,3.43-3.619,16.049,16.049,0,0,0,.571-5.133" transform="translate(-499.851 -162.95)" fill="#263238"/></g></g><g transform="translate(59.088 17.558)"><path d="M578.966,222.138a1.354,1.354,0,0,0,.469-.2,2.615,2.615,0,0,0,.967-1.1,3.872,3.872,0,0,0,.293-2.307,4.684,4.684,0,0,0-1.606-2.625,11.575,11.575,0,0,0-3.218-1.874,21.379,21.379,0,0,1-3.764-1.818,7.54,7.54,0,0,1-2.733-3.547,12.386,12.386,0,0,1-.791-4.83c.091-3.405,1.033-6.588,1.265-9.588a12.368,12.368,0,0,0-1.432-7.761,7.226,7.226,0,0,0-4.238-3.189,5.146,5.146,0,0,0-1.458-.145,2.124,2.124,0,0,0-.5.077,7.561,7.561,0,0,1,1.917.239,7.187,7.187,0,0,1,4.012,3.189,12.2,12.2,0,0,1,1.288,7.554c-.247,2.945-1.2,6.123-1.3,9.615a12.736,12.736,0,0,0,.832,5,7.921,7.921,0,0,0,2.91,3.727,21.155,21.155,0,0,0,3.854,1.821,11.48,11.48,0,0,1,3.152,1.769,4.454,4.454,0,0,1,1.568,2.431,3.749,3.749,0,0,1-.2,2.186A2.929,2.929,0,0,1,578.966,222.138Z" transform="translate(-562.216 -183.143)" fill="#455a64"/></g><g transform="translate(5.14 6.773)"><path d="M506.5,171.118a2.035,2.035,0,0,0-.388-.2,2.716,2.716,0,0,0-.5-.2,3.782,3.782,0,0,0-.718-.183,5.38,5.38,0,0,0-4.505,1.378h0l-.006.006a7.2,7.2,0,0,0-1.6,5.323,8.871,8.871,0,0,0,3.28,6.058,13.7,13.7,0,0,0,7.43,2.99,30.324,30.324,0,0,0,8.824-.541,39.863,39.863,0,0,0,13.008-5.025,40.294,40.294,0,0,1,5.368-2.788,14.438,14.438,0,0,1,5.1-1.043,15.177,15.177,0,0,1,7.328,1.732,26.1,26.1,0,0,1,2.37,1.5,10.534,10.534,0,0,0-2.285-1.653,14.972,14.972,0,0,0-7.417-1.9,14.627,14.627,0,0,0-5.236,1.013,39.756,39.756,0,0,0-5.44,2.776,40.02,40.02,0,0,1-12.886,4.941,30.18,30.18,0,0,1-8.689.55,13.355,13.355,0,0,1-7.221-2.859,8.546,8.546,0,0,1-3.2-5.782,6.964,6.964,0,0,1,1.463-5.124l-.006.007a5.3,5.3,0,0,1,4.3-1.424A10.429,10.429,0,0,1,506.5,171.118Z" transform="translate(-498.752 -170.456)" fill="#455a64"/></g><g transform="translate(17.857)"><path d="M513.722,162.489a5.091,5.091,0,0,0,.314,2.009,8.441,8.441,0,0,0,3.519,4.235,10.58,10.58,0,0,0,3.564,1.477,15.155,15.155,0,0,0,4.414.231c3.121-.235,6.389-1.3,9.816-2.191s6.848-1.349,9.806-.559a12.85,12.85,0,0,1,6.664,4.326,13.341,13.341,0,0,1,2.553,4.8c.343,1.251.382,1.977.437,1.971a2.315,2.315,0,0,0-.024-.525,10.265,10.265,0,0,0-.242-1.491,13.342,13.342,0,0,0-9.282-9.481c-3.06-.84-6.585-.371-10.022.524-3.454.9-6.683,1.963-9.739,2.214a14.963,14.963,0,0,1-4.3-.183,10.417,10.417,0,0,1-3.468-1.379,8.473,8.473,0,0,1-3.524-4.025A11.755,11.755,0,0,1,513.722,162.489Z" transform="translate(-513.713 -162.489)" fill="#455a64"/></g><g transform="translate(21.985 55.151)"><path d="M518.791,228.629a9.244,9.244,0,0,0,.691,2.544,3.119,3.119,0,0,0,1.907,1.715,2.8,2.8,0,0,0,2.582-.778,4.475,4.475,0,0,0,1.2-2.5c.137-.838-.036-1.91-.841-2.18a2.123,2.123,0,0,0-1.05.012l-4.709.851" transform="translate(-518.569 -227.367)" fill="#aa6550"/></g><g transform="translate(21.291 54.911)"><path d="M519.5,232.156a6.413,6.413,0,0,0,2.342.443,3.381,3.381,0,0,0,2.2-1,3.562,3.562,0,0,0,.939-2.745,3.185,3.185,0,0,0-.166-.749c-.111-.23-.083-.212-.274-.243-.187-.009-.507.033-.762.049l-.784.06c-1.022.077-1.942.133-2.716.171a8.079,8.079,0,0,1-2.521-.043,8.06,8.06,0,0,1,2.469-.514c.768-.108,1.682-.224,2.7-.34l.781-.087a7.973,7.973,0,0,1,.874-.071,1.032,1.032,0,0,1,.621.218,1.217,1.217,0,0,1,.348.517,3.8,3.8,0,0,1,.219.953,4.156,4.156,0,0,1-1.211,3.338,3.8,3.8,0,0,1-2.7,1.046,3.572,3.572,0,0,1-1.852-.514C519.617,232.4,519.466,232.192,519.5,232.156Z" transform="translate(-517.753 -227.085)" fill="#263238"/></g><g transform="translate(17.957 73.796)"><path d="M514.691,249.3s8.567,3.25,16.908.887c0,0-6.291,5.274-17.768,3.25Z" transform="translate(-513.831 -249.3)" fill="#aa6550"/></g></g><g transform="translate(91.413 184.599)"><path d="M524.076,390.715a9.4,9.4,0,0,1-1.176-.894c-.365-.3-.816-.667-1.367-1.056s-1.146-.87-1.865-1.319c-.7-.47-1.477-.981-2.348-1.466-.847-.524-1.8-.991-2.795-1.5a43.9,43.9,0,0,0-13.876-4.149c-1.112-.116-2.168-.249-3.163-.276-.993-.073-1.919-.071-2.767-.064-.847-.02-1.611.05-2.283.078s-1.25.078-1.721.132a9.518,9.518,0,0,1-1.474.1,9.3,9.3,0,0,1,1.454-.273,17.091,17.091,0,0,1,1.723-.207c.675-.052,1.443-.145,2.3-.145.853-.026,1.788-.047,2.79.01,1,.012,2.071.133,3.2.238a41.961,41.961,0,0,1,14.007,4.189c1,.529,1.955,1.013,2.8,1.555.87.5,1.64,1.032,2.338,1.523.713.468,1.3.967,1.84,1.381a17.062,17.062,0,0,1,1.327,1.12A9.372,9.372,0,0,1,524.076,390.715Z" transform="translate(-489.24 -379.646)" fill="#fafafa"/></g><g transform="translate(108.935 90.038)"><path d="M509.853,268.407" transform="translate(-509.853 -268.407)" fill="none" stroke="#4e585d" stroke-miterlimit="10" stroke-width="0.05"/></g><g transform="translate(20.773 78.552)"><g transform="translate(0 19.689)"><path d="M461.655,331.825l6.975-30.2c2.668-11.358,5.829-22.273,11.14-23.566v3.515L477.5,367.863s-14.211,16.184-32.332,7.187c-5.661-2.809-15.991-22.574-15.991-22.574s-24-42.884-23-44.83,15.684-20.869,17.184-21.81Z" transform="translate(-406.142 -278.056)" fill="#e8505b"/></g><g transform="translate(70.387 9.306)"><path d="M545.8,267.712c13.854,2.655,29.458,10.738,36.635,31.438,2.622,7.561,21.7,63.331,21.7,63.331l-32.536-.676-5.3-11.5,2.585,18.651,2.205,26.612-82.149,1.381.576-40.083.788-79.736s.924-1.21,15.088-9.024C514.193,263.253,545.8,267.712,545.8,267.712Z" transform="translate(-488.943 -265.842)" fill="#e8505b"/></g><g transform="translate(135.441 64.475)" opacity="0.2"><path d="M565.471,330.742c1.348,16.832,2.9,22.031,4.25,38.863a14.875,14.875,0,0,0,.887,4.679,5.034,5.034,0,0,0,3.4,3.1c2.393.487,5.5,2.217,6.178-.13l-2.271-16.211a31.933,31.933,0,0,0-2.242-6.842c-5.041-11.191-6.907-11.847-10.2-23.458" transform="translate(-565.471 -330.742)"/></g><g transform="translate(86.838)"><path d="M508.3,275.093l.274-1.749,2.625-16.795a1.956,1.956,0,0,1,2.1-1.647l32.345,2.7a3.717,3.717,0,0,1,3.4,3.979l-.721,9.76-10.1,13.177-14.543,2.269" transform="translate(-508.296 -254.895)" fill="#e8505b"/></g><g transform="translate(70.378 51.78)"><path d="M489.155,315.808c.122,0,.221,13.158.221,29.386s-.1,29.388-.221,29.388-.222-13.155-.222-29.388S489.032,315.808,489.155,315.808Z" transform="translate(-488.933 -315.808)" fill="#263238"/></g><g transform="translate(128.305 29.537)"><path d="M582.506,368.063a.818.818,0,0,1-.1-.191l-.267-.577-.985-2.236c-.854-1.983-2.062-4.794-3.55-8.254-2.97-7.016-7.049-16.653-11.555-27.3l-6.313-15.05a28.178,28.178,0,0,1-2.089-6.833,37.454,37.454,0,0,1-.564-6.2,25.128,25.128,0,0,1,1.294-8.885c.1-.249.176-.487.267-.706l.295-.594a5.219,5.219,0,0,1,.509-.9l.361-.525a.766.766,0,0,1,.135-.169,16.453,16.453,0,0,0-1.405,2.956,25.847,25.847,0,0,0-1.143,8.821,32.41,32.41,0,0,0,2.716,12.879l6.346,15.037c4.459,10.664,8.5,20.319,11.436,27.348,1.433,3.483,2.6,6.313,3.419,8.309q.578,1.438.91,2.268l.226.594A.8.8,0,0,1,582.506,368.063Z" transform="translate(-557.076 -289.642)" fill="#263238"/></g><g transform="translate(64.271 14.105)"><path d="M554.806,271.488a10.28,10.28,0,0,1-.945.819,14.454,14.454,0,0,1-3.1,1.806,23.394,23.394,0,0,1-5.465,1.533,67.049,67.049,0,0,1-7.479.737c-2.784.125-5.832.069-9.095.133a42.067,42.067,0,0,0-10.285,1.252,19,19,0,0,0-9.673,5.7,13.264,13.264,0,0,0-2.685,5.306,11.316,11.316,0,0,0,.1,6.081,9.636,9.636,0,0,0,1.424,2.719,7.13,7.13,0,0,0,2.3,1.934,4.952,4.952,0,0,0,2.838.6,3.877,3.877,0,0,0,2.494-1.279,6.732,6.732,0,0,0,1.256-5.378,8.944,8.944,0,0,0-.808-2.656,13.149,13.149,0,0,0-1.511-2.281,16.018,16.018,0,0,0-8.715-5.163,18.528,18.528,0,0,0-8.922.1,24.39,24.39,0,0,0-6.83,2.92,31.694,31.694,0,0,0-4.524,3.365c-1.167,1.023-1.993,1.9-2.567,2.484l-.634.681a1.656,1.656,0,0,1-.228.222,28.176,28.176,0,0,1,3.314-3.515,30.849,30.849,0,0,1,4.51-3.446,24.383,24.383,0,0,1,6.884-3.014,18.782,18.782,0,0,1,9.081-.156,16.359,16.359,0,0,1,8.946,5.261,13.521,13.521,0,0,1,1.57,2.356,9.389,9.389,0,0,1,.854,2.78,8.865,8.865,0,0,1-.052,2.972,5.791,5.791,0,0,1-1.3,2.758,4.307,4.307,0,0,1-2.766,1.423,5.4,5.4,0,0,1-3.092-.642,7.566,7.566,0,0,1-2.441-2.054,10.045,10.045,0,0,1-1.5-2.856,11.741,11.741,0,0,1-.1-6.321,13.674,13.674,0,0,1,2.781-5.479,19.366,19.366,0,0,1,9.9-5.82,42.193,42.193,0,0,1,10.384-1.225c3.274-.048,6.317.026,9.089-.079a69.171,69.171,0,0,0,7.452-.668,23.841,23.841,0,0,0,5.438-1.448,15.335,15.335,0,0,0,3.113-1.72c.34-.226.568-.439.739-.562A1.743,1.743,0,0,1,554.806,271.488Z" transform="translate(-481.748 -271.488)" fill="#fafafa"/></g><g transform="translate(131.582 47.649)"><path d="M594.788,312.783a1.146,1.146,0,0,1-.362.06c-.238.02-.59.065-1.046.075a32.3,32.3,0,0,1-3.852-.092c-1.624-.117-3.546-.366-5.67-.658s-4.458-.615-6.917-.746a26.943,26.943,0,0,0-6.884.518,17.526,17.526,0,0,0-5.248,2,15.124,15.124,0,0,0-3.876,3.438c-.013-.008.049-.117.181-.318a7.34,7.34,0,0,1,.617-.851,11.74,11.74,0,0,1,2.915-2.536,17.163,17.163,0,0,1,5.322-2.129,26.342,26.342,0,0,1,7-.562c2.487.132,4.83.473,6.952.784s4.03.593,5.641.751,2.917.224,3.823.23A10.346,10.346,0,0,1,594.788,312.783Z" transform="translate(-560.931 -310.948)" fill="#fafafa"/></g><g transform="translate(70.796 64.008)"><path d="M563.638,353.777a17.508,17.508,0,0,0-4.881-.414,26.7,26.7,0,0,0-5.662,1.012c-2.174.587-4.592,1.448-7.311,2.283a30.1,30.1,0,0,1-9.163,1.595,26.371,26.371,0,0,1-10.44-2.167,25.937,25.937,0,0,1-9.521-6.921,19.991,19.991,0,0,1-3.372-5.289,12.149,12.149,0,0,1-.972-6.382,9.248,9.248,0,0,1,3.018-5.687,6.627,6.627,0,0,1,2.861-1.465,6.738,6.738,0,0,1,5.89,1.59,5.111,5.111,0,0,1,1.533,2.647,5.244,5.244,0,0,1-.23,2.985A7.275,7.275,0,0,1,523.795,340a12.779,12.779,0,0,1-4.668,2.965,13.867,13.867,0,0,1-2.56.7c-.428.079-.849.171-1.271.237l-1.263.146a27.488,27.488,0,0,1-9.277-.65,28.9,28.9,0,0,1-7.164-2.756,26.1,26.1,0,0,1-4.767-3.3l-.848-.743-.7-.7a12.616,12.616,0,0,1-1.052-1.137l-.609-.733a1.7,1.7,0,0,1-.2-.258,1.742,1.742,0,0,1,.23.23l.641.7a13.653,13.653,0,0,0,1.077,1.1l.707.684.856.723a26.636,26.636,0,0,0,4.773,3.21,29.071,29.071,0,0,0,7.118,2.669,27.331,27.331,0,0,0,9.167.589l1.245-.15c.416-.067.831-.16,1.251-.239a13.513,13.513,0,0,0,2.5-.695,12.419,12.419,0,0,0,4.511-2.883,6.871,6.871,0,0,0,1.5-2.3,4.819,4.819,0,0,0,.207-2.751,5.326,5.326,0,0,0-3.962-3.81,6.087,6.087,0,0,0-2.952-.089,6.207,6.207,0,0,0-2.672,1.374,8.816,8.816,0,0,0-2.865,5.414,11.733,11.733,0,0,0,.939,6.149,19.609,19.609,0,0,0,3.3,5.178,25.614,25.614,0,0,0,9.353,6.829,26.108,26.108,0,0,0,10.28,2.175,29.99,29.99,0,0,0,9.072-1.528c2.714-.813,5.147-1.655,7.337-2.223a26.218,26.218,0,0,1,5.719-.945,17.575,17.575,0,0,1,2.117.037c.608.088,1.126.131,1.535.225l.926.231A1.648,1.648,0,0,1,563.638,353.777Z" transform="translate(-489.425 -330.193)" fill="#fafafa"/></g><g transform="translate(57.581 66.654)"><path d="M486.611,345.181c-.071.03-.462-.9-1.287-2.285a22.205,22.205,0,0,0-9.076-8.459c-1.44-.727-2.394-1.051-2.369-1.124a2.208,2.208,0,0,1,.695.156,13.886,13.886,0,0,1,1.81.685,19.8,19.8,0,0,1,9.213,8.588,13.782,13.782,0,0,1,.811,1.757A2.205,2.205,0,0,1,486.611,345.181Z" transform="translate(-473.878 -333.305)" fill="#fafafa"/></g><g transform="translate(30.416 60.851)"><path d="M448.836,380.538a1.051,1.051,0,0,1-.133-.211l-.351-.641c-.3-.566-.744-1.4-1.288-2.5a58.136,58.136,0,0,1-3.892-9.573,31.079,31.079,0,0,1-1.219-7.048,22.147,22.147,0,0,1,.163-4,23.2,23.2,0,0,1,1.007-4.124,18.023,18.023,0,0,1,4.987-7.551,12.209,12.209,0,0,1,9.074-3.183,6.745,6.745,0,0,1,4.471,2.174,5.5,5.5,0,0,1,1.259,4.647,4.1,4.1,0,0,1-1.2,2.1,4.859,4.859,0,0,1-2.077,1.133,6.094,6.094,0,0,1-4.439-.538,10.211,10.211,0,0,1-3.247-2.764,15.006,15.006,0,0,1-2.04-3.454,15.246,15.246,0,0,1-1.136-7.053,14.336,14.336,0,0,1,1.687-5.652,14.876,14.876,0,0,1,2.664-3.571,13.749,13.749,0,0,1,2.189-1.77c.265-.182.486-.292.627-.377a1.042,1.042,0,0,1,.223-.112c.011.017-.276.195-.8.563a15.235,15.235,0,0,0-2.117,1.817,15.059,15.059,0,0,0-2.567,3.566,14.222,14.222,0,0,0-1.594,5.56,15,15,0,0,0,1.162,6.886,14.666,14.666,0,0,0,2.006,3.354,9.83,9.83,0,0,0,3.128,2.645,5.689,5.689,0,0,0,4.142.493,3.992,3.992,0,0,0,2.968-2.922,5.067,5.067,0,0,0-1.171-4.266,6.316,6.316,0,0,0-4.183-2.019,11.8,11.8,0,0,0-8.741,3.07,17.658,17.658,0,0,0-4.888,7.361,22.874,22.874,0,0,0-1,4.04,21.834,21.834,0,0,0-.182,3.926,31.1,31.1,0,0,0,1.153,6.979,62.046,62.046,0,0,0,3.745,9.584c.516,1.076.922,1.923,1.213,2.531l.312.66A1.061,1.061,0,0,1,448.836,380.538Z" transform="translate(-441.922 -326.478)" fill="#fafafa"/></g><g transform="translate(8.404 39.862)"><path d="M434.461,301.787a1.111,1.111,0,0,1,.077.354c.031.235.1.58.125,1.029a22.153,22.153,0,0,1-.007,3.819,24.294,24.294,0,0,1-13.7,19.92,22.109,22.109,0,0,1-3.564,1.372c-.43.133-.776.2-1.006.252a1.141,1.141,0,0,1-.359.054,10.592,10.592,0,0,1,1.313-.471,26.7,26.7,0,0,0,3.475-1.488,24.862,24.862,0,0,0,13.529-19.67,26.68,26.68,0,0,0,.146-3.778A10.378,10.378,0,0,1,434.461,301.787Z" transform="translate(-416.028 -301.787)" fill="#fafafa"/></g><g transform="translate(150.379 76.719)"><path d="M605.544,345.148a12.227,12.227,0,0,0-3.282,3c-.846,1.093-1.694,2.51-2.664,4.081a31.575,31.575,0,0,1-3.632,4.8,30.664,30.664,0,0,1-8.711,6.549,26.808,26.808,0,0,1-3.044,1.3,6.332,6.332,0,0,1-1.167.335,6.35,6.35,0,0,1,1.1-.5c.711-.315,1.745-.757,2.963-1.42a32.782,32.782,0,0,0,8.53-6.572,33.2,33.2,0,0,0,3.613-4.72,43.089,43.089,0,0,1,2.764-4.057,10.622,10.622,0,0,1,2.437-2.259,5.9,5.9,0,0,1,.793-.434C605.437,345.171,605.538,345.134,605.544,345.148Z" transform="translate(-583.044 -345.145)" fill="#fafafa"/></g><g transform="translate(88.548 10.793)"><path d="M548.7,268.96a1.389,1.389,0,0,1-.39.1l-1.131.2c-.984.162-2.41.378-4.177.617-3.533.478-8.431,1.032-13.858,1.43a69.021,69.021,0,0,1-7.679.276,21.811,21.811,0,0,1-6.2-1.06,14.046,14.046,0,0,1-3.785-1.912,9.358,9.358,0,0,1-.894-.729c-.192-.181-.287-.281-.277-.292.026-.03.44.336,1.269.879a15.242,15.242,0,0,0,3.784,1.757,22.513,22.513,0,0,0,6.116.95,75.2,75.2,0,0,0,7.633-.31c5.418-.4,10.312-.9,13.852-1.3l4.192-.477A10.608,10.608,0,0,1,548.7,268.96Z" transform="translate(-510.307 -267.591)" fill="#263238"/></g></g><g transform="translate(85.165 177.695)"><g transform="translate(0 10.166)"><g transform="translate(34.182)"><path d="M608.69,386.127a22.842,22.842,0,0,1-22.2,27.155l-64.388-.714,1.692-20.85L579,383.484" transform="translate(-522.102 -383.484)" fill="#b78876"/></g><g transform="translate(0 3.85)"><path d="M521.748,393.346c-.295.1-4.014-1.569-7.345-3.11a24.017,24.017,0,0,0-11.308-2.192l-15.349.78s.948,2.532,2.576,3.433,11.17,1.092,11.17,1.092l-.489.5a11.037,11.037,0,0,1-7.64,3.343l-1.466.037a14.333,14.333,0,0,1-3.2-.626l-3.785-1.53c-1.146-.517-2.356-.433-2.855.721-.451,1.044-.12,2.481,3.005,4.056,1.748.88,8.225,3.12,8.225,3.12a15.591,15.591,0,0,0,.377,2.734c.283.943,2.828,1.885,2.828,1.885a33.52,33.52,0,0,0,2.263,4.054c.3.337,2.6,1.055,5.053,1.743A21.742,21.742,0,0,0,515.9,413.3l5.85-1.746V393.735" transform="translate(-481.891 -388.013)" fill="#b78876"/></g><g transform="translate(11.115 18.775)"><path d="M502.713,407.619a17.478,17.478,0,0,1-7.746-2.037c.044-.1,1.719.541,3.853,1.1S502.725,407.507,502.713,407.619Z" transform="translate(-494.966 -405.571)" fill="#aa6550"/></g><g transform="translate(14.22 23.288)"><path d="M502.72,412.01a5.65,5.65,0,0,1-4.1-1.114,14.469,14.469,0,0,1,2.042.587A14.281,14.281,0,0,1,502.72,412.01Z" transform="translate(-498.618 -410.88)" fill="#aa6550"/></g><g transform="translate(10.948 7.8)"><path d="M504.947,392.663a6.774,6.774,0,0,1-1.186,1.266,19.077,19.077,0,0,1-3.344,2.532,13.288,13.288,0,0,1-3.919,1.512,5.631,5.631,0,0,1-1.728.188,22.412,22.412,0,0,0,5.455-2.033,26.078,26.078,0,0,0,3.357-2.4A9.037,9.037,0,0,1,504.947,392.663Z" transform="translate(-494.77 -392.66)" fill="#aa6550"/></g></g><g transform="translate(39.857)"><path d="M530.34,388.062l-1.562,23.578,60.654.022a22.681,22.681,0,0,0,11.686-3.237h0A22.682,22.682,0,0,0,611.7,384.6a69.829,69.829,0,0,0-3.914-13.078l-30.494,5.017.975,3.8Z" transform="translate(-528.778 -371.525)" fill="#e8505b"/></g><g transform="translate(42.387 6.839)"><path d="M592.757,379.575a3.25,3.25,0,0,1-.612.141l-1.771.319-6.525,1.089-21.557,3.431-21.582,3.3-6.546.95-1.783.236a3.317,3.317,0,0,1-.627.053,3.362,3.362,0,0,1,.613-.141l1.771-.318,6.526-1.09,21.559-3.431,21.576-3.3,6.548-.95,1.784-.237A3.509,3.509,0,0,1,592.757,379.575Z" transform="translate(-531.754 -379.57)" fill="#263238"/></g><g transform="translate(59.883 14.3)"><path d="M564.809,414.2c-.105-.02.363-1.7.422-4.479a17.83,17.83,0,0,0-.088-2.262,21.094,21.094,0,0,0-.371-2.569,24.262,24.262,0,0,0-1.972-5.6,25.73,25.73,0,0,0-3.315-4.929q-.457-.511-.893-1c-.294-.319-.61-.6-.9-.887-.569-.586-1.17-1.054-1.7-1.5-2.167-1.739-3.707-2.546-3.657-2.63a6.291,6.291,0,0,1,1.085.55,11.754,11.754,0,0,1,1.221.741c.453.323,1.01.638,1.545,1.093a21.411,21.411,0,0,1,1.755,1.483c.3.286.625.565.928.884l.921,1a24.921,24.921,0,0,1,3.4,5,23.577,23.577,0,0,1,1.976,5.713,20.543,20.543,0,0,1,.338,2.622,17.005,17.005,0,0,1,.035,2.3,15.7,15.7,0,0,1-.169,1.888,9.538,9.538,0,0,1-.251,1.407A6.335,6.335,0,0,1,564.809,414.2Z" transform="translate(-552.336 -388.347)" fill="#fafafa"/></g><g transform="translate(88.154 10.102)"><path d="M606.713,411.687a12.562,12.562,0,0,1-2.814-.338,14.428,14.428,0,0,1-3.147-1.109,12.4,12.4,0,0,1-3.544-2.64,11.275,11.275,0,0,1-2.608-4.676,12.671,12.671,0,0,1-.449-2.969,11.486,11.486,0,0,1,.252-3.177,9.587,9.587,0,0,1,1.255-3.119,7.053,7.053,0,0,1,2.547-2.426,6.317,6.317,0,0,1,3.557-.817,4.771,4.771,0,0,1,3.331,1.722,4.689,4.689,0,0,1,1.117,3.585,4.252,4.252,0,0,1-2.087,2.985,9.968,9.968,0,0,1-6.7.92,13.978,13.978,0,0,1-11.821-13.4,9.836,9.836,0,0,1,.241-2.823,21.825,21.825,0,0,0-.07,2.815,14.3,14.3,0,0,0,2.419,7.156,13.9,13.9,0,0,0,9.3,5.846,9.6,9.6,0,0,0,6.41-.887,3.822,3.822,0,0,0,1.88-2.679,4.257,4.257,0,0,0-1.021-3.239,4.327,4.327,0,0,0-3.027-1.567,5.883,5.883,0,0,0-3.31.757,7.726,7.726,0,0,0-3.615,5.254,11.19,11.19,0,0,0-.261,3.075,12.35,12.35,0,0,0,.413,2.886,11.03,11.03,0,0,0,2.486,4.562,12.3,12.3,0,0,0,3.425,2.63,14.9,14.9,0,0,0,3.075,1.162C605.7,411.608,606.719,411.626,606.713,411.687Z" transform="translate(-585.593 -383.409)" fill="#fafafa"/></g></g></g><g transform="translate(64.75 97.158)"><g transform="translate(0)"><g transform="translate(0 10.057)"><path d="M288.935,114.472h-151.9a33.472,33.472,0,0,0-33.472,33.472v54.133H70.787l32.775,32.774v36.8a33.472,33.472,0,0,0,33.472,33.473h151.9a33.472,33.472,0,0,0,33.473-33.473v-123.7A33.472,33.472,0,0,0,288.935,114.472Z" transform="translate(-70.787 -114.472)" fill="#e8505b"/></g><g transform="translate(61.844)"><g transform="translate(32.021)"><g transform="translate(4.173)"><g transform="translate(48.573 13.151)"><path d="M252.739,120.74c-.961,2.485.689,5.2,2.539,7.116s4.091,3.744,4.672,6.344c.488,2.182-.32,4.455-.124,6.682.2,2.28,1.429,4.324,2.126,6.5,1.263,3.944.756,8.254-.371,12.239a22.625,22.625,0,0,1-4.556,9.019,12.008,12.008,0,0,1-8.91,4.266,3.5,3.5,0,0,1-2.634-.953,4.2,4.2,0,0,1-.762-2.337,228.043,228.043,0,0,1-.007-51.51" transform="translate(-243.257 -118.112)" fill="#263238"/></g><g transform="translate(38.555 69.651)"><path d="M249.181,185.867c7.394-.323,14.226,6.756,13.639,14.134,7.487,1.823,12.776,10.065,11.313,17.63-.484,2.5-1.593,4.875-1.747,7.414-.167,2.77.815,5.462,1.35,8.185a25.79,25.79,0,0,1-1.477,14.754c-1.168,2.814-3.341,5.719-6.387,5.805a6.264,6.264,0,0,1-5.13-3,15.842,15.842,0,0,1-2.062-5.808c-1.318-6.641-1.715-13.469-3.536-19.989s-5.362-12.947-11.261-16.27c-3.259-1.835-7.169-2.7-9.757-5.4a10.607,10.607,0,0,1-1.917-10.966,13.988,13.988,0,0,1,8.334-7.778" transform="translate(-231.472 -184.577)" fill="#263238"/></g><g transform="translate(4.022)"><path d="M191.9,124.511c-.091-3.16,2.832-5.6,5.773-6.759s6.211-1.594,8.834-3.359c2.322-1.562,3.882-4,5.848-5.993a19.457,19.457,0,0,1,32.724,8.927c1.13,4.5.359,9.821-3.189,12.811-4.117,3.471-10.22,2.7-15.5,1.62s-11.246-2.145-15.65.953c-2.656,1.868-4.179,4.907-5.8,7.719s-3.661,5.684-6.732,6.741-7.239-.768-7.359-4.013" transform="translate(-190.848 -102.641)" fill="#263238"/><g transform="translate(8.789 15.304)"><path d="M205.908,127.859a5.289,5.289,0,0,0-4.719,5.374h0l3.155,71.408c.132,8.434,12.46,13.172,21.489,12.963h0c9.119-.213,9.413-4.685,9.527-12.708.19-13.406.174-18.437.179-18.361,0,0,11.518-1.938,13.872-16.977,1.171-7.479.768-19.736.114-29.754-.588-9.018-6.588-20.07-15.572-19.1Z" transform="translate(-201.187 -120.645)" fill="#ffbe9d"/><g transform="translate(38.072 23.523)"><g transform="translate(3.825 3.337)"><path d="M254.322,153.979a1.927,1.927,0,0,1-1.855,1.949,1.843,1.843,0,0,1-1.991-1.733,1.929,1.929,0,0,1,1.852-1.951A1.846,1.846,0,0,1,254.322,153.979Z" transform="translate(-250.475 -152.241)" fill="#263238"/></g><path d="M253.595,150.335c-.239.252-1.7-.826-3.776-.816-2.072-.02-3.593,1.052-3.818.8-.111-.111.132-.566.793-1.051a5.3,5.3,0,0,1,3.056-.95,5.077,5.077,0,0,1,3.007.964C253.5,149.768,253.712,150.222,253.595,150.335Z" transform="translate(-245.974 -148.316)" fill="#263238"/></g><g transform="translate(17.679 23.955)"><g transform="translate(4.284 2.904)"><path d="M230.871,153.979a1.927,1.927,0,0,1-1.855,1.949,1.843,1.843,0,0,1-1.991-1.733,1.929,1.929,0,0,1,1.852-1.951A1.846,1.846,0,0,1,230.871,153.979Z" transform="translate(-227.025 -152.241)" fill="#263238"/></g><path d="M229.606,150.844c-.239.252-1.7-.826-3.777-.816-2.072-.02-3.592,1.051-3.819.8-.11-.112.13-.566.794-1.051a5.293,5.293,0,0,1,3.056-.95,5.085,5.085,0,0,1,3.007.963C229.5,150.276,229.722,150.731,229.606,150.844Z" transform="translate(-221.985 -148.825)" fill="#263238"/></g><g transform="translate(31.854 24.059)"><path d="M239.669,166.231a13.79,13.79,0,0,1,3.369-.615c.53-.056,1.03-.162,1.12-.524a2.7,2.7,0,0,0-.358-1.569l-1.575-4.031c-2.188-5.738-3.773-10.458-3.542-10.543s2.194,4.5,4.382,10.234q.791,2.122,1.51,4.055a3.063,3.063,0,0,1,.28,2.078,1.328,1.328,0,0,1-.87.776,3.577,3.577,0,0,1-.9.128A13.455,13.455,0,0,1,239.669,166.231Z" transform="translate(-238.66 -148.947)" fill="#263238"/></g><g transform="translate(14.206 60.564)"><path d="M238.044,197.217a38.241,38.241,0,0,1-20.145-5.326s4.907,10.316,19.95,8.876Z" transform="translate(-217.899 -191.891)" fill="#eb996e"/></g><g transform="translate(25.811 44.941)"><path d="M237.737,174.916a3.738,3.738,0,0,0-3.354-1.381,3.409,3.409,0,0,0-2.354,1.269,2.163,2.163,0,0,0-.159,2.473,2.51,2.51,0,0,0,2.721.683,7.861,7.861,0,0,0,2.649-1.589,2.305,2.305,0,0,0,.591-.615.694.694,0,0,0-.005-.773" transform="translate(-231.551 -173.512)" fill="#eb996e"/></g><g transform="translate(26.427 42.791)"><path d="M232.61,170.983c.337-.02.346,2.231,2.277,3.826s4.328,1.341,4.346,1.656c.032.141-.533.439-1.546.468a5.607,5.607,0,0,1-3.627-1.256,4.884,4.884,0,0,1-1.766-3.207C232.205,171.529,232.455,170.97,232.61,170.983Z" transform="translate(-232.275 -170.983)" fill="#263238"/></g><g transform="translate(16.76 20.793)"><path d="M230.369,146.651c-.2.564-2.276.3-4.709.6-2.441.25-4.4.967-4.726.462-.145-.241.2-.773.989-1.321a8.257,8.257,0,0,1,7.187-.809C230.006,145.941,230.456,146.383,230.369,146.651Z" transform="translate(-220.903 -145.105)" fill="#263238"/></g><g transform="translate(37.851 17.397)"><path d="M252.78,143.252c-.364.472-1.795-.014-3.513-.033-1.718-.08-3.173.323-3.51-.169-.147-.239.081-.711.716-1.159a5.086,5.086,0,0,1,5.658.162C252.74,142.536,252.94,143.022,252.78,143.252Z" transform="translate(-245.714 -141.111)" fill="#263238"/></g></g><g transform="translate(2.891 12.098)"><path d="M194.371,176.753a13.349,13.349,0,0,0,15.881-14.762c-.468-3.692-2.458-7.449-1.178-10.943,1.692-4.62,8.169-6.042,9.888-10.652,1-2.68.1-5.814,1.234-8.44,1.064-2.47,3.663-3.892,6.191-4.806s5.241-1.545,7.364-3.2,3.447-4.765,2.078-7.079a142.446,142.446,0,0,0-32.85,7.982c-2.453.916-5.031,2.017-6.481,4.2-1.535,2.307-1.461,5.288-1.332,8.057.63,13.5-1.425,26.144-.795,39.642" transform="translate(-194.249 -116.873)" fill="#263238"/></g></g><g transform="translate(0 5.852)"><path d="M189.567,171.414a1.066,1.066,0,0,1-.246-.08,3.5,3.5,0,0,1-.684-.333,5.013,5.013,0,0,1-1.875-2.217,7.432,7.432,0,0,1-.49-4.566,14.574,14.574,0,0,1,2.732-5.46,39.946,39.946,0,0,0,4.125-6.07,9.354,9.354,0,0,0,1-3.875,12.708,12.708,0,0,0-.885-4.182,12.84,12.84,0,0,1-.887-4.544,10.151,10.151,0,0,1,4.886-8.21,11.636,11.636,0,0,1,4.953-1.412,20.916,20.916,0,0,0,4.959-.867,6.43,6.43,0,0,0,3.484-3.138,24.188,24.188,0,0,0,1.652-4.433,23.86,23.86,0,0,1,1.7-4.294,16.082,16.082,0,0,1,5.636-6.334,12.183,12.183,0,0,1,7.137-1.851,9.135,9.135,0,0,1,5.615,2.3,8.958,8.958,0,0,1,2.513,3.856,7.228,7.228,0,0,1,.349,2.892,4.491,4.491,0,0,1-.176,1c-.029-.005.059-.347.088-1.007a7.5,7.5,0,0,0-.423-2.831,8.809,8.809,0,0,0-7.984-5.9,11.9,11.9,0,0,0-6.923,1.85,15.759,15.759,0,0,0-5.469,6.211,23.515,23.515,0,0,0-1.653,4.23,24.463,24.463,0,0,1-1.675,4.516,7.76,7.76,0,0,1-1.519,2.007,6.588,6.588,0,0,1-2.191,1.336,21.108,21.108,0,0,1-5.066.894,11.225,11.225,0,0,0-4.778,1.352,9.734,9.734,0,0,0-4.687,7.844,12.461,12.461,0,0,0,.853,4.4,13.033,13.033,0,0,1,.887,4.315,9.7,9.7,0,0,1-1.054,4.028,39.5,39.5,0,0,1-4.2,6.1,14.442,14.442,0,0,0-2.742,5.327,7.311,7.311,0,0,0,.4,4.443,5.058,5.058,0,0,0,1.766,2.213C189.234,171.295,189.582,171.381,189.567,171.414Z" transform="translate(-186.117 -109.526)" fill="#455a64"/></g><g transform="translate(47.142 2.187)"><path d="M241.575,105.22a1.453,1.453,0,0,1,.583.176,6.31,6.31,0,0,1,1.422.86,7.29,7.29,0,0,1,1.484,9.953,6.288,6.288,0,0,1-1.108,1.238c-.3.251-.49.36-.507.338a20.552,20.552,0,0,0,1.352-1.747,7.343,7.343,0,0,0-1.423-9.542A20.749,20.749,0,0,0,241.575,105.22Z" transform="translate(-241.574 -105.214)" fill="#455a64"/></g><g transform="translate(54.768 77.862)"><path d="M276.222,221.735a11.314,11.314,0,0,0,.429-1.59,7.33,7.33,0,0,0-.735-4.329,9.968,9.968,0,0,0-4.746-4.42,18.858,18.858,0,0,0-3.694-1.317c-1.326-.343-2.73-.626-4.138-1.079a9.426,9.426,0,0,1-3.8-2.075,6.309,6.309,0,0,1-1.79-3.609c-.232-1.263-.309-2.463-.589-3.532a7,7,0,0,0-1.369-2.707,7.8,7.8,0,0,0-3.637-2.474c-1.016-.3-1.618-.305-1.613-.352a1.6,1.6,0,0,1,.433-.009,6.714,6.714,0,0,1,1.228.2,7.7,7.7,0,0,1,3.83,2.44,7.224,7.224,0,0,1,1.483,2.813c.306,1.109.4,2.324.635,3.549a5.924,5.924,0,0,0,1.693,3.376,9.081,9.081,0,0,0,3.629,1.965c1.375.443,2.772.729,4.111,1.08a18.849,18.849,0,0,1,3.766,1.371,10.157,10.157,0,0,1,4.847,4.651,7.279,7.279,0,0,1,.623,4.494,5.364,5.364,0,0,1-.383,1.184A1.567,1.567,0,0,1,276.222,221.735Z" transform="translate(-250.545 -194.236)" fill="#455a64"/></g></g><g transform="translate(0 12.955)"><path d="M200.44,183.666c-7.615-2.038-14.194-9.5-16.863-16.914s-2.672-15.522-1.987-23.374c.5-5.692,1.494-11.71,5.273-15.994,5.7-6.459,11.863-9.756,20.471-9.488" transform="translate(-181.208 -117.881)" fill="#263238"/></g></g><g transform="translate(32.425 80.891)"><path d="M244.969,212.226l-7.1-1.783a4.043,4.043,0,0,0,1.409-4.952,6.5,6.5,0,0,0-5.423-4.021l-32.375-3.654a2.6,2.6,0,0,0-2.715,1.6q-2.156,5.47-.147,9.012l-.154,0-6.235,1.241-10.547,93.288,69.262-3.238Z" transform="translate(-181.683 -197.799)" fill="#f5f5f5"/><g transform="translate(19.726 1.456)"><g transform="translate(0 9.878)"><path d="M238.263,212.8a7.617,7.617,0,0,1-1.3.249c-.841.137-2.064.289-3.58.434a83.506,83.506,0,0,1-23.707-1.178c-1.494-.3-2.7-.568-3.519-.788a7.512,7.512,0,0,1-1.268-.377,7.536,7.536,0,0,1,1.307.209c.832.167,2.041.393,3.537.648a98.253,98.253,0,0,0,23.625,1.174c1.514-.105,2.74-.209,3.585-.293A7.541,7.541,0,0,1,238.263,212.8Z" transform="translate(-204.888 -211.133)" fill="#263238"/></g><g transform="translate(2.06 18.551)"><path d="M207.318,229.15a49.925,49.925,0,0,1,5.217-7.814,49.924,49.924,0,0,1-5.217,7.814Z" transform="translate(-207.311 -221.335)" fill="#e0e0e0"/></g><g transform="translate(18.581 20.722)"><path d="M232.558,231.115a48.64,48.64,0,0,1-5.807-7.223,48.607,48.607,0,0,1,5.807,7.223Z" transform="translate(-226.746 -223.889)" fill="#e0e0e0"/></g><g transform="translate(12.338 30.445)"><path d="M221.086,244.685a51.166,51.166,0,0,1-1.656-9.358,51.007,51.007,0,0,1,1.656,9.358Z" transform="translate(-219.401 -235.327)" fill="#e0e0e0"/></g><g transform="translate(22.888 40.537)"><path d="M239.99,247.2a74.594,74.594,0,0,1-8.174,8.051,74.2,74.2,0,0,1,8.174-8.051Z" transform="translate(-231.812 -247.198)" fill="#e0e0e0"/></g><g transform="translate(0.833 48.62)"><path d="M213.243,264.522a19.583,19.583,0,0,1-7.37-7.813c.114-.072,1.42,1.967,3.462,4.118S213.322,264.412,213.243,264.522Z" transform="translate(-205.867 -256.707)" fill="#e0e0e0"/></g><g transform="translate(7.397 68.691)"><path d="M221.743,280.334c.038.128-1.94.754-4.182,1.945s-3.885,2.457-3.968,2.353a16.114,16.114,0,0,1,8.15-4.3Z" transform="translate(-213.59 -280.318)" fill="#e0e0e0"/></g><g transform="translate(19.642 58.511)"><path d="M235.85,279.335a8.247,8.247,0,0,1-1.353-1.454c-.785-.94-1.829-2.275-2.915-3.8s-2.01-2.941-2.645-3.989a8.339,8.339,0,0,1-.937-1.752,9.463,9.463,0,0,1,1.2,1.581l2.743,3.9,2.8,3.861A9.526,9.526,0,0,1,235.85,279.335Z" transform="translate(-227.994 -268.342)" fill="#e0e0e0"/></g><g transform="translate(18.349 79.95)"><path d="M236.814,293.585a40.2,40.2,0,0,1-10.341,1.707,42.774,42.774,0,0,1,5.155-.951A42.671,42.671,0,0,1,236.814,293.585Z" transform="translate(-226.473 -293.563)" fill="#e0e0e0"/></g><g transform="translate(8.742)"><path d="M215.784,209.738c-.059-.048.35-.514.7-1.414a7.462,7.462,0,0,0,.369-3.691,14.987,14.987,0,0,0-1.1-3.626,6.955,6.955,0,0,1-.574-1.5,4.972,4.972,0,0,1,.857,1.363,11.852,11.852,0,0,1,1.251,3.7,6.862,6.862,0,0,1-.519,3.878A2.833,2.833,0,0,1,215.784,209.738Z" transform="translate(-215.172 -199.512)" fill="#e0e0e0"/></g><g transform="translate(22.276 3.239)"><path d="M231.107,203.325a7.721,7.721,0,0,1,1.369,5.847c-.131,0-.141-1.358-.524-2.961S230.992,203.387,231.107,203.325Z" transform="translate(-231.093 -203.322)" fill="#e0e0e0"/></g></g></g><g transform="translate(130.739 59.319)"><path d="M299.393,265.155l32.225-56.589,3.882-9.817s10.043-21.6,10.743-23.793c.81-2.54,2.228-2.759,3.144-2.4,1.427.564,1.885,2.69,1.257,4.891-.217.761-4.121,12.623-4.121,12.623a29.426,29.426,0,0,1,3.331-2.473c2.473-1.662,7.009-1.611,11.2-.116s5.237,2.282,4.733,3.939a2.207,2.207,0,0,1-1.345,1.334,4.358,4.358,0,0,1-3.1.068c-6.75-2.3-9.741.742-9.741.742l-.508,1.284s5.072-1.624,7.959.672a4.189,4.189,0,0,1,1.052,1.229,5.579,5.579,0,0,1,2.065,9.4,2.32,2.32,0,0,1-2.561.649,2.968,2.968,0,0,1-.967-1.114,4.565,4.565,0,0,0-.461-.641l-1.927,3.4s-4.735,7.4-6.432,10.857l-22.177,59.1a15.65,15.65,0,0,1-20.408,9.055h0A15.651,15.651,0,0,1,299.393,265.155Z" transform="translate(-297.337 -172.423)" fill="#ffbe9d"/><g transform="translate(36.495 23.872)"><g transform="translate(0.002 0.376)"><path d="M340.271,212.651c1.137.74,2.707.237,3.734-.65s1.721-2.1,2.681-3.056c2.869-2.869,7.673-3.138,10.4-6.14.381-.419.718-1.055.39-1.515-.3-.428-.944-.371-1.457-.269l-13.184,2.611" transform="translate(-340.271 -200.948)" fill="#ffbe9d"/></g><path d="M342.837,203.564a5.38,5.38,0,0,1,1.4-.428c.909-.227,2.229-.53,3.864-.889l5.75-1.222,1.664-.343a2.662,2.662,0,0,1,2.014.066,1.133,1.133,0,0,1,.429,1.2,2.319,2.319,0,0,1-.516.971,8.776,8.776,0,0,1-1.485,1.312c-2.2,1.518-4.6,2.142-6.519,3.15a10.107,10.107,0,0,0-2.5,1.707c-.679.656-1.212,1.4-1.776,2.043a4.725,4.725,0,0,1-3.493,1.96c-1.012-.02-1.425-.495-1.392-.5a3.93,3.93,0,0,0,1.379.2,4.583,4.583,0,0,0,3.092-2.011c.519-.636,1.026-1.409,1.743-2.146a10.429,10.429,0,0,1,2.625-1.882c1.982-1.075,4.377-1.737,6.4-3.148a8.271,8.271,0,0,0,1.346-1.18c.369-.419.5-.923.233-1.062-.267-.2-.873-.078-1.437.038l-1.669.318-5.782,1.061c-1.648.291-2.985.513-3.911.65A5.386,5.386,0,0,1,342.837,203.564Z" transform="translate(-340.269 -200.505)" fill="#eb996e"/></g><g transform="translate(53.566 18.199)"><path d="M360.363,198.072a5.545,5.545,0,0,1,1.513-2.038,4.285,4.285,0,0,1,2.549-.837,10.987,10.987,0,0,1,3.36.566,17.457,17.457,0,0,0,3.45.782,5.638,5.638,0,0,0,2.9-.446,2.2,2.2,0,0,0,1.233-1.543,1.3,1.3,0,0,0-.014-.724c-.048,0-.045.257-.172.677a2.077,2.077,0,0,1-1.2,1.275,5.591,5.591,0,0,1-2.7.308,19.3,19.3,0,0,1-3.355-.8,10.635,10.635,0,0,0-3.516-.547,4.489,4.489,0,0,0-2.749,1.021,4,4,0,0,0-1.148,1.6A1.391,1.391,0,0,0,360.363,198.072Z" transform="translate(-360.352 -193.831)" fill="#eb996e"/></g><g transform="translate(48.42 4.175)"><path d="M359.414,177.334a14.008,14.008,0,0,0-.792,2.354c-.5,1.627-1.1,3.566-1.761,5.71l-1.847,5.684a13.934,13.934,0,0,0-.707,2.379,11.088,11.088,0,0,0,1.036-2.26c.567-1.426,1.282-3.422,1.99-5.654s1.27-4.275,1.627-5.767A11.158,11.158,0,0,0,359.414,177.334Z" transform="translate(-354.297 -177.334)" fill="#eb996e"/></g><g transform="translate(55.403 25.065)"><path d="M362.512,202.823a3.011,3.011,0,0,0,.776-.047,2.306,2.306,0,0,1,1.856.5,1.234,1.234,0,0,1,.3,1.185,6.55,6.55,0,0,1-.6,1.5,2.781,2.781,0,0,0-.315,1.952,2.369,2.369,0,0,0,1.51,1.521,2.69,2.69,0,0,0,2.119-.21,3.358,3.358,0,0,0,1.408-1.372,10.912,10.912,0,0,0,.927-3.058,6.419,6.419,0,0,0,.023-2.15,1.445,1.445,0,0,0-.3-.734c-.042.019.064.275.108.76a7.611,7.611,0,0,1-.177,2.062,11.7,11.7,0,0,1-.984,2.9,2.663,2.663,0,0,1-2.964,1.33,1.908,1.908,0,0,1-1.206-1.189,2.379,2.379,0,0,1,.264-1.627,6.541,6.541,0,0,0,.593-1.622,1.6,1.6,0,0,0-.462-1.505,2.407,2.407,0,0,0-2.123-.435A2.026,2.026,0,0,0,362.512,202.823Z" transform="translate(-362.512 -201.908)" fill="#eb996e"/></g><g transform="translate(60.814 24.559)"><path d="M369.027,208.71c-.021-.011-.167.22-.149.692a2.161,2.161,0,0,0,.989,1.663,2.88,2.88,0,0,0,2.861.03,4.713,4.713,0,0,0,2.164-2.757,5.706,5.706,0,0,0,0-3.5,5.45,5.45,0,0,0-1.577-2.381,5.147,5.147,0,0,0-1.64-.989,1.471,1.471,0,0,0-.684-.146,8.975,8.975,0,0,1,2.086,1.391,5.371,5.371,0,0,1,1.38,2.262,5.434,5.434,0,0,1-.037,3.211,4.379,4.379,0,0,1-1.909,2.507,2.556,2.556,0,0,1-2.464.072,2.048,2.048,0,0,1-.978-1.386C369,208.964,369.069,208.72,369.027,208.71Z" transform="translate(-368.877 -201.313)" fill="#eb996e"/></g><g transform="translate(45.863 30.465)"><path d="M355.658,215.076a2.025,2.025,0,0,0-1.141-.348,4.683,4.683,0,0,0-2.955.7l.362.245a13.646,13.646,0,0,0,.245-1.669,10.662,10.662,0,0,0-.861-5.747,26.871,26.871,0,0,1,.369,5.7c-.048.57-.125,1.117-.217,1.619l-.1.554.463-.31a4.909,4.909,0,0,1,2.681-.8C355.216,215.022,355.64,215.14,355.658,215.076Z" transform="translate(-351.29 -208.26)" fill="#eb996e"/></g><g transform="translate(56.9 17.115)"><path d="M364.31,192.558c-.129.02.056,1.019.958,1.8s1.909.842,1.912.71c.03-.14-.812-.39-1.586-1.082C364.805,193.311,364.447,192.51,364.31,192.558Z" transform="translate(-364.274 -192.556)" fill="#eb996e"/></g></g><g transform="translate(41.891 24.261)"><path d="M192.819,131.181" transform="translate(-192.819 -131.181)" fill="none" stroke="#4e585d" stroke-miterlimit="10" stroke-width="1"/></g><g transform="translate(0 91.998)"><g transform="translate(87.077 1.537)"><path d="M245.974,318.148l33.7.331L274,294.023l1.894,4.613a23.229,23.229,0,0,0,21.488,14.408h0c10.657,0,18.024-7.93,22.533-17.586,10.543-22.577,20.7-58.935,20.7-58.935l-20.554-18.055c-14.87,28.132-28.849,52.567-28.849,52.567s-4.036-12.268-7.153-23.211-3.1-16.7-7.887-22.159c-7.365-8.394-17.863-10.482-27.61-12.992L248.2,258.1l-2.23,60.049" transform="translate(-245.974 -212.673)" fill="#e8505b"/></g><path d="M192.07,284.041,253.441,296l2.992,23.578-94.1,0a18.539,18.539,0,0,1-18.731-20c1.354-17.184,2.825-38.358,3.943-47.3.87-6.978,3.654-14.194,6.952-20.406,4.748-8.944,20.582-20.432,34.464-21l2.629,58.462" transform="translate(-143.539 -210.865)" fill="#e8505b"/><g opacity="0.4"><g transform="translate(87.077 1.537)"><path d="M245.974,318.148l33.7.331L274,294.023l1.894,4.613a23.229,23.229,0,0,0,21.488,14.408h0c10.657,0,18.024-7.93,22.533-17.586,10.543-22.577,20.7-58.935,20.7-58.935l-20.554-18.055c-14.87,28.132-28.849,52.567-28.849,52.567s-4.036-12.268-7.153-23.211-3.1-16.7-7.887-22.159c-7.365-8.394-17.863-10.482-27.61-12.992L248.2,258.1l-2.23,60.049" transform="translate(-245.974 -212.673)"/></g><path d="M192.07,284.041l55.357,10.154a5.781,5.781,0,0,1,4.613,4.5l4.393,20.883-94.1,0a18.539,18.539,0,0,1-18.731-20c1.354-17.184,2.825-38.358,3.943-47.3.87-6.978,3.654-14.194,6.952-20.406,4.748-8.944,20.582-20.432,34.464-21l2.629,58.462" transform="translate(-143.539 -210.865)"/></g><g transform="translate(30.118 17.994)"><path d="M185.7,285.507a2.665,2.665,0,0,1-.028-.562c0-.413,0-.947.006-1.608.008-1.45.02-3.456.034-5.912.007-4.992-.088-11.888-.475-19.494-.191-3.8-.44-7.424-.7-10.713a44.055,44.055,0,0,0-1.233-8.634,12.278,12.278,0,0,0-2.706-5.129,18.291,18.291,0,0,0-1.619-1.42,6.593,6.593,0,0,1,1.743,1.3,12.014,12.014,0,0,1,2.883,5.162,42.47,42.47,0,0,1,1.34,8.689c.286,3.291.548,6.916.74,10.725.388,7.616.433,14.523.346,19.518-.043,2.5-.111,4.519-.175,5.915l-.088,1.607A2.69,2.69,0,0,1,185.7,285.507Z" transform="translate(-178.97 -232.033)" fill="#263238"/></g><g transform="translate(36.845 71.463)"><path d="M258.753,310.265a9.455,9.455,0,0,0-2.235-1.81,13.971,13.971,0,0,0-3.135-1.252c-1.272-.361-2.758-.643-4.4-.979-6.557-1.336-15.613-3.2-25.648-5.072s-19.16-3.388-25.766-4.449l-7.826-1.256-2.125-.356a4.692,4.692,0,0,1-.737-.154,4.865,4.865,0,0,1,.75.065l2.138.274c1.856.247,4.538.624,7.848,1.117,6.621.982,15.756,2.443,25.8,4.323s19.09,3.786,25.632,5.2c1.633.355,3.121.659,4.4,1.047a13.606,13.606,0,0,1,3.153,1.342,7.28,7.28,0,0,1,1.684,1.363,4.359,4.359,0,0,1,.358.434C258.723,310.205,258.759,310.26,258.753,310.265Z" transform="translate(-186.883 -294.933)" fill="#263238"/></g><g transform="translate(21.504 71.459)"><path d="M184.359,294.936c.02.08-1.131.345-2.881,1.057a24.032,24.032,0,0,0-2.97,1.464,23.656,23.656,0,0,0-6.176,5.19,24.028,24.028,0,0,0-1.954,2.673c-1,1.6-1.462,2.689-1.538,2.656a3.019,3.019,0,0,1,.266-.787,15.658,15.658,0,0,1,1-2.031,20.852,20.852,0,0,1,1.908-2.771,21.9,21.9,0,0,1,6.287-5.283,20.9,20.9,0,0,1,3.059-1.4,15.692,15.692,0,0,1,2.173-.638A3.021,3.021,0,0,1,184.359,294.936Z" transform="translate(-168.835 -294.928)" fill="#263238"/></g><g transform="translate(111.01 27.715)"><path d="M279.4,301.912a3,3,0,0,1-.128-.584c-.071-.43-.163-.99-.279-1.688-.235-1.467-.545-3.595-.9-6.228-.717-5.264-1.585-12.556-2.313-20.631s-1.171-15.408-1.4-20.716c-.117-2.654-.191-4.8-.222-6.288-.011-.707-.02-1.275-.026-1.711a3.005,3.005,0,0,1,.02-.6,3.035,3.035,0,0,1,.068.594l.111,1.707c.088,1.534.212,3.666.362,6.279.313,5.3.808,12.621,1.533,20.693s1.545,15.359,2.182,20.631c.318,2.6.577,4.718.763,6.243.082.7.146,1.267.2,1.7A3.145,3.145,0,0,1,279.4,301.912Z" transform="translate(-274.129 -243.468)" fill="#263238"/></g><g transform="translate(131.935 59.144)"><path d="M303.444,298.313c-.024.018-.2-.181-.493-.559a15.5,15.5,0,0,1-1.131-1.687,22.338,22.338,0,0,1-3.017-12.892,15.543,15.543,0,0,1,.265-2.013,2.431,2.431,0,0,1,.194-.721c.076.013-.093,1.057-.146,2.75a25.19,25.19,0,0,0,2.977,12.722C302.893,297.408,303.507,298.268,303.444,298.313Z" transform="translate(-298.743 -280.441)" fill="#263238"/></g><g transform="translate(6.421 31.978)"><path d="M181.268,256.389c0,.015-.107.038-.317.068a8.165,8.165,0,0,1-.925.088,14.2,14.2,0,0,1-3.407-.266,24.655,24.655,0,0,1-4.834-1.515c-1.762-.729-3.632-1.67-5.589-2.642a41.749,41.749,0,0,0-5.657-2.369,19.3,19.3,0,0,0-4.885-.955,15.929,15.929,0,0,0-4.56.515c-.005-.014.1-.062.293-.139a6.847,6.847,0,0,1,.881-.3,11.521,11.521,0,0,1,3.4-.393,18.548,18.548,0,0,1,5,.878,39.193,39.193,0,0,1,5.732,2.361c1.962.975,3.816,1.921,5.552,2.663a26.213,26.213,0,0,0,4.738,1.584A21.455,21.455,0,0,0,181.268,256.389Z" transform="translate(-151.093 -248.483)" fill="#fafafa"/></g><g transform="translate(37.027 37.784)"><path d="M197.175,255.34a29.708,29.708,0,0,1-5,1.077,29.636,29.636,0,0,1-5.076.64,29.641,29.641,0,0,1,5-1.076A29.784,29.784,0,0,1,197.175,255.34Z" transform="translate(-187.097 -255.313)" fill="#fafafa"/></g><g transform="translate(3.071 56.057)"><path d="M180.3,276.813a7.89,7.89,0,0,1-1.236.534c-.808.31-1.987.738-3.461,1.215a88.688,88.688,0,0,1-11.745,2.9c-2.33.409-4.565.706-6.6.909a26.519,26.519,0,0,1-5.455.149,9.333,9.333,0,0,1-3.543-1.011,5.392,5.392,0,0,1-.842-.548c-.179-.144-.268-.224-.258-.236.025-.036.4.264,1.177.631a9.892,9.892,0,0,0,3.494.853,28.25,28.25,0,0,0,5.384-.242c2.027-.225,4.25-.532,6.57-.939a107.677,107.677,0,0,0,11.73-2.767c1.481-.437,2.671-.818,3.5-1.079A7.767,7.767,0,0,1,180.3,276.813Z" transform="translate(-147.152 -276.809)" fill="#fafafa"/></g><g transform="translate(37.599 60.379)"><path d="M197.036,282.051a24.414,24.414,0,0,1-4.629.3,24.421,24.421,0,0,1-4.637-.145,24.593,24.593,0,0,1,4.629-.3A24.411,24.411,0,0,1,197.036,282.051Z" transform="translate(-187.77 -281.894)" fill="#fafafa"/></g><g transform="translate(3.119 71.257)"><path d="M147.211,322.7a1.758,1.758,0,0,1,.089-.451l.342-1.275.258-.921c.106-.332.251-.683.39-1.067a25.2,25.2,0,0,1,1.053-2.562l.692-1.457c.247-.5.561-1,.855-1.525a36.708,36.708,0,0,1,2.089-3.244,38.807,38.807,0,0,1,13.241-11.517,36.844,36.844,0,0,1,3.5-1.62c.563-.218,1.095-.462,1.629-.635l1.539-.484a25.167,25.167,0,0,1,2.684-.688c.4-.085.767-.179,1.11-.238l.947-.128,1.311-.161a1.788,1.788,0,0,1,.459-.026,1.932,1.932,0,0,1-.448.115l-1.294.242-.934.165c-.34.071-.7.177-1.1.273a27.19,27.19,0,0,0-2.646.746l-1.516.506c-.525.18-1.05.43-1.6.653-1.12.426-2.247,1.036-3.449,1.641a39.755,39.755,0,0,0-13.1,11.4c-.765,1.106-1.525,2.137-2.1,3.188-.3.519-.617,1-.869,1.5l-.712,1.432a26.887,26.887,0,0,0-1.1,2.517c-.15.376-.305.721-.422,1.047l-.292.9-.421,1.248A1.835,1.835,0,0,1,147.211,322.7Z" transform="translate(-147.208 -294.69)" fill="#fafafa"/></g><g transform="translate(32.675 73.151)"><path d="M195.058,296.92a15.214,15.214,0,0,0-3.493,4.387,21.41,21.41,0,0,0-1.953,5.77,59.085,59.085,0,0,0-.805,7.474,52.815,52.815,0,0,1-.87,7.525,20.517,20.517,0,0,1-2.13,5.82,13.029,13.029,0,0,1-2.592,3.278,8.647,8.647,0,0,1-.894.7,1.284,1.284,0,0,1-.339.2,14.987,14.987,0,0,0,3.552-4.337,21.035,21.035,0,0,0,2-5.752,56.154,56.154,0,0,0,.829-7.471,55.056,55.056,0,0,1,.847-7.526,20.852,20.852,0,0,1,2.078-5.837,13.145,13.145,0,0,1,2.549-3.311,8.571,8.571,0,0,1,.882-.717A1.32,1.32,0,0,1,195.058,296.92Z" transform="translate(-181.978 -296.918)" fill="#fafafa"/></g><g transform="translate(60.219 76.145)"><path d="M214.422,333.145c-.122,0,.019-7.328.315-16.359s.635-16.349.757-16.346-.019,7.328-.315,16.36S214.545,333.149,214.422,333.145Z" transform="translate(-214.379 -300.44)" fill="#fafafa"/></g><g transform="translate(81.798 80.257)"><path d="M241.3,332.611a5.559,5.559,0,0,1-.377-1.062,12.419,12.419,0,0,1-.346-1.275c-.112-.5-.266-1.072-.358-1.715a30.538,30.538,0,0,1-.451-4.539,31.7,31.7,0,0,1,1.688-11.006,30.444,30.444,0,0,1,1.791-4.2c.281-.586.6-1.082.855-1.528a12.459,12.459,0,0,1,.712-1.113,5.37,5.37,0,0,1,.678-.9c.073.048-.842,1.365-1.965,3.681a34.111,34.111,0,0,0-1.684,4.184,33.685,33.685,0,0,0-1.667,10.871,34.022,34.022,0,0,0,.353,4.5C240.906,331.055,241.385,332.587,241.3,332.611Z" transform="translate(-239.764 -305.277)" fill="#fafafa"/></g><g transform="translate(19.034 10.031)"><path d="M191.05,226.27c-.032.072-1.347-.519-3.551-1.231a40.237,40.237,0,0,0-17.859-1.578c-2.294.315-3.692.666-3.711.589a4.521,4.521,0,0,1,.964-.315,26.276,26.276,0,0,1,2.7-.584,36.1,36.1,0,0,1,18.006,1.591,26.207,26.207,0,0,1,2.557,1.048A4.478,4.478,0,0,1,191.05,226.27Z" transform="translate(-165.93 -222.666)" fill="#fafafa"/></g><g transform="translate(89.803 48.585)"><path d="M270.683,268.811a24.337,24.337,0,0,1-3.154-.049c-1.944-.075-4.63-.179-7.6-.253s-5.655-.1-7.6-.124a24.45,24.45,0,0,1-3.152-.107,3.108,3.108,0,0,1,.843-.1c.544-.038,1.332-.074,2.305-.1,1.948-.059,4.641-.079,7.615-.005s5.661.228,7.6.383c.972.078,1.756.152,2.3.218A3.164,3.164,0,0,1,270.683,268.811Z" transform="translate(-249.181 -268.019)" fill="#fafafa"/></g><g transform="translate(113.18 46.194)"><path d="M291.591,265.213c.025.075-1.067.441-2.724,1.258a26.673,26.673,0,0,0-10.622,9.469c-1,1.551-1.49,2.594-1.561,2.56a2.848,2.848,0,0,1,.279-.763,16.954,16.954,0,0,1,1.016-1.963,23.955,23.955,0,0,1,10.754-9.587,16.986,16.986,0,0,1,2.067-.785A2.871,2.871,0,0,1,291.591,265.213Z" transform="translate(-276.681 -265.206)" fill="#fafafa"/></g><g transform="translate(90.859 18.786)"><path d="M279.376,233.126a12.711,12.711,0,0,0-4.321.606,29.754,29.754,0,0,0-4.357,1.937,35.439,35.439,0,0,1-5.389,2.422,21.948,21.948,0,0,1-10.653.695,20.287,20.287,0,0,1-3.141-.849,5.6,5.6,0,0,1-1.091-.482c.029-.085,1.6.592,4.285,1.023a22.83,22.83,0,0,0,10.464-.808,37.732,37.732,0,0,0,5.342-2.364,27.415,27.415,0,0,1,4.449-1.873,9.986,9.986,0,0,1,3.229-.462,5.22,5.22,0,0,1,.883.085C279.275,233.087,279.378,233.112,279.376,233.126Z" transform="translate(-250.423 -232.964)" fill="#fafafa"/></g><g transform="translate(88.664 75.113)"><path d="M274.748,300.039a5.169,5.169,0,0,1-.99.462c-.323.14-.723.3-1.2.452s-1.008.356-1.619.509a31.69,31.69,0,0,1-4.328.9,32.828,32.828,0,0,1-10.792-.324,31.623,31.623,0,0,1-4.266-1.159c-.6-.19-1.122-.421-1.586-.605s-.855-.365-1.169-.523a5.059,5.059,0,0,1-.96-.521c.035-.077,1.435.6,3.813,1.352a35.852,35.852,0,0,0,4.244,1.055,35.164,35.164,0,0,0,10.663.32,36.033,36.033,0,0,0,4.3-.8C273.279,300.55,274.718,299.96,274.748,300.039Z" transform="translate(-247.841 -299.226)" fill="#fafafa"/></g><g transform="translate(127.414 61.537)"><path d="M301.113,322.8c-.011.012-.124-.082-.331-.27s-.522-.457-.873-.856a20.2,20.2,0,0,1-2.69-3.608,29.362,29.362,0,0,1-3.788-14.236,57.1,57.1,0,0,1,1.928-14.677c.457-1.84.87-3.315,1.166-4.332l.355-1.167a1.6,1.6,0,0,1,.153-.4,1.516,1.516,0,0,1-.067.422c-.074.321-.165.714-.275,1.188l-1.029,4.36a61.416,61.416,0,0,0-1.789,14.595,30.143,30.143,0,0,0,3.616,14.088,22.692,22.692,0,0,0,2.547,3.65C300.727,322.356,301.141,322.772,301.113,322.8Z" transform="translate(-293.425 -283.256)" fill="#fafafa"/></g><g transform="translate(135.227 56.211)"><path d="M333.428,293a17.031,17.031,0,0,0-4.5-2.527,36.138,36.138,0,0,0-5.443-1.415,61.464,61.464,0,0,1-6.772-1.561,27.854,27.854,0,0,1-10.772-6.478,25.228,25.228,0,0,1-2.544-2.861c-.277-.358-.466-.655-.6-.85s-.195-.306-.182-.315a10,10,0,0,1,.917,1.057,31.685,31.685,0,0,0,2.625,2.742,28.965,28.965,0,0,0,10.693,6.284,67.52,67.52,0,0,0,6.718,1.582,33.521,33.521,0,0,1,5.474,1.522,13.056,13.056,0,0,1,3.351,1.868,7.163,7.163,0,0,1,.787.684C333.355,292.895,333.439,292.987,333.428,293Z" transform="translate(-302.616 -276.99)" fill="#fafafa"/></g><g transform="translate(148.386 32.072)"><path d="M345.471,260.372a6.325,6.325,0,0,1-.91-.79c-.279-.268-.624-.59-1.046-.941s-.875-.78-1.426-1.2a40.161,40.161,0,0,0-3.948-2.793,39.289,39.289,0,0,0-10.849-4.642,40,40,0,0,0-4.747-.927c-.681-.112-1.3-.149-1.849-.207s-1.017-.088-1.4-.105a6.362,6.362,0,0,1-1.2-.113,6.265,6.265,0,0,1,1.2-.06c.388-.009.864-.008,1.415.031s1.18.049,1.869.143a35.49,35.49,0,0,1,4.81.842,36.86,36.86,0,0,1,10.964,4.692,35.617,35.617,0,0,1,3.931,2.9c.543.434.989.88,1.394,1.255s.738.714,1,1A6.255,6.255,0,0,1,345.471,260.372Z" transform="translate(-318.096 -248.593)" fill="#fafafa"/></g><g transform="translate(89.585 4.82)"><path d="M260.722,216.545a6.21,6.21,0,0,1-1.613.778,30.582,30.582,0,0,1-8.393,1.956,6.222,6.222,0,0,1-1.791.016c-.01-.133,2.7-.362,5.956-1.128S260.672,216.421,260.722,216.545Z" transform="translate(-248.925 -216.535)" fill="#fafafa"/></g></g><g transform="translate(102.676 179.1)"><path d="M293.18,350.787a2.368,2.368,0,0,1-2.6,3h0a2.367,2.367,0,0,1-1.945-1.665l-.717-2.676.1.036a2.469,2.469,0,0,1-2.755,2.917h0c-1.12-.027-2.083-1.627-2.4-2.481h0a4.626,4.626,0,0,1-4.319-2.076l-4.991-7.785-9.239-6.759,5.587-19.968L289.8,326.2c.78.606.9.863,2.141,2.013l12.835,11.8c-1.457.875-2.69.807-4.709,0s-10.888-6.789-10.888-6.789l4,17.557" transform="translate(-264.324 -313.33)" fill="#ffbe9d"/><g transform="translate(11.843 21.026)"><path d="M278.257,338.067c.019-.025.229.1.593.348l.656.458a4.05,4.05,0,0,1,.82.717,3.737,3.737,0,0,1,.676,1.152q.232.667.486,1.392l1.086,3.2c.759,2.272,1.423,4.338,1.882,5.838a14.481,14.481,0,0,1,.656,2.456,14.522,14.522,0,0,1-.955-2.361c-.535-1.476-1.245-3.523-2-5.792-.371-1.129-.723-2.2-1.052-3.2l-.447-1.4a3.561,3.561,0,0,0-.571-1.075,4.1,4.1,0,0,0-.729-.718l-.61-.518C278.413,338.263,278.238,338.091,278.257,338.067Z" transform="translate(-278.255 -338.064)" fill="#eb996e"/></g><g transform="translate(15.257 16.829)"><path d="M290.824,352.84a3.4,3.4,0,0,1-.285-.824l-.639-2.276c-.536-1.922-1.266-4.581-2.191-7.477a27.4,27.4,0,0,0-3.056-7.084,6.061,6.061,0,0,0-1.631-1.626c-.463-.292-.765-.376-.751-.419,0-.015.081,0,.226.035a2.846,2.846,0,0,1,.61.235,5.575,5.575,0,0,1,1.8,1.587,24.505,24.505,0,0,1,3.227,7.136c.929,2.911,1.613,5.589,2.072,7.534.228.974.4,1.765.5,2.314A3.231,3.231,0,0,1,290.824,352.84Z" transform="translate(-282.271 -333.128)" fill="#eb996e"/></g><g transform="translate(20.851 15.386)"><path d="M296.941,353.793a3.958,3.958,0,0,1-.347-.893c-.215-.676-.478-1.5-.787-2.478-.646-2.1-1.51-5.005-2.436-8.224l-2.333-8.243a4.03,4.03,0,0,0-1.361-2.078,5.412,5.412,0,0,0-.824-.439c0-.012.09-.018.252.018a2.144,2.144,0,0,1,.669.279,4,4,0,0,1,1.559,2.114c.7,2.1,1.524,5.007,2.464,8.227s1.743,6.139,2.312,8.259q.384,1.484.652,2.517A4.017,4.017,0,0,1,296.941,353.793Z" transform="translate(-288.853 -331.429)" fill="#eb996e"/></g></g></g></g></g><g transform="translate(334.815 94.903)"><g transform="translate(20.006 31.793)"><g transform="translate(24.185 0.001)"><path d="M440.469,140.365a2.976,2.976,0,1,0,2.976-2.975A2.976,2.976,0,0,0,440.469,140.365Z" transform="translate(-440.469 -137.39)" fill="#455a64"/></g><g transform="translate(12.277 0)"><circle cx="2.976" cy="2.976" r="2.976" fill="#455a64"/></g><path d="M412.418,138.878a2.976,2.976,0,1,0,4.065-1.089A2.976,2.976,0,0,0,412.418,138.878Z" transform="translate(-412.018 -137.389)" fill="#455a64"/></g><path d="M423.558,100a3.545,3.545,0,0,0-.6-.009l-1.768.05c-.388.018-.825.017-1.3.058l-1.56.218-1.82.262-2.033.5a32.93,32.93,0,0,0-9.857,4.3,34.785,34.785,0,0,0-15.977,26.145,36.068,36.068,0,0,0-.1,4.765c.057.806.041,1.625.158,2.438l.37,2.455a34.974,34.974,0,0,0,3.313,9.7,37.358,37.358,0,0,0,6.335,8.717,36.626,36.626,0,0,0,9.127,6.557,33.165,33.165,0,0,0,11.126,3.415,22.1,22.1,0,0,0,2.968.252,26.719,26.719,0,0,0,3,.054,35.612,35.612,0,0,0,6.008-.759,35.118,35.118,0,0,0,11.961-5.033l-.363.037,12.184,4.89.722.289-.206-.749q-1.845-6.706-3.582-13.025l-.061.321a34.959,34.959,0,0,0,6.5-14.884,31.646,31.646,0,0,0,.474-7.626,24.621,24.621,0,0,0-.346-3.662q-.139-.9-.277-1.783c-.109-.586-.287-1.154-.426-1.725a34.845,34.845,0,0,0-13.593-19.817,33.315,33.315,0,0,0-8.089-4.267l-1.823-.653-1.73-.439-1.582-.393c-.508-.1-1-.15-1.457-.22-.921-.116-1.73-.275-2.44-.311l-1.79-.06-1.094-.024a1.7,1.7,0,0,0-.37.013,1.634,1.634,0,0,0,.37.051l1.089.086,1.778.12c.7.055,1.505.233,2.417.367a34.653,34.653,0,0,1,27.7,25.7c.133.561.306,1.12.41,1.7q.13.87.263,1.751a23.983,23.983,0,0,1,.323,3.6,31.069,31.069,0,0,1-.494,7.476,34.34,34.34,0,0,1-6.412,14.56l-.11.145.048.177q1.721,6.312,3.555,13.032l.515-.46-12.178-4.9-.19-.077-.173.114a34.392,34.392,0,0,1-11.694,4.916,34.984,34.984,0,0,1-5.873.743,26.341,26.341,0,0,1-2.933-.053,21.531,21.531,0,0,1-2.9-.245,32.449,32.449,0,0,1-10.88-3.328,35.915,35.915,0,0,1-8.941-6.4,36.691,36.691,0,0,1-6.222-8.518,34.36,34.36,0,0,1-3.276-9.491q-.186-1.211-.371-2.4c-.119-.8-.1-1.6-.164-2.39a34.347,34.347,0,0,1,15.638-30.511,33.146,33.146,0,0,1,9.7-4.371l2.008-.536,1.8-.295,1.545-.255c.474-.053.908-.065,1.294-.1l1.759-.128A3.265,3.265,0,0,0,423.558,100Z" transform="translate(-388.484 -99.989)" fill="#455a64"/></g></g></svg>