<svg xmlns="http://www.w3.org/2000/svg" width="748.132" height="628" viewBox="0 0 748.132 628"><g transform="translate(-316.941 -4809)"><g transform="translate(316.941 4809)"><g transform="translate(-235.752 -113.701)"><g transform="translate(324.394 236.167)"><path d="M421.382,182.946a86.888,86.888,0,1,0,86.887,86.887A86.887,86.887,0,0,0,421.382,182.946ZM474.024,312.83a14.719,14.719,0,1,1,14.718-14.718A14.719,14.719,0,0,1,474.024,312.83Z" transform="translate(-316.595 -182.946)" fill="#f0c068"/><path d="M356.686,336.973a3.52,3.52,0,0,1-2.5-1.036,102.057,102.057,0,0,1,0-144.17,3.537,3.537,0,0,1,5,5,94.979,94.979,0,0,0,0,134.165,3.537,3.537,0,0,1-2.5,6.038Z" transform="translate(-324.374 -176.963)" fill="#f0c068"/></g><g transform="translate(324.347 447.319)"><path d="M423.174,302.336A86.925,86.925,0,1,0,510.1,389.26,86.925,86.925,0,0,0,423.174,302.336Zm49.5,70.947a15.452,15.452,0,1,1,15.452-15.454A15.454,15.454,0,0,1,472.676,373.283Z" transform="translate(-315.198 -302.336)" fill="#c74653"/><path d="M356.707,456.382a3.52,3.52,0,0,1-2.5-1.036,101.938,101.938,0,0,1,0-144.167,3.537,3.537,0,0,1,5,5,94.868,94.868,0,0,0,0,134.164,3.537,3.537,0,0,1-2.5,6.038Z" transform="translate(-324.347 -296.337)" fill="#c74653"/></g><g transform="translate(708.943 447.319)"><path d="M628.73,302.336a86.925,86.925,0,1,0,86.926,86.924A86.924,86.924,0,0,0,628.73,302.336Zm-50.923,73.023a15.341,15.341,0,1,1,15.341-15.341A15.34,15.34,0,0,1,577.807,375.359Z" transform="translate(-541.806 -302.336)" fill="#f0c068"/><path d="M634.36,456.382a3.537,3.537,0,0,1-2.5-6.038,94.868,94.868,0,0,0,0-134.164,3.537,3.537,0,0,1,5-5,101.939,101.939,0,0,1,0,144.167A3.52,3.52,0,0,1,634.36,456.382Z" transform="translate(-473.388 -296.337)" fill="#f0c068"/></g><g transform="translate(704.672 236.332)"><path d="M626.116,183.039a86.723,86.723,0,1,0,86.723,86.723A86.724,86.724,0,0,0,626.116,183.039ZM579.664,314.693A15.34,15.34,0,1,1,595,299.352,15.34,15.34,0,0,1,579.664,314.693Z" transform="translate(-539.391 -183.039)" fill="#c74653"/><path d="M631.761,336.973a3.537,3.537,0,0,1-2.5-6.038,94.87,94.87,0,0,0,0-134.165,3.537,3.537,0,0,1,5-5,101.943,101.943,0,0,1,0,144.17A3.526,3.526,0,0,1,631.761,336.973Z" transform="translate(-471.116 -177.128)" fill="#c74653"/></g><g transform="translate(508.394 549.146)"><path d="M525.763,359.911a86.7,86.7,0,1,0,86.7,86.7A86.7,86.7,0,0,0,525.763,359.911Zm-.753,45.647a15.363,15.363,0,1,1,15.364-15.366A15.364,15.364,0,0,1,525.01,405.558Z" transform="translate(-420.222 -359.911)" fill="#ee8d3f"/><path d="M530.354,514.626A102.06,102.06,0,0,1,428.411,412.682a3.537,3.537,0,0,1,7.074,0,94.976,94.976,0,0,0,94.869,94.869,3.537,3.537,0,1,1,0,7.074Z" transform="translate(-428.411 -322.07)" fill="#ee8d3f"/></g><g transform="translate(526.836 113.701)"><path d="M525.937,123.773a87.1,87.1,0,1,0,87.1,87.1A87.1,87.1,0,0,0,525.937,123.773Zm-.753,159.465A15.616,15.616,0,1,1,540.8,267.623,15.615,15.615,0,0,1,525.183,283.238Z" transform="translate(-438.839 -105.96)" fill="#ee8d3f"/><path d="M590.6,219.182a3.537,3.537,0,0,1-3.537-3.537,94.977,94.977,0,0,0-94.869-94.869,3.537,3.537,0,1,1,0-7.074A102.059,102.059,0,0,1,594.136,215.644,3.539,3.539,0,0,1,590.6,219.182Z" transform="translate(-400.551 -113.701)" fill="#ee8d3f"/></g><g transform="translate(454.061 264.323)"><g transform="translate(0 3.902)"><path d="M713.395,359.422c0-86.764-70.588-157.35-157.353-157.35S398.69,272.658,398.69,359.422s70.588,157.352,157.352,157.352S713.395,446.185,713.395,359.422ZM556.042,506.029c-80.839,0-146.607-65.767-146.607-146.607S475.2,212.814,556.042,212.814s146.609,65.769,146.609,146.607S636.882,506.029,556.042,506.029Z" transform="translate(-396.921 -200.303)" fill="#ccc"/><path d="M556.81,201.072c-87.738,0-159.12,71.38-159.12,159.118s71.382,159.12,159.12,159.12,159.122-71.382,159.122-159.12S644.552,201.072,556.81,201.072ZM399.459,360.19c0-86.764,70.588-157.35,157.352-157.35s157.353,70.586,157.353,157.35S643.575,517.542,556.81,517.542,399.459,446.954,399.459,360.19Z" transform="translate(-397.69 -201.072)" fill="#fff"/><path d="M551.372,208.146c-80.839,0-146.607,65.769-146.607,146.607s65.769,146.607,146.607,146.607,146.609-65.767,146.609-146.607S632.213,208.146,551.372,208.146ZM406.534,354.753c0-79.864,64.974-144.839,144.839-144.839s144.841,64.975,144.841,144.839S631.237,499.592,551.372,499.592,406.534,434.618,406.534,354.753Z" transform="translate(-392.252 -195.635)" fill="#fff"/></g><path d="M503.5,209.907a11.041,11.041,0,1,1-11.041-11.041A11.041,11.041,0,0,1,503.5,209.907Z" transform="translate(-333.338 -198.866)" fill="#ee8d3f"/><circle cx="10.408" cy="10.408" r="10.408" transform="translate(17.355 76.601)" fill="#f0c068"/><path d="M429.062,338.461a10.926,10.926,0,1,1-10.925-10.926A10.926,10.926,0,0,1,429.062,338.461Z" transform="translate(-390.374 -99.972)" fill="#c74653"/><path d="M503.245,381.753a10.864,10.864,0,1,1-10.864-10.861A10.864,10.864,0,0,1,503.245,381.753Z" transform="translate(-333.261 -66.648)" fill="#ee8d3f"/><circle cx="10.846" cy="10.846" r="10.846" transform="translate(280.037 229.833)" fill="#f0c068"/><path d="M574.546,245.85a10.847,10.847,0,1,1-15.341,0A10.843,10.843,0,0,1,574.546,245.85Z" transform="translate(-275.992 -165.197)" fill="#c74653"/></g></g><path d="M9,19H1.441V6.4H8.71V8.708H4.28v2.8H8.4v2.3H4.28V16.7H9Zm4.526,0H10.749V5.676h2.777ZM23.95,15.291H18.079q.141,1.96,2.47,1.96a4.822,4.822,0,0,0,2.61-.7v2a6.858,6.858,0,0,1-3.243.668,4.565,4.565,0,0,1-3.384-1.208,4.566,4.566,0,0,1-1.2-3.371,4.816,4.816,0,0,1,1.3-3.551,4.334,4.334,0,0,1,3.2-1.31,3.933,3.933,0,0,1,3.045,1.169,4.5,4.5,0,0,1,1.077,3.173Zm-2.575-1.705q0-1.934-1.564-1.934a1.494,1.494,0,0,0-1.156.554,2.513,2.513,0,0,0-.593,1.38ZM39.894,19H37.125V13.867q0-1.96-1.441-1.96a1.324,1.324,0,0,0-1.116.589,2.42,2.42,0,0,0-.431,1.468V19H31.359V13.814q0-1.907-1.415-1.907a1.356,1.356,0,0,0-1.138.563A2.475,2.475,0,0,0,28.38,14v5H25.6V10H28.38v1.406h.035A3.41,3.41,0,0,1,31.324,9.78a2.592,2.592,0,0,1,2.61,1.679A3.329,3.329,0,0,1,36.958,9.78q2.936,0,2.936,3.621Zm10.283-3.709H44.306q.141,1.96,2.47,1.96a4.822,4.822,0,0,0,2.61-.7v2a6.858,6.858,0,0,1-3.243.668,4.565,4.565,0,0,1-3.384-1.208,4.566,4.566,0,0,1-1.2-3.371,4.816,4.816,0,0,1,1.3-3.551,4.334,4.334,0,0,1,3.2-1.31A3.933,3.933,0,0,1,49.1,10.949a4.5,4.5,0,0,1,1.077,3.173ZM47.6,13.586q0-1.934-1.564-1.934a1.494,1.494,0,0,0-1.156.554,2.513,2.513,0,0,0-.593,1.38ZM60.521,19H57.753V14q0-2.092-1.494-2.092a1.483,1.483,0,0,0-1.187.554,2.109,2.109,0,0,0-.466,1.406V19H51.829V10h2.777v1.424h.035A3.183,3.183,0,0,1,57.533,9.78q2.988,0,2.988,3.709Zm7.638-.105a4.105,4.105,0,0,1-1.854.325q-2.936,0-2.936-3.05V12.048H61.91V10h1.459V8.058l2.769-.791V10h2.021v2.048H66.138v3.639q0,1.406,1.116,1.406a1.882,1.882,0,0,0,.905-.255Zm5.783.325A4.838,4.838,0,0,1,70.4,17.958a4.573,4.573,0,0,1-1.288-3.423,4.573,4.573,0,0,1,1.336-3.494A5.048,5.048,0,0,1,74.065,9.78a4.78,4.78,0,0,1,3.516,1.261,4.483,4.483,0,0,1,1.274,3.335,4.759,4.759,0,0,1-1.314,3.542A4.892,4.892,0,0,1,73.942,19.22Zm.07-7.312a1.852,1.852,0,0,0-1.529.677,2.984,2.984,0,0,0-.545,1.916q0,2.593,2.092,2.593,2,0,2-2.663Q76.025,11.907,74.013,11.907Z" transform="translate(484.559 35)" fill="#002b45"/><path d="M11.716,13.542q0,5.678-5.291,5.678-5.133,0-5.133-5.546V6.4H4.14v7.313q0,3.059,2.391,3.059,2.347,0,2.347-2.953V6.4h2.839ZM22.878,19H20.109V14q0-2.092-1.494-2.092a1.483,1.483,0,0,0-1.187.554,2.109,2.109,0,0,0-.466,1.406V19H14.186V10h2.777v1.424H17A3.183,3.183,0,0,1,19.89,9.78q2.988,0,2.988,3.709Zm3.6-10.424a1.622,1.622,0,0,1-1.151-.417,1.345,1.345,0,0,1-.448-1.024,1.3,1.3,0,0,1,.448-1.02,1.88,1.88,0,0,1,2.307,0,1.3,1.3,0,0,1,.444,1.02,1.34,1.34,0,0,1-.444,1.037A1.65,1.65,0,0,1,26.481,8.576ZM27.853,19H25.075V10h2.777ZM39,19H36.22V17.761h-.035A3.114,3.114,0,0,1,33.4,19.22a3.412,3.412,0,0,1-2.716-1.191A4.93,4.93,0,0,1,29.654,14.7a5.366,5.366,0,0,1,1.134-3.577A3.7,3.7,0,0,1,33.759,9.78a2.527,2.527,0,0,1,2.426,1.248h.035V5.676H39Zm-2.725-4.377v-.677a2.13,2.13,0,0,0-.51-1.459,1.8,1.8,0,0,0-2.769.145,3.367,3.367,0,0,0-.519,1.991,2.914,2.914,0,0,0,.5,1.828,1.779,1.779,0,0,0,2.764-.035A2.821,2.821,0,0,0,36.272,14.623ZM48.823,19H46.2V17.708H46.16a2.933,2.933,0,0,1-2.681,1.512,2.8,2.8,0,0,1-2.061-.743,2.661,2.661,0,0,1-.751-1.982q0-2.619,3.1-3.023l2.443-.325q0-1.477-1.6-1.477a5.46,5.46,0,0,0-3.059.958V10.536a6.881,6.881,0,0,1,1.586-.527,8.339,8.339,0,0,1,1.833-.229q3.85,0,3.85,3.841Zm-2.61-3.656v-.606l-1.635.211q-1.354.176-1.354,1.222a1.01,1.01,0,0,0,.33.778,1.266,1.266,0,0,0,.892.3,1.644,1.644,0,0,0,1.274-.541A1.952,1.952,0,0,0,46.213,15.344ZM59.827,19H57.05V17.761h-.035a3.114,3.114,0,0,1-2.786,1.459,3.412,3.412,0,0,1-2.716-1.191A4.93,4.93,0,0,1,50.484,14.7a5.366,5.366,0,0,1,1.134-3.577A3.7,3.7,0,0,1,54.589,9.78a2.527,2.527,0,0,1,2.426,1.248h.035V5.676h2.777ZM57.1,14.623v-.677a2.13,2.13,0,0,0-.51-1.459,1.8,1.8,0,0,0-2.769.145,3.367,3.367,0,0,0-.519,1.991,2.914,2.914,0,0,0,.5,1.828,1.779,1.779,0,0,0,2.764-.035A2.821,2.821,0,0,0,57.1,14.623ZM15.8,41H13V33.459q0-1.222.105-2.7h-.07a13.277,13.277,0,0,1-.4,1.67L9.686,41H7.365L4.359,32.519a16.5,16.5,0,0,1-.4-1.758H3.885Q4,32.624,4,34.03V41H1.441V28.4H5.6l2.575,7.471a10.519,10.519,0,0,1,.448,1.8h.053a18.142,18.142,0,0,1,.5-1.819L11.751,28.4H15.8Zm11.145,0H24.179V39.629h-.044a3.141,3.141,0,0,1-2.751,1.591q-3.129,0-3.129-3.788V32h2.769v5.186q0,1.907,1.512,1.907a1.5,1.5,0,0,0,1.2-.523,2.109,2.109,0,0,0,.448-1.419V32h2.769Zm10.424-3.709H31.5q.141,1.96,2.47,1.96a4.822,4.822,0,0,0,2.61-.7v2a6.858,6.858,0,0,1-3.243.668,4.189,4.189,0,0,1-4.588-4.579,4.816,4.816,0,0,1,1.3-3.551,4.334,4.334,0,0,1,3.2-1.31,3.933,3.933,0,0,1,3.045,1.169,4.5,4.5,0,0,1,1.077,3.173ZM34.8,35.586q0-1.934-1.564-1.934a1.494,1.494,0,0,0-1.156.554,2.513,2.513,0,0,0-.593,1.38Zm3.639,5.177v-2.25a5.913,5.913,0,0,0,1.367.615,4.531,4.531,0,0,0,1.288.2,2.762,2.762,0,0,0,1.165-.2.653.653,0,0,0,.426-.615.569.569,0,0,0-.193-.439,1.8,1.8,0,0,0-.5-.308,5.635,5.635,0,0,0-.664-.237q-.36-.105-.694-.237a6.653,6.653,0,0,1-.945-.435A2.731,2.731,0,0,1,39,36.315a2.125,2.125,0,0,1-.422-.712,2.841,2.841,0,0,1-.145-.958,2.466,2.466,0,0,1,.33-1.3,2.692,2.692,0,0,1,.879-.892,4.016,4.016,0,0,1,1.257-.51,6.553,6.553,0,0,1,1.472-.163,8.168,8.168,0,0,1,1.213.092,9.053,9.053,0,0,1,1.213.268v2.145a4.383,4.383,0,0,0-1.129-.461,4.764,4.764,0,0,0-1.182-.154,2.619,2.619,0,0,0-.514.048,1.693,1.693,0,0,0-.426.141.783.783,0,0,0-.29.237.546.546,0,0,0-.105.33.609.609,0,0,0,.158.422,1.374,1.374,0,0,0,.413.3,4.078,4.078,0,0,0,.567.229q.312.1.62.207a8.056,8.056,0,0,1,1,.422,3.2,3.2,0,0,1,.769.536,2.105,2.105,0,0,1,.492.721A2.884,2.884,0,0,1,45,39.616a2.78,2.78,0,0,1-.923.923,4.185,4.185,0,0,1-1.327.519,7.357,7.357,0,0,1-1.56.163A8.042,8.042,0,0,1,38.435,40.763Zm13.948.132a4.105,4.105,0,0,1-1.854.325q-2.936,0-2.936-3.05V34.048H46.134V32h1.459V30.058l2.769-.791V32h2.021v2.048H50.361v3.639q0,1.406,1.116,1.406a1.882,1.882,0,0,0,.905-.255Zm7.436-6.39a2.409,2.409,0,0,0-1.169-.272,1.684,1.684,0,0,0-1.415.664,2.9,2.9,0,0,0-.51,1.806V41H53.947V32h2.777v1.67h.035a2.4,2.4,0,0,1,2.373-1.828,1.788,1.788,0,0,1,.686.105ZM68.6,41H65.971V39.708h-.035a2.933,2.933,0,0,1-2.681,1.512,2.8,2.8,0,0,1-2.061-.743,2.661,2.661,0,0,1-.751-1.982q0-2.619,3.1-3.023l2.443-.325q0-1.477-1.6-1.477a5.46,5.46,0,0,0-3.059.958V32.536a6.881,6.881,0,0,1,1.586-.527,8.339,8.339,0,0,1,1.833-.229q3.85,0,3.85,3.841Zm-2.61-3.656v-.606l-1.635.211Q63,37.124,63,38.17a1.01,1.01,0,0,0,.33.778,1.266,1.266,0,0,0,.892.3A1.644,1.644,0,0,0,65.5,38.71,1.952,1.952,0,0,0,65.988,37.344ZM73.573,41H70.8V27.676h2.777Z" transform="translate(674.559 192)" fill="#002b45"/><path d="M12.524,19H9.431l-.9-2.8H4.052L3.164,19H.088L4.676,6.4H8.042ZM7.884,14.017,6.53,9.78a5.52,5.52,0,0,1-.211-1.134h-.07a4.807,4.807,0,0,1-.22,1.1L4.658,14.017ZM16.6,19H13.825V5.676H16.6Zm9.158-.325a5.492,5.492,0,0,1-2.716.545,4.593,4.593,0,0,1-3.357-1.257A4.341,4.341,0,0,1,18.4,14.72,4.782,4.782,0,0,1,19.78,11.1,5.083,5.083,0,0,1,23.458,9.78a4.72,4.72,0,0,1,2.3.422v2.355a3.166,3.166,0,0,0-1.942-.65,2.559,2.559,0,0,0-1.894.7,2.607,2.607,0,0,0-.7,1.929,2.565,2.565,0,0,0,.668,1.876,2.455,2.455,0,0,0,1.837.681,3.666,3.666,0,0,0,2.03-.65ZM35.068,19H32.44V17.708h-.035a2.933,2.933,0,0,1-2.681,1.512,2.8,2.8,0,0,1-2.061-.743,2.661,2.661,0,0,1-.751-1.982q0-2.619,3.1-3.023l2.443-.325q0-1.477-1.6-1.477a5.46,5.46,0,0,0-3.059.958V10.536a6.881,6.881,0,0,1,1.586-.527,8.339,8.339,0,0,1,1.833-.229q3.85,0,3.85,3.841Zm-2.61-3.656v-.606l-1.635.211q-1.354.176-1.354,1.222a1.01,1.01,0,0,0,.33.778,1.266,1.266,0,0,0,.892.3,1.644,1.644,0,0,0,1.274-.541A1.952,1.952,0,0,0,32.458,15.344ZM45.958,19H43.189V14q0-2.092-1.494-2.092a1.483,1.483,0,0,0-1.187.554,2.109,2.109,0,0,0-.466,1.406V19H37.266V10h2.777v1.424h.035A3.183,3.183,0,0,1,42.97,9.78q2.988,0,2.988,3.709Zm9.018-.325a5.492,5.492,0,0,1-2.716.545A4.593,4.593,0,0,1,48.9,17.963a4.341,4.341,0,0,1-1.283-3.243A4.782,4.782,0,0,1,48.995,11.1,5.083,5.083,0,0,1,52.673,9.78a4.72,4.72,0,0,1,2.3.422v2.355a3.166,3.166,0,0,0-1.942-.65,2.559,2.559,0,0,0-1.894.7,2.607,2.607,0,0,0-.7,1.929,2.565,2.565,0,0,0,.668,1.876,2.455,2.455,0,0,0,1.837.681,3.666,3.666,0,0,0,2.03-.65Zm9.905-3.384H59.01q.141,1.96,2.47,1.96a4.822,4.822,0,0,0,2.61-.7v2a6.858,6.858,0,0,1-3.243.668,4.565,4.565,0,0,1-3.384-1.208,4.566,4.566,0,0,1-1.2-3.371,4.816,4.816,0,0,1,1.3-3.551,4.334,4.334,0,0,1,3.2-1.31A3.933,3.933,0,0,1,63.8,10.949a4.5,4.5,0,0,1,1.077,3.173Zm-2.575-1.705q0-1.934-1.564-1.934a1.494,1.494,0,0,0-1.156.554,2.513,2.513,0,0,0-.593,1.38Z" transform="translate(674.559 413)" fill="#002b45"/><path d="M10.292,8.708H6.7V19H3.85V8.708H.272V6.4h10.02Zm2.83-.132a1.622,1.622,0,0,1-1.151-.417,1.345,1.345,0,0,1-.448-1.024,1.3,1.3,0,0,1,.448-1.02,1.676,1.676,0,0,1,1.151-.4,1.672,1.672,0,0,1,1.156.4,1.3,1.3,0,0,1,.444,1.02,1.34,1.34,0,0,1-.444,1.037A1.65,1.65,0,0,1,13.122,8.576ZM14.493,19H11.716V10h2.777Zm10.424-3.709H19.046q.141,1.96,2.47,1.96a4.822,4.822,0,0,0,2.61-.7v2a6.858,6.858,0,0,1-3.243.668A4.565,4.565,0,0,1,17.5,18.011a4.566,4.566,0,0,1-1.2-3.371,4.816,4.816,0,0,1,1.3-3.551,4.334,4.334,0,0,1,3.2-1.31,3.933,3.933,0,0,1,3.045,1.169,4.5,4.5,0,0,1,1.077,3.173Zm-2.575-1.705q0-1.934-1.564-1.934a1.494,1.494,0,0,0-1.156.554,2.513,2.513,0,0,0-.593,1.38ZM40.86,19H38.092V13.867q0-1.96-1.441-1.96a1.324,1.324,0,0,0-1.116.589,2.42,2.42,0,0,0-.431,1.468V19H32.326V13.814q0-1.907-1.415-1.907a1.356,1.356,0,0,0-1.138.563A2.475,2.475,0,0,0,29.347,14v5H26.569V10h2.777v1.406h.035A3.41,3.41,0,0,1,32.291,9.78a2.592,2.592,0,0,1,2.61,1.679A3.329,3.329,0,0,1,37.925,9.78q2.936,0,2.936,3.621Zm5.01-1.046h-.035V23.14H43.058V10h2.777v1.354h.035a3.534,3.534,0,0,1,5.594-.374,5.108,5.108,0,0,1,.954,3.265,5.537,5.537,0,0,1-1.112,3.612,3.625,3.625,0,0,1-2.958,1.362A2.8,2.8,0,0,1,45.87,17.954Zm-.079-3.691v.721a2.291,2.291,0,0,0,.492,1.521,1.6,1.6,0,0,0,1.292.589,1.7,1.7,0,0,0,1.472-.734,3.543,3.543,0,0,0,.523-2.079q0-2.373-1.846-2.373a1.733,1.733,0,0,0-1.393.646A2.576,2.576,0,0,0,45.791,14.263ZM58.509,19.22a4.838,4.838,0,0,1-3.538-1.261,4.573,4.573,0,0,1-1.288-3.423,4.573,4.573,0,0,1,1.336-3.494A5.048,5.048,0,0,1,58.632,9.78a4.78,4.78,0,0,1,3.516,1.261,4.483,4.483,0,0,1,1.274,3.335,4.759,4.759,0,0,1-1.314,3.542A4.892,4.892,0,0,1,58.509,19.22Zm.07-7.312a1.852,1.852,0,0,0-1.529.677A2.984,2.984,0,0,0,56.5,14.5q0,2.593,2.092,2.593,2,0,2-2.663Q60.592,11.907,58.579,11.907Z" transform="translate(217.559 590)" fill="#002b45"/><path d="M11.936,6.4,7.594,19H4.377L.088,6.4H3.146l2.628,8.771a6.282,6.282,0,0,1,.255,1.257h.053a7.1,7.1,0,0,1,.272-1.292L8.965,6.4ZM19.31,19H16.682V17.708h-.035a2.933,2.933,0,0,1-2.681,1.512,2.8,2.8,0,0,1-2.061-.743,2.661,2.661,0,0,1-.751-1.982q0-2.619,3.1-3.023l2.443-.325q0-1.477-1.6-1.477a5.46,5.46,0,0,0-3.059.958V10.536a6.881,6.881,0,0,1,1.586-.527A8.339,8.339,0,0,1,15.46,9.78q3.85,0,3.85,3.841ZM16.7,15.344v-.606l-1.635.211q-1.354.176-1.354,1.222a1.01,1.01,0,0,0,.33.778,1.266,1.266,0,0,0,.892.3,1.644,1.644,0,0,0,1.274-.541A1.952,1.952,0,0,0,16.7,15.344ZM27.378,12.5a2.409,2.409,0,0,0-1.169-.272,1.684,1.684,0,0,0-1.415.664,2.9,2.9,0,0,0-.51,1.806V19H21.507V10h2.777v1.67h.035a2.4,2.4,0,0,1,2.373-1.828,1.788,1.788,0,0,1,.686.105Zm2.769-3.929A1.622,1.622,0,0,1,29,8.159a1.345,1.345,0,0,1-.448-1.024A1.3,1.3,0,0,1,29,6.115a1.88,1.88,0,0,1,2.307,0,1.3,1.3,0,0,1,.444,1.02A1.34,1.34,0,0,1,31.3,8.172,1.65,1.65,0,0,1,30.146,8.576ZM31.518,19H28.74V10h2.777Zm9.826,0H38.716V17.708h-.035A2.933,2.933,0,0,1,36,19.22a2.8,2.8,0,0,1-2.061-.743,2.661,2.661,0,0,1-.751-1.982q0-2.619,3.1-3.023l2.443-.325q0-1.477-1.6-1.477a5.46,5.46,0,0,0-3.059.958V10.536a6.881,6.881,0,0,1,1.586-.527,8.339,8.339,0,0,1,1.833-.229q3.85,0,3.85,3.841Zm-2.61-3.656v-.606l-1.635.211q-1.354.176-1.354,1.222a1.01,1.01,0,0,0,.33.778,1.266,1.266,0,0,0,.892.3,1.644,1.644,0,0,0,1.274-.541A1.952,1.952,0,0,0,38.733,15.344Zm7.62,2.61h-.035V19H43.541V5.676h2.777v5.678h.035A3.3,3.3,0,0,1,49.28,9.78a3.211,3.211,0,0,1,2.681,1.2,5.155,5.155,0,0,1,.94,3.27,5.582,5.582,0,0,1-1.1,3.612,3.579,3.579,0,0,1-2.936,1.362A2.836,2.836,0,0,1,46.354,17.954Zm-.079-3.8v.923a2.107,2.107,0,0,0,.5,1.441,1.63,1.63,0,0,0,1.283.571,1.7,1.7,0,0,0,1.472-.734,3.543,3.543,0,0,0,.523-2.079,2.819,2.819,0,0,0-.479-1.745,1.616,1.616,0,0,0-1.367-.628,1.766,1.766,0,0,0-1.384.624A2.37,2.37,0,0,0,46.274,14.157ZM57.48,19H54.7V5.676H57.48ZM67.9,15.291H62.033q.141,1.96,2.47,1.96a4.822,4.822,0,0,0,2.61-.7v2a6.858,6.858,0,0,1-3.243.668,4.565,4.565,0,0,1-3.384-1.208,4.566,4.566,0,0,1-1.2-3.371,4.816,4.816,0,0,1,1.3-3.551,4.334,4.334,0,0,1,3.2-1.31,3.933,3.933,0,0,1,3.045,1.169A4.5,4.5,0,0,1,67.9,14.122Zm-2.575-1.705q0-1.934-1.564-1.934a1.494,1.494,0,0,0-1.156.554,2.513,2.513,0,0,0-.593,1.38Z" transform="translate(7.559 413)" fill="#002b45"/><path d="M15.8,19H13V11.459q0-1.222.105-2.7h-.07a13.277,13.277,0,0,1-.4,1.67L9.686,19H7.365L4.359,10.519a16.5,16.5,0,0,1-.4-1.758H3.885Q4,10.624,4,12.03V19H1.441V6.4H5.6l2.575,7.471a10.519,10.519,0,0,1,.448,1.8h.053a18.142,18.142,0,0,1,.5-1.819L11.751,6.4H15.8Zm10.081,0H23.256V17.708h-.035A2.933,2.933,0,0,1,20.54,19.22a2.8,2.8,0,0,1-2.061-.743,2.661,2.661,0,0,1-.751-1.982q0-2.619,3.1-3.023l2.443-.325q0-1.477-1.6-1.477a5.46,5.46,0,0,0-3.059.958V10.536a6.881,6.881,0,0,1,1.586-.527,8.339,8.339,0,0,1,1.833-.229q3.85,0,3.85,3.841Zm-2.61-3.656v-.606l-1.635.211q-1.354.176-1.354,1.222a1.01,1.01,0,0,0,.33.778,1.266,1.266,0,0,0,.892.3,1.644,1.644,0,0,0,1.274-.541A1.952,1.952,0,0,0,23.273,15.344ZM33.952,12.5a2.409,2.409,0,0,0-1.169-.272,1.684,1.684,0,0,0-1.415.664,2.9,2.9,0,0,0-.51,1.806V19H28.081V10h2.777v1.67h.035a2.4,2.4,0,0,1,2.373-1.828,1.788,1.788,0,0,1,.686.105Zm8.042,6.17a5.492,5.492,0,0,1-2.716.545,4.593,4.593,0,0,1-3.357-1.257,4.341,4.341,0,0,1-1.283-3.243A4.782,4.782,0,0,1,36.013,11.1,5.083,5.083,0,0,1,39.691,9.78a4.72,4.72,0,0,1,2.3.422v2.355a3.166,3.166,0,0,0-1.942-.65,2.559,2.559,0,0,0-1.894.7,2.607,2.607,0,0,0-.7,1.929,2.565,2.565,0,0,0,.668,1.876,2.455,2.455,0,0,0,1.837.681,3.666,3.666,0,0,0,2.03-.65Zm6.108.545a4.838,4.838,0,0,1-3.538-1.261,4.573,4.573,0,0,1-1.288-3.423,4.573,4.573,0,0,1,1.336-3.494A5.048,5.048,0,0,1,48.226,9.78a4.78,4.78,0,0,1,3.516,1.261,4.483,4.483,0,0,1,1.274,3.335A4.759,4.759,0,0,1,51.7,17.919,4.892,4.892,0,0,1,48.1,19.22Zm.07-7.312a1.852,1.852,0,0,0-1.529.677A2.984,2.984,0,0,0,46.1,14.5q0,2.593,2.092,2.593,2,0,2-2.663Q50.186,11.907,48.173,11.907ZM15.8,41H13V33.459q0-1.222.105-2.7h-.07a13.277,13.277,0,0,1-.4,1.67L9.686,41H7.365L4.359,32.519a16.5,16.5,0,0,1-.4-1.758H3.885Q4,32.624,4,34.03V41H1.441V28.4H5.6l2.575,7.471a10.519,10.519,0,0,1,.448,1.8h.053a18.142,18.142,0,0,1,.5-1.819L11.751,28.4H15.8Zm11.145,0H24.179V39.629h-.044a3.141,3.141,0,0,1-2.751,1.591q-3.129,0-3.129-3.788V32h2.769v5.186q0,1.907,1.512,1.907a1.5,1.5,0,0,0,1.2-.523,2.109,2.109,0,0,0,.448-1.419V32h2.769Zm10.424-3.709H31.5q.141,1.96,2.47,1.96a4.822,4.822,0,0,0,2.61-.7v2a6.858,6.858,0,0,1-3.243.668,4.189,4.189,0,0,1-4.588-4.579,4.816,4.816,0,0,1,1.3-3.551,4.334,4.334,0,0,1,3.2-1.31,3.933,3.933,0,0,1,3.045,1.169,4.5,4.5,0,0,1,1.077,3.173ZM34.8,35.586q0-1.934-1.564-1.934a1.494,1.494,0,0,0-1.156.554,2.513,2.513,0,0,0-.593,1.38Zm3.639,5.177v-2.25a5.913,5.913,0,0,0,1.367.615,4.531,4.531,0,0,0,1.288.2,2.762,2.762,0,0,0,1.165-.2.653.653,0,0,0,.426-.615.569.569,0,0,0-.193-.439,1.8,1.8,0,0,0-.5-.308,5.635,5.635,0,0,0-.664-.237q-.36-.105-.694-.237a6.653,6.653,0,0,1-.945-.435A2.731,2.731,0,0,1,39,36.315a2.125,2.125,0,0,1-.422-.712,2.841,2.841,0,0,1-.145-.958,2.466,2.466,0,0,1,.33-1.3,2.692,2.692,0,0,1,.879-.892,4.016,4.016,0,0,1,1.257-.51,6.553,6.553,0,0,1,1.472-.163,8.168,8.168,0,0,1,1.213.092,9.053,9.053,0,0,1,1.213.268v2.145a4.383,4.383,0,0,0-1.129-.461,4.764,4.764,0,0,0-1.182-.154,2.619,2.619,0,0,0-.514.048,1.693,1.693,0,0,0-.426.141.783.783,0,0,0-.29.237.546.546,0,0,0-.105.33.609.609,0,0,0,.158.422,1.374,1.374,0,0,0,.413.3,4.078,4.078,0,0,0,.567.229q.312.1.62.207a8.056,8.056,0,0,1,1,.422,3.2,3.2,0,0,1,.769.536,2.105,2.105,0,0,1,.492.721A2.884,2.884,0,0,1,45,39.616a2.78,2.78,0,0,1-.923.923,4.185,4.185,0,0,1-1.327.519,7.357,7.357,0,0,1-1.56.163A8.042,8.042,0,0,1,38.435,40.763Zm13.948.132a4.105,4.105,0,0,1-1.854.325q-2.936,0-2.936-3.05V34.048H46.134V32h1.459V30.058l2.769-.791V32h2.021v2.048H50.361v3.639q0,1.406,1.116,1.406a1.882,1.882,0,0,0,.905-.255Zm7.436-6.39a2.409,2.409,0,0,0-1.169-.272,1.684,1.684,0,0,0-1.415.664,2.9,2.9,0,0,0-.51,1.806V41H53.947V32h2.777v1.67h.035a2.4,2.4,0,0,1,2.373-1.828,1.788,1.788,0,0,1,.686.105ZM68.6,41H65.971V39.708h-.035a2.933,2.933,0,0,1-2.681,1.512,2.8,2.8,0,0,1-2.061-.743,2.661,2.661,0,0,1-.751-1.982q0-2.619,3.1-3.023l2.443-.325q0-1.477-1.6-1.477a5.46,5.46,0,0,0-3.059.958V32.536a6.881,6.881,0,0,1,1.586-.527,8.339,8.339,0,0,1,1.833-.229q3.85,0,3.85,3.841Zm-2.61-3.656v-.606l-1.635.211Q63,37.124,63,38.17a1.01,1.01,0,0,0,.33.778,1.266,1.266,0,0,0,.892.3A1.644,1.644,0,0,0,65.5,38.71,1.952,1.952,0,0,0,65.988,37.344ZM73.573,41H70.8V27.676h2.777Z" transform="translate(-1.441 192)" fill="#002b45"/></g><path d="M22.7,86.977q-20,0-20-28.086,0-14.57,5.41-22.207t15.684-7.637q19.531,0,19.531,28.555,0,14.219-5.332,21.8T22.7,86.977Zm.547-48.516q-8.008,0-8.008,20.117,0,18.945,7.852,18.945,7.656,0,7.656-19.531T23.242,38.461Zm55.273-9.727V86h-12.3V42.641a14.736,14.736,0,0,1-2.4,1.7,24.8,24.8,0,0,1-2.949,1.445,26.334,26.334,0,0,1-3.242,1.094,23.681,23.681,0,0,1-3.32.645V37.133a51.328,51.328,0,0,0,9.063-3.594,51.574,51.574,0,0,0,7.7-4.8Z" transform="translate(650 4854)" fill="#fff"/><path d="M22.7,86.977q-20,0-20-28.086,0-14.57,5.41-22.207t15.684-7.637q19.531,0,19.531,28.555,0,14.219-5.332,21.8T22.7,86.977Zm.547-48.516q-8.008,0-8.008,20.117,0,18.945,7.852,18.945,7.656,0,7.656-19.531T23.242,38.461Zm39.531,37.3h23.75V86H49.258V81.781A19.636,19.636,0,0,1,50.7,74.066a25.6,25.6,0,0,1,3.633-6.133,31.511,31.511,0,0,1,4.785-4.8q2.6-2.09,4.941-3.77Q66.523,57.6,68.379,56A24.6,24.6,0,0,0,71.5,52.816a12.1,12.1,0,0,0,1.895-3.2,9.526,9.526,0,0,0,.625-3.457,6.948,6.948,0,0,0-2.031-5.43q-2.031-1.836-6.211-1.836-7.227,0-13.828,5.742V33.773a29.684,29.684,0,0,1,16.484-4.727,24.345,24.345,0,0,1,7.637,1.113A16.157,16.157,0,0,1,81.8,33.344a13.578,13.578,0,0,1,3.574,5.02,16.94,16.94,0,0,1,1.23,6.582A18.559,18.559,0,0,1,85.41,51.82a21.126,21.126,0,0,1-3.164,5.469A28.7,28.7,0,0,1,77.7,61.8q-2.578,2.051-5.352,3.965Q70.469,67.094,68.73,68.4a34.255,34.255,0,0,0-3.066,2.578,14,14,0,0,0-2.109,2.48A4.282,4.282,0,0,0,62.773,75.766Z" transform="translate(829 4955)" fill="#fff"/><path d="M22.7,86.977q-20,0-20-28.086,0-14.57,5.41-22.207t15.684-7.637q19.531,0,19.531,28.555,0,14.219-5.332,21.8T22.7,86.977Zm.547-48.516q-8.008,0-8.008,20.117,0,18.945,7.852,18.945,7.656,0,7.656-19.531T23.242,38.461Zm27.344,45.7V73.422a21.682,21.682,0,0,0,13.125,4.1q4.727,0,7.363-2.031a6.744,6.744,0,0,0,2.637-5.664,6.438,6.438,0,0,0-3.262-5.781q-3.262-2.031-8.965-2.031h-5.2V52.563h4.8q10.937,0,10.938-7.266,0-6.836-8.4-6.836A19.147,19.147,0,0,0,52.7,42.094V32.016a30.208,30.208,0,0,1,13.75-2.969q8.594,0,13.379,3.867a12.307,12.307,0,0,1,4.785,10.039q0,10.977-11.133,13.75v.2a15.135,15.135,0,0,1,9.375,4.316,12.17,12.17,0,0,1,3.438,8.77,15.029,15.029,0,0,1-5.742,12.422q-5.742,4.57-15.859,4.57Q56.016,86.977,50.586,84.164Z" transform="translate(841 5187)" fill="#fff"/><path d="M22.7,86.977q-20,0-20-28.086,0-14.57,5.41-22.207t15.684-7.637q19.531,0,19.531,28.555,0,14.219-5.332,21.8T22.7,86.977Zm.547-48.516q-8.008,0-8.008,20.117,0,18.945,7.852,18.945,7.656,0,7.656-19.531T23.242,38.461ZM83.2,29.984V65.3h6.719v9.219H83.2V86H71.953V74.516H47.539V64.867q3.242-3.633,6.719-7.949t6.719-8.887q3.242-4.57,6.035-9.2a92.217,92.217,0,0,0,4.746-8.848ZM58.594,65.3H71.953V45.727q-1.367,2.539-2.969,5.137T65.625,55.98q-1.758,2.52-3.555,4.883T58.594,65.3Z" transform="translate(650 5288)" fill="#fff"/><path d="M22.7,86.977q-20,0-20-28.086,0-14.57,5.41-22.207t15.684-7.637q19.531,0,19.531,28.555,0,14.219-5.332,21.8T22.7,86.977Zm.547-48.516q-8.008,0-8.008,20.117,0,18.945,7.852,18.945,7.656,0,7.656-19.531T23.242,38.461Zm28.32,46.094V74.008a23.026,23.026,0,0,0,12.227,3.516q4.883,0,7.637-2.324a7.823,7.823,0,0,0,2.754-6.309q0-8.32-11.758-8.32a87.066,87.066,0,0,0-10,.664l2.109-31.25H84.18V40.063H63.945l-.781,11.211q3.008-.234,5.2-.234,8.633,0,13.516,4.531t4.883,12.188a17.989,17.989,0,0,1-5.82,13.848q-5.82,5.371-15.781,5.371A33.769,33.769,0,0,1,51.563,84.555Z" transform="translate(455 5187)" fill="#fff"/><path d="M22.7,86.977q-20,0-20-28.086,0-14.57,5.41-22.207t15.684-7.637q19.531,0,19.531,28.555,0,14.219-5.332,21.8T22.7,86.977Zm.547-48.516q-8.008,0-8.008,20.117,0,18.945,7.852,18.945,7.656,0,7.656-19.531T23.242,38.461ZM89.375,67.367A20.533,20.533,0,0,1,87.93,75.1a18.88,18.88,0,0,1-4.023,6.23,18.616,18.616,0,0,1-6.133,4.141,21.039,21.039,0,0,1-16.23-.254,17.07,17.07,0,0,1-6.309-5.1,23.834,23.834,0,0,1-3.945-8.184,40.442,40.442,0,0,1-1.367-10.977A45.193,45.193,0,0,1,51.7,47.855,30.089,30.089,0,0,1,56.777,37.8a22.809,22.809,0,0,1,7.988-6.465,23.754,23.754,0,0,1,10.547-2.285q6.484,0,10.078,1.523V40.883a18.481,18.481,0,0,0-9.3-2.422,12.991,12.991,0,0,0-5.664,1.211,12.52,12.52,0,0,0-4.355,3.438,16.62,16.62,0,0,0-2.852,5.371,23.9,23.9,0,0,0-1.113,7.012h.234q3.984-5.508,11.758-5.508a15.321,15.321,0,0,1,6.289,1.25,13.644,13.644,0,0,1,4.8,3.535,16.217,16.217,0,0,1,3.086,5.488A21.9,21.9,0,0,1,89.375,67.367Zm-12.07.781q0-9.023-7.383-9.023a7.244,7.244,0,0,0-3.047.625,6.779,6.779,0,0,0-2.344,1.758,8.02,8.02,0,0,0-1.5,2.676A10.517,10.517,0,0,0,62.5,67.6a13.22,13.22,0,0,0,.547,3.867,10.271,10.271,0,0,0,1.543,3.145,7.641,7.641,0,0,0,2.363,2.129A6.031,6.031,0,0,0,70,77.523a6.6,6.6,0,0,0,3.027-.684,6.779,6.779,0,0,0,2.3-1.914A8.8,8.8,0,0,0,76.8,71.957,13.542,13.542,0,0,0,77.3,68.148Z" transform="translate(455 4955)" fill="#fff"/></g></svg>