<svg xmlns="http://www.w3.org/2000/svg" width="118.151" height="118.152" viewBox="0 0 118.151 118.152"><g transform="translate(-2600.624 -42.978)"><path d="M2718.775,102.054A59.076,59.076,0,1,1,2659.7,42.978,59.076,59.076,0,0,1,2718.775,102.054Z" fill="#f77c5b"/><g transform="translate(2601.658 53.287)"><g transform="translate(5.119 14.677)"><g transform="translate(0 70.76)"><path d="M2707.17,157.278h-88.858a11.053,11.053,0,0,1-11.053-11.053h110.964A11.053,11.053,0,0,1,2707.17,157.278Z" transform="translate(-2607.259 -146.225)" fill="#7bd1df"/></g><g transform="translate(4.603)"><path d="M2713.98,80.689v49.237a10.754,10.754,0,0,1-10.755,10.756H2622.99a10.764,10.764,0,0,1-10.767-10.756V80.689a10.773,10.773,0,0,1,10.767-10.767h80.235A10.763,10.763,0,0,1,2713.98,80.689Z" transform="translate(-2612.223 -69.922)" fill="#058789"/></g><g transform="translate(9.501 5.887)"><path d="M2709.467,80.431v43.682a4.166,4.166,0,0,1-4.173,4.173h-83.618a4.165,4.165,0,0,1-4.172-4.173V80.431a4.162,4.162,0,0,1,4.172-4.161h83.618A4.163,4.163,0,0,1,2709.467,80.431Z" transform="translate(-2617.504 -76.27)" fill="#edf3f3"/></g><g transform="translate(53.111 61.687)"><path d="M2669.272,138.812a2.371,2.371,0,1,1-2.371-2.371A2.371,2.371,0,0,1,2669.272,138.812Z" transform="translate(-2664.53 -136.441)" fill="#f0ecc9"/></g></g><g transform="translate(0 21.161)"><g transform="translate(0 27.714)"><path d="M2602.891,122.677h0a3.937,3.937,0,0,1,0-5.568L2613.2,106.8l5.568,5.567-10.312,10.312A3.936,3.936,0,0,1,2602.891,122.677Z" transform="translate(-2601.738 -106.798)" fill="#7bd1df"/></g><g transform="translate(8.497)"><circle cx="18.124" cy="18.124" r="18.124" fill="#243239"/></g><g transform="translate(13.105 4.608)"><circle cx="13.516" cy="13.516" r="13.516" fill="#fdda92"/></g><g transform="translate(18.82 10.321)"><path d="M2637.634,103.649a11.033,11.033,0,0,1-15.6,0l15.608-15.607A11.034,11.034,0,0,1,2637.634,103.649Z" transform="translate(-2622.033 -88.042)" fill="#edf3f3"/></g><g transform="translate(15.589 18.121)"><path d="M2629.58,96.46l-7.8,7.8a10.98,10.98,0,0,1-3.232-7.807Z" transform="translate(-2618.548 -96.454)" fill="#f77c5b"/></g><g transform="translate(15.589 7.086)"><path d="M2637.387,87.789,2629.58,95.6l-11.032-.006a11.032,11.032,0,0,1,18.839-7.8Z" transform="translate(-2618.548 -84.554)" fill="#7dd0de"/></g></g><g transform="translate(46.015 48.052)"><g transform="translate(0 9.617)"><rect width="7.156" height="11.71" fill="#f77c5b"/></g><g transform="translate(11.236 5.736)"><rect width="7.156" height="15.59" fill="#f77c5b"/></g><g transform="translate(22.472 15.177)"><rect width="7.156" height="6.15" fill="#f77c5b"/></g><g transform="translate(33.708)"><rect width="7.156" height="21.327" fill="#f77c5b"/></g><g transform="translate(44.944 2.956)"><rect width="7.156" height="18.371" fill="#f77c5b"/></g></g><g transform="translate(73.748)"><g transform="translate(0 15.513)"><path d="M2685.2,72.908h-2.891a1.042,1.042,0,1,1,0-2.085h2.891a1.042,1.042,0,0,1,0,2.085Z" transform="translate(-2681.263 -70.823)" fill="#414042"/></g><g transform="translate(28.12 15.513)"><path d="M2715.52,72.908h-2.892a1.042,1.042,0,1,1,0-2.085h2.892a1.042,1.042,0,1,1,0,2.085Z" transform="translate(-2711.585 -70.823)" fill="#414042"/></g><g transform="translate(24.423 24.423)"><path d="M2710.7,84.573a1.036,1.036,0,0,1-.736-.305l-2.058-2.057a1.043,1.043,0,0,1,1.475-1.475l2.057,2.057a1.042,1.042,0,0,1-.737,1.78Z" transform="translate(-2707.599 -80.431)" fill="#414042"/></g><g transform="translate(4.546 4.546)"><path d="M2689.25,63.125a1.037,1.037,0,0,1-.737-.305l-2.043-2.043a1.043,1.043,0,1,1,1.475-1.475l2.043,2.043a1.042,1.042,0,0,1-.738,1.78Z" transform="translate(-2686.165 -58.997)" fill="#414042"/></g><g transform="translate(15.513)"><path d="M2699.033,59.071a1.042,1.042,0,0,1-1.042-1.042V55.137a1.042,1.042,0,0,1,2.085,0v2.892A1.042,1.042,0,0,1,2699.033,59.071Z" transform="translate(-2697.99 -54.095)" fill="#414042"/></g><g transform="translate(15.513 28.12)"><path d="M2699.033,89.408a1.042,1.042,0,0,1-1.042-1.042V85.46a1.042,1.042,0,0,1,2.085,0v2.905A1.042,1.042,0,0,1,2699.033,89.408Z" transform="translate(-2697.99 -84.418)" fill="#414042"/></g><g transform="translate(24.423 4.546)"><path d="M2708.641,63.139a1.042,1.042,0,0,1-.737-1.78l2.058-2.057a1.042,1.042,0,1,1,1.474,1.475l-2.057,2.057A1.042,1.042,0,0,1,2708.641,63.139Z" transform="translate(-2707.599 -58.997)" fill="#414042"/></g><g transform="translate(4.546 24.423)"><path d="M2687.207,84.573a1.042,1.042,0,0,1-.737-1.78l2.057-2.057A1.043,1.043,0,0,1,2690,82.211l-2.057,2.057A1.04,1.04,0,0,1,2687.207,84.573Z" transform="translate(-2686.165 -80.431)" fill="#414042"/></g></g><g transform="translate(30.879 56.655)"><path d="M2639.569,124.253a4.532,4.532,0,1,1,4.533-4.532A4.538,4.538,0,0,1,2639.569,124.253Zm0-7.675a3.143,3.143,0,1,0,3.143,3.143A3.146,3.146,0,0,0,2639.569,116.578Z" transform="translate(-2635.036 -115.188)" fill="#f77c5b"/></g><g transform="translate(53.697 34.24)"><path d="M2664.175,100.083a4.533,4.533,0,1,1,4.533-4.533A4.538,4.538,0,0,1,2664.175,100.083Zm0-7.676a3.143,3.143,0,1,0,3.143,3.143A3.146,3.146,0,0,0,2664.175,92.407Z" transform="translate(-2659.642 -91.017)" fill="#f77c5b"/></g><g transform="translate(63.117 43.11)"><path d="M2674.333,109.647a4.532,4.532,0,1,1,4.533-4.533A4.538,4.538,0,0,1,2674.333,109.647Zm0-7.676a3.143,3.143,0,1,0,3.143,3.143A3.147,3.147,0,0,0,2674.333,101.971Z" transform="translate(-2669.8 -100.582)" fill="#f77c5b"/></g><g transform="translate(34.369 32.507)"><g transform="translate(0 0.555)"><path d="M2639.842,118.915a1.042,1.042,0,0,1-.737-1.78l23.319-23.318,9.6,9.6,13.369-13.368a1.042,1.042,0,1,1,1.475,1.474l-14.844,14.843-9.6-9.6-21.844,21.844A1.044,1.044,0,0,1,2639.842,118.915Z" transform="translate(-2638.8 -89.747)" fill="#414042"/></g><g transform="translate(36.419)"><path d="M2690.13,101.66l-2.086-.074.377-10.274-10.275.375-.074-2.086,12.514-.454Z" transform="translate(-2678.071 -89.148)" fill="#414042"/></g></g></g></g></svg>