<svg xmlns="http://www.w3.org/2000/svg" width="121" height="121" viewBox="0 0 121 121">
  <g id="Grupo_24019" data-name="Grupo 24019" transform="translate(-282.5 -2523)">
    <circle id="Elipse_839" data-name="Elipse 839" cx="60.5" cy="60.5" r="60.5" transform="translate(282.5 2523)" fill="#fe7c5f"/>
    <path id="Trazado_17262" data-name="Trazado 17262" d="M53.993,0A53.993,53.993,0,1,1,0,53.993,53.993,53.993,0,0,1,53.993,0Z" transform="translate(289.5 2530)" fill="#fff"/>
    <path id="Trazado_48983" data-name="Trazado 48983" d="M14.185,54.61q-12.5,0-12.5-17.554,0-9.106,3.381-13.879t9.8-4.773q12.207,0,12.207,17.847,0,8.887-3.333,13.623A10.978,10.978,0,0,1,14.185,54.61Zm.342-30.322q-5,0-5,12.573,0,11.841,4.907,11.841,4.785,0,4.785-12.207T14.526,24.288Zm40.942-.854q-2.344,4.224-4.2,7.922T48,38.656a68.841,68.841,0,0,0-2.417,7.324A70.745,70.745,0,0,0,43.945,54H35.889A65.92,65.92,0,0,1,37.7,46.139,73.726,73.726,0,0,1,40.3,38.8q1.477-3.552,3.271-6.921t3.8-6.592H31.1v-6.3H55.469Z" transform="translate(314 2551)" fill="#20287a"/>
  </g>
</svg>
