<svg xmlns="http://www.w3.org/2000/svg" width="64.015" height="64.015" viewBox="0 0 64.015 64.015">
  <g id="Grupo_27396" data-name="Grupo 27396" transform="translate(-1197 -5070)">
    <g id="Trazado_48987" data-name="Trazado 48987" transform="translate(1197 5070)" fill="#fff">
      <path d="M 32.00732421875 61.51464462280273 C 28.02275848388672 61.51464462280273 24.15871238708496 60.73482513427734 20.52251243591309 59.19684600830078 C 17.00910186767578 57.71079254150391 13.8532018661499 55.58285903930664 11.14250183105469 52.87214660644531 C 8.431791305541992 50.16144561767578 6.303857326507568 47.00554656982422 4.817801952362061 43.49213409423828 C 3.279824256896973 39.85593414306641 2.500001907348633 35.99188995361328 2.500001907348633 32.00732421875 C 2.500001907348633 28.02275848388672 3.279824256896973 24.15871238708496 4.817801952362061 20.52251243591309 C 6.303857326507568 17.00910186767578 8.431791305541992 13.8532018661499 11.14250183105469 11.14250183105469 C 13.8532018661499 8.431791305541992 17.00910186767578 6.303857326507568 20.52251243591309 4.817801952362061 C 24.15871238708496 3.279824256896973 28.02275848388672 2.500001907348633 32.00732421875 2.500001907348633 C 35.99188995361328 2.500001907348633 39.85593414306641 3.279824256896973 43.49213409423828 4.817801952362061 C 47.00554656982422 6.303857326507568 50.16144561767578 8.431791305541992 52.87214660644531 11.14250183105469 C 55.58285903930664 13.8532018661499 57.71079254150391 17.00910186767578 59.19684600830078 20.52251243591309 C 60.73482513427734 24.15871238708496 61.51464462280273 28.02275848388672 61.51464462280273 32.00732421875 C 61.51464462280273 35.99188995361328 60.73482513427734 39.85593414306641 59.19684600830078 43.49213409423828 C 57.71079254150391 47.00554656982422 55.58285903930664 50.16144561767578 52.87214660644531 52.87214660644531 C 50.16144561767578 55.58285903930664 47.00554656982422 57.71079254150391 43.49213409423828 59.19684600830078 C 39.85593414306641 60.73482513427734 35.99188995361328 61.51464462280273 32.00732421875 61.51464462280273 Z" stroke="none"/>
      <path d="M 32.00732421875 5.000003814697266 C 28.35914993286133 5.000003814697266 24.8227653503418 5.71337890625 21.49639129638672 7.120323181152344 C 18.28097915649414 8.480323791503906 15.39217758178711 10.42833709716797 12.91025924682617 12.91025924682617 C 10.42833709716797 15.39217758178711 8.480323791503906 18.28097915649414 7.120323181152344 21.49639129638672 C 5.71337890625 24.8227653503418 5.000003814697266 28.35914993286133 5.000003814697266 32.00732421875 C 5.000003814697266 35.65549850463867 5.71337890625 39.19188690185547 7.120323181152344 42.51825714111328 C 8.480323791503906 45.73367309570312 10.42833709716797 48.62247085571289 12.91025924682617 51.10439300537109 C 15.39217758178711 53.58631134033203 18.28097915649414 55.53432464599609 21.49639129638672 56.89432525634766 C 24.8227653503418 58.30126953125 28.35914993286133 59.01464462280273 32.00732421875 59.01464462280273 C 35.65549850463867 59.01464462280273 39.19188690185547 58.30126953125 42.51825714111328 56.89432525634766 C 45.73367309570312 55.53432464599609 48.62247085571289 53.58631134033203 51.10439300537109 51.10439300537109 C 53.58631134033203 48.62247085571289 55.53432464599609 45.73367309570312 56.89432525634766 42.51825714111328 C 58.30126953125 39.19188690185547 59.01464462280273 35.65549850463867 59.01464462280273 32.00732421875 C 59.01464462280273 28.35914993286133 58.30126953125 24.8227653503418 56.89432525634766 21.49639129638672 C 55.53432464599609 18.28097915649414 53.58631134033203 15.39217758178711 51.10439300537109 12.91025924682617 C 48.62247085571289 10.42833709716797 45.73367309570312 8.480323791503906 42.51825714111328 7.120323181152344 C 39.19188690185547 5.71337890625 35.65549850463867 5.000003814697266 32.00732421875 5.000003814697266 M 32.00732421875 7.62939453125e-06 C 49.68448638916016 7.62939453125e-06 64.01464080810547 14.33016586303711 64.01464080810547 32.00732421875 C 64.01464080810547 49.68448638916016 49.68448638916016 64.01464080810547 32.00732421875 64.01464080810547 C 14.33016586303711 64.01464080810547 7.62939453125e-06 49.68448638916016 7.62939453125e-06 32.00732421875 C 7.62939453125e-06 14.33016586303711 14.33016586303711 7.62939453125e-06 32.00732421875 7.62939453125e-06 Z" stroke="none" fill="#fe7c5f"/>
    </g>
    <path id="Trazado_49750" data-name="Trazado 49750" d="M10.779-17.957v2.905h-.342a5.993,5.993,0,0,0-3.851,1.245,5.059,5.059,0,0,0-1.752,3.357,4.8,4.8,0,0,1,3.577-1.44,4.527,4.527,0,0,1,3.687,1.66,6.655,6.655,0,0,1,1.367,4.37,6.546,6.546,0,0,1-.751,3.137A5.384,5.384,0,0,1,10.59-.537,6.171,6.171,0,0,1,7.483.244,5.763,5.763,0,0,1,2.948-1.709,7.581,7.581,0,0,1,1.221-6.921v-1.27A11.409,11.409,0,0,1,2.313-13.3,8.011,8.011,0,0,1,5.45-16.73a9.193,9.193,0,0,1,4.742-1.227ZM7.336-9.045a2.819,2.819,0,0,0-1.55.445A2.679,2.679,0,0,0,4.761-7.425v1.072a4.75,4.75,0,0,0,.7,2.76A2.248,2.248,0,0,0,7.41-2.6a2.224,2.224,0,0,0,1.837-.9,3.652,3.652,0,0,0,.7-2.321,3.645,3.645,0,0,0-.708-2.339A2.308,2.308,0,0,0,7.336-9.045Z" transform="translate(1221 5113)" fill="#97181a"/>
  </g>
</svg>
