<svg xmlns="http://www.w3.org/2000/svg" width="266.293" height="184.353" viewBox="0 0 266.293 184.353">
  <g id="Grupo_27399" data-name="Grupo 27399" transform="translate(5296.643 -430.647)">
    <g id="Grupo_27347" data-name="Grupo 27347" transform="translate(-5604.722 160.609)">
      <g id="Grupo_27156" data-name="Grupo 27156" transform="translate(409.752 297.791)">
        <g id="Grupo_27127" data-name="Grupo 27127">
          <g id="Grupo_27126" data-name="Grupo 27126">
            <rect id="Rectángulo_5034" data-name="Rectángulo 5034" width="128.391" height="73.749" fill="#dae2f2"/>
          </g>
        </g>
        <g id="Grupo_27129" data-name="Grupo 27129" transform="translate(3.008 2.188)">
          <g id="Grupo_27128" data-name="Grupo 27128">
            <rect id="Rectángulo_5035" data-name="Rectángulo 5035" width="119.802" height="6.503" fill="#eaf0fe"/>
          </g>
        </g>
        <g id="Grupo_27131" data-name="Grupo 27131" transform="translate(4.725 11.947)">
          <g id="Grupo_27130" data-name="Grupo 27130">
            <rect id="Rectángulo_5036" data-name="Rectángulo 5036" width="45.518" height="58.681" fill="#eaf0fe"/>
          </g>
        </g>
        <g id="Grupo_27133" data-name="Grupo 27133" transform="translate(8.591 49.997)">
          <g id="Grupo_27132" data-name="Grupo 27132">
            <rect id="Rectángulo_5037" data-name="Rectángulo 5037" width="35.637" height="17.047" fill="#dae2f2"/>
          </g>
        </g>
        <g id="Grupo_27135" data-name="Grupo 27135" transform="translate(8.591 16.4)">
          <g id="Grupo_27134" data-name="Grupo 27134">
            <rect id="Rectángulo_5038" data-name="Rectángulo 5038" width="35.637" height="2.406" fill="#dae2f2"/>
          </g>
        </g>
        <g id="Grupo_27137" data-name="Grupo 27137" transform="translate(8.591 21.82)">
          <g id="Grupo_27136" data-name="Grupo 27136">
            <rect id="Rectángulo_5039" data-name="Rectángulo 5039" width="35.637" height="2.41" fill="#dae2f2"/>
          </g>
        </g>
        <g id="Grupo_27139" data-name="Grupo 27139" transform="translate(8.591 28.323)">
          <g id="Grupo_27138" data-name="Grupo 27138">
            <rect id="Rectángulo_5040" data-name="Rectángulo 5040" width="35.637" height="2.408" fill="#dae2f2"/>
          </g>
        </g>
        <g id="Grupo_27141" data-name="Grupo 27141" transform="translate(8.591 33.741)">
          <g id="Grupo_27140" data-name="Grupo 27140">
            <rect id="Rectángulo_5041" data-name="Rectángulo 5041" width="35.637" height="2.41" fill="#dae2f2"/>
          </g>
        </g>
        <g id="Grupo_27143" data-name="Grupo 27143" transform="translate(63.124 11.947)">
          <g id="Grupo_27142" data-name="Grupo 27142">
            <rect id="Rectángulo_5042" data-name="Rectángulo 5042" width="59.686" height="2.888" fill="#eaf0fe"/>
          </g>
        </g>
        <g id="Grupo_27145" data-name="Grupo 27145" transform="translate(63.124 17.362)">
          <g id="Grupo_27144" data-name="Grupo 27144">
            <rect id="Rectángulo_5043" data-name="Rectángulo 5043" width="59.686" height="2.89" fill="#eaf0fe"/>
          </g>
        </g>
        <g id="Grupo_27147" data-name="Grupo 27147" transform="translate(63.124 23.866)">
          <g id="Grupo_27146" data-name="Grupo 27146">
            <rect id="Rectángulo_5044" data-name="Rectángulo 5044" width="59.686" height="2.892" fill="#eaf0fe"/>
          </g>
        </g>
        <g id="Grupo_27149" data-name="Grupo 27149" transform="translate(63.124 30.731)">
          <g id="Grupo_27148" data-name="Grupo 27148">
            <rect id="Rectángulo_5045" data-name="Rectángulo 5045" width="59.686" height="38.196" fill="#eaf0fe"/>
          </g>
        </g>
        <g id="Grupo_27151" data-name="Grupo 27151" transform="translate(68.278 34.945)">
          <g id="Grupo_27150" data-name="Grupo 27150">
            <rect id="Rectángulo_5046" data-name="Rectángulo 5046" width="50.664" height="17.185" fill="#dae2f2"/>
          </g>
        </g>
        <g id="Grupo_27153" data-name="Grupo 27153" transform="translate(4.725 3.816)">
          <g id="Grupo_27152" data-name="Grupo 27152">
            <rect id="Rectángulo_5047" data-name="Rectángulo 5047" width="65.054" height="3.073" fill="#dae2f2"/>
          </g>
        </g>
        <g id="Grupo_27155" data-name="Grupo 27155" transform="translate(94.684 3.816)">
          <g id="Grupo_27154" data-name="Grupo 27154">
            <rect id="Rectángulo_5048" data-name="Rectángulo 5048" width="25.762" height="3.073" fill="#dae2f2"/>
          </g>
        </g>
      </g>
      <g id="Grupo_27157" data-name="Grupo 27157" transform="translate(310.069 442.078)">
        <path id="Trazado_49284" data-name="Trazado 49284" d="M573.369,361.066c0,3.108-59.166,5.626-132.151,5.626s-132.151-2.518-132.151-5.626,59.164-5.622,132.151-5.622S573.369,357.962,573.369,361.066Z" transform="translate(-309.067 -355.444)" fill="#eaf0fe"/>
      </g>
      <g id="Grupo_27158" data-name="Grupo 27158" transform="translate(308.079 281.191)">
        <path id="Trazado_49285" data-name="Trazado 49285" d="M418.694,439.324l-1.334,0-.081-2.014,1.414,0c2.917,0,4.583-.06,4.593-.062l.077,2.014S421.67,439.324,418.694,439.324Zm-7.51-.121c-1.863-.06-3.9-.147-6.077-.262l.107-2.01c2.163.115,4.186.2,6.033.258Zm-12.149-.663c-1.946-.151-3.972-.326-6.057-.542l.2-2c2.069.209,4.077.387,6.009.538Zm-12.1-1.229q-2.964-.375-6.025-.844l.308-1.99c2.018.31,4.013.59,5.969.836Zm-12.024-1.853q-2.967-.544-5.967-1.193l.425-1.968q2.967.638,5.906,1.178Zm-11.895-2.587q-2.949-.752-5.874-1.617l.576-1.932q2.88.858,5.8,1.6Zm-11.685-3.487c-1.956-.681-3.876-1.4-5.711-2.153l.759-1.863c1.8.735,3.69,1.444,5.612,2.111Zm-11.3-4.621c-1.883-.9-3.708-1.859-5.421-2.836l1-1.753c1.672.957,3.453,1.889,5.292,2.77Zm-10.612-6.087c-1.722-1.182-3.364-2.429-4.885-3.71l1.3-1.541c1.47,1.239,3.06,2.447,4.728,3.592Zm-9.357-7.927a47.644,47.644,0,0,1-3.934-4.742l1.634-1.18a45.572,45.572,0,0,0,3.765,4.54Zm-7.181-9.975a41.747,41.747,0,0,1-2.456-5.654l1.9-.661a39.625,39.625,0,0,0,2.335,5.378Zm-4.053-11.6a46.653,46.653,0,0,1-.755-6.1l2.01-.117a44.676,44.676,0,0,0,.723,5.838Zm1.269-12.139-2.01-.121a60.118,60.118,0,0,1,.685-6.1l1.986.322C310.442,373.137,310.218,375.123,310.1,377.039Zm1.873-11.732-1.956-.491c.482-1.91,1.056-3.886,1.712-5.868l1.912.629C313,361.516,312.444,363.444,311.977,365.307Zm3.68-11.375-1.881-.721c.727-1.9,1.5-3.793,2.31-5.632l1.845.808C317.138,350.2,316.372,352.063,315.657,353.932Zm4.82-10.964-1.8-.9c.921-1.833,1.89-3.642,2.881-5.372l1.749,1C322.333,339.392,321.382,341.167,320.477,342.968Zm5.944-10.382-1.688-1.1c1.1-1.7,2.276-3.384,3.479-5.012l1.622,1.2C328.652,329.27,327.506,330.924,326.422,332.586Zm7.119-9.6L332,321.69c1.319-1.565,2.7-3.09,4.1-4.532l1.448,1.4C336.18,319.968,334.832,321.461,333.541,322.987Zm65.083-2-.26-2a10.564,10.564,0,0,0,5.026-2.093l1.245,1.585A12.651,12.651,0,0,1,398.623,320.985Zm-6.406-1.215a16.565,16.565,0,0,1-5.139-3.805l1.483-1.366a14.747,14.747,0,0,0,4.512,3.348Zm-50.376-5.356-1.346-1.5c1.529-1.372,3.11-2.691,4.7-3.916l1.231,1.6C344.876,311.789,343.333,313.075,341.842,314.414Zm66.152-1.69-2.006-.193c.016-.173.024-.35.024-.53a8.4,8.4,0,0,0-1.545-4.506l1.688-1.1a10.327,10.327,0,0,1,1.871,5.6C408.026,312.247,408.014,312.486,407.994,312.724Zm-24.315-2.143a18.771,18.771,0,0,1-1.35-6.208l2.01-.095a16.825,16.825,0,0,0,1.2,5.544Zm-32.4-3.447-1.1-1.684c1.722-1.126,3.491-2.186,5.258-3.142l.959,1.771C354.676,305.011,352.953,306.038,351.277,307.134Zm49.338-3.9a40.942,40.942,0,0,0-3.414-2.643c-.409-.284-.84-.556-1.289-.812l1-1.751q.752.429,1.442.911a42.4,42.4,0,0,1,3.584,2.776Zm-38.871-1.767-.8-1.849c1.892-.82,3.821-1.553,5.737-2.176l.624,1.916C365.446,299.963,363.575,300.672,361.744,301.468Zm23.208-2.876-1.952-.5a26.391,26.391,0,0,1,2.3-5.83l1.779.949q-.456.849-.836,1.706a31.805,31.805,0,0,1,4.8.814l-.494,1.952a30.367,30.367,0,0,0-5.084-.81C385.27,297.447,385.1,298.021,384.952,298.591Zm-11.921-.776-.417-1.97a50.947,50.947,0,0,1,6.094-.921l.175,2.006A48.677,48.677,0,0,0,373.031,297.816Zm17.281-9.48-1.577-1.255a45.677,45.677,0,0,1,4.182-4.544l1.39,1.46A42.943,42.943,0,0,0,390.312,288.336Zm8.507-8.191-1.227-1.6c1.3-1,2.7-2,4.174-2.973l1.11,1.68C401.445,278.2,400.08,279.175,398.819,280.146Z" transform="translate(-308.079 -275.575)" fill="#d7d9dd"/>
      </g>
      <g id="Grupo_27167" data-name="Grupo 27167" transform="translate(390.6 270.038)">
        <g id="Grupo_27160" data-name="Grupo 27160" transform="translate(4.879)">
          <g id="Grupo_27159" data-name="Grupo 27159">
            <path id="Trazado_49286" data-name="Trazado 49286" d="M355.932,284.573l-3.978,2.439-.488-7.357,17.474-9.617Z" transform="translate(-351.467 -270.038)" fill="#f0c542"/>
          </g>
        </g>
        <g id="Grupo_27162" data-name="Grupo 27162" transform="translate(7.487)">
          <g id="Grupo_27161" data-name="Grupo 27161">
            <path id="Trazado_49287" data-name="Trazado 49287" d="M359.79,289.775l7.837-19.736L352.762,282.7Z" transform="translate(-352.762 -270.038)" fill="#fad77e"/>
          </g>
        </g>
        <g id="Grupo_27164" data-name="Grupo 27164">
          <g id="Grupo_27163" data-name="Grupo 27163">
            <path id="Trazado_49288" data-name="Trazado 49288" d="M371.4,270.038l-16.6,10.7-5.752-7.141Z" transform="translate(-349.045 -270.038)" fill="#fad784"/>
          </g>
        </g>
        <g id="Grupo_27166" data-name="Grupo 27166" transform="translate(5.367 12.667)">
          <g id="Grupo_27165" data-name="Grupo 27165">
            <path id="Trazado_49289" data-name="Trazado 49289" d="M351.709,280.634l2.12-4.308,1.857,1.869Z" transform="translate(-351.709 -276.326)" fill="#dbab33"/>
          </g>
        </g>
      </g>
      <g id="Grupo_27176" data-name="Grupo 27176" transform="translate(365.154 345.954)">
        <g id="Grupo_27170" data-name="Grupo 27170">
          <g id="Grupo_27169" data-name="Grupo 27169">
            <g id="Grupo_27168" data-name="Grupo 27168">
              <path id="Trazado_49290" data-name="Trazado 49290" d="M504.465,308.2a7.7,7.7,0,0,1,7.665,7.713l-.256,85.891a7.7,7.7,0,0,1-7.711,7.665L344.08,409a7.7,7.7,0,0,1-7.667-7.723l.256-85.9a7.676,7.676,0,0,1,7.713-7.657Z" transform="translate(-336.413 -307.725)" fill="#b52426"/>
            </g>
          </g>
        </g>
        <g id="Grupo_27173" data-name="Grupo 27173" transform="translate(10.892 8.333)">
          <g id="Grupo_27172" data-name="Grupo 27172" transform="translate(0 0)">
            <g id="Grupo_27171" data-name="Grupo 27171">
              <rect id="Rectángulo_5049" data-name="Rectángulo 5049" width="85.249" height="139.725" transform="matrix(0.003, -1, 1, 0.003, 0, 85.248)" fill="#eaf0fe"/>
            </g>
          </g>
        </g>
        <g id="Grupo_27175" data-name="Grupo 27175" transform="translate(155.238 43.887)">
          <g id="Grupo_27174" data-name="Grupo 27174">
            <path id="Trazado_49291" data-name="Trazado 49291" d="M420.712,329.512a7.21,7.21,0,1,1-7.234,7.183A7.218,7.218,0,0,1,420.712,329.512Z" transform="translate(-413.478 -329.512)" fill="#ecebe4"/>
          </g>
        </g>
      </g>
      <g id="Grupo_27187" data-name="Grupo 27187" transform="translate(461.718 300.139)">
        <g id="Grupo_27181" data-name="Grupo 27181">
          <g id="Grupo_27178" data-name="Grupo 27178">
            <g id="Grupo_27177" data-name="Grupo 27177">
              <path id="Trazado_49292" data-name="Trazado 49292" d="M448.981,313.5c0,15.434-21.246,27.379-36.684,27.379a27.949,27.949,0,0,1,0-55.9C427.736,284.981,448.981,298.062,448.981,313.5Z" transform="translate(-384.35 -284.981)" fill="#ffda89"/>
            </g>
          </g>
          <g id="Grupo_27180" data-name="Grupo 27180" transform="translate(3.149 34.664)">
            <g id="Grupo_27179" data-name="Grupo 27179">
              <path id="Trazado_49293" data-name="Trazado 49293" d="M385.913,326.887l9.856-7.8-8.309-16.9Z" transform="translate(-385.913 -302.189)" fill="#ffda89"/>
            </g>
          </g>
        </g>
        <g id="Grupo_27186" data-name="Grupo 27186" transform="translate(13.708 22.059)">
          <g id="Grupo_27182" data-name="Grupo 27182" transform="translate(0 0.085)">
            <path id="Trazado_49294" data-name="Trazado 49294" d="M393.76,295.974v4.409h4.272v-4.409h2.588v11.472h-2.588v-4.8H393.76v4.8h-2.6V295.974Z" transform="translate(-391.155 -295.974)" fill="#fff"/>
          </g>
          <g id="Grupo_27183" data-name="Grupo 27183" transform="translate(12.074 0.085)">
            <path id="Trazado_49295" data-name="Trazado 49295" d="M403.976,302.6h-4.222v2.726h4.714v2.125h-7.318V295.974h7.083V298.1h-4.478v2.385h4.222Z" transform="translate(-397.149 -295.974)" fill="#fff"/>
          </g>
          <g id="Grupo_27184" data-name="Grupo 27184" transform="translate(21.51 0.085)">
            <path id="Trazado_49296" data-name="Trazado 49296" d="M401.833,295.974h2.6v9.294H409v2.178h-7.165Z" transform="translate(-401.833 -295.974)" fill="#fff"/>
          </g>
          <g id="Grupo_27185" data-name="Grupo 27185" transform="translate(30.55)">
            <path id="Trazado_49297" data-name="Trazado 49297" d="M406.321,296.172a20.885,20.885,0,0,1,3.5-.24,5.511,5.511,0,0,1,3.509.919,3.362,3.362,0,0,1,1.225,2.655,3.665,3.665,0,0,1-1.054,2.725,5.328,5.328,0,0,1-3.731,1.209,7.237,7.237,0,0,1-.884-.05v4.1h-2.57Zm2.57,5.209a4.145,4.145,0,0,0,.868.067c1.378,0,2.23-.7,2.23-1.871,0-1.057-.733-1.686-2.025-1.686a4.478,4.478,0,0,0-1.074.1Z" transform="translate(-406.321 -295.932)" fill="#fff"/>
          </g>
        </g>
      </g>
      <g id="Grupo_27218" data-name="Grupo 27218" transform="translate(383.009 366.817)">
        <g id="Grupo_27189" data-name="Grupo 27189">
          <g id="Grupo_27188" data-name="Grupo 27188">
            <rect id="Rectángulo_5050" data-name="Rectángulo 5050" width="126.066" height="72.415" fill="#dae2f2"/>
          </g>
        </g>
        <g id="Grupo_27191" data-name="Grupo 27191" transform="translate(2.953 2.148)">
          <g id="Grupo_27190" data-name="Grupo 27190">
            <rect id="Rectángulo_5051" data-name="Rectángulo 5051" width="117.634" height="6.389" fill="#eaf0fe"/>
          </g>
        </g>
        <g id="Grupo_27193" data-name="Grupo 27193" transform="translate(4.639 11.732)">
          <g id="Grupo_27192" data-name="Grupo 27192">
            <rect id="Rectángulo_5052" data-name="Rectángulo 5052" width="44.696" height="57.616" fill="#eaf0fe"/>
          </g>
        </g>
        <g id="Grupo_27195" data-name="Grupo 27195" transform="translate(8.433 49.095)">
          <g id="Grupo_27194" data-name="Grupo 27194">
            <rect id="Rectángulo_5053" data-name="Rectángulo 5053" width="34.994" height="16.737" fill="#dae2f2"/>
          </g>
        </g>
        <g id="Grupo_27197" data-name="Grupo 27197" transform="translate(8.433 16.103)">
          <g id="Grupo_27196" data-name="Grupo 27196">
            <rect id="Rectángulo_5054" data-name="Rectángulo 5054" width="34.994" height="2.364" fill="#dae2f2"/>
          </g>
        </g>
        <g id="Grupo_27199" data-name="Grupo 27199" transform="translate(8.433 21.426)">
          <g id="Grupo_27198" data-name="Grupo 27198">
            <rect id="Rectángulo_5055" data-name="Rectángulo 5055" width="34.994" height="2.365" fill="#dae2f2"/>
          </g>
        </g>
        <g id="Grupo_27201" data-name="Grupo 27201" transform="translate(8.433 27.812)">
          <g id="Grupo_27200" data-name="Grupo 27200">
            <rect id="Rectángulo_5056" data-name="Rectángulo 5056" width="34.994" height="2.364" fill="#dae2f2"/>
          </g>
        </g>
        <g id="Grupo_27203" data-name="Grupo 27203" transform="translate(8.433 33.129)">
          <g id="Grupo_27202" data-name="Grupo 27202">
            <rect id="Rectángulo_5057" data-name="Rectángulo 5057" width="34.994" height="2.369" fill="#dae2f2"/>
          </g>
        </g>
        <g id="Grupo_27205" data-name="Grupo 27205" transform="translate(61.981 11.732)">
          <g id="Grupo_27204" data-name="Grupo 27204">
            <rect id="Rectángulo_5058" data-name="Rectángulo 5058" width="58.606" height="2.835" fill="#eaf0fe"/>
          </g>
        </g>
        <g id="Grupo_27207" data-name="Grupo 27207" transform="translate(61.981 17.047)">
          <g id="Grupo_27206" data-name="Grupo 27206">
            <rect id="Rectángulo_5059" data-name="Rectángulo 5059" width="58.606" height="2.841" fill="#eaf0fe"/>
          </g>
        </g>
        <g id="Grupo_27209" data-name="Grupo 27209" transform="translate(61.981 23.433)">
          <g id="Grupo_27208" data-name="Grupo 27208">
            <rect id="Rectángulo_5060" data-name="Rectángulo 5060" width="58.606" height="2.841" fill="#eaf0fe"/>
          </g>
        </g>
        <g id="Grupo_27211" data-name="Grupo 27211" transform="translate(61.981 30.176)">
          <g id="Grupo_27210" data-name="Grupo 27210">
            <rect id="Rectángulo_5061" data-name="Rectángulo 5061" width="58.606" height="37.506" fill="#eaf0fe"/>
          </g>
        </g>
        <g id="Grupo_27213" data-name="Grupo 27213" transform="translate(67.041 34.313)">
          <g id="Grupo_27212" data-name="Grupo 27212">
            <rect id="Rectángulo_5062" data-name="Rectángulo 5062" width="49.748" height="16.876" fill="#dae2f2"/>
          </g>
        </g>
        <g id="Grupo_27215" data-name="Grupo 27215" transform="translate(4.639 3.748)">
          <g id="Grupo_27214" data-name="Grupo 27214">
            <rect id="Rectángulo_5063" data-name="Rectángulo 5063" width="63.876" height="3.016" fill="#dae2f2"/>
          </g>
        </g>
        <g id="Grupo_27217" data-name="Grupo 27217" transform="translate(92.968 3.748)">
          <g id="Grupo_27216" data-name="Grupo 27216">
            <rect id="Rectángulo_5064" data-name="Rectángulo 5064" width="25.296" height="3.016" fill="#dae2f2"/>
          </g>
        </g>
      </g>
      <g id="Grupo_27221" data-name="Grupo 27221" transform="translate(325.598 360.306)">
        <g id="Grupo_27219" data-name="Grupo 27219">
          <path id="Trazado_49298" data-name="Trazado 49298" d="M341.575,353.965c-1.845-.719,5.689-11.43-2.514-15.779-10.781-5.719,1.1-23.766-3.443-23.329-6.778.665-8.668,11.218-7.443,23,1.567,15.051-6.136,10.982-6.287,10.914-4.381-1.98-6.293-.064-4.361,12.934s6.944,23.026,11.2,22.392a2.434,2.434,0,0,0,.761-.234,4.287,4.287,0,0,0,.83.143,4.038,4.038,0,0,0,1.867-.413c5.376.272,5.709-2,10.219-13.647C347.336,357.212,347,356.06,341.575,353.965Z" transform="translate(-316.776 -314.85)" fill="#60d3be"/>
        </g>
        <g id="Grupo_27220" data-name="Grupo 27220" transform="translate(3.646 65.694)">
          <path id="Trazado_49299" data-name="Trazado 49299" d="M339.8,369.4H320.681l-2.1-21.934h23.305Z" transform="translate(-318.586 -347.463)" fill="#dae2f2"/>
        </g>
      </g>
      <g id="Grupo_27287" data-name="Grupo 27287" transform="translate(400.728 328.454)">
        <g id="Grupo_27226" data-name="Grupo 27226" transform="translate(7.753 117.602)">
          <g id="Grupo_27225" data-name="Grupo 27225">
            <g id="Grupo_27224" data-name="Grupo 27224">
              <g id="Grupo_27223" data-name="Grupo 27223">
                <g id="Grupo_27222" data-name="Grupo 27222">
                  <path id="Trazado_49300" data-name="Trazado 49300" d="M362.808,357.419l-1.474.476.274,2.362L361.3,361.4l-3.379,4.353,6.944-4.182Z" transform="translate(-357.922 -357.419)" fill="#f7ae30"/>
                </g>
              </g>
            </g>
          </g>
        </g>
        <g id="Grupo_27231" data-name="Grupo 27231" transform="translate(12.575 115.198)">
          <g id="Grupo_27230" data-name="Grupo 27230">
            <g id="Grupo_27229" data-name="Grupo 27229">
              <g id="Grupo_27228" data-name="Grupo 27228">
                <g id="Grupo_27227" data-name="Grupo 27227">
                  <path id="Trazado_49301" data-name="Trazado 49301" d="M361.38,356.226l1.542.126.27,2.37.557,1.041,4.273,3.476-7.705-2.5Z" transform="translate(-360.315 -356.226)" fill="#f7ae30"/>
                </g>
              </g>
            </g>
          </g>
        </g>
        <g id="Grupo_27236" data-name="Grupo 27236" transform="translate(0.992 50.102)">
          <g id="Grupo_27235" data-name="Grupo 27235">
            <g id="Grupo_27234" data-name="Grupo 27234">
              <g id="Grupo_27233" data-name="Grupo 27233">
                <g id="Grupo_27232" data-name="Grupo 27232">
                  <path id="Trazado_49302" data-name="Trazado 49302" d="M355.738,323.91l-1.173,37.5L364.6,394.132l3.012-1.4-5.221-29.106,9.236-30.314Z" transform="translate(-354.565 -323.91)" fill="#c86277"/>
                </g>
              </g>
            </g>
          </g>
        </g>
        <g id="Grupo_27241" data-name="Grupo 27241" transform="translate(12.234 51.67)">
          <g id="Grupo_27240" data-name="Grupo 27240">
            <g id="Grupo_27239" data-name="Grupo 27239">
              <g id="Grupo_27238" data-name="Grupo 27238">
                <g id="Grupo_27237" data-name="Grupo 27237">
                  <path id="Trazado_49303" data-name="Trazado 49303" d="M363.715,331.418v30.007l-3.569,29.108h3.569l7.07-29.559,6.423-36.286Z" transform="translate(-360.146 -324.688)" fill="#a84e67"/>
                </g>
              </g>
            </g>
          </g>
        </g>
        <g id="Grupo_27252" data-name="Grupo 27252" transform="translate(32.885 15.581)">
          <g id="Grupo_27246" data-name="Grupo 27246" transform="translate(38.148 16.038)">
            <g id="Grupo_27245" data-name="Grupo 27245">
              <g id="Grupo_27244" data-name="Grupo 27244">
                <g id="Grupo_27243" data-name="Grupo 27243">
                  <g id="Grupo_27242" data-name="Grupo 27242">
                    <path id="Trazado_49304" data-name="Trazado 49304" d="M389.336,316.524s4.218-2.254,5.171-1.7c.8.465,2.834,3.388-4.7,3.573Z" transform="translate(-389.336 -314.735)" fill="#ff8f00"/>
                  </g>
                </g>
              </g>
            </g>
          </g>
          <g id="Grupo_27251" data-name="Grupo 27251">
            <g id="Grupo_27250" data-name="Grupo 27250">
              <g id="Grupo_27249" data-name="Grupo 27249">
                <g id="Grupo_27248" data-name="Grupo 27248">
                  <g id="Grupo_27247" data-name="Grupo 27247">
                    <path id="Trazado_49305" data-name="Trazado 49305" d="M372.046,315.918l9.943,19.193,27.649-8.446-.61-2.351-22.271,3.169-9.75-16.576s-2.84-5.842-6.585-3.636A18.845,18.845,0,0,0,372.046,315.918Z" transform="translate(-370.398 -306.773)" fill="#ff8f00"/>
                  </g>
                </g>
              </g>
            </g>
          </g>
        </g>
        <g id="Grupo_27255" data-name="Grupo 27255" transform="translate(2.163 12.162)">
          <g id="Grupo_27254" data-name="Grupo 27254">
            <g id="Grupo_27253" data-name="Grupo 27253">
              <path id="Trazado_49306" data-name="Trazado 49306" d="M378.266,305.076c-3.6-.06-11.81,2.784-14.127,7.357s-3.447,16.143-3.447,16.143l-5.546,14.439s10.862,15.329,27.148,5.372c0,0,3.968-14.818,6.653-21.066,1.563-3.636,6.605-13.525,2.222-17.084C384.764,305.036,381.928,305.141,378.266,305.076Z" transform="translate(-355.147 -305.075)" fill="#ff8f00"/>
            </g>
          </g>
        </g>
        <g id="Grupo_27260" data-name="Grupo 27260" transform="translate(27.093 7.597)">
          <g id="Grupo_27259" data-name="Grupo 27259">
            <g id="Grupo_27258" data-name="Grupo 27258">
              <g id="Grupo_27257" data-name="Grupo 27257">
                <g id="Grupo_27256" data-name="Grupo 27256">
                  <path id="Trazado_49307" data-name="Trazado 49307" d="M370.246,302.809l-2.723,5.171s5.689,6.432,5.646,3.527a65.9,65.9,0,0,1,.751-7.858Z" transform="translate(-367.523 -302.809)" fill="#ffc190"/>
                </g>
              </g>
            </g>
          </g>
        </g>
        <g id="Grupo_27265" data-name="Grupo 27265" transform="translate(29.417 0.408)">
          <g id="Grupo_27264" data-name="Grupo 27264">
            <g id="Grupo_27263" data-name="Grupo 27263">
              <g id="Grupo_27262" data-name="Grupo 27262">
                <g id="Grupo_27261" data-name="Grupo 27261">
                  <path id="Trazado_49308" data-name="Trazado 49308" d="M370.518,300.084c-.705,1.025-2.1,3.018-1.8,4.647s.649,4.494,2.2,5.519a2.414,2.414,0,0,0,3.32-.872c.689-1,2.447-7.054.06-9.171C372.5,298.605,371.058,299.306,370.518,300.084Z" transform="translate(-368.677 -299.24)" fill="#ffc190"/>
                </g>
              </g>
            </g>
          </g>
        </g>
        <g id="Grupo_27270" data-name="Grupo 27270" transform="translate(29.147)">
          <g id="Grupo_27269" data-name="Grupo 27269">
            <g id="Grupo_27268" data-name="Grupo 27268">
              <g id="Grupo_27267" data-name="Grupo 27267">
                <g id="Grupo_27266" data-name="Grupo 27266">
                  <path id="Trazado_49309" data-name="Trazado 49309" d="M375.273,301.784a3.476,3.476,0,0,1-3.255.016c-1.777-.894-1.962,1.021-2.012,1.231s-.324,2.937-.991,2.83-.786-3.616.679-5.622A3.137,3.137,0,0,1,375.273,301.784Z" transform="translate(-368.543 -299.038)" fill="#2e3b57"/>
                </g>
              </g>
            </g>
          </g>
        </g>
        <g id="Grupo_27275" data-name="Grupo 27275" transform="translate(29.837 7.899)">
          <g id="Grupo_27274" data-name="Grupo 27274">
            <g id="Grupo_27273" data-name="Grupo 27273">
              <g id="Grupo_27272" data-name="Grupo 27272">
                <g id="Grupo_27271" data-name="Grupo 27271">
                  <path id="Trazado_49310" data-name="Trazado 49310" d="M368.885,302.959s1.491,2.282,3.513,2.488c1.283.133,2.417-1.9,2.52-2.363s-.342,4.272-3.122,3.805S368.885,302.959,368.885,302.959Z" transform="translate(-368.885 -302.959)" fill="#2e3b57"/>
                </g>
              </g>
            </g>
          </g>
        </g>
        <g id="Grupo_27286" data-name="Grupo 27286" transform="translate(0 12.605)">
          <g id="Grupo_27280" data-name="Grupo 27280" transform="translate(21.169 41.644)">
            <g id="Grupo_27279" data-name="Grupo 27279">
              <g id="Grupo_27278" data-name="Grupo 27278">
                <g id="Grupo_27277" data-name="Grupo 27277">
                  <g id="Grupo_27276" data-name="Grupo 27276">
                    <path id="Trazado_49311" data-name="Trazado 49311" d="M365.954,325.969s4.081,2.49,4.089,3.592c.008.925-1.479,4.16-5.461-2.23Z" transform="translate(-364.582 -325.969)" fill="#ff8f00"/>
                  </g>
                </g>
              </g>
            </g>
          </g>
          <g id="Grupo_27285" data-name="Grupo 27285">
            <g id="Grupo_27284" data-name="Grupo 27284">
              <g id="Grupo_27283" data-name="Grupo 27283">
                <g id="Grupo_27282" data-name="Grupo 27282">
                  <g id="Grupo_27281" data-name="Grupo 27281">
                    <path id="Trazado_49312" data-name="Trazado 49312" d="M365.557,311.088,354.073,329.4l21.318,19.531,1.71-1.718-14.04-17.577,9.335-16.822s4.135-7.407-.21-7.516C369.991,305.246,367.982,307.365,365.557,311.088Z" transform="translate(-354.073 -305.296)" fill="#ff8f00"/>
                  </g>
                </g>
              </g>
            </g>
          </g>
        </g>
      </g>
      <g id="Grupo_27346" data-name="Grupo 27346" transform="translate(503.894 329.208)">
        <g id="Grupo_27296" data-name="Grupo 27296" transform="translate(0 12.773)">
          <g id="Grupo_27291" data-name="Grupo 27291" transform="translate(3.314)">
            <g id="Grupo_27290" data-name="Grupo 27290">
              <g id="Grupo_27289" data-name="Grupo 27289">
                <g id="Grupo_27288" data-name="Grupo 27288">
                  <path id="Trazado_49313" data-name="Trazado 49313" d="M439.419,313.166,427,326.141l-20.065-13.208,1.037-1.73,17.013,7.743,11.657-10.936s3.626-3.99,6.1-1.358A15.693,15.693,0,0,1,439.419,313.166Z" transform="translate(-406.933 -305.753)" fill="#ffc190"/>
                </g>
              </g>
            </g>
          </g>
          <g id="Grupo_27295" data-name="Grupo 27295" transform="translate(0 2.938)">
            <g id="Grupo_27294" data-name="Grupo 27294">
              <g id="Grupo_27293" data-name="Grupo 27293">
                <g id="Grupo_27292" data-name="Grupo 27292">
                  <path id="Trazado_49314" data-name="Trazado 49314" d="M409.951,310.087s-2.588-3.012-3.491-2.871c-.765.119-3.215,1.775,2.562,4.182Z" transform="translate(-405.288 -307.212)" fill="#ffc190"/>
                </g>
              </g>
            </g>
          </g>
        </g>
        <g id="Grupo_27305" data-name="Grupo 27305" transform="translate(24.934 7.389)">
          <g id="Grupo_27300" data-name="Grupo 27300" transform="translate(1.885 3.62)">
            <g id="Grupo_27299" data-name="Grupo 27299">
              <g id="Grupo_27298" data-name="Grupo 27298">
                <g id="Grupo_27297" data-name="Grupo 27297">
                  <path id="Trazado_49315" data-name="Trazado 49315" d="M448.167,319.5l-16.633,6.778L418.6,306.029l1.654-1.152,12.374,14,15.1-5.231s4.945-2.159,6.12,1.251A15.679,15.679,0,0,1,448.167,319.5Z" transform="translate(-418.602 -304.877)" fill="#ffc190"/>
                </g>
              </g>
            </g>
          </g>
          <g id="Grupo_27304" data-name="Grupo 27304">
            <g id="Grupo_27303" data-name="Grupo 27303">
              <g id="Grupo_27302" data-name="Grupo 27302">
                <g id="Grupo_27301" data-name="Grupo 27301">
                  <path id="Trazado_49316" data-name="Trazado 49316" d="M421.346,307.161s-1.136-3.809-2.024-4.045c-.741-.2-3.654.308.632,4.859Z" transform="translate(-417.666 -303.08)" fill="#ffc190"/>
                </g>
              </g>
            </g>
          </g>
        </g>
        <g id="Grupo_27309" data-name="Grupo 27309" transform="translate(44.069 115.538)">
          <g id="Grupo_27308" data-name="Grupo 27308">
            <g id="Grupo_27307" data-name="Grupo 27307">
              <g id="Grupo_27306" data-name="Grupo 27306">
                <path id="Trazado_49317" data-name="Trazado 49317" d="M432.4,356.769l-1.216.1-.214,1.865-.437.818-3.366,2.744,6.067-1.973Z" transform="translate(-427.165 -356.769)" fill="#ffda89"/>
              </g>
            </g>
          </g>
        </g>
        <g id="Grupo_27313" data-name="Grupo 27313" transform="translate(52.341 112.277)">
          <g id="Grupo_27312" data-name="Grupo 27312">
            <g id="Grupo_27311" data-name="Grupo 27311">
              <g id="Grupo_27310" data-name="Grupo 27310">
                <path id="Trazado_49318" data-name="Trazado 49318" d="M432.587,355.149l-.958.757.848,1.668.091.929-1.3,4.145,3.976-5Z" transform="translate(-431.271 -355.149)" fill="#ffda89"/>
              </g>
            </g>
          </g>
        </g>
        <g id="Grupo_27317" data-name="Grupo 27317" transform="translate(41.047 48.438)">
          <g id="Grupo_27316" data-name="Grupo 27316">
            <g id="Grupo_27315" data-name="Grupo 27315">
              <g id="Grupo_27314" data-name="Grupo 27314">
                <path id="Trazado_49319" data-name="Trazado 49319" d="M439.829,323.458l-3.419,37.6-1.222,31.006h-2.931l-2.931-32.226-3.661-36.377Z" transform="translate(-425.665 -323.458)" fill="#a84e67"/>
              </g>
            </g>
          </g>
        </g>
        <g id="Grupo_27321" data-name="Grupo 27321" transform="translate(28.353 48.438)">
          <g id="Grupo_27320" data-name="Grupo 27320">
            <g id="Grupo_27319" data-name="Grupo 27319">
              <g id="Grupo_27318" data-name="Grupo 27318">
                <path id="Trazado_49320" data-name="Trazado 49320" d="M419.363,323.458l.974,34.3,22.951,31.372,2.933-1.465-15.869-28.317,5.608-33.939v-1.952Z" transform="translate(-419.363 -323.458)" fill="#c86277"/>
              </g>
            </g>
          </g>
        </g>
        <g id="Grupo_27324" data-name="Grupo 27324" transform="translate(27.269 11.959)">
          <g id="Grupo_27323" data-name="Grupo 27323">
            <g id="Grupo_27322" data-name="Grupo 27322">
              <path id="Trazado_49321" data-name="Trazado 49321" d="M446.564,349.293l-27.739-5.73,7.038-18.788,4.015-19.426,11.506.063,13.406,4.082-3.875,18.747Z" transform="translate(-418.825 -305.349)" fill="#ff8f00"/>
            </g>
          </g>
        </g>
        <g id="Grupo_27328" data-name="Grupo 27328" transform="translate(30.645 11.945)">
          <g id="Grupo_27327" data-name="Grupo 27327">
            <g id="Grupo_27326" data-name="Grupo 27326">
              <g id="Grupo_27325" data-name="Grupo 27325">
                <path id="Trazado_49322" data-name="Trazado 49322" d="M429.3,305.693s3.986,3.507-5.31,10.169l-3.491-5.787S425.317,303.816,429.3,305.693Z" transform="translate(-420.501 -305.342)" fill="#ff8f00"/>
              </g>
            </g>
          </g>
        </g>
        <g id="Grupo_27332" data-name="Grupo 27332" transform="translate(56.675 16.417)">
          <g id="Grupo_27331" data-name="Grupo 27331">
            <g id="Grupo_27330" data-name="Grupo 27330">
              <g id="Grupo_27329" data-name="Grupo 27329">
                <path id="Trazado_49323" data-name="Trazado 49323" d="M440.477,307.594s4.865,2.137-1.974,11.3l-5.08-4.458S436.108,307.014,440.477,307.594Z" transform="translate(-433.423 -307.562)" fill="#ff8f00"/>
              </g>
            </g>
          </g>
        </g>
        <g id="Grupo_27345" data-name="Grupo 27345" transform="translate(46.623)">
          <g id="Grupo_27336" data-name="Grupo 27336" transform="translate(1.37 7.564)">
            <g id="Grupo_27335" data-name="Grupo 27335">
              <g id="Grupo_27334" data-name="Grupo 27334">
                <g id="Grupo_27333" data-name="Grupo 27333">
                  <path id="Trazado_49324" data-name="Trazado 49324" d="M433.022,309.287c-.143.989-4.069.179-3.9-.806a20.405,20.405,0,0,1,1.394-4.841l3.12-.473S433.327,307.216,433.022,309.287Z" transform="translate(-429.113 -303.167)" fill="#ffc190"/>
                </g>
              </g>
            </g>
          </g>
          <g id="Grupo_27340" data-name="Grupo 27340" transform="translate(0 0.775)">
            <g id="Grupo_27339" data-name="Grupo 27339">
              <g id="Grupo_27338" data-name="Grupo 27338">
                <g id="Grupo_27337" data-name="Grupo 27337">
                  <path id="Trazado_49325" data-name="Trazado 49325" d="M431.382,308.741c-.272-.028-2.8-.119-2.937-1.4s.91-5.662,1.7-6.617a3.274,3.274,0,0,1,3.614-.632c.806.56,2.663,3.588.453,7.661A4.367,4.367,0,0,1,431.382,308.741Z" transform="translate(-428.433 -299.797)" fill="#ffc190"/>
                </g>
              </g>
            </g>
          </g>
          <g id="Grupo_27344" data-name="Grupo 27344" transform="translate(1.174)">
            <g id="Grupo_27343" data-name="Grupo 27343">
              <g id="Grupo_27342" data-name="Grupo 27342">
                <g id="Grupo_27341" data-name="Grupo 27341">
                  <path id="Trazado_49326" data-name="Trazado 49326" d="M429.018,301.008s-.091,1.561,1.005,1.656,2.991.159,3.012,1.015-1.326,3.481-.888,4.287,1.706,1.932,2.23.987,2.443-7.052-.538-9.182C433.838,299.771,430.716,298.4,429.018,301.008Z" transform="translate(-429.016 -299.412)" fill="#2e3b57"/>
                </g>
              </g>
            </g>
          </g>
        </g>
      </g>
    </g>
  </g>
</svg>
