<svg xmlns="http://www.w3.org/2000/svg" width="279.765" height="191.429" viewBox="0 0 279.765 191.429">
  <g id="Grupo_26596" data-name="Grupo 26596" transform="translate(-429.922 -374.7)">
    <g id="Grupo_26513" data-name="Grupo 26513" transform="translate(623.924 490.739)">
      <g id="Grupo_26504" data-name="Grupo 26504" transform="translate(6.73 6.897)">
        <path id="Trazado_49037" data-name="Trazado 49037" d="M542.488,443.142a25.851,25.851,0,1,0,36.306,4.319A25.851,25.851,0,0,0,542.488,443.142Zm24.4,30.99a13.593,13.593,0,1,1,2.271-19.091A13.593,13.593,0,0,1,566.889,474.132Z" transform="translate(-532.627 -437.6)" fill="#dae2f2"/>
      </g>
      <g id="Grupo_26505" data-name="Grupo 26505" transform="translate(8.877 4.518)">
        <path id="Trazado_49038" data-name="Trazado 49038" d="M549.872,445.307l-9.153,7.21s-7.316-6.067-6.983-8.867c.344-2.895,6.315-7.859,9.155-7.208C545.643,437.067,549.872,445.307,549.872,445.307Z" transform="translate(-533.725 -436.383)" fill="#dae2f2"/>
      </g>
      <g id="Grupo_26506" data-name="Grupo 26506" transform="translate(39.733 45.509)">
        <path id="Trazado_49039" data-name="Trazado 49039" d="M558.666,457.356l-9.153,7.21s4.181,8.533,6.983,8.869c2.889.344,9.116-4.294,9.153-7.208C565.686,463.4,558.666,457.356,558.666,457.356Z" transform="translate(-549.513 -457.356)" fill="#dae2f2"/>
      </g>
      <g id="Grupo_26507" data-name="Grupo 26507" transform="translate(0 24.188)">
        <path id="Trazado_49040" data-name="Trazado 49040" d="M542.045,447.17l.1,11.654s-9.272,2.078-11.283.1c-2.082-2.04-2.351-9.8-.1-11.652C532.937,445.479,542.045,447.17,542.045,447.17Z" transform="translate(-529.183 -446.447)" fill="#dae2f2"/>
      </g>
      <g id="Grupo_26508" data-name="Grupo 26508" transform="translate(4.572 41.387)">
        <path id="Trazado_49041" data-name="Trazado 49041" d="M541.606,455.247l5.615,10.208s-7.179,6.225-9.89,5.443c-2.8-.813-6.719-7.513-5.619-10.212C532.782,458.075,541.606,455.247,541.606,455.247Z" transform="translate(-531.523 -455.247)" fill="#dae2f2"/>
      </g>
      <g id="Grupo_26509" data-name="Grupo 26509" transform="translate(45.354 9.554)">
        <path id="Trazado_49042" data-name="Trazado 49042" d="M559.22,455.038l-6.831-9.44s6.36-7.063,9.145-6.618c2.873.463,7.591,6.631,6.827,9.444C567.624,451.144,559.22,455.038,559.22,455.038Z" transform="translate(-552.389 -438.96)" fill="#dae2f2"/>
      </g>
      <g id="Grupo_26510" data-name="Grupo 26510" transform="translate(29.185)">
        <path id="Trazado_49043" data-name="Trazado 49043" d="M544.116,445.668l11.3,2.832s4.2-8.527,2.748-10.947c-1.5-2.5-8.977-4.585-11.3-2.834C544.6,436.418,544.116,445.668,544.116,445.668Z" transform="translate(-544.116 -434.071)" fill="#dae2f2"/>
      </g>
      <g id="Grupo_26511" data-name="Grupo 26511" transform="translate(20.445 52.74)">
        <path id="Trazado_49044" data-name="Trazado 49044" d="M553.994,463.888l-11.3-2.832S538.5,469.583,539.949,472c1.5,2.5,8.975,4.585,11.3,2.832C553.5,473.138,553.994,463.888,553.994,463.888Z" transform="translate(-539.644 -461.056)" fill="#dae2f2"/>
      </g>
      <g id="Grupo_26512" data-name="Grupo 26512" transform="translate(53.182 28.871)">
        <path id="Trazado_49045" data-name="Trazado 49045" d="M556.5,461.449l-.1-11.652s9.276-2.076,11.287-.1c2.078,2.042,2.349,9.8.1,11.651C565.6,463.141,556.5,461.449,556.5,461.449Z" transform="translate(-556.394 -448.844)" fill="#dae2f2"/>
      </g>
    </g>
    <g id="Grupo_26516" data-name="Grupo 26516" transform="translate(455.397 459.199)">
      <g id="Grupo_26514" data-name="Grupo 26514" transform="translate(11.772 14.455)">
        <path id="Trazado_49046" data-name="Trazado 49046" d="M498.854,496.088a4.688,4.688,0,0,1-1.6,6.436h0a4.687,4.687,0,0,1-6.438-1.6l-41.165-68.48a4.7,4.7,0,0,1,1.6-6.442h0a4.689,4.689,0,0,1,6.438,1.607Z" transform="translate(-448.979 -425.33)" fill="#d64626"/>
      </g>
      <g id="Grupo_26515" data-name="Grupo 26515">
        <path id="Trazado_49047" data-name="Trazado 49047" d="M453.469,418.079l6.538,10.88-8.039,4.833-6.542-10.884a12.41,12.41,0,1,0,8.043-4.829Z" transform="translate(-442.956 -417.934)" fill="#d64626"/>
      </g>
    </g>
    <g id="Grupo_26517" data-name="Grupo 26517" transform="translate(449.168 374.7)">
      <path id="Trazado_49048" data-name="Trazado 49048" d="M540,522.983l-1.691-.008.018-1.954,1.673.008c2.637,0,4.142-.055,4.153-.057l.072,1.954S542.689,522.983,540,522.983Zm-7.595-.137c-1.81-.063-3.786-.154-5.9-.28l.115-1.951c2.1.125,4.056.213,5.85.276Zm-11.783-.7c-1.892-.158-3.856-.348-5.875-.571l.213-1.945c2.005.225,3.95.41,5.826.569Zm-11.733-1.3q-2.876-.4-5.838-.893l.324-1.929c1.953.328,3.883.623,5.781.885Zm-11.643-1.968q-2.882-.583-5.77-1.276l.457-1.9q2.853.686,5.7,1.259ZM485.753,516.1c-1.949-.555-3.852-1.145-5.656-1.755l.623-1.851c1.777.6,3.651,1.18,5.57,1.728Zm-11.215-3.792c-1.859-.741-3.688-1.536-5.439-2.367l.837-1.767c1.714.813,3.506,1.593,5.324,2.318ZM463.832,507.2c-1.763-1.008-3.456-2.074-5.031-3.174l1.118-1.6c1.526,1.065,3.17,2.1,4.882,3.082Zm-9.733-6.839a47.177,47.177,0,0,1-4.251-4.194l1.458-1.3a45.645,45.645,0,0,0,4.079,4.018Zm-7.908-8.928a38.334,38.334,0,0,1-2.908-5.238l1.779-.809a36.3,36.3,0,0,0,2.76,4.966Zm-4.956-10.859a40.068,40.068,0,0,1-1.153-5.865l1.939-.233a38.154,38.154,0,0,0,1.1,5.574Zm.489-11.813-1.954-.025a51.548,51.548,0,0,1,.43-5.955l1.939.248A49.934,49.934,0,0,0,441.723,468.762Zm1.436-11.41-1.906-.434c.426-1.861.954-3.79,1.565-5.732l1.863.588C444.086,453.666,443.574,455.546,443.16,457.352Zm3.43-11.064-1.829-.686c.7-1.861,1.446-3.7,2.222-5.478l1.79.782C448.011,442.651,447.276,444.462,446.59,446.288Zm4.65-10.64-1.745-.878c.889-1.769,1.837-3.52,2.812-5.2l1.691.977C453.042,432.2,452.113,433.914,451.24,435.648Zm5.816-10.032-1.626-1.081c1.1-1.655,2.257-3.278,3.44-4.824l1.554,1.186C459.267,422.408,458.133,424,457.056,425.616Zm7.04-9.2-1.466-1.294c1.319-1.5,2.691-2.943,4.081-4.306l1.366,1.4C466.723,413.545,465.382,414.96,464.1,416.42Zm54.864-.616a14.183,14.183,0,0,1-5.654-2.654l1.19-1.55a12.206,12.206,0,0,0,4.869,2.291Zm6.323-.926-.842-1.763a7.153,7.153,0,0,0,3.631-3.5l1.8.756A9.065,9.065,0,0,1,525.282,414.878Zm-16.052-6.411a16.679,16.679,0,0,1-2.031-5.85l1.933-.289a14.763,14.763,0,0,0,1.792,5.166Zm-36.871-.141-1.255-1.5c1.521-1.278,3.1-2.5,4.7-3.635l1.13,1.6C475.379,405.9,473.841,407.085,472.36,408.326Zm55.333-3.557a15.685,15.685,0,0,0-3.4-4.3l1.335-1.429a17.508,17.508,0,0,1,3.813,4.865Zm-45.906-3.115-.989-1.687c1.73-1.016,3.5-1.949,5.263-2.775l.829,1.771C485.183,399.762,483.465,400.669,481.786,401.654ZM519.824,397a18.717,18.717,0,0,0-5.128-2.127l.492-1.89a20.638,20.638,0,0,1,5.664,2.353Zm-10.57-.174-1.919-.36a20.784,20.784,0,0,1,.618-2.466,39.275,39.275,0,0,0-4.554.2l-.2-1.943a39.489,39.489,0,0,1,5.459-.2c.192-.461.4-.924.625-1.384l1.755.86A20.7,20.7,0,0,0,509.254,396.823Zm-17.033-.051-.649-1.843a54.856,54.856,0,0,1,5.729-1.681l.444,1.906A53.087,53.087,0,0,0,492.221,396.772Zm21.827-10.026-1.55-1.194a40.719,40.719,0,0,1,4.026-4.45l1.354,1.407A38.477,38.477,0,0,0,514.048,386.745Zm8.207-7.961-1.184-1.554c1.132-.862,2.332-1.714,3.569-2.531l1.077,1.63C524.518,377.124,523.353,377.948,522.255,378.785Z" transform="translate(-439.769 -374.7)" fill="#d7d9dd"/>
    </g>
    <g id="Grupo_26518" data-name="Grupo 26518" transform="translate(429.922 555.952)">
      <path id="Trazado_49049" data-name="Trazado 49049" d="M709.687,472.524c0,2.81-62.629,5.091-139.885,5.091s-139.881-2.281-139.881-5.091,62.627-5.086,139.881-5.086S709.687,469.715,709.687,472.524Z" transform="translate(-429.922 -467.438)" fill="#eaf0fe"/>
    </g>
    <g id="Grupo_26528" data-name="Grupo 26528" transform="translate(456.427 492.878)">
      <g id="Grupo_26519" data-name="Grupo 26519" transform="translate(4.621 4.596)">
        <path id="Trazado_49050" data-name="Trazado 49050" d="M459.7,438.138a18.59,18.59,0,1,0,22.721,13.228A18.587,18.587,0,0,0,459.7,438.138Zm7.241,27.425a9.777,9.777,0,1,1,6.956-11.946A9.781,9.781,0,0,1,466.939,465.563Z" transform="translate(-445.848 -437.517)" fill="#ffda89"/>
      </g>
      <g id="Grupo_26520" data-name="Grupo 26520" transform="translate(13.37)">
        <path id="Trazado_49051" data-name="Trazado 49051" d="M460.706,443.455l-8.1,2.14s-3.094-6.094-2.072-7.849c1.053-1.81,6.413-3.377,8.1-2.136C460.268,436.808,460.706,443.455,460.706,443.455Z" transform="translate(-450.324 -435.166)" fill="#ffda89"/>
      </g>
      <g id="Grupo_26521" data-name="Grupo 26521" transform="translate(22.224 36.271)">
        <path id="Trazado_49052" data-name="Trazado 49052" d="M462.957,453.724l-8.1,2.138s.323,6.827,2.072,7.851c1.814,1.053,7.245-.227,8.1-2.142C465.858,459.72,462.957,453.724,462.957,453.724Z" transform="translate(-454.854 -453.724)" fill="#ffda89"/>
      </g>
      <g id="Grupo_26522" data-name="Grupo 26522" transform="translate(1.529 9.163)">
        <path id="Trazado_49053" data-name="Trazado 49053" d="M455.182,443.071l-3.264,7.716s-6.716-1.28-7.48-3.16c-.786-1.939,1.253-7.138,3.266-7.716C449.653,439.352,455.182,443.071,455.182,443.071Z" transform="translate(-444.266 -439.854)" fill="#ffda89"/>
      </g>
      <g id="Grupo_26523" data-name="Grupo 26523" transform="translate(0 23.611)">
        <path id="Trazado_49054" data-name="Trazado 49054" d="M452.4,447.4l.788,8.344s-6.518,2.058-8.082.764c-1.612-1.335-2.285-6.878-.786-8.344C445.771,446.744,452.4,447.4,452.4,447.4Z" transform="translate(-443.483 -447.246)" fill="#ffda89"/>
      </g>
      <g id="Grupo_26524" data-name="Grupo 26524" transform="translate(36.378 13.913)">
        <path id="Trazado_49055" data-name="Trazado 49055" d="M463.9,452.468l-1.808-8.179s6.217-2.848,7.925-1.755c1.767,1.128,3.113,6.547,1.808,8.185C470.563,452.3,463.9,452.468,463.9,452.468Z" transform="translate(-462.096 -442.284)" fill="#ffda89"/>
      </g>
      <g id="Grupo_26525" data-name="Grupo 26525" transform="translate(27.02 1.774)">
        <path id="Trazado_49056" data-name="Trazado 49056" d="M457.308,442.562l6.649,5.1s5.2-4.429,4.941-6.44c-.274-2.078-4.611-5.592-6.645-5.1C460.277,436.6,457.308,442.562,457.308,442.562Z" transform="translate(-457.308 -436.073)" fill="#ffda89"/>
      </g>
      <g id="Grupo_26526" data-name="Grupo 26526" transform="translate(6.553 33.782)">
        <path id="Trazado_49057" data-name="Trazado 49057" d="M458.434,457.551l-6.647-5.1s-5.209,4.429-4.941,6.44c.274,2.076,4.612,5.59,6.647,5.1C455.467,463.512,458.434,457.551,458.434,457.551Z" transform="translate(-446.836 -452.45)" fill="#ffda89"/>
      </g>
      <g id="Grupo_26527" data-name="Grupo 26527" transform="translate(34.381 27.15)">
        <path id="Trazado_49058" data-name="Trazado 49058" d="M461.074,456.775l3.264-7.718s6.716,1.28,7.476,3.16c.788,1.941-1.249,7.14-3.264,7.718C466.6,460.5,461.074,456.775,461.074,456.775Z" transform="translate(-461.074 -449.057)" fill="#ffda89"/>
      </g>
    </g>
    <g id="Grupo_26538" data-name="Grupo 26538" transform="translate(558.151 384.115)">
      <g id="Grupo_26529" data-name="Grupo 26529" transform="translate(8.395 8.352)">
        <path id="Trazado_49059" data-name="Trazado 49059" d="M524.986,384.917a33.778,33.778,0,1,0,41.286,24.038A33.785,33.785,0,0,0,524.986,384.917Zm13.163,49.833a17.764,17.764,0,1,1,12.638-21.71A17.765,17.765,0,0,1,538.149,434.75Z" transform="translate(-499.826 -383.791)" fill="#ffda89"/>
      </g>
      <g id="Grupo_26530" data-name="Grupo 26530" transform="translate(24.294)">
        <path id="Trazado_49060" data-name="Trazado 49060" d="M526.82,394.582,512.1,398.469s-5.619-11.072-3.762-14.262c1.913-3.289,11.646-6.139,14.717-3.882C526.025,382.5,526.82,394.582,526.82,394.582Z" transform="translate(-507.961 -379.517)" fill="#ffda89"/>
      </g>
      <g id="Grupo_26531" data-name="Grupo 26531" transform="translate(40.379 65.902)">
        <path id="Trazado_49061" data-name="Trazado 49061" d="M530.915,413.236l-14.725,3.889s.58,12.4,3.766,14.26c3.289,1.915,13.163-.414,14.719-3.889C536.184,424.136,530.915,413.236,530.915,413.236Z" transform="translate(-516.19 -413.236)" fill="#ffda89"/>
      </g>
      <g id="Grupo_26532" data-name="Grupo 26532" transform="translate(2.778 16.649)">
        <path id="Trazado_49062" data-name="Trazado 49062" d="M516.784,393.884l-5.93,14.021s-12.2-2.328-13.589-5.746c-1.427-3.524,2.275-12.972,5.932-14.019C506.742,387.123,516.784,393.884,516.784,393.884Z" transform="translate(-496.952 -388.036)" fill="#ffda89"/>
      </g>
      <g id="Grupo_26533" data-name="Grupo 26533" transform="translate(0 42.902)">
        <path id="Trazado_49063" data-name="Trazado 49063" d="M511.726,401.74l1.437,15.161s-11.842,3.739-14.682,1.388c-2.934-2.429-4.155-12.5-1.433-15.159C499.687,400.557,511.726,401.74,511.726,401.74Z" transform="translate(-495.53 -401.468)" fill="#ffda89"/>
      </g>
      <g id="Grupo_26534" data-name="Grupo 26534" transform="translate(66.097 25.283)">
        <path id="Trazado_49064" data-name="Trazado 49064" d="M532.633,410.952l-3.284-14.862s11.293-5.169,14.4-3.182c3.207,2.044,5.658,11.895,3.285,14.868C544.729,410.655,532.633,410.952,532.633,410.952Z" transform="translate(-529.349 -392.453)" fill="#ffda89"/>
      </g>
      <g id="Grupo_26535" data-name="Grupo 26535" transform="translate(49.092 3.222)">
        <path id="Trazado_49065" data-name="Trazado 49065" d="M520.648,392.955l12.083,9.268s9.456-8.045,8.977-11.705c-.5-3.772-8.381-10.157-12.075-9.268C526.042,382.116,520.648,392.955,520.648,392.955Z" transform="translate(-520.648 -381.166)" fill="#ffda89"/>
      </g>
      <g id="Grupo_26536" data-name="Grupo 26536" transform="translate(11.904 61.381)">
        <path id="Trazado_49066" data-name="Trazado 49066" d="M522.7,420.187l-12.081-9.264s-9.464,8.041-8.979,11.7c.5,3.772,8.383,10.153,12.081,9.262C517.3,431.025,522.7,420.187,522.7,420.187Z" transform="translate(-501.621 -410.923)" fill="#ffda89"/>
      </g>
      <g id="Grupo_26537" data-name="Grupo 26537" transform="translate(62.468 49.332)">
        <path id="Trazado_49067" data-name="Trazado 49067" d="M527.492,418.777l5.932-14.019s12.2,2.324,13.583,5.742c1.429,3.526-2.273,12.97-5.934,14.023C537.526,425.54,527.492,418.777,527.492,418.777Z" transform="translate(-527.492 -404.758)" fill="#ffda89"/>
      </g>
    </g>
    <g id="Grupo_26549" data-name="Grupo 26549" transform="translate(486.554 422.291)">
      <g id="Grupo_26540" data-name="Grupo 26540" transform="translate(57.018 99.477)">
        <g id="Grupo_26539" data-name="Grupo 26539">
          <rect id="Rectángulo_4980" data-name="Rectángulo 4980" width="48.535" height="31.865" fill="#b52426"/>
        </g>
      </g>
      <g id="Grupo_26542" data-name="Grupo 26542">
        <g id="Grupo_26541" data-name="Grupo 26541">
          <path id="Trazado_49068" data-name="Trazado 49068" d="M614.449,399.05H466.415a7.516,7.516,0,0,0-7.517,7.519v86.42H621.97v-86.42A7.525,7.525,0,0,0,614.449,399.05Z" transform="translate(-458.898 -399.05)" fill="#b52426"/>
        </g>
      </g>
      <g id="Grupo_26544" data-name="Grupo 26544" transform="translate(0 93.939)">
        <g id="Grupo_26543" data-name="Grupo 26543">
          <path id="Trazado_49069" data-name="Trazado 49069" d="M614.449,475.962H466.415a7.516,7.516,0,0,1-7.517-7.517V447.114H621.97v21.331A7.524,7.524,0,0,1,614.449,475.962Z" transform="translate(-458.898 -447.114)" fill="#d64626"/>
        </g>
      </g>
      <g id="Grupo_26546" data-name="Grupo 26546" transform="translate(8.231 131.342)">
        <g id="Grupo_26545" data-name="Grupo 26545">
          <rect id="Rectángulo_4981" data-name="Rectángulo 4981" width="133.875" height="7.407" fill="#d64626"/>
        </g>
      </g>
      <g id="Grupo_26548" data-name="Grupo 26548" transform="translate(5.546 7.917)">
        <g id="Grupo_26547" data-name="Grupo 26547">
          <rect id="Rectángulo_4982" data-name="Rectángulo 4982" width="150.579" height="86.023" fill="#eaf0fe"/>
        </g>
      </g>
    </g>
    <g id="Grupo_26552" data-name="Grupo 26552" transform="translate(656.997 480.89)">
      <g id="Grupo_26550" data-name="Grupo 26550">
        <path id="Trazado_49070" data-name="Trazado 49070" d="M568.544,464.423c-1.671-.649,5.148-10.339-2.275-14.275-9.753-5.175.991-21.5-3.115-21.108-6.135.6-7.843,10.149-6.733,20.809,1.415,13.621-5.555,9.94-5.687,9.874-3.968-1.79-5.7-.057-3.948,11.705s6.282,20.835,10.138,20.262a2.263,2.263,0,0,0,.688-.211,4.053,4.053,0,0,0,.753.129,3.609,3.609,0,0,0,1.687-.375c4.865.246,5.167-1.81,9.248-12.348C573.756,467.364,573.45,466.319,568.544,464.423Z" transform="translate(-546.105 -429.032)" fill="#60d3be"/>
      </g>
      <g id="Grupo_26551" data-name="Grupo 26551" transform="translate(3.299 59.443)">
        <path id="Trazado_49071" data-name="Trazado 49071" d="M566.99,479.29h-17.3l-1.9-19.844H568.88Z" transform="translate(-547.793 -459.446)" fill="#ffda89"/>
      </g>
    </g>
    <g id="Grupo_26560" data-name="Grupo 26560" transform="translate(607.068 427.728)">
      <g id="Grupo_26555" data-name="Grupo 26555">
        <g id="Grupo_26553" data-name="Grupo 26553">
          <path id="Trazado_49072" data-name="Trazado 49072" d="M592.182,429.99c0,18.061-22.381,28.048-40.442,28.048s-31.181-10.235-31.181-28.3,15.468-27.91,33.527-27.91S592.182,411.931,592.182,429.99Z" transform="translate(-520.559 -401.832)" fill="#ffda89"/>
        </g>
        <g id="Grupo_26554" data-name="Grupo 26554" transform="translate(3.685 35.77)">
          <path id="Trazado_49073" data-name="Trazado 49073" d="M522.444,449.033l11.9-14.448-10.093-14.45Z" transform="translate(-522.444 -420.134)" fill="#ffda89"/>
        </g>
      </g>
      <g id="Grupo_26556" data-name="Grupo 26556" transform="translate(16.529 20.156)">
        <path id="Trazado_49074" data-name="Trazado 49074" d="M529.016,427.712v-2.167l1.98-1.79c3.344-2.99,4.968-4.71,5.017-6.5,0-1.249-.756-2.238-2.519-2.238a5.553,5.553,0,0,0-3.276,1.272L529.2,413.72a8.481,8.481,0,0,1,5.019-1.575c3.461,0,5.369,2.025,5.369,4.8,0,2.568-1.861,4.616-4.075,6.594l-1.413,1.179v.045h5.77v2.945Z" transform="translate(-529.016 -412.145)" fill="#fff"/>
      </g>
      <g id="Grupo_26557" data-name="Grupo 26557" transform="translate(29.153 20.412)">
        <path id="Trazado_49075" data-name="Trazado 49075" d="M542.257,427.587v-3.651h-6.782v-2.33l5.793-9.331h4.382v8.975h1.837v2.685H545.65v3.651Zm0-6.336V417.86c0-.919.047-1.861.119-2.852h-.1c-.492.991-.9,1.886-1.413,2.852l-2.05,3.346v.045Z" transform="translate(-535.475 -412.276)" fill="#fff"/>
      </g>
      <g id="Grupo_26558" data-name="Grupo 26558" transform="translate(42.058 19.588)">
        <path id="Trazado_49076" data-name="Trazado 49076" d="M542.078,428.932l5.039-17.078H549.5l-5.041,17.078Z" transform="translate(-542.078 -411.854)" fill="#fff"/>
      </g>
      <g id="Grupo_26559" data-name="Grupo 26559" transform="translate(50.63 20.412)">
        <path id="Trazado_49077" data-name="Trazado 49077" d="M557.274,412.276v2.263l-6.311,13.048h-3.792l6.311-12.319v-.049h-7.018v-2.943Z" transform="translate(-546.464 -412.276)" fill="#fff"/>
      </g>
    </g>
    <g id="Grupo_26571" data-name="Grupo 26571" transform="translate(466.713 410.058)">
      <g id="Grupo_26565" data-name="Grupo 26565">
        <g id="Grupo_26562" data-name="Grupo 26562">
          <g id="Grupo_26561" data-name="Grupo 26561">
            <path id="Trazado_49078" data-name="Trazado 49078" d="M448.746,420.46c0,14.975,20.614,26.565,35.593,26.565a27.117,27.117,0,0,0,0-54.234C469.36,392.791,448.746,405.483,448.746,420.46Z" transform="translate(-448.746 -392.791)" fill="#60d3be"/>
          </g>
        </g>
        <g id="Grupo_26564" data-name="Grupo 26564" transform="translate(50.091 33.634)">
          <g id="Grupo_26563" data-name="Grupo 26563">
            <path id="Trazado_49079" data-name="Trazado 49079" d="M483.937,433.963l-9.562-7.57L482.437,410Z" transform="translate(-474.375 -410)" fill="#60d3be"/>
          </g>
        </g>
      </g>
      <g id="Grupo_26570" data-name="Grupo 26570" transform="translate(13.3 21.403)">
        <g id="Grupo_26566" data-name="Grupo 26566" transform="translate(0 0.082)">
          <path id="Trazado_49080" data-name="Trazado 49080" d="M458.078,403.784v4.28h4.145v-4.28h2.512v11.131h-2.512v-4.656h-4.145v4.656h-2.527V403.784Z" transform="translate(-455.551 -403.784)" fill="#fff"/>
        </g>
        <g id="Grupo_26567" data-name="Grupo 26567" transform="translate(11.715 0.082)">
          <path id="Trazado_49081" data-name="Trazado 49081" d="M468.169,410.208h-4.1v2.646h4.573v2.06h-7.1V403.784h6.87v2.066h-4.343v2.312h4.1Z" transform="translate(-461.545 -403.784)" fill="#fff"/>
        </g>
        <g id="Grupo_26568" data-name="Grupo 26568" transform="translate(20.868 0.082)">
          <path id="Trazado_49082" data-name="Trazado 49082" d="M466.228,403.784h2.525V412.8h4.427v2.113h-6.952Z" transform="translate(-466.228 -403.784)" fill="#fff"/>
        </g>
        <g id="Grupo_26569" data-name="Grupo 26569" transform="translate(29.641)">
          <path id="Trazado_49083" data-name="Trazado 49083" d="M470.717,403.975a20.458,20.458,0,0,1,3.4-.233,5.353,5.353,0,0,1,3.4.891,3.268,3.268,0,0,1,1.19,2.578,3.553,3.553,0,0,1-1.024,2.642,5.165,5.165,0,0,1-3.618,1.175,6.653,6.653,0,0,1-.86-.051v3.977h-2.492Zm2.492,5.054a3.918,3.918,0,0,0,.844.065c1.335,0,2.162-.676,2.162-1.814,0-1.028-.709-1.636-1.964-1.636a4.269,4.269,0,0,0-1.042.1Z" transform="translate(-470.717 -403.742)" fill="#fff"/>
        </g>
      </g>
    </g>
    <g id="Grupo_26595" data-name="Grupo 26595" transform="translate(518.396 405.092)">
      <g id="Grupo_26580" data-name="Grupo 26580" transform="translate(58.197 16.729)">
        <g id="Grupo_26573" data-name="Grupo 26573" transform="translate(0 3.523)">
          <g id="Grupo_26572" data-name="Grupo 26572">
            <path id="Trazado_49084" data-name="Trazado 49084" d="M507.022,403.641l-2.056-.6,2.351-2.428,8.64,2.981Z" transform="translate(-504.967 -400.612)" fill="#f0c542"/>
          </g>
        </g>
        <g id="Grupo_26575" data-name="Grupo 26575" transform="translate(1.874 5.346)">
          <g id="Grupo_26574" data-name="Grupo 26574">
            <path id="Trazado_49085" data-name="Trazado 49085" d="M505.926,406.109l9.118-3.405-8.873-1.159Z" transform="translate(-505.926 -401.545)" fill="#fad77e"/>
          </g>
        </g>
        <g id="Grupo_26577" data-name="Grupo 26577" transform="translate(2.254)">
          <g id="Grupo_26576" data-name="Grupo 26576">
            <path id="Trazado_49086" data-name="Trazado 49086" d="M514.858,405.314l-8.738-2.353.659-4.151Z" transform="translate(-506.12 -398.81)" fill="#fad784"/>
          </g>
        </g>
        <g id="Grupo_26579" data-name="Grupo 26579" transform="translate(0 5.346)">
          <g id="Grupo_26578" data-name="Grupo 26578">
            <path id="Trazado_49087" data-name="Trazado 49087" d="M504.967,402.15l2.119-.605-.063,1.206Z" transform="translate(-504.967 -401.545)" fill="#dbab33"/>
          </g>
        </g>
      </g>
      <g id="Grupo_26581" data-name="Grupo 26581" transform="translate(55.925 22.697)">
        <path id="Trazado_49088" data-name="Trazado 49088" d="M520.4,418.083a8.3,8.3,0,0,1-8.3,8.3h0a8.3,8.3,0,0,1-8.3-8.3v-7.919a8.3,8.3,0,0,1,8.3-8.3h0a8.3,8.3,0,0,1,8.3,8.3Z" transform="translate(-503.804 -401.863)" fill="#5f82d6"/>
      </g>
      <g id="Grupo_26583" data-name="Grupo 26583" transform="translate(28.245 12.112)">
        <g id="Grupo_26582" data-name="Grupo 26582">
          <path id="Trazado_49089" data-name="Trazado 49089" d="M489.685,426.508c.7,16.226,9.813,29.086,20.348,28.717s18.483-13.822,17.793-30.042c-.719-16.238-9.829-29.094-20.348-28.729S488.98,410.275,489.685,426.508Z" transform="translate(-489.642 -396.447)" fill="#ffc190"/>
        </g>
      </g>
      <g id="Grupo_26585" data-name="Grupo 26585" transform="translate(23.356 0.064)">
        <g id="Grupo_26584" data-name="Grupo 26584">
          <path id="Trazado_49090" data-name="Trazado 49090" d="M527.7,416.856s-10.161,1.654-27.659-4.951c0,0-13.443,12.849-4.6,32.964,0,0-12.882-11.66-6.538-32.008s19.505-16.542,26.635-19.042,15.176,1.974,20.418-2.781C541.132,386.345,542.943,404.576,527.7,416.856Z" transform="translate(-487.14 -390.283)" fill="#2e3b57"/>
        </g>
      </g>
      <g id="Grupo_26587" data-name="Grupo 26587" transform="translate(24.771 33.764)">
        <g id="Grupo_26586" data-name="Grupo 26586">
          <path id="Trazado_49091" data-name="Trazado 49091" d="M487.87,415.8c.115,4.444,2.109,7.959,4.46,7.841s4.128-3.823,4.007-8.269-2.132-7.959-4.462-7.841S487.745,411.345,487.87,415.8Z" transform="translate(-487.864 -407.526)" fill="#ffc190"/>
        </g>
      </g>
      <g id="Grupo_26588" data-name="Grupo 26588" transform="translate(0 74.3)">
        <path id="Trazado_49092" data-name="Trazado 49092" d="M521.268,428.266c-22.22,0-40.874,20.672-46.078,48.6h92.155C562.14,448.938,543.487,428.266,521.268,428.266Z" transform="translate(-475.19 -428.266)" fill="#c86277"/>
      </g>
      <g id="Grupo_26589" data-name="Grupo 26589" transform="translate(40.554 66.642)">
        <path id="Trazado_49093" data-name="Trazado 49093" d="M509.546,439.663l-6.8,8.081-6.8-8.081V424.348h13.607Z" transform="translate(-495.939 -424.348)" fill="#ffc190"/>
      </g>
      <g id="Grupo_26590" data-name="Grupo 26590" transform="translate(16.888 23.821)">
        <path id="Trazado_49094" data-name="Trazado 49094" d="M500.426,418.656a8.3,8.3,0,0,1-8.3,8.3h0a8.3,8.3,0,0,1-8.3-8.3v-7.918a8.3,8.3,0,0,1,8.3-8.3h0a8.3,8.3,0,0,1,8.3,8.3Z" transform="translate(-483.831 -402.438)" fill="#5f82d6"/>
      </g>
      <g id="Grupo_26591" data-name="Grupo 26591" transform="translate(22.248 3.238)">
        <path id="Trazado_49095" data-name="Trazado 49095" d="M514.072,391.907H501.046a14.475,14.475,0,0,0-14.473,14.477v8.924h4.147v-7.45a11.612,11.612,0,0,1,11.613-11.611h10.452A11.612,11.612,0,0,1,524.4,407.857v7.45h4.149v-8.924A14.477,14.477,0,0,0,514.072,391.907Z" transform="translate(-486.573 -391.907)" fill="#5f82d6"/>
      </g>
      <g id="Grupo_26592" data-name="Grupo 26592" transform="translate(36.253)">
        <path id="Trazado_49096" data-name="Trazado 49096" d="M498.039,403.849s4.96-9.426,11.561-10.108,14.029.8,17.041-.934,7.4-5.2,6.743.934,1.777,20.018-11.172,26.956c0,0-24.018-.44-28.473-8.76Z" transform="translate(-493.739 -390.25)" fill="#2e3b57"/>
      </g>
      <g id="Grupo_26593" data-name="Grupo 26593" transform="translate(50.992 54.971)">
        <path id="Trazado_49097" data-name="Trazado 49097" d="M510.036,421.294a2.917,2.917,0,0,1-2.916,2.916H504.2a2.918,2.918,0,0,1-2.918-2.916h0a2.918,2.918,0,0,1,2.918-2.918h2.922a2.918,2.918,0,0,1,2.916,2.918Z" transform="translate(-501.28 -418.376)" fill="#5f82d6"/>
      </g>
      <g id="Grupo_26594" data-name="Grupo 26594" transform="translate(55.151 44.03)">
        <path id="Trazado_49098" data-name="Trazado 49098" d="M509.283,428.64a54.215,54.215,0,0,1-5.875-.365l.438-3.885c4.681.528,9.712.323,10.777-.418,1.462-4.583-.066-10.069-.082-10.124l3.76-1.069c.078.278,1.908,6.854-.025,12.606C517.431,427.89,513.589,428.64,509.283,428.64Z" transform="translate(-503.408 -412.778)" fill="#5f82d6"/>
      </g>
    </g>
  </g>
</svg>
