<svg xmlns="http://www.w3.org/2000/svg" width="281.686" height="202.646" viewBox="0 0 281.686 202.646">
  <g id="Grupo_27397" data-name="Grupo 27397" transform="translate(-182.442 -155.581)">
    <g id="Grupo_26809" data-name="Grupo 26809" transform="translate(182.442 346.238)">
      <path id="Trazado_49157" data-name="Trazado 49157" d="M464.128,250.38c0,3.313-63.056,6-140.843,6s-140.843-2.684-140.843-6,63.058-5.992,140.843-5.992S464.128,247.072,464.128,250.38Z" transform="translate(-182.442 -244.388)" fill="#eaf0fe"/>
    </g>
    <g id="Grupo_26810" data-name="Grupo 26810" transform="translate(233.771 178.735)">
      <path id="Trazado_49158" data-name="Trazado 49158" d="M277.962,319.1c-.1-.013-2.51-.341-6.46-1.161l.436-2.1c3.869.805,6.288,1.136,6.312,1.138Zm-12.8-2.63c-1.947-.494-4.051-1.069-6.267-1.735l.618-2.057c2.183.657,4.259,1.224,6.177,1.711Zm-12.45-3.748c-2.07-.728-4.116-1.507-6.084-2.31l.814-1.988c1.934.792,3.948,1.557,5.983,2.271Zm-12.04-4.948c-2-.958-3.95-1.969-5.786-3l1.052-1.87c1.795,1.011,3.7,2,5.661,2.937Zm-11.35-6.417c-1.857-1.245-3.628-2.553-5.264-3.884l1.353-1.666c1.587,1.29,3.306,2.557,5.107,3.768ZM219.2,293.07a50.868,50.868,0,0,1-4.3-4.966l1.713-1.3a48.791,48.791,0,0,0,4.122,4.757Zm-7.881-10.487a40.79,40.79,0,0,1-2.681-6.02l2.027-.711a38.607,38.607,0,0,0,2.54,5.7Zm-4.343-12.392a42.7,42.7,0,0,1-.623-6.552l2.147-.041a40.543,40.543,0,0,0,.59,6.222Zm1.851-12.868-2.132-.255a56.44,56.44,0,0,1,1.172-6.456l2.087.5A54.411,54.411,0,0,0,208.824,257.322Zm2.918-12.278-2.027-.7c.689-1.984,1.494-4.025,2.4-6.069l1.964.867C213.2,241.129,212.414,243.117,211.742,245.044Zm5.105-11.636-1.9-1c.975-1.853,2.048-3.759,3.188-5.663l1.842,1.106C218.854,229.72,217.8,231.59,216.847,233.408Zm146.6-.144a15.655,15.655,0,0,1-6.329-2.673l1.262-1.739a13.486,13.486,0,0,0,5.444,2.3Zm6.949-.747-.915-1.941a7.622,7.622,0,0,0,3.748-4.068l1.971.85A9.7,9.7,0,0,1,370.393,232.517Zm-17.379-7.589a13.78,13.78,0,0,1-.644-4.272,17.3,17.3,0,0,1,.2-2.589l2.123.324a15.256,15.256,0,0,0-.176,2.265,11.6,11.6,0,0,0,.541,3.609ZM223.4,222.459l-1.786-1.194q1.742-2.612,3.712-5.314l1.737,1.265Q225.112,219.883,223.4,222.459Zm153.123-1.771-2.147-.067c.009-.262.013-.528.013-.8a36.221,36.221,0,0,0-.449-5.419l2.121-.326a38.332,38.332,0,0,1,.474,5.747C376.531,220.115,376.527,220.4,376.518,220.688Zm-19.974-8.113-1.937-.923a32,32,0,0,1,3.5-5.659l1.7,1.3A30,30,0,0,0,356.544,212.575Zm-125.62-.459-1.687-1.327q1.945-2.473,4.081-5.024l1.644,1.378Q232.847,209.668,230.924,212.116Zm141.595-3.759a30.305,30.305,0,0,0-2.8-5.541l1.818-1.142a32.659,32.659,0,0,1,3,5.934Zm-8.5-5.683-1.462-1.569a45.288,45.288,0,0,1,5.14-4.124l1.222,1.765A43.412,43.412,0,0,0,364.019,202.674Zm-124.873-.382-1.606-1.423q2.093-2.36,4.35-4.785l1.572,1.464Q241.224,199.949,239.147,202.292ZM366,197.734c-1.292-1.556-2.737-3.122-4.3-4.657l1.509-1.529c1.608,1.584,3.1,3.2,4.438,4.811Zm8.326-2.213-.979-1.911a53.54,53.54,0,0,1,6.022-2.623L380.1,193A51.348,51.348,0,0,0,374.322,195.52Zm-126.438-2.608L246.36,191.4c1.546-1.561,3.134-3.066,4.721-4.476l1.428,1.606C250.954,189.906,249.4,191.381,247.884,192.912Zm138.26-1.733-.5-2.089a62.1,62.1,0,0,1,6.441-1.187l.279,2.13A59.506,59.506,0,0,0,386.145,191.18Zm26.355-.713-1.177-.18.311-2.123,1.2.185Zm-7.488-.835c-2.175-.135-4.287-.163-6.34-.1l-.067-2.147q3.172-.1,6.535.105Zm-48.019-.816c-1.6-1.335-3.3-2.643-5.041-3.886l1.247-1.745c1.786,1.273,3.525,2.613,5.165,3.98Zm-99.587-4.352-1.314-1.7c1.735-1.338,3.519-2.611,5.3-3.789l1.183,1.793C260.836,181.916,259.1,183.159,257.406,184.464Zm89.237-3.046c-1.806-1.1-3.669-2.158-5.543-3.132l.992-1.9c1.917,1,3.826,2.078,5.672,3.207Zm-78.627-3.933-1.037-1.881c1.911-1.05,3.877-2.029,5.846-2.9l.874,1.96C271.783,175.514,269.87,176.463,268.016,177.485Zm67.339-1.943c-1.945-.846-3.94-1.632-5.921-2.331l.715-2.025c2.029.717,4.07,1.52,6.063,2.387ZM279.6,172.336l-.7-2.031c2.052-.706,4.161-1.327,6.267-1.846l.515,2.085C283.638,171.048,281.592,171.652,279.6,172.336Zm43.76-1.024c-2.055-.558-4.137-1.039-6.192-1.434l.4-2.108c2.11.4,4.249.9,6.355,1.473ZM291.9,169.307l-.322-2.121c2.14-.328,4.326-.562,6.494-.7l.135,2.143C296.1,168.762,293.98,168.989,291.9,169.307Zm18.983-.369c-2.106-.23-4.238-.374-6.331-.425l.052-2.147c2.155.054,4.347.2,6.514.436Z" transform="translate(-206.351 -166.366)" fill="#d7d9dd"/>
    </g>
    <g id="Grupo_26820" data-name="Grupo 26820" transform="translate(215.631 204.857)" opacity="0.5">
      <g id="Grupo_26811" data-name="Grupo 26811" transform="translate(7.393 7.579)">
        <path id="Trazado_49159" data-name="Trazado 49159" d="M212.176,188.151a28.4,28.4,0,1,0,39.878,4.742A28.394,28.394,0,0,0,212.176,188.151Zm26.806,34.043a14.934,14.934,0,1,1,2.495-20.971A14.934,14.934,0,0,1,238.982,222.194Z" transform="translate(-201.345 -182.064)" fill="#dae2f2"/>
      </g>
      <g id="Grupo_26812" data-name="Grupo 26812" transform="translate(9.753 4.965)">
        <path id="Trazado_49160" data-name="Trazado 49160" d="M220.181,190.648l-10.056,7.92s-8.036-6.664-7.669-9.738c.378-3.182,6.937-8.633,10.056-7.92C215.533,181.6,220.181,190.648,220.181,190.648Z" transform="translate(-202.444 -180.846)" fill="#dae2f2"/>
      </g>
      <g id="Grupo_26813" data-name="Grupo 26813" transform="translate(43.643 49.991)">
        <path id="Trazado_49161" data-name="Trazado 49161" d="M228.288,201.819l-10.058,7.92s4.594,9.375,7.673,9.743c3.175.378,10.013-4.719,10.056-7.92C236,208.464,228.288,201.819,228.288,201.819Z" transform="translate(-218.23 -201.819)" fill="#dae2f2"/>
      </g>
      <g id="Grupo_26814" data-name="Grupo 26814" transform="translate(0 26.572)">
        <path id="Trazado_49162" data-name="Trazado 49162" d="M212.027,191.706l.116,12.8s-10.189,2.282-12.4.107c-2.286-2.239-2.583-10.764-.114-12.8C202.025,189.846,212.027,191.706,212.027,191.706Z" transform="translate(-197.901 -190.911)" fill="#dae2f2"/>
      </g>
      <g id="Grupo_26815" data-name="Grupo 26815" transform="translate(5.024 45.463)">
        <path id="Trazado_49163" data-name="Trazado 49163" d="M211.314,199.71l6.17,11.213s-7.885,6.84-10.861,5.981c-3.074-.893-7.383-8.257-6.172-11.217C201.625,202.819,211.314,199.71,211.314,199.71Z" transform="translate(-200.242 -199.71)" fill="#dae2f2"/>
      </g>
      <g id="Grupo_26816" data-name="Grupo 26816" transform="translate(49.819 10.498)">
        <path id="Trazado_49164" data-name="Trazado 49164" d="M228.61,201.083l-7.5-10.369s6.984-7.759,10.045-7.267c3.158.507,8.341,7.282,7.5,10.372C237.842,196.808,228.61,201.083,228.61,201.083Z" transform="translate(-221.107 -183.424)" fill="#dae2f2"/>
      </g>
      <g id="Grupo_26817" data-name="Grupo 26817" transform="translate(32.058)">
        <path id="Trazado_49165" data-name="Trazado 49165" d="M212.834,191.276l12.411,3.111s4.609-9.369,3.014-12.029c-1.644-2.744-9.858-5.037-12.413-3.113C213.371,181.111,212.834,191.276,212.834,191.276Z" transform="translate(-212.834 -178.534)" fill="#dae2f2"/>
      </g>
      <g id="Grupo_26818" data-name="Grupo 26818" transform="translate(22.459 57.936)">
        <path id="Trazado_49166" data-name="Trazado 49166" d="M224.126,208.627,211.71,205.52s-4.607,9.365-3.012,12.022c1.642,2.744,9.856,5.039,12.413,3.113C223.587,218.79,224.126,208.627,224.126,208.627Z" transform="translate(-208.363 -205.52)" fill="#dae2f2"/>
      </g>
      <g id="Grupo_26819" data-name="Grupo 26819" transform="translate(58.418 31.716)">
        <path id="Trazado_49167" data-name="Trazado 49167" d="M225.226,207.153l-.114-12.8s10.189-2.284,12.4-.109c2.282,2.243,2.585,10.764.112,12.8C235.228,209.012,225.226,207.153,225.226,207.153Z" transform="translate(-225.112 -193.307)" fill="#dae2f2"/>
      </g>
    </g>
    <g id="Grupo_26830" data-name="Grupo 26830" transform="translate(318.843 157.111)">
      <g id="Grupo_26821" data-name="Grupo 26821" transform="translate(7.393 7.576)">
        <path id="Trazado_49168" data-name="Trazado 49168" d="M260.252,165.91a28.4,28.4,0,1,0,39.88,4.742A28.4,28.4,0,0,0,260.252,165.91Zm26.8,34.043a14.932,14.932,0,1,1,2.495-20.971A14.934,14.934,0,0,1,287.056,199.953Z" transform="translate(-249.421 -159.822)" fill="#dae2f2"/>
      </g>
      <g id="Grupo_26822" data-name="Grupo 26822" transform="translate(9.752 4.963)">
        <path id="Trazado_49169" data-name="Trazado 49169" d="M268.256,168.407,258.2,176.325s-8.036-6.662-7.671-9.74c.378-3.177,6.937-8.63,10.056-7.916C263.61,159.356,268.256,168.407,268.256,168.407Z" transform="translate(-250.519 -158.605)" fill="#dae2f2"/>
      </g>
      <g id="Grupo_26823" data-name="Grupo 26823" transform="translate(43.646 49.989)">
        <path id="Trazado_49170" data-name="Trazado 49170" d="M276.361,179.578l-10.054,7.92s4.592,9.375,7.671,9.742c3.173.378,10.013-4.719,10.054-7.92C284.072,186.223,276.361,179.578,276.361,179.578Z" transform="translate(-266.307 -179.578)" fill="#dae2f2"/>
      </g>
      <g id="Grupo_26824" data-name="Grupo 26824" transform="translate(0 26.57)">
        <path id="Trazado_49171" data-name="Trazado 49171" d="M260.106,169.465l.109,12.8s-10.187,2.28-12.4.105c-2.284-2.239-2.583-10.767-.112-12.8C250.1,167.605,260.106,169.465,260.106,169.465Z" transform="translate(-245.977 -168.67)" fill="#dae2f2"/>
      </g>
      <g id="Grupo_26825" data-name="Grupo 26825" transform="translate(5.024 45.461)">
        <path id="Trazado_49172" data-name="Trazado 49172" d="M259.393,177.469l6.168,11.213s-7.885,6.84-10.863,5.981c-3.074-.9-7.381-8.255-6.172-11.217C249.7,180.578,259.393,177.469,259.393,177.469Z" transform="translate(-248.317 -177.469)" fill="#dae2f2"/>
      </g>
      <g id="Grupo_26826" data-name="Grupo 26826" transform="translate(49.821 10.494)">
        <path id="Trazado_49173" data-name="Trazado 49173" d="M276.686,178.843l-7.5-10.369s6.984-7.759,10.045-7.269c3.156.509,8.338,7.284,7.5,10.371C285.916,174.568,276.686,178.843,276.686,178.843Z" transform="translate(-269.183 -161.182)" fill="#dae2f2"/>
      </g>
      <g id="Grupo_26827" data-name="Grupo 26827" transform="translate(32.06)">
        <path id="Trazado_49174" data-name="Trazado 49174" d="M260.91,169.034l12.409,3.111s4.612-9.369,3.019-12.027c-1.647-2.746-9.861-5.037-12.415-3.113C261.447,158.869,260.91,169.034,260.91,169.034Z" transform="translate(-260.91 -156.293)" fill="#dae2f2"/>
      </g>
      <g id="Grupo_26828" data-name="Grupo 26828" transform="translate(22.459 57.93)">
        <path id="Trazado_49175" data-name="Trazado 49175" d="M272.2,186.39l-12.413-3.113s-4.607,9.369-3.014,12.027c1.642,2.744,9.856,5.037,12.415,3.113C271.661,196.551,272.2,186.39,272.2,186.39Z" transform="translate(-256.438 -183.277)" fill="#dae2f2"/>
      </g>
      <g id="Grupo_26829" data-name="Grupo 26829" transform="translate(58.419 31.714)">
        <path id="Trazado_49176" data-name="Trazado 49176" d="M273.3,184.912l-.114-12.8s10.189-2.284,12.4-.109c2.282,2.241,2.581,10.764.109,12.8C283.3,186.771,273.3,184.912,273.3,184.912Z" transform="translate(-273.188 -171.066)" fill="#dae2f2"/>
      </g>
    </g>
    <g id="Grupo_26840" data-name="Grupo 26840" transform="translate(256.94 155.581)" opacity="0.5">
      <g id="Grupo_26831" data-name="Grupo 26831" transform="translate(5.444 5.415)">
        <path id="Trazado_49177" data-name="Trazado 49177" d="M235.991,158.833a21.9,21.9,0,1,0,26.763,15.582A21.9,21.9,0,0,0,235.991,158.833Zm8.532,32.3a11.515,11.515,0,1,1,8.192-14.071A11.518,11.518,0,0,1,244.523,191.137Z" transform="translate(-219.679 -158.103)" fill="#ffda89"/>
      </g>
      <g id="Grupo_26832" data-name="Grupo 26832" transform="translate(15.75)">
        <path id="Trazado_49178" data-name="Trazado 49178" d="M236.707,165.345l-9.545,2.523s-3.643-7.181-2.439-9.247c1.241-2.132,7.553-3.978,9.541-2.518C236.192,157.513,236.707,165.345,236.707,165.345Z" transform="translate(-224.479 -155.581)" fill="#ffda89"/>
      </g>
      <g id="Grupo_26833" data-name="Grupo 26833" transform="translate(26.179 42.723)">
        <path id="Trazado_49179" data-name="Trazado 49179" d="M238.88,175.481,229.337,178s.376,8.042,2.441,9.247c2.132,1.241,8.532-.268,9.543-2.52C242.3,182.548,238.88,175.481,238.88,175.481Z" transform="translate(-229.337 -175.481)" fill="#ffda89"/>
      </g>
      <g id="Grupo_26834" data-name="Grupo 26834" transform="translate(1.803 10.792)">
        <path id="Trazado_49180" data-name="Trazado 49180" d="M230.839,164.4,227,173.488s-7.909-1.507-8.809-3.723c-.927-2.284,1.473-8.409,3.845-9.09C224.327,160.016,230.839,164.4,230.839,164.4Z" transform="translate(-217.983 -160.608)" fill="#ffda89"/>
      </g>
      <g id="Grupo_26835" data-name="Grupo 26835" transform="translate(0 27.813)">
        <path id="Trazado_49181" data-name="Trazado 49181" d="M227.646,168.712l.93,9.828s-7.677,2.422-9.519.9c-1.9-1.574-2.694-8.1-.927-9.826C219.837,167.944,227.646,168.712,227.646,168.712Z" transform="translate(-217.143 -168.536)" fill="#ffda89"/>
      </g>
      <g id="Grupo_26836" data-name="Grupo 26836" transform="translate(42.849 16.391)">
        <path id="Trazado_49182" data-name="Trazado 49182" d="M239.234,175.209l-2.132-9.635s7.325-3.351,9.337-2.063c2.08,1.327,3.667,7.709,2.128,9.637C247.076,175.013,239.234,175.209,239.234,175.209Z" transform="translate(-237.102 -163.216)" fill="#ffda89"/>
      </g>
      <g id="Grupo_26837" data-name="Grupo 26837" transform="translate(31.827 2.089)">
        <path id="Trazado_49183" data-name="Trazado 49183" d="M231.968,164.2,239.8,170.2s6.131-5.215,5.82-7.587c-.322-2.447-5.432-6.584-7.827-6.009C235.467,157.17,231.968,164.2,231.968,164.2Z" transform="translate(-231.968 -156.554)" fill="#ffda89"/>
      </g>
      <g id="Grupo_26838" data-name="Grupo 26838" transform="translate(7.719 39.791)">
        <path id="Trazado_49184" data-name="Trazado 49184" d="M234.4,180.124l-7.83-6.009s-6.134,5.217-5.82,7.585c.322,2.447,5.434,6.589,7.832,6.009C230.907,187.149,234.4,180.124,234.4,180.124Z" transform="translate(-220.739 -174.115)" fill="#ffda89"/>
      </g>
      <g id="Grupo_26839" data-name="Grupo 26839" transform="translate(40.499 31.98)">
        <path id="Trazado_49185" data-name="Trazado 49185" d="M236.007,179.567l3.845-9.09s7.907,1.509,8.8,3.725c.927,2.284-1.471,8.407-3.845,9.088C242.512,183.951,236.007,179.567,236.007,179.567Z" transform="translate(-236.007 -170.477)" fill="#ffda89"/>
      </g>
    </g>
    <g id="Grupo_26849" data-name="Grupo 26849" transform="translate(428.947 186.594)">
      <g id="Grupo_26842" data-name="Grupo 26842" transform="translate(0 8.573)">
        <g id="Grupo_26841" data-name="Grupo 26841">
          <path id="Trazado_49186" data-name="Trazado 49186" d="M302.255,181.391l-4.992-1.465,5.717-5.906,21.026,7.254Z" transform="translate(-297.263 -174.02)" fill="#f0c542"/>
        </g>
      </g>
      <g id="Grupo_26844" data-name="Grupo 26844" transform="translate(4.56 13.007)">
        <g id="Grupo_26843" data-name="Grupo 26843">
          <path id="Trazado_49187" data-name="Trazado 49187" d="M299.387,187.188,321.57,178.9l-21.6-2.82Z" transform="translate(-299.387 -176.085)" fill="#fad77e"/>
        </g>
      </g>
      <g id="Grupo_26846" data-name="Grupo 26846" transform="translate(5.48)">
        <g id="Grupo_26845" data-name="Grupo 26845">
          <path id="Trazado_49188" data-name="Trazado 49188" d="M321.079,185.853l-21.263-5.726,1.6-10.1Z" transform="translate(-299.815 -170.026)" fill="#fad784"/>
        </g>
      </g>
      <g id="Grupo_26848" data-name="Grupo 26848" transform="translate(0 13.007)">
        <g id="Grupo_26847" data-name="Grupo 26847">
          <path id="Trazado_49189" data-name="Trazado 49189" d="M297.263,177.557l5.147-1.472-.155,2.937Z" transform="translate(-297.263 -176.085)" fill="#dbab33"/>
        </g>
      </g>
    </g>
    <g id="Grupo_26858" data-name="Grupo 26858" transform="translate(350.901 178.492)">
      <g id="Grupo_26851" data-name="Grupo 26851" transform="translate(0 5.168)">
        <g id="Grupo_26850" data-name="Grupo 26850">
          <path id="Trazado_49190" data-name="Trazado 49190" d="M263.924,173.107l-3.015-.885,3.451-3.562,12.678,4.375Z" transform="translate(-260.909 -168.66)" fill="#f0c542"/>
        </g>
      </g>
      <g id="Grupo_26853" data-name="Grupo 26853" transform="translate(2.751 7.843)">
        <g id="Grupo_26852" data-name="Grupo 26852">
          <path id="Trazado_49191" data-name="Trazado 49191" d="M262.19,176.6l13.378-5-13.022-1.7Z" transform="translate(-262.19 -169.906)" fill="#fad77e"/>
        </g>
      </g>
      <g id="Grupo_26855" data-name="Grupo 26855" transform="translate(3.306)">
        <g id="Grupo_26854" data-name="Grupo 26854">
          <path id="Trazado_49192" data-name="Trazado 49192" d="M275.272,175.8l-12.823-3.453.966-6.09Z" transform="translate(-262.449 -166.253)" fill="#fad784"/>
        </g>
      </g>
      <g id="Grupo_26857" data-name="Grupo 26857" transform="translate(0 7.843)">
        <g id="Grupo_26856" data-name="Grupo 26856">
          <path id="Trazado_49193" data-name="Trazado 49193" d="M260.909,170.793l3.107-.887-.092,1.772Z" transform="translate(-260.909 -169.906)" fill="#dbab33"/>
        </g>
      </g>
    </g>
    <g id="Grupo_26864" data-name="Grupo 26864" transform="translate(209.459 265.306)">
      <g id="Grupo_26862" data-name="Grupo 26862">
        <g id="Grupo_26859" data-name="Grupo 26859" transform="translate(26.257)">
          <path id="Trazado_49194" data-name="Trazado 49194" d="M207.257,293.676H341.832L315.554,206.69h-108.3Z" transform="translate(-207.257 -206.69)" fill="#b52426"/>
        </g>
        <g id="Grupo_26860" data-name="Grupo 26860">
          <path id="Trazado_49195" data-name="Trazado 49195" d="M221.283,293.676H348.421L322.167,206.69H195.026Z" transform="translate(-195.026 -206.69)" fill="#d64626"/>
        </g>
        <g id="Grupo_26861" data-name="Grupo 26861" transform="translate(153.394 80.652)">
          <rect id="Rectángulo_5016" data-name="Rectángulo 5016" width="83.317" height="6.334" fill="#b52426"/>
        </g>
      </g>
      <g id="Grupo_26863" data-name="Grupo 26863" transform="translate(60.695 38.797)">
        <path id="Trazado_49196" data-name="Trazado 49196" d="M245.638,235.926a11.17,11.17,0,1,1-11.166-11.164A11.179,11.179,0,0,1,245.638,235.926Z" transform="translate(-223.298 -224.762)" fill="#eaeaea"/>
      </g>
    </g>
    <g id="Grupo_26920" data-name="Grupo 26920" transform="translate(334.578 215.266)">
      <g id="Grupo_26868" data-name="Grupo 26868" transform="translate(67.506 125.061)">
        <g id="Grupo_26867" data-name="Grupo 26867">
          <g id="Grupo_26866" data-name="Grupo 26866">
            <g id="Grupo_26865" data-name="Grupo 26865">
              <path id="Trazado_49197" data-name="Trazado 49197" d="M286.769,241.635l1.449.469-.27,2.327.3,1.115,3.323,4.285-6.824-4.116Z" transform="translate(-284.75 -241.635)" fill="#7a92ce"/>
            </g>
          </g>
        </g>
      </g>
      <g id="Grupo_26872" data-name="Grupo 26872" transform="translate(62.013 122.702)">
        <g id="Grupo_26871" data-name="Grupo 26871">
          <g id="Grupo_26870" data-name="Grupo 26870">
            <g id="Grupo_26869" data-name="Grupo 26869">
              <path id="Trazado_49198" data-name="Trazado 49198" d="M288.724,240.536l-1.52.126-.262,2.329-.547,1.017-4.2,3.42,7.577-2.459Z" transform="translate(-282.191 -240.536)" fill="#7a92ce"/>
            </g>
          </g>
        </g>
      </g>
      <g id="Grupo_26876" data-name="Grupo 26876" transform="translate(64.202 58.711)">
        <g id="Grupo_26875" data-name="Grupo 26875">
          <g id="Grupo_26874" data-name="Grupo 26874">
            <g id="Grupo_26873" data-name="Grupo 26873">
              <path id="Trazado_49199" data-name="Trazado 49199" d="M298.837,210.73l1.149,36.864-9.868,32.165-2.96-1.38,5.134-28.612-9.08-29.8Z" transform="translate(-283.211 -210.73)" fill="#c86277"/>
            </g>
          </g>
        </g>
      </g>
      <g id="Grupo_26880" data-name="Grupo 26880" transform="translate(53.155 60.25)">
        <g id="Grupo_26879" data-name="Grupo 26879">
          <g id="Grupo_26878" data-name="Grupo 26878">
            <g id="Grupo_26877" data-name="Grupo 26877">
              <path id="Trazado_49200" data-name="Trazado 49200" d="M291.33,218.065v29.5l3.5,28.61h-3.5l-6.956-29.056-6.309-35.671Z" transform="translate(-278.065 -211.446)" fill="#a84e67"/>
            </g>
          </g>
        </g>
      </g>
      <g id="Grupo_26889" data-name="Grupo 26889" transform="translate(4.166 26.218)">
        <g id="Grupo_26884" data-name="Grupo 26884" transform="translate(0 15.766)">
          <g id="Grupo_26883" data-name="Grupo 26883">
            <g id="Grupo_26882" data-name="Grupo 26882">
              <g id="Grupo_26881" data-name="Grupo 26881">
                <path id="Trazado_49201" data-name="Trazado 49201" d="M261.18,204.694s-4.154-2.213-5.084-1.67c-.792.455-2.784,3.328,4.616,3.51Z" transform="translate(-255.246 -202.938)" fill="#ff8f00"/>
              </g>
            </g>
          </g>
        </g>
        <g id="Grupo_26888" data-name="Grupo 26888" transform="translate(4.856)">
          <g id="Grupo_26887" data-name="Grupo 26887">
            <g id="Grupo_26886" data-name="Grupo 26886">
              <g id="Grupo_26885" data-name="Grupo 26885">
                <path id="Trazado_49202" data-name="Trazado 49202" d="M294.466,204.585l-9.775,18.867-27.184-8.306.6-2.306L280,215.955l9.586-16.3s2.791-5.734,6.473-3.572A18.576,18.576,0,0,1,294.466,204.585Z" transform="translate(-257.508 -195.594)" fill="#ff8f00"/>
              </g>
            </g>
          </g>
        </g>
      </g>
      <g id="Grupo_26892" data-name="Grupo 26892" transform="translate(42.691 21.416)">
        <g id="Grupo_26891" data-name="Grupo 26891">
          <g id="Grupo_26890" data-name="Grupo 26890">
            <path id="Trazado_49203" data-name="Trazado 49203" d="M287.6,193.359c3.542-.062,11.608,2.739,13.886,7.229s3.388,15.872,3.388,15.872l5.457,14.2s-10.681,15.069-26.69,5.281c0,0-3.9-14.567-6.537-20.711-1.541-3.577-6.5-13.3-2.19-16.791C281.211,193.32,284,193.423,287.6,193.359Z" transform="translate(-273.191 -193.358)" fill="#ff8f00"/>
          </g>
        </g>
      </g>
      <g id="Grupo_26896" data-name="Grupo 26896" transform="translate(49.028 16.928)">
        <g id="Grupo_26895" data-name="Grupo 26895">
          <g id="Grupo_26894" data-name="Grupo 26894">
            <g id="Grupo_26893" data-name="Grupo 26893">
              <path id="Trazado_49204" data-name="Trazado 49204" d="M279.754,191.267l2.675,5.084s-5.586,6.323-5.548,3.463a64.121,64.121,0,0,0-.739-7.724Z" transform="translate(-276.143 -191.267)" fill="#ffc190"/>
            </g>
          </g>
        </g>
      </g>
      <g id="Grupo_26900" data-name="Grupo 26900" transform="translate(46.315 9.861)">
        <g id="Grupo_26899" data-name="Grupo 26899">
          <g id="Grupo_26898" data-name="Grupo 26898">
            <g id="Grupo_26897" data-name="Grupo 26897">
              <path id="Trazado_49205" data-name="Trazado 49205" d="M279.787,188.808c.693,1,2.061,2.965,1.769,4.564s-.638,4.42-2.164,5.427a2.379,2.379,0,0,1-3.261-.861c-.681-.979-2.407-6.934-.058-9.017C277.844,187.352,279.256,188.039,279.787,188.808Z" transform="translate(-274.879 -187.975)" fill="#ffc190"/>
            </g>
          </g>
        </g>
      </g>
      <g id="Grupo_26904" data-name="Grupo 26904" transform="translate(46.684 9.459)">
        <g id="Grupo_26903" data-name="Grupo 26903">
          <g id="Grupo_26902" data-name="Grupo 26902">
            <g id="Grupo_26901" data-name="Grupo 26901">
              <path id="Trazado_49206" data-name="Trazado 49206" d="M275.051,190.491a3.422,3.422,0,0,0,3.2.013c1.745-.878,1.928,1.009,1.975,1.213s.324,2.885.973,2.78.773-3.553-.668-5.528A3.079,3.079,0,0,0,275.051,190.491Z" transform="translate(-275.051 -187.788)" fill="#2e3b57"/>
            </g>
          </g>
        </g>
      </g>
      <g id="Grupo_26908" data-name="Grupo 26908" transform="translate(46.678 17.22)">
        <g id="Grupo_26907" data-name="Grupo 26907">
          <g id="Grupo_26906" data-name="Grupo 26906">
            <g id="Grupo_26905" data-name="Grupo 26905">
              <path id="Trazado_49207" data-name="Trazado 49207" d="M280.99,191.4s-1.462,2.248-3.452,2.45c-1.258.133-2.374-1.863-2.477-2.323s.339,4.2,3.068,3.74S280.99,191.4,280.99,191.4Z" transform="translate(-275.048 -191.403)" fill="#2e3b57"/>
            </g>
          </g>
        </g>
      </g>
      <g id="Grupo_26917" data-name="Grupo 26917" transform="translate(32.064 27.07)">
        <g id="Grupo_26912" data-name="Grupo 26912" transform="translate(0 24.23)">
          <g id="Grupo_26911" data-name="Grupo 26911">
            <g id="Grupo_26910" data-name="Grupo 26910">
              <g id="Grupo_26909" data-name="Grupo 26909">
                <path id="Trazado_49208" data-name="Trazado 49208" d="M274.125,208.094s-4.513-1.322-5.318-.6c-.681.608-2.046,3.83,5.234,2.495Z" transform="translate(-268.241 -207.278)" fill="#ff8f00"/>
              </g>
            </g>
          </g>
        </g>
        <g id="Grupo_26916" data-name="Grupo 26916" transform="translate(5.246)">
          <g id="Grupo_26915" data-name="Grupo 26915">
            <g id="Grupo_26914" data-name="Grupo 26914">
              <g id="Grupo_26913" data-name="Grupo 26913">
                <path id="Trazado_49209" data-name="Trazado 49209" d="M304.7,205.357l-5.713,20.464-28.3-2.578.116-2.379,22.07-1.423,6.056-17.913s2.649-7.907,5.6-4.822C306.02,198.273,305.8,201.132,304.7,205.357Z" transform="translate(-270.685 -195.991)" fill="#ff8f00"/>
              </g>
            </g>
          </g>
        </g>
      </g>
      <g id="Grupo_26919" data-name="Grupo 26919">
        <g id="Grupo_26918" data-name="Grupo 26918">
          <path id="Trazado_49210" data-name="Trazado 49210" d="M259.534,215.707l-.069-1.8c-.208-3.529.968-7.13,4.083-10.867,2.216-2.63,4.015-4.845,4.015-7.2,0-2.422-1.591-4.015-5.052-4.154a13.085,13.085,0,0,0-6.855,2.078l-2.351-7.546a23.733,23.733,0,0,1,11.557-2.836c9.137,0,13.291,5.052,13.291,10.8,0,5.26-3.253,8.723-5.882,11.63a11.89,11.89,0,0,0-3.532,8.652v1.247Zm-1.8,9.551a6,6,0,0,1,6.159-6.3c3.738,0,6.161,2.63,6.232,6.3a6.2,6.2,0,1,1-12.392,0Z" transform="translate(-253.306 -183.382)" fill="#5f82d6"/>
        </g>
      </g>
    </g>
  </g>
</svg>
